<svg width="229" height="251" viewBox="0 0 229 251" fill="none" xmlns="http://www.w3.org/2000/svg">
<path d="M74.984 10.484L72.392 16.58C72.336 16.732 72.248 16.852 72.128 16.94C72.016 17.02 71.892 17.06 71.756 17.06C71.54 17.06 71.38 17 71.276 16.88C71.172 16.76 71.12 16.612 71.12 16.436C71.12 16.364 71.132 16.288 71.156 16.208L74.144 9.032C74.208 8.872 74.304 8.748 74.432 8.66C74.568 8.572 74.712 8.536 74.864 8.552C75.008 8.552 75.14 8.596 75.26 8.684C75.388 8.764 75.48 8.88 75.536 9.032L78.488 16.064C78.528 16.168 78.548 16.264 78.548 16.352C78.548 16.568 78.476 16.74 78.332 16.868C78.196 16.996 78.044 17.06 77.876 17.06C77.732 17.06 77.6 17.016 77.48 16.928C77.368 16.84 77.28 16.72 77.216 16.568L74.636 10.556L74.984 10.484ZM72.764 15.116L73.424 13.736H76.664L76.892 15.116H72.764ZM82.8761 10.46C83.4681 10.46 83.9161 10.584 84.2201 10.832C84.5321 11.08 84.7441 11.412 84.8561 11.828C84.9761 12.236 85.0361 12.692 85.0361 13.196V16.268C85.0361 16.476 84.9681 16.652 84.8321 16.796C84.6961 16.932 84.5241 17 84.3161 17C84.1081 17 83.9361 16.932 83.8001 16.796C83.6641 16.652 83.5961 16.476 83.5961 16.268V13.196C83.5961 12.932 83.5601 12.696 83.4881 12.488C83.4241 12.272 83.3041 12.1 83.1281 11.972C82.9521 11.844 82.7001 11.78 82.3721 11.78C82.0521 11.78 81.7801 11.844 81.5561 11.972C81.3401 12.1 81.1721 12.272 81.0521 12.488C80.9401 12.696 80.8841 12.932 80.8841 13.196V16.268C80.8841 16.476 80.8161 16.652 80.6801 16.796C80.5441 16.932 80.3721 17 80.1641 17C79.9561 17 79.7841 16.932 79.6481 16.796C79.5121 16.652 79.4441 16.476 79.4441 16.268V11.312C79.4441 11.104 79.5121 10.932 79.6481 10.796C79.7841 10.652 79.9561 10.58 80.1641 10.58C80.3721 10.58 80.5441 10.652 80.6801 10.796C80.8161 10.932 80.8841 11.104 80.8841 11.312V11.828L80.7041 11.792C80.7761 11.656 80.8801 11.512 81.0161 11.36C81.1521 11.2 81.3121 11.052 81.4961 10.916C81.6801 10.78 81.8881 10.672 82.1201 10.592C82.3521 10.504 82.6041 10.46 82.8761 10.46ZM91.8485 10.46C92.0565 10.46 92.2285 10.528 92.3645 10.664C92.5005 10.8 92.5685 10.976 92.5685 11.192V16.268C92.5685 16.476 92.5005 16.652 92.3645 16.796C92.2285 16.932 92.0565 17 91.8485 17C91.6405 17 91.4685 16.932 91.3325 16.796C91.1965 16.652 91.1285 16.476 91.1285 16.268V15.68L91.3925 15.788C91.3925 15.892 91.3365 16.02 91.2245 16.172C91.1125 16.316 90.9605 16.46 90.7685 16.604C90.5765 16.748 90.3485 16.872 90.0845 16.976C89.8285 17.072 89.5485 17.12 89.2445 17.12C88.6925 17.12 88.1925 16.98 87.7445 16.7C87.2965 16.412 86.9405 16.02 86.6765 15.524C86.4205 15.02 86.2925 14.444 86.2925 13.796C86.2925 13.14 86.4205 12.564 86.6765 12.068C86.9405 11.564 87.2925 11.172 87.7325 10.892C88.1725 10.604 88.6605 10.46 89.1965 10.46C89.5405 10.46 89.8565 10.512 90.1445 10.616C90.4325 10.72 90.6805 10.852 90.8885 11.012C91.1045 11.172 91.2685 11.336 91.3805 11.504C91.5005 11.664 91.5605 11.8 91.5605 11.912L91.1285 12.068V11.192C91.1285 10.984 91.1965 10.812 91.3325 10.676C91.4685 10.532 91.6405 10.46 91.8485 10.46ZM89.4245 15.8C89.7765 15.8 90.0845 15.712 90.3485 15.536C90.6125 15.36 90.8165 15.12 90.9605 14.816C91.1125 14.512 91.1885 14.172 91.1885 13.796C91.1885 13.412 91.1125 13.068 90.9605 12.764C90.8165 12.46 90.6125 12.22 90.3485 12.044C90.0845 11.868 89.7765 11.78 89.4245 11.78C89.0805 11.78 88.7765 11.868 88.5125 12.044C88.2485 12.22 88.0405 12.46 87.8885 12.764C87.7445 13.068 87.6725 13.412 87.6725 13.796C87.6725 14.172 87.7445 14.512 87.8885 14.816C88.0405 15.12 88.2485 15.36 88.5125 15.536C88.7765 15.712 89.0805 15.8 89.4245 15.8ZM95.6877 16.268C95.6877 16.476 95.6157 16.652 95.4717 16.796C95.3357 16.932 95.1637 17 94.9557 17C94.7557 17 94.5877 16.932 94.4517 16.796C94.3157 16.652 94.2477 16.476 94.2477 16.268V8.852C94.2477 8.644 94.3157 8.472 94.4517 8.336C94.5957 8.192 94.7717 8.12 94.9797 8.12C95.1877 8.12 95.3557 8.192 95.4837 8.336C95.6197 8.472 95.6877 8.644 95.6877 8.852V16.268ZM101.95 10.58C102.158 10.58 102.33 10.652 102.466 10.796C102.602 10.932 102.67 11.104 102.67 11.312V16.412C102.67 17.148 102.53 17.732 102.25 18.164C101.978 18.604 101.61 18.92 101.146 19.112C100.682 19.304 100.162 19.4 99.5863 19.4C99.3303 19.4 99.0583 19.38 98.7703 19.34C98.4823 19.3 98.2463 19.24 98.0623 19.16C97.8223 19.056 97.6543 18.924 97.5583 18.764C97.4703 18.612 97.4543 18.448 97.5103 18.272C97.5823 18.04 97.6983 17.88 97.8583 17.792C98.0183 17.712 98.1863 17.704 98.3623 17.768C98.4903 17.808 98.6583 17.868 98.8663 17.948C99.0743 18.036 99.3143 18.08 99.5863 18.08C99.9543 18.08 100.258 18.028 100.498 17.924C100.746 17.828 100.93 17.66 101.05 17.42C101.178 17.188 101.242 16.868 101.242 16.46V15.656L101.494 15.944C101.358 16.208 101.186 16.428 100.978 16.604C100.778 16.772 100.538 16.9 100.258 16.988C99.9783 17.076 99.6583 17.12 99.2983 17.12C98.8743 17.12 98.5023 17.024 98.1823 16.832C97.8703 16.632 97.6263 16.36 97.4503 16.016C97.2743 15.664 97.1863 15.264 97.1863 14.816V11.312C97.1863 11.104 97.2543 10.932 97.3903 10.796C97.5263 10.652 97.6983 10.58 97.9062 10.58C98.1143 10.58 98.2863 10.652 98.4223 10.796C98.5583 10.932 98.6263 11.104 98.6263 11.312V14.384C98.6263 14.904 98.7383 15.272 98.9623 15.488C99.1943 15.696 99.5143 15.8 99.9223 15.8C100.202 15.8 100.438 15.748 100.63 15.644C100.822 15.532 100.97 15.372 101.074 15.164C101.178 14.948 101.23 14.688 101.23 14.384V11.312C101.23 11.104 101.298 10.932 101.434 10.796C101.57 10.652 101.742 10.58 101.95 10.58ZM103.74 16.004C103.66 15.892 103.624 15.748 103.632 15.572C103.64 15.396 103.744 15.244 103.944 15.116C104.072 15.036 104.208 15.004 104.352 15.02C104.496 15.028 104.636 15.1 104.772 15.236C105.004 15.468 105.248 15.648 105.504 15.776C105.76 15.904 106.08 15.968 106.464 15.968C106.584 15.96 106.716 15.944 106.86 15.92C107.004 15.888 107.128 15.824 107.232 15.728C107.344 15.624 107.4 15.468 107.4 15.26C107.4 15.084 107.34 14.944 107.22 14.84C107.1 14.736 106.94 14.648 106.74 14.576C106.548 14.504 106.332 14.436 106.092 14.372C105.844 14.3 105.588 14.22 105.324 14.132C105.068 14.044 104.832 13.932 104.616 13.796C104.4 13.652 104.224 13.464 104.088 13.232C103.952 13 103.884 12.708 103.884 12.356C103.884 11.956 103.996 11.616 104.22 11.336C104.444 11.056 104.732 10.84 105.084 10.688C105.444 10.536 105.82 10.46 106.212 10.46C106.46 10.46 106.72 10.492 106.992 10.556C107.264 10.612 107.524 10.708 107.772 10.844C108.02 10.972 108.228 11.144 108.396 11.36C108.484 11.48 108.536 11.624 108.552 11.792C108.568 11.96 108.492 12.112 108.324 12.248C108.204 12.344 108.064 12.388 107.904 12.38C107.744 12.364 107.612 12.308 107.508 12.212C107.372 12.036 107.188 11.896 106.956 11.792C106.732 11.688 106.472 11.636 106.176 11.636C106.056 11.636 105.924 11.652 105.78 11.684C105.644 11.708 105.524 11.768 105.42 11.864C105.316 11.952 105.264 12.096 105.264 12.296C105.264 12.48 105.324 12.628 105.444 12.74C105.564 12.844 105.724 12.932 105.924 13.004C106.132 13.068 106.352 13.132 106.584 13.196C106.824 13.26 107.068 13.336 107.316 13.424C107.564 13.512 107.792 13.628 108 13.772C108.208 13.916 108.376 14.104 108.504 14.336C108.632 14.56 108.696 14.848 108.696 15.2C108.696 15.608 108.576 15.956 108.336 16.244C108.096 16.532 107.796 16.752 107.436 16.904C107.076 17.048 106.708 17.12 106.332 17.12C105.86 17.12 105.388 17.04 104.916 16.88C104.444 16.712 104.052 16.42 103.74 16.004ZM111.257 16.268C111.257 16.476 111.189 16.652 111.053 16.796C110.917 16.932 110.745 17 110.537 17C110.329 17 110.157 16.932 110.021 16.796C109.885 16.652 109.817 16.476 109.817 16.268V11.312C109.817 11.104 109.885 10.932 110.021 10.796C110.157 10.652 110.329 10.58 110.537 10.58C110.745 10.58 110.917 10.652 111.053 10.796C111.189 10.932 111.257 11.104 111.257 11.312V16.268ZM110.525 9.8C110.253 9.8 110.061 9.756 109.949 9.668C109.837 9.58 109.781 9.424 109.781 9.2V8.972C109.781 8.74 109.841 8.584 109.961 8.504C110.089 8.416 110.281 8.372 110.537 8.372C110.817 8.372 111.013 8.416 111.125 8.504C111.237 8.592 111.293 8.748 111.293 8.972V9.2C111.293 9.432 111.233 9.592 111.113 9.68C110.993 9.76 110.797 9.8 110.525 9.8ZM116.169 10.46C116.761 10.46 117.209 10.584 117.513 10.832C117.825 11.08 118.037 11.412 118.149 11.828C118.269 12.236 118.329 12.692 118.329 13.196V16.268C118.329 16.476 118.261 16.652 118.125 16.796C117.989 16.932 117.817 17 117.609 17C117.401 17 117.229 16.932 117.093 16.796C116.957 16.652 116.889 16.476 116.889 16.268V13.196C116.889 12.932 116.853 12.696 116.781 12.488C116.717 12.272 116.597 12.1 116.421 11.972C116.245 11.844 115.993 11.78 115.665 11.78C115.345 11.78 115.073 11.844 114.849 11.972C114.633 12.1 114.465 12.272 114.345 12.488C114.233 12.696 114.177 12.932 114.177 13.196V16.268C114.177 16.476 114.109 16.652 113.973 16.796C113.837 16.932 113.665 17 113.457 17C113.249 17 113.077 16.932 112.941 16.796C112.805 16.652 112.737 16.476 112.737 16.268V11.312C112.737 11.104 112.805 10.932 112.941 10.796C113.077 10.652 113.249 10.58 113.457 10.58C113.665 10.58 113.837 10.652 113.973 10.796C114.109 10.932 114.177 11.104 114.177 11.312V11.828L113.997 11.792C114.069 11.656 114.173 11.512 114.309 11.36C114.445 11.2 114.605 11.052 114.789 10.916C114.973 10.78 115.181 10.672 115.413 10.592C115.645 10.504 115.897 10.46 116.169 10.46ZM122.549 10.46C122.885 10.46 123.193 10.512 123.473 10.616C123.753 10.72 123.993 10.852 124.193 11.012C124.401 11.172 124.561 11.336 124.673 11.504C124.793 11.664 124.853 11.8 124.853 11.912L124.541 12.068V11.192C124.541 10.984 124.609 10.812 124.745 10.676C124.881 10.532 125.053 10.46 125.261 10.46C125.469 10.46 125.641 10.528 125.777 10.664C125.913 10.8 125.981 10.976 125.981 11.192V16.532C125.981 17.228 125.829 17.784 125.525 18.2C125.229 18.624 124.837 18.928 124.349 19.112C123.861 19.304 123.337 19.4 122.777 19.4C122.617 19.4 122.409 19.38 122.153 19.34C121.897 19.3 121.653 19.252 121.421 19.196C121.189 19.14 121.013 19.088 120.893 19.04C120.653 18.936 120.485 18.804 120.389 18.644C120.301 18.492 120.285 18.328 120.341 18.152C120.413 17.92 120.529 17.76 120.689 17.672C120.849 17.592 121.017 17.584 121.193 17.648C121.273 17.672 121.405 17.72 121.589 17.792C121.773 17.864 121.973 17.928 122.189 17.984C122.413 18.048 122.609 18.08 122.777 18.08C123.377 18.08 123.821 17.96 124.109 17.72C124.397 17.48 124.541 17.148 124.541 16.724V15.68L124.685 15.788C124.685 15.892 124.629 16.02 124.517 16.172C124.413 16.316 124.265 16.46 124.073 16.604C123.889 16.748 123.669 16.872 123.413 16.976C123.157 17.072 122.885 17.12 122.597 17.12C122.029 17.12 121.517 16.98 121.061 16.7C120.605 16.412 120.245 16.02 119.981 15.524C119.717 15.02 119.585 14.444 119.585 13.796C119.585 13.14 119.717 12.564 119.981 12.068C120.245 11.564 120.601 11.172 121.049 10.892C121.497 10.604 121.997 10.46 122.549 10.46ZM122.777 11.78C122.417 11.78 122.101 11.868 121.829 12.044C121.557 12.22 121.345 12.46 121.193 12.764C121.041 13.068 120.965 13.412 120.965 13.796C120.965 14.172 121.041 14.512 121.193 14.816C121.345 15.12 121.557 15.36 121.829 15.536C122.101 15.712 122.417 15.8 122.777 15.8C123.145 15.8 123.465 15.712 123.737 15.536C124.009 15.36 124.221 15.12 124.373 14.816C124.525 14.512 124.601 14.172 124.601 13.796C124.601 13.412 124.525 13.068 124.373 12.764C124.221 12.46 124.009 12.22 123.737 12.044C123.465 11.868 123.145 11.78 122.777 11.78ZM135.665 10.58C135.873 10.58 136.045 10.652 136.181 10.796C136.317 10.932 136.385 11.104 136.385 11.312V16.412C136.385 17.148 136.245 17.732 135.965 18.164C135.693 18.604 135.325 18.92 134.861 19.112C134.397 19.304 133.877 19.4 133.301 19.4C133.045 19.4 132.773 19.38 132.485 19.34C132.197 19.3 131.961 19.24 131.777 19.16C131.537 19.056 131.369 18.924 131.273 18.764C131.185 18.612 131.169 18.448 131.225 18.272C131.297 18.04 131.413 17.88 131.573 17.792C131.733 17.712 131.901 17.704 132.077 17.768C132.205 17.808 132.373 17.868 132.581 17.948C132.789 18.036 133.029 18.08 133.301 18.08C133.669 18.08 133.973 18.028 134.213 17.924C134.461 17.828 134.645 17.66 134.765 17.42C134.893 17.188 134.957 16.868 134.957 16.46V15.656L135.209 15.944C135.073 16.208 134.901 16.428 134.693 16.604C134.493 16.772 134.253 16.9 133.973 16.988C133.693 17.076 133.373 17.12 133.013 17.12C132.589 17.12 132.217 17.024 131.897 16.832C131.585 16.632 131.341 16.36 131.165 16.016C130.989 15.664 130.901 15.264 130.901 14.816V11.312C130.901 11.104 130.969 10.932 131.105 10.796C131.241 10.652 131.413 10.58 131.621 10.58C131.829 10.58 132.001 10.652 132.137 10.796C132.273 10.932 132.341 11.104 132.341 11.312V14.384C132.341 14.904 132.453 15.272 132.677 15.488C132.909 15.696 133.229 15.8 133.637 15.8C133.917 15.8 134.153 15.748 134.345 15.644C134.537 15.532 134.685 15.372 134.789 15.164C134.893 14.948 134.945 14.688 134.945 14.384V11.312C134.945 11.104 135.013 10.932 135.149 10.796C135.285 10.652 135.457 10.58 135.665 10.58ZM144.113 13.796C144.113 14.452 143.965 15.032 143.669 15.536C143.381 16.032 142.989 16.42 142.493 16.7C142.005 16.98 141.457 17.12 140.849 17.12C140.241 17.12 139.689 16.98 139.193 16.7C138.705 16.42 138.313 16.032 138.017 15.536C137.729 15.032 137.585 14.452 137.585 13.796C137.585 13.14 137.729 12.564 138.017 12.068C138.313 11.564 138.705 11.172 139.193 10.892C139.689 10.604 140.241 10.46 140.849 10.46C141.457 10.46 142.005 10.604 142.493 10.892C142.989 11.172 143.381 11.564 143.669 12.068C143.965 12.564 144.113 13.14 144.113 13.796ZM142.673 13.796C142.673 13.388 142.589 13.036 142.421 12.74C142.261 12.436 142.041 12.2 141.761 12.032C141.489 11.864 141.185 11.78 140.849 11.78C140.513 11.78 140.205 11.864 139.925 12.032C139.653 12.2 139.433 12.436 139.265 12.74C139.105 13.036 139.025 13.388 139.025 13.796C139.025 14.196 139.105 14.548 139.265 14.852C139.433 15.148 139.653 15.38 139.925 15.548C140.205 15.716 140.513 15.8 140.849 15.8C141.185 15.8 141.489 15.716 141.761 15.548C142.041 15.38 142.261 15.148 142.421 14.852C142.589 14.548 142.673 14.196 142.673 13.796ZM150.138 10.58C150.346 10.58 150.518 10.652 150.654 10.796C150.79 10.932 150.858 11.104 150.858 11.312V14.36C150.858 15.208 150.622 15.88 150.15 16.376C149.678 16.872 148.998 17.12 148.11 17.12C147.222 17.12 146.542 16.872 146.07 16.376C145.606 15.88 145.374 15.208 145.374 14.36V11.312C145.374 11.104 145.442 10.932 145.578 10.796C145.714 10.652 145.886 10.58 146.094 10.58C146.302 10.58 146.474 10.652 146.61 10.796C146.746 10.932 146.814 11.104 146.814 11.312V14.36C146.814 14.848 146.922 15.212 147.138 15.452C147.354 15.684 147.678 15.8 148.11 15.8C148.55 15.8 148.878 15.684 149.094 15.452C149.31 15.212 149.418 14.848 149.418 14.36V11.312C149.418 11.104 149.486 10.932 149.622 10.796C149.758 10.652 149.93 10.58 150.138 10.58ZM153.137 17C152.929 17 152.757 16.932 152.621 16.796C152.485 16.652 152.417 16.476 152.417 16.268V11.312C152.417 11.104 152.485 10.932 152.621 10.796C152.757 10.652 152.929 10.58 153.137 10.58C153.345 10.58 153.517 10.652 153.653 10.796C153.789 10.932 153.857 11.104 153.857 11.312V12.44L153.773 11.636C153.861 11.444 153.973 11.276 154.109 11.132C154.253 10.98 154.413 10.856 154.589 10.76C154.765 10.656 154.953 10.58 155.153 10.532C155.353 10.484 155.553 10.46 155.753 10.46C155.993 10.46 156.193 10.528 156.353 10.664C156.521 10.8 156.605 10.96 156.605 11.144C156.605 11.408 156.537 11.6 156.401 11.72C156.265 11.832 156.117 11.888 155.957 11.888C155.805 11.888 155.665 11.86 155.537 11.804C155.417 11.748 155.277 11.72 155.117 11.72C154.973 11.72 154.825 11.756 154.673 11.828C154.529 11.892 154.393 11.996 154.265 12.14C154.145 12.284 154.045 12.464 153.965 12.68C153.893 12.888 153.857 13.136 153.857 13.424V16.268C153.857 16.476 153.789 16.652 153.653 16.796C153.517 16.932 153.345 17 153.137 17ZM164.703 8.6C165.279 8.6 165.791 8.708 166.239 8.924C166.687 9.14 167.063 9.444 167.367 9.836C167.679 10.22 167.911 10.668 168.063 11.18C168.223 11.684 168.303 12.224 168.303 12.8C168.303 13.576 168.163 14.284 167.883 14.924C167.603 15.556 167.195 16.06 166.659 16.436C166.131 16.812 165.479 17 164.703 17H161.835C161.627 17 161.451 16.932 161.307 16.796C161.171 16.652 161.103 16.476 161.103 16.268V9.332C161.103 9.124 161.171 8.952 161.307 8.816C161.451 8.672 161.627 8.6 161.835 8.6H164.703ZM164.583 15.62C165.087 15.62 165.499 15.492 165.819 15.236C166.139 14.972 166.371 14.628 166.515 14.204C166.667 13.772 166.743 13.304 166.743 12.8C166.743 12.424 166.699 12.068 166.611 11.732C166.531 11.388 166.403 11.088 166.227 10.832C166.051 10.568 165.827 10.36 165.555 10.208C165.283 10.056 164.959 9.98 164.583 9.98H162.483L162.603 9.872V15.752L162.531 15.62H164.583ZM174.817 10.46C175.025 10.46 175.197 10.528 175.333 10.664C175.469 10.8 175.537 10.976 175.537 11.192V16.268C175.537 16.476 175.469 16.652 175.333 16.796C175.197 16.932 175.025 17 174.817 17C174.609 17 174.437 16.932 174.301 16.796C174.165 16.652 174.097 16.476 174.097 16.268V15.68L174.361 15.788C174.361 15.892 174.305 16.02 174.193 16.172C174.081 16.316 173.929 16.46 173.737 16.604C173.545 16.748 173.317 16.872 173.053 16.976C172.797 17.072 172.517 17.12 172.213 17.12C171.661 17.12 171.161 16.98 170.713 16.7C170.265 16.412 169.909 16.02 169.645 15.524C169.389 15.02 169.261 14.444 169.261 13.796C169.261 13.14 169.389 12.564 169.645 12.068C169.909 11.564 170.261 11.172 170.701 10.892C171.141 10.604 171.629 10.46 172.165 10.46C172.509 10.46 172.825 10.512 173.113 10.616C173.401 10.72 173.649 10.852 173.857 11.012C174.073 11.172 174.237 11.336 174.349 11.504C174.469 11.664 174.529 11.8 174.529 11.912L174.097 12.068V11.192C174.097 10.984 174.165 10.812 174.301 10.676C174.437 10.532 174.609 10.46 174.817 10.46ZM172.393 15.8C172.745 15.8 173.053 15.712 173.317 15.536C173.581 15.36 173.785 15.12 173.929 14.816C174.081 14.512 174.157 14.172 174.157 13.796C174.157 13.412 174.081 13.068 173.929 12.764C173.785 12.46 173.581 12.22 173.317 12.044C173.053 11.868 172.745 11.78 172.393 11.78C172.049 11.78 171.745 11.868 171.481 12.044C171.217 12.22 171.009 12.46 170.857 12.764C170.713 13.068 170.641 13.412 170.641 13.796C170.641 14.172 170.713 14.512 170.857 14.816C171.009 15.12 171.217 15.36 171.481 15.536C171.745 15.712 172.049 15.8 172.393 15.8ZM177.168 10.7H180.012C180.204 10.7 180.364 10.764 180.492 10.892C180.62 11.02 180.684 11.18 180.684 11.372C180.684 11.556 180.62 11.712 180.492 11.84C180.364 11.96 180.204 12.02 180.012 12.02H177.168C176.976 12.02 176.816 11.956 176.688 11.828C176.56 11.7 176.496 11.54 176.496 11.348C176.496 11.164 176.56 11.012 176.688 10.892C176.816 10.764 176.976 10.7 177.168 10.7ZM178.452 9.2C178.66 9.2 178.828 9.272 178.956 9.416C179.092 9.552 179.16 9.724 179.16 9.932V15.272C179.16 15.384 179.18 15.476 179.22 15.548C179.268 15.62 179.328 15.672 179.4 15.704C179.48 15.736 179.564 15.752 179.652 15.752C179.748 15.752 179.836 15.736 179.916 15.704C179.996 15.664 180.088 15.644 180.192 15.644C180.304 15.644 180.404 15.696 180.492 15.8C180.588 15.904 180.636 16.048 180.636 16.232C180.636 16.456 180.512 16.64 180.264 16.784C180.024 16.928 179.764 17 179.484 17C179.316 17 179.128 16.988 178.92 16.964C178.72 16.932 178.528 16.864 178.344 16.76C178.168 16.648 178.02 16.48 177.9 16.256C177.78 16.032 177.72 15.724 177.72 15.332V9.932C177.72 9.724 177.788 9.552 177.924 9.416C178.068 9.272 178.244 9.2 178.452 9.2ZM187.263 10.46C187.471 10.46 187.643 10.528 187.779 10.664C187.915 10.8 187.983 10.976 187.983 11.192V16.268C187.983 16.476 187.915 16.652 187.779 16.796C187.643 16.932 187.471 17 187.263 17C187.055 17 186.883 16.932 186.747 16.796C186.611 16.652 186.543 16.476 186.543 16.268V15.68L186.807 15.788C186.807 15.892 186.751 16.02 186.639 16.172C186.527 16.316 186.375 16.46 186.183 16.604C185.991 16.748 185.763 16.872 185.499 16.976C185.243 17.072 184.963 17.12 184.659 17.12C184.107 17.12 183.607 16.98 183.159 16.7C182.711 16.412 182.355 16.02 182.091 15.524C181.835 15.02 181.707 14.444 181.707 13.796C181.707 13.14 181.835 12.564 182.091 12.068C182.355 11.564 182.707 11.172 183.147 10.892C183.587 10.604 184.075 10.46 184.611 10.46C184.955 10.46 185.271 10.512 185.559 10.616C185.847 10.72 186.095 10.852 186.303 11.012C186.519 11.172 186.683 11.336 186.795 11.504C186.915 11.664 186.975 11.8 186.975 11.912L186.543 12.068V11.192C186.543 10.984 186.611 10.812 186.747 10.676C186.883 10.532 187.055 10.46 187.263 10.46ZM184.839 15.8C185.191 15.8 185.499 15.712 185.763 15.536C186.027 15.36 186.231 15.12 186.375 14.816C186.527 14.512 186.603 14.172 186.603 13.796C186.603 13.412 186.527 13.068 186.375 12.764C186.231 12.46 186.027 12.22 185.763 12.044C185.499 11.868 185.191 11.78 184.839 11.78C184.495 11.78 184.191 11.868 183.927 12.044C183.663 12.22 183.455 12.46 183.303 12.764C183.159 13.068 183.087 13.412 183.087 13.796C183.087 14.172 183.159 14.512 183.303 14.816C183.455 15.12 183.663 15.36 183.927 15.536C184.191 15.712 184.495 15.8 184.839 15.8Z" fill="#272362"/>
<path d="M59 19H52.82C52.6707 18.5806 52.4299 18.1997 52.1151 17.8849C51.8003 17.5701 51.4194 17.3293 51 17.18V15H54C54.7956 15 55.5587 14.6839 56.1213 14.1213C56.6839 13.5587 57 12.7956 57 12V8C57 8 57 8 57 7.94C56.9896 7.84813 56.9695 7.75763 56.94 7.67V7.58C56.8919 7.47718 56.8278 7.38267 56.75 7.3V7.3L50.75 1.3C50.6673 1.22222 50.5728 1.15808 50.47 1.11C50.4402 1.10576 50.4099 1.10576 50.38 1.11C50.2784 1.05174 50.1662 1.01434 50.05 1H46C45.2044 1 44.4413 1.31607 43.8787 1.87868C43.3161 2.44129 43 3.20435 43 4V12C43 12.7956 43.3161 13.5587 43.8787 14.1213C44.4413 14.6839 45.2044 15 46 15H49V17.18C48.5806 17.3293 48.1997 17.5701 47.8849 17.8849C47.5701 18.1997 47.3293 18.5806 47.18 19H41C40.7348 19 40.4804 19.1054 40.2929 19.2929C40.1054 19.4804 40 19.7348 40 20C40 20.2652 40.1054 20.5196 40.2929 20.7071C40.4804 20.8946 40.7348 21 41 21H47.18C47.3902 21.5792 47.7736 22.0795 48.2782 22.4332C48.7827 22.7868 49.3839 22.9765 50 22.9765C50.6161 22.9765 51.2173 22.7868 51.7218 22.4332C52.2264 22.0795 52.6098 21.5792 52.82 21H59C59.2652 21 59.5196 20.8946 59.7071 20.7071C59.8946 20.5196 60 20.2652 60 20C60 19.7348 59.8946 19.4804 59.7071 19.2929C59.5196 19.1054 59.2652 19 59 19ZM51 4.41L53.59 7H52C51.7348 7 51.4804 6.89464 51.2929 6.70711C51.1054 6.51957 51 6.26522 51 6V4.41ZM46 13C45.7348 13 45.4804 12.8946 45.2929 12.7071C45.1054 12.5196 45 12.2652 45 12V4C45 3.73478 45.1054 3.48043 45.2929 3.29289C45.4804 3.10536 45.7348 3 46 3H49V6C49 6.79565 49.3161 7.55871 49.8787 8.12132C50.4413 8.68393 51.2044 9 52 9H55V12C55 12.2652 54.8946 12.5196 54.7071 12.7071C54.5196 12.8946 54.2652 13 54 13H46ZM50 21C49.8022 21 49.6089 20.9414 49.4444 20.8315C49.28 20.7216 49.1518 20.5654 49.0761 20.3827C49.0004 20.2 48.9806 19.9989 49.0192 19.8049C49.0578 19.6109 49.153 19.4327 49.2929 19.2929C49.4327 19.153 49.6109 19.0578 49.8049 19.0192C49.9989 18.9806 50.2 19.0004 50.3827 19.0761C50.5654 19.1518 50.7216 19.28 50.8315 19.4444C50.9414 19.6089 51 19.8022 51 20C51 20.2652 50.8946 20.5196 50.7071 20.7071C50.5196 20.8946 50.2652 21 50 21Z" fill="#69CA94"/>
<g filter="url(#filter0_d_318_1540)">
<circle cx="114.5" cy="116.5" r="80.5" fill="white"/>
<circle cx="114.5" cy="116.5" r="80" stroke="white"/>
</g>
<path fill-rule="evenodd" clip-rule="evenodd" d="M114.5 195.991C158.407 195.991 194 160.398 194 116.491C194 106.765 192.253 97.4467 189.057 88.8329C186.654 82.3581 179.316 79.8257 174.362 84.637V84.637C170.85 88.0469 167.492 91.3082 160.422 91.3082C149.727 91.3082 143.278 88.1297 137.199 85.1333C129.513 81.3453 122.417 77.8482 108.081 81.4324C83.3148 87.6238 78.7334 82.1705 73.7733 76.2664C70.8217 72.7531 67.736 69.0801 60.1831 67.6063V67.6063C54.7062 66.5377 49.6619 70.1411 46.738 74.894C39.2937 86.995 35 101.242 35 116.491C35 160.398 70.5934 195.991 114.5 195.991Z" fill="url(#paint0_linear_318_1540)"/>
<path opacity="0.59" fill-rule="evenodd" clip-rule="evenodd" d="M114.5 195.992C70.5934 195.992 35 160.398 35 116.492C35 104.06 37.8533 92.2951 42.9408 81.8158C44.1169 79.3932 46.9158 78.1162 49.3177 79.3341C51.044 80.2094 52.4088 81.236 53.7485 82.2438C56.8632 84.5867 59.8421 86.8275 66.9118 86.8275C74.809 86.8275 80.3539 84.7832 85.3866 82.9277C95.6836 79.1313 103.836 76.1254 125.606 93.0377C126.031 93.3678 126.523 93.6591 127.022 93.8609C149.769 103.065 155.547 90.1707 160.42 79.2968C162.807 73.9704 164.976 69.1287 168.817 67.6064C170.604 66.898 172.352 66.5513 174.053 66.5061C175.583 66.4654 176.973 67.2954 177.897 68.5154C188.004 81.8494 194 98.4702 194 116.492C194 160.398 158.407 195.992 114.5 195.992Z" fill="url(#paint1_linear_318_1540)"/>
<g style="mix-blend-mode:hard-light" opacity="0.2" filter="url(#filter1_d_318_1540)">
<ellipse cx="114.5" cy="116.5" rx="79" ry="79.5" fill="url(#paint2_linear_318_1540)"/>
<path d="M193 116.5C193 160.133 157.851 195.5 114.5 195.5C71.1486 195.5 36 160.133 36 116.5C36 72.8665 71.1486 37.5 114.5 37.5C157.851 37.5 193 72.8665 193 116.5Z" stroke="white"/>
</g>
<path d="M104.7 115.24C103.324 115.24 102.156 114.88 101.196 114.16C100.252 113.424 99.532 112.408 99.036 111.112C98.54 109.8 98.292 108.296 98.292 106.6C98.292 104.888 98.54 103.384 99.036 102.088C99.532 100.792 100.252 99.784 101.196 99.064C102.156 98.328 103.324 97.96 104.7 97.96C106.076 97.96 107.236 98.328 108.18 99.064C109.14 99.784 109.868 100.792 110.364 102.088C110.86 103.384 111.108 104.888 111.108 106.6C111.108 108.296 110.86 109.8 110.364 111.112C109.868 112.408 109.14 113.424 108.18 114.16C107.236 114.88 106.076 115.24 104.7 115.24ZM104.7 112.36C105.372 112.36 105.948 112.152 106.428 111.736C106.924 111.304 107.308 110.664 107.58 109.816C107.852 108.952 107.988 107.88 107.988 106.6C107.988 105.304 107.852 104.232 107.58 103.384C107.308 102.536 106.924 101.904 106.428 101.488C105.948 101.056 105.372 100.84 104.7 100.84C104.044 100.84 103.468 101.056 102.972 101.488C102.476 101.904 102.092 102.536 101.82 103.384C101.548 104.232 101.412 105.304 101.412 106.6C101.412 107.88 101.548 108.952 101.82 109.816C102.092 110.664 102.476 111.304 102.972 111.736C103.468 112.152 104.044 112.36 104.7 112.36ZM116.73 107.32C115.962 107.32 115.282 107.112 114.69 106.696C114.098 106.28 113.634 105.72 113.298 105.016C112.962 104.312 112.794 103.528 112.794 102.664C112.794 101.784 112.962 100.992 113.298 100.288C113.634 99.584 114.098 99.024 114.69 98.608C115.282 98.192 115.962 97.984 116.73 97.984C117.514 97.984 118.194 98.192 118.77 98.608C119.362 99.024 119.818 99.584 120.138 100.288C120.474 100.992 120.642 101.784 120.642 102.664C120.642 103.528 120.466 104.312 120.114 105.016C119.762 105.72 119.29 106.28 118.698 106.696C118.122 107.112 117.466 107.32 116.73 107.32ZM116.73 105.184C117.21 105.184 117.578 104.944 117.834 104.464C118.106 103.984 118.242 103.384 118.242 102.664C118.242 101.944 118.114 101.344 117.858 100.864C117.602 100.384 117.226 100.144 116.73 100.144C116.25 100.144 115.874 100.384 115.602 100.864C115.33 101.344 115.194 101.944 115.194 102.664C115.194 103.384 115.322 103.984 115.578 104.464C115.85 104.944 116.234 105.184 116.73 105.184ZM127.026 115.24C126.29 115.24 125.626 115.032 125.034 114.616C124.442 114.2 123.97 113.64 123.618 112.936C123.266 112.232 123.09 111.448 123.09 110.584C123.09 109.704 123.258 108.912 123.594 108.208C123.93 107.504 124.394 106.944 124.986 106.528C125.578 106.112 126.258 105.904 127.026 105.904C127.81 105.904 128.49 106.112 129.066 106.528C129.658 106.944 130.114 107.504 130.434 108.208C130.77 108.912 130.938 109.704 130.938 110.584C130.938 111.448 130.762 112.232 130.41 112.936C130.058 113.64 129.586 114.2 128.994 114.616C128.418 115.032 127.762 115.24 127.026 115.24ZM127.026 113.104C127.506 113.104 127.874 112.864 128.13 112.384C128.402 111.904 128.538 111.304 128.538 110.584C128.538 109.864 128.41 109.264 128.154 108.784C127.898 108.304 127.522 108.064 127.026 108.064C126.546 108.064 126.17 108.304 125.898 108.784C125.626 109.264 125.49 109.864 125.49 110.584C125.49 111.304 125.618 111.904 125.874 112.384C126.146 112.864 126.53 113.104 127.026 113.104ZM117.018 115.048C116.762 115.048 116.49 114.944 116.202 114.736C115.914 114.512 115.77 114.224 115.77 113.872C115.77 113.664 115.85 113.424 116.01 113.152L125.562 98.728C125.85 98.344 126.178 98.152 126.546 98.152C126.818 98.152 127.09 98.256 127.362 98.464C127.65 98.672 127.794 98.96 127.794 99.328C127.794 99.536 127.714 99.776 127.554 100.048L118.002 114.472C117.714 114.856 117.386 115.048 117.018 115.048Z" fill="#19191F"/>
<path d="M86.6859 136.12C86.1259 136.12 85.6219 136.052 85.1739 135.916C84.7259 135.772 84.2979 135.524 83.8899 135.172C83.7859 135.084 83.7059 134.984 83.6499 134.872C83.5939 134.76 83.5659 134.648 83.5659 134.536C83.5659 134.352 83.6299 134.192 83.7579 134.056C83.8939 133.912 84.0619 133.84 84.2619 133.84C84.4139 133.84 84.5499 133.888 84.6699 133.984C84.9739 134.232 85.2739 134.42 85.5699 134.548C85.8739 134.676 86.2459 134.74 86.6859 134.74C86.9819 134.74 87.2539 134.696 87.5019 134.608C87.7499 134.512 87.9499 134.388 88.1019 134.236C88.2539 134.076 88.3299 133.896 88.3299 133.696C88.3299 133.456 88.2579 133.252 88.1139 133.084C87.9699 132.916 87.7499 132.776 87.4539 132.664C87.1579 132.544 86.7819 132.452 86.3259 132.388C85.8939 132.324 85.5139 132.228 85.1859 132.1C84.8579 131.964 84.5819 131.796 84.3579 131.596C84.1419 131.388 83.9779 131.148 83.8659 130.876C83.7539 130.596 83.6979 130.284 83.6979 129.94C83.6979 129.42 83.8299 128.976 84.0939 128.608C84.3659 128.24 84.7299 127.96 85.1859 127.768C85.6419 127.576 86.1459 127.48 86.6979 127.48C87.2179 127.48 87.6979 127.56 88.1379 127.72C88.5859 127.872 88.9499 128.068 89.2299 128.308C89.4619 128.492 89.5779 128.704 89.5779 128.944C89.5779 129.12 89.5099 129.28 89.3739 129.424C89.2379 129.568 89.0779 129.64 88.8939 129.64C88.7739 129.64 88.6659 129.604 88.5699 129.532C88.4419 129.42 88.2699 129.316 88.0539 129.22C87.8379 129.116 87.6099 129.032 87.3699 128.968C87.1299 128.896 86.9059 128.86 86.6979 128.86C86.3539 128.86 86.0619 128.904 85.8219 128.992C85.5899 129.08 85.4139 129.2 85.2939 129.352C85.1739 129.504 85.1139 129.68 85.1139 129.88C85.1139 130.12 85.1819 130.32 85.3179 130.48C85.4619 130.632 85.6659 130.756 85.9299 130.852C86.1939 130.94 86.5099 131.02 86.8779 131.092C87.3579 131.18 87.7779 131.284 88.1379 131.404C88.5059 131.524 88.8099 131.68 89.0499 131.872C89.2899 132.056 89.4699 132.292 89.5899 132.58C89.7099 132.86 89.7699 133.204 89.7699 133.612C89.7699 134.132 89.6259 134.58 89.3379 134.956C89.0499 135.332 88.6699 135.62 88.1979 135.82C87.7339 136.02 87.2299 136.12 86.6859 136.12ZM93.8821 129.46C94.3381 129.46 94.7341 129.508 95.0701 129.604C95.4141 129.7 95.6781 129.836 95.8621 130.012C96.0541 130.18 96.1501 130.384 96.1501 130.624C96.1501 130.784 96.1021 130.936 96.0061 131.08C95.9101 131.216 95.7701 131.284 95.5861 131.284C95.4581 131.284 95.3501 131.268 95.2621 131.236C95.1821 131.196 95.1101 131.148 95.0461 131.092C94.9821 131.036 94.9061 130.984 94.8181 130.936C94.7381 130.888 94.6141 130.852 94.4461 130.828C94.2861 130.796 94.1661 130.78 94.0861 130.78C93.6781 130.78 93.3301 130.868 93.0421 131.044C92.7621 131.22 92.5461 131.46 92.3941 131.764C92.2421 132.06 92.1661 132.404 92.1661 132.796C92.1661 133.18 92.2421 133.524 92.3941 133.828C92.5541 134.124 92.7701 134.36 93.0421 134.536C93.3221 134.712 93.6421 134.8 94.0021 134.8C94.2021 134.8 94.3741 134.788 94.5181 134.764C94.6621 134.74 94.7821 134.704 94.8781 134.656C94.9901 134.592 95.0901 134.524 95.1781 134.452C95.2661 134.38 95.3981 134.344 95.5741 134.344C95.7821 134.344 95.9421 134.412 96.0541 134.548C96.1661 134.676 96.2221 134.836 96.2221 135.028C96.2221 135.228 96.1101 135.412 95.8861 135.58C95.6621 135.74 95.3661 135.872 94.9981 135.976C94.6381 136.072 94.2461 136.12 93.8221 136.12C93.1901 136.12 92.6421 135.976 92.1781 135.688C91.7141 135.392 91.3541 134.992 91.0981 134.488C90.8501 133.984 90.7261 133.42 90.7261 132.796C90.7261 132.14 90.8581 131.564 91.1221 131.068C91.3941 130.564 91.7661 130.172 92.2381 129.892C92.7181 129.604 93.2661 129.46 93.8821 129.46ZM102.516 129.46C102.724 129.46 102.896 129.528 103.032 129.664C103.168 129.8 103.236 129.976 103.236 130.192V135.268C103.236 135.476 103.168 135.652 103.032 135.796C102.896 135.932 102.724 136 102.516 136C102.308 136 102.136 135.932 102 135.796C101.864 135.652 101.796 135.476 101.796 135.268V134.68L102.06 134.788C102.06 134.892 102.004 135.02 101.892 135.172C101.78 135.316 101.628 135.46 101.436 135.604C101.244 135.748 101.016 135.872 100.752 135.976C100.496 136.072 100.216 136.12 99.9125 136.12C99.3605 136.12 98.8605 135.98 98.4125 135.7C97.9645 135.412 97.6085 135.02 97.3445 134.524C97.0885 134.02 96.9605 133.444 96.9605 132.796C96.9605 132.14 97.0885 131.564 97.3445 131.068C97.6085 130.564 97.9605 130.172 98.4005 129.892C98.8405 129.604 99.3285 129.46 99.8645 129.46C100.208 129.46 100.524 129.512 100.812 129.616C101.1 129.72 101.348 129.852 101.556 130.012C101.772 130.172 101.936 130.336 102.048 130.504C102.168 130.664 102.228 130.8 102.228 130.912L101.796 131.068V130.192C101.796 129.984 101.864 129.812 102 129.676C102.136 129.532 102.308 129.46 102.516 129.46ZM100.092 134.8C100.444 134.8 100.752 134.712 101.016 134.536C101.28 134.36 101.484 134.12 101.628 133.816C101.78 133.512 101.856 133.172 101.856 132.796C101.856 132.412 101.78 132.068 101.628 131.764C101.484 131.46 101.28 131.22 101.016 131.044C100.752 130.868 100.444 130.78 100.092 130.78C99.7485 130.78 99.4445 130.868 99.1805 131.044C98.9165 131.22 98.7085 131.46 98.5565 131.764C98.4125 132.068 98.3405 132.412 98.3405 132.796C98.3405 133.172 98.4125 133.512 98.5565 133.816C98.7085 134.12 98.9165 134.36 99.1805 134.536C99.4445 134.712 99.7485 134.8 100.092 134.8ZM108.228 129.46C108.82 129.46 109.268 129.584 109.572 129.832C109.884 130.08 110.096 130.412 110.208 130.828C110.328 131.236 110.388 131.692 110.388 132.196V135.268C110.388 135.476 110.32 135.652 110.184 135.796C110.048 135.932 109.876 136 109.668 136C109.46 136 109.288 135.932 109.152 135.796C109.016 135.652 108.948 135.476 108.948 135.268V132.196C108.948 131.932 108.912 131.696 108.84 131.488C108.776 131.272 108.656 131.1 108.48 130.972C108.304 130.844 108.052 130.78 107.724 130.78C107.404 130.78 107.132 130.844 106.908 130.972C106.692 131.1 106.524 131.272 106.404 131.488C106.292 131.696 106.236 131.932 106.236 132.196V135.268C106.236 135.476 106.168 135.652 106.032 135.796C105.896 135.932 105.724 136 105.516 136C105.308 136 105.136 135.932 105 135.796C104.864 135.652 104.796 135.476 104.796 135.268V130.312C104.796 130.104 104.864 129.932 105 129.796C105.136 129.652 105.308 129.58 105.516 129.58C105.724 129.58 105.896 129.652 106.032 129.796C106.168 129.932 106.236 130.104 106.236 130.312V130.828L106.056 130.792C106.128 130.656 106.232 130.512 106.368 130.36C106.504 130.2 106.664 130.052 106.848 129.916C107.032 129.78 107.24 129.672 107.472 129.592C107.704 129.504 107.956 129.46 108.228 129.46ZM115.376 129.46C115.968 129.46 116.416 129.584 116.72 129.832C117.032 130.08 117.244 130.412 117.356 130.828C117.476 131.236 117.536 131.692 117.536 132.196V135.268C117.536 135.476 117.468 135.652 117.332 135.796C117.196 135.932 117.024 136 116.816 136C116.608 136 116.436 135.932 116.3 135.796C116.164 135.652 116.096 135.476 116.096 135.268V132.196C116.096 131.932 116.06 131.696 115.988 131.488C115.924 131.272 115.804 131.1 115.628 130.972C115.452 130.844 115.2 130.78 114.872 130.78C114.552 130.78 114.28 130.844 114.056 130.972C113.84 131.1 113.672 131.272 113.552 131.488C113.44 131.696 113.384 131.932 113.384 132.196V135.268C113.384 135.476 113.316 135.652 113.18 135.796C113.044 135.932 112.872 136 112.664 136C112.456 136 112.284 135.932 112.148 135.796C112.012 135.652 111.944 135.476 111.944 135.268V130.312C111.944 130.104 112.012 129.932 112.148 129.796C112.284 129.652 112.456 129.58 112.664 129.58C112.872 129.58 113.044 129.652 113.18 129.796C113.316 129.932 113.384 130.104 113.384 130.312V130.828L113.204 130.792C113.276 130.656 113.38 130.512 113.516 130.36C113.652 130.2 113.812 130.052 113.996 129.916C114.18 129.78 114.388 129.672 114.62 129.592C114.852 129.504 115.104 129.46 115.376 129.46ZM120.449 135.268C120.449 135.476 120.381 135.652 120.245 135.796C120.109 135.932 119.937 136 119.729 136C119.521 136 119.349 135.932 119.213 135.796C119.077 135.652 119.009 135.476 119.009 135.268V130.312C119.009 130.104 119.077 129.932 119.213 129.796C119.349 129.652 119.521 129.58 119.729 129.58C119.937 129.58 120.109 129.652 120.245 129.796C120.381 129.932 120.449 130.104 120.449 130.312V135.268ZM119.717 128.8C119.445 128.8 119.253 128.756 119.141 128.668C119.029 128.58 118.973 128.424 118.973 128.2V127.972C118.973 127.74 119.033 127.584 119.153 127.504C119.281 127.416 119.473 127.372 119.729 127.372C120.009 127.372 120.205 127.416 120.317 127.504C120.429 127.592 120.485 127.748 120.485 127.972V128.2C120.485 128.432 120.425 128.592 120.305 128.68C120.185 128.76 119.989 128.8 119.717 128.8ZM125.36 129.46C125.952 129.46 126.4 129.584 126.704 129.832C127.016 130.08 127.228 130.412 127.34 130.828C127.46 131.236 127.52 131.692 127.52 132.196V135.268C127.52 135.476 127.452 135.652 127.316 135.796C127.18 135.932 127.008 136 126.8 136C126.592 136 126.42 135.932 126.284 135.796C126.148 135.652 126.08 135.476 126.08 135.268V132.196C126.08 131.932 126.044 131.696 125.972 131.488C125.908 131.272 125.788 131.1 125.612 130.972C125.436 130.844 125.184 130.78 124.856 130.78C124.536 130.78 124.264 130.844 124.04 130.972C123.824 131.1 123.656 131.272 123.536 131.488C123.424 131.696 123.368 131.932 123.368 132.196V135.268C123.368 135.476 123.3 135.652 123.164 135.796C123.028 135.932 122.856 136 122.648 136C122.44 136 122.268 135.932 122.132 135.796C121.996 135.652 121.928 135.476 121.928 135.268V130.312C121.928 130.104 121.996 129.932 122.132 129.796C122.268 129.652 122.44 129.58 122.648 129.58C122.856 129.58 123.028 129.652 123.164 129.796C123.3 129.932 123.368 130.104 123.368 130.312V130.828L123.188 130.792C123.26 130.656 123.364 130.512 123.5 130.36C123.636 130.2 123.796 130.052 123.98 129.916C124.164 129.78 124.372 129.672 124.604 129.592C124.836 129.504 125.088 129.46 125.36 129.46ZM131.741 129.46C132.077 129.46 132.385 129.512 132.665 129.616C132.945 129.72 133.185 129.852 133.385 130.012C133.593 130.172 133.753 130.336 133.865 130.504C133.985 130.664 134.045 130.8 134.045 130.912L133.733 131.068V130.192C133.733 129.984 133.801 129.812 133.937 129.676C134.073 129.532 134.245 129.46 134.453 129.46C134.661 129.46 134.833 129.528 134.969 129.664C135.105 129.8 135.173 129.976 135.173 130.192V135.532C135.173 136.228 135.021 136.784 134.717 137.2C134.421 137.624 134.029 137.928 133.541 138.112C133.053 138.304 132.529 138.4 131.969 138.4C131.809 138.4 131.601 138.38 131.345 138.34C131.089 138.3 130.845 138.252 130.613 138.196C130.381 138.14 130.205 138.088 130.085 138.04C129.845 137.936 129.677 137.804 129.581 137.644C129.493 137.492 129.477 137.328 129.533 137.152C129.605 136.92 129.721 136.76 129.881 136.672C130.041 136.592 130.209 136.584 130.385 136.648C130.465 136.672 130.597 136.72 130.781 136.792C130.965 136.864 131.165 136.928 131.381 136.984C131.605 137.048 131.801 137.08 131.969 137.08C132.569 137.08 133.013 136.96 133.301 136.72C133.589 136.48 133.733 136.148 133.733 135.724V134.68L133.877 134.788C133.877 134.892 133.821 135.02 133.709 135.172C133.605 135.316 133.457 135.46 133.265 135.604C133.081 135.748 132.861 135.872 132.605 135.976C132.349 136.072 132.077 136.12 131.789 136.12C131.221 136.12 130.709 135.98 130.253 135.7C129.797 135.412 129.437 135.02 129.173 134.524C128.909 134.02 128.777 133.444 128.777 132.796C128.777 132.14 128.909 131.564 129.173 131.068C129.437 130.564 129.793 130.172 130.241 129.892C130.689 129.604 131.189 129.46 131.741 129.46ZM131.969 130.78C131.609 130.78 131.293 130.868 131.021 131.044C130.749 131.22 130.537 131.46 130.385 131.764C130.233 132.068 130.157 132.412 130.157 132.796C130.157 133.172 130.233 133.512 130.385 133.816C130.537 134.12 130.749 134.36 131.021 134.536C131.293 134.712 131.609 134.8 131.969 134.8C132.337 134.8 132.657 134.712 132.929 134.536C133.201 134.36 133.413 134.12 133.565 133.816C133.717 133.512 133.793 133.172 133.793 132.796C133.793 132.412 133.717 132.068 133.565 131.764C133.413 131.46 133.201 131.22 132.929 131.044C132.657 130.868 132.337 130.78 131.969 130.78ZM137.365 135.988C137.133 135.988 136.953 135.928 136.825 135.808C136.705 135.68 136.645 135.5 136.645 135.268V135.064C136.645 134.832 136.705 134.656 136.825 134.536C136.953 134.408 137.133 134.344 137.365 134.344H137.521C137.753 134.344 137.929 134.408 138.049 134.536C138.177 134.656 138.241 134.832 138.241 135.064V135.268C138.241 135.5 138.177 135.68 138.049 135.808C137.929 135.928 137.753 135.988 137.521 135.988H137.365ZM140.354 135.988C140.122 135.988 139.942 135.928 139.814 135.808C139.694 135.68 139.634 135.5 139.634 135.268V135.064C139.634 134.832 139.694 134.656 139.814 134.536C139.942 134.408 140.122 134.344 140.354 134.344H140.51C140.742 134.344 140.918 134.408 141.038 134.536C141.166 134.656 141.23 134.832 141.23 135.064V135.268C141.23 135.5 141.166 135.68 141.038 135.808C140.918 135.928 140.742 135.988 140.51 135.988H140.354ZM143.342 135.988C143.11 135.988 142.93 135.928 142.802 135.808C142.682 135.68 142.622 135.5 142.622 135.268V135.064C142.622 134.832 142.682 134.656 142.802 134.536C142.93 134.408 143.11 134.344 143.342 134.344H143.498C143.73 134.344 143.906 134.408 144.026 134.536C144.154 134.656 144.218 134.832 144.218 135.064V135.268C144.218 135.5 144.154 135.68 144.026 135.808C143.906 135.928 143.73 135.988 143.498 135.988H143.342ZM79.4352 144.484L76.8432 150.58C76.7872 150.732 76.6992 150.852 76.5792 150.94C76.4672 151.02 76.3432 151.06 76.2072 151.06C75.9912 151.06 75.8312 151 75.7272 150.88C75.6232 150.76 75.5712 150.612 75.5712 150.436C75.5712 150.364 75.5832 150.288 75.6072 150.208L78.5952 143.032C78.6592 142.872 78.7552 142.748 78.8832 142.66C79.0192 142.572 79.1632 142.536 79.3152 142.552C79.4592 142.552 79.5912 142.596 79.7112 142.684C79.8392 142.764 79.9312 142.88 79.9872 143.032L82.9392 150.064C82.9792 150.168 82.9992 150.264 82.9992 150.352C82.9992 150.568 82.9272 150.74 82.7832 150.868C82.6472 150.996 82.4952 151.06 82.3272 151.06C82.1832 151.06 82.0512 151.016 81.9312 150.928C81.8192 150.84 81.7312 150.72 81.6672 150.568L79.0872 144.556L79.4352 144.484ZM77.2152 149.116L77.8752 147.736H81.1152L81.3432 149.116H77.2152ZM85.4552 150.268C85.4552 150.476 85.3832 150.652 85.2392 150.796C85.1032 150.932 84.9312 151 84.7232 151C84.5232 151 84.3552 150.932 84.2192 150.796C84.0832 150.652 84.0152 150.476 84.0152 150.268V142.852C84.0152 142.644 84.0832 142.472 84.2192 142.336C84.3632 142.192 84.5392 142.12 84.7472 142.12C84.9552 142.12 85.1232 142.192 85.2512 142.336C85.3872 142.472 85.4552 142.644 85.4552 142.852V150.268ZM90.5016 144.46C91.1416 144.46 91.6136 144.616 91.9176 144.928C92.2216 145.232 92.4216 145.628 92.5176 146.116L92.3136 146.008L92.4096 145.816C92.5056 145.632 92.6536 145.436 92.8536 145.228C93.0536 145.012 93.2936 144.832 93.5736 144.688C93.8616 144.536 94.1816 144.46 94.5336 144.46C95.1096 144.46 95.5456 144.584 95.8416 144.832C96.1456 145.08 96.3536 145.412 96.4656 145.828C96.5776 146.236 96.6336 146.692 96.6336 147.196V150.268C96.6336 150.476 96.5656 150.652 96.4296 150.796C96.2936 150.932 96.1216 151 95.9136 151C95.7056 151 95.5336 150.932 95.3976 150.796C95.2616 150.652 95.1936 150.476 95.1936 150.268V147.196C95.1936 146.932 95.1616 146.696 95.0976 146.488C95.0336 146.272 94.9176 146.1 94.7496 145.972C94.5816 145.844 94.3416 145.78 94.0296 145.78C93.7256 145.78 93.4656 145.844 93.2496 145.972C93.0336 146.1 92.8696 146.272 92.7576 146.488C92.6536 146.696 92.6016 146.932 92.6016 147.196V150.268C92.6016 150.476 92.5336 150.652 92.3976 150.796C92.2616 150.932 92.0896 151 91.8816 151C91.6736 151 91.5016 150.932 91.3656 150.796C91.2296 150.652 91.1616 150.476 91.1616 150.268V147.196C91.1616 146.932 91.1296 146.696 91.0656 146.488C91.0016 146.272 90.8856 146.1 90.7176 145.972C90.5496 145.844 90.3096 145.78 89.9976 145.78C89.6936 145.78 89.4336 145.844 89.2176 145.972C89.0016 146.1 88.8376 146.272 88.7256 146.488C88.6216 146.696 88.5696 146.932 88.5696 147.196V150.268C88.5696 150.476 88.5016 150.652 88.3656 150.796C88.2296 150.932 88.0576 151 87.8496 151C87.6416 151 87.4696 150.932 87.3336 150.796C87.1976 150.652 87.1296 150.476 87.1296 150.268V145.312C87.1296 145.104 87.1976 144.932 87.3336 144.796C87.4696 144.652 87.6416 144.58 87.8496 144.58C88.0576 144.58 88.2296 144.652 88.3656 144.796C88.5016 144.932 88.5696 145.104 88.5696 145.312V145.828L88.3896 145.792C88.4616 145.656 88.5616 145.512 88.6896 145.36C88.8176 145.2 88.9736 145.052 89.1576 144.916C89.3416 144.78 89.5456 144.672 89.7696 144.592C89.9936 144.504 90.2376 144.46 90.5016 144.46ZM104.42 147.796C104.42 148.452 104.272 149.032 103.976 149.536C103.688 150.032 103.296 150.42 102.8 150.7C102.312 150.98 101.764 151.12 101.156 151.12C100.548 151.12 99.9961 150.98 99.5001 150.7C99.0121 150.42 98.6201 150.032 98.3241 149.536C98.0361 149.032 97.8921 148.452 97.8921 147.796C97.8921 147.14 98.0361 146.564 98.3241 146.068C98.6201 145.564 99.0121 145.172 99.5001 144.892C99.9961 144.604 100.548 144.46 101.156 144.46C101.764 144.46 102.312 144.604 102.8 144.892C103.296 145.172 103.688 145.564 103.976 146.068C104.272 146.564 104.42 147.14 104.42 147.796ZM102.98 147.796C102.98 147.388 102.896 147.036 102.728 146.74C102.568 146.436 102.348 146.2 102.068 146.032C101.796 145.864 101.492 145.78 101.156 145.78C100.82 145.78 100.512 145.864 100.232 146.032C99.9601 146.2 99.7401 146.436 99.5721 146.74C99.4121 147.036 99.3321 147.388 99.3321 147.796C99.3321 148.196 99.4121 148.548 99.5721 148.852C99.7401 149.148 99.9601 149.38 100.232 149.548C100.512 149.716 100.82 149.8 101.156 149.8C101.492 149.8 101.796 149.716 102.068 149.548C102.348 149.38 102.568 149.148 102.728 148.852C102.896 148.548 102.98 148.196 102.98 147.796ZM105.308 150.004C105.228 149.892 105.192 149.748 105.2 149.572C105.208 149.396 105.312 149.244 105.512 149.116C105.64 149.036 105.776 149.004 105.92 149.02C106.064 149.028 106.204 149.1 106.34 149.236C106.572 149.468 106.816 149.648 107.072 149.776C107.328 149.904 107.648 149.968 108.032 149.968C108.152 149.96 108.284 149.944 108.428 149.92C108.572 149.888 108.696 149.824 108.8 149.728C108.912 149.624 108.968 149.468 108.968 149.26C108.968 149.084 108.908 148.944 108.788 148.84C108.668 148.736 108.508 148.648 108.308 148.576C108.116 148.504 107.9 148.436 107.66 148.372C107.412 148.3 107.156 148.22 106.892 148.132C106.636 148.044 106.4 147.932 106.184 147.796C105.968 147.652 105.792 147.464 105.656 147.232C105.52 147 105.452 146.708 105.452 146.356C105.452 145.956 105.564 145.616 105.788 145.336C106.012 145.056 106.3 144.84 106.652 144.688C107.012 144.536 107.388 144.46 107.78 144.46C108.028 144.46 108.288 144.492 108.56 144.556C108.832 144.612 109.092 144.708 109.34 144.844C109.588 144.972 109.796 145.144 109.964 145.36C110.052 145.48 110.104 145.624 110.12 145.792C110.136 145.96 110.06 146.112 109.892 146.248C109.772 146.344 109.632 146.388 109.472 146.38C109.312 146.364 109.18 146.308 109.076 146.212C108.94 146.036 108.756 145.896 108.524 145.792C108.3 145.688 108.04 145.636 107.744 145.636C107.624 145.636 107.492 145.652 107.348 145.684C107.212 145.708 107.092 145.768 106.988 145.864C106.884 145.952 106.832 146.096 106.832 146.296C106.832 146.48 106.892 146.628 107.012 146.74C107.132 146.844 107.292 146.932 107.492 147.004C107.7 147.068 107.92 147.132 108.152 147.196C108.392 147.26 108.636 147.336 108.884 147.424C109.132 147.512 109.36 147.628 109.568 147.772C109.776 147.916 109.944 148.104 110.072 148.336C110.2 148.56 110.264 148.848 110.264 149.2C110.264 149.608 110.144 149.956 109.904 150.244C109.664 150.532 109.364 150.752 109.004 150.904C108.644 151.048 108.276 151.12 107.9 151.12C107.428 151.12 106.956 151.04 106.484 150.88C106.012 150.712 105.62 150.42 105.308 150.004ZM111.541 144.7H114.385C114.577 144.7 114.737 144.764 114.865 144.892C114.993 145.02 115.057 145.18 115.057 145.372C115.057 145.556 114.993 145.712 114.865 145.84C114.737 145.96 114.577 146.02 114.385 146.02H111.541C111.349 146.02 111.189 145.956 111.061 145.828C110.933 145.7 110.869 145.54 110.869 145.348C110.869 145.164 110.933 145.012 111.061 144.892C111.189 144.764 111.349 144.7 111.541 144.7ZM112.825 143.2C113.033 143.2 113.201 143.272 113.329 143.416C113.465 143.552 113.533 143.724 113.533 143.932V149.272C113.533 149.384 113.553 149.476 113.593 149.548C113.641 149.62 113.701 149.672 113.773 149.704C113.853 149.736 113.937 149.752 114.025 149.752C114.121 149.752 114.209 149.736 114.289 149.704C114.369 149.664 114.461 149.644 114.565 149.644C114.677 149.644 114.777 149.696 114.865 149.8C114.961 149.904 115.009 150.048 115.009 150.232C115.009 150.456 114.885 150.64 114.637 150.784C114.397 150.928 114.137 151 113.857 151C113.689 151 113.501 150.988 113.293 150.964C113.093 150.932 112.901 150.864 112.717 150.76C112.541 150.648 112.393 150.48 112.273 150.256C112.153 150.032 112.093 149.724 112.093 149.332V143.932C112.093 143.724 112.161 143.552 112.297 143.416C112.441 143.272 112.617 143.2 112.825 143.2ZM123.463 142.6C124.039 142.6 124.551 142.708 124.999 142.924C125.447 143.14 125.823 143.444 126.127 143.836C126.439 144.22 126.671 144.668 126.823 145.18C126.983 145.684 127.063 146.224 127.063 146.8C127.063 147.576 126.923 148.284 126.643 148.924C126.363 149.556 125.955 150.06 125.419 150.436C124.891 150.812 124.239 151 123.463 151H120.595C120.387 151 120.211 150.932 120.067 150.796C119.931 150.652 119.863 150.476 119.863 150.268V143.332C119.863 143.124 119.931 142.952 120.067 142.816C120.211 142.672 120.387 142.6 120.595 142.6H123.463ZM123.343 149.62C123.847 149.62 124.259 149.492 124.579 149.236C124.899 148.972 125.131 148.628 125.275 148.204C125.427 147.772 125.503 147.304 125.503 146.8C125.503 146.424 125.459 146.068 125.371 145.732C125.291 145.388 125.163 145.088 124.987 144.832C124.811 144.568 124.587 144.36 124.315 144.208C124.043 144.056 123.719 143.98 123.343 143.98H121.243L121.363 143.872V149.752L121.291 149.62H123.343ZM134.643 147.796C134.643 148.452 134.495 149.032 134.199 149.536C133.911 150.032 133.519 150.42 133.023 150.7C132.535 150.98 131.987 151.12 131.379 151.12C130.771 151.12 130.219 150.98 129.723 150.7C129.235 150.42 128.843 150.032 128.547 149.536C128.259 149.032 128.115 148.452 128.115 147.796C128.115 147.14 128.259 146.564 128.547 146.068C128.843 145.564 129.235 145.172 129.723 144.892C130.219 144.604 130.771 144.46 131.379 144.46C131.987 144.46 132.535 144.604 133.023 144.892C133.519 145.172 133.911 145.564 134.199 146.068C134.495 146.564 134.643 147.14 134.643 147.796ZM133.203 147.796C133.203 147.388 133.119 147.036 132.951 146.74C132.791 146.436 132.571 146.2 132.291 146.032C132.019 145.864 131.715 145.78 131.379 145.78C131.043 145.78 130.735 145.864 130.455 146.032C130.183 146.2 129.963 146.436 129.795 146.74C129.635 147.036 129.555 147.388 129.555 147.796C129.555 148.196 129.635 148.548 129.795 148.852C129.963 149.148 130.183 149.38 130.455 149.548C130.735 149.716 131.043 149.8 131.379 149.8C131.715 149.8 132.019 149.716 132.291 149.548C132.571 149.38 132.791 149.148 132.951 148.852C133.119 148.548 133.203 148.196 133.203 147.796ZM139.335 144.46C139.927 144.46 140.375 144.584 140.679 144.832C140.991 145.08 141.203 145.412 141.315 145.828C141.435 146.236 141.495 146.692 141.495 147.196V150.268C141.495 150.476 141.427 150.652 141.291 150.796C141.155 150.932 140.983 151 140.775 151C140.567 151 140.395 150.932 140.259 150.796C140.123 150.652 140.055 150.476 140.055 150.268V147.196C140.055 146.932 140.019 146.696 139.947 146.488C139.883 146.272 139.763 146.1 139.587 145.972C139.411 145.844 139.159 145.78 138.831 145.78C138.511 145.78 138.239 145.844 138.015 145.972C137.799 146.1 137.631 146.272 137.511 146.488C137.399 146.696 137.343 146.932 137.343 147.196V150.268C137.343 150.476 137.275 150.652 137.139 150.796C137.003 150.932 136.831 151 136.623 151C136.415 151 136.243 150.932 136.107 150.796C135.971 150.652 135.903 150.476 135.903 150.268V145.312C135.903 145.104 135.971 144.932 136.107 144.796C136.243 144.652 136.415 144.58 136.623 144.58C136.831 144.58 137.003 144.652 137.139 144.796C137.275 144.932 137.343 145.104 137.343 145.312V145.828L137.163 145.792C137.235 145.656 137.339 145.512 137.475 145.36C137.611 145.2 137.771 145.052 137.955 144.916C138.139 144.78 138.347 144.672 138.579 144.592C138.811 144.504 139.063 144.46 139.335 144.46ZM146.075 151.12C145.395 151.12 144.803 150.98 144.299 150.7C143.803 150.412 143.419 150.024 143.147 149.536C142.883 149.048 142.751 148.496 142.751 147.88C142.751 147.16 142.895 146.548 143.183 146.044C143.479 145.532 143.863 145.14 144.335 144.868C144.807 144.596 145.307 144.46 145.835 144.46C146.243 144.46 146.627 144.544 146.987 144.712C147.355 144.88 147.679 145.112 147.959 145.408C148.239 145.696 148.459 146.032 148.619 146.416C148.787 146.8 148.871 147.208 148.871 147.64C148.863 147.832 148.787 147.988 148.643 148.108C148.499 148.228 148.331 148.288 148.139 148.288H143.555L143.195 147.088H147.599L147.335 147.328V147.004C147.319 146.772 147.235 146.564 147.083 146.38C146.939 146.196 146.755 146.052 146.531 145.948C146.315 145.836 146.083 145.78 145.835 145.78C145.595 145.78 145.371 145.812 145.163 145.876C144.955 145.94 144.775 146.048 144.623 146.2C144.471 146.352 144.351 146.556 144.263 146.812C144.175 147.068 144.131 147.392 144.131 147.784C144.131 148.216 144.219 148.584 144.395 148.888C144.579 149.184 144.811 149.412 145.091 149.572C145.379 149.724 145.683 149.8 146.003 149.8C146.299 149.8 146.535 149.776 146.711 149.728C146.887 149.68 147.027 149.624 147.131 149.56C147.243 149.488 147.343 149.428 147.431 149.38C147.575 149.308 147.711 149.272 147.839 149.272C148.015 149.272 148.159 149.332 148.271 149.452C148.391 149.572 148.451 149.712 148.451 149.872C148.451 150.088 148.339 150.284 148.115 150.46C147.907 150.636 147.615 150.792 147.239 150.928C146.863 151.056 146.475 151.12 146.075 151.12ZM150.958 148.348C150.686 148.348 150.538 148.196 150.514 147.892L150.166 143.476C150.15 143.228 150.214 143.02 150.358 142.852C150.51 142.684 150.706 142.6 150.946 142.6C151.186 142.6 151.382 142.684 151.534 142.852C151.686 143.02 151.75 143.228 151.726 143.476L151.39 147.892C151.366 148.196 151.222 148.348 150.958 148.348ZM150.874 151C150.642 151 150.462 150.94 150.334 150.82C150.214 150.692 150.154 150.512 150.154 150.28V150.076C150.154 149.844 150.214 149.668 150.334 149.548C150.462 149.42 150.642 149.356 150.874 149.356H151.03C151.262 149.356 151.438 149.42 151.558 149.548C151.686 149.668 151.75 149.844 151.75 150.076V150.28C151.75 150.512 151.686 150.692 151.558 150.82C151.438 150.94 151.262 151 151.03 151H150.874Z" fill="white"/>
<path d="M102.122 232.392C102.318 232.392 102.5 232.471 102.668 232.63C102.836 232.798 102.92 232.989 102.92 233.204C102.92 233.419 102.822 233.619 102.626 233.806C102.439 234.002 102.197 234.175 101.898 234.324C101.599 234.473 101.287 234.59 100.96 234.674C100.643 234.758 100.353 234.8 100.092 234.8C99.5133 234.8 99.0513 234.744 98.706 234.632C98.3607 234.529 98.076 234.408 97.852 234.268C97.628 234.137 97.418 234.016 97.222 233.904C97.026 233.801 96.788 233.75 96.508 233.75C96.3307 233.75 96.186 233.778 96.074 233.834C95.9713 233.899 95.8547 233.96 95.724 234.016C95.6027 234.081 95.43 234.114 95.206 234.114C94.9727 234.114 94.7767 234.025 94.618 233.848C94.4593 233.671 94.38 233.479 94.38 233.274C94.38 232.91 94.5433 232.667 94.87 232.546L97.768 231.468L99.028 231.776L96.312 232.784L97.11 232.322C97.4367 232.322 97.7213 232.369 97.964 232.462C98.216 232.565 98.454 232.677 98.678 232.798C98.902 232.919 99.1307 233.027 99.364 233.12C99.6067 233.223 99.882 233.274 100.19 233.274C100.442 233.274 100.652 233.232 100.82 233.148C100.997 233.064 101.151 232.971 101.282 232.868C101.441 232.747 101.581 232.635 101.702 232.532C101.833 232.439 101.973 232.392 102.122 232.392ZM102.066 227.1C102.066 227.8 101.949 228.453 101.716 229.06C101.483 229.667 101.151 230.203 100.722 230.67C100.302 231.127 99.798 231.487 99.21 231.748C98.6313 232.009 97.9967 232.14 97.306 232.14C96.6153 232.14 95.9807 232.009 95.402 231.748C94.8233 231.487 94.3193 231.127 93.89 230.67C93.47 230.203 93.1433 229.667 92.91 229.06C92.6767 228.453 92.56 227.8 92.56 227.1C92.56 226.4 92.6767 225.747 92.91 225.14C93.1433 224.533 93.47 224.001 93.89 223.544C94.3193 223.077 94.8233 222.713 95.402 222.452C95.9807 222.191 96.6153 222.06 97.306 222.06C97.9967 222.06 98.6313 222.191 99.21 222.452C99.798 222.713 100.302 223.077 100.722 223.544C101.151 224.001 101.483 224.533 101.716 225.14C101.949 225.747 102.066 226.4 102.066 227.1ZM100.246 227.1C100.246 226.475 100.12 225.91 99.868 225.406C99.616 224.893 99.2707 224.487 98.832 224.188C98.3933 223.889 97.8847 223.74 97.306 223.74C96.7273 223.74 96.2187 223.889 95.78 224.188C95.3413 224.487 94.996 224.888 94.744 225.392C94.5013 225.896 94.38 226.465 94.38 227.1C94.38 227.725 94.5013 228.295 94.744 228.808C94.996 229.312 95.3413 229.713 95.78 230.012C96.2187 230.311 96.7273 230.46 97.306 230.46C97.8847 230.46 98.3933 230.311 98.832 230.012C99.2707 229.713 99.616 229.312 99.868 228.808C100.12 228.295 100.246 227.725 100.246 227.1ZM109.036 224.51C109.279 224.51 109.48 224.594 109.638 224.762C109.797 224.921 109.876 225.121 109.876 225.364V228.92C109.876 229.909 109.601 230.693 109.05 231.272C108.5 231.851 107.706 232.14 106.67 232.14C105.634 232.14 104.841 231.851 104.29 231.272C103.749 230.693 103.478 229.909 103.478 228.92V225.364C103.478 225.121 103.558 224.921 103.716 224.762C103.875 224.594 104.076 224.51 104.318 224.51C104.561 224.51 104.762 224.594 104.92 224.762C105.079 224.921 105.158 225.121 105.158 225.364V228.92C105.158 229.489 105.284 229.914 105.536 230.194C105.788 230.465 106.166 230.6 106.67 230.6C107.184 230.6 107.566 230.465 107.818 230.194C108.07 229.914 108.196 229.489 108.196 228.92V225.364C108.196 225.121 108.276 224.921 108.434 224.762C108.593 224.594 108.794 224.51 109.036 224.51ZM113.277 231.146C113.277 231.389 113.198 231.594 113.039 231.762C112.88 231.921 112.68 232 112.437 232C112.194 232 111.994 231.921 111.835 231.762C111.676 231.594 111.597 231.389 111.597 231.146V225.364C111.597 225.121 111.676 224.921 111.835 224.762C111.994 224.594 112.194 224.51 112.437 224.51C112.68 224.51 112.88 224.594 113.039 224.762C113.198 224.921 113.277 225.121 113.277 225.364V231.146ZM112.423 223.6C112.106 223.6 111.882 223.549 111.751 223.446C111.62 223.343 111.555 223.161 111.555 222.9V222.634C111.555 222.363 111.625 222.181 111.765 222.088C111.914 221.985 112.138 221.934 112.437 221.934C112.764 221.934 112.992 221.985 113.123 222.088C113.254 222.191 113.319 222.373 113.319 222.634V222.9C113.319 223.171 113.249 223.357 113.109 223.46C112.969 223.553 112.74 223.6 112.423 223.6ZM118.336 224.37C118.868 224.37 119.33 224.426 119.722 224.538C120.123 224.65 120.431 224.809 120.646 225.014C120.87 225.21 120.982 225.448 120.982 225.728C120.982 225.915 120.926 226.092 120.814 226.26C120.702 226.419 120.538 226.498 120.324 226.498C120.174 226.498 120.048 226.479 119.946 226.442C119.852 226.395 119.768 226.339 119.694 226.274C119.619 226.209 119.53 226.148 119.428 226.092C119.334 226.036 119.19 225.994 118.994 225.966C118.807 225.929 118.667 225.91 118.574 225.91C118.098 225.91 117.692 226.013 117.356 226.218C117.029 226.423 116.777 226.703 116.6 227.058C116.422 227.403 116.334 227.805 116.334 228.262C116.334 228.71 116.422 229.111 116.6 229.466C116.786 229.811 117.038 230.087 117.356 230.292C117.682 230.497 118.056 230.6 118.476 230.6C118.709 230.6 118.91 230.586 119.078 230.558C119.246 230.53 119.386 230.488 119.498 230.432C119.628 230.357 119.745 230.278 119.848 230.194C119.95 230.11 120.104 230.068 120.31 230.068C120.552 230.068 120.739 230.147 120.87 230.306C121 230.455 121.066 230.642 121.066 230.866C121.066 231.099 120.935 231.314 120.674 231.51C120.412 231.697 120.067 231.851 119.638 231.972C119.218 232.084 118.76 232.14 118.266 232.14C117.528 232.14 116.889 231.972 116.348 231.636C115.806 231.291 115.386 230.824 115.088 230.236C114.798 229.648 114.654 228.99 114.654 228.262C114.654 227.497 114.808 226.825 115.116 226.246C115.433 225.658 115.867 225.201 116.418 224.874C116.978 224.538 117.617 224.37 118.336 224.37ZM123.257 232C123.015 232 122.814 231.921 122.655 231.762C122.497 231.594 122.417 231.389 122.417 231.146V222.494C122.417 222.251 122.497 222.051 122.655 221.892C122.814 221.724 123.015 221.64 123.257 221.64C123.5 221.64 123.701 221.724 123.859 221.892C124.018 222.051 124.097 222.251 124.097 222.494V231.146C124.097 231.389 124.018 231.594 123.859 231.762C123.701 231.921 123.5 232 123.257 232ZM127.709 224.51C127.924 224.51 128.111 224.599 128.269 224.776C128.428 224.953 128.507 225.126 128.507 225.294C128.507 225.518 128.395 225.728 128.171 225.924L123.957 229.802L123.887 227.87L127.093 224.776C127.271 224.599 127.476 224.51 127.709 224.51ZM127.919 231.986C127.677 231.986 127.471 231.893 127.303 231.706L124.713 228.962L125.987 227.786L128.507 230.53C128.685 230.717 128.773 230.927 128.773 231.16C128.773 231.403 128.675 231.603 128.479 231.762C128.293 231.911 128.106 231.986 127.919 231.986ZM137.462 232.14C136.808 232.14 136.22 232.061 135.698 231.902C135.175 231.734 134.676 231.445 134.2 231.034C134.078 230.931 133.985 230.815 133.92 230.684C133.854 230.553 133.822 230.423 133.822 230.292C133.822 230.077 133.896 229.891 134.046 229.732C134.204 229.564 134.4 229.48 134.634 229.48C134.811 229.48 134.97 229.536 135.11 229.648C135.464 229.937 135.814 230.157 136.16 230.306C136.514 230.455 136.948 230.53 137.462 230.53C137.807 230.53 138.124 230.479 138.414 230.376C138.703 230.264 138.936 230.119 139.114 229.942C139.291 229.755 139.38 229.545 139.38 229.312C139.38 229.032 139.296 228.794 139.128 228.598C138.96 228.402 138.703 228.239 138.358 228.108C138.012 227.968 137.574 227.861 137.042 227.786C136.538 227.711 136.094 227.599 135.712 227.45C135.329 227.291 135.007 227.095 134.746 226.862C134.494 226.619 134.302 226.339 134.172 226.022C134.041 225.695 133.976 225.331 133.976 224.93C133.976 224.323 134.13 223.805 134.438 223.376C134.755 222.947 135.18 222.62 135.712 222.396C136.244 222.172 136.832 222.06 137.476 222.06C138.082 222.06 138.642 222.153 139.156 222.34C139.678 222.517 140.103 222.746 140.43 223.026C140.7 223.241 140.836 223.488 140.836 223.768C140.836 223.973 140.756 224.16 140.598 224.328C140.439 224.496 140.252 224.58 140.038 224.58C139.898 224.58 139.772 224.538 139.66 224.454C139.51 224.323 139.31 224.202 139.058 224.09C138.806 223.969 138.54 223.871 138.26 223.796C137.98 223.712 137.718 223.67 137.476 223.67C137.074 223.67 136.734 223.721 136.454 223.824C136.183 223.927 135.978 224.067 135.838 224.244C135.698 224.421 135.628 224.627 135.628 224.86C135.628 225.14 135.707 225.373 135.866 225.56C136.034 225.737 136.272 225.882 136.58 225.994C136.888 226.097 137.256 226.19 137.686 226.274C138.246 226.377 138.736 226.498 139.156 226.638C139.585 226.778 139.94 226.96 140.22 227.184C140.5 227.399 140.71 227.674 140.85 228.01C140.99 228.337 141.06 228.738 141.06 229.214C141.06 229.821 140.892 230.343 140.556 230.782C140.22 231.221 139.776 231.557 139.226 231.79C138.684 232.023 138.096 232.14 137.462 232.14ZM145.857 224.37C146.389 224.37 146.851 224.426 147.243 224.538C147.645 224.65 147.953 224.809 148.167 225.014C148.391 225.21 148.503 225.448 148.503 225.728C148.503 225.915 148.447 226.092 148.335 226.26C148.223 226.419 148.06 226.498 147.845 226.498C147.696 226.498 147.57 226.479 147.467 226.442C147.374 226.395 147.29 226.339 147.215 226.274C147.141 226.209 147.052 226.148 146.949 226.092C146.856 226.036 146.711 225.994 146.515 225.966C146.329 225.929 146.189 225.91 146.095 225.91C145.619 225.91 145.213 226.013 144.877 226.218C144.551 226.423 144.299 226.703 144.121 227.058C143.944 227.403 143.855 227.805 143.855 228.262C143.855 228.71 143.944 229.111 144.121 229.466C144.308 229.811 144.56 230.087 144.877 230.292C145.204 230.497 145.577 230.6 145.997 230.6C146.231 230.6 146.431 230.586 146.599 230.558C146.767 230.53 146.907 230.488 147.019 230.432C147.15 230.357 147.267 230.278 147.369 230.194C147.472 230.11 147.626 230.068 147.831 230.068C148.074 230.068 148.261 230.147 148.391 230.306C148.522 230.455 148.587 230.642 148.587 230.866C148.587 231.099 148.457 231.314 148.195 231.51C147.934 231.697 147.589 231.851 147.159 231.972C146.739 232.084 146.282 232.14 145.787 232.14C145.05 232.14 144.411 231.972 143.869 231.636C143.328 231.291 142.908 230.824 142.609 230.236C142.32 229.648 142.175 228.99 142.175 228.262C142.175 227.497 142.329 226.825 142.637 226.246C142.955 225.658 143.389 225.201 143.939 224.874C144.499 224.538 145.139 224.37 145.857 224.37ZM155.931 224.37C156.173 224.37 156.374 224.449 156.533 224.608C156.691 224.767 156.771 224.972 156.771 225.224V231.146C156.771 231.389 156.691 231.594 156.533 231.762C156.374 231.921 156.173 232 155.931 232C155.688 232 155.487 231.921 155.329 231.762C155.17 231.594 155.091 231.389 155.091 231.146V230.46L155.399 230.586C155.399 230.707 155.333 230.857 155.203 231.034C155.072 231.202 154.895 231.37 154.671 231.538C154.447 231.706 154.181 231.851 153.873 231.972C153.574 232.084 153.247 232.14 152.893 232.14C152.249 232.14 151.665 231.977 151.143 231.65C150.62 231.314 150.205 230.857 149.897 230.278C149.598 229.69 149.449 229.018 149.449 228.262C149.449 227.497 149.598 226.825 149.897 226.246C150.205 225.658 150.615 225.201 151.129 224.874C151.642 224.538 152.211 224.37 152.837 224.37C153.238 224.37 153.607 224.431 153.943 224.552C154.279 224.673 154.568 224.827 154.811 225.014C155.063 225.201 155.254 225.392 155.385 225.588C155.525 225.775 155.595 225.933 155.595 226.064L155.091 226.246V225.224C155.091 224.981 155.17 224.781 155.329 224.622C155.487 224.454 155.688 224.37 155.931 224.37ZM153.103 230.6C153.513 230.6 153.873 230.497 154.181 230.292C154.489 230.087 154.727 229.807 154.895 229.452C155.072 229.097 155.161 228.701 155.161 228.262C155.161 227.814 155.072 227.413 154.895 227.058C154.727 226.703 154.489 226.423 154.181 226.218C153.873 226.013 153.513 225.91 153.103 225.91C152.701 225.91 152.347 226.013 152.039 226.218C151.731 226.423 151.488 226.703 151.311 227.058C151.143 227.413 151.059 227.814 151.059 228.262C151.059 228.701 151.143 229.097 151.311 229.452C151.488 229.807 151.731 230.087 152.039 230.292C152.347 230.497 152.701 230.6 153.103 230.6ZM162.594 224.37C163.284 224.37 163.807 224.515 164.162 224.804C164.526 225.093 164.773 225.481 164.904 225.966C165.044 226.442 165.114 226.974 165.114 227.562V231.146C165.114 231.389 165.034 231.594 164.876 231.762C164.717 231.921 164.516 232 164.274 232C164.031 232 163.83 231.921 163.672 231.762C163.513 231.594 163.434 231.389 163.434 231.146V227.562C163.434 227.254 163.392 226.979 163.308 226.736C163.233 226.484 163.093 226.283 162.888 226.134C162.682 225.985 162.388 225.91 162.006 225.91C161.632 225.91 161.315 225.985 161.054 226.134C160.802 226.283 160.606 226.484 160.466 226.736C160.335 226.979 160.27 227.254 160.27 227.562V231.146C160.27 231.389 160.19 231.594 160.032 231.762C159.873 231.921 159.672 232 159.43 232C159.187 232 158.986 231.921 158.828 231.762C158.669 231.594 158.59 231.389 158.59 231.146V225.364C158.59 225.121 158.669 224.921 158.828 224.762C158.986 224.594 159.187 224.51 159.43 224.51C159.672 224.51 159.873 224.594 160.032 224.762C160.19 224.921 160.27 225.121 160.27 225.364V225.966L160.06 225.924C160.144 225.765 160.265 225.597 160.424 225.42C160.582 225.233 160.769 225.061 160.984 224.902C161.198 224.743 161.441 224.617 161.712 224.524C161.982 224.421 162.276 224.37 162.594 224.37Z" fill="#19191F"/>
<path d="M80.89 224.55C80.8069 224.385 80.6798 224.246 80.5227 224.149C80.3656 224.052 80.1847 224.001 80 224H75V218C75.0107 217.781 74.949 217.564 74.8243 217.383C74.6996 217.203 74.5189 217.068 74.31 217C74.1092 216.934 73.8927 216.933 73.6915 216.998C73.4903 217.063 73.3147 217.189 73.19 217.36L65.19 228.36C65.0898 228.505 65.0296 228.674 65.0155 228.849C65.0015 229.025 65.0341 229.201 65.11 229.36C65.1799 229.542 65.3014 229.699 65.4595 229.813C65.6176 229.927 65.8055 229.992 66 230H71V236C71.0002 236.211 71.067 236.416 71.1909 236.587C71.3148 236.758 71.4895 236.885 71.69 236.95C71.7905 236.981 71.8948 236.998 72 237C72.1578 237 72.3134 236.964 72.4542 236.892C72.595 236.821 72.7169 236.717 72.81 236.59L80.81 225.59C80.9178 225.441 80.9822 225.265 80.9964 225.081C81.0105 224.898 80.9737 224.714 80.89 224.55V224.55ZM73 232.92V229C73 228.735 72.8947 228.48 72.7071 228.293C72.5196 228.105 72.2652 228 72 228H68L73 221.08V225C73 225.265 73.1054 225.52 73.2929 225.707C73.4804 225.895 73.7348 226 74 226H78L73 232.92Z" fill="#FFAF37"/>
<defs>
<filter id="filter0_d_318_1540" x="0.315101" y="22.526" width="228.37" height="228.37" filterUnits="userSpaceOnUse" color-interpolation-filters="sRGB">
<feFlood flood-opacity="0" result="BackgroundImageFix"/>
<feColorMatrix in="SourceAlpha" type="matrix" values="0 0 0 0 0 0 0 0 0 0 0 0 0 0 0 0 0 0 127 0" result="hardAlpha"/>
<feMorphology radius="6.73698" operator="erode" in="SourceAlpha" result="effect1_dropShadow_318_1540"/>
<feOffset dy="20.2109"/>
<feGaussianBlur stdDeviation="20.2109"/>
<feComposite in2="hardAlpha" operator="out"/>
<feColorMatrix type="matrix" values="0 0 0 0 0.152941 0 0 0 0 0.221961 0 0 0 0 0.466667 0 0 0 0.16 0"/>
<feBlend mode="normal" in2="BackgroundImageFix" result="effect1_dropShadow_318_1540"/>
<feBlend mode="normal" in="SourceGraphic" in2="effect1_dropShadow_318_1540" result="shape"/>
</filter>
<filter id="filter1_d_318_1540" x="1.8151" y="23.526" width="225.37" height="226.37" filterUnits="userSpaceOnUse" color-interpolation-filters="sRGB">
<feFlood flood-opacity="0" result="BackgroundImageFix"/>
<feColorMatrix in="SourceAlpha" type="matrix" values="0 0 0 0 0 0 0 0 0 0 0 0 0 0 0 0 0 0 127 0" result="hardAlpha"/>
<feMorphology radius="6.73698" operator="erode" in="SourceAlpha" result="effect1_dropShadow_318_1540"/>
<feOffset dy="20.2109"/>
<feGaussianBlur stdDeviation="20.2109"/>
<feComposite in2="hardAlpha" operator="out"/>
<feColorMatrix type="matrix" values="0 0 0 0 0.152941 0 0 0 0 0.221961 0 0 0 0 0.466667 0 0 0 0.16 0"/>
<feBlend mode="normal" in2="BackgroundImageFix" result="effect1_dropShadow_318_1540"/>
<feBlend mode="normal" in="SourceGraphic" in2="effect1_dropShadow_318_1540" result="shape"/>
</filter>
<linearGradient id="paint0_linear_318_1540" x1="114.5" y1="67.4174" x2="114.5" y2="195.991" gradientUnits="userSpaceOnUse">
<stop stop-color="#AFDFA7"/>
<stop offset="1" stop-color="#69CA94"/>
</linearGradient>
<linearGradient id="paint1_linear_318_1540" x1="114.5" y1="66.5046" x2="114.5" y2="195.992" gradientUnits="userSpaceOnUse">
<stop stop-color="#CAF2C4"/>
<stop offset="1" stop-color="#296142"/>
</linearGradient>
<linearGradient id="paint2_linear_318_1540" x1="114.5" y1="37" x2="114.5" y2="196" gradientUnits="userSpaceOnUse">
<stop stop-color="#F8F8FB"/>
<stop offset="1" stop-color="#F8F8FB"/>
</linearGradient>
</defs>
</svg>
