<svg width="288" height="350" viewBox="0 0 288 350" fill="none" xmlns="http://www.w3.org/2000/svg">
<g filter="url(#filter0_d_318_1541)">
<rect x="34" y="14" width="220" height="282" rx="16" fill="#F8F8FB"/>
<rect x="34.42" y="14.42" width="219.16" height="281.16" rx="15.58" stroke="white" stroke-width="0.84"/>
</g>
<path d="M104.984 48.484L102.392 54.58C102.336 54.732 102.248 54.852 102.128 54.94C102.016 55.02 101.892 55.06 101.756 55.06C101.54 55.06 101.38 55 101.276 54.88C101.172 54.76 101.12 54.612 101.12 54.436C101.12 54.364 101.132 54.288 101.156 54.208L104.144 47.032C104.208 46.872 104.304 46.748 104.432 46.66C104.568 46.572 104.712 46.536 104.864 46.552C105.008 46.552 105.14 46.596 105.26 46.684C105.388 46.764 105.48 46.88 105.536 47.032L108.488 54.064C108.528 54.168 108.548 54.264 108.548 54.352C108.548 54.568 108.476 54.74 108.332 54.868C108.196 54.996 108.044 55.06 107.876 55.06C107.732 55.06 107.6 55.016 107.48 54.928C107.368 54.84 107.28 54.72 107.216 54.568L104.636 48.556L104.984 48.484ZM102.764 53.116L103.424 51.736H106.664L106.892 53.116H102.764ZM112.876 48.46C113.468 48.46 113.916 48.584 114.22 48.832C114.532 49.08 114.744 49.412 114.856 49.828C114.976 50.236 115.036 50.692 115.036 51.196V54.268C115.036 54.476 114.968 54.652 114.832 54.796C114.696 54.932 114.524 55 114.316 55C114.108 55 113.936 54.932 113.8 54.796C113.664 54.652 113.596 54.476 113.596 54.268V51.196C113.596 50.932 113.56 50.696 113.488 50.488C113.424 50.272 113.304 50.1 113.128 49.972C112.952 49.844 112.7 49.78 112.372 49.78C112.052 49.78 111.78 49.844 111.556 49.972C111.34 50.1 111.172 50.272 111.052 50.488C110.94 50.696 110.884 50.932 110.884 51.196V54.268C110.884 54.476 110.816 54.652 110.68 54.796C110.544 54.932 110.372 55 110.164 55C109.956 55 109.784 54.932 109.648 54.796C109.512 54.652 109.444 54.476 109.444 54.268V49.312C109.444 49.104 109.512 48.932 109.648 48.796C109.784 48.652 109.956 48.58 110.164 48.58C110.372 48.58 110.544 48.652 110.68 48.796C110.816 48.932 110.884 49.104 110.884 49.312V49.828L110.704 49.792C110.776 49.656 110.88 49.512 111.016 49.36C111.152 49.2 111.312 49.052 111.496 48.916C111.68 48.78 111.888 48.672 112.12 48.592C112.352 48.504 112.604 48.46 112.876 48.46ZM121.849 48.46C122.057 48.46 122.229 48.528 122.365 48.664C122.501 48.8 122.569 48.976 122.569 49.192V54.268C122.569 54.476 122.501 54.652 122.365 54.796C122.229 54.932 122.057 55 121.849 55C121.641 55 121.469 54.932 121.333 54.796C121.197 54.652 121.129 54.476 121.129 54.268V53.68L121.393 53.788C121.393 53.892 121.337 54.02 121.225 54.172C121.113 54.316 120.961 54.46 120.769 54.604C120.577 54.748 120.349 54.872 120.085 54.976C119.829 55.072 119.549 55.12 119.245 55.12C118.693 55.12 118.193 54.98 117.745 54.7C117.297 54.412 116.941 54.02 116.677 53.524C116.421 53.02 116.293 52.444 116.293 51.796C116.293 51.14 116.421 50.564 116.677 50.068C116.941 49.564 117.293 49.172 117.733 48.892C118.173 48.604 118.661 48.46 119.197 48.46C119.541 48.46 119.857 48.512 120.145 48.616C120.433 48.72 120.681 48.852 120.889 49.012C121.105 49.172 121.269 49.336 121.381 49.504C121.501 49.664 121.561 49.8 121.561 49.912L121.129 50.068V49.192C121.129 48.984 121.197 48.812 121.333 48.676C121.469 48.532 121.641 48.46 121.849 48.46ZM119.425 53.8C119.777 53.8 120.085 53.712 120.349 53.536C120.613 53.36 120.817 53.12 120.961 52.816C121.113 52.512 121.189 52.172 121.189 51.796C121.189 51.412 121.113 51.068 120.961 50.764C120.817 50.46 120.613 50.22 120.349 50.044C120.085 49.868 119.777 49.78 119.425 49.78C119.081 49.78 118.777 49.868 118.513 50.044C118.249 50.22 118.041 50.46 117.889 50.764C117.745 51.068 117.673 51.412 117.673 51.796C117.673 52.172 117.745 52.512 117.889 52.816C118.041 53.12 118.249 53.36 118.513 53.536C118.777 53.712 119.081 53.8 119.425 53.8ZM125.688 54.268C125.688 54.476 125.616 54.652 125.472 54.796C125.336 54.932 125.164 55 124.956 55C124.756 55 124.588 54.932 124.452 54.796C124.316 54.652 124.248 54.476 124.248 54.268V46.852C124.248 46.644 124.316 46.472 124.452 46.336C124.596 46.192 124.772 46.12 124.98 46.12C125.188 46.12 125.356 46.192 125.484 46.336C125.62 46.472 125.688 46.644 125.688 46.852V54.268ZM131.95 48.58C132.158 48.58 132.33 48.652 132.466 48.796C132.602 48.932 132.67 49.104 132.67 49.312V54.412C132.67 55.148 132.53 55.732 132.25 56.164C131.978 56.604 131.61 56.92 131.146 57.112C130.682 57.304 130.162 57.4 129.586 57.4C129.33 57.4 129.058 57.38 128.77 57.34C128.482 57.3 128.246 57.24 128.062 57.16C127.822 57.056 127.654 56.924 127.558 56.764C127.47 56.612 127.454 56.448 127.51 56.272C127.582 56.04 127.698 55.88 127.858 55.792C128.018 55.712 128.186 55.704 128.362 55.768C128.49 55.808 128.658 55.868 128.866 55.948C129.074 56.036 129.314 56.08 129.586 56.08C129.954 56.08 130.258 56.028 130.498 55.924C130.746 55.828 130.93 55.66 131.05 55.42C131.178 55.188 131.242 54.868 131.242 54.46V53.656L131.494 53.944C131.358 54.208 131.186 54.428 130.978 54.604C130.778 54.772 130.538 54.9 130.258 54.988C129.978 55.076 129.658 55.12 129.298 55.12C128.874 55.12 128.502 55.024 128.182 54.832C127.87 54.632 127.626 54.36 127.45 54.016C127.274 53.664 127.186 53.264 127.186 52.816V49.312C127.186 49.104 127.254 48.932 127.39 48.796C127.526 48.652 127.698 48.58 127.906 48.58C128.114 48.58 128.286 48.652 128.422 48.796C128.558 48.932 128.626 49.104 128.626 49.312V52.384C128.626 52.904 128.738 53.272 128.962 53.488C129.194 53.696 129.514 53.8 129.922 53.8C130.202 53.8 130.438 53.748 130.63 53.644C130.822 53.532 130.97 53.372 131.074 53.164C131.178 52.948 131.23 52.688 131.23 52.384V49.312C131.23 49.104 131.298 48.932 131.434 48.796C131.57 48.652 131.742 48.58 131.95 48.58ZM133.74 54.004C133.66 53.892 133.624 53.748 133.632 53.572C133.64 53.396 133.744 53.244 133.944 53.116C134.072 53.036 134.208 53.004 134.352 53.02C134.496 53.028 134.636 53.1 134.772 53.236C135.004 53.468 135.248 53.648 135.504 53.776C135.76 53.904 136.08 53.968 136.464 53.968C136.584 53.96 136.716 53.944 136.86 53.92C137.004 53.888 137.128 53.824 137.232 53.728C137.344 53.624 137.4 53.468 137.4 53.26C137.4 53.084 137.34 52.944 137.22 52.84C137.1 52.736 136.94 52.648 136.74 52.576C136.548 52.504 136.332 52.436 136.092 52.372C135.844 52.3 135.588 52.22 135.324 52.132C135.068 52.044 134.832 51.932 134.616 51.796C134.4 51.652 134.224 51.464 134.088 51.232C133.952 51 133.884 50.708 133.884 50.356C133.884 49.956 133.996 49.616 134.22 49.336C134.444 49.056 134.732 48.84 135.084 48.688C135.444 48.536 135.82 48.46 136.212 48.46C136.46 48.46 136.72 48.492 136.992 48.556C137.264 48.612 137.524 48.708 137.772 48.844C138.02 48.972 138.228 49.144 138.396 49.36C138.484 49.48 138.536 49.624 138.552 49.792C138.568 49.96 138.492 50.112 138.324 50.248C138.204 50.344 138.064 50.388 137.904 50.38C137.744 50.364 137.612 50.308 137.508 50.212C137.372 50.036 137.188 49.896 136.956 49.792C136.732 49.688 136.472 49.636 136.176 49.636C136.056 49.636 135.924 49.652 135.78 49.684C135.644 49.708 135.524 49.768 135.42 49.864C135.316 49.952 135.264 50.096 135.264 50.296C135.264 50.48 135.324 50.628 135.444 50.74C135.564 50.844 135.724 50.932 135.924 51.004C136.132 51.068 136.352 51.132 136.584 51.196C136.824 51.26 137.068 51.336 137.316 51.424C137.564 51.512 137.792 51.628 138 51.772C138.208 51.916 138.376 52.104 138.504 52.336C138.632 52.56 138.696 52.848 138.696 53.2C138.696 53.608 138.576 53.956 138.336 54.244C138.096 54.532 137.796 54.752 137.436 54.904C137.076 55.048 136.708 55.12 136.332 55.12C135.86 55.12 135.388 55.04 134.916 54.88C134.444 54.712 134.052 54.42 133.74 54.004ZM141.257 54.268C141.257 54.476 141.189 54.652 141.053 54.796C140.917 54.932 140.745 55 140.537 55C140.329 55 140.157 54.932 140.021 54.796C139.885 54.652 139.817 54.476 139.817 54.268V49.312C139.817 49.104 139.885 48.932 140.021 48.796C140.157 48.652 140.329 48.58 140.537 48.58C140.745 48.58 140.917 48.652 141.053 48.796C141.189 48.932 141.257 49.104 141.257 49.312V54.268ZM140.525 47.8C140.253 47.8 140.061 47.756 139.949 47.668C139.837 47.58 139.781 47.424 139.781 47.2V46.972C139.781 46.74 139.841 46.584 139.961 46.504C140.089 46.416 140.281 46.372 140.537 46.372C140.817 46.372 141.013 46.416 141.125 46.504C141.237 46.592 141.293 46.748 141.293 46.972V47.2C141.293 47.432 141.233 47.592 141.113 47.68C140.993 47.76 140.797 47.8 140.525 47.8ZM146.169 48.46C146.761 48.46 147.209 48.584 147.513 48.832C147.825 49.08 148.037 49.412 148.149 49.828C148.269 50.236 148.329 50.692 148.329 51.196V54.268C148.329 54.476 148.261 54.652 148.125 54.796C147.989 54.932 147.817 55 147.609 55C147.401 55 147.229 54.932 147.093 54.796C146.957 54.652 146.889 54.476 146.889 54.268V51.196C146.889 50.932 146.853 50.696 146.781 50.488C146.717 50.272 146.597 50.1 146.421 49.972C146.245 49.844 145.993 49.78 145.665 49.78C145.345 49.78 145.073 49.844 144.849 49.972C144.633 50.1 144.465 50.272 144.345 50.488C144.233 50.696 144.177 50.932 144.177 51.196V54.268C144.177 54.476 144.109 54.652 143.973 54.796C143.837 54.932 143.665 55 143.457 55C143.249 55 143.077 54.932 142.941 54.796C142.805 54.652 142.737 54.476 142.737 54.268V49.312C142.737 49.104 142.805 48.932 142.941 48.796C143.077 48.652 143.249 48.58 143.457 48.58C143.665 48.58 143.837 48.652 143.973 48.796C144.109 48.932 144.177 49.104 144.177 49.312V49.828L143.997 49.792C144.069 49.656 144.173 49.512 144.309 49.36C144.445 49.2 144.605 49.052 144.789 48.916C144.973 48.78 145.181 48.672 145.413 48.592C145.645 48.504 145.897 48.46 146.169 48.46ZM152.549 48.46C152.885 48.46 153.193 48.512 153.473 48.616C153.753 48.72 153.993 48.852 154.193 49.012C154.401 49.172 154.561 49.336 154.673 49.504C154.793 49.664 154.853 49.8 154.853 49.912L154.541 50.068V49.192C154.541 48.984 154.609 48.812 154.745 48.676C154.881 48.532 155.053 48.46 155.261 48.46C155.469 48.46 155.641 48.528 155.777 48.664C155.913 48.8 155.981 48.976 155.981 49.192V54.532C155.981 55.228 155.829 55.784 155.525 56.2C155.229 56.624 154.837 56.928 154.349 57.112C153.861 57.304 153.337 57.4 152.777 57.4C152.617 57.4 152.409 57.38 152.153 57.34C151.897 57.3 151.653 57.252 151.421 57.196C151.189 57.14 151.013 57.088 150.893 57.04C150.653 56.936 150.485 56.804 150.389 56.644C150.301 56.492 150.285 56.328 150.341 56.152C150.413 55.92 150.529 55.76 150.689 55.672C150.849 55.592 151.017 55.584 151.193 55.648C151.273 55.672 151.405 55.72 151.589 55.792C151.773 55.864 151.973 55.928 152.189 55.984C152.413 56.048 152.609 56.08 152.777 56.08C153.377 56.08 153.821 55.96 154.109 55.72C154.397 55.48 154.541 55.148 154.541 54.724V53.68L154.685 53.788C154.685 53.892 154.629 54.02 154.517 54.172C154.413 54.316 154.265 54.46 154.073 54.604C153.889 54.748 153.669 54.872 153.413 54.976C153.157 55.072 152.885 55.12 152.597 55.12C152.029 55.12 151.517 54.98 151.061 54.7C150.605 54.412 150.245 54.02 149.981 53.524C149.717 53.02 149.585 52.444 149.585 51.796C149.585 51.14 149.717 50.564 149.981 50.068C150.245 49.564 150.601 49.172 151.049 48.892C151.497 48.604 151.997 48.46 152.549 48.46ZM152.777 49.78C152.417 49.78 152.101 49.868 151.829 50.044C151.557 50.22 151.345 50.46 151.193 50.764C151.041 51.068 150.965 51.412 150.965 51.796C150.965 52.172 151.041 52.512 151.193 52.816C151.345 53.12 151.557 53.36 151.829 53.536C152.101 53.712 152.417 53.8 152.777 53.8C153.145 53.8 153.465 53.712 153.737 53.536C154.009 53.36 154.221 53.12 154.373 52.816C154.525 52.512 154.601 52.172 154.601 51.796C154.601 51.412 154.525 51.068 154.373 50.764C154.221 50.46 154.009 50.22 153.737 50.044C153.465 49.868 153.145 49.78 152.777 49.78ZM165.665 48.58C165.873 48.58 166.045 48.652 166.181 48.796C166.317 48.932 166.385 49.104 166.385 49.312V54.412C166.385 55.148 166.245 55.732 165.965 56.164C165.693 56.604 165.325 56.92 164.861 57.112C164.397 57.304 163.877 57.4 163.301 57.4C163.045 57.4 162.773 57.38 162.485 57.34C162.197 57.3 161.961 57.24 161.777 57.16C161.537 57.056 161.369 56.924 161.273 56.764C161.185 56.612 161.169 56.448 161.225 56.272C161.297 56.04 161.413 55.88 161.573 55.792C161.733 55.712 161.901 55.704 162.077 55.768C162.205 55.808 162.373 55.868 162.581 55.948C162.789 56.036 163.029 56.08 163.301 56.08C163.669 56.08 163.973 56.028 164.213 55.924C164.461 55.828 164.645 55.66 164.765 55.42C164.893 55.188 164.957 54.868 164.957 54.46V53.656L165.209 53.944C165.073 54.208 164.901 54.428 164.693 54.604C164.493 54.772 164.253 54.9 163.973 54.988C163.693 55.076 163.373 55.12 163.013 55.12C162.589 55.12 162.217 55.024 161.897 54.832C161.585 54.632 161.341 54.36 161.165 54.016C160.989 53.664 160.901 53.264 160.901 52.816V49.312C160.901 49.104 160.969 48.932 161.105 48.796C161.241 48.652 161.413 48.58 161.621 48.58C161.829 48.58 162.001 48.652 162.137 48.796C162.273 48.932 162.341 49.104 162.341 49.312V52.384C162.341 52.904 162.453 53.272 162.677 53.488C162.909 53.696 163.229 53.8 163.637 53.8C163.917 53.8 164.153 53.748 164.345 53.644C164.537 53.532 164.685 53.372 164.789 53.164C164.893 52.948 164.945 52.688 164.945 52.384V49.312C164.945 49.104 165.013 48.932 165.149 48.796C165.285 48.652 165.457 48.58 165.665 48.58ZM174.113 51.796C174.113 52.452 173.965 53.032 173.669 53.536C173.381 54.032 172.989 54.42 172.493 54.7C172.005 54.98 171.457 55.12 170.849 55.12C170.241 55.12 169.689 54.98 169.193 54.7C168.705 54.42 168.313 54.032 168.017 53.536C167.729 53.032 167.585 52.452 167.585 51.796C167.585 51.14 167.729 50.564 168.017 50.068C168.313 49.564 168.705 49.172 169.193 48.892C169.689 48.604 170.241 48.46 170.849 48.46C171.457 48.46 172.005 48.604 172.493 48.892C172.989 49.172 173.381 49.564 173.669 50.068C173.965 50.564 174.113 51.14 174.113 51.796ZM172.673 51.796C172.673 51.388 172.589 51.036 172.421 50.74C172.261 50.436 172.041 50.2 171.761 50.032C171.489 49.864 171.185 49.78 170.849 49.78C170.513 49.78 170.205 49.864 169.925 50.032C169.653 50.2 169.433 50.436 169.265 50.74C169.105 51.036 169.025 51.388 169.025 51.796C169.025 52.196 169.105 52.548 169.265 52.852C169.433 53.148 169.653 53.38 169.925 53.548C170.205 53.716 170.513 53.8 170.849 53.8C171.185 53.8 171.489 53.716 171.761 53.548C172.041 53.38 172.261 53.148 172.421 52.852C172.589 52.548 172.673 52.196 172.673 51.796ZM180.138 48.58C180.346 48.58 180.518 48.652 180.654 48.796C180.79 48.932 180.858 49.104 180.858 49.312V52.36C180.858 53.208 180.622 53.88 180.15 54.376C179.678 54.872 178.998 55.12 178.11 55.12C177.222 55.12 176.542 54.872 176.07 54.376C175.606 53.88 175.374 53.208 175.374 52.36V49.312C175.374 49.104 175.442 48.932 175.578 48.796C175.714 48.652 175.886 48.58 176.094 48.58C176.302 48.58 176.474 48.652 176.61 48.796C176.746 48.932 176.814 49.104 176.814 49.312V52.36C176.814 52.848 176.922 53.212 177.138 53.452C177.354 53.684 177.678 53.8 178.11 53.8C178.55 53.8 178.878 53.684 179.094 53.452C179.31 53.212 179.418 52.848 179.418 52.36V49.312C179.418 49.104 179.486 48.932 179.622 48.796C179.758 48.652 179.93 48.58 180.138 48.58ZM183.137 55C182.929 55 182.757 54.932 182.621 54.796C182.485 54.652 182.417 54.476 182.417 54.268V49.312C182.417 49.104 182.485 48.932 182.621 48.796C182.757 48.652 182.929 48.58 183.137 48.58C183.345 48.58 183.517 48.652 183.653 48.796C183.789 48.932 183.857 49.104 183.857 49.312V50.44L183.773 49.636C183.861 49.444 183.973 49.276 184.109 49.132C184.253 48.98 184.413 48.856 184.589 48.76C184.765 48.656 184.953 48.58 185.153 48.532C185.353 48.484 185.553 48.46 185.753 48.46C185.993 48.46 186.193 48.528 186.353 48.664C186.521 48.8 186.605 48.96 186.605 49.144C186.605 49.408 186.537 49.6 186.401 49.72C186.265 49.832 186.117 49.888 185.957 49.888C185.805 49.888 185.665 49.86 185.537 49.804C185.417 49.748 185.277 49.72 185.117 49.72C184.973 49.72 184.825 49.756 184.673 49.828C184.529 49.892 184.393 49.996 184.265 50.14C184.145 50.284 184.045 50.464 183.965 50.68C183.893 50.888 183.857 51.136 183.857 51.424V54.268C183.857 54.476 183.789 54.652 183.653 54.796C183.517 54.932 183.345 55 183.137 55ZM194.703 46.6C195.279 46.6 195.791 46.708 196.239 46.924C196.687 47.14 197.063 47.444 197.367 47.836C197.679 48.22 197.911 48.668 198.063 49.18C198.223 49.684 198.303 50.224 198.303 50.8C198.303 51.576 198.163 52.284 197.883 52.924C197.603 53.556 197.195 54.06 196.659 54.436C196.131 54.812 195.479 55 194.703 55H191.835C191.627 55 191.451 54.932 191.307 54.796C191.171 54.652 191.103 54.476 191.103 54.268V47.332C191.103 47.124 191.171 46.952 191.307 46.816C191.451 46.672 191.627 46.6 191.835 46.6H194.703ZM194.583 53.62C195.087 53.62 195.499 53.492 195.819 53.236C196.139 52.972 196.371 52.628 196.515 52.204C196.667 51.772 196.743 51.304 196.743 50.8C196.743 50.424 196.699 50.068 196.611 49.732C196.531 49.388 196.403 49.088 196.227 48.832C196.051 48.568 195.827 48.36 195.555 48.208C195.283 48.056 194.959 47.98 194.583 47.98H192.483L192.603 47.872V53.752L192.531 53.62H194.583ZM204.817 48.46C205.025 48.46 205.197 48.528 205.333 48.664C205.469 48.8 205.537 48.976 205.537 49.192V54.268C205.537 54.476 205.469 54.652 205.333 54.796C205.197 54.932 205.025 55 204.817 55C204.609 55 204.437 54.932 204.301 54.796C204.165 54.652 204.097 54.476 204.097 54.268V53.68L204.361 53.788C204.361 53.892 204.305 54.02 204.193 54.172C204.081 54.316 203.929 54.46 203.737 54.604C203.545 54.748 203.317 54.872 203.053 54.976C202.797 55.072 202.517 55.12 202.213 55.12C201.661 55.12 201.161 54.98 200.713 54.7C200.265 54.412 199.909 54.02 199.645 53.524C199.389 53.02 199.261 52.444 199.261 51.796C199.261 51.14 199.389 50.564 199.645 50.068C199.909 49.564 200.261 49.172 200.701 48.892C201.141 48.604 201.629 48.46 202.165 48.46C202.509 48.46 202.825 48.512 203.113 48.616C203.401 48.72 203.649 48.852 203.857 49.012C204.073 49.172 204.237 49.336 204.349 49.504C204.469 49.664 204.529 49.8 204.529 49.912L204.097 50.068V49.192C204.097 48.984 204.165 48.812 204.301 48.676C204.437 48.532 204.609 48.46 204.817 48.46ZM202.393 53.8C202.745 53.8 203.053 53.712 203.317 53.536C203.581 53.36 203.785 53.12 203.929 52.816C204.081 52.512 204.157 52.172 204.157 51.796C204.157 51.412 204.081 51.068 203.929 50.764C203.785 50.46 203.581 50.22 203.317 50.044C203.053 49.868 202.745 49.78 202.393 49.78C202.049 49.78 201.745 49.868 201.481 50.044C201.217 50.22 201.009 50.46 200.857 50.764C200.713 51.068 200.641 51.412 200.641 51.796C200.641 52.172 200.713 52.512 200.857 52.816C201.009 53.12 201.217 53.36 201.481 53.536C201.745 53.712 202.049 53.8 202.393 53.8ZM207.168 48.7H210.012C210.204 48.7 210.364 48.764 210.492 48.892C210.62 49.02 210.684 49.18 210.684 49.372C210.684 49.556 210.62 49.712 210.492 49.84C210.364 49.96 210.204 50.02 210.012 50.02H207.168C206.976 50.02 206.816 49.956 206.688 49.828C206.56 49.7 206.496 49.54 206.496 49.348C206.496 49.164 206.56 49.012 206.688 48.892C206.816 48.764 206.976 48.7 207.168 48.7ZM208.452 47.2C208.66 47.2 208.828 47.272 208.956 47.416C209.092 47.552 209.16 47.724 209.16 47.932V53.272C209.16 53.384 209.18 53.476 209.22 53.548C209.268 53.62 209.328 53.672 209.4 53.704C209.48 53.736 209.564 53.752 209.652 53.752C209.748 53.752 209.836 53.736 209.916 53.704C209.996 53.664 210.088 53.644 210.192 53.644C210.304 53.644 210.404 53.696 210.492 53.8C210.588 53.904 210.636 54.048 210.636 54.232C210.636 54.456 210.512 54.64 210.264 54.784C210.024 54.928 209.764 55 209.484 55C209.316 55 209.128 54.988 208.92 54.964C208.72 54.932 208.528 54.864 208.344 54.76C208.168 54.648 208.02 54.48 207.9 54.256C207.78 54.032 207.72 53.724 207.72 53.332V47.932C207.72 47.724 207.788 47.552 207.924 47.416C208.068 47.272 208.244 47.2 208.452 47.2ZM217.263 48.46C217.471 48.46 217.643 48.528 217.779 48.664C217.915 48.8 217.983 48.976 217.983 49.192V54.268C217.983 54.476 217.915 54.652 217.779 54.796C217.643 54.932 217.471 55 217.263 55C217.055 55 216.883 54.932 216.747 54.796C216.611 54.652 216.543 54.476 216.543 54.268V53.68L216.807 53.788C216.807 53.892 216.751 54.02 216.639 54.172C216.527 54.316 216.375 54.46 216.183 54.604C215.991 54.748 215.763 54.872 215.499 54.976C215.243 55.072 214.963 55.12 214.659 55.12C214.107 55.12 213.607 54.98 213.159 54.7C212.711 54.412 212.355 54.02 212.091 53.524C211.835 53.02 211.707 52.444 211.707 51.796C211.707 51.14 211.835 50.564 212.091 50.068C212.355 49.564 212.707 49.172 213.147 48.892C213.587 48.604 214.075 48.46 214.611 48.46C214.955 48.46 215.271 48.512 215.559 48.616C215.847 48.72 216.095 48.852 216.303 49.012C216.519 49.172 216.683 49.336 216.795 49.504C216.915 49.664 216.975 49.8 216.975 49.912L216.543 50.068V49.192C216.543 48.984 216.611 48.812 216.747 48.676C216.883 48.532 217.055 48.46 217.263 48.46ZM214.839 53.8C215.191 53.8 215.499 53.712 215.763 53.536C216.027 53.36 216.231 53.12 216.375 52.816C216.527 52.512 216.603 52.172 216.603 51.796C216.603 51.412 216.527 51.068 216.375 50.764C216.231 50.46 216.027 50.22 215.763 50.044C215.499 49.868 215.191 49.78 214.839 49.78C214.495 49.78 214.191 49.868 213.927 50.044C213.663 50.22 213.455 50.46 213.303 50.764C213.159 51.068 213.087 51.412 213.087 51.796C213.087 52.172 213.159 52.512 213.303 52.816C213.455 53.12 213.663 53.36 213.927 53.536C214.191 53.712 214.495 53.8 214.839 53.8Z" fill="#272362"/>
<path d="M89 57H82.82C82.6707 56.5806 82.4299 56.1997 82.1151 55.8849C81.8003 55.5701 81.4194 55.3293 81 55.18V53H84C84.7956 53 85.5587 52.6839 86.1213 52.1213C86.6839 51.5587 87 50.7956 87 50V46C87 46 87 46 87 45.94C86.9896 45.8481 86.9695 45.7576 86.94 45.67V45.58C86.8919 45.4772 86.8278 45.3827 86.75 45.3V45.3L80.75 39.3C80.6673 39.2222 80.5728 39.1581 80.47 39.11C80.4402 39.1058 80.4099 39.1058 80.38 39.11C80.2784 39.0517 80.1662 39.0143 80.05 39H76C75.2044 39 74.4413 39.3161 73.8787 39.8787C73.3161 40.4413 73 41.2044 73 42V50C73 50.7956 73.3161 51.5587 73.8787 52.1213C74.4413 52.6839 75.2044 53 76 53H79V55.18C78.5806 55.3293 78.1997 55.5701 77.8849 55.8849C77.5701 56.1997 77.3293 56.5806 77.18 57H71C70.7348 57 70.4804 57.1054 70.2929 57.2929C70.1054 57.4804 70 57.7348 70 58C70 58.2652 70.1054 58.5196 70.2929 58.7071C70.4804 58.8946 70.7348 59 71 59H77.18C77.3902 59.5792 77.7736 60.0795 78.2782 60.4332C78.7827 60.7868 79.3839 60.9765 80 60.9765C80.6161 60.9765 81.2173 60.7868 81.7218 60.4332C82.2264 60.0795 82.6098 59.5792 82.82 59H89C89.2652 59 89.5196 58.8946 89.7071 58.7071C89.8946 58.5196 90 58.2652 90 58C90 57.7348 89.8946 57.4804 89.7071 57.2929C89.5196 57.1054 89.2652 57 89 57ZM81 42.41L83.59 45H82C81.7348 45 81.4804 44.8946 81.2929 44.7071C81.1054 44.5196 81 44.2652 81 44V42.41ZM76 51C75.7348 51 75.4804 50.8946 75.2929 50.7071C75.1054 50.5196 75 50.2652 75 50V42C75 41.7348 75.1054 41.4804 75.2929 41.2929C75.4804 41.1054 75.7348 41 76 41H79V44C79 44.7956 79.3161 45.5587 79.8787 46.1213C80.4413 46.6839 81.2044 47 82 47H85V50C85 50.2652 84.8946 50.5196 84.7071 50.7071C84.5196 50.8946 84.2652 51 84 51H76ZM80 59C79.8022 59 79.6089 58.9414 79.4444 58.8315C79.28 58.7216 79.1518 58.5654 79.0761 58.3827C79.0004 58.2 78.9806 57.9989 79.0192 57.8049C79.0578 57.6109 79.153 57.4327 79.2929 57.2929C79.4327 57.153 79.6109 57.0578 79.8049 57.0192C79.9989 56.9806 80.2 57.0004 80.3827 57.0761C80.5654 57.1518 80.7216 57.28 80.8315 57.4444C80.9414 57.6089 81 57.8022 81 58C81 58.2652 80.8946 58.5196 80.7071 58.7071C80.5196 58.8946 80.2652 59 80 59Z" fill="#69CA94"/>
<g filter="url(#filter1_d_318_1541)">
<circle cx="144.5" cy="154.5" r="80.5" fill="white"/>
<circle cx="144.5" cy="154.5" r="80" stroke="white"/>
</g>
<path fill-rule="evenodd" clip-rule="evenodd" d="M144.5 233.991C188.407 233.991 224 198.398 224 154.491C224 144.765 222.253 135.447 219.057 126.833C216.654 120.358 209.316 117.826 204.362 122.637V122.637C200.85 126.047 197.492 129.308 190.422 129.308C179.727 129.308 173.278 126.13 167.199 123.133C159.513 119.345 152.417 115.848 138.081 119.432C113.315 125.624 108.733 120.17 103.773 114.266C100.822 110.753 97.736 107.08 90.1831 105.606V105.606C84.7062 104.538 79.6619 108.141 76.738 112.894C69.2937 124.995 65 139.242 65 154.491C65 198.398 100.593 233.991 144.5 233.991Z" fill="url(#paint0_linear_318_1541)"/>
<path opacity="0.59" fill-rule="evenodd" clip-rule="evenodd" d="M144.5 233.992C100.593 233.992 65 198.398 65 154.492C65 142.06 67.8533 130.295 72.9408 119.816C74.1169 117.393 76.9158 116.116 79.3177 117.334C81.044 118.209 82.4088 119.236 83.7485 120.244C86.8632 122.587 89.8421 124.828 96.9118 124.828C104.809 124.828 110.354 122.783 115.387 120.928C125.684 117.131 133.836 114.125 155.606 131.038C156.031 131.368 156.523 131.659 157.022 131.861C179.769 141.065 185.547 128.171 190.42 117.297C192.807 111.97 194.976 107.129 198.817 105.606C200.604 104.898 202.352 104.551 204.053 104.506C205.583 104.465 206.973 105.295 207.897 106.515C218.004 119.849 224 136.47 224 154.492C224 198.398 188.407 233.992 144.5 233.992Z" fill="url(#paint1_linear_318_1541)"/>
<g style="mix-blend-mode:hard-light" opacity="0.2" filter="url(#filter2_d_318_1541)">
<ellipse cx="144.5" cy="154.5" rx="79" ry="79.5" fill="url(#paint2_linear_318_1541)"/>
<path d="M223 154.5C223 198.133 187.851 233.5 144.5 233.5C101.149 233.5 66 198.133 66 154.5C66 110.867 101.149 75.5 144.5 75.5C187.851 75.5 223 110.867 223 154.5Z" stroke="white"/>
</g>
<path d="M134.7 153.24C133.324 153.24 132.156 152.88 131.196 152.16C130.252 151.424 129.532 150.408 129.036 149.112C128.54 147.8 128.292 146.296 128.292 144.6C128.292 142.888 128.54 141.384 129.036 140.088C129.532 138.792 130.252 137.784 131.196 137.064C132.156 136.328 133.324 135.96 134.7 135.96C136.076 135.96 137.236 136.328 138.18 137.064C139.14 137.784 139.868 138.792 140.364 140.088C140.86 141.384 141.108 142.888 141.108 144.6C141.108 146.296 140.86 147.8 140.364 149.112C139.868 150.408 139.14 151.424 138.18 152.16C137.236 152.88 136.076 153.24 134.7 153.24ZM134.7 150.36C135.372 150.36 135.948 150.152 136.428 149.736C136.924 149.304 137.308 148.664 137.58 147.816C137.852 146.952 137.988 145.88 137.988 144.6C137.988 143.304 137.852 142.232 137.58 141.384C137.308 140.536 136.924 139.904 136.428 139.488C135.948 139.056 135.372 138.84 134.7 138.84C134.044 138.84 133.468 139.056 132.972 139.488C132.476 139.904 132.092 140.536 131.82 141.384C131.548 142.232 131.412 143.304 131.412 144.6C131.412 145.88 131.548 146.952 131.82 147.816C132.092 148.664 132.476 149.304 132.972 149.736C133.468 150.152 134.044 150.36 134.7 150.36ZM146.73 145.32C145.962 145.32 145.282 145.112 144.69 144.696C144.098 144.28 143.634 143.72 143.298 143.016C142.962 142.312 142.794 141.528 142.794 140.664C142.794 139.784 142.962 138.992 143.298 138.288C143.634 137.584 144.098 137.024 144.69 136.608C145.282 136.192 145.962 135.984 146.73 135.984C147.514 135.984 148.194 136.192 148.77 136.608C149.362 137.024 149.818 137.584 150.138 138.288C150.474 138.992 150.642 139.784 150.642 140.664C150.642 141.528 150.466 142.312 150.114 143.016C149.762 143.72 149.29 144.28 148.698 144.696C148.122 145.112 147.466 145.32 146.73 145.32ZM146.73 143.184C147.21 143.184 147.578 142.944 147.834 142.464C148.106 141.984 148.242 141.384 148.242 140.664C148.242 139.944 148.114 139.344 147.858 138.864C147.602 138.384 147.226 138.144 146.73 138.144C146.25 138.144 145.874 138.384 145.602 138.864C145.33 139.344 145.194 139.944 145.194 140.664C145.194 141.384 145.322 141.984 145.578 142.464C145.85 142.944 146.234 143.184 146.73 143.184ZM157.026 153.24C156.29 153.24 155.626 153.032 155.034 152.616C154.442 152.2 153.97 151.64 153.618 150.936C153.266 150.232 153.09 149.448 153.09 148.584C153.09 147.704 153.258 146.912 153.594 146.208C153.93 145.504 154.394 144.944 154.986 144.528C155.578 144.112 156.258 143.904 157.026 143.904C157.81 143.904 158.49 144.112 159.066 144.528C159.658 144.944 160.114 145.504 160.434 146.208C160.77 146.912 160.938 147.704 160.938 148.584C160.938 149.448 160.762 150.232 160.41 150.936C160.058 151.64 159.586 152.2 158.994 152.616C158.418 153.032 157.762 153.24 157.026 153.24ZM157.026 151.104C157.506 151.104 157.874 150.864 158.13 150.384C158.402 149.904 158.538 149.304 158.538 148.584C158.538 147.864 158.41 147.264 158.154 146.784C157.898 146.304 157.522 146.064 157.026 146.064C156.546 146.064 156.17 146.304 155.898 146.784C155.626 147.264 155.49 147.864 155.49 148.584C155.49 149.304 155.618 149.904 155.874 150.384C156.146 150.864 156.53 151.104 157.026 151.104ZM147.018 153.048C146.762 153.048 146.49 152.944 146.202 152.736C145.914 152.512 145.77 152.224 145.77 151.872C145.77 151.664 145.85 151.424 146.01 151.152L155.562 136.728C155.85 136.344 156.178 136.152 156.546 136.152C156.818 136.152 157.09 136.256 157.362 136.464C157.65 136.672 157.794 136.96 157.794 137.328C157.794 137.536 157.714 137.776 157.554 138.048L148.002 152.472C147.714 152.856 147.386 153.048 147.018 153.048Z" fill="#19191F"/>
<path d="M116.686 174.12C116.126 174.12 115.622 174.052 115.174 173.916C114.726 173.772 114.298 173.524 113.89 173.172C113.786 173.084 113.706 172.984 113.65 172.872C113.594 172.76 113.566 172.648 113.566 172.536C113.566 172.352 113.63 172.192 113.758 172.056C113.894 171.912 114.062 171.84 114.262 171.84C114.414 171.84 114.55 171.888 114.67 171.984C114.974 172.232 115.274 172.42 115.57 172.548C115.874 172.676 116.246 172.74 116.686 172.74C116.982 172.74 117.254 172.696 117.502 172.608C117.75 172.512 117.95 172.388 118.102 172.236C118.254 172.076 118.33 171.896 118.33 171.696C118.33 171.456 118.258 171.252 118.114 171.084C117.97 170.916 117.75 170.776 117.454 170.664C117.158 170.544 116.782 170.452 116.326 170.388C115.894 170.324 115.514 170.228 115.186 170.1C114.858 169.964 114.582 169.796 114.358 169.596C114.142 169.388 113.978 169.148 113.866 168.876C113.754 168.596 113.698 168.284 113.698 167.94C113.698 167.42 113.83 166.976 114.094 166.608C114.366 166.24 114.73 165.96 115.186 165.768C115.642 165.576 116.146 165.48 116.698 165.48C117.218 165.48 117.698 165.56 118.138 165.72C118.586 165.872 118.95 166.068 119.23 166.308C119.462 166.492 119.578 166.704 119.578 166.944C119.578 167.12 119.51 167.28 119.374 167.424C119.238 167.568 119.078 167.64 118.894 167.64C118.774 167.64 118.666 167.604 118.57 167.532C118.442 167.42 118.27 167.316 118.054 167.22C117.838 167.116 117.61 167.032 117.37 166.968C117.13 166.896 116.906 166.86 116.698 166.86C116.354 166.86 116.062 166.904 115.822 166.992C115.59 167.08 115.414 167.2 115.294 167.352C115.174 167.504 115.114 167.68 115.114 167.88C115.114 168.12 115.182 168.32 115.318 168.48C115.462 168.632 115.666 168.756 115.93 168.852C116.194 168.94 116.51 169.02 116.878 169.092C117.358 169.18 117.778 169.284 118.138 169.404C118.506 169.524 118.81 169.68 119.05 169.872C119.29 170.056 119.47 170.292 119.59 170.58C119.71 170.86 119.77 171.204 119.77 171.612C119.77 172.132 119.626 172.58 119.338 172.956C119.05 173.332 118.67 173.62 118.198 173.82C117.734 174.02 117.23 174.12 116.686 174.12ZM123.882 167.46C124.338 167.46 124.734 167.508 125.07 167.604C125.414 167.7 125.678 167.836 125.862 168.012C126.054 168.18 126.15 168.384 126.15 168.624C126.15 168.784 126.102 168.936 126.006 169.08C125.91 169.216 125.77 169.284 125.586 169.284C125.458 169.284 125.35 169.268 125.262 169.236C125.182 169.196 125.11 169.148 125.046 169.092C124.982 169.036 124.906 168.984 124.818 168.936C124.738 168.888 124.614 168.852 124.446 168.828C124.286 168.796 124.166 168.78 124.086 168.78C123.678 168.78 123.33 168.868 123.042 169.044C122.762 169.22 122.546 169.46 122.394 169.764C122.242 170.06 122.166 170.404 122.166 170.796C122.166 171.18 122.242 171.524 122.394 171.828C122.554 172.124 122.77 172.36 123.042 172.536C123.322 172.712 123.642 172.8 124.002 172.8C124.202 172.8 124.374 172.788 124.518 172.764C124.662 172.74 124.782 172.704 124.878 172.656C124.99 172.592 125.09 172.524 125.178 172.452C125.266 172.38 125.398 172.344 125.574 172.344C125.782 172.344 125.942 172.412 126.054 172.548C126.166 172.676 126.222 172.836 126.222 173.028C126.222 173.228 126.11 173.412 125.886 173.58C125.662 173.74 125.366 173.872 124.998 173.976C124.638 174.072 124.246 174.12 123.822 174.12C123.19 174.12 122.642 173.976 122.178 173.688C121.714 173.392 121.354 172.992 121.098 172.488C120.85 171.984 120.726 171.42 120.726 170.796C120.726 170.14 120.858 169.564 121.122 169.068C121.394 168.564 121.766 168.172 122.238 167.892C122.718 167.604 123.266 167.46 123.882 167.46ZM132.516 167.46C132.724 167.46 132.896 167.528 133.032 167.664C133.168 167.8 133.236 167.976 133.236 168.192V173.268C133.236 173.476 133.168 173.652 133.032 173.796C132.896 173.932 132.724 174 132.516 174C132.308 174 132.136 173.932 132 173.796C131.864 173.652 131.796 173.476 131.796 173.268V172.68L132.06 172.788C132.06 172.892 132.004 173.02 131.892 173.172C131.78 173.316 131.628 173.46 131.436 173.604C131.244 173.748 131.016 173.872 130.752 173.976C130.496 174.072 130.216 174.12 129.912 174.12C129.36 174.12 128.86 173.98 128.412 173.7C127.964 173.412 127.608 173.02 127.344 172.524C127.088 172.02 126.96 171.444 126.96 170.796C126.96 170.14 127.088 169.564 127.344 169.068C127.608 168.564 127.96 168.172 128.4 167.892C128.84 167.604 129.328 167.46 129.864 167.46C130.208 167.46 130.524 167.512 130.812 167.616C131.1 167.72 131.348 167.852 131.556 168.012C131.772 168.172 131.936 168.336 132.048 168.504C132.168 168.664 132.228 168.8 132.228 168.912L131.796 169.068V168.192C131.796 167.984 131.864 167.812 132 167.676C132.136 167.532 132.308 167.46 132.516 167.46ZM130.092 172.8C130.444 172.8 130.752 172.712 131.016 172.536C131.28 172.36 131.484 172.12 131.628 171.816C131.78 171.512 131.856 171.172 131.856 170.796C131.856 170.412 131.78 170.068 131.628 169.764C131.484 169.46 131.28 169.22 131.016 169.044C130.752 168.868 130.444 168.78 130.092 168.78C129.748 168.78 129.444 168.868 129.18 169.044C128.916 169.22 128.708 169.46 128.556 169.764C128.412 170.068 128.34 170.412 128.34 170.796C128.34 171.172 128.412 171.512 128.556 171.816C128.708 172.12 128.916 172.36 129.18 172.536C129.444 172.712 129.748 172.8 130.092 172.8ZM138.228 167.46C138.82 167.46 139.268 167.584 139.572 167.832C139.884 168.08 140.096 168.412 140.208 168.828C140.328 169.236 140.388 169.692 140.388 170.196V173.268C140.388 173.476 140.32 173.652 140.184 173.796C140.048 173.932 139.876 174 139.668 174C139.46 174 139.288 173.932 139.152 173.796C139.016 173.652 138.948 173.476 138.948 173.268V170.196C138.948 169.932 138.912 169.696 138.84 169.488C138.776 169.272 138.656 169.1 138.48 168.972C138.304 168.844 138.052 168.78 137.724 168.78C137.404 168.78 137.132 168.844 136.908 168.972C136.692 169.1 136.524 169.272 136.404 169.488C136.292 169.696 136.236 169.932 136.236 170.196V173.268C136.236 173.476 136.168 173.652 136.032 173.796C135.896 173.932 135.724 174 135.516 174C135.308 174 135.136 173.932 135 173.796C134.864 173.652 134.796 173.476 134.796 173.268V168.312C134.796 168.104 134.864 167.932 135 167.796C135.136 167.652 135.308 167.58 135.516 167.58C135.724 167.58 135.896 167.652 136.032 167.796C136.168 167.932 136.236 168.104 136.236 168.312V168.828L136.056 168.792C136.128 168.656 136.232 168.512 136.368 168.36C136.504 168.2 136.664 168.052 136.848 167.916C137.032 167.78 137.24 167.672 137.472 167.592C137.704 167.504 137.956 167.46 138.228 167.46ZM145.376 167.46C145.968 167.46 146.416 167.584 146.72 167.832C147.032 168.08 147.244 168.412 147.356 168.828C147.476 169.236 147.536 169.692 147.536 170.196V173.268C147.536 173.476 147.468 173.652 147.332 173.796C147.196 173.932 147.024 174 146.816 174C146.608 174 146.436 173.932 146.3 173.796C146.164 173.652 146.096 173.476 146.096 173.268V170.196C146.096 169.932 146.06 169.696 145.988 169.488C145.924 169.272 145.804 169.1 145.628 168.972C145.452 168.844 145.2 168.78 144.872 168.78C144.552 168.78 144.28 168.844 144.056 168.972C143.84 169.1 143.672 169.272 143.552 169.488C143.44 169.696 143.384 169.932 143.384 170.196V173.268C143.384 173.476 143.316 173.652 143.18 173.796C143.044 173.932 142.872 174 142.664 174C142.456 174 142.284 173.932 142.148 173.796C142.012 173.652 141.944 173.476 141.944 173.268V168.312C141.944 168.104 142.012 167.932 142.148 167.796C142.284 167.652 142.456 167.58 142.664 167.58C142.872 167.58 143.044 167.652 143.18 167.796C143.316 167.932 143.384 168.104 143.384 168.312V168.828L143.204 168.792C143.276 168.656 143.38 168.512 143.516 168.36C143.652 168.2 143.812 168.052 143.996 167.916C144.18 167.78 144.388 167.672 144.62 167.592C144.852 167.504 145.104 167.46 145.376 167.46ZM150.449 173.268C150.449 173.476 150.381 173.652 150.245 173.796C150.109 173.932 149.937 174 149.729 174C149.521 174 149.349 173.932 149.213 173.796C149.077 173.652 149.009 173.476 149.009 173.268V168.312C149.009 168.104 149.077 167.932 149.213 167.796C149.349 167.652 149.521 167.58 149.729 167.58C149.937 167.58 150.109 167.652 150.245 167.796C150.381 167.932 150.449 168.104 150.449 168.312V173.268ZM149.717 166.8C149.445 166.8 149.253 166.756 149.141 166.668C149.029 166.58 148.973 166.424 148.973 166.2V165.972C148.973 165.74 149.033 165.584 149.153 165.504C149.281 165.416 149.473 165.372 149.729 165.372C150.009 165.372 150.205 165.416 150.317 165.504C150.429 165.592 150.485 165.748 150.485 165.972V166.2C150.485 166.432 150.425 166.592 150.305 166.68C150.185 166.76 149.989 166.8 149.717 166.8ZM155.36 167.46C155.952 167.46 156.4 167.584 156.704 167.832C157.016 168.08 157.228 168.412 157.34 168.828C157.46 169.236 157.52 169.692 157.52 170.196V173.268C157.52 173.476 157.452 173.652 157.316 173.796C157.18 173.932 157.008 174 156.8 174C156.592 174 156.42 173.932 156.284 173.796C156.148 173.652 156.08 173.476 156.08 173.268V170.196C156.08 169.932 156.044 169.696 155.972 169.488C155.908 169.272 155.788 169.1 155.612 168.972C155.436 168.844 155.184 168.78 154.856 168.78C154.536 168.78 154.264 168.844 154.04 168.972C153.824 169.1 153.656 169.272 153.536 169.488C153.424 169.696 153.368 169.932 153.368 170.196V173.268C153.368 173.476 153.3 173.652 153.164 173.796C153.028 173.932 152.856 174 152.648 174C152.44 174 152.268 173.932 152.132 173.796C151.996 173.652 151.928 173.476 151.928 173.268V168.312C151.928 168.104 151.996 167.932 152.132 167.796C152.268 167.652 152.44 167.58 152.648 167.58C152.856 167.58 153.028 167.652 153.164 167.796C153.3 167.932 153.368 168.104 153.368 168.312V168.828L153.188 168.792C153.26 168.656 153.364 168.512 153.5 168.36C153.636 168.2 153.796 168.052 153.98 167.916C154.164 167.78 154.372 167.672 154.604 167.592C154.836 167.504 155.088 167.46 155.36 167.46ZM161.741 167.46C162.077 167.46 162.385 167.512 162.665 167.616C162.945 167.72 163.185 167.852 163.385 168.012C163.593 168.172 163.753 168.336 163.865 168.504C163.985 168.664 164.045 168.8 164.045 168.912L163.733 169.068V168.192C163.733 167.984 163.801 167.812 163.937 167.676C164.073 167.532 164.245 167.46 164.453 167.46C164.661 167.46 164.833 167.528 164.969 167.664C165.105 167.8 165.173 167.976 165.173 168.192V173.532C165.173 174.228 165.021 174.784 164.717 175.2C164.421 175.624 164.029 175.928 163.541 176.112C163.053 176.304 162.529 176.4 161.969 176.4C161.809 176.4 161.601 176.38 161.345 176.34C161.089 176.3 160.845 176.252 160.613 176.196C160.381 176.14 160.205 176.088 160.085 176.04C159.845 175.936 159.677 175.804 159.581 175.644C159.493 175.492 159.477 175.328 159.533 175.152C159.605 174.92 159.721 174.76 159.881 174.672C160.041 174.592 160.209 174.584 160.385 174.648C160.465 174.672 160.597 174.72 160.781 174.792C160.965 174.864 161.165 174.928 161.381 174.984C161.605 175.048 161.801 175.08 161.969 175.08C162.569 175.08 163.013 174.96 163.301 174.72C163.589 174.48 163.733 174.148 163.733 173.724V172.68L163.877 172.788C163.877 172.892 163.821 173.02 163.709 173.172C163.605 173.316 163.457 173.46 163.265 173.604C163.081 173.748 162.861 173.872 162.605 173.976C162.349 174.072 162.077 174.12 161.789 174.12C161.221 174.12 160.709 173.98 160.253 173.7C159.797 173.412 159.437 173.02 159.173 172.524C158.909 172.02 158.777 171.444 158.777 170.796C158.777 170.14 158.909 169.564 159.173 169.068C159.437 168.564 159.793 168.172 160.241 167.892C160.689 167.604 161.189 167.46 161.741 167.46ZM161.969 168.78C161.609 168.78 161.293 168.868 161.021 169.044C160.749 169.22 160.537 169.46 160.385 169.764C160.233 170.068 160.157 170.412 160.157 170.796C160.157 171.172 160.233 171.512 160.385 171.816C160.537 172.12 160.749 172.36 161.021 172.536C161.293 172.712 161.609 172.8 161.969 172.8C162.337 172.8 162.657 172.712 162.929 172.536C163.201 172.36 163.413 172.12 163.565 171.816C163.717 171.512 163.793 171.172 163.793 170.796C163.793 170.412 163.717 170.068 163.565 169.764C163.413 169.46 163.201 169.22 162.929 169.044C162.657 168.868 162.337 168.78 161.969 168.78ZM167.365 173.988C167.133 173.988 166.953 173.928 166.825 173.808C166.705 173.68 166.645 173.5 166.645 173.268V173.064C166.645 172.832 166.705 172.656 166.825 172.536C166.953 172.408 167.133 172.344 167.365 172.344H167.521C167.753 172.344 167.929 172.408 168.049 172.536C168.177 172.656 168.241 172.832 168.241 173.064V173.268C168.241 173.5 168.177 173.68 168.049 173.808C167.929 173.928 167.753 173.988 167.521 173.988H167.365ZM170.354 173.988C170.122 173.988 169.942 173.928 169.814 173.808C169.694 173.68 169.634 173.5 169.634 173.268V173.064C169.634 172.832 169.694 172.656 169.814 172.536C169.942 172.408 170.122 172.344 170.354 172.344H170.51C170.742 172.344 170.918 172.408 171.038 172.536C171.166 172.656 171.23 172.832 171.23 173.064V173.268C171.23 173.5 171.166 173.68 171.038 173.808C170.918 173.928 170.742 173.988 170.51 173.988H170.354ZM173.342 173.988C173.11 173.988 172.93 173.928 172.802 173.808C172.682 173.68 172.622 173.5 172.622 173.268V173.064C172.622 172.832 172.682 172.656 172.802 172.536C172.93 172.408 173.11 172.344 173.342 172.344H173.498C173.73 172.344 173.906 172.408 174.026 172.536C174.154 172.656 174.218 172.832 174.218 173.064V173.268C174.218 173.5 174.154 173.68 174.026 173.808C173.906 173.928 173.73 173.988 173.498 173.988H173.342ZM109.435 182.484L106.843 188.58C106.787 188.732 106.699 188.852 106.579 188.94C106.467 189.02 106.343 189.06 106.207 189.06C105.991 189.06 105.831 189 105.727 188.88C105.623 188.76 105.571 188.612 105.571 188.436C105.571 188.364 105.583 188.288 105.607 188.208L108.595 181.032C108.659 180.872 108.755 180.748 108.883 180.66C109.019 180.572 109.163 180.536 109.315 180.552C109.459 180.552 109.591 180.596 109.711 180.684C109.839 180.764 109.931 180.88 109.987 181.032L112.939 188.064C112.979 188.168 112.999 188.264 112.999 188.352C112.999 188.568 112.927 188.74 112.783 188.868C112.647 188.996 112.495 189.06 112.327 189.06C112.183 189.06 112.051 189.016 111.931 188.928C111.819 188.84 111.731 188.72 111.667 188.568L109.087 182.556L109.435 182.484ZM107.215 187.116L107.875 185.736H111.115L111.343 187.116H107.215ZM115.455 188.268C115.455 188.476 115.383 188.652 115.239 188.796C115.103 188.932 114.931 189 114.723 189C114.523 189 114.355 188.932 114.219 188.796C114.083 188.652 114.015 188.476 114.015 188.268V180.852C114.015 180.644 114.083 180.472 114.219 180.336C114.363 180.192 114.539 180.12 114.747 180.12C114.955 180.12 115.123 180.192 115.251 180.336C115.387 180.472 115.455 180.644 115.455 180.852V188.268ZM120.502 182.46C121.142 182.46 121.614 182.616 121.918 182.928C122.222 183.232 122.422 183.628 122.518 184.116L122.314 184.008L122.41 183.816C122.506 183.632 122.654 183.436 122.854 183.228C123.054 183.012 123.294 182.832 123.574 182.688C123.862 182.536 124.182 182.46 124.534 182.46C125.11 182.46 125.546 182.584 125.842 182.832C126.146 183.08 126.354 183.412 126.466 183.828C126.578 184.236 126.634 184.692 126.634 185.196V188.268C126.634 188.476 126.566 188.652 126.43 188.796C126.294 188.932 126.122 189 125.914 189C125.706 189 125.534 188.932 125.398 188.796C125.262 188.652 125.194 188.476 125.194 188.268V185.196C125.194 184.932 125.162 184.696 125.098 184.488C125.034 184.272 124.918 184.1 124.75 183.972C124.582 183.844 124.342 183.78 124.03 183.78C123.726 183.78 123.466 183.844 123.25 183.972C123.034 184.1 122.87 184.272 122.758 184.488C122.654 184.696 122.602 184.932 122.602 185.196V188.268C122.602 188.476 122.534 188.652 122.398 188.796C122.262 188.932 122.09 189 121.882 189C121.674 189 121.502 188.932 121.366 188.796C121.23 188.652 121.162 188.476 121.162 188.268V185.196C121.162 184.932 121.13 184.696 121.066 184.488C121.002 184.272 120.886 184.1 120.718 183.972C120.55 183.844 120.31 183.78 119.998 183.78C119.694 183.78 119.434 183.844 119.218 183.972C119.002 184.1 118.838 184.272 118.726 184.488C118.622 184.696 118.57 184.932 118.57 185.196V188.268C118.57 188.476 118.502 188.652 118.366 188.796C118.23 188.932 118.058 189 117.85 189C117.642 189 117.47 188.932 117.334 188.796C117.198 188.652 117.13 188.476 117.13 188.268V183.312C117.13 183.104 117.198 182.932 117.334 182.796C117.47 182.652 117.642 182.58 117.85 182.58C118.058 182.58 118.23 182.652 118.366 182.796C118.502 182.932 118.57 183.104 118.57 183.312V183.828L118.39 183.792C118.462 183.656 118.562 183.512 118.69 183.36C118.818 183.2 118.974 183.052 119.158 182.916C119.342 182.78 119.546 182.672 119.77 182.592C119.994 182.504 120.238 182.46 120.502 182.46ZM134.42 185.796C134.42 186.452 134.272 187.032 133.976 187.536C133.688 188.032 133.296 188.42 132.8 188.7C132.312 188.98 131.764 189.12 131.156 189.12C130.548 189.12 129.996 188.98 129.5 188.7C129.012 188.42 128.62 188.032 128.324 187.536C128.036 187.032 127.892 186.452 127.892 185.796C127.892 185.14 128.036 184.564 128.324 184.068C128.62 183.564 129.012 183.172 129.5 182.892C129.996 182.604 130.548 182.46 131.156 182.46C131.764 182.46 132.312 182.604 132.8 182.892C133.296 183.172 133.688 183.564 133.976 184.068C134.272 184.564 134.42 185.14 134.42 185.796ZM132.98 185.796C132.98 185.388 132.896 185.036 132.728 184.74C132.568 184.436 132.348 184.2 132.068 184.032C131.796 183.864 131.492 183.78 131.156 183.78C130.82 183.78 130.512 183.864 130.232 184.032C129.96 184.2 129.74 184.436 129.572 184.74C129.412 185.036 129.332 185.388 129.332 185.796C129.332 186.196 129.412 186.548 129.572 186.852C129.74 187.148 129.96 187.38 130.232 187.548C130.512 187.716 130.82 187.8 131.156 187.8C131.492 187.8 131.796 187.716 132.068 187.548C132.348 187.38 132.568 187.148 132.728 186.852C132.896 186.548 132.98 186.196 132.98 185.796ZM135.308 188.004C135.228 187.892 135.192 187.748 135.2 187.572C135.208 187.396 135.312 187.244 135.512 187.116C135.64 187.036 135.776 187.004 135.92 187.02C136.064 187.028 136.204 187.1 136.34 187.236C136.572 187.468 136.816 187.648 137.072 187.776C137.328 187.904 137.648 187.968 138.032 187.968C138.152 187.96 138.284 187.944 138.428 187.92C138.572 187.888 138.696 187.824 138.8 187.728C138.912 187.624 138.968 187.468 138.968 187.26C138.968 187.084 138.908 186.944 138.788 186.84C138.668 186.736 138.508 186.648 138.308 186.576C138.116 186.504 137.9 186.436 137.66 186.372C137.412 186.3 137.156 186.22 136.892 186.132C136.636 186.044 136.4 185.932 136.184 185.796C135.968 185.652 135.792 185.464 135.656 185.232C135.52 185 135.452 184.708 135.452 184.356C135.452 183.956 135.564 183.616 135.788 183.336C136.012 183.056 136.3 182.84 136.652 182.688C137.012 182.536 137.388 182.46 137.78 182.46C138.028 182.46 138.288 182.492 138.56 182.556C138.832 182.612 139.092 182.708 139.34 182.844C139.588 182.972 139.796 183.144 139.964 183.36C140.052 183.48 140.104 183.624 140.12 183.792C140.136 183.96 140.06 184.112 139.892 184.248C139.772 184.344 139.632 184.388 139.472 184.38C139.312 184.364 139.18 184.308 139.076 184.212C138.94 184.036 138.756 183.896 138.524 183.792C138.3 183.688 138.04 183.636 137.744 183.636C137.624 183.636 137.492 183.652 137.348 183.684C137.212 183.708 137.092 183.768 136.988 183.864C136.884 183.952 136.832 184.096 136.832 184.296C136.832 184.48 136.892 184.628 137.012 184.74C137.132 184.844 137.292 184.932 137.492 185.004C137.7 185.068 137.92 185.132 138.152 185.196C138.392 185.26 138.636 185.336 138.884 185.424C139.132 185.512 139.36 185.628 139.568 185.772C139.776 185.916 139.944 186.104 140.072 186.336C140.2 186.56 140.264 186.848 140.264 187.2C140.264 187.608 140.144 187.956 139.904 188.244C139.664 188.532 139.364 188.752 139.004 188.904C138.644 189.048 138.276 189.12 137.9 189.12C137.428 189.12 136.956 189.04 136.484 188.88C136.012 188.712 135.62 188.42 135.308 188.004ZM141.541 182.7H144.385C144.577 182.7 144.737 182.764 144.865 182.892C144.993 183.02 145.057 183.18 145.057 183.372C145.057 183.556 144.993 183.712 144.865 183.84C144.737 183.96 144.577 184.02 144.385 184.02H141.541C141.349 184.02 141.189 183.956 141.061 183.828C140.933 183.7 140.869 183.54 140.869 183.348C140.869 183.164 140.933 183.012 141.061 182.892C141.189 182.764 141.349 182.7 141.541 182.7ZM142.825 181.2C143.033 181.2 143.201 181.272 143.329 181.416C143.465 181.552 143.533 181.724 143.533 181.932V187.272C143.533 187.384 143.553 187.476 143.593 187.548C143.641 187.62 143.701 187.672 143.773 187.704C143.853 187.736 143.937 187.752 144.025 187.752C144.121 187.752 144.209 187.736 144.289 187.704C144.369 187.664 144.461 187.644 144.565 187.644C144.677 187.644 144.777 187.696 144.865 187.8C144.961 187.904 145.009 188.048 145.009 188.232C145.009 188.456 144.885 188.64 144.637 188.784C144.397 188.928 144.137 189 143.857 189C143.689 189 143.501 188.988 143.293 188.964C143.093 188.932 142.901 188.864 142.717 188.76C142.541 188.648 142.393 188.48 142.273 188.256C142.153 188.032 142.093 187.724 142.093 187.332V181.932C142.093 181.724 142.161 181.552 142.297 181.416C142.441 181.272 142.617 181.2 142.825 181.2ZM153.463 180.6C154.039 180.6 154.551 180.708 154.999 180.924C155.447 181.14 155.823 181.444 156.127 181.836C156.439 182.22 156.671 182.668 156.823 183.18C156.983 183.684 157.063 184.224 157.063 184.8C157.063 185.576 156.923 186.284 156.643 186.924C156.363 187.556 155.955 188.06 155.419 188.436C154.891 188.812 154.239 189 153.463 189H150.595C150.387 189 150.211 188.932 150.067 188.796C149.931 188.652 149.863 188.476 149.863 188.268V181.332C149.863 181.124 149.931 180.952 150.067 180.816C150.211 180.672 150.387 180.6 150.595 180.6H153.463ZM153.343 187.62C153.847 187.62 154.259 187.492 154.579 187.236C154.899 186.972 155.131 186.628 155.275 186.204C155.427 185.772 155.503 185.304 155.503 184.8C155.503 184.424 155.459 184.068 155.371 183.732C155.291 183.388 155.163 183.088 154.987 182.832C154.811 182.568 154.587 182.36 154.315 182.208C154.043 182.056 153.719 181.98 153.343 181.98H151.243L151.363 181.872V187.752L151.291 187.62H153.343ZM164.643 185.796C164.643 186.452 164.495 187.032 164.199 187.536C163.911 188.032 163.519 188.42 163.023 188.7C162.535 188.98 161.987 189.12 161.379 189.12C160.771 189.12 160.219 188.98 159.723 188.7C159.235 188.42 158.843 188.032 158.547 187.536C158.259 187.032 158.115 186.452 158.115 185.796C158.115 185.14 158.259 184.564 158.547 184.068C158.843 183.564 159.235 183.172 159.723 182.892C160.219 182.604 160.771 182.46 161.379 182.46C161.987 182.46 162.535 182.604 163.023 182.892C163.519 183.172 163.911 183.564 164.199 184.068C164.495 184.564 164.643 185.14 164.643 185.796ZM163.203 185.796C163.203 185.388 163.119 185.036 162.951 184.74C162.791 184.436 162.571 184.2 162.291 184.032C162.019 183.864 161.715 183.78 161.379 183.78C161.043 183.78 160.735 183.864 160.455 184.032C160.183 184.2 159.963 184.436 159.795 184.74C159.635 185.036 159.555 185.388 159.555 185.796C159.555 186.196 159.635 186.548 159.795 186.852C159.963 187.148 160.183 187.38 160.455 187.548C160.735 187.716 161.043 187.8 161.379 187.8C161.715 187.8 162.019 187.716 162.291 187.548C162.571 187.38 162.791 187.148 162.951 186.852C163.119 186.548 163.203 186.196 163.203 185.796ZM169.335 182.46C169.927 182.46 170.375 182.584 170.679 182.832C170.991 183.08 171.203 183.412 171.315 183.828C171.435 184.236 171.495 184.692 171.495 185.196V188.268C171.495 188.476 171.427 188.652 171.291 188.796C171.155 188.932 170.983 189 170.775 189C170.567 189 170.395 188.932 170.259 188.796C170.123 188.652 170.055 188.476 170.055 188.268V185.196C170.055 184.932 170.019 184.696 169.947 184.488C169.883 184.272 169.763 184.1 169.587 183.972C169.411 183.844 169.159 183.78 168.831 183.78C168.511 183.78 168.239 183.844 168.015 183.972C167.799 184.1 167.631 184.272 167.511 184.488C167.399 184.696 167.343 184.932 167.343 185.196V188.268C167.343 188.476 167.275 188.652 167.139 188.796C167.003 188.932 166.831 189 166.623 189C166.415 189 166.243 188.932 166.107 188.796C165.971 188.652 165.903 188.476 165.903 188.268V183.312C165.903 183.104 165.971 182.932 166.107 182.796C166.243 182.652 166.415 182.58 166.623 182.58C166.831 182.58 167.003 182.652 167.139 182.796C167.275 182.932 167.343 183.104 167.343 183.312V183.828L167.163 183.792C167.235 183.656 167.339 183.512 167.475 183.36C167.611 183.2 167.771 183.052 167.955 182.916C168.139 182.78 168.347 182.672 168.579 182.592C168.811 182.504 169.063 182.46 169.335 182.46ZM176.075 189.12C175.395 189.12 174.803 188.98 174.299 188.7C173.803 188.412 173.419 188.024 173.147 187.536C172.883 187.048 172.751 186.496 172.751 185.88C172.751 185.16 172.895 184.548 173.183 184.044C173.479 183.532 173.863 183.14 174.335 182.868C174.807 182.596 175.307 182.46 175.835 182.46C176.243 182.46 176.627 182.544 176.987 182.712C177.355 182.88 177.679 183.112 177.959 183.408C178.239 183.696 178.459 184.032 178.619 184.416C178.787 184.8 178.871 185.208 178.871 185.64C178.863 185.832 178.787 185.988 178.643 186.108C178.499 186.228 178.331 186.288 178.139 186.288H173.555L173.195 185.088H177.599L177.335 185.328V185.004C177.319 184.772 177.235 184.564 177.083 184.38C176.939 184.196 176.755 184.052 176.531 183.948C176.315 183.836 176.083 183.78 175.835 183.78C175.595 183.78 175.371 183.812 175.163 183.876C174.955 183.94 174.775 184.048 174.623 184.2C174.471 184.352 174.351 184.556 174.263 184.812C174.175 185.068 174.131 185.392 174.131 185.784C174.131 186.216 174.219 186.584 174.395 186.888C174.579 187.184 174.811 187.412 175.091 187.572C175.379 187.724 175.683 187.8 176.003 187.8C176.299 187.8 176.535 187.776 176.711 187.728C176.887 187.68 177.027 187.624 177.131 187.56C177.243 187.488 177.343 187.428 177.431 187.38C177.575 187.308 177.711 187.272 177.839 187.272C178.015 187.272 178.159 187.332 178.271 187.452C178.391 187.572 178.451 187.712 178.451 187.872C178.451 188.088 178.339 188.284 178.115 188.46C177.907 188.636 177.615 188.792 177.239 188.928C176.863 189.056 176.475 189.12 176.075 189.12ZM180.958 186.348C180.686 186.348 180.538 186.196 180.514 185.892L180.166 181.476C180.15 181.228 180.214 181.02 180.358 180.852C180.51 180.684 180.706 180.6 180.946 180.6C181.186 180.6 181.382 180.684 181.534 180.852C181.686 181.02 181.75 181.228 181.726 181.476L181.39 185.892C181.366 186.196 181.222 186.348 180.958 186.348ZM180.874 189C180.642 189 180.462 188.94 180.334 188.82C180.214 188.692 180.154 188.512 180.154 188.28V188.076C180.154 187.844 180.214 187.668 180.334 187.548C180.462 187.42 180.642 187.356 180.874 187.356H181.03C181.262 187.356 181.438 187.42 181.558 187.548C181.686 187.668 181.75 187.844 181.75 188.076V188.28C181.75 188.512 181.686 188.692 181.558 188.82C181.438 188.94 181.262 189 181.03 189H180.874Z" fill="white"/>
<path d="M132.122 270.392C132.318 270.392 132.5 270.471 132.668 270.63C132.836 270.798 132.92 270.989 132.92 271.204C132.92 271.419 132.822 271.619 132.626 271.806C132.439 272.002 132.197 272.175 131.898 272.324C131.599 272.473 131.287 272.59 130.96 272.674C130.643 272.758 130.353 272.8 130.092 272.8C129.513 272.8 129.051 272.744 128.706 272.632C128.361 272.529 128.076 272.408 127.852 272.268C127.628 272.137 127.418 272.016 127.222 271.904C127.026 271.801 126.788 271.75 126.508 271.75C126.331 271.75 126.186 271.778 126.074 271.834C125.971 271.899 125.855 271.96 125.724 272.016C125.603 272.081 125.43 272.114 125.206 272.114C124.973 272.114 124.777 272.025 124.618 271.848C124.459 271.671 124.38 271.479 124.38 271.274C124.38 270.91 124.543 270.667 124.87 270.546L127.768 269.468L129.028 269.776L126.312 270.784L127.11 270.322C127.437 270.322 127.721 270.369 127.964 270.462C128.216 270.565 128.454 270.677 128.678 270.798C128.902 270.919 129.131 271.027 129.364 271.12C129.607 271.223 129.882 271.274 130.19 271.274C130.442 271.274 130.652 271.232 130.82 271.148C130.997 271.064 131.151 270.971 131.282 270.868C131.441 270.747 131.581 270.635 131.702 270.532C131.833 270.439 131.973 270.392 132.122 270.392ZM132.066 265.1C132.066 265.8 131.949 266.453 131.716 267.06C131.483 267.667 131.151 268.203 130.722 268.67C130.302 269.127 129.798 269.487 129.21 269.748C128.631 270.009 127.997 270.14 127.306 270.14C126.615 270.14 125.981 270.009 125.402 269.748C124.823 269.487 124.319 269.127 123.89 268.67C123.47 268.203 123.143 267.667 122.91 267.06C122.677 266.453 122.56 265.8 122.56 265.1C122.56 264.4 122.677 263.747 122.91 263.14C123.143 262.533 123.47 262.001 123.89 261.544C124.319 261.077 124.823 260.713 125.402 260.452C125.981 260.191 126.615 260.06 127.306 260.06C127.997 260.06 128.631 260.191 129.21 260.452C129.798 260.713 130.302 261.077 130.722 261.544C131.151 262.001 131.483 262.533 131.716 263.14C131.949 263.747 132.066 264.4 132.066 265.1ZM130.246 265.1C130.246 264.475 130.12 263.91 129.868 263.406C129.616 262.893 129.271 262.487 128.832 262.188C128.393 261.889 127.885 261.74 127.306 261.74C126.727 261.74 126.219 261.889 125.78 262.188C125.341 262.487 124.996 262.888 124.744 263.392C124.501 263.896 124.38 264.465 124.38 265.1C124.38 265.725 124.501 266.295 124.744 266.808C124.996 267.312 125.341 267.713 125.78 268.012C126.219 268.311 126.727 268.46 127.306 268.46C127.885 268.46 128.393 268.311 128.832 268.012C129.271 267.713 129.616 267.312 129.868 266.808C130.12 266.295 130.246 265.725 130.246 265.1ZM139.036 262.51C139.279 262.51 139.48 262.594 139.638 262.762C139.797 262.921 139.876 263.121 139.876 263.364V266.92C139.876 267.909 139.601 268.693 139.05 269.272C138.5 269.851 137.706 270.14 136.67 270.14C135.634 270.14 134.841 269.851 134.29 269.272C133.749 268.693 133.478 267.909 133.478 266.92V263.364C133.478 263.121 133.558 262.921 133.716 262.762C133.875 262.594 134.076 262.51 134.318 262.51C134.561 262.51 134.762 262.594 134.92 262.762C135.079 262.921 135.158 263.121 135.158 263.364V266.92C135.158 267.489 135.284 267.914 135.536 268.194C135.788 268.465 136.166 268.6 136.67 268.6C137.184 268.6 137.566 268.465 137.818 268.194C138.07 267.914 138.196 267.489 138.196 266.92V263.364C138.196 263.121 138.276 262.921 138.434 262.762C138.593 262.594 138.794 262.51 139.036 262.51ZM143.277 269.146C143.277 269.389 143.198 269.594 143.039 269.762C142.88 269.921 142.68 270 142.437 270C142.194 270 141.994 269.921 141.835 269.762C141.676 269.594 141.597 269.389 141.597 269.146V263.364C141.597 263.121 141.676 262.921 141.835 262.762C141.994 262.594 142.194 262.51 142.437 262.51C142.68 262.51 142.88 262.594 143.039 262.762C143.198 262.921 143.277 263.121 143.277 263.364V269.146ZM142.423 261.6C142.106 261.6 141.882 261.549 141.751 261.446C141.62 261.343 141.555 261.161 141.555 260.9V260.634C141.555 260.363 141.625 260.181 141.765 260.088C141.914 259.985 142.138 259.934 142.437 259.934C142.764 259.934 142.992 259.985 143.123 260.088C143.254 260.191 143.319 260.373 143.319 260.634V260.9C143.319 261.171 143.249 261.357 143.109 261.46C142.969 261.553 142.74 261.6 142.423 261.6ZM148.336 262.37C148.868 262.37 149.33 262.426 149.722 262.538C150.123 262.65 150.431 262.809 150.646 263.014C150.87 263.21 150.982 263.448 150.982 263.728C150.982 263.915 150.926 264.092 150.814 264.26C150.702 264.419 150.538 264.498 150.324 264.498C150.174 264.498 150.048 264.479 149.946 264.442C149.852 264.395 149.768 264.339 149.694 264.274C149.619 264.209 149.53 264.148 149.428 264.092C149.334 264.036 149.19 263.994 148.994 263.966C148.807 263.929 148.667 263.91 148.574 263.91C148.098 263.91 147.692 264.013 147.356 264.218C147.029 264.423 146.777 264.703 146.6 265.058C146.422 265.403 146.334 265.805 146.334 266.262C146.334 266.71 146.422 267.111 146.6 267.466C146.786 267.811 147.038 268.087 147.356 268.292C147.682 268.497 148.056 268.6 148.476 268.6C148.709 268.6 148.91 268.586 149.078 268.558C149.246 268.53 149.386 268.488 149.498 268.432C149.628 268.357 149.745 268.278 149.848 268.194C149.95 268.11 150.104 268.068 150.31 268.068C150.552 268.068 150.739 268.147 150.87 268.306C151 268.455 151.066 268.642 151.066 268.866C151.066 269.099 150.935 269.314 150.674 269.51C150.412 269.697 150.067 269.851 149.638 269.972C149.218 270.084 148.76 270.14 148.266 270.14C147.528 270.14 146.889 269.972 146.348 269.636C145.806 269.291 145.386 268.824 145.088 268.236C144.798 267.648 144.654 266.99 144.654 266.262C144.654 265.497 144.808 264.825 145.116 264.246C145.433 263.658 145.867 263.201 146.418 262.874C146.978 262.538 147.617 262.37 148.336 262.37ZM153.257 270C153.015 270 152.814 269.921 152.655 269.762C152.497 269.594 152.417 269.389 152.417 269.146V260.494C152.417 260.251 152.497 260.051 152.655 259.892C152.814 259.724 153.015 259.64 153.257 259.64C153.5 259.64 153.701 259.724 153.859 259.892C154.018 260.051 154.097 260.251 154.097 260.494V269.146C154.097 269.389 154.018 269.594 153.859 269.762C153.701 269.921 153.5 270 153.257 270ZM157.709 262.51C157.924 262.51 158.111 262.599 158.269 262.776C158.428 262.953 158.507 263.126 158.507 263.294C158.507 263.518 158.395 263.728 158.171 263.924L153.957 267.802L153.887 265.87L157.093 262.776C157.271 262.599 157.476 262.51 157.709 262.51ZM157.919 269.986C157.677 269.986 157.471 269.893 157.303 269.706L154.713 266.962L155.987 265.786L158.507 268.53C158.685 268.717 158.773 268.927 158.773 269.16C158.773 269.403 158.675 269.603 158.479 269.762C158.293 269.911 158.106 269.986 157.919 269.986ZM167.462 270.14C166.808 270.14 166.22 270.061 165.698 269.902C165.175 269.734 164.676 269.445 164.2 269.034C164.078 268.931 163.985 268.815 163.92 268.684C163.854 268.553 163.822 268.423 163.822 268.292C163.822 268.077 163.896 267.891 164.046 267.732C164.204 267.564 164.4 267.48 164.634 267.48C164.811 267.48 164.97 267.536 165.11 267.648C165.464 267.937 165.814 268.157 166.16 268.306C166.514 268.455 166.948 268.53 167.462 268.53C167.807 268.53 168.124 268.479 168.414 268.376C168.703 268.264 168.936 268.119 169.114 267.942C169.291 267.755 169.38 267.545 169.38 267.312C169.38 267.032 169.296 266.794 169.128 266.598C168.96 266.402 168.703 266.239 168.358 266.108C168.012 265.968 167.574 265.861 167.042 265.786C166.538 265.711 166.094 265.599 165.712 265.45C165.329 265.291 165.007 265.095 164.746 264.862C164.494 264.619 164.302 264.339 164.172 264.022C164.041 263.695 163.976 263.331 163.976 262.93C163.976 262.323 164.13 261.805 164.438 261.376C164.755 260.947 165.18 260.62 165.712 260.396C166.244 260.172 166.832 260.06 167.476 260.06C168.082 260.06 168.642 260.153 169.156 260.34C169.678 260.517 170.103 260.746 170.43 261.026C170.7 261.241 170.836 261.488 170.836 261.768C170.836 261.973 170.756 262.16 170.598 262.328C170.439 262.496 170.252 262.58 170.038 262.58C169.898 262.58 169.772 262.538 169.66 262.454C169.51 262.323 169.31 262.202 169.058 262.09C168.806 261.969 168.54 261.871 168.26 261.796C167.98 261.712 167.718 261.67 167.476 261.67C167.074 261.67 166.734 261.721 166.454 261.824C166.183 261.927 165.978 262.067 165.838 262.244C165.698 262.421 165.628 262.627 165.628 262.86C165.628 263.14 165.707 263.373 165.866 263.56C166.034 263.737 166.272 263.882 166.58 263.994C166.888 264.097 167.256 264.19 167.686 264.274C168.246 264.377 168.736 264.498 169.156 264.638C169.585 264.778 169.94 264.96 170.22 265.184C170.5 265.399 170.71 265.674 170.85 266.01C170.99 266.337 171.06 266.738 171.06 267.214C171.06 267.821 170.892 268.343 170.556 268.782C170.22 269.221 169.776 269.557 169.226 269.79C168.684 270.023 168.096 270.14 167.462 270.14ZM175.857 262.37C176.389 262.37 176.851 262.426 177.243 262.538C177.645 262.65 177.953 262.809 178.167 263.014C178.391 263.21 178.503 263.448 178.503 263.728C178.503 263.915 178.447 264.092 178.335 264.26C178.223 264.419 178.06 264.498 177.845 264.498C177.696 264.498 177.57 264.479 177.467 264.442C177.374 264.395 177.29 264.339 177.215 264.274C177.141 264.209 177.052 264.148 176.949 264.092C176.856 264.036 176.711 263.994 176.515 263.966C176.329 263.929 176.189 263.91 176.095 263.91C175.619 263.91 175.213 264.013 174.877 264.218C174.551 264.423 174.299 264.703 174.121 265.058C173.944 265.403 173.855 265.805 173.855 266.262C173.855 266.71 173.944 267.111 174.121 267.466C174.308 267.811 174.56 268.087 174.877 268.292C175.204 268.497 175.577 268.6 175.997 268.6C176.231 268.6 176.431 268.586 176.599 268.558C176.767 268.53 176.907 268.488 177.019 268.432C177.15 268.357 177.267 268.278 177.369 268.194C177.472 268.11 177.626 268.068 177.831 268.068C178.074 268.068 178.261 268.147 178.391 268.306C178.522 268.455 178.587 268.642 178.587 268.866C178.587 269.099 178.457 269.314 178.195 269.51C177.934 269.697 177.589 269.851 177.159 269.972C176.739 270.084 176.282 270.14 175.787 270.14C175.05 270.14 174.411 269.972 173.869 269.636C173.328 269.291 172.908 268.824 172.609 268.236C172.32 267.648 172.175 266.99 172.175 266.262C172.175 265.497 172.329 264.825 172.637 264.246C172.955 263.658 173.389 263.201 173.939 262.874C174.499 262.538 175.139 262.37 175.857 262.37ZM185.931 262.37C186.173 262.37 186.374 262.449 186.533 262.608C186.691 262.767 186.771 262.972 186.771 263.224V269.146C186.771 269.389 186.691 269.594 186.533 269.762C186.374 269.921 186.173 270 185.931 270C185.688 270 185.487 269.921 185.329 269.762C185.17 269.594 185.091 269.389 185.091 269.146V268.46L185.399 268.586C185.399 268.707 185.333 268.857 185.203 269.034C185.072 269.202 184.895 269.37 184.671 269.538C184.447 269.706 184.181 269.851 183.873 269.972C183.574 270.084 183.247 270.14 182.893 270.14C182.249 270.14 181.665 269.977 181.143 269.65C180.62 269.314 180.205 268.857 179.897 268.278C179.598 267.69 179.449 267.018 179.449 266.262C179.449 265.497 179.598 264.825 179.897 264.246C180.205 263.658 180.615 263.201 181.129 262.874C181.642 262.538 182.211 262.37 182.837 262.37C183.238 262.37 183.607 262.431 183.943 262.552C184.279 262.673 184.568 262.827 184.811 263.014C185.063 263.201 185.254 263.392 185.385 263.588C185.525 263.775 185.595 263.933 185.595 264.064L185.091 264.246V263.224C185.091 262.981 185.17 262.781 185.329 262.622C185.487 262.454 185.688 262.37 185.931 262.37ZM183.103 268.6C183.513 268.6 183.873 268.497 184.181 268.292C184.489 268.087 184.727 267.807 184.895 267.452C185.072 267.097 185.161 266.701 185.161 266.262C185.161 265.814 185.072 265.413 184.895 265.058C184.727 264.703 184.489 264.423 184.181 264.218C183.873 264.013 183.513 263.91 183.103 263.91C182.701 263.91 182.347 264.013 182.039 264.218C181.731 264.423 181.488 264.703 181.311 265.058C181.143 265.413 181.059 265.814 181.059 266.262C181.059 266.701 181.143 267.097 181.311 267.452C181.488 267.807 181.731 268.087 182.039 268.292C182.347 268.497 182.701 268.6 183.103 268.6ZM192.594 262.37C193.284 262.37 193.807 262.515 194.162 262.804C194.526 263.093 194.773 263.481 194.904 263.966C195.044 264.442 195.114 264.974 195.114 265.562V269.146C195.114 269.389 195.034 269.594 194.876 269.762C194.717 269.921 194.516 270 194.274 270C194.031 270 193.83 269.921 193.672 269.762C193.513 269.594 193.434 269.389 193.434 269.146V265.562C193.434 265.254 193.392 264.979 193.308 264.736C193.233 264.484 193.093 264.283 192.888 264.134C192.682 263.985 192.388 263.91 192.006 263.91C191.632 263.91 191.315 263.985 191.054 264.134C190.802 264.283 190.606 264.484 190.466 264.736C190.335 264.979 190.27 265.254 190.27 265.562V269.146C190.27 269.389 190.19 269.594 190.032 269.762C189.873 269.921 189.672 270 189.43 270C189.187 270 188.986 269.921 188.828 269.762C188.669 269.594 188.59 269.389 188.59 269.146V263.364C188.59 263.121 188.669 262.921 188.828 262.762C188.986 262.594 189.187 262.51 189.43 262.51C189.672 262.51 189.873 262.594 190.032 262.762C190.19 262.921 190.27 263.121 190.27 263.364V263.966L190.06 263.924C190.144 263.765 190.265 263.597 190.424 263.42C190.582 263.233 190.769 263.061 190.984 262.902C191.198 262.743 191.441 262.617 191.712 262.524C191.982 262.421 192.276 262.37 192.594 262.37Z" fill="#19191F"/>
<path d="M110.89 262.55C110.807 262.385 110.68 262.246 110.523 262.149C110.366 262.052 110.185 262.001 110 262H105V256C105.011 255.781 104.949 255.564 104.824 255.383C104.7 255.203 104.519 255.068 104.31 255C104.109 254.934 103.893 254.933 103.691 254.998C103.49 255.063 103.315 255.189 103.19 255.36L95.19 266.36C95.0898 266.505 95.0296 266.674 95.0155 266.849C95.0015 267.025 95.0341 267.201 95.11 267.36C95.1799 267.542 95.3014 267.699 95.4595 267.813C95.6176 267.927 95.8055 267.992 96 268H101V274C101 274.211 101.067 274.416 101.191 274.587C101.315 274.758 101.49 274.885 101.69 274.95C101.79 274.981 101.895 274.998 102 275C102.158 275 102.313 274.964 102.454 274.892C102.595 274.821 102.717 274.717 102.81 274.59L110.81 263.59C110.918 263.441 110.982 263.265 110.996 263.081C111.01 262.898 110.974 262.714 110.89 262.55V262.55ZM103 270.92V267C103 266.735 102.895 266.48 102.707 266.293C102.52 266.105 102.265 266 102 266H98L103 259.08V263C103 263.265 103.105 263.52 103.293 263.707C103.48 263.895 103.735 264 104 264H108L103 270.92Z" fill="#FFAF37"/>
<defs>
<filter id="filter0_d_318_1541" x="0.315101" y="0.526041" width="287.37" height="349.37" filterUnits="userSpaceOnUse" color-interpolation-filters="sRGB">
<feFlood flood-opacity="0" result="BackgroundImageFix"/>
<feColorMatrix in="SourceAlpha" type="matrix" values="0 0 0 0 0 0 0 0 0 0 0 0 0 0 0 0 0 0 127 0" result="hardAlpha"/>
<feMorphology radius="6.73698" operator="erode" in="SourceAlpha" result="effect1_dropShadow_318_1541"/>
<feOffset dy="20.2109"/>
<feGaussianBlur stdDeviation="20.2109"/>
<feComposite in2="hardAlpha" operator="out"/>
<feColorMatrix type="matrix" values="0 0 0 0 0.152941 0 0 0 0 0.221961 0 0 0 0 0.466667 0 0 0 0.16 0"/>
<feBlend mode="normal" in2="BackgroundImageFix" result="effect1_dropShadow_318_1541"/>
<feBlend mode="normal" in="SourceGraphic" in2="effect1_dropShadow_318_1541" result="shape"/>
</filter>
<filter id="filter1_d_318_1541" x="30.3151" y="60.526" width="228.37" height="228.37" filterUnits="userSpaceOnUse" color-interpolation-filters="sRGB">
<feFlood flood-opacity="0" result="BackgroundImageFix"/>
<feColorMatrix in="SourceAlpha" type="matrix" values="0 0 0 0 0 0 0 0 0 0 0 0 0 0 0 0 0 0 127 0" result="hardAlpha"/>
<feMorphology radius="6.73698" operator="erode" in="SourceAlpha" result="effect1_dropShadow_318_1541"/>
<feOffset dy="20.2109"/>
<feGaussianBlur stdDeviation="20.2109"/>
<feComposite in2="hardAlpha" operator="out"/>
<feColorMatrix type="matrix" values="0 0 0 0 0.152941 0 0 0 0 0.221961 0 0 0 0 0.466667 0 0 0 0.16 0"/>
<feBlend mode="normal" in2="BackgroundImageFix" result="effect1_dropShadow_318_1541"/>
<feBlend mode="normal" in="SourceGraphic" in2="effect1_dropShadow_318_1541" result="shape"/>
</filter>
<filter id="filter2_d_318_1541" x="31.8151" y="61.526" width="225.37" height="226.37" filterUnits="userSpaceOnUse" color-interpolation-filters="sRGB">
<feFlood flood-opacity="0" result="BackgroundImageFix"/>
<feColorMatrix in="SourceAlpha" type="matrix" values="0 0 0 0 0 0 0 0 0 0 0 0 0 0 0 0 0 0 127 0" result="hardAlpha"/>
<feMorphology radius="6.73698" operator="erode" in="SourceAlpha" result="effect1_dropShadow_318_1541"/>
<feOffset dy="20.2109"/>
<feGaussianBlur stdDeviation="20.2109"/>
<feComposite in2="hardAlpha" operator="out"/>
<feColorMatrix type="matrix" values="0 0 0 0 0.152941 0 0 0 0 0.221961 0 0 0 0 0.466667 0 0 0 0.16 0"/>
<feBlend mode="normal" in2="BackgroundImageFix" result="effect1_dropShadow_318_1541"/>
<feBlend mode="normal" in="SourceGraphic" in2="effect1_dropShadow_318_1541" result="shape"/>
</filter>
<linearGradient id="paint0_linear_318_1541" x1="144.5" y1="105.417" x2="144.5" y2="233.991" gradientUnits="userSpaceOnUse">
<stop stop-color="#AFDFA7"/>
<stop offset="1" stop-color="#69CA94"/>
</linearGradient>
<linearGradient id="paint1_linear_318_1541" x1="144.5" y1="104.505" x2="144.5" y2="233.992" gradientUnits="userSpaceOnUse">
<stop stop-color="#CAF2C4"/>
<stop offset="1" stop-color="#296142"/>
</linearGradient>
<linearGradient id="paint2_linear_318_1541" x1="144.5" y1="75" x2="144.5" y2="234" gradientUnits="userSpaceOnUse">
<stop stop-color="#F8F8FB"/>
<stop offset="1" stop-color="#F8F8FB"/>
</linearGradient>
</defs>
</svg>
