<svg width="46" height="46" viewBox="0 0 46 46" fill="none" xmlns="http://www.w3.org/2000/svg">
<path d="M27.8605 41.1395C37.8787 38.4552 43.8239 28.1577 41.1395 18.1395C38.4552 8.12135 28.1577 2.17611 18.1395 4.86047C8.12135 7.54484 2.17611 17.8423 4.86047 27.8605C7.54484 37.8787 17.8423 43.8239 27.8605 41.1395Z" fill="#7465F1"/>
<path d="M25.514 32.3825C30.6958 30.9941 33.7709 25.6678 32.3825 20.486C30.994 15.3042 25.6677 12.229 20.4859 13.6175C15.3041 15.006 12.229 20.3322 13.6174 25.514C15.0059 30.6959 20.3322 33.771 25.514 32.3825Z" fill="white"/>
<path d="M26.53 27.4174C29.2936 26.6769 30.9337 23.8362 30.1932 21.0726C29.4527 18.309 26.612 16.6689 23.8484 17.4094C21.0847 18.1499 19.4447 20.9906 20.1852 23.7543C20.9257 26.5179 23.7664 28.158 26.53 27.4174Z" fill="#292929"/>
<path d="M40.9719 17.514L4.69287 27.235C3.63217 22.4673 4.43859 17.4788 6.94391 13.3101C9.44924 9.14137 13.46 6.11435 18.1395 4.86048C22.8191 3.6066 27.806 4.2227 32.06 6.58026C36.3141 8.93783 39.5067 12.8548 40.9719 17.514V17.514Z" fill="#3D36A8"/>
</svg>
