<svg width="125" height="48" viewBox="0 0 125 48" fill="none" xmlns="http://www.w3.org/2000/svg">
<path d="M43.454 15.362C43.6967 15.362 43.8973 15.4413 44.056 15.6C44.224 15.7493 44.308 15.9453 44.308 16.188C44.308 16.4213 44.224 16.6173 44.056 16.776C43.8973 16.9253 43.6967 17 43.454 17H38.904C38.6613 17 38.456 16.9207 38.288 16.762C38.1293 16.594 38.05 16.3887 38.05 16.146V8.054C38.05 7.81133 38.134 7.61067 38.302 7.452C38.47 7.284 38.6847 7.2 38.946 7.2C39.1793 7.2 39.38 7.284 39.548 7.452C39.716 7.61067 39.8 7.81133 39.8 8.054V15.362H43.454ZM52.9986 11.708C53.2413 11.708 53.4419 11.792 53.6006 11.96C53.7593 12.1187 53.8386 12.3193 53.8386 12.562V15.53C53.8386 15.8567 53.6939 16.1087 53.4046 16.286C52.4899 16.8553 51.4866 17.14 50.3946 17.14C49.4706 17.14 48.6166 16.916 47.8326 16.468C47.0486 16.0107 46.4279 15.3993 45.9706 14.634C45.5133 13.8593 45.2846 13.0147 45.2846 12.1C45.2846 11.1853 45.5133 10.3453 45.9706 9.58C46.4279 8.80533 47.0486 8.194 47.8326 7.746C48.6166 7.28867 49.4706 7.06 50.3946 7.06C51.3186 7.06 52.1213 7.24667 52.8026 7.62C52.9426 7.69467 53.0453 7.79267 53.1106 7.914C53.1853 8.03533 53.2226 8.166 53.2226 8.306C53.2226 8.53933 53.1433 8.74467 52.9846 8.922C52.8353 9.09 52.6486 9.174 52.4246 9.174C52.2846 9.174 52.1306 9.13667 51.9626 9.062C51.4586 8.84733 50.9359 8.74 50.3946 8.74C49.7973 8.74 49.2466 8.894 48.7426 9.202C48.2386 9.50067 47.8373 9.90667 47.5386 10.42C47.2493 10.9333 47.1046 11.4933 47.1046 12.1C47.1046 12.7067 47.2493 13.2667 47.5386 13.78C47.8373 14.2933 48.2386 14.704 48.7426 15.012C49.2466 15.3107 49.7973 15.46 50.3946 15.46C50.6559 15.46 50.9359 15.4367 51.2346 15.39C51.5333 15.3433 51.7946 15.2827 52.0186 15.208V13.388H50.7026C50.4599 13.388 50.2546 13.3087 50.0866 13.15C49.9279 12.9913 49.8486 12.7907 49.8486 12.548C49.8486 12.3053 49.9279 12.1047 50.0866 11.946C50.2546 11.7873 50.4599 11.708 50.7026 11.708H52.9986ZM59.5687 7.2C60.0447 7.2 60.4973 7.34467 60.9267 7.634C61.356 7.914 61.7013 8.29667 61.9627 8.782C62.224 9.258 62.3547 9.78067 62.3547 10.35C62.3547 10.91 62.224 11.4327 61.9627 11.918C61.7013 12.4033 61.356 12.7907 60.9267 13.08C60.4973 13.36 60.0447 13.5 59.5687 13.5H57.1327V16.146C57.1327 16.398 57.058 16.6033 56.9087 16.762C56.7593 16.9207 56.5633 17 56.3207 17C56.0873 17 55.896 16.9207 55.7467 16.762C55.5973 16.594 55.5227 16.3887 55.5227 16.146V8.054C55.5227 7.81133 55.602 7.61067 55.7607 7.452C55.9287 7.284 56.134 7.2 56.3767 7.2H59.5687ZM59.5687 11.904C59.746 11.904 59.9187 11.8293 60.0867 11.68C60.264 11.5307 60.404 11.3393 60.5067 11.106C60.6187 10.8633 60.6747 10.6113 60.6747 10.35C60.6747 10.0887 60.6187 9.84133 60.5067 9.608C60.404 9.36533 60.264 9.174 60.0867 9.034C59.9187 8.88467 59.746 8.81 59.5687 8.81H57.1327V11.904H59.5687ZM68.1582 7.2C69.0355 7.2 69.7869 7.41933 70.4122 7.858C71.0469 8.28733 71.5275 8.87533 71.8542 9.622C72.1902 10.3593 72.3582 11.1853 72.3582 12.1C72.3582 13.0147 72.1902 13.8453 71.8542 14.592C71.5275 15.3293 71.0469 15.9173 70.4122 16.356C69.7869 16.7853 69.0355 17 68.1582 17H64.8122C64.5695 17 64.3642 16.9207 64.1962 16.762C64.0375 16.594 63.9582 16.3887 63.9582 16.146V8.054C63.9582 7.81133 64.0375 7.61067 64.1962 7.452C64.3642 7.284 64.5695 7.2 64.8122 7.2H68.1582ZM68.0182 15.39C68.8582 15.39 69.4882 15.082 69.9082 14.466C70.3282 13.8407 70.5382 13.052 70.5382 12.1C70.5382 11.148 70.3235 10.364 69.8942 9.748C69.4742 9.12267 68.8489 8.81 68.0182 8.81H65.7082V15.39H68.0182ZM80.9278 19.548C80.7878 19.548 80.6618 19.5107 80.5498 19.436C79.4858 18.7267 78.6692 17.8493 78.0998 16.804C77.5398 15.7493 77.2598 14.606 77.2598 13.374C77.2598 12.142 77.5398 11.0033 78.0998 9.958C78.6692 8.90333 79.4858 8.02133 80.5498 7.312C80.6618 7.23733 80.7878 7.2 80.9278 7.2C81.1332 7.2 81.3012 7.27933 81.4318 7.438C81.5625 7.59667 81.6278 7.76 81.6278 7.928C81.6278 8.14267 81.5298 8.32933 81.3338 8.488C80.5405 9.104 79.9432 9.832 79.5418 10.672C79.1498 11.512 78.9538 12.4127 78.9538 13.374C78.9538 14.354 79.1498 15.2733 79.5418 16.132C79.9338 16.9813 80.5312 17.6907 81.3338 18.26C81.5298 18.4 81.6278 18.5867 81.6278 18.82C81.6278 18.9973 81.5578 19.1607 81.4178 19.31C81.2778 19.4687 81.1145 19.548 80.9278 19.548ZM88.7738 11.568C89.2684 11.764 89.6698 12.0627 89.9778 12.464C90.2951 12.8653 90.4538 13.3833 90.4538 14.018C90.4538 15.1287 90.1364 15.9033 89.5018 16.342C88.8671 16.7807 88.1111 17 87.2338 17H83.7478C83.5051 17 83.2998 16.9207 83.1318 16.762C82.9731 16.594 82.8938 16.3887 82.8938 16.146V8.054C82.8938 7.81133 82.9731 7.61067 83.1318 7.452C83.2998 7.284 83.5051 7.2 83.7478 7.2H87.2758C89.0491 7.2 89.9358 8.03067 89.9358 9.692C89.9358 10.112 89.8331 10.4853 89.6278 10.812C89.4318 11.1293 89.1471 11.3813 88.7738 11.568ZM88.1158 10C88.1158 9.61733 88.0178 9.33267 87.8218 9.146C87.6351 8.95 87.3691 8.852 87.0238 8.852H84.7138V11.036H87.0658C87.3458 11.036 87.5884 10.9427 87.7938 10.756C88.0084 10.5693 88.1158 10.3173 88.1158 10ZM87.2338 15.39C87.6724 15.39 88.0131 15.2733 88.2558 15.04C88.5078 14.8067 88.6338 14.466 88.6338 14.018C88.6338 13.4673 88.4891 13.108 88.1998 12.94C87.9104 12.772 87.5558 12.688 87.1358 12.688H84.7138V15.39H87.2338ZM95.8196 9.37C96.0996 9.37 96.3329 9.44933 96.5196 9.608C96.7156 9.76667 96.8136 9.95333 96.8136 10.168C96.8136 10.4573 96.7389 10.6767 96.5896 10.826C96.4402 10.966 96.2629 11.036 96.0576 11.036C95.9176 11.036 95.7589 11.0033 95.5816 10.938C95.5536 10.9287 95.4882 10.91 95.3856 10.882C95.2922 10.854 95.1896 10.84 95.0776 10.84C94.8349 10.84 94.6016 10.9147 94.3776 11.064C94.1536 11.2133 93.9669 11.442 93.8176 11.75C93.6776 12.0487 93.6076 12.408 93.6076 12.828V16.146C93.6076 16.3887 93.5282 16.594 93.3696 16.762C93.2109 16.9207 93.0102 17 92.7676 17C92.5249 17 92.3242 16.9207 92.1656 16.762C92.0069 16.594 91.9276 16.3887 91.9276 16.146V10.364C91.9276 10.1213 92.0069 9.92067 92.1656 9.762C92.3242 9.594 92.5249 9.51 92.7676 9.51C93.0102 9.51 93.2109 9.594 93.3696 9.762C93.5282 9.92067 93.6076 10.1213 93.6076 10.364V10.546C93.8222 10.1633 94.1302 9.874 94.5316 9.678C94.9329 9.47267 95.3622 9.37 95.8196 9.37ZM103.896 9.37C104.138 9.37 104.339 9.44933 104.498 9.608C104.656 9.76667 104.736 9.972 104.736 10.224V16.146C104.736 16.3887 104.656 16.594 104.498 16.762C104.339 16.9207 104.138 17 103.896 17C103.653 17 103.452 16.9207 103.294 16.762C103.144 16.6033 103.065 16.4027 103.056 16.16C102.822 16.4307 102.505 16.664 102.104 16.86C101.712 17.0467 101.296 17.14 100.858 17.14C100.214 17.14 99.6305 16.9767 99.1078 16.65C98.5852 16.314 98.1698 15.852 97.8618 15.264C97.5632 14.676 97.4138 14.0087 97.4138 13.262C97.4138 12.5153 97.5632 11.848 97.8618 11.26C98.1605 10.6627 98.5665 10.2007 99.0798 9.874C99.6025 9.538 100.176 9.37 100.802 9.37C101.25 9.37 101.67 9.454 102.062 9.622C102.454 9.78067 102.785 9.986 103.056 10.238V10.224C103.056 9.98133 103.135 9.78067 103.294 9.622C103.452 9.454 103.653 9.37 103.896 9.37ZM101.068 15.6C101.674 15.6 102.169 15.3807 102.552 14.942C102.934 14.494 103.126 13.934 103.126 13.262C103.126 12.59 102.934 12.03 102.552 11.582C102.169 11.134 101.674 10.91 101.068 10.91C100.47 10.91 99.9805 11.134 99.5978 11.582C99.2152 12.03 99.0238 12.59 99.0238 13.262C99.0238 13.934 99.2105 14.494 99.5838 14.942C99.9665 15.3807 100.461 15.6 101.068 15.6ZM111.33 15.46C111.554 15.46 111.741 15.5347 111.89 15.684C112.04 15.824 112.114 16.006 112.114 16.23C112.114 16.4447 112.04 16.6267 111.89 16.776C111.741 16.9253 111.554 17 111.33 17H106.822C106.608 17 106.426 16.9253 106.276 16.776C106.136 16.6173 106.066 16.4493 106.066 16.272C106.066 16.1133 106.085 15.9827 106.122 15.88C106.16 15.768 106.23 15.642 106.332 15.502L109.664 11.19H106.948C106.724 11.19 106.538 11.1153 106.388 10.966C106.239 10.8167 106.164 10.63 106.164 10.406C106.164 10.1913 106.239 10.014 106.388 9.874C106.538 9.72467 106.724 9.65 106.948 9.65H111.26C111.466 9.65 111.638 9.72467 111.778 9.874C111.928 10.014 112.002 10.1913 112.002 10.406C112.002 10.546 111.988 10.6673 111.96 10.77C111.932 10.8633 111.867 10.9753 111.764 11.106L108.404 15.46H111.33ZM114.92 16.146C114.92 16.3887 114.84 16.594 114.682 16.762C114.523 16.9207 114.322 17 114.08 17C113.837 17 113.636 16.9207 113.478 16.762C113.319 16.594 113.24 16.3887 113.24 16.146V10.364C113.24 10.1213 113.319 9.92067 113.478 9.762C113.636 9.594 113.837 9.51 114.08 9.51C114.322 9.51 114.523 9.594 114.682 9.762C114.84 9.92067 114.92 10.1213 114.92 10.364V16.146ZM114.066 8.6C113.748 8.6 113.524 8.54867 113.394 8.446C113.263 8.34333 113.198 8.16133 113.198 7.9V7.634C113.198 7.37267 113.268 7.19067 113.408 7.088C113.548 6.98533 113.772 6.934 114.08 6.934C114.406 6.934 114.635 6.98533 114.766 7.088C114.896 7.19067 114.962 7.37267 114.962 7.634V7.9C114.962 8.17067 114.892 8.35733 114.752 8.46C114.621 8.55333 114.392 8.6 114.066 8.6ZM118.466 16.146C118.466 16.3887 118.382 16.594 118.214 16.762C118.056 16.9207 117.855 17 117.612 17C117.379 17 117.183 16.9207 117.024 16.762C116.866 16.594 116.786 16.3887 116.786 16.146V7.494C116.786 7.25133 116.866 7.05067 117.024 6.892C117.192 6.724 117.398 6.64 117.64 6.64C117.874 6.64 118.07 6.724 118.228 6.892C118.387 7.05067 118.466 7.25133 118.466 7.494V16.146ZM120.42 19.548C120.214 19.548 120.046 19.4687 119.916 19.31C119.785 19.1513 119.72 18.988 119.72 18.82C119.72 18.6053 119.818 18.4187 120.014 18.26C120.807 17.644 121.4 16.916 121.792 16.076C122.193 15.236 122.394 14.3353 122.394 13.374C122.394 12.394 122.198 11.4793 121.806 10.63C121.414 9.77133 120.816 9.05733 120.014 8.488C119.818 8.348 119.72 8.16133 119.72 7.928C119.72 7.75067 119.79 7.58733 119.93 7.438C120.07 7.27933 120.233 7.2 120.42 7.2C120.56 7.2 120.686 7.23733 120.798 7.312C121.862 8.02133 122.674 8.90333 123.234 9.958C123.803 11.0033 124.088 12.142 124.088 13.374C124.088 14.606 123.803 15.7493 123.234 16.804C122.674 17.8493 121.862 18.7267 120.798 19.436C120.686 19.5107 120.56 19.548 120.42 19.548ZM41.2 41.14C40.528 41.14 39.9307 41.056 39.408 40.888C38.8853 40.72 38.3953 40.4353 37.938 40.034C37.686 39.81 37.56 39.5627 37.56 39.292C37.56 39.0773 37.6393 38.8907 37.798 38.732C37.9567 38.564 38.148 38.48 38.372 38.48C38.5493 38.48 38.708 38.536 38.848 38.648C39.2213 38.956 39.5853 39.18 39.94 39.32C40.2947 39.46 40.7147 39.53 41.2 39.53C41.7227 39.53 42.1707 39.4133 42.544 39.18C42.9267 38.9467 43.118 38.6573 43.118 38.312C43.118 37.892 42.9313 37.5653 42.558 37.332C42.1847 37.0893 41.592 36.9073 40.78 36.786C38.736 36.4873 37.714 35.5353 37.714 33.93C37.714 33.342 37.868 32.8333 38.176 32.404C38.484 31.9653 38.904 31.634 39.436 31.41C39.968 31.1767 40.5607 31.06 41.214 31.06C41.802 31.06 42.3527 31.1487 42.866 31.326C43.3887 31.5033 43.8227 31.7367 44.168 32.026C44.4387 32.2407 44.574 32.488 44.574 32.768C44.574 32.9827 44.4947 33.174 44.336 33.342C44.1773 33.5007 43.9907 33.58 43.776 33.58C43.636 33.58 43.51 33.538 43.398 33.454C43.1553 33.258 42.8147 33.0807 42.376 32.922C41.9467 32.754 41.5593 32.67 41.214 32.67C40.626 32.67 40.1687 32.782 39.842 33.006C39.5247 33.2207 39.366 33.5053 39.366 33.86C39.366 34.2613 39.5293 34.5647 39.856 34.77C40.192 34.9753 40.7147 35.1433 41.424 35.274C42.2267 35.414 42.866 35.596 43.342 35.82C43.8273 36.0347 44.1913 36.3333 44.434 36.716C44.6767 37.0893 44.798 37.5887 44.798 38.214C44.798 38.802 44.63 39.32 44.294 39.768C43.9673 40.2067 43.5287 40.5473 42.978 40.79C42.4273 41.0233 41.8347 41.14 41.2 41.14ZM49.5255 33.37C50.3188 33.37 50.9582 33.496 51.4435 33.748C51.9288 33.9907 52.1715 34.3173 52.1715 34.728C52.1715 34.9333 52.1108 35.1153 51.9895 35.274C51.8682 35.4233 51.7095 35.498 51.5135 35.498C51.3642 35.498 51.2428 35.4793 51.1495 35.442C51.0562 35.3953 50.9628 35.3393 50.8695 35.274C50.7855 35.1993 50.7015 35.1387 50.6175 35.092C50.5242 35.0453 50.3842 35.0033 50.1975 34.966C50.0202 34.9287 49.8755 34.91 49.7635 34.91C49.0635 34.91 48.5128 35.1293 48.1115 35.568C47.7195 35.9973 47.5235 36.562 47.5235 37.262C47.5235 37.934 47.7242 38.494 48.1255 38.942C48.5268 39.3807 49.0402 39.6 49.6655 39.6C50.1228 39.6 50.4635 39.544 50.6875 39.432C50.7435 39.404 50.8182 39.3573 50.9115 39.292C51.0142 39.2173 51.1075 39.1613 51.1915 39.124C51.2755 39.0867 51.3782 39.068 51.4995 39.068C51.7328 39.068 51.9148 39.1427 52.0455 39.292C52.1855 39.4413 52.2555 39.6327 52.2555 39.866C52.2555 40.09 52.1248 40.3 51.8635 40.496C51.6022 40.692 51.2568 40.8507 50.8275 40.972C50.3982 41.084 49.9408 41.14 49.4555 41.14C48.7368 41.14 48.1022 40.972 47.5515 40.636C47.0102 40.3 46.5902 39.838 46.2915 39.25C45.9928 38.6527 45.8435 37.99 45.8435 37.262C45.8435 36.506 45.9975 35.834 46.3055 35.246C46.6228 34.658 47.0615 34.2007 47.6215 33.874C48.1815 33.538 48.8162 33.37 49.5255 33.37ZM57.4026 33.37C58.3266 33.37 58.9659 33.6547 59.3206 34.224C59.6753 34.784 59.8526 35.5633 59.8526 36.562V40.146C59.8526 40.3887 59.7733 40.594 59.6146 40.762C59.4559 40.9207 59.2553 41 59.0126 41C58.7699 41 58.5693 40.9207 58.4106 40.762C58.2519 40.594 58.1726 40.3887 58.1726 40.146V36.562C58.1726 36.0487 58.0699 35.6473 57.8646 35.358C57.6686 35.0593 57.3186 34.91 56.8146 34.91C56.2919 34.91 55.8813 35.0687 55.5826 35.386C55.2933 35.694 55.1486 36.086 55.1486 36.562V40.146C55.1486 40.3887 55.0693 40.594 54.9106 40.762C54.7519 40.9207 54.5513 41 54.3086 41C54.0659 41 53.8653 40.9207 53.7066 40.762C53.5479 40.594 53.4686 40.3887 53.4686 40.146V31.494C53.4686 31.2513 53.5479 31.0507 53.7066 30.892C53.8653 30.724 54.0659 30.64 54.3086 30.64C54.5513 30.64 54.7519 30.724 54.9106 30.892C55.0693 31.0507 55.1486 31.2513 55.1486 31.494V34.588C55.4006 34.252 55.7179 33.9673 56.1006 33.734C56.4926 33.4913 56.9266 33.37 57.4026 33.37ZM65.5637 33.37C65.8437 33.37 66.0771 33.4493 66.2637 33.608C66.4597 33.7667 66.5577 33.9533 66.5577 34.168C66.5577 34.4573 66.4831 34.6767 66.3337 34.826C66.1844 34.966 66.0071 35.036 65.8017 35.036C65.6617 35.036 65.5031 35.0033 65.3257 34.938C65.2977 34.9287 65.2324 34.91 65.1297 34.882C65.0364 34.854 64.9337 34.84 64.8217 34.84C64.5791 34.84 64.3457 34.9147 64.1217 35.064C63.8977 35.2133 63.7111 35.442 63.5617 35.75C63.4217 36.0487 63.3517 36.408 63.3517 36.828V40.146C63.3517 40.3887 63.2724 40.594 63.1137 40.762C62.9551 40.9207 62.7544 41 62.5117 41C62.2691 41 62.0684 40.9207 61.9097 40.762C61.7511 40.594 61.6717 40.3887 61.6717 40.146V34.364C61.6717 34.1213 61.7511 33.9207 61.9097 33.762C62.0684 33.594 62.2691 33.51 62.5117 33.51C62.7544 33.51 62.9551 33.594 63.1137 33.762C63.2724 33.9207 63.3517 34.1213 63.3517 34.364V34.546C63.5664 34.1633 63.8744 33.874 64.2757 33.678C64.6771 33.4727 65.1064 33.37 65.5637 33.37ZM74.1476 37.08C74.1382 37.304 74.0496 37.486 73.8816 37.626C73.7136 37.766 73.5176 37.836 73.2936 37.836H68.6736C68.7856 38.3867 69.0422 38.8207 69.4436 39.138C69.8449 39.446 70.2976 39.6 70.8016 39.6C71.1842 39.6 71.4829 39.5673 71.6976 39.502C71.9122 39.4273 72.0802 39.3527 72.2016 39.278C72.3322 39.194 72.4209 39.138 72.4676 39.11C72.6356 39.026 72.7942 38.984 72.9436 38.984C73.1396 38.984 73.3076 39.054 73.4476 39.194C73.5876 39.334 73.6576 39.4973 73.6576 39.684C73.6576 39.936 73.5269 40.1647 73.2656 40.37C73.0042 40.5847 72.6542 40.7667 72.2156 40.916C71.7769 41.0653 71.3336 41.14 70.8856 41.14C70.1016 41.14 69.4156 40.9767 68.8276 40.65C68.2489 40.3233 67.8009 39.8753 67.4836 39.306C67.1662 38.7273 67.0076 38.0787 67.0076 37.36C67.0076 36.5573 67.1756 35.8527 67.5116 35.246C67.8476 34.6393 68.2909 34.1773 68.8416 33.86C69.3922 33.5333 69.9802 33.37 70.6056 33.37C71.2216 33.37 71.8002 33.538 72.3416 33.874C72.8922 34.21 73.3309 34.6627 73.6576 35.232C73.9842 35.8013 74.1476 36.4173 74.1476 37.08ZM70.6056 34.91C69.5229 34.91 68.8836 35.4187 68.6876 36.436H72.3556V36.338C72.3182 35.946 72.1269 35.61 71.7816 35.33C71.4362 35.05 71.0442 34.91 70.6056 34.91ZM84.1867 33.37C85.1107 33.37 85.75 33.6547 86.1047 34.224C86.4593 34.784 86.6367 35.5633 86.6367 36.562V40.146C86.6367 40.3887 86.5573 40.594 86.3987 40.762C86.24 40.9207 86.0393 41 85.7967 41C85.554 41 85.3533 40.9207 85.1947 40.762C85.036 40.594 84.9567 40.3887 84.9567 40.146V36.562C84.9567 36.0487 84.854 35.6473 84.6487 35.358C84.4527 35.0593 84.1027 34.91 83.5987 34.91C83.076 34.91 82.6653 35.0687 82.3667 35.386C82.0773 35.694 81.9327 36.086 81.9327 36.562V40.146C81.9327 40.3887 81.8533 40.594 81.6947 40.762C81.536 40.9207 81.3353 41 81.0927 41C80.85 41 80.6493 40.9207 80.4907 40.762C80.332 40.594 80.2527 40.3887 80.2527 40.146V36.562C80.2527 36.0487 80.15 35.6473 79.9447 35.358C79.7487 35.0593 79.3987 34.91 78.8947 34.91C78.372 34.91 77.9613 35.0687 77.6627 35.386C77.3733 35.694 77.2287 36.086 77.2287 36.562V40.146C77.2287 40.3887 77.1493 40.594 76.9907 40.762C76.832 40.9207 76.6313 41 76.3887 41C76.146 41 75.9453 40.9207 75.7867 40.762C75.628 40.594 75.5487 40.3887 75.5487 40.146V34.364C75.5487 34.1213 75.628 33.9207 75.7867 33.762C75.9453 33.594 76.146 33.51 76.3887 33.51C76.6313 33.51 76.832 33.594 76.9907 33.762C77.1493 33.9207 77.2287 34.1213 77.2287 34.364V34.588C77.4807 34.252 77.798 33.9673 78.1807 33.734C78.5727 33.4913 79.0067 33.37 79.4827 33.37C80.6587 33.37 81.41 33.8833 81.7367 34.91C81.9513 34.518 82.2733 34.1633 82.7027 33.846C83.1413 33.5287 83.636 33.37 84.1867 33.37ZM88.0209 39.838C87.9369 39.726 87.8949 39.586 87.8949 39.418C87.8949 39.1753 88.0163 38.97 88.2589 38.802C88.3896 38.718 88.5249 38.676 88.6649 38.676C88.8609 38.676 89.0476 38.7647 89.2249 38.942C89.5049 39.2313 89.7943 39.446 90.0929 39.586C90.4009 39.726 90.7696 39.796 91.1989 39.796C91.9269 39.768 92.2909 39.4927 92.2909 38.97C92.2909 38.6993 92.1649 38.494 91.9129 38.354C91.6703 38.214 91.2876 38.074 90.7649 37.934C90.2236 37.7847 89.7803 37.6353 89.4349 37.486C89.0989 37.3367 88.8049 37.1127 88.5529 36.814C88.3103 36.506 88.1889 36.0953 88.1889 35.582C88.1889 35.134 88.3149 34.7467 88.5669 34.42C88.8283 34.084 89.1643 33.8273 89.5749 33.65C89.9949 33.4633 90.4383 33.37 90.9049 33.37C91.3809 33.37 91.8569 33.4587 92.3329 33.636C92.8089 33.8133 93.1823 34.0747 93.4529 34.42C93.5743 34.5693 93.6349 34.7373 93.6349 34.924C93.6349 35.1387 93.5463 35.316 93.3689 35.456C93.2383 35.5587 93.0889 35.61 92.9209 35.61C92.7156 35.61 92.5476 35.5447 92.4169 35.414C92.2489 35.2087 92.0296 35.0453 91.7589 34.924C91.4976 34.8027 91.1989 34.742 90.8629 34.742C90.1536 34.742 89.7989 34.9987 89.7989 35.512C89.7989 35.7173 89.8643 35.8853 89.9949 36.016C90.1256 36.1373 90.2889 36.2353 90.4849 36.31C90.6903 36.3753 90.9749 36.4593 91.3389 36.562C91.8429 36.702 92.2629 36.8467 92.5989 36.996C92.9349 37.1453 93.2196 37.374 93.4529 37.682C93.6863 37.99 93.8029 38.396 93.8029 38.9C93.8029 39.3573 93.6676 39.7587 93.3969 40.104C93.1263 40.44 92.7763 40.6967 92.3469 40.874C91.9269 41.0513 91.4929 41.14 91.0449 41.14C90.4289 41.14 89.8549 41.0373 89.3229 40.832C88.7909 40.6267 88.3569 40.2953 88.0209 39.838ZM101.023 40.146C101.023 40.3887 100.934 40.594 100.757 40.762C100.579 40.9207 100.374 41 100.141 41C99.8887 41 99.6787 40.9207 99.5107 40.762C99.352 40.594 99.2727 40.3887 99.2727 40.146V32.054C99.2727 31.8113 99.3567 31.6107 99.5247 31.452C99.6927 31.284 99.9073 31.2 100.169 31.2C100.402 31.2 100.603 31.284 100.771 31.452C100.939 31.6107 101.023 31.8113 101.023 32.054V40.146ZM104.878 40.146C104.878 40.3887 104.789 40.594 104.612 40.762C104.435 40.9207 104.229 41 103.996 41C103.744 41 103.534 40.9207 103.366 40.762C103.207 40.594 103.128 40.3887 103.128 40.146V32.054C103.128 31.8113 103.212 31.6107 103.38 31.452C103.548 31.284 103.763 31.2 104.024 31.2C104.257 31.2 104.458 31.284 104.626 31.452C104.794 31.6107 104.878 31.8113 104.878 32.054V40.146Z" fill="#5B588F"/>
<path d="M12 36C18.6274 36 24 30.6274 24 24C24 17.3726 18.6274 12 12 12C5.37258 12 0 17.3726 0 24C0 30.6274 5.37258 36 12 36Z" fill="#6DA544"/>
<path d="M11.9999 16.6957L21.913 24L11.9999 31.3044L2.08691 24L11.9999 16.6957Z" fill="#FFDA44"/>
<path d="M11.9999 28.1738C14.3051 28.1738 16.1738 26.3051 16.1738 23.9999C16.1738 21.6948 14.3051 19.826 11.9999 19.826C9.69476 19.826 7.82605 21.6948 7.82605 23.9999C7.82605 26.3051 9.69476 28.1738 11.9999 28.1738Z" fill="#F0F0F0"/>
<path d="M9.913 23.7391C9.18719 23.7391 8.48674 23.8495 7.82739 24.0544C7.8566 26.3344 9.71303 28.1739 12 28.1739C13.4141 28.1739 14.663 27.47 15.418 26.3942C14.1263 24.7771 12.1388 23.7391 9.913 23.7391Z" fill="#0052B4"/>
<path d="M16.0965 24.7996C16.1468 24.5407 16.1739 24.2735 16.1739 23.9999C16.1739 21.6947 14.3052 19.826 12 19.826C10.28 19.826 8.80343 20.8667 8.16443 22.3526C8.72927 22.2355 9.31408 22.1739 9.9131 22.1739C12.3373 22.1738 14.5304 23.1815 16.0965 24.7996Z" fill="#0052B4"/>
</svg>
