<svg width="152" height="48" viewBox="0 0 152 48" fill="none" xmlns="http://www.w3.org/2000/svg">
<path d="M43.91 7.676C44.1993 7.82533 44.344 8.06333 44.344 8.39C44.344 8.586 44.274 8.77733 44.134 8.964C43.9847 9.16 43.7933 9.258 43.56 9.258C43.4013 9.258 43.2427 9.216 43.084 9.132C42.6267 8.91733 42.132 8.81 41.6 8.81C40.9467 8.81 40.3773 8.95 39.892 9.23C39.4067 9.50067 39.0333 9.888 38.772 10.392C38.5107 10.8867 38.38 11.456 38.38 12.1C38.38 13.2013 38.674 14.0367 39.262 14.606C39.8593 15.1753 40.6387 15.46 41.6 15.46C42.1693 15.46 42.664 15.3527 43.084 15.138C43.252 15.0633 43.4013 15.026 43.532 15.026C43.7747 15.026 43.98 15.1287 44.148 15.334C44.288 15.5113 44.358 15.7027 44.358 15.908C44.358 16.0573 44.3207 16.1927 44.246 16.314C44.1713 16.4353 44.064 16.5287 43.924 16.594C43.196 16.958 42.4213 17.14 41.6 17.14C40.6853 17.14 39.8453 16.9487 39.08 16.566C38.3147 16.174 37.7033 15.6 37.246 14.844C36.7887 14.088 36.56 13.1733 36.56 12.1C36.56 11.148 36.7747 10.294 37.204 9.538C37.6427 8.782 38.2447 8.194 39.01 7.774C39.7753 7.34467 40.6387 7.13 41.6 7.13C42.4307 7.13 43.2007 7.312 43.91 7.676ZM52.6873 7.676C52.9767 7.82533 53.1213 8.06333 53.1213 8.39C53.1213 8.586 53.0513 8.77733 52.9113 8.964C52.762 9.16 52.5707 9.258 52.3373 9.258C52.1787 9.258 52.02 9.216 51.8613 9.132C51.404 8.91733 50.9093 8.81 50.3773 8.81C49.724 8.81 49.1547 8.95 48.6693 9.23C48.184 9.50067 47.8107 9.888 47.5493 10.392C47.288 10.8867 47.1573 11.456 47.1573 12.1C47.1573 13.2013 47.4513 14.0367 48.0393 14.606C48.6367 15.1753 49.416 15.46 50.3773 15.46C50.9467 15.46 51.4413 15.3527 51.8613 15.138C52.0293 15.0633 52.1787 15.026 52.3093 15.026C52.552 15.026 52.7573 15.1287 52.9253 15.334C53.0653 15.5113 53.1353 15.7027 53.1353 15.908C53.1353 16.0573 53.098 16.1927 53.0233 16.314C52.9487 16.4353 52.8413 16.5287 52.7013 16.594C51.9733 16.958 51.1987 17.14 50.3773 17.14C49.4627 17.14 48.6227 16.9487 47.8573 16.566C47.092 16.174 46.4807 15.6 46.0233 14.844C45.566 14.088 45.3373 13.1733 45.3373 12.1C45.3373 11.148 45.552 10.294 45.9813 9.538C46.42 8.782 47.022 8.194 47.7873 7.774C48.5527 7.34467 49.416 7.13 50.3773 7.13C51.208 7.13 51.978 7.312 52.6873 7.676ZM58.6507 7.2C59.1267 7.2 59.5794 7.34467 60.0087 7.634C60.438 7.914 60.7834 8.29667 61.0447 8.782C61.306 9.258 61.4367 9.78067 61.4367 10.35C61.4367 10.91 61.306 11.4327 61.0447 11.918C60.7834 12.4033 60.438 12.7907 60.0087 13.08C59.5794 13.36 59.1267 13.5 58.6507 13.5H56.2147V16.146C56.2147 16.398 56.14 16.6033 55.9907 16.762C55.8414 16.9207 55.6454 17 55.4027 17C55.1694 17 54.978 16.9207 54.8287 16.762C54.6794 16.594 54.6047 16.3887 54.6047 16.146V8.054C54.6047 7.81133 54.684 7.61067 54.8427 7.452C55.0107 7.284 55.216 7.2 55.4587 7.2H58.6507ZM58.6507 11.904C58.828 11.904 59.0007 11.8293 59.1687 11.68C59.346 11.5307 59.486 11.3393 59.5887 11.106C59.7007 10.8633 59.7567 10.6113 59.7567 10.35C59.7567 10.0887 59.7007 9.84133 59.5887 9.608C59.486 9.36533 59.346 9.174 59.1687 9.034C59.0007 8.88467 58.828 8.81 58.6507 8.81H56.2147V11.904H58.6507ZM70.1657 15.908C70.2124 16.0293 70.2357 16.1413 70.2357 16.244C70.2357 16.4867 70.1564 16.6873 69.9977 16.846C69.839 16.9953 69.657 17.07 69.4517 17.07C69.2837 17.07 69.1297 17.0187 68.9897 16.916C68.859 16.8133 68.7564 16.6733 68.6817 16.496L67.9537 14.802H63.7817L63.0537 16.51C62.9884 16.6873 62.8857 16.8273 62.7457 16.93C62.615 17.0233 62.4704 17.07 62.3117 17.07C62.069 17.07 61.8824 17.0047 61.7517 16.874C61.6304 16.7433 61.5697 16.566 61.5697 16.342C61.5697 16.258 61.5837 16.1693 61.6117 16.076L65.0977 7.704C65.1724 7.51733 65.2844 7.37267 65.4337 7.27C65.583 7.16733 65.751 7.12533 65.9377 7.144C66.1057 7.144 66.2597 7.19533 66.3997 7.298C66.549 7.39133 66.6564 7.52667 66.7217 7.704L70.1657 15.908ZM67.2677 13.192L65.8537 9.916L64.4677 13.192H67.2677ZM78.3829 19.548C78.2429 19.548 78.1169 19.5107 78.0049 19.436C76.9409 18.7267 76.1243 17.8493 75.5549 16.804C74.9949 15.7493 74.7149 14.606 74.7149 13.374C74.7149 12.142 74.9949 11.0033 75.5549 9.958C76.1243 8.90333 76.9409 8.02133 78.0049 7.312C78.1169 7.23733 78.2429 7.2 78.3829 7.2C78.5883 7.2 78.7563 7.27933 78.8869 7.438C79.0176 7.59667 79.0829 7.76 79.0829 7.928C79.0829 8.14267 78.9849 8.32933 78.7889 8.488C77.9956 9.104 77.3983 9.832 76.9969 10.672C76.6049 11.512 76.4089 12.4127 76.4089 13.374C76.4089 14.354 76.6049 15.2733 76.9969 16.132C77.3889 16.9813 77.9863 17.6907 78.7889 18.26C78.9849 18.4 79.0829 18.5867 79.0829 18.82C79.0829 18.9973 79.0129 19.1607 78.8729 19.31C78.7329 19.4687 78.5696 19.548 78.3829 19.548ZM87.2088 7.676C87.4982 7.82533 87.6428 8.06333 87.6428 8.39C87.6428 8.586 87.5728 8.77733 87.4328 8.964C87.2835 9.16 87.0922 9.258 86.8588 9.258C86.7002 9.258 86.5415 9.216 86.3828 9.132C85.9255 8.91733 85.4308 8.81 84.8988 8.81C84.2455 8.81 83.6762 8.95 83.1908 9.23C82.7055 9.50067 82.3322 9.888 82.0708 10.392C81.8095 10.8867 81.6788 11.456 81.6788 12.1C81.6788 13.2013 81.9728 14.0367 82.5608 14.606C83.1582 15.1753 83.9375 15.46 84.8988 15.46C85.4682 15.46 85.9628 15.3527 86.3828 15.138C86.5508 15.0633 86.7002 15.026 86.8308 15.026C87.0735 15.026 87.2788 15.1287 87.4468 15.334C87.5868 15.5113 87.6568 15.7027 87.6568 15.908C87.6568 16.0573 87.6195 16.1927 87.5448 16.314C87.4702 16.4353 87.3628 16.5287 87.2228 16.594C86.4948 16.958 85.7202 17.14 84.8988 17.14C83.9842 17.14 83.1442 16.9487 82.3788 16.566C81.6135 16.174 81.0022 15.6 80.5448 14.844C80.0875 14.088 79.8588 13.1733 79.8588 12.1C79.8588 11.148 80.0735 10.294 80.5028 9.538C80.9415 8.782 81.5435 8.194 82.3088 7.774C83.0742 7.34467 83.9375 7.13 84.8988 7.13C85.7295 7.13 86.4995 7.312 87.2088 7.676ZM95.0482 9.37C95.2908 9.37 95.4915 9.44933 95.6502 9.608C95.8088 9.76667 95.8882 9.972 95.8882 10.224V16.146C95.8882 16.3887 95.8088 16.594 95.6502 16.762C95.4915 16.9207 95.2908 17 95.0482 17C94.8055 17 94.6048 16.9207 94.4462 16.762C94.2968 16.6033 94.2175 16.4027 94.2082 16.16C93.9748 16.4307 93.6575 16.664 93.2562 16.86C92.8642 17.0467 92.4488 17.14 92.0102 17.14C91.3662 17.14 90.7828 16.9767 90.2602 16.65C89.7375 16.314 89.3222 15.852 89.0142 15.264C88.7155 14.676 88.5662 14.0087 88.5662 13.262C88.5662 12.5153 88.7155 11.848 89.0142 11.26C89.3128 10.6627 89.7188 10.2007 90.2322 9.874C90.7548 9.538 91.3288 9.37 91.9542 9.37C92.4022 9.37 92.8222 9.454 93.2142 9.622C93.6062 9.78067 93.9375 9.986 94.2082 10.238V10.224C94.2082 9.98133 94.2875 9.78067 94.4462 9.622C94.6048 9.454 94.8055 9.37 95.0482 9.37ZM92.2202 15.6C92.8268 15.6 93.3215 15.3807 93.7042 14.942C94.0868 14.494 94.2782 13.934 94.2782 13.262C94.2782 12.59 94.0868 12.03 93.7042 11.582C93.3215 11.134 92.8268 10.91 92.2202 10.91C91.6228 10.91 91.1328 11.134 90.7502 11.582C90.3675 12.03 90.1762 12.59 90.1762 13.262C90.1762 13.934 90.3628 14.494 90.7362 14.942C91.1188 15.3807 91.6135 15.6 92.2202 15.6ZM99.5288 16.146C99.5288 16.3887 99.4448 16.594 99.2768 16.762C99.1182 16.9207 98.9175 17 98.6748 17C98.4415 17 98.2455 16.9207 98.0868 16.762C97.9282 16.594 97.8488 16.3887 97.8488 16.146V7.494C97.8488 7.25133 97.9282 7.05067 98.0868 6.892C98.2548 6.724 98.4602 6.64 98.7028 6.64C98.9362 6.64 99.1322 6.724 99.2908 6.892C99.4495 7.05067 99.5288 7.25133 99.5288 7.494V16.146ZM103.064 16.146C103.064 16.3887 102.985 16.594 102.826 16.762C102.668 16.9207 102.467 17 102.224 17C101.982 17 101.781 16.9207 101.622 16.762C101.464 16.594 101.384 16.3887 101.384 16.146V10.364C101.384 10.1213 101.464 9.92067 101.622 9.762C101.781 9.594 101.982 9.51 102.224 9.51C102.467 9.51 102.668 9.594 102.826 9.762C102.985 9.92067 103.064 10.1213 103.064 10.364V16.146ZM102.21 8.6C101.893 8.6 101.669 8.54867 101.538 8.446C101.408 8.34333 101.342 8.16133 101.342 7.9V7.634C101.342 7.37267 101.412 7.19067 101.552 7.088C101.692 6.98533 101.916 6.934 102.224 6.934C102.551 6.934 102.78 6.98533 102.91 7.088C103.041 7.19067 103.106 7.37267 103.106 7.634V7.9C103.106 8.17067 103.036 8.35733 102.896 8.46C102.766 8.55333 102.537 8.6 102.21 8.6ZM108.389 8.124C108.072 8.124 107.848 8.21733 107.717 8.404C107.586 8.58133 107.521 8.77733 107.521 8.992V9.65H108.795C109.019 9.65 109.206 9.72467 109.355 9.874C109.504 10.014 109.579 10.196 109.579 10.42C109.579 10.644 109.504 10.8307 109.355 10.98C109.206 11.12 109.019 11.19 108.795 11.19H107.521V16.146C107.521 16.3887 107.442 16.594 107.283 16.762C107.124 16.9207 106.924 17 106.681 17C106.438 17 106.238 16.9207 106.079 16.762C105.92 16.594 105.841 16.3887 105.841 16.146V11.19H105.085C104.861 11.19 104.674 11.12 104.525 10.98C104.376 10.8307 104.301 10.644 104.301 10.42C104.301 10.196 104.376 10.014 104.525 9.874C104.674 9.72467 104.861 9.65 105.085 9.65H105.841V9.006C105.841 8.306 106.079 7.73667 106.555 7.298C107.04 6.85933 107.736 6.64 108.641 6.64C108.986 6.64 109.285 6.71 109.537 6.85C109.798 6.99 109.929 7.20467 109.929 7.494C109.929 7.718 109.864 7.9 109.733 8.04C109.602 8.18 109.444 8.25 109.257 8.25C109.21 8.25 109.159 8.24533 109.103 8.236C109.056 8.22667 109.005 8.21733 108.949 8.208C108.725 8.152 108.538 8.124 108.389 8.124ZM117.825 13.262C117.825 14.0087 117.657 14.6807 117.321 15.278C116.985 15.866 116.523 16.3233 115.935 16.65C115.356 16.9767 114.717 17.14 114.017 17.14C113.307 17.14 112.663 16.9767 112.085 16.65C111.506 16.3233 111.049 15.866 110.713 15.278C110.377 14.6807 110.209 14.0087 110.209 13.262C110.209 12.5153 110.377 11.848 110.713 11.26C111.049 10.6627 111.506 10.2007 112.085 9.874C112.663 9.538 113.307 9.37 114.017 9.37C114.717 9.37 115.356 9.538 115.935 9.874C116.523 10.2007 116.985 10.6627 117.321 11.26C117.657 11.848 117.825 12.5153 117.825 13.262ZM116.145 13.262C116.145 12.8047 116.047 12.3987 115.851 12.044C115.664 11.68 115.407 11.4 115.081 11.204C114.763 11.008 114.409 10.91 114.017 10.91C113.625 10.91 113.265 11.008 112.939 11.204C112.621 11.4 112.365 11.68 112.169 12.044C111.982 12.3987 111.889 12.8047 111.889 13.262C111.889 13.7193 111.982 14.1253 112.169 14.48C112.365 14.8347 112.621 15.11 112.939 15.306C113.265 15.502 113.625 15.6 114.017 15.6C114.409 15.6 114.763 15.502 115.081 15.306C115.407 15.11 115.664 14.8347 115.851 14.48C116.047 14.1253 116.145 13.7193 116.145 13.262ZM123.12 9.37C123.4 9.37 123.634 9.44933 123.82 9.608C124.016 9.76667 124.114 9.95333 124.114 10.168C124.114 10.4573 124.04 10.6767 123.89 10.826C123.741 10.966 123.564 11.036 123.358 11.036C123.218 11.036 123.06 11.0033 122.882 10.938C122.854 10.9287 122.789 10.91 122.686 10.882C122.593 10.854 122.49 10.84 122.378 10.84C122.136 10.84 121.902 10.9147 121.678 11.064C121.454 11.2133 121.268 11.442 121.118 11.75C120.978 12.0487 120.908 12.408 120.908 12.828V16.146C120.908 16.3887 120.829 16.594 120.67 16.762C120.512 16.9207 120.311 17 120.068 17C119.826 17 119.625 16.9207 119.466 16.762C119.308 16.594 119.228 16.3887 119.228 16.146V10.364C119.228 10.1213 119.308 9.92067 119.466 9.762C119.625 9.594 119.826 9.51 120.068 9.51C120.311 9.51 120.512 9.594 120.67 9.762C120.829 9.92067 120.908 10.1213 120.908 10.364V10.546C121.123 10.1633 121.431 9.874 121.832 9.678C122.234 9.47267 122.663 9.37 123.12 9.37ZM129.303 9.37C130.255 9.37 130.913 9.65467 131.277 10.224C131.641 10.784 131.823 11.5633 131.823 12.562V16.146C131.823 16.3887 131.743 16.594 131.585 16.762C131.426 16.9207 131.225 17 130.983 17C130.74 17 130.539 16.9207 130.381 16.762C130.222 16.594 130.143 16.3887 130.143 16.146V12.562C130.143 12.0487 130.035 11.6473 129.821 11.358C129.606 11.0593 129.237 10.91 128.715 10.91C128.173 10.91 127.749 11.0687 127.441 11.386C127.133 11.694 126.979 12.086 126.979 12.562V16.146C126.979 16.3887 126.899 16.594 126.741 16.762C126.582 16.9207 126.381 17 126.139 17C125.896 17 125.695 16.9207 125.537 16.762C125.378 16.594 125.299 16.3887 125.299 16.146V10.364C125.299 10.1213 125.378 9.92067 125.537 9.762C125.695 9.594 125.896 9.51 126.139 9.51C126.381 9.51 126.582 9.594 126.741 9.762C126.899 9.92067 126.979 10.1213 126.979 10.364V10.602C127.231 10.266 127.557 9.97667 127.959 9.734C128.369 9.49133 128.817 9.37 129.303 9.37ZM135.221 16.146C135.221 16.3887 135.141 16.594 134.983 16.762C134.824 16.9207 134.623 17 134.381 17C134.138 17 133.937 16.9207 133.779 16.762C133.62 16.594 133.541 16.3887 133.541 16.146V10.364C133.541 10.1213 133.62 9.92067 133.779 9.762C133.937 9.594 134.138 9.51 134.381 9.51C134.623 9.51 134.824 9.594 134.983 9.762C135.141 9.92067 135.221 10.1213 135.221 10.364V16.146ZM134.367 8.6C134.049 8.6 133.825 8.54867 133.695 8.446C133.564 8.34333 133.499 8.16133 133.499 7.9V7.634C133.499 7.37267 133.569 7.19067 133.709 7.088C133.849 6.98533 134.073 6.934 134.381 6.934C134.707 6.934 134.936 6.98533 135.067 7.088C135.197 7.19067 135.263 7.37267 135.263 7.634V7.9C135.263 8.17067 135.193 8.35733 135.053 8.46C134.922 8.55333 134.693 8.6 134.367 8.6ZM143.009 9.37C143.252 9.37 143.452 9.44933 143.611 9.608C143.77 9.76667 143.849 9.972 143.849 10.224V16.146C143.849 16.3887 143.77 16.594 143.611 16.762C143.452 16.9207 143.252 17 143.009 17C142.766 17 142.566 16.9207 142.407 16.762C142.258 16.6033 142.178 16.4027 142.169 16.16C141.936 16.4307 141.618 16.664 141.217 16.86C140.825 17.0467 140.41 17.14 139.971 17.14C139.327 17.14 138.744 16.9767 138.221 16.65C137.698 16.314 137.283 15.852 136.975 15.264C136.676 14.676 136.527 14.0087 136.527 13.262C136.527 12.5153 136.676 11.848 136.975 11.26C137.274 10.6627 137.68 10.2007 138.193 9.874C138.716 9.538 139.29 9.37 139.915 9.37C140.363 9.37 140.783 9.454 141.175 9.622C141.567 9.78067 141.898 9.986 142.169 10.238V10.224C142.169 9.98133 142.248 9.78067 142.407 9.622C142.566 9.454 142.766 9.37 143.009 9.37ZM140.181 15.6C140.788 15.6 141.282 15.3807 141.665 14.942C142.048 14.494 142.239 13.934 142.239 13.262C142.239 12.59 142.048 12.03 141.665 11.582C141.282 11.134 140.788 10.91 140.181 10.91C139.584 10.91 139.094 11.134 138.711 11.582C138.328 12.03 138.137 12.59 138.137 13.262C138.137 13.934 138.324 14.494 138.697 14.942C139.08 15.3807 139.574 15.6 140.181 15.6ZM145.67 19.548C145.464 19.548 145.296 19.4687 145.166 19.31C145.035 19.1513 144.97 18.988 144.97 18.82C144.97 18.6053 145.068 18.4187 145.264 18.26C146.057 17.644 146.65 16.916 147.042 16.076C147.443 15.236 147.644 14.3353 147.644 13.374C147.644 12.394 147.448 11.4793 147.056 10.63C146.664 9.77133 146.066 9.05733 145.264 8.488C145.068 8.348 144.97 8.16133 144.97 7.928C144.97 7.75067 145.04 7.58733 145.18 7.438C145.32 7.27933 145.483 7.2 145.67 7.2C145.81 7.2 145.936 7.23733 146.048 7.312C147.112 8.02133 147.924 8.90333 148.484 9.958C149.053 11.0033 149.338 12.142 149.338 13.374C149.338 14.606 149.053 15.7493 148.484 16.804C147.924 17.8493 147.112 18.7267 146.048 19.436C145.936 19.5107 145.81 19.548 145.67 19.548ZM43.91 31.676C44.1993 31.8253 44.344 32.0633 44.344 32.39C44.344 32.586 44.274 32.7773 44.134 32.964C43.9847 33.16 43.7933 33.258 43.56 33.258C43.4013 33.258 43.2427 33.216 43.084 33.132C42.6267 32.9173 42.132 32.81 41.6 32.81C40.9467 32.81 40.3773 32.95 39.892 33.23C39.4067 33.5007 39.0333 33.888 38.772 34.392C38.5107 34.8867 38.38 35.456 38.38 36.1C38.38 37.2013 38.674 38.0367 39.262 38.606C39.8593 39.1753 40.6387 39.46 41.6 39.46C42.1693 39.46 42.664 39.3527 43.084 39.138C43.252 39.0633 43.4013 39.026 43.532 39.026C43.7747 39.026 43.98 39.1287 44.148 39.334C44.288 39.5113 44.358 39.7027 44.358 39.908C44.358 40.0573 44.3207 40.1927 44.246 40.314C44.1713 40.4353 44.064 40.5287 43.924 40.594C43.196 40.958 42.4213 41.14 41.6 41.14C40.6853 41.14 39.8453 40.9487 39.08 40.566C38.3147 40.174 37.7033 39.6 37.246 38.844C36.7887 38.088 36.56 37.1733 36.56 36.1C36.56 35.148 36.7747 34.294 37.204 33.538C37.6427 32.782 38.2447 32.194 39.01 31.774C39.7753 31.3447 40.6387 31.13 41.6 31.13C42.4307 31.13 43.2007 31.312 43.91 31.676ZM49.8733 31.2C50.3493 31.2 50.802 31.3447 51.2313 31.634C51.6607 31.914 52.006 32.2967 52.2673 32.782C52.5287 33.258 52.6593 33.7807 52.6593 34.35C52.6593 34.91 52.5287 35.4327 52.2673 35.918C52.006 36.4033 51.6607 36.7907 51.2313 37.08C50.802 37.36 50.3493 37.5 49.8733 37.5H47.4373V40.146C47.4373 40.398 47.3627 40.6033 47.2133 40.762C47.064 40.9207 46.868 41 46.6253 41C46.392 41 46.2007 40.9207 46.0513 40.762C45.902 40.594 45.8273 40.3887 45.8273 40.146V32.054C45.8273 31.8113 45.9067 31.6107 46.0653 31.452C46.2333 31.284 46.4387 31.2 46.6813 31.2H49.8733ZM49.8733 35.904C50.0507 35.904 50.2233 35.8293 50.3913 35.68C50.5687 35.5307 50.7087 35.3393 50.8113 35.106C50.9233 34.8633 50.9793 34.6113 50.9793 34.35C50.9793 34.0887 50.9233 33.8413 50.8113 33.608C50.7087 33.3653 50.5687 33.174 50.3913 33.034C50.2233 32.8847 50.0507 32.81 49.8733 32.81H47.4373V35.904H49.8733ZM61.9489 39.628C62.0702 39.7027 62.1636 39.8007 62.2289 39.922C62.3036 40.0433 62.3409 40.1693 62.3409 40.3C62.3409 40.468 62.2849 40.622 62.1729 40.762C62.0329 40.93 61.8182 41.014 61.5289 41.014C61.3049 41.014 61.0996 40.9627 60.9129 40.86C60.2409 40.4773 59.9049 39.698 59.9049 38.522C59.9049 38.186 59.7929 37.92 59.5689 37.724C59.3542 37.528 59.0416 37.43 58.6309 37.43H56.0129V40.146C56.0129 40.398 55.9429 40.6033 55.8029 40.762C55.6722 40.9207 55.4949 41 55.2709 41C55.0002 41 54.7622 40.9207 54.5569 40.762C54.3609 40.594 54.2629 40.3887 54.2629 40.146V32.054C54.2629 31.8113 54.3422 31.6107 54.5009 31.452C54.6689 31.284 54.8742 31.2 55.1169 31.2H59.1489C59.6342 31.2 60.0916 31.3307 60.5209 31.592C60.9502 31.8533 61.2909 32.2127 61.5429 32.67C61.8042 33.1273 61.9349 33.6407 61.9349 34.21C61.9349 34.6767 61.8089 35.134 61.5569 35.582C61.3049 36.0207 60.9782 36.3707 60.5769 36.632C61.1649 37.0427 61.4869 37.5933 61.5429 38.284C61.5709 38.4333 61.5849 38.578 61.5849 38.718C61.6222 39.0073 61.6596 39.2173 61.6969 39.348C61.7342 39.4693 61.8182 39.5627 61.9489 39.628ZM59.0789 35.988C59.2469 35.988 59.4102 35.9087 59.5689 35.75C59.7276 35.5913 59.8582 35.3813 59.9609 35.12C60.0636 34.8493 60.1149 34.56 60.1149 34.252C60.1149 33.9907 60.0636 33.7527 59.9609 33.538C59.8582 33.314 59.7276 33.1367 59.5689 33.006C59.4102 32.8753 59.2469 32.81 59.0789 32.81H56.0129V35.988H59.0789ZM71.5602 39.908C71.6069 40.0293 71.6302 40.1413 71.6302 40.244C71.6302 40.4867 71.5509 40.6873 71.3922 40.846C71.2336 40.9953 71.0516 41.07 70.8462 41.07C70.6782 41.07 70.5242 41.0187 70.3842 40.916C70.2536 40.8133 70.1509 40.6733 70.0762 40.496L69.3482 38.802H65.1762L64.4482 40.51C64.3829 40.6873 64.2802 40.8273 64.1402 40.93C64.0096 41.0233 63.8649 41.07 63.7062 41.07C63.4636 41.07 63.2769 41.0047 63.1462 40.874C63.0249 40.7433 62.9642 40.566 62.9642 40.342C62.9642 40.258 62.9782 40.1693 63.0062 40.076L66.4922 31.704C66.5669 31.5173 66.6789 31.3727 66.8282 31.27C66.9776 31.1673 67.1456 31.1253 67.3322 31.144C67.5002 31.144 67.6542 31.1953 67.7942 31.298C67.9436 31.3913 68.0509 31.5267 68.1162 31.704L71.5602 39.908ZM68.6622 37.192L67.2482 33.916L65.8622 37.192H68.6622ZM79.7775 43.548C79.6375 43.548 79.5115 43.5107 79.3995 43.436C78.3355 42.7267 77.5188 41.8493 76.9495 40.804C76.3895 39.7493 76.1095 38.606 76.1095 37.374C76.1095 36.142 76.3895 35.0033 76.9495 33.958C77.5188 32.9033 78.3355 32.0213 79.3995 31.312C79.5115 31.2373 79.6375 31.2 79.7775 31.2C79.9828 31.2 80.1508 31.2793 80.2815 31.438C80.4121 31.5967 80.4775 31.76 80.4775 31.928C80.4775 32.1427 80.3795 32.3293 80.1835 32.488C79.3901 33.104 78.7928 33.832 78.3915 34.672C77.9995 35.512 77.8035 36.4127 77.8035 37.374C77.8035 38.354 77.9995 39.2733 78.3915 40.132C78.7835 40.9813 79.3808 41.6907 80.1835 42.26C80.3795 42.4 80.4775 42.5867 80.4775 42.82C80.4775 42.9973 80.4075 43.1607 80.2675 43.31C80.1275 43.4687 79.9641 43.548 79.7775 43.548ZM88.6034 31.676C88.8927 31.8253 89.0374 32.0633 89.0374 32.39C89.0374 32.586 88.9674 32.7773 88.8274 32.964C88.678 33.16 88.4867 33.258 88.2534 33.258C88.0947 33.258 87.936 33.216 87.7774 33.132C87.32 32.9173 86.8254 32.81 86.2934 32.81C85.64 32.81 85.0707 32.95 84.5854 33.23C84.1 33.5007 83.7267 33.888 83.4654 34.392C83.204 34.8867 83.0734 35.456 83.0734 36.1C83.0734 37.2013 83.3674 38.0367 83.9554 38.606C84.5527 39.1753 85.332 39.46 86.2934 39.46C86.8627 39.46 87.3574 39.3527 87.7774 39.138C87.9454 39.0633 88.0947 39.026 88.2254 39.026C88.468 39.026 88.6734 39.1287 88.8414 39.334C88.9814 39.5113 89.0514 39.7027 89.0514 39.908C89.0514 40.0573 89.014 40.1927 88.9394 40.314C88.8647 40.4353 88.7574 40.5287 88.6174 40.594C87.8894 40.958 87.1147 41.14 86.2934 41.14C85.3787 41.14 84.5387 40.9487 83.7734 40.566C83.008 40.174 82.3967 39.6 81.9394 38.844C81.482 38.088 81.2534 37.1733 81.2534 36.1C81.2534 35.148 81.468 34.294 81.8974 33.538C82.336 32.782 82.938 32.194 83.7034 31.774C84.4687 31.3447 85.332 31.13 86.2934 31.13C87.124 31.13 87.894 31.312 88.6034 31.676ZM96.4427 33.37C96.6854 33.37 96.886 33.4493 97.0447 33.608C97.2034 33.7667 97.2827 33.972 97.2827 34.224V40.146C97.2827 40.3887 97.2034 40.594 97.0447 40.762C96.886 40.9207 96.6854 41 96.4427 41C96.2 41 95.9994 40.9207 95.8407 40.762C95.6914 40.6033 95.612 40.4027 95.6027 40.16C95.3694 40.4307 95.052 40.664 94.6507 40.86C94.2587 41.0467 93.8434 41.14 93.4047 41.14C92.7607 41.14 92.1774 40.9767 91.6547 40.65C91.132 40.314 90.7167 39.852 90.4087 39.264C90.11 38.676 89.9607 38.0087 89.9607 37.262C89.9607 36.5153 90.11 35.848 90.4087 35.26C90.7074 34.6627 91.1134 34.2007 91.6267 33.874C92.1494 33.538 92.7234 33.37 93.3487 33.37C93.7967 33.37 94.2167 33.454 94.6087 33.622C95.0007 33.7807 95.332 33.986 95.6027 34.238V34.224C95.6027 33.9813 95.682 33.7807 95.8407 33.622C95.9994 33.454 96.2 33.37 96.4427 33.37ZM93.6147 39.6C94.2214 39.6 94.716 39.3807 95.0987 38.942C95.4814 38.494 95.6727 37.934 95.6727 37.262C95.6727 36.59 95.4814 36.03 95.0987 35.582C94.716 35.134 94.2214 34.91 93.6147 34.91C93.0174 34.91 92.5274 35.134 92.1447 35.582C91.762 36.03 91.5707 36.59 91.5707 37.262C91.5707 37.934 91.7574 38.494 92.1307 38.942C92.5134 39.3807 93.008 39.6 93.6147 39.6ZM100.923 40.146C100.923 40.3887 100.839 40.594 100.671 40.762C100.513 40.9207 100.312 41 100.069 41C99.836 41 99.64 40.9207 99.4814 40.762C99.3227 40.594 99.2434 40.3887 99.2434 40.146V31.494C99.2434 31.2513 99.3227 31.0507 99.4814 30.892C99.6494 30.724 99.8547 30.64 100.097 30.64C100.331 30.64 100.527 30.724 100.685 30.892C100.844 31.0507 100.923 31.2513 100.923 31.494V40.146ZM104.459 40.146C104.459 40.3887 104.379 40.594 104.221 40.762C104.062 40.9207 103.861 41 103.619 41C103.376 41 103.175 40.9207 103.017 40.762C102.858 40.594 102.779 40.3887 102.779 40.146V34.364C102.779 34.1213 102.858 33.9207 103.017 33.762C103.175 33.594 103.376 33.51 103.619 33.51C103.861 33.51 104.062 33.594 104.221 33.762C104.379 33.9207 104.459 34.1213 104.459 34.364V40.146ZM103.605 32.6C103.287 32.6 103.063 32.5487 102.933 32.446C102.802 32.3433 102.737 32.1613 102.737 31.9V31.634C102.737 31.3727 102.807 31.1907 102.947 31.088C103.087 30.9853 103.311 30.934 103.619 30.934C103.945 30.934 104.174 30.9853 104.305 31.088C104.435 31.1907 104.501 31.3727 104.501 31.634V31.9C104.501 32.1707 104.431 32.3573 104.291 32.46C104.16 32.5533 103.931 32.6 103.605 32.6ZM109.783 32.124C109.466 32.124 109.242 32.2173 109.111 32.404C108.981 32.5813 108.915 32.7773 108.915 32.992V33.65H110.189C110.413 33.65 110.6 33.7247 110.749 33.874C110.899 34.014 110.973 34.196 110.973 34.42C110.973 34.644 110.899 34.8307 110.749 34.98C110.6 35.12 110.413 35.19 110.189 35.19H108.915V40.146C108.915 40.3887 108.836 40.594 108.677 40.762C108.519 40.9207 108.318 41 108.075 41C107.833 41 107.632 40.9207 107.473 40.762C107.315 40.594 107.235 40.3887 107.235 40.146V35.19H106.479C106.255 35.19 106.069 35.12 105.919 34.98C105.77 34.8307 105.695 34.644 105.695 34.42C105.695 34.196 105.77 34.014 105.919 33.874C106.069 33.7247 106.255 33.65 106.479 33.65H107.235V33.006C107.235 32.306 107.473 31.7367 107.949 31.298C108.435 30.8593 109.13 30.64 110.035 30.64C110.381 30.64 110.679 30.71 110.931 30.85C111.193 30.99 111.323 31.2047 111.323 31.494C111.323 31.718 111.258 31.9 111.127 32.04C110.997 32.18 110.838 32.25 110.651 32.25C110.605 32.25 110.553 32.2453 110.497 32.236C110.451 32.2267 110.399 32.2173 110.343 32.208C110.119 32.152 109.933 32.124 109.783 32.124ZM119.219 37.262C119.219 38.0087 119.051 38.6807 118.715 39.278C118.379 39.866 117.917 40.3233 117.329 40.65C116.751 40.9767 116.111 41.14 115.411 41.14C114.702 41.14 114.058 40.9767 113.479 40.65C112.901 40.3233 112.443 39.866 112.107 39.278C111.771 38.6807 111.603 38.0087 111.603 37.262C111.603 36.5153 111.771 35.848 112.107 35.26C112.443 34.6627 112.901 34.2007 113.479 33.874C114.058 33.538 114.702 33.37 115.411 33.37C116.111 33.37 116.751 33.538 117.329 33.874C117.917 34.2007 118.379 34.6627 118.715 35.26C119.051 35.848 119.219 36.5153 119.219 37.262ZM117.539 37.262C117.539 36.8047 117.441 36.3987 117.245 36.044C117.059 35.68 116.802 35.4 116.475 35.204C116.158 35.008 115.803 34.91 115.411 34.91C115.019 34.91 114.66 35.008 114.333 35.204C114.016 35.4 113.759 35.68 113.563 36.044C113.377 36.3987 113.283 36.8047 113.283 37.262C113.283 37.7193 113.377 38.1253 113.563 38.48C113.759 38.8347 114.016 39.11 114.333 39.306C114.66 39.502 115.019 39.6 115.411 39.6C115.803 39.6 116.158 39.502 116.475 39.306C116.802 39.11 117.059 38.8347 117.245 38.48C117.441 38.1253 117.539 37.7193 117.539 37.262ZM124.515 33.37C124.795 33.37 125.028 33.4493 125.215 33.608C125.411 33.7667 125.509 33.9533 125.509 34.168C125.509 34.4573 125.434 34.6767 125.285 34.826C125.136 34.966 124.958 35.036 124.753 35.036C124.613 35.036 124.454 35.0033 124.277 34.938C124.249 34.9287 124.184 34.91 124.081 34.882C123.988 34.854 123.885 34.84 123.773 34.84C123.53 34.84 123.297 34.9147 123.073 35.064C122.849 35.2133 122.662 35.442 122.513 35.75C122.373 36.0487 122.303 36.408 122.303 36.828V40.146C122.303 40.3887 122.224 40.594 122.065 40.762C121.906 40.9207 121.706 41 121.463 41C121.22 41 121.02 40.9207 120.861 40.762C120.702 40.594 120.623 40.3887 120.623 40.146V34.364C120.623 34.1213 120.702 33.9207 120.861 33.762C121.02 33.594 121.22 33.51 121.463 33.51C121.706 33.51 121.906 33.594 122.065 33.762C122.224 33.9207 122.303 34.1213 122.303 34.364V34.546C122.518 34.1633 122.826 33.874 123.227 33.678C123.628 33.4727 124.058 33.37 124.515 33.37ZM130.697 33.37C131.649 33.37 132.307 33.6547 132.671 34.224C133.035 34.784 133.217 35.5633 133.217 36.562V40.146C133.217 40.3887 133.138 40.594 132.979 40.762C132.821 40.9207 132.62 41 132.377 41C132.135 41 131.934 40.9207 131.775 40.762C131.617 40.594 131.537 40.3887 131.537 40.146V36.562C131.537 36.0487 131.43 35.6473 131.215 35.358C131.001 35.0593 130.632 34.91 130.109 34.91C129.568 34.91 129.143 35.0687 128.835 35.386C128.527 35.694 128.373 36.086 128.373 36.562V40.146C128.373 40.3887 128.294 40.594 128.135 40.762C127.977 40.9207 127.776 41 127.533 41C127.291 41 127.09 40.9207 126.931 40.762C126.773 40.594 126.693 40.3887 126.693 40.146V34.364C126.693 34.1213 126.773 33.9207 126.931 33.762C127.09 33.594 127.291 33.51 127.533 33.51C127.776 33.51 127.977 33.594 128.135 33.762C128.294 33.9207 128.373 34.1213 128.373 34.364V34.602C128.625 34.266 128.952 33.9767 129.353 33.734C129.764 33.4913 130.212 33.37 130.697 33.37ZM136.615 40.146C136.615 40.3887 136.536 40.594 136.377 40.762C136.218 40.9207 136.018 41 135.775 41C135.532 41 135.332 40.9207 135.173 40.762C135.014 40.594 134.935 40.3887 134.935 40.146V34.364C134.935 34.1213 135.014 33.9207 135.173 33.762C135.332 33.594 135.532 33.51 135.775 33.51C136.018 33.51 136.218 33.594 136.377 33.762C136.536 33.9207 136.615 34.1213 136.615 34.364V40.146ZM135.761 32.6C135.444 32.6 135.22 32.5487 135.089 32.446C134.958 32.3433 134.893 32.1613 134.893 31.9V31.634C134.893 31.3727 134.963 31.1907 135.103 31.088C135.243 30.9853 135.467 30.934 135.775 30.934C136.102 30.934 136.33 30.9853 136.461 31.088C136.592 31.1907 136.657 31.3727 136.657 31.634V31.9C136.657 32.1707 136.587 32.3573 136.447 32.46C136.316 32.5533 136.088 32.6 135.761 32.6ZM144.404 33.37C144.646 33.37 144.847 33.4493 145.006 33.608C145.164 33.7667 145.244 33.972 145.244 34.224V40.146C145.244 40.3887 145.164 40.594 145.006 40.762C144.847 40.9207 144.646 41 144.404 41C144.161 41 143.96 40.9207 143.802 40.762C143.652 40.6033 143.573 40.4027 143.564 40.16C143.33 40.4307 143.013 40.664 142.612 40.86C142.22 41.0467 141.804 41.14 141.366 41.14C140.722 41.14 140.138 40.9767 139.616 40.65C139.093 40.314 138.678 39.852 138.37 39.264C138.071 38.676 137.922 38.0087 137.922 37.262C137.922 36.5153 138.071 35.848 138.37 35.26C138.668 34.6627 139.074 34.2007 139.588 33.874C140.11 33.538 140.684 33.37 141.31 33.37C141.758 33.37 142.178 33.454 142.57 33.622C142.962 33.7807 143.293 33.986 143.564 34.238V34.224C143.564 33.9813 143.643 33.7807 143.802 33.622C143.96 33.454 144.161 33.37 144.404 33.37ZM141.576 39.6C142.182 39.6 142.677 39.3807 143.06 38.942C143.442 38.494 143.634 37.934 143.634 37.262C143.634 36.59 143.442 36.03 143.06 35.582C142.677 35.134 142.182 34.91 141.576 34.91C140.978 34.91 140.488 35.134 140.106 35.582C139.723 36.03 139.532 36.59 139.532 37.262C139.532 37.934 139.718 38.494 140.092 38.942C140.474 39.3807 140.969 39.6 141.576 39.6ZM147.064 43.548C146.859 43.548 146.691 43.4687 146.56 43.31C146.43 43.1513 146.364 42.988 146.364 42.82C146.364 42.6053 146.462 42.4187 146.658 42.26C147.452 41.644 148.044 40.916 148.436 40.076C148.838 39.236 149.038 38.3353 149.038 37.374C149.038 36.394 148.842 35.4793 148.45 34.63C148.058 33.7713 147.461 33.0573 146.658 32.488C146.462 32.348 146.364 32.1613 146.364 31.928C146.364 31.7507 146.434 31.5873 146.574 31.438C146.714 31.2793 146.878 31.2 147.064 31.2C147.204 31.2 147.33 31.2373 147.442 31.312C148.506 32.0213 149.318 32.9033 149.878 33.958C150.448 35.0033 150.732 36.142 150.732 37.374C150.732 38.606 150.448 39.7493 149.878 40.804C149.318 41.8493 148.506 42.7267 147.442 43.436C147.33 43.5107 147.204 43.548 147.064 43.548Z" fill="#5B588F"/>
<g clip-path="url(#clip0_313_1530)">
<path d="M12 36C18.6274 36 24 30.6274 24 24C24 17.3726 18.6274 12 12 12C5.37258 12 0 17.3726 0 24C0 30.6274 5.37258 36 12 36Z" fill="#F0F0F0"/>
<path d="M11.4783 24H24C24 22.9169 23.8556 21.8676 23.5866 20.8695H11.4783V24Z" fill="#D80027"/>
<path d="M11.4783 17.7391H22.2387C21.5041 16.5404 20.5649 15.4809 19.4698 14.6086H11.4783V17.7391Z" fill="#D80027"/>
<path d="M12 35.9999C14.8241 35.9999 17.4199 35.0238 19.4698 33.3912H4.53015C6.58 35.0238 9.17579 35.9999 12 35.9999Z" fill="#D80027"/>
<path d="M1.76122 30.2608H22.2387C22.8284 29.2985 23.2857 28.2467 23.5865 27.1304H0.41333C0.714127 28.2467 1.17149 29.2985 1.76122 30.2608Z" fill="#D80027"/>
<path d="M5.55863 13.874H6.65217L5.63498 14.613L6.02353 15.8087L5.00639 15.0697L3.98925 15.8087L4.32487 14.7757C3.42928 15.5217 2.64431 16.3958 1.99744 17.3696H2.34783L1.70034 17.84C1.59947 18.0083 1.50272 18.1792 1.41 18.3527L1.71919 19.3043L1.14234 18.8852C0.998953 19.189 0.867797 19.4997 0.749906 19.8168L1.09055 20.8653H2.34783L1.33064 21.6043L1.71919 22.8L0.702047 22.061L0.0927656 22.5037C0.0317812 22.9939 0 23.4932 0 24H12C12 17.3726 12 16.5913 12 12C9.62944 12 7.41961 12.6877 5.55863 13.874ZM6.02353 22.8L5.00639 22.061L3.98925 22.8L4.3778 21.6043L3.36061 20.8653H4.61789L5.00639 19.6695L5.39489 20.8653H6.65217L5.63498 21.6043L6.02353 22.8ZM5.63498 18.1086L6.02353 19.3043L5.00639 18.5654L3.98925 19.3043L4.3778 18.1086L3.36061 17.3696H4.61789L5.00639 16.1739L5.39489 17.3696H6.65217L5.63498 18.1086ZM10.3279 22.8L9.31073 22.061L8.29359 22.8L8.68214 21.6043L7.66495 20.8653H8.92223L9.31073 19.6695L9.69923 20.8653H10.9565L9.93933 21.6043L10.3279 22.8ZM9.93933 18.1086L10.3279 19.3043L9.31073 18.5654L8.29359 19.3043L8.68214 18.1086L7.66495 17.3696H8.92223L9.31073 16.1739L9.69923 17.3696H10.9565L9.93933 18.1086ZM9.93933 14.613L10.3279 15.8087L9.31073 15.0697L8.29359 15.8087L8.68214 14.613L7.66495 13.874H8.92223L9.31073 12.6782L9.69923 13.874H10.9565L9.93933 14.613Z" fill="#0052B4"/>
</g>
<defs>
<clipPath id="clip0_313_1530">
<rect width="24" height="24" fill="white" transform="translate(0 12)"/>
</clipPath>
</defs>
</svg>
