<svg width="100" height="48" viewBox="0 0 100 48" fill="none" xmlns="http://www.w3.org/2000/svg">
<path d="M12 36C18.6274 36 24 30.6274 24 24C24 17.3726 18.6274 12 12 12C5.37258 12 0 17.3726 0 24C0 30.6274 5.37258 36 12 36Z" fill="#F0F0F0"/>
<path d="M24 24C24 19.2424 21.2314 15.1317 17.2174 13.1907V34.8092C21.2314 32.8682 24 28.7575 24 24V24Z" fill="#D80027"/>
<path d="M0 24C0 28.7575 2.76867 32.8682 6.78262 34.8092V13.1907C2.76867 15.1317 0 19.2424 0 24Z" fill="#D80027"/>
<path d="M14.0869 25.5652L16.1738 24.5217L15.1304 23.9999V22.9565L13.0434 23.9999L14.0869 21.913H13.0434L11.9999 20.3478L10.9565 21.913H9.91297L10.9565 23.9999L8.86949 22.9565V23.9999L7.82605 24.5217L9.91297 25.5652L9.39125 26.6086H11.4782V28.1738H12.5217V26.6086H14.6086L14.0869 25.5652Z" fill="#D80027"/>
<path d="M42.096 7.2C42.572 7.2 43.0247 7.34467 43.454 7.634C43.8833 7.914 44.2287 8.29667 44.49 8.782C44.7513 9.258 44.882 9.78067 44.882 10.35C44.882 10.91 44.7513 11.4327 44.49 11.918C44.2287 12.4033 43.8833 12.7907 43.454 13.08C43.0247 13.36 42.572 13.5 42.096 13.5H39.66V16.146C39.66 16.398 39.5853 16.6033 39.436 16.762C39.2867 16.9207 39.0907 17 38.848 17C38.6147 17 38.4233 16.9207 38.274 16.762C38.1247 16.594 38.05 16.3887 38.05 16.146V8.054C38.05 7.81133 38.1293 7.61067 38.288 7.452C38.456 7.284 38.6613 7.2 38.904 7.2H42.096ZM42.096 11.904C42.2733 11.904 42.446 11.8293 42.614 11.68C42.7913 11.5307 42.9313 11.3393 43.034 11.106C43.146 10.8633 43.202 10.6113 43.202 10.35C43.202 10.0887 43.146 9.84133 43.034 9.608C42.9313 9.36533 42.7913 9.174 42.614 9.034C42.446 8.88467 42.2733 8.81 42.096 8.81H39.66V11.904H42.096ZM48.2355 16.146C48.2355 16.3887 48.1469 16.594 47.9695 16.762C47.7922 16.9207 47.5869 17 47.3535 17C47.1015 17 46.8915 16.9207 46.7235 16.762C46.5649 16.594 46.4855 16.3887 46.4855 16.146V8.054C46.4855 7.81133 46.5695 7.61067 46.7375 7.452C46.9055 7.284 47.1202 7.2 47.3815 7.2C47.6149 7.2 47.8155 7.284 47.9835 7.452C48.1515 7.61067 48.2355 7.81133 48.2355 8.054V16.146ZM54.387 7.2C54.863 7.2 55.3157 7.34467 55.745 7.634C56.1743 7.914 56.5197 8.29667 56.781 8.782C57.0423 9.258 57.173 9.78067 57.173 10.35C57.173 10.91 57.0423 11.4327 56.781 11.918C56.5197 12.4033 56.1743 12.7907 55.745 13.08C55.3157 13.36 54.863 13.5 54.387 13.5H51.951V16.146C51.951 16.398 51.8763 16.6033 51.727 16.762C51.5777 16.9207 51.3817 17 51.139 17C50.9057 17 50.7143 16.9207 50.565 16.762C50.4157 16.594 50.341 16.3887 50.341 16.146V8.054C50.341 7.81133 50.4203 7.61067 50.579 7.452C50.747 7.284 50.9523 7.2 51.195 7.2H54.387ZM54.387 11.904C54.5643 11.904 54.737 11.8293 54.905 11.68C55.0823 11.5307 55.2223 11.3393 55.325 11.106C55.437 10.8633 55.493 10.6113 55.493 10.35C55.493 10.0887 55.437 9.84133 55.325 9.608C55.2223 9.36533 55.0823 9.174 54.905 9.034C54.737 8.88467 54.5643 8.81 54.387 8.81H51.951V11.904H54.387ZM64.3206 15.39C64.5632 15.39 64.7639 15.474 64.9226 15.642C65.0906 15.8007 65.1746 15.9873 65.1746 16.202C65.1746 16.4353 65.0906 16.6267 64.9226 16.776C64.7639 16.9253 64.5632 17 64.3206 17H59.6306C59.3879 17 59.1826 16.9207 59.0146 16.762C58.8559 16.594 58.7766 16.3887 58.7766 16.146V8.054C58.7766 7.81133 58.8559 7.61067 59.0146 7.452C59.1826 7.284 59.3879 7.2 59.6306 7.2H64.3206C64.5632 7.2 64.7639 7.27933 64.9226 7.438C65.0906 7.58733 65.1746 7.78333 65.1746 8.026C65.1746 8.25933 65.0952 8.45067 64.9366 8.6C64.7779 8.74 64.5726 8.81 64.3206 8.81H60.5266V11.19H63.6906C63.9332 11.19 64.1339 11.2693 64.2926 11.428C64.4606 11.5773 64.5446 11.7733 64.5446 12.016C64.5446 12.2493 64.4652 12.4407 64.3066 12.59C64.1479 12.73 63.9426 12.8 63.6906 12.8H60.5266V15.39H64.3206ZM70.9883 7.2C71.8656 7.2 72.6169 7.41933 73.2423 7.858C73.8769 8.28733 74.3576 8.87533 74.6843 9.622C75.0203 10.3593 75.1883 11.1853 75.1883 12.1C75.1883 13.0147 75.0203 13.8453 74.6843 14.592C74.3576 15.3293 73.8769 15.9173 73.2423 16.356C72.6169 16.7853 71.8656 17 70.9883 17H67.6423C67.3996 17 67.1943 16.9207 67.0263 16.762C66.8676 16.594 66.7883 16.3887 66.7883 16.146V8.054C66.7883 7.81133 66.8676 7.61067 67.0263 7.452C67.1943 7.284 67.3996 7.2 67.6423 7.2H70.9883ZM70.8483 15.39C71.6883 15.39 72.3183 15.082 72.7383 14.466C73.1583 13.8407 73.3683 13.052 73.3683 12.1C73.3683 11.148 73.1536 10.364 72.7243 9.748C72.3043 9.12267 71.6789 8.81 70.8483 8.81H68.5383V15.39H70.8483ZM84.4137 15.908C84.4604 16.0293 84.4837 16.1413 84.4837 16.244C84.4837 16.4867 84.4044 16.6873 84.2457 16.846C84.0871 16.9953 83.9051 17.07 83.6997 17.07C83.5317 17.07 83.3777 17.0187 83.2377 16.916C83.1071 16.8133 83.0044 16.6733 82.9297 16.496L82.2017 14.802H78.0297L77.3017 16.51C77.2364 16.6873 77.1337 16.8273 76.9937 16.93C76.8631 17.0233 76.7184 17.07 76.5597 17.07C76.3171 17.07 76.1304 17.0047 75.9997 16.874C75.8784 16.7433 75.8177 16.566 75.8177 16.342C75.8177 16.258 75.8317 16.1693 75.8597 16.076L79.3457 7.704C79.4204 7.51733 79.5324 7.37267 79.6817 7.27C79.8311 7.16733 79.9991 7.12533 80.1857 7.144C80.3537 7.144 80.5077 7.19533 80.6477 7.298C80.7971 7.39133 80.9044 7.52667 80.9697 7.704L84.4137 15.908ZM81.5157 13.192L80.1017 9.916L78.7157 13.192H81.5157ZM41.088 43.548C40.948 43.548 40.822 43.5107 40.71 43.436C39.646 42.7267 38.8293 41.8493 38.26 40.804C37.7 39.7493 37.42 38.606 37.42 37.374C37.42 36.142 37.7 35.0033 38.26 33.958C38.8293 32.9033 39.646 32.0213 40.71 31.312C40.822 31.2373 40.948 31.2 41.088 31.2C41.2933 31.2 41.4613 31.2793 41.592 31.438C41.7227 31.5967 41.788 31.76 41.788 31.928C41.788 32.1427 41.69 32.3293 41.494 32.488C40.7007 33.104 40.1033 33.832 39.702 34.672C39.31 35.512 39.114 36.4127 39.114 37.374C39.114 38.354 39.31 39.2733 39.702 40.132C40.094 40.9813 40.6913 41.6907 41.494 42.26C41.69 42.4 41.788 42.5867 41.788 42.82C41.788 42.9973 41.718 43.1607 41.578 43.31C41.438 43.4687 41.2747 43.548 41.088 43.548ZM49.9139 31.676C50.2032 31.8253 50.3479 32.0633 50.3479 32.39C50.3479 32.586 50.2779 32.7773 50.1379 32.964C49.9886 33.16 49.7972 33.258 49.5639 33.258C49.4052 33.258 49.2466 33.216 49.0879 33.132C48.6306 32.9173 48.1359 32.81 47.6039 32.81C46.9506 32.81 46.3812 32.95 45.8959 33.23C45.4106 33.5007 45.0372 33.888 44.7759 34.392C44.5146 34.8867 44.3839 35.456 44.3839 36.1C44.3839 37.2013 44.6779 38.0367 45.2659 38.606C45.8632 39.1753 46.6426 39.46 47.6039 39.46C48.1732 39.46 48.6679 39.3527 49.0879 39.138C49.2559 39.0633 49.4052 39.026 49.5359 39.026C49.7786 39.026 49.9839 39.1287 50.1519 39.334C50.2919 39.5113 50.3619 39.7027 50.3619 39.908C50.3619 40.0573 50.3246 40.1927 50.2499 40.314C50.1752 40.4353 50.0679 40.5287 49.9279 40.594C49.1999 40.958 48.4252 41.14 47.6039 41.14C46.6892 41.14 45.8492 40.9487 45.0839 40.566C44.3186 40.174 43.7072 39.6 43.2499 38.844C42.7926 38.088 42.5639 37.1733 42.5639 36.1C42.5639 35.148 42.7786 34.294 43.2079 33.538C43.6466 32.782 44.2486 32.194 45.0139 31.774C45.7792 31.3447 46.6426 31.13 47.6039 31.13C48.4346 31.13 49.2046 31.312 49.9139 31.676ZM57.7533 33.37C57.9959 33.37 58.1966 33.4493 58.3553 33.608C58.5139 33.7667 58.5933 33.972 58.5933 34.224V40.146C58.5933 40.3887 58.5139 40.594 58.3553 40.762C58.1966 40.9207 57.9959 41 57.7533 41C57.5106 41 57.3099 40.9207 57.1513 40.762C57.0019 40.6033 56.9226 40.4027 56.9133 40.16C56.6799 40.4307 56.3626 40.664 55.9613 40.86C55.5693 41.0467 55.1539 41.14 54.7153 41.14C54.0713 41.14 53.4879 40.9767 52.9653 40.65C52.4426 40.314 52.0273 39.852 51.7193 39.264C51.4206 38.676 51.2713 38.0087 51.2713 37.262C51.2713 36.5153 51.4206 35.848 51.7193 35.26C52.0179 34.6627 52.4239 34.2007 52.9373 33.874C53.4599 33.538 54.0339 33.37 54.6593 33.37C55.1073 33.37 55.5273 33.454 55.9193 33.622C56.3113 33.7807 56.6426 33.986 56.9133 34.238V34.224C56.9133 33.9813 56.9926 33.7807 57.1513 33.622C57.3099 33.454 57.5106 33.37 57.7533 33.37ZM54.9253 39.6C55.5319 39.6 56.0266 39.3807 56.4093 38.942C56.7919 38.494 56.9833 37.934 56.9833 37.262C56.9833 36.59 56.7919 36.03 56.4093 35.582C56.0266 35.134 55.5319 34.91 54.9253 34.91C54.3279 34.91 53.8379 35.134 53.4553 35.582C53.0726 36.03 52.8813 36.59 52.8813 37.262C52.8813 37.934 53.0679 38.494 53.4413 38.942C53.8239 39.3807 54.3186 39.6 54.9253 39.6ZM64.4179 33.37C65.3699 33.37 66.0279 33.6547 66.3919 34.224C66.7559 34.784 66.9379 35.5633 66.9379 36.562V40.146C66.9379 40.3887 66.8586 40.594 66.6999 40.762C66.5412 40.9207 66.3406 41 66.0979 41C65.8552 41 65.6546 40.9207 65.4959 40.762C65.3372 40.594 65.2579 40.3887 65.2579 40.146V36.562C65.2579 36.0487 65.1506 35.6473 64.9359 35.358C64.7212 35.0593 64.3526 34.91 63.8299 34.91C63.2886 34.91 62.8639 35.0687 62.5559 35.386C62.2479 35.694 62.0939 36.086 62.0939 36.562V40.146C62.0939 40.3887 62.0146 40.594 61.8559 40.762C61.6972 40.9207 61.4966 41 61.2539 41C61.0112 41 60.8106 40.9207 60.6519 40.762C60.4932 40.594 60.4139 40.3887 60.4139 40.146V34.364C60.4139 34.1213 60.4932 33.9207 60.6519 33.762C60.8106 33.594 61.0112 33.51 61.2539 33.51C61.4966 33.51 61.6972 33.594 61.8559 33.762C62.0146 33.9207 62.0939 34.1213 62.0939 34.364V34.602C62.3459 34.266 62.6726 33.9767 63.0739 33.734C63.4846 33.4913 63.9326 33.37 64.4179 33.37ZM74.8158 33.37C75.0584 33.37 75.2591 33.4493 75.4178 33.608C75.5764 33.7667 75.6558 33.972 75.6558 34.224V40.146C75.6558 40.3887 75.5764 40.594 75.4178 40.762C75.2591 40.9207 75.0584 41 74.8158 41C74.5731 41 74.3724 40.9207 74.2138 40.762C74.0644 40.6033 73.9851 40.4027 73.9758 40.16C73.7424 40.4307 73.4251 40.664 73.0238 40.86C72.6318 41.0467 72.2164 41.14 71.7778 41.14C71.1338 41.14 70.5504 40.9767 70.0278 40.65C69.5051 40.314 69.0898 39.852 68.7818 39.264C68.4831 38.676 68.3338 38.0087 68.3338 37.262C68.3338 36.5153 68.4831 35.848 68.7818 35.26C69.0804 34.6627 69.4864 34.2007 69.9998 33.874C70.5224 33.538 71.0964 33.37 71.7218 33.37C72.1698 33.37 72.5898 33.454 72.9818 33.622C73.3738 33.7807 73.7051 33.986 73.9758 34.238V34.224C73.9758 33.9813 74.0551 33.7807 74.2138 33.622C74.3724 33.454 74.5731 33.37 74.8158 33.37ZM71.9878 39.6C72.5944 39.6 73.0891 39.3807 73.4718 38.942C73.8544 38.494 74.0458 37.934 74.0458 37.262C74.0458 36.59 73.8544 36.03 73.4718 35.582C73.0891 35.134 72.5944 34.91 71.9878 34.91C71.3904 34.91 70.9004 35.134 70.5178 35.582C70.1351 36.03 69.9438 36.59 69.9438 37.262C69.9438 37.934 70.1304 38.494 70.5038 38.942C70.8864 39.3807 71.3811 39.6 71.9878 39.6ZM83.5384 30.64C83.7811 30.64 83.9817 30.7193 84.1404 30.878C84.2991 31.0367 84.3784 31.242 84.3784 31.494V40.146C84.3784 40.3887 84.2991 40.594 84.1404 40.762C83.9817 40.9207 83.7811 41 83.5384 41C83.2957 41 83.0951 40.9207 82.9364 40.762C82.7871 40.6033 82.7077 40.4027 82.6984 40.16C82.4651 40.4307 82.1477 40.664 81.7464 40.86C81.3544 41.0467 80.9391 41.14 80.5004 41.14C79.8564 41.14 79.2731 40.9767 78.7504 40.65C78.2277 40.314 77.8124 39.852 77.5044 39.264C77.2057 38.676 77.0564 38.0087 77.0564 37.262C77.0564 36.5153 77.2057 35.848 77.5044 35.26C77.8031 34.6627 78.2091 34.2007 78.7224 33.874C79.2451 33.538 79.8191 33.37 80.4444 33.37C80.8924 33.37 81.3124 33.454 81.7044 33.622C82.0964 33.7807 82.4277 33.986 82.6984 34.238V31.494C82.6984 31.2513 82.7777 31.0507 82.9364 30.892C83.0951 30.724 83.2957 30.64 83.5384 30.64ZM80.7104 39.6C81.3171 39.6 81.8117 39.3807 82.1944 38.942C82.5771 38.494 82.7684 37.934 82.7684 37.262C82.7684 36.59 82.5771 36.03 82.1944 35.582C81.8117 35.134 81.3171 34.91 80.7104 34.91C80.1131 34.91 79.6231 35.134 79.2404 35.582C78.8577 36.03 78.6664 36.59 78.6664 37.262C78.6664 37.934 78.8531 38.494 79.2264 38.942C79.6091 39.3807 80.1037 39.6 80.7104 39.6ZM92.2611 33.37C92.5037 33.37 92.7044 33.4493 92.8631 33.608C93.0217 33.7667 93.1011 33.972 93.1011 34.224V40.146C93.1011 40.3887 93.0217 40.594 92.8631 40.762C92.7044 40.9207 92.5037 41 92.2611 41C92.0184 41 91.8177 40.9207 91.6591 40.762C91.5097 40.6033 91.4304 40.4027 91.4211 40.16C91.1877 40.4307 90.8704 40.664 90.4691 40.86C90.0771 41.0467 89.6617 41.14 89.2231 41.14C88.5791 41.14 87.9957 40.9767 87.4731 40.65C86.9504 40.314 86.5351 39.852 86.2271 39.264C85.9284 38.676 85.7791 38.0087 85.7791 37.262C85.7791 36.5153 85.9284 35.848 86.2271 35.26C86.5257 34.6627 86.9317 34.2007 87.4451 33.874C87.9677 33.538 88.5417 33.37 89.1671 33.37C89.6151 33.37 90.0351 33.454 90.4271 33.622C90.8191 33.7807 91.1504 33.986 91.4211 34.238V34.224C91.4211 33.9813 91.5004 33.7807 91.6591 33.622C91.8177 33.454 92.0184 33.37 92.2611 33.37ZM89.4331 39.6C90.0397 39.6 90.5344 39.3807 90.9171 38.942C91.2997 38.494 91.4911 37.934 91.4911 37.262C91.4911 36.59 91.2997 36.03 90.9171 35.582C90.5344 35.134 90.0397 34.91 89.4331 34.91C88.8357 34.91 88.3457 35.134 87.9631 35.582C87.5804 36.03 87.3891 36.59 87.3891 37.262C87.3891 37.934 87.5757 38.494 87.9491 38.942C88.3317 39.3807 88.8264 39.6 89.4331 39.6ZM94.9217 43.548C94.7164 43.548 94.5484 43.4687 94.4177 43.31C94.2871 43.1513 94.2217 42.988 94.2217 42.82C94.2217 42.6053 94.3197 42.4187 94.5157 42.26C95.3091 41.644 95.9017 40.916 96.2937 40.076C96.6951 39.236 96.8957 38.3353 96.8957 37.374C96.8957 36.394 96.6997 35.4793 96.3077 34.63C95.9157 33.7713 95.3184 33.0573 94.5157 32.488C94.3197 32.348 94.2217 32.1613 94.2217 31.928C94.2217 31.7507 94.2917 31.5873 94.4317 31.438C94.5717 31.2793 94.7351 31.2 94.9217 31.2C95.0617 31.2 95.1877 31.2373 95.2997 31.312C96.3637 32.0213 97.1757 32.9033 97.7357 33.958C98.3051 35.0033 98.5897 36.142 98.5897 37.374C98.5897 38.606 98.3051 39.7493 97.7357 40.804C97.1757 41.8493 96.3637 42.7267 95.2997 43.436C95.1877 43.5107 95.0617 43.548 94.9217 43.548Z" fill="#5B588F"/>
</svg>
