<svg width="160" height="48" viewBox="0 0 160 48" fill="none" xmlns="http://www.w3.org/2000/svg">
<path d="M41.25 7.2C42.1273 7.2 42.8787 7.41933 43.504 7.858C44.1387 8.28733 44.6193 8.87533 44.946 9.622C45.282 10.3593 45.45 11.1853 45.45 12.1C45.45 13.0147 45.282 13.8453 44.946 14.592C44.6193 15.3293 44.1387 15.9173 43.504 16.356C42.8787 16.7853 42.1273 17 41.25 17H37.904C37.6613 17 37.456 16.9207 37.288 16.762C37.1293 16.594 37.05 16.3887 37.05 16.146V8.054C37.05 7.81133 37.1293 7.61067 37.288 7.452C37.456 7.284 37.6613 7.2 37.904 7.2H41.25ZM41.11 15.39C41.95 15.39 42.58 15.082 43 14.466C43.42 13.8407 43.63 13.052 43.63 12.1C43.63 11.148 43.4153 10.364 42.986 9.748C42.566 9.12267 41.9407 8.81 41.11 8.81H38.8V15.39H41.11ZM52.9798 9.37C53.2225 9.37 53.4231 9.44933 53.5818 9.608C53.7405 9.76667 53.8198 9.972 53.8198 10.224V16.146C53.8198 16.3887 53.7405 16.594 53.5818 16.762C53.4231 16.9207 53.2225 17 52.9798 17C52.7371 17 52.5365 16.9207 52.3778 16.762C52.2285 16.6033 52.1491 16.4027 52.1398 16.16C51.9065 16.4307 51.5891 16.664 51.1878 16.86C50.7958 17.0467 50.3805 17.14 49.9418 17.14C49.2978 17.14 48.7145 16.9767 48.1918 16.65C47.6691 16.314 47.2538 15.852 46.9458 15.264C46.6471 14.676 46.4978 14.0087 46.4978 13.262C46.4978 12.5153 46.6471 11.848 46.9458 11.26C47.2445 10.6627 47.6505 10.2007 48.1638 9.874C48.6865 9.538 49.2605 9.37 49.8858 9.37C50.3338 9.37 50.7538 9.454 51.1458 9.622C51.5378 9.78067 51.8691 9.986 52.1398 10.238V10.224C52.1398 9.98133 52.2191 9.78067 52.3778 9.622C52.5365 9.454 52.7371 9.37 52.9798 9.37ZM50.1518 15.6C50.7585 15.6 51.2531 15.3807 51.6358 14.942C52.0185 14.494 52.2098 13.934 52.2098 13.262C52.2098 12.59 52.0185 12.03 51.6358 11.582C51.2531 11.134 50.7585 10.91 50.1518 10.91C49.5545 10.91 49.0645 11.134 48.6818 11.582C48.2991 12.03 48.1078 12.59 48.1078 13.262C48.1078 13.934 48.2945 14.494 48.6678 14.942C49.0505 15.3807 49.5451 15.6 50.1518 15.6ZM59.2525 15.418C59.3831 15.418 59.4998 15.4833 59.6025 15.614C59.7145 15.7353 59.7705 15.8987 59.7705 16.104C59.7705 16.356 59.6305 16.5707 59.3505 16.748C59.0798 16.916 58.7718 17 58.4265 17C57.8478 17 57.3578 16.8787 56.9565 16.636C56.5645 16.384 56.3685 15.8567 56.3685 15.054V11.19H55.7245C55.5005 11.19 55.3138 11.1153 55.1645 10.966C55.0151 10.8167 54.9405 10.63 54.9405 10.406C54.9405 10.1913 55.0151 10.014 55.1645 9.874C55.3138 9.72467 55.5005 9.65 55.7245 9.65H56.3685V8.754C56.3685 8.51133 56.4478 8.31067 56.6065 8.152C56.7745 7.984 56.9798 7.9 57.2225 7.9C57.4558 7.9 57.6518 7.984 57.8105 8.152C57.9691 8.31067 58.0485 8.51133 58.0485 8.754V9.65H59.0425C59.2665 9.65 59.4531 9.72467 59.6025 9.874C59.7518 10.0233 59.8265 10.21 59.8265 10.434C59.8265 10.6487 59.7518 10.8307 59.6025 10.98C59.4531 11.12 59.2665 11.19 59.0425 11.19H58.0485V14.984C58.0485 15.18 58.0998 15.3247 58.2025 15.418C58.3051 15.502 58.4451 15.544 58.6225 15.544C58.6971 15.544 58.7998 15.5253 58.9305 15.488C59.0425 15.4413 59.1498 15.418 59.2525 15.418ZM67.431 9.37C67.6737 9.37 67.8743 9.44933 68.033 9.608C68.1917 9.76667 68.271 9.972 68.271 10.224V16.146C68.271 16.3887 68.1917 16.594 68.033 16.762C67.8743 16.9207 67.6737 17 67.431 17C67.1883 17 66.9877 16.9207 66.829 16.762C66.6797 16.6033 66.6003 16.4027 66.591 16.16C66.3577 16.4307 66.0403 16.664 65.639 16.86C65.247 17.0467 64.8317 17.14 64.393 17.14C63.749 17.14 63.1657 16.9767 62.643 16.65C62.1203 16.314 61.705 15.852 61.397 15.264C61.0983 14.676 60.949 14.0087 60.949 13.262C60.949 12.5153 61.0983 11.848 61.397 11.26C61.6957 10.6627 62.1017 10.2007 62.615 9.874C63.1377 9.538 63.7117 9.37 64.337 9.37C64.785 9.37 65.205 9.454 65.597 9.622C65.989 9.78067 66.3203 9.986 66.591 10.238V10.224C66.591 9.98133 66.6703 9.78067 66.829 9.622C66.9877 9.454 67.1883 9.37 67.431 9.37ZM64.603 15.6C65.2097 15.6 65.7043 15.3807 66.087 14.942C66.4697 14.494 66.661 13.934 66.661 13.262C66.661 12.59 66.4697 12.03 66.087 11.582C65.7043 11.134 65.2097 10.91 64.603 10.91C64.0057 10.91 63.5157 11.134 63.133 11.582C62.7503 12.03 62.559 12.59 62.559 13.262C62.559 13.934 62.7457 14.494 63.119 14.942C63.5017 15.3807 63.9963 15.6 64.603 15.6ZM77.3055 17.14C76.6335 17.14 76.0361 17.056 75.5135 16.888C74.9908 16.72 74.5008 16.4353 74.0435 16.034C73.7915 15.81 73.6655 15.5627 73.6655 15.292C73.6655 15.0773 73.7448 14.8907 73.9035 14.732C74.0621 14.564 74.2535 14.48 74.4775 14.48C74.6548 14.48 74.8135 14.536 74.9535 14.648C75.3268 14.956 75.6908 15.18 76.0455 15.32C76.4001 15.46 76.8201 15.53 77.3055 15.53C77.8281 15.53 78.2761 15.4133 78.6495 15.18C79.0321 14.9467 79.2235 14.6573 79.2235 14.312C79.2235 13.892 79.0368 13.5653 78.6635 13.332C78.2901 13.0893 77.6975 12.9073 76.8855 12.786C74.8415 12.4873 73.8195 11.5353 73.8195 9.93C73.8195 9.342 73.9735 8.83333 74.2815 8.404C74.5895 7.96533 75.0095 7.634 75.5415 7.41C76.0735 7.17667 76.6661 7.06 77.3195 7.06C77.9075 7.06 78.4581 7.14867 78.9715 7.326C79.4941 7.50333 79.9281 7.73667 80.2735 8.026C80.5441 8.24067 80.6795 8.488 80.6795 8.768C80.6795 8.98267 80.6001 9.174 80.4415 9.342C80.2828 9.50067 80.0961 9.58 79.8815 9.58C79.7415 9.58 79.6155 9.538 79.5035 9.454C79.2608 9.258 78.9201 9.08067 78.4815 8.922C78.0521 8.754 77.6648 8.67 77.3195 8.67C76.7315 8.67 76.2741 8.782 75.9475 9.006C75.6301 9.22067 75.4715 9.50533 75.4715 9.86C75.4715 10.2613 75.6348 10.5647 75.9615 10.77C76.2975 10.9753 76.8201 11.1433 77.5295 11.274C78.3321 11.414 78.9715 11.596 79.4475 11.82C79.9328 12.0347 80.2968 12.3333 80.5395 12.716C80.7821 13.0893 80.9035 13.5887 80.9035 14.214C80.9035 14.802 80.7355 15.32 80.3995 15.768C80.0728 16.2067 79.6341 16.5473 79.0835 16.79C78.5328 17.0233 77.9401 17.14 77.3055 17.14ZM89.089 13.08C89.0797 13.304 88.991 13.486 88.823 13.626C88.655 13.766 88.459 13.836 88.235 13.836H83.615C83.727 14.3867 83.9837 14.8207 84.385 15.138C84.7863 15.446 85.239 15.6 85.743 15.6C86.1257 15.6 86.4243 15.5673 86.639 15.502C86.8537 15.4273 87.0217 15.3527 87.143 15.278C87.2737 15.194 87.3623 15.138 87.409 15.11C87.577 15.026 87.7357 14.984 87.885 14.984C88.081 14.984 88.249 15.054 88.389 15.194C88.529 15.334 88.599 15.4973 88.599 15.684C88.599 15.936 88.4683 16.1647 88.207 16.37C87.9457 16.5847 87.5957 16.7667 87.157 16.916C86.7183 17.0653 86.275 17.14 85.827 17.14C85.043 17.14 84.357 16.9767 83.769 16.65C83.1903 16.3233 82.7423 15.8753 82.425 15.306C82.1077 14.7273 81.949 14.0787 81.949 13.36C81.949 12.5573 82.117 11.8527 82.453 11.246C82.789 10.6393 83.2323 10.1773 83.783 9.86C84.3337 9.53333 84.9217 9.37 85.547 9.37C86.163 9.37 86.7417 9.538 87.283 9.874C87.8337 10.21 88.2723 10.6627 88.599 11.232C88.9257 11.8013 89.089 12.4173 89.089 13.08ZM85.547 10.91C84.4643 10.91 83.825 11.4187 83.629 12.436H87.297V12.338C87.2597 11.946 87.0683 11.61 86.723 11.33C86.3777 11.05 85.9857 10.91 85.547 10.91ZM93.7521 9.37C94.5454 9.37 95.1847 9.496 95.6701 9.748C96.1554 9.99067 96.3981 10.3173 96.3981 10.728C96.3981 10.9333 96.3374 11.1153 96.2161 11.274C96.0947 11.4233 95.9361 11.498 95.7401 11.498C95.5907 11.498 95.4694 11.4793 95.3761 11.442C95.2827 11.3953 95.1894 11.3393 95.0961 11.274C95.0121 11.1993 94.9281 11.1387 94.8441 11.092C94.7507 11.0453 94.6107 11.0033 94.4241 10.966C94.2467 10.9287 94.1021 10.91 93.9901 10.91C93.2901 10.91 92.7394 11.1293 92.3381 11.568C91.9461 11.9973 91.7501 12.562 91.7501 13.262C91.7501 13.934 91.9507 14.494 92.3521 14.942C92.7534 15.3807 93.2667 15.6 93.8921 15.6C94.3494 15.6 94.6901 15.544 94.9141 15.432C94.9701 15.404 95.0447 15.3573 95.1381 15.292C95.2407 15.2173 95.3341 15.1613 95.4181 15.124C95.5021 15.0867 95.6047 15.068 95.7261 15.068C95.9594 15.068 96.1414 15.1427 96.2721 15.292C96.4121 15.4413 96.4821 15.6327 96.4821 15.866C96.4821 16.09 96.3514 16.3 96.0901 16.496C95.8287 16.692 95.4834 16.8507 95.0541 16.972C94.6247 17.084 94.1674 17.14 93.6821 17.14C92.9634 17.14 92.3287 16.972 91.7781 16.636C91.2367 16.3 90.8167 15.838 90.5181 15.25C90.2194 14.6527 90.0701 13.99 90.0701 13.262C90.0701 12.506 90.2241 11.834 90.5321 11.246C90.8494 10.658 91.2881 10.2007 91.8481 9.874C92.4081 9.538 93.0427 9.37 93.7521 9.37ZM103.253 9.51C103.496 9.51 103.696 9.594 103.855 9.762C104.014 9.92067 104.093 10.1213 104.093 10.364V13.92C104.093 14.928 103.813 15.7167 103.253 16.286C102.702 16.8553 101.914 17.14 100.887 17.14C99.8605 17.14 99.0718 16.8553 98.5212 16.286C97.9705 15.7167 97.6952 14.928 97.6952 13.92V10.364C97.6952 10.1213 97.7745 9.92067 97.9332 9.762C98.0918 9.594 98.2925 9.51 98.5352 9.51C98.7778 9.51 98.9785 9.594 99.1372 9.762C99.2958 9.92067 99.3752 10.1213 99.3752 10.364V13.92C99.3752 14.4893 99.5012 14.914 99.7532 15.194C100.005 15.4647 100.383 15.6 100.887 15.6C101.4 15.6 101.783 15.4647 102.035 15.194C102.287 14.914 102.413 14.4893 102.413 13.92V10.364C102.413 10.1213 102.492 9.92067 102.651 9.762C102.81 9.594 103.01 9.51 103.253 9.51ZM109.804 9.37C110.084 9.37 110.317 9.44933 110.504 9.608C110.7 9.76667 110.798 9.95333 110.798 10.168C110.798 10.4573 110.723 10.6767 110.574 10.826C110.425 10.966 110.247 11.036 110.042 11.036C109.902 11.036 109.743 11.0033 109.566 10.938C109.538 10.9287 109.473 10.91 109.37 10.882C109.277 10.854 109.174 10.84 109.062 10.84C108.819 10.84 108.586 10.9147 108.362 11.064C108.138 11.2133 107.951 11.442 107.802 11.75C107.662 12.0487 107.592 12.408 107.592 12.828V16.146C107.592 16.3887 107.513 16.594 107.354 16.762C107.195 16.9207 106.995 17 106.752 17C106.509 17 106.309 16.9207 106.15 16.762C105.991 16.594 105.912 16.3887 105.912 16.146V10.364C105.912 10.1213 105.991 9.92067 106.15 9.762C106.309 9.594 106.509 9.51 106.752 9.51C106.995 9.51 107.195 9.594 107.354 9.762C107.513 9.92067 107.592 10.1213 107.592 10.364V10.546C107.807 10.1633 108.115 9.874 108.516 9.678C108.917 9.47267 109.347 9.37 109.804 9.37ZM113.564 16.146C113.564 16.3887 113.485 16.594 113.326 16.762C113.168 16.9207 112.967 17 112.724 17C112.482 17 112.281 16.9207 112.122 16.762C111.964 16.594 111.884 16.3887 111.884 16.146V10.364C111.884 10.1213 111.964 9.92067 112.122 9.762C112.281 9.594 112.482 9.51 112.724 9.51C112.967 9.51 113.168 9.594 113.326 9.762C113.485 9.92067 113.564 10.1213 113.564 10.364V16.146ZM112.71 8.6C112.393 8.6 112.169 8.54867 112.038 8.446C111.908 8.34333 111.842 8.16133 111.842 7.9V7.634C111.842 7.37267 111.912 7.19067 112.052 7.088C112.192 6.98533 112.416 6.934 112.724 6.934C113.051 6.934 113.28 6.98533 113.41 7.088C113.541 7.19067 113.606 7.37267 113.606 7.634V7.9C113.606 8.17067 113.536 8.35733 113.396 8.46C113.266 8.55333 113.037 8.6 112.71 8.6ZM118.903 15.418C119.034 15.418 119.15 15.4833 119.253 15.614C119.365 15.7353 119.421 15.8987 119.421 16.104C119.421 16.356 119.281 16.5707 119.001 16.748C118.73 16.916 118.422 17 118.077 17C117.498 17 117.008 16.8787 116.607 16.636C116.215 16.384 116.019 15.8567 116.019 15.054V11.19H115.375C115.151 11.19 114.964 11.1153 114.815 10.966C114.666 10.8167 114.591 10.63 114.591 10.406C114.591 10.1913 114.666 10.014 114.815 9.874C114.964 9.72467 115.151 9.65 115.375 9.65H116.019V8.754C116.019 8.51133 116.098 8.31067 116.257 8.152C116.425 7.984 116.63 7.9 116.873 7.9C117.106 7.9 117.302 7.984 117.461 8.152C117.62 8.31067 117.699 8.51133 117.699 8.754V9.65H118.693C118.917 9.65 119.104 9.72467 119.253 9.874C119.402 10.0233 119.477 10.21 119.477 10.434C119.477 10.6487 119.402 10.8307 119.253 10.98C119.104 11.12 118.917 11.19 118.693 11.19H117.699V14.984C117.699 15.18 117.75 15.3247 117.853 15.418C117.956 15.502 118.096 15.544 118.273 15.544C118.348 15.544 118.45 15.5253 118.581 15.488C118.693 15.4413 118.8 15.418 118.903 15.418ZM126.577 9.51C126.82 9.51 127.021 9.594 127.179 9.762C127.338 9.92067 127.417 10.1213 127.417 10.364V16.314C127.417 17.5273 127.091 18.4093 126.437 18.96C125.784 19.52 124.911 19.8 123.819 19.8C123.502 19.8 123.175 19.772 122.839 19.716C122.513 19.6693 122.247 19.604 122.041 19.52C121.584 19.324 121.355 19.0533 121.355 18.708C121.355 18.6427 121.369 18.568 121.397 18.484C121.453 18.2787 121.547 18.12 121.677 18.008C121.817 17.9053 121.967 17.854 122.125 17.854C122.219 17.854 122.307 17.868 122.391 17.896C122.457 17.924 122.569 17.9707 122.727 18.036C122.895 18.1013 123.068 18.1527 123.245 18.19C123.432 18.2367 123.623 18.26 123.819 18.26C124.482 18.26 124.967 18.1153 125.275 17.826C125.593 17.546 125.751 17.0607 125.751 16.37V16.23C125.266 16.8367 124.51 17.14 123.483 17.14C122.998 17.14 122.569 17.028 122.195 16.804C121.822 16.5707 121.533 16.2533 121.327 15.852C121.122 15.4413 121.019 14.9747 121.019 14.452V10.364C121.019 10.1213 121.099 9.92067 121.257 9.762C121.416 9.594 121.617 9.51 121.859 9.51C122.102 9.51 122.303 9.594 122.461 9.762C122.62 9.92067 122.699 10.1213 122.699 10.364V13.948C122.699 14.536 122.825 14.9607 123.077 15.222C123.339 15.474 123.717 15.6 124.211 15.6C124.697 15.6 125.07 15.46 125.331 15.18C125.602 14.8907 125.737 14.48 125.737 13.948V10.364C125.737 10.1213 125.817 9.92067 125.975 9.762C126.134 9.594 126.335 9.51 126.577 9.51ZM138.704 15.362C138.947 15.362 139.147 15.4413 139.306 15.6C139.474 15.7493 139.558 15.9453 139.558 16.188C139.558 16.4213 139.474 16.6173 139.306 16.776C139.147 16.9253 138.947 17 138.704 17H134.154C133.911 17 133.706 16.9207 133.538 16.762C133.379 16.594 133.3 16.3887 133.3 16.146V8.054C133.3 7.81133 133.384 7.61067 133.552 7.452C133.72 7.284 133.935 7.2 134.196 7.2C134.429 7.2 134.63 7.284 134.798 7.452C134.966 7.61067 135.05 7.81133 135.05 8.054V15.362H138.704ZM147.083 9.37C147.326 9.37 147.527 9.44933 147.685 9.608C147.844 9.76667 147.923 9.972 147.923 10.224V16.146C147.923 16.3887 147.844 16.594 147.685 16.762C147.527 16.9207 147.326 17 147.083 17C146.841 17 146.64 16.9207 146.481 16.762C146.332 16.6033 146.253 16.4027 146.243 16.16C146.01 16.4307 145.693 16.664 145.291 16.86C144.899 17.0467 144.484 17.14 144.045 17.14C143.401 17.14 142.818 16.9767 142.295 16.65C141.773 16.314 141.357 15.852 141.049 15.264C140.751 14.676 140.601 14.0087 140.601 13.262C140.601 12.5153 140.751 11.848 141.049 11.26C141.348 10.6627 141.754 10.2007 142.267 9.874C142.79 9.538 143.364 9.37 143.989 9.37C144.437 9.37 144.857 9.454 145.249 9.622C145.641 9.78067 145.973 9.986 146.243 10.238V10.224C146.243 9.98133 146.323 9.78067 146.481 9.622C146.64 9.454 146.841 9.37 147.083 9.37ZM144.255 15.6C144.862 15.6 145.357 15.3807 145.739 14.942C146.122 14.494 146.313 13.934 146.313 13.262C146.313 12.59 146.122 12.03 145.739 11.582C145.357 11.134 144.862 10.91 144.255 10.91C143.658 10.91 143.168 11.134 142.785 11.582C142.403 12.03 142.211 12.59 142.211 13.262C142.211 13.934 142.398 14.494 142.771 14.942C143.154 15.3807 143.649 15.6 144.255 15.6ZM158.286 9.51C158.51 9.51 158.697 9.594 158.846 9.762C159.005 9.92067 159.084 10.126 159.084 10.378C159.084 10.462 159.065 10.5693 159.028 10.7L156.886 16.468C156.83 16.636 156.727 16.7713 156.578 16.874C156.438 16.9673 156.284 17.014 156.116 17.014L156.004 17C155.687 16.9813 155.449 16.804 155.29 16.468L154.1 13.024L152.966 16.468C152.807 16.804 152.569 16.9813 152.252 17L152.14 17.014C151.972 17.014 151.813 16.9673 151.664 16.874C151.524 16.7713 151.426 16.636 151.37 16.468L149.228 10.7C149.191 10.5973 149.172 10.49 149.172 10.378C149.172 10.1447 149.247 9.944 149.396 9.776C149.555 9.59867 149.76 9.51 150.012 9.51C150.199 9.51 150.357 9.55667 150.488 9.65C150.628 9.734 150.726 9.86467 150.782 10.042L152.294 14.144L153.4 11.148C153.549 10.8027 153.806 10.63 154.17 10.63C154.366 10.63 154.515 10.672 154.618 10.756C154.73 10.84 154.823 10.9707 154.898 11.148L155.976 14.074L157.474 10.042C157.53 9.86467 157.628 9.734 157.768 9.65C157.908 9.55667 158.081 9.51 158.286 9.51ZM42.3 39.46C42.524 39.46 42.7107 39.5347 42.86 39.684C43.0093 39.8333 43.084 40.02 43.084 40.244C43.084 40.4587 43.0093 40.6407 42.86 40.79C42.7107 40.93 42.524 41 42.3 41H37.54C37.2973 41 37.106 40.9253 36.966 40.776C36.826 40.6267 36.756 40.4353 36.756 40.202C36.756 39.9687 36.84 39.7633 37.008 39.586L40.06 36.324C40.4053 35.9507 40.676 35.5773 40.872 35.204C41.0773 34.8213 41.18 34.4713 41.18 34.154C41.18 33.734 41.0307 33.37 40.732 33.062C40.4333 32.754 40.088 32.6 39.696 32.6C39.4253 32.6 39.15 32.6933 38.87 32.88C38.5993 33.0573 38.352 33.2953 38.128 33.594C37.96 33.818 37.7453 33.93 37.484 33.93C37.2787 33.93 37.0873 33.8507 36.91 33.692C36.742 33.5333 36.658 33.356 36.658 33.16C36.658 33.02 36.7047 32.88 36.798 32.74C36.8913 32.5907 37.0313 32.4227 37.218 32.236C37.5727 31.8813 37.9833 31.5967 38.45 31.382C38.9167 31.1673 39.3647 31.06 39.794 31.06C40.41 31.06 40.9513 31.1907 41.418 31.452C41.8847 31.7133 42.244 32.0727 42.496 32.53C42.748 32.9873 42.874 33.5053 42.874 34.084C42.874 34.6533 42.72 35.2413 42.412 35.848C42.1133 36.4453 41.7073 37.0193 41.194 37.57L39.416 39.46H42.3ZM47.8039 41.14C47.0199 41.14 46.3432 40.93 45.7739 40.51C45.2139 40.09 44.7892 39.502 44.4999 38.746C44.2105 37.9807 44.0659 37.0987 44.0659 36.1C44.0659 35.1013 44.2105 34.224 44.4999 33.468C44.7892 32.7027 45.2139 32.11 45.7739 31.69C46.3432 31.27 47.0199 31.06 47.8039 31.06C48.5879 31.06 49.2599 31.27 49.8199 31.69C50.3892 32.11 50.8185 32.7027 51.1079 33.468C51.3972 34.224 51.5419 35.1013 51.5419 36.1C51.5419 37.0987 51.3972 37.9807 51.1079 38.746C50.8185 39.502 50.3892 40.09 49.8199 40.51C49.2599 40.93 48.5879 41.14 47.8039 41.14ZM47.8039 39.46C48.4012 39.46 48.8679 39.1753 49.2039 38.606C49.5492 38.0367 49.7219 37.2013 49.7219 36.1C49.7219 34.9987 49.5492 34.1633 49.2039 33.594C48.8679 33.0247 48.4012 32.74 47.8039 32.74C47.2065 32.74 46.7352 33.0247 46.3899 33.594C46.0539 34.1633 45.8859 34.9987 45.8859 36.1C45.8859 37.2013 46.0539 38.0367 46.3899 38.606C46.7352 39.1753 47.2065 39.46 47.8039 39.46ZM58.4055 39.46C58.6295 39.46 58.8161 39.5347 58.9655 39.684C59.1148 39.8333 59.1895 40.02 59.1895 40.244C59.1895 40.4587 59.1148 40.6407 58.9655 40.79C58.8161 40.93 58.6295 41 58.4055 41H53.6455C53.4028 41 53.2115 40.9253 53.0715 40.776C52.9315 40.6267 52.8615 40.4353 52.8615 40.202C52.8615 39.9687 52.9455 39.7633 53.1135 39.586L56.1655 36.324C56.5108 35.9507 56.7815 35.5773 56.9775 35.204C57.1828 34.8213 57.2855 34.4713 57.2855 34.154C57.2855 33.734 57.1361 33.37 56.8375 33.062C56.5388 32.754 56.1935 32.6 55.8015 32.6C55.5308 32.6 55.2555 32.6933 54.9755 32.88C54.7048 33.0573 54.4575 33.2953 54.2335 33.594C54.0655 33.818 53.8508 33.93 53.5895 33.93C53.3841 33.93 53.1928 33.8507 53.0155 33.692C52.8475 33.5333 52.7635 33.356 52.7635 33.16C52.7635 33.02 52.8101 32.88 52.9035 32.74C52.9968 32.5907 53.1368 32.4227 53.3235 32.236C53.6781 31.8813 54.0888 31.5967 54.5555 31.382C55.0221 31.1673 55.4701 31.06 55.8995 31.06C56.5155 31.06 57.0568 31.1907 57.5235 31.452C57.9901 31.7133 58.3495 32.0727 58.6015 32.53C58.8535 32.9873 58.9795 33.5053 58.9795 34.084C58.9795 34.6533 58.8255 35.2413 58.5175 35.848C58.2188 36.4453 57.8128 37.0193 57.2995 37.57L55.5215 39.46H58.4055ZM62.8313 31.2C63.0647 31.2 63.2607 31.284 63.4193 31.452C63.578 31.6107 63.6573 31.8113 63.6573 32.054V40.146C63.6573 40.3887 63.5687 40.594 63.3913 40.762C63.214 40.9207 62.9947 41 62.7333 41C62.472 41 62.2573 40.9207 62.0893 40.762C61.9213 40.594 61.8373 40.3887 61.8373 40.146V33.51L60.9693 34.042C60.8293 34.126 60.68 34.168 60.5213 34.168C60.288 34.168 60.0873 34.0793 59.9193 33.902C59.7607 33.7247 59.6813 33.5287 59.6813 33.314C59.6813 33.1647 59.7187 33.0247 59.7933 32.894C59.8773 32.7633 59.9847 32.6607 60.1153 32.586L62.2293 31.326C62.388 31.242 62.5887 31.2 62.8313 31.2ZM72.7228 43.548C72.5828 43.548 72.4568 43.5107 72.3448 43.436C71.2808 42.7267 70.4641 41.8493 69.8948 40.804C69.3348 39.7493 69.0548 38.606 69.0548 37.374C69.0548 36.142 69.3348 35.0033 69.8948 33.958C70.4641 32.9033 71.2808 32.0213 72.3448 31.312C72.4568 31.2373 72.5828 31.2 72.7228 31.2C72.9281 31.2 73.0961 31.2793 73.2268 31.438C73.3574 31.5967 73.4228 31.76 73.4228 31.928C73.4228 32.1427 73.3248 32.3293 73.1288 32.488C72.3354 33.104 71.7381 33.832 71.3368 34.672C70.9448 35.512 70.7488 36.4127 70.7488 37.374C70.7488 38.354 70.9448 39.2733 71.3368 40.132C71.7288 40.9813 72.3261 41.6907 73.1288 42.26C73.3248 42.4 73.4228 42.5867 73.4228 42.82C73.4228 42.9973 73.3528 43.1607 73.2128 43.31C73.0728 43.4687 72.9094 43.548 72.7228 43.548ZM81.5487 31.676C81.838 31.8253 81.9827 32.0633 81.9827 32.39C81.9827 32.586 81.9127 32.7773 81.7727 32.964C81.6233 33.16 81.432 33.258 81.1987 33.258C81.04 33.258 80.8813 33.216 80.7227 33.132C80.2653 32.9173 79.7707 32.81 79.2387 32.81C78.5853 32.81 78.016 32.95 77.5307 33.23C77.0453 33.5007 76.672 33.888 76.4107 34.392C76.1493 34.8867 76.0187 35.456 76.0187 36.1C76.0187 37.2013 76.3127 38.0367 76.9007 38.606C77.498 39.1753 78.2773 39.46 79.2387 39.46C79.808 39.46 80.3027 39.3527 80.7227 39.138C80.8907 39.0633 81.04 39.026 81.1707 39.026C81.4133 39.026 81.6187 39.1287 81.7867 39.334C81.9267 39.5113 81.9967 39.7027 81.9967 39.908C81.9967 40.0573 81.9593 40.1927 81.8847 40.314C81.81 40.4353 81.7027 40.5287 81.5627 40.594C80.8347 40.958 80.06 41.14 79.2387 41.14C78.324 41.14 77.484 40.9487 76.7187 40.566C75.9533 40.174 75.342 39.6 74.8847 38.844C74.4273 38.088 74.1987 37.1733 74.1987 36.1C74.1987 35.148 74.4133 34.294 74.8427 33.538C75.2813 32.782 75.8833 32.194 76.6487 31.774C77.414 31.3447 78.2773 31.13 79.2387 31.13C80.0693 31.13 80.8393 31.312 81.5487 31.676ZM87.26 33.37C88.184 33.37 88.8233 33.6547 89.178 34.224C89.5327 34.784 89.71 35.5633 89.71 36.562V40.146C89.71 40.3887 89.6307 40.594 89.472 40.762C89.3133 40.9207 89.1127 41 88.87 41C88.6273 41 88.4267 40.9207 88.268 40.762C88.1093 40.594 88.03 40.3887 88.03 40.146V36.562C88.03 36.0487 87.9273 35.6473 87.722 35.358C87.526 35.0593 87.176 34.91 86.672 34.91C86.1493 34.91 85.7387 35.0687 85.44 35.386C85.1507 35.694 85.006 36.086 85.006 36.562V40.146C85.006 40.3887 84.9267 40.594 84.768 40.762C84.6093 40.9207 84.4087 41 84.166 41C83.9233 41 83.7227 40.9207 83.564 40.762C83.4053 40.594 83.326 40.3887 83.326 40.146V31.494C83.326 31.2513 83.4053 31.0507 83.564 30.892C83.7227 30.724 83.9233 30.64 84.166 30.64C84.4087 30.64 84.6093 30.724 84.768 30.892C84.9267 31.0507 85.006 31.2513 85.006 31.494V34.588C85.258 34.252 85.5753 33.9673 85.958 33.734C86.35 33.4913 86.784 33.37 87.26 33.37ZM93.1111 40.146C93.1111 40.3887 93.0318 40.594 92.8731 40.762C92.7145 40.9207 92.5138 41 92.2711 41C92.0285 41 91.8278 40.9207 91.6691 40.762C91.5105 40.594 91.4311 40.3887 91.4311 40.146V34.364C91.4311 34.1213 91.5105 33.9207 91.6691 33.762C91.8278 33.594 92.0285 33.51 92.2711 33.51C92.5138 33.51 92.7145 33.594 92.8731 33.762C93.0318 33.9207 93.1111 34.1213 93.1111 34.364V40.146ZM92.2571 32.6C91.9398 32.6 91.7158 32.5487 91.5851 32.446C91.4545 32.3433 91.3891 32.1613 91.3891 31.9V31.634C91.3891 31.3727 91.4591 31.1907 91.5991 31.088C91.7391 30.9853 91.9631 30.934 92.2711 30.934C92.5978 30.934 92.8265 30.9853 92.9571 31.088C93.0878 31.1907 93.1531 31.3727 93.1531 31.634V31.9C93.1531 32.1707 93.0831 32.3573 92.9431 32.46C92.8125 32.5533 92.5838 32.6 92.2571 32.6ZM98.8417 33.37C99.7937 33.37 100.452 33.6547 100.816 34.224C101.18 34.784 101.362 35.5633 101.362 36.562V40.146C101.362 40.3887 101.282 40.594 101.124 40.762C100.965 40.9207 100.764 41 100.522 41C100.279 41 100.078 40.9207 99.9197 40.762C99.7611 40.594 99.6817 40.3887 99.6817 40.146V36.562C99.6817 36.0487 99.5744 35.6473 99.3597 35.358C99.1451 35.0593 98.7764 34.91 98.2537 34.91C97.7124 34.91 97.2877 35.0687 96.9797 35.386C96.6717 35.694 96.5177 36.086 96.5177 36.562V40.146C96.5177 40.3887 96.4384 40.594 96.2797 40.762C96.1211 40.9207 95.9204 41 95.6777 41C95.4351 41 95.2344 40.9207 95.0757 40.762C94.9171 40.594 94.8377 40.3887 94.8377 40.146V34.364C94.8377 34.1213 94.9171 33.9207 95.0757 33.762C95.2344 33.594 95.4351 33.51 95.6777 33.51C95.9204 33.51 96.1211 33.594 96.2797 33.762C96.4384 33.9207 96.5177 34.1213 96.5177 34.364V34.602C96.7697 34.266 97.0964 33.9767 97.4977 33.734C97.9084 33.4913 98.3564 33.37 98.8417 33.37ZM109.24 33.37C109.482 33.37 109.683 33.4493 109.842 33.608C110 33.7667 110.08 33.972 110.08 34.224V40.146C110.08 40.3887 110 40.594 109.842 40.762C109.683 40.9207 109.482 41 109.24 41C108.997 41 108.796 40.9207 108.638 40.762C108.488 40.6033 108.409 40.4027 108.4 40.16C108.166 40.4307 107.849 40.664 107.448 40.86C107.056 41.0467 106.64 41.14 106.202 41.14C105.558 41.14 104.974 40.9767 104.452 40.65C103.929 40.314 103.514 39.852 103.206 39.264C102.907 38.676 102.758 38.0087 102.758 37.262C102.758 36.5153 102.907 35.848 103.206 35.26C103.504 34.6627 103.91 34.2007 104.424 33.874C104.946 33.538 105.52 33.37 106.146 33.37C106.594 33.37 107.014 33.454 107.406 33.622C107.798 33.7807 108.129 33.986 108.4 34.238V34.224C108.4 33.9813 108.479 33.7807 108.638 33.622C108.796 33.454 108.997 33.37 109.24 33.37ZM106.412 39.6C107.018 39.6 107.513 39.3807 107.896 38.942C108.278 38.494 108.47 37.934 108.47 37.262C108.47 36.59 108.278 36.03 107.896 35.582C107.513 35.134 107.018 34.91 106.412 34.91C105.814 34.91 105.324 35.134 104.942 35.582C104.559 36.03 104.368 36.59 104.368 37.262C104.368 37.934 104.554 38.494 104.928 38.942C105.31 39.3807 105.805 39.6 106.412 39.6ZM111.9 43.548C111.695 43.548 111.527 43.4687 111.396 43.31C111.266 43.1513 111.2 42.988 111.2 42.82C111.2 42.6053 111.298 42.4187 111.494 42.26C112.288 41.644 112.88 40.916 113.272 40.076C113.674 39.236 113.874 38.3353 113.874 37.374C113.874 36.394 113.678 35.4793 113.286 34.63C112.894 33.7713 112.297 33.0573 111.494 32.488C111.298 32.348 111.2 32.1613 111.2 31.928C111.2 31.7507 111.27 31.5873 111.41 31.438C111.55 31.2793 111.714 31.2 111.9 31.2C112.04 31.2 112.166 31.2373 112.278 31.312C113.342 32.0213 114.154 32.9033 114.714 33.958C115.284 35.0033 115.568 36.142 115.568 37.374C115.568 38.606 115.284 39.7493 114.714 40.804C114.154 41.8493 113.342 42.7267 112.278 43.436C112.166 43.5107 112.04 43.548 111.9 43.548Z" fill="#5B588F"/>
<path d="M12 36C18.6274 36 24 30.6274 24 24C24 17.3726 18.6274 12 12 12C5.37258 12 0 17.3726 0 24C0 30.6274 5.37258 36 12 36Z" fill="#D80027"/>
<path d="M6.56719 19.3032L7.60312 22.4907H10.9547L8.24531 24.4642L9.28125 27.6517L6.56719 25.6829L3.85313 27.6517L4.89375 24.4642L2.17969 22.4907H5.53125L6.56719 19.3032Z" fill="#FFDA44"/>
<path d="M14.2266 30.586L13.4344 29.611L12.2625 30.0657L12.9422 29.011L12.15 28.0313L13.3641 28.3547L14.0485 27.3L14.1141 28.5563L15.3328 28.8797L14.1563 29.3297L14.2266 30.586Z" fill="#FFDA44"/>
<path d="M15.8016 27.7266L16.1766 26.5266L15.15 25.8L16.4063 25.7813L16.7766 24.5813L17.1844 25.7719L18.4406 25.7579L17.4328 26.5079L17.836 27.6985L16.8094 26.9719L15.8016 27.7266Z" fill="#FFDA44"/>
<path d="M17.925 20.8078L17.3719 21.9375L18.2719 22.8141L17.0297 22.636L16.4765 23.761L16.2609 22.5235L15.014 22.3453L16.1297 21.7594L15.914 20.5172L16.814 21.3938L17.925 20.8078Z" fill="#FFDA44"/>
<path d="M14.2594 17.386L14.1657 18.6375L15.3329 19.111L14.1094 19.411L14.0204 20.6672L13.3594 19.5985L12.136 19.8985L12.9469 18.9375L12.2813 17.8735L13.4485 18.3469L14.2594 17.386Z" fill="#FFDA44"/>
</svg>
