<svg width="180" height="56" viewBox="0 0 180 56" fill="none" xmlns="http://www.w3.org/2000/svg">
<path d="M165 6L171 12L165 18" stroke="white" stroke-width="1.68424" stroke-linecap="round" stroke-linejoin="round"/>
<path d="M44.17 7.012C44.482 7.168 44.662 7.414 44.71 7.75C44.77 8.086 44.686 8.392 44.458 8.668C44.302 8.884 44.098 9.004 43.846 9.028C43.606 9.052 43.36 9.004 43.108 8.884C42.82 8.752 42.514 8.65 42.19 8.578C41.878 8.506 41.548 8.47 41.2 8.47C40.552 8.47 39.97 8.572 39.454 8.776C38.95 8.98 38.518 9.274 38.158 9.658C37.798 10.03 37.522 10.474 37.33 10.99C37.15 11.506 37.06 12.076 37.06 12.7C37.06 13.432 37.162 14.068 37.366 14.608C37.582 15.148 37.876 15.598 38.248 15.958C38.62 16.318 39.058 16.588 39.562 16.768C40.066 16.936 40.612 17.02 41.2 17.02C41.524 17.02 41.848 16.99 42.172 16.93C42.496 16.87 42.808 16.762 43.108 16.606C43.36 16.486 43.606 16.444 43.846 16.48C44.098 16.516 44.308 16.642 44.476 16.858C44.716 17.158 44.8 17.47 44.728 17.794C44.668 18.106 44.488 18.334 44.188 18.478C43.876 18.634 43.552 18.766 43.216 18.874C42.892 18.97 42.562 19.042 42.226 19.09C41.89 19.15 41.548 19.18 41.2 19.18C40.336 19.18 39.514 19.042 38.734 18.766C37.966 18.49 37.276 18.082 36.664 17.542C36.064 17.002 35.59 16.33 35.242 15.526C34.894 14.71 34.72 13.768 34.72 12.7C34.72 11.776 34.876 10.924 35.188 10.144C35.512 9.364 35.962 8.692 36.538 8.128C37.126 7.552 37.816 7.108 38.608 6.796C39.4 6.472 40.264 6.31 41.2 6.31C41.728 6.31 42.244 6.37 42.748 6.49C43.252 6.61 43.726 6.784 44.17 7.012ZM55.7972 14.194C55.7972 15.178 55.5752 16.048 55.1312 16.804C54.6992 17.548 54.1112 18.13 53.3672 18.55C52.6352 18.97 51.8132 19.18 50.9012 19.18C49.9892 19.18 49.1612 18.97 48.4172 18.55C47.6852 18.13 47.0972 17.548 46.6532 16.804C46.2212 16.048 46.0052 15.178 46.0052 14.194C46.0052 13.21 46.2212 12.346 46.6532 11.602C47.0972 10.846 47.6852 10.258 48.4172 9.838C49.1612 9.406 49.9892 9.19 50.9012 9.19C51.8132 9.19 52.6352 9.406 53.3672 9.838C54.1112 10.258 54.6992 10.846 55.1312 11.602C55.5752 12.346 55.7972 13.21 55.7972 14.194ZM53.6372 14.194C53.6372 13.582 53.5112 13.054 53.2592 12.61C53.0192 12.154 52.6892 11.8 52.2692 11.548C51.8612 11.296 51.4052 11.17 50.9012 11.17C50.3972 11.17 49.9352 11.296 49.5152 11.548C49.1072 11.8 48.7772 12.154 48.5252 12.61C48.2852 13.054 48.1652 13.582 48.1652 14.194C48.1652 14.794 48.2852 15.322 48.5252 15.778C48.7772 16.222 49.1072 16.57 49.5152 16.822C49.9352 17.074 50.3972 17.2 50.9012 17.2C51.4052 17.2 51.8612 17.074 52.2692 16.822C52.6892 16.57 53.0192 16.222 53.2592 15.778C53.5112 15.322 53.6372 14.794 53.6372 14.194ZM62.7456 9.19C63.7056 9.19 64.4136 9.424 64.8696 9.892C65.3256 10.348 65.6256 10.942 65.7696 11.674L65.4636 11.512L65.6076 11.224C65.7516 10.948 65.9736 10.654 66.2736 10.342C66.5736 10.018 66.9336 9.748 67.3536 9.532C67.7856 9.304 68.2656 9.19 68.7936 9.19C69.6576 9.19 70.3116 9.376 70.7556 9.748C71.2116 10.12 71.5236 10.618 71.6916 11.242C71.8596 11.854 71.9436 12.538 71.9436 13.294V17.902C71.9436 18.214 71.8416 18.478 71.6376 18.694C71.4336 18.898 71.1756 19 70.8636 19C70.5516 19 70.2936 18.898 70.0896 18.694C69.8856 18.478 69.7836 18.214 69.7836 17.902V13.294C69.7836 12.898 69.7356 12.544 69.6396 12.232C69.5436 11.908 69.3696 11.65 69.1176 11.458C68.8656 11.266 68.5056 11.17 68.0376 11.17C67.5816 11.17 67.1916 11.266 66.8676 11.458C66.5436 11.65 66.2976 11.908 66.1296 12.232C65.9736 12.544 65.8956 12.898 65.8956 13.294V17.902C65.8956 18.214 65.7936 18.478 65.5896 18.694C65.3856 18.898 65.1276 19 64.8156 19C64.5036 19 64.2456 18.898 64.0416 18.694C63.8376 18.478 63.7356 18.214 63.7356 17.902V13.294C63.7356 12.898 63.6876 12.544 63.5916 12.232C63.4956 11.908 63.3216 11.65 63.0696 11.458C62.8176 11.266 62.4576 11.17 61.9896 11.17C61.5336 11.17 61.1436 11.266 60.8196 11.458C60.4956 11.65 60.2496 11.908 60.0816 12.232C59.9256 12.544 59.8476 12.898 59.8476 13.294V17.902C59.8476 18.214 59.7456 18.478 59.5416 18.694C59.3376 18.898 59.0796 19 58.7676 19C58.4556 19 58.1976 18.898 57.9936 18.694C57.7896 18.478 57.6876 18.214 57.6876 17.902V10.468C57.6876 10.156 57.7896 9.898 57.9936 9.694C58.1976 9.478 58.4556 9.37 58.7676 9.37C59.0796 9.37 59.3376 9.478 59.5416 9.694C59.7456 9.898 59.8476 10.156 59.8476 10.468V11.242L59.5776 11.188C59.6856 10.984 59.8356 10.768 60.0276 10.54C60.2196 10.3 60.4536 10.078 60.7296 9.874C61.0056 9.67 61.3116 9.508 61.6476 9.388C61.9836 9.256 62.3496 9.19 62.7456 9.19ZM79.2673 9.19C80.1073 9.19 80.8573 9.406 81.5173 9.838C82.1893 10.258 82.7173 10.84 83.1013 11.584C83.4973 12.328 83.6953 13.192 83.6953 14.176C83.6953 15.16 83.4973 16.03 83.1013 16.786C82.7173 17.53 82.1953 18.118 81.5353 18.55C80.8873 18.97 80.1553 19.18 79.3393 19.18C78.8593 19.18 78.4093 19.102 77.9893 18.946C77.5693 18.79 77.1973 18.592 76.8733 18.352C76.5613 18.112 76.3153 17.872 76.1353 17.632C75.9673 17.38 75.8833 17.17 75.8833 17.002L76.4413 16.768V21.502C76.4413 21.814 76.3393 22.072 76.1353 22.276C75.9313 22.492 75.6733 22.6 75.3613 22.6C75.0493 22.6 74.7913 22.498 74.5873 22.294C74.3833 22.09 74.2813 21.826 74.2813 21.502V10.468C74.2813 10.156 74.3833 9.898 74.5873 9.694C74.7913 9.478 75.0493 9.37 75.3613 9.37C75.6733 9.37 75.9313 9.478 76.1353 9.694C76.3393 9.898 76.4413 10.156 76.4413 10.468V11.35L76.1353 11.188C76.1353 11.032 76.2193 10.846 76.3873 10.63C76.5553 10.402 76.7833 10.18 77.0713 9.964C77.3593 9.736 77.6893 9.55 78.0613 9.406C78.4453 9.262 78.8473 9.19 79.2673 9.19ZM78.9973 11.17C78.4693 11.17 78.0073 11.302 77.6113 11.566C77.2153 11.83 76.9033 12.19 76.6753 12.646C76.4593 13.09 76.3513 13.6 76.3513 14.176C76.3513 14.74 76.4593 15.256 76.6753 15.724C76.9033 16.18 77.2153 16.54 77.6113 16.804C78.0073 17.068 78.4693 17.2 78.9973 17.2C79.5253 17.2 79.9813 17.068 80.3653 16.804C80.7613 16.54 81.0673 16.18 81.2833 15.724C81.5113 15.256 81.6253 14.74 81.6253 14.176C81.6253 13.6 81.5113 13.09 81.2833 12.646C81.0673 12.19 80.7613 11.83 80.3653 11.566C79.9813 11.302 79.5253 11.17 78.9973 11.17ZM87.9241 17.902C87.9241 18.214 87.8161 18.478 87.6001 18.694C87.3961 18.898 87.1381 19 86.8261 19C86.5261 19 86.2741 18.898 86.0701 18.694C85.8661 18.478 85.7641 18.214 85.7641 17.902V6.778C85.7641 6.466 85.8661 6.208 86.0701 6.004C86.2861 5.788 86.5501 5.68 86.8621 5.68C87.1741 5.68 87.4261 5.788 87.6181 6.004C87.8221 6.208 87.9241 6.466 87.9241 6.778V17.902ZM92.4696 17.902C92.4696 18.214 92.3676 18.478 92.1636 18.694C91.9596 18.898 91.7016 19 91.3896 19C91.0776 19 90.8196 18.898 90.6156 18.694C90.4116 18.478 90.3096 18.214 90.3096 17.902V10.468C90.3096 10.156 90.4116 9.898 90.6156 9.694C90.8196 9.478 91.0776 9.37 91.3896 9.37C91.7016 9.37 91.9596 9.478 92.1636 9.694C92.3676 9.898 92.4696 10.156 92.4696 10.468V17.902ZM91.3716 8.2C90.9636 8.2 90.6756 8.134 90.5076 8.002C90.3396 7.87 90.2556 7.636 90.2556 7.3V6.958C90.2556 6.61 90.3456 6.376 90.5256 6.256C90.7176 6.124 91.0056 6.058 91.3896 6.058C91.8096 6.058 92.1036 6.124 92.2716 6.256C92.4396 6.388 92.5236 6.622 92.5236 6.958V7.3C92.5236 7.648 92.4336 7.888 92.2536 8.02C92.0736 8.14 91.7796 8.2 91.3716 8.2ZM102.574 9.19C102.886 9.19 103.144 9.292 103.348 9.496C103.552 9.7 103.654 9.964 103.654 10.288V17.902C103.654 18.214 103.552 18.478 103.348 18.694C103.144 18.898 102.886 19 102.574 19C102.262 19 102.004 18.898 101.8 18.694C101.596 18.478 101.494 18.214 101.494 17.902V17.02L101.89 17.182C101.89 17.338 101.806 17.53 101.638 17.758C101.47 17.974 101.242 18.19 100.954 18.406C100.666 18.622 100.324 18.808 99.9275 18.964C99.5435 19.108 99.1235 19.18 98.6675 19.18C97.8395 19.18 97.0895 18.97 96.4175 18.55C95.7455 18.118 95.2115 17.53 94.8155 16.786C94.4315 16.03 94.2395 15.166 94.2395 14.194C94.2395 13.21 94.4315 12.346 94.8155 11.602C95.2115 10.846 95.7395 10.258 96.3995 9.838C97.0595 9.406 97.7915 9.19 98.5955 9.19C99.1115 9.19 99.5855 9.268 100.018 9.424C100.45 9.58 100.822 9.778 101.134 10.018C101.458 10.258 101.704 10.504 101.872 10.756C102.052 10.996 102.142 11.2 102.142 11.368L101.494 11.602V10.288C101.494 9.976 101.596 9.718 101.8 9.514C102.004 9.298 102.262 9.19 102.574 9.19ZM98.9375 17.2C99.4655 17.2 99.9275 17.068 100.324 16.804C100.72 16.54 101.026 16.18 101.242 15.724C101.47 15.268 101.584 14.758 101.584 14.194C101.584 13.618 101.47 13.102 101.242 12.646C101.026 12.19 100.72 11.83 100.324 11.566C99.9275 11.302 99.4655 11.17 98.9375 11.17C98.4215 11.17 97.9655 11.302 97.5695 11.566C97.1735 11.83 96.8615 12.19 96.6335 12.646C96.4175 13.102 96.3095 13.618 96.3095 14.194C96.3095 14.758 96.4175 15.268 96.6335 15.724C96.8615 16.18 97.1735 16.54 97.5695 16.804C97.9655 17.068 98.4215 17.2 98.9375 17.2ZM111.14 9.19C112.028 9.19 112.7 9.376 113.156 9.748C113.624 10.12 113.942 10.618 114.11 11.242C114.29 11.854 114.38 12.538 114.38 13.294V17.902C114.38 18.214 114.278 18.478 114.074 18.694C113.87 18.898 113.612 19 113.3 19C112.988 19 112.73 18.898 112.526 18.694C112.322 18.478 112.22 18.214 112.22 17.902V13.294C112.22 12.898 112.166 12.544 112.058 12.232C111.962 11.908 111.782 11.65 111.518 11.458C111.254 11.266 110.876 11.17 110.384 11.17C109.904 11.17 109.496 11.266 109.16 11.458C108.836 11.65 108.584 11.908 108.404 12.232C108.236 12.544 108.152 12.898 108.152 13.294V17.902C108.152 18.214 108.05 18.478 107.846 18.694C107.642 18.898 107.384 19 107.072 19C106.76 19 106.502 18.898 106.298 18.694C106.094 18.478 105.992 18.214 105.992 17.902V10.468C105.992 10.156 106.094 9.898 106.298 9.694C106.502 9.478 106.76 9.37 107.072 9.37C107.384 9.37 107.642 9.478 107.846 9.694C108.05 9.898 108.152 10.156 108.152 10.468V11.242L107.882 11.188C107.99 10.984 108.146 10.768 108.35 10.54C108.554 10.3 108.794 10.078 109.07 9.874C109.346 9.67 109.658 9.508 110.006 9.388C110.354 9.256 110.732 9.19 111.14 9.19ZM120.999 9.19C121.683 9.19 122.277 9.262 122.781 9.406C123.297 9.55 123.693 9.754 123.969 10.018C124.257 10.27 124.401 10.576 124.401 10.936C124.401 11.176 124.329 11.404 124.185 11.62C124.041 11.824 123.831 11.926 123.555 11.926C123.363 11.926 123.201 11.902 123.069 11.854C122.949 11.794 122.841 11.722 122.745 11.638C122.649 11.554 122.535 11.476 122.403 11.404C122.283 11.332 122.097 11.278 121.845 11.242C121.605 11.194 121.425 11.17 121.305 11.17C120.693 11.17 120.171 11.302 119.739 11.566C119.319 11.83 118.995 12.19 118.767 12.646C118.539 13.09 118.425 13.606 118.425 14.194C118.425 14.77 118.539 15.286 118.767 15.742C119.007 16.186 119.331 16.54 119.739 16.804C120.159 17.068 120.639 17.2 121.179 17.2C121.479 17.2 121.737 17.182 121.953 17.146C122.169 17.11 122.349 17.056 122.493 16.984C122.661 16.888 122.811 16.786 122.943 16.678C123.075 16.57 123.273 16.516 123.537 16.516C123.849 16.516 124.089 16.618 124.257 16.822C124.425 17.014 124.509 17.254 124.509 17.542C124.509 17.842 124.341 18.118 124.005 18.37C123.669 18.61 123.225 18.808 122.673 18.964C122.133 19.108 121.545 19.18 120.909 19.18C119.961 19.18 119.139 18.964 118.443 18.532C117.747 18.088 117.207 17.488 116.823 16.732C116.451 15.976 116.265 15.13 116.265 14.194C116.265 13.21 116.463 12.346 116.859 11.602C117.267 10.846 117.825 10.258 118.533 9.838C119.253 9.406 120.075 9.19 120.999 9.19ZM130.602 19.18C129.582 19.18 128.694 18.97 127.938 18.55C127.194 18.118 126.618 17.536 126.21 16.804C125.814 16.072 125.616 15.244 125.616 14.32C125.616 13.24 125.832 12.322 126.264 11.566C126.708 10.798 127.284 10.21 127.992 9.802C128.7 9.394 129.45 9.19 130.242 9.19C130.854 9.19 131.43 9.316 131.97 9.568C132.522 9.82 133.008 10.168 133.428 10.612C133.848 11.044 134.178 11.548 134.418 12.124C134.67 12.7 134.796 13.312 134.796 13.96C134.784 14.248 134.67 14.482 134.454 14.662C134.238 14.842 133.986 14.932 133.698 14.932H126.822L126.282 13.132H132.888L132.492 13.492V13.006C132.468 12.658 132.342 12.346 132.114 12.07C131.898 11.794 131.622 11.578 131.286 11.422C130.962 11.254 130.614 11.17 130.242 11.17C129.882 11.17 129.546 11.218 129.234 11.314C128.922 11.41 128.652 11.572 128.424 11.8C128.196 12.028 128.016 12.334 127.884 12.718C127.752 13.102 127.686 13.588 127.686 14.176C127.686 14.824 127.818 15.376 128.082 15.832C128.358 16.276 128.706 16.618 129.126 16.858C129.558 17.086 130.014 17.2 130.494 17.2C130.938 17.2 131.292 17.164 131.556 17.092C131.82 17.02 132.03 16.936 132.186 16.84C132.354 16.732 132.504 16.642 132.636 16.57C132.852 16.462 133.056 16.408 133.248 16.408C133.512 16.408 133.728 16.498 133.896 16.678C134.076 16.858 134.166 17.068 134.166 17.308C134.166 17.632 133.998 17.926 133.662 18.19C133.35 18.454 132.912 18.688 132.348 18.892C131.784 19.084 131.202 19.18 130.602 19.18Z" fill="white"/>
<path d="M4.648 43.398L1.624 50.51C1.55867 50.6873 1.456 50.8273 1.316 50.93C1.18533 51.0233 1.04067 51.07 0.882 51.07C0.63 51.07 0.443333 51 0.322 50.86C0.200667 50.72 0.14 50.5473 0.14 50.342C0.14 50.258 0.154 50.1693 0.182 50.076L3.668 41.704C3.74267 41.5173 3.85467 41.3727 4.004 41.27C4.16267 41.1673 4.33067 41.1253 4.508 41.144C4.676 41.144 4.83 41.1953 4.97 41.298C5.11933 41.3913 5.22667 41.5267 5.292 41.704L8.736 49.908C8.78267 50.0293 8.806 50.1413 8.806 50.244C8.806 50.496 8.722 50.6967 8.554 50.846C8.39533 50.9953 8.218 51.07 8.022 51.07C7.854 51.07 7.7 51.0187 7.56 50.916C7.42933 50.8133 7.32667 50.6733 7.252 50.496L4.242 43.482L4.648 43.398ZM2.058 48.802L2.828 47.192H6.608L6.874 48.802H2.058ZM15.2727 43.51C15.5154 43.51 15.716 43.594 15.8747 43.762C16.0334 43.9207 16.1127 44.1213 16.1127 44.364V47.92C16.1127 48.9093 15.8374 49.6933 15.2867 50.272C14.736 50.8507 13.9427 51.14 12.9067 51.14C11.8707 51.14 11.0774 50.8507 10.5267 50.272C9.98535 49.6933 9.71469 48.9093 9.71469 47.92V44.364C9.71469 44.1213 9.79402 43.9207 9.95269 43.762C10.1114 43.594 10.312 43.51 10.5547 43.51C10.7974 43.51 10.998 43.594 11.1567 43.762C11.3154 43.9207 11.3947 44.1213 11.3947 44.364V47.92C11.3947 48.4893 11.5207 48.914 11.7727 49.194C12.0247 49.4647 12.4027 49.6 12.9067 49.6C13.42 49.6 13.8027 49.4647 14.0547 49.194C14.3067 48.914 14.4327 48.4893 14.4327 47.92V44.364C14.4327 44.1213 14.512 43.9207 14.6707 43.762C14.8294 43.594 15.03 43.51 15.2727 43.51ZM24.0635 40.64C24.3062 40.64 24.5068 40.7193 24.6655 40.878C24.8242 41.0367 24.9035 41.242 24.9035 41.494V50.146C24.9035 50.3887 24.8242 50.594 24.6655 50.762C24.5068 50.9207 24.3062 51 24.0635 51C23.8208 51 23.6202 50.9207 23.4615 50.762C23.3028 50.594 23.2235 50.3887 23.2235 50.146V49.46L23.5315 49.586C23.5315 49.7073 23.4662 49.8567 23.3355 50.034C23.2048 50.202 23.0275 50.37 22.8035 50.538C22.5795 50.706 22.3135 50.8507 22.0055 50.972C21.7068 51.084 21.3802 51.14 21.0255 51.14C20.3815 51.14 19.7982 50.9767 19.2755 50.65C18.7528 50.314 18.3375 49.8567 18.0295 49.278C17.7308 48.69 17.5815 48.018 17.5815 47.262C17.5815 46.4967 17.7308 45.8247 18.0295 45.246C18.3375 44.658 18.7482 44.2007 19.2615 43.874C19.7748 43.538 20.3442 43.37 20.9695 43.37C21.3708 43.37 21.7395 43.4307 22.0755 43.552C22.4115 43.6733 22.7008 43.8273 22.9435 44.014C23.1955 44.2007 23.3868 44.392 23.5175 44.588C23.6575 44.7747 23.7275 44.9333 23.7275 45.064L23.2235 45.246V41.494C23.2235 41.2513 23.3028 41.0507 23.4615 40.892C23.6202 40.724 23.8208 40.64 24.0635 40.64ZM21.2355 49.6C21.6462 49.6 22.0055 49.4973 22.3135 49.292C22.6215 49.0867 22.8595 48.8067 23.0275 48.452C23.2048 48.0973 23.2935 47.7007 23.2935 47.262C23.2935 46.814 23.2048 46.4127 23.0275 46.058C22.8595 45.7033 22.6215 45.4233 22.3135 45.218C22.0055 45.0127 21.6462 44.91 21.2355 44.91C20.8342 44.91 20.4795 45.0127 20.1715 45.218C19.8635 45.4233 19.6208 45.7033 19.4435 46.058C19.2755 46.4127 19.1915 46.814 19.1915 47.262C19.1915 47.7007 19.2755 48.0973 19.4435 48.452C19.6208 48.8067 19.8635 49.0867 20.1715 49.292C20.4795 49.4973 20.8342 49.6 21.2355 49.6ZM28.3045 50.146C28.3045 50.3887 28.2252 50.594 28.0665 50.762C27.9078 50.9207 27.7072 51 27.4645 51C27.2218 51 27.0212 50.9207 26.8625 50.762C26.7038 50.594 26.6245 50.3887 26.6245 50.146V44.364C26.6245 44.1213 26.7038 43.9207 26.8625 43.762C27.0212 43.594 27.2218 43.51 27.4645 43.51C27.7072 43.51 27.9078 43.594 28.0665 43.762C28.2252 43.9207 28.3045 44.1213 28.3045 44.364V50.146ZM27.4505 42.6C27.1332 42.6 26.9092 42.5487 26.7785 42.446C26.6478 42.3433 26.5825 42.1613 26.5825 41.9V41.634C26.5825 41.3633 26.6525 41.1813 26.7925 41.088C26.9418 40.9853 27.1658 40.934 27.4645 40.934C27.7912 40.934 28.0198 40.9853 28.1505 41.088C28.2812 41.1907 28.3465 41.3727 28.3465 41.634V41.9C28.3465 42.1707 28.2765 42.3573 28.1365 42.46C27.9965 42.5533 27.7678 42.6 27.4505 42.6ZM30.1151 43.65H33.4331C33.6571 43.65 33.8438 43.7247 33.9931 43.874C34.1424 44.0233 34.2171 44.21 34.2171 44.434C34.2171 44.6487 34.1424 44.8307 33.9931 44.98C33.8438 45.12 33.6571 45.19 33.4331 45.19H30.1151C29.8911 45.19 29.7044 45.1153 29.5551 44.966C29.4058 44.8167 29.3311 44.63 29.3311 44.406C29.3311 44.1913 29.4058 44.014 29.5551 43.874C29.7044 43.7247 29.8911 43.65 30.1151 43.65ZM31.6131 41.9C31.8558 41.9 32.0518 41.984 32.2011 42.152C32.3598 42.3107 32.4391 42.5113 32.4391 42.754V48.984C32.4391 49.1147 32.4624 49.222 32.5091 49.306C32.5651 49.39 32.6351 49.4507 32.7191 49.488C32.8124 49.5253 32.9104 49.544 33.0131 49.544C33.1251 49.544 33.2278 49.5253 33.3211 49.488C33.4144 49.4413 33.5218 49.418 33.6431 49.418C33.7738 49.418 33.8904 49.4787 33.9931 49.6C34.1051 49.7213 34.1611 49.8893 34.1611 50.104C34.1611 50.3653 34.0164 50.58 33.7271 50.748C33.4471 50.916 33.1438 51 32.8171 51C32.6211 51 32.4018 50.986 32.1591 50.958C31.9258 50.9207 31.7018 50.8413 31.4871 50.72C31.2818 50.5893 31.1091 50.3933 30.9691 50.132C30.8291 49.8707 30.7591 49.5113 30.7591 49.054V42.754C30.7591 42.5113 30.8384 42.3107 30.9971 42.152C31.1651 41.984 31.3704 41.9 31.6131 41.9ZM40.8314 51C40.5701 51 40.3368 50.9207 40.1314 50.762C39.9261 50.594 39.8234 50.3887 39.8234 50.146V42.054C39.8234 41.8113 39.9028 41.6107 40.0614 41.452C40.2294 41.284 40.4348 41.2 40.6774 41.2H44.7094C45.1948 41.2 45.6474 41.3307 46.0674 41.592C46.4968 41.844 46.8421 42.1987 47.1034 42.656C47.3648 43.104 47.4954 43.622 47.4954 44.21C47.4954 44.5647 47.4208 44.91 47.2714 45.246C47.1314 45.582 46.9354 45.8853 46.6834 46.156C46.4408 46.4267 46.1654 46.6367 45.8574 46.786L45.8714 46.464C46.1328 46.604 46.3474 46.772 46.5154 46.968C46.6928 47.1547 46.8281 47.36 46.9214 47.584C47.0241 47.7987 47.0848 48.032 47.1034 48.284C47.1408 48.5173 47.1641 48.7227 47.1734 48.9C47.1921 49.0773 47.2201 49.2267 47.2574 49.348C47.3041 49.4693 47.3881 49.5627 47.5094 49.628C47.7148 49.7493 47.8408 49.9267 47.8874 50.16C47.9434 50.384 47.8921 50.5847 47.7334 50.762C47.6308 50.8833 47.5001 50.9627 47.3414 51C47.1828 51.028 47.0241 51.028 46.8654 51C46.7068 50.9627 46.5761 50.916 46.4734 50.86C46.3148 50.7667 46.1561 50.6313 45.9974 50.454C45.8388 50.2673 45.7081 50.02 45.6054 49.712C45.5121 49.404 45.4654 49.0073 45.4654 48.522C45.4654 48.3633 45.4374 48.2187 45.3814 48.088C45.3254 47.948 45.2461 47.8313 45.1434 47.738C45.0408 47.6353 44.9101 47.5607 44.7514 47.514C44.5928 47.458 44.4061 47.43 44.1914 47.43H41.3634L41.5734 47.108V50.146C41.5734 50.3887 41.5081 50.594 41.3774 50.762C41.2468 50.9207 41.0648 51 40.8314 51ZM41.3774 45.988H44.6394C44.8074 45.988 44.9708 45.9133 45.1294 45.764C45.2881 45.6053 45.4188 45.3953 45.5214 45.134C45.6241 44.8633 45.6754 44.5693 45.6754 44.252C45.6754 43.8413 45.5634 43.5007 45.3394 43.23C45.1248 42.95 44.8914 42.81 44.6394 42.81H41.4054L41.5734 42.362V46.324L41.3774 45.988ZM52.7544 51.14C51.9611 51.14 51.2704 50.9767 50.6824 50.65C50.1037 50.314 49.6557 49.8613 49.3384 49.292C49.0304 48.7227 48.8764 48.0787 48.8764 47.36C48.8764 46.52 49.0444 45.806 49.3804 45.218C49.7257 44.6207 50.1737 44.1633 50.7244 43.846C51.2751 43.5287 51.8584 43.37 52.4744 43.37C52.9504 43.37 53.3984 43.468 53.8184 43.664C54.2477 43.86 54.6257 44.1307 54.9524 44.476C55.2791 44.812 55.5357 45.204 55.7224 45.652C55.9184 46.1 56.0164 46.576 56.0164 47.08C56.0071 47.304 55.9184 47.486 55.7504 47.626C55.5824 47.766 55.3864 47.836 55.1624 47.836H49.8144L49.3944 46.436H54.5324L54.2244 46.716V46.338C54.2057 46.0673 54.1077 45.8247 53.9304 45.61C53.7624 45.3953 53.5477 45.2273 53.2864 45.106C53.0344 44.9753 52.7637 44.91 52.4744 44.91C52.1944 44.91 51.9331 44.9473 51.6904 45.022C51.4477 45.0967 51.2377 45.2227 51.0604 45.4C50.8831 45.5773 50.7431 45.8153 50.6404 46.114C50.5377 46.4127 50.4864 46.7907 50.4864 47.248C50.4864 47.752 50.5891 48.1813 50.7944 48.536C51.0091 48.8813 51.2797 49.1473 51.6064 49.334C51.9424 49.5113 52.2971 49.6 52.6704 49.6C53.0157 49.6 53.2911 49.572 53.4964 49.516C53.7017 49.46 53.8651 49.3947 53.9864 49.32C54.1171 49.236 54.2337 49.166 54.3364 49.11C54.5044 49.026 54.6631 48.984 54.8124 48.984C55.0177 48.984 55.1857 49.054 55.3164 49.194C55.4564 49.334 55.5264 49.4973 55.5264 49.684C55.5264 49.936 55.3957 50.1647 55.1344 50.37C54.8917 50.5753 54.5511 50.7573 54.1124 50.916C53.6737 51.0653 53.2211 51.14 52.7544 51.14ZM61.3622 43.37C62.0156 43.37 62.5989 43.538 63.1122 43.874C63.6349 44.2007 64.0456 44.6533 64.3442 45.232C64.6522 45.8107 64.8062 46.4827 64.8062 47.248C64.8062 48.0133 64.6522 48.69 64.3442 49.278C64.0456 49.8567 63.6396 50.314 63.1262 50.65C62.6222 50.9767 62.0529 51.14 61.4182 51.14C61.0449 51.14 60.6949 51.0793 60.3682 50.958C60.0416 50.8367 59.7522 50.6827 59.5002 50.496C59.2576 50.3093 59.0662 50.1227 58.9262 49.936C58.7956 49.74 58.7302 49.5767 58.7302 49.446L59.1642 49.264V52.946C59.1642 53.1887 59.0849 53.3893 58.9262 53.548C58.7676 53.716 58.5669 53.8 58.3242 53.8C58.0816 53.8 57.8809 53.7207 57.7222 53.562C57.5636 53.4033 57.4842 53.198 57.4842 52.946V44.364C57.4842 44.1213 57.5636 43.9207 57.7222 43.762C57.8809 43.594 58.0816 43.51 58.3242 43.51C58.5669 43.51 58.7676 43.594 58.9262 43.762C59.0849 43.9207 59.1642 44.1213 59.1642 44.364V45.05L58.9262 44.924C58.9262 44.8027 58.9916 44.658 59.1222 44.49C59.2529 44.3127 59.4302 44.14 59.6542 43.972C59.8782 43.7947 60.1349 43.65 60.4242 43.538C60.7229 43.426 61.0356 43.37 61.3622 43.37ZM61.1522 44.91C60.7416 44.91 60.3822 45.0127 60.0742 45.218C59.7662 45.4233 59.5236 45.7033 59.3462 46.058C59.1782 46.4033 59.0942 46.8 59.0942 47.248C59.0942 47.6867 59.1782 48.088 59.3462 48.452C59.5236 48.8067 59.7662 49.0867 60.0742 49.292C60.3822 49.4973 60.7416 49.6 61.1522 49.6C61.5629 49.6 61.9176 49.4973 62.2162 49.292C62.5242 49.0867 62.7622 48.8067 62.9302 48.452C63.1076 48.088 63.1962 47.6867 63.1962 47.248C63.1962 46.8 63.1076 46.4033 62.9302 46.058C62.7622 45.7033 62.5242 45.4233 62.2162 45.218C61.9176 45.0127 61.5629 44.91 61.1522 44.91ZM73.5412 47.262C73.5412 48.0273 73.3686 48.704 73.0232 49.292C72.6872 49.8707 72.2299 50.3233 71.6512 50.65C71.0819 50.9767 70.4426 51.14 69.7332 51.14C69.0239 51.14 68.3799 50.9767 67.8012 50.65C67.2319 50.3233 66.7746 49.8707 66.4292 49.292C66.0932 48.704 65.9252 48.0273 65.9252 47.262C65.9252 46.4967 66.0932 45.8247 66.4292 45.246C66.7746 44.658 67.2319 44.2007 67.8012 43.874C68.3799 43.538 69.0239 43.37 69.7332 43.37C70.4426 43.37 71.0819 43.538 71.6512 43.874C72.2299 44.2007 72.6872 44.658 73.0232 45.246C73.3686 45.8247 73.5412 46.4967 73.5412 47.262ZM71.8612 47.262C71.8612 46.786 71.7632 46.3753 71.5672 46.03C71.3806 45.6753 71.1239 45.4 70.7972 45.204C70.4799 45.008 70.1252 44.91 69.7332 44.91C69.3412 44.91 68.9819 45.008 68.6552 45.204C68.3379 45.4 68.0812 45.6753 67.8852 46.03C67.6986 46.3753 67.6052 46.786 67.6052 47.262C67.6052 47.7287 67.6986 48.1393 67.8852 48.494C68.0812 48.8393 68.3379 49.11 68.6552 49.306C68.9819 49.502 69.3412 49.6 69.7332 49.6C70.1252 49.6 70.4799 49.502 70.7972 49.306C71.1239 49.11 71.3806 48.8393 71.5672 48.494C71.7632 48.1393 71.8612 47.7287 71.8612 47.262ZM75.8516 51C75.6089 51 75.4082 50.9207 75.2496 50.762C75.0909 50.594 75.0116 50.3887 75.0116 50.146V44.364C75.0116 44.1213 75.0909 43.9207 75.2496 43.762C75.4082 43.594 75.6089 43.51 75.8516 43.51C76.0942 43.51 76.2949 43.594 76.4536 43.762C76.6122 43.9207 76.6916 44.1213 76.6916 44.364V45.68L76.5936 44.742C76.6962 44.518 76.8269 44.322 76.9856 44.154C77.1536 43.9767 77.3402 43.832 77.5456 43.72C77.7509 43.5987 77.9702 43.51 78.2036 43.454C78.4369 43.398 78.6702 43.37 78.9036 43.37C79.1836 43.37 79.4169 43.4493 79.6036 43.608C79.7996 43.7667 79.8976 43.9533 79.8976 44.168C79.8976 44.476 79.8182 44.7 79.6596 44.84C79.5009 44.9707 79.3282 45.036 79.1416 45.036C78.9642 45.036 78.8009 45.0033 78.6516 44.938C78.5116 44.8727 78.3482 44.84 78.1616 44.84C77.9936 44.84 77.8209 44.882 77.6436 44.966C77.4756 45.0407 77.3169 45.162 77.1676 45.33C77.0276 45.498 76.9109 45.708 76.8176 45.96C76.7336 46.2027 76.6916 46.492 76.6916 46.828V50.146C76.6916 50.3887 76.6122 50.594 76.4536 50.762C76.2949 50.9207 76.0942 51 75.8516 51ZM81.1659 43.65H84.4839C84.7079 43.65 84.8945 43.7247 85.0439 43.874C85.1932 44.0233 85.2679 44.21 85.2679 44.434C85.2679 44.6487 85.1932 44.8307 85.0439 44.98C84.8945 45.12 84.7079 45.19 84.4839 45.19H81.1659C80.9419 45.19 80.7552 45.1153 80.6059 44.966C80.4565 44.8167 80.3819 44.63 80.3819 44.406C80.3819 44.1913 80.4565 44.014 80.6059 43.874C80.7552 43.7247 80.9419 43.65 81.1659 43.65ZM82.6639 41.9C82.9065 41.9 83.1025 41.984 83.2519 42.152C83.4105 42.3107 83.4899 42.5113 83.4899 42.754V48.984C83.4899 49.1147 83.5132 49.222 83.5599 49.306C83.6159 49.39 83.6859 49.4507 83.7699 49.488C83.8632 49.5253 83.9612 49.544 84.0639 49.544C84.1759 49.544 84.2785 49.5253 84.3719 49.488C84.4652 49.4413 84.5725 49.418 84.6939 49.418C84.8245 49.418 84.9412 49.4787 85.0439 49.6C85.1559 49.7213 85.2119 49.8893 85.2119 50.104C85.2119 50.3653 85.0672 50.58 84.7779 50.748C84.4979 50.916 84.1945 51 83.8679 51C83.6719 51 83.4525 50.986 83.2099 50.958C82.9765 50.9207 82.7525 50.8413 82.5379 50.72C82.3325 50.5893 82.1599 50.3933 82.0199 50.132C81.8799 49.8707 81.8099 49.5113 81.8099 49.054V42.754C81.8099 42.5113 81.8892 42.3107 82.0479 42.152C82.2159 41.984 82.4212 41.9 82.6639 41.9ZM86.6498 49.838C86.5565 49.7073 86.5145 49.5393 86.5238 49.334C86.5332 49.1287 86.6545 48.9513 86.8878 48.802C87.0372 48.7087 87.1958 48.6713 87.3638 48.69C87.5318 48.6993 87.6952 48.7833 87.8538 48.942C88.1245 49.2127 88.4092 49.4227 88.7078 49.572C89.0065 49.7213 89.3798 49.796 89.8278 49.796C89.9678 49.7867 90.1218 49.768 90.2898 49.74C90.4578 49.7027 90.6025 49.628 90.7238 49.516C90.8545 49.3947 90.9198 49.2127 90.9198 48.97C90.9198 48.7647 90.8498 48.6013 90.7098 48.48C90.5698 48.3587 90.3832 48.256 90.1498 48.172C89.9258 48.088 89.6738 48.0087 89.3938 47.934C89.1045 47.85 88.8058 47.7567 88.4978 47.654C88.1992 47.5513 87.9238 47.4207 87.6718 47.262C87.4198 47.094 87.2145 46.8747 87.0558 46.604C86.8972 46.3333 86.8178 45.9927 86.8178 45.582C86.8178 45.1153 86.9485 44.7187 87.2098 44.392C87.4712 44.0653 87.8072 43.8133 88.2178 43.636C88.6378 43.4587 89.0765 43.37 89.5338 43.37C89.8232 43.37 90.1265 43.4073 90.4438 43.482C90.7612 43.5473 91.0645 43.6593 91.3538 43.818C91.6432 43.9673 91.8858 44.168 92.0818 44.42C92.1845 44.56 92.2452 44.728 92.2638 44.924C92.2825 45.12 92.1938 45.2973 91.9978 45.456C91.8578 45.568 91.6945 45.6193 91.5078 45.61C91.3212 45.5913 91.1672 45.526 91.0458 45.414C90.8872 45.2087 90.6725 45.0453 90.4018 44.924C90.1405 44.8027 89.8372 44.742 89.4918 44.742C89.3518 44.742 89.1978 44.7607 89.0298 44.798C88.8712 44.826 88.7312 44.896 88.6098 45.008C88.4885 45.1107 88.4278 45.2787 88.4278 45.512C88.4278 45.7267 88.4978 45.8993 88.6378 46.03C88.7778 46.1513 88.9645 46.254 89.1978 46.338C89.4405 46.4127 89.6972 46.4873 89.9678 46.562C90.2478 46.6367 90.5325 46.7253 90.8218 46.828C91.1112 46.9307 91.3772 47.066 91.6198 47.234C91.8625 47.402 92.0585 47.6213 92.2078 47.892C92.3572 48.1533 92.4318 48.4893 92.4318 48.9C92.4318 49.376 92.2918 49.782 92.0118 50.118C91.7318 50.454 91.3818 50.7107 90.9618 50.888C90.5418 51.056 90.1125 51.14 89.6738 51.14C89.1232 51.14 88.5725 51.0467 88.0218 50.86C87.4712 50.664 87.0138 50.3233 86.6498 49.838Z" fill="white"/>
<path d="M2.5 8.86L11.5 14.06C11.652 14.1478 11.8245 14.194 12 14.194C12.1755 14.194 12.348 14.1478 12.5 14.06L21.5 8.86C21.6511 8.77275 21.7768 8.64746 21.8645 8.49659C21.9522 8.34572 21.9989 8.17452 22 8C22.0007 7.82379 21.9548 7.65053 21.867 7.49775C21.7792 7.34497 21.6526 7.21811 21.5 7.13L12.5 1.94C12.348 1.85224 12.1755 1.80603 12 1.80603C11.8245 1.80603 11.652 1.85224 11.5 1.94L2.5 7.13C2.3474 7.21811 2.22078 7.34497 2.13298 7.49775C2.04517 7.65053 1.9993 7.82379 2 8C2.00105 8.17452 2.04776 8.34572 2.13547 8.49659C2.22319 8.64746 2.34886 8.77275 2.5 8.86ZM12 4L19 8L12 12L5 8L12 4ZM20.5 11.17L12 16L3.5 11.13C3.38587 11.0639 3.25978 11.021 3.129 11.0038C2.99822 10.9866 2.86534 10.9955 2.738 11.0299C2.61066 11.0643 2.49138 11.1235 2.38703 11.2042C2.28268 11.2849 2.19533 11.3854 2.13 11.5C1.99963 11.7296 1.96536 12.0015 2.03468 12.2563C2.104 12.5111 2.27127 12.7281 2.5 12.86L11.5 18.06C11.652 18.1478 11.8245 18.194 12 18.194C12.1755 18.194 12.348 18.1478 12.5 18.06L21.5 12.86C21.7287 12.7281 21.896 12.5111 21.9653 12.2563C22.0346 12.0015 22.0004 11.7296 21.87 11.5C21.8047 11.3854 21.7173 11.2849 21.613 11.2042C21.5086 11.1235 21.3893 11.0643 21.262 11.0299C21.1347 10.9955 21.0018 10.9866 20.871 11.0038C20.7402 11.021 20.6141 11.0639 20.5 11.13V11.17ZM20.5 15.17L12 20L3.5 15.13C3.38587 15.0639 3.25978 15.021 3.129 15.0038C2.99822 14.9866 2.86534 14.9955 2.738 15.0299C2.61066 15.0643 2.49138 15.1235 2.38703 15.2042C2.28268 15.2849 2.19533 15.3854 2.13 15.5C1.99963 15.7296 1.96536 16.0015 2.03468 16.2563C2.104 16.5111 2.27127 16.7281 2.5 16.86L11.5 22.06C11.652 22.1478 11.8245 22.194 12 22.194C12.1755 22.194 12.348 22.1478 12.5 22.06L21.5 16.86C21.7287 16.7281 21.896 16.5111 21.9653 16.2563C22.0346 16.0015 22.0004 15.7296 21.87 15.5C21.8047 15.3854 21.7173 15.2849 21.613 15.2042C21.5086 15.1235 21.3893 15.0643 21.262 15.0299C21.1347 14.9955 21.0018 14.9866 20.871 15.0038C20.7402 15.021 20.6141 15.0639 20.5 15.13V15.17Z" fill="white"/>
</svg>
