<svg width="244" height="48" viewBox="0 0 244 48" fill="none" xmlns="http://www.w3.org/2000/svg">
<path d="M52.2 17.14C51.528 17.14 50.9307 17.056 50.408 16.888C49.8853 16.72 49.3953 16.4353 48.938 16.034C48.686 15.81 48.56 15.5627 48.56 15.292C48.56 15.0773 48.6393 14.8907 48.798 14.732C48.9567 14.564 49.148 14.48 49.372 14.48C49.5493 14.48 49.708 14.536 49.848 14.648C50.2213 14.956 50.5853 15.18 50.94 15.32C51.2947 15.46 51.7147 15.53 52.2 15.53C52.7227 15.53 53.1707 15.4133 53.544 15.18C53.9267 14.9467 54.118 14.6573 54.118 14.312C54.118 13.892 53.9313 13.5653 53.558 13.332C53.1847 13.0893 52.592 12.9073 51.78 12.786C49.736 12.4873 48.714 11.5353 48.714 9.93C48.714 9.342 48.868 8.83333 49.176 8.404C49.484 7.96533 49.904 7.634 50.436 7.41C50.968 7.17667 51.5607 7.06 52.214 7.06C52.802 7.06 53.3527 7.14867 53.866 7.326C54.3887 7.50333 54.8227 7.73667 55.168 8.026C55.4387 8.24067 55.574 8.488 55.574 8.768C55.574 8.98267 55.4947 9.174 55.336 9.342C55.1773 9.50067 54.9907 9.58 54.776 9.58C54.636 9.58 54.51 9.538 54.398 9.454C54.1553 9.258 53.8147 9.08067 53.376 8.922C52.9467 8.754 52.5593 8.67 52.214 8.67C51.626 8.67 51.1687 8.782 50.842 9.006C50.5247 9.22067 50.366 9.50533 50.366 9.86C50.366 10.2613 50.5293 10.5647 50.856 10.77C51.192 10.9753 51.7147 11.1433 52.424 11.274C53.2267 11.414 53.866 11.596 54.342 11.82C54.8273 12.0347 55.1913 12.3333 55.434 12.716C55.6767 13.0893 55.798 13.5887 55.798 14.214C55.798 14.802 55.63 15.32 55.294 15.768C54.9673 16.2067 54.5287 16.5473 53.978 16.79C53.4273 17.0233 52.8347 17.14 52.2 17.14ZM60.5255 9.37C61.3188 9.37 61.9582 9.496 62.4435 9.748C62.9288 9.99067 63.1715 10.3173 63.1715 10.728C63.1715 10.9333 63.1108 11.1153 62.9895 11.274C62.8682 11.4233 62.7095 11.498 62.5135 11.498C62.3642 11.498 62.2428 11.4793 62.1495 11.442C62.0562 11.3953 61.9628 11.3393 61.8695 11.274C61.7855 11.1993 61.7015 11.1387 61.6175 11.092C61.5242 11.0453 61.3842 11.0033 61.1975 10.966C61.0202 10.9287 60.8755 10.91 60.7635 10.91C60.0635 10.91 59.5128 11.1293 59.1115 11.568C58.7195 11.9973 58.5235 12.562 58.5235 13.262C58.5235 13.934 58.7242 14.494 59.1255 14.942C59.5268 15.3807 60.0402 15.6 60.6655 15.6C61.1228 15.6 61.4635 15.544 61.6875 15.432C61.7435 15.404 61.8182 15.3573 61.9115 15.292C62.0142 15.2173 62.1075 15.1613 62.1915 15.124C62.2755 15.0867 62.3782 15.068 62.4995 15.068C62.7328 15.068 62.9148 15.1427 63.0455 15.292C63.1855 15.4413 63.2555 15.6327 63.2555 15.866C63.2555 16.09 63.1248 16.3 62.8635 16.496C62.6022 16.692 62.2568 16.8507 61.8275 16.972C61.3982 17.084 60.9408 17.14 60.4555 17.14C59.7368 17.14 59.1022 16.972 58.5515 16.636C58.0102 16.3 57.5902 15.838 57.2915 15.25C56.9928 14.6527 56.8435 13.99 56.8435 13.262C56.8435 12.506 56.9975 11.834 57.3055 11.246C57.6228 10.658 58.0615 10.2007 58.6215 9.874C59.1815 9.538 59.8162 9.37 60.5255 9.37ZM70.5306 9.37C70.7733 9.37 70.9739 9.44933 71.1326 9.608C71.2913 9.76667 71.3706 9.972 71.3706 10.224V16.146C71.3706 16.3887 71.2913 16.594 71.1326 16.762C70.9739 16.9207 70.7733 17 70.5306 17C70.2879 17 70.0873 16.9207 69.9286 16.762C69.7793 16.6033 69.6999 16.4027 69.6906 16.16C69.4573 16.4307 69.1399 16.664 68.7386 16.86C68.3466 17.0467 67.9313 17.14 67.4926 17.14C66.8486 17.14 66.2653 16.9767 65.7426 16.65C65.2199 16.314 64.8046 15.852 64.4966 15.264C64.1979 14.676 64.0486 14.0087 64.0486 13.262C64.0486 12.5153 64.1979 11.848 64.4966 11.26C64.7953 10.6627 65.2013 10.2007 65.7146 9.874C66.2373 9.538 66.8113 9.37 67.4366 9.37C67.8846 9.37 68.3046 9.454 68.6966 9.622C69.0886 9.78067 69.4199 9.986 69.6906 10.238V10.224C69.6906 9.98133 69.7699 9.78067 69.9286 9.622C70.0873 9.454 70.2879 9.37 70.5306 9.37ZM67.7026 15.6C68.3093 15.6 68.8039 15.3807 69.1866 14.942C69.5693 14.494 69.7606 13.934 69.7606 13.262C69.7606 12.59 69.5693 12.03 69.1866 11.582C68.8039 11.134 68.3093 10.91 67.7026 10.91C67.1053 10.91 66.6153 11.134 66.2326 11.582C65.8499 12.03 65.6586 12.59 65.6586 13.262C65.6586 13.934 65.8453 14.494 66.2186 14.942C66.6013 15.3807 67.0959 15.6 67.7026 15.6ZM77.1953 9.37C78.1473 9.37 78.8053 9.65467 79.1693 10.224C79.5333 10.784 79.7153 11.5633 79.7153 12.562V16.146C79.7153 16.3887 79.6359 16.594 79.4772 16.762C79.3186 16.9207 79.1179 17 78.8753 17C78.6326 17 78.4319 16.9207 78.2733 16.762C78.1146 16.594 78.0353 16.3887 78.0353 16.146V12.562C78.0353 12.0487 77.9279 11.6473 77.7133 11.358C77.4986 11.0593 77.1299 10.91 76.6073 10.91C76.0659 10.91 75.6413 11.0687 75.3333 11.386C75.0253 11.694 74.8713 12.086 74.8713 12.562V16.146C74.8713 16.3887 74.7919 16.594 74.6333 16.762C74.4746 16.9207 74.2739 17 74.0312 17C73.7886 17 73.5879 16.9207 73.4293 16.762C73.2706 16.594 73.1913 16.3887 73.1913 16.146V10.364C73.1913 10.1213 73.2706 9.92067 73.4293 9.762C73.5879 9.594 73.7886 9.51 74.0312 9.51C74.2739 9.51 74.4746 9.594 74.6333 9.762C74.7919 9.92067 74.8713 10.1213 74.8713 10.364V10.602C75.1233 10.266 75.4499 9.97667 75.8513 9.734C76.2619 9.49133 76.7099 9.37 77.1953 9.37ZM92.4549 7.676C92.7443 7.82533 92.8889 8.06333 92.8889 8.39C92.8889 8.586 92.8189 8.77733 92.6789 8.964C92.5296 9.16 92.3383 9.258 92.1049 9.258C91.9463 9.258 91.7876 9.216 91.6289 9.132C91.1716 8.91733 90.6769 8.81 90.1449 8.81C89.4916 8.81 88.9223 8.95 88.4369 9.23C87.9516 9.50067 87.5783 9.888 87.3169 10.392C87.0556 10.8867 86.9249 11.456 86.9249 12.1C86.9249 13.2013 87.2189 14.0367 87.8069 14.606C88.4043 15.1753 89.1836 15.46 90.1449 15.46C90.7143 15.46 91.2089 15.3527 91.6289 15.138C91.7969 15.0633 91.9463 15.026 92.0769 15.026C92.3196 15.026 92.5249 15.1287 92.6929 15.334C92.8329 15.5113 92.9029 15.7027 92.9029 15.908C92.9029 16.0573 92.8656 16.1927 92.7909 16.314C92.7163 16.4353 92.6089 16.5287 92.4689 16.594C91.7409 16.958 90.9663 17.14 90.1449 17.14C89.2303 17.14 88.3903 16.9487 87.6249 16.566C86.8596 16.174 86.2483 15.6 85.7909 14.844C85.3336 14.088 85.1049 13.1733 85.1049 12.1C85.1049 11.148 85.3196 10.294 85.7489 9.538C86.1876 8.782 86.7896 8.194 87.5549 7.774C88.3203 7.34467 89.1836 7.13 90.1449 7.13C90.9756 7.13 91.7456 7.312 92.4549 7.676ZM97.5223 17.14C96.8503 17.14 96.2529 17.056 95.7303 16.888C95.2076 16.72 94.7176 16.4353 94.2603 16.034C94.0083 15.81 93.8823 15.5627 93.8823 15.292C93.8823 15.0773 93.9616 14.8907 94.1203 14.732C94.2789 14.564 94.4703 14.48 94.6943 14.48C94.8716 14.48 95.0303 14.536 95.1703 14.648C95.5436 14.956 95.9076 15.18 96.2623 15.32C96.6169 15.46 97.0369 15.53 97.5223 15.53C98.0449 15.53 98.4929 15.4133 98.8663 15.18C99.2489 14.9467 99.4403 14.6573 99.4403 14.312C99.4403 13.892 99.2536 13.5653 98.8803 13.332C98.5069 13.0893 97.9143 12.9073 97.1023 12.786C95.0583 12.4873 94.0363 11.5353 94.0363 9.93C94.0363 9.342 94.1903 8.83333 94.4983 8.404C94.8063 7.96533 95.2263 7.634 95.7583 7.41C96.2903 7.17667 96.8829 7.06 97.5363 7.06C98.1243 7.06 98.6749 7.14867 99.1883 7.326C99.7109 7.50333 100.145 7.73667 100.49 8.026C100.761 8.24067 100.896 8.488 100.896 8.768C100.896 8.98267 100.817 9.174 100.658 9.342C100.5 9.50067 100.313 9.58 100.098 9.58C99.9583 9.58 99.8323 9.538 99.7203 9.454C99.4776 9.258 99.1369 9.08067 98.6983 8.922C98.2689 8.754 97.8816 8.67 97.5363 8.67C96.9483 8.67 96.4909 8.782 96.1643 9.006C95.8469 9.22067 95.6883 9.50533 95.6883 9.86C95.6883 10.2613 95.8516 10.5647 96.1783 10.77C96.5143 10.9753 97.0369 11.1433 97.7463 11.274C98.5489 11.414 99.1883 11.596 99.6643 11.82C100.15 12.0347 100.514 12.3333 100.756 12.716C100.999 13.0893 101.12 13.5887 101.12 14.214C101.12 14.802 100.952 15.32 100.616 15.768C100.29 16.2067 99.8509 16.5473 99.3003 16.79C98.7496 17.0233 98.1569 17.14 97.5223 17.14ZM109.88 7.172C110.113 7.172 110.314 7.25133 110.482 7.41C110.659 7.56867 110.748 7.76 110.748 7.984C110.748 8.10533 110.72 8.23133 110.664 8.362L107.206 16.454C107.122 16.6313 107.005 16.7667 106.856 16.86C106.706 16.9533 106.548 17 106.38 17C106.221 16.9907 106.072 16.944 105.932 16.86C105.801 16.7667 105.698 16.636 105.624 16.468L102.166 8.348C102.119 8.25467 102.096 8.138 102.096 7.998C102.096 7.746 102.189 7.54533 102.376 7.396C102.562 7.23733 102.754 7.158 102.95 7.158C103.108 7.158 103.258 7.20467 103.398 7.298C103.538 7.39133 103.645 7.52667 103.72 7.704L106.534 14.326L109.11 7.704C109.184 7.536 109.292 7.40533 109.432 7.312C109.572 7.21867 109.721 7.172 109.88 7.172ZM117.888 8.81V11.274H120.912C121.155 11.274 121.355 11.3533 121.514 11.512C121.682 11.6613 121.766 11.8573 121.766 12.1C121.766 12.3053 121.682 12.4873 121.514 12.646C121.355 12.8047 121.155 12.884 120.912 12.884H117.888V16.146C117.888 16.3887 117.799 16.594 117.622 16.762C117.454 16.9207 117.253 17 117.02 17C116.759 17 116.544 16.9207 116.376 16.762C116.217 16.6033 116.138 16.398 116.138 16.146V8.054C116.138 7.81133 116.217 7.61067 116.376 7.452C116.544 7.284 116.749 7.2 116.992 7.2H121.542C121.785 7.2 121.985 7.27933 122.144 7.438C122.312 7.58733 122.396 7.78333 122.396 8.026C122.396 8.23133 122.312 8.41333 122.144 8.572C121.985 8.73067 121.785 8.81 121.542 8.81H117.888ZM125.441 16.146C125.441 16.3887 125.362 16.594 125.203 16.762C125.045 16.9207 124.844 17 124.601 17C124.359 17 124.158 16.9207 123.999 16.762C123.841 16.594 123.761 16.3887 123.761 16.146V10.364C123.761 10.1213 123.841 9.92067 123.999 9.762C124.158 9.594 124.359 9.51 124.601 9.51C124.844 9.51 125.045 9.594 125.203 9.762C125.362 9.92067 125.441 10.1213 125.441 10.364V16.146ZM124.587 8.6C124.27 8.6 124.046 8.54867 123.915 8.446C123.785 8.34333 123.719 8.16133 123.719 7.9V7.634C123.719 7.37267 123.789 7.19067 123.929 7.088C124.069 6.98533 124.293 6.934 124.601 6.934C124.928 6.934 125.157 6.98533 125.287 7.088C125.418 7.19067 125.483 7.37267 125.483 7.634V7.9C125.483 8.17067 125.413 8.35733 125.273 8.46C125.143 8.55333 124.914 8.6 124.587 8.6ZM128.988 16.146C128.988 16.3887 128.904 16.594 128.736 16.762C128.577 16.9207 128.376 17 128.134 17C127.9 17 127.704 16.9207 127.546 16.762C127.387 16.594 127.308 16.3887 127.308 16.146V7.494C127.308 7.25133 127.387 7.05067 127.546 6.892C127.714 6.724 127.919 6.64 128.162 6.64C128.395 6.64 128.591 6.724 128.75 6.892C128.908 7.05067 128.988 7.25133 128.988 7.494V16.146ZM137.525 13.08C137.515 13.304 137.427 13.486 137.259 13.626C137.091 13.766 136.895 13.836 136.671 13.836H132.051C132.163 14.3867 132.419 14.8207 132.821 15.138C133.222 15.446 133.675 15.6 134.179 15.6C134.561 15.6 134.86 15.5673 135.075 15.502C135.289 15.4273 135.457 15.3527 135.579 15.278C135.709 15.194 135.798 15.138 135.845 15.11C136.013 15.026 136.171 14.984 136.321 14.984C136.517 14.984 136.685 15.054 136.825 15.194C136.965 15.334 137.035 15.4973 137.035 15.684C137.035 15.936 136.904 16.1647 136.643 16.37C136.381 16.5847 136.031 16.7667 135.593 16.916C135.154 17.0653 134.711 17.14 134.263 17.14C133.479 17.14 132.793 16.9767 132.205 16.65C131.626 16.3233 131.178 15.8753 130.861 15.306C130.543 14.7273 130.385 14.0787 130.385 13.36C130.385 12.5573 130.553 11.8527 130.889 11.246C131.225 10.6393 131.668 10.1773 132.219 9.86C132.769 9.53333 133.357 9.37 133.983 9.37C134.599 9.37 135.177 9.538 135.719 9.874C136.269 10.21 136.708 10.6627 137.035 11.232C137.361 11.8013 137.525 12.4173 137.525 13.08ZM133.983 10.91C132.9 10.91 132.261 11.4187 132.065 12.436H135.733V12.338C135.695 11.946 135.504 11.61 135.159 11.33C134.813 11.05 134.421 10.91 133.983 10.91ZM50.8 32.81V35.274H53.824C54.0667 35.274 54.2673 35.3533 54.426 35.512C54.594 35.6613 54.678 35.8573 54.678 36.1C54.678 36.3053 54.594 36.4873 54.426 36.646C54.2673 36.8047 54.0667 36.884 53.824 36.884H50.8V40.146C50.8 40.3887 50.7113 40.594 50.534 40.762C50.366 40.9207 50.1653 41 49.932 41C49.6707 41 49.456 40.9207 49.288 40.762C49.1293 40.6033 49.05 40.398 49.05 40.146V32.054C49.05 31.8113 49.1293 31.6107 49.288 31.452C49.456 31.284 49.6613 31.2 49.904 31.2H54.454C54.6967 31.2 54.8973 31.2793 55.056 31.438C55.224 31.5873 55.308 31.7833 55.308 32.026C55.308 32.2313 55.224 32.4133 55.056 32.572C54.8973 32.7307 54.6967 32.81 54.454 32.81H50.8ZM63.7623 37.262C63.7623 38.0087 63.5943 38.6807 63.2583 39.278C62.9223 39.866 62.4603 40.3233 61.8723 40.65C61.2936 40.9767 60.6543 41.14 59.9543 41.14C59.2449 41.14 58.6009 40.9767 58.0223 40.65C57.4436 40.3233 56.9863 39.866 56.6503 39.278C56.3143 38.6807 56.1463 38.0087 56.1463 37.262C56.1463 36.5153 56.3143 35.848 56.6503 35.26C56.9863 34.6627 57.4436 34.2007 58.0223 33.874C58.6009 33.538 59.2449 33.37 59.9543 33.37C60.6543 33.37 61.2936 33.538 61.8723 33.874C62.4603 34.2007 62.9223 34.6627 63.2583 35.26C63.5943 35.848 63.7623 36.5153 63.7623 37.262ZM62.0823 37.262C62.0823 36.8047 61.9843 36.3987 61.7883 36.044C61.6016 35.68 61.3449 35.4 61.0183 35.204C60.7009 35.008 60.3463 34.91 59.9543 34.91C59.5623 34.91 59.2029 35.008 58.8763 35.204C58.5589 35.4 58.3023 35.68 58.1063 36.044C57.9196 36.3987 57.8263 36.8047 57.8263 37.262C57.8263 37.7193 57.9196 38.1253 58.1063 38.48C58.3023 38.8347 58.5589 39.11 58.8763 39.306C59.2029 39.502 59.5623 39.6 59.9543 39.6C60.3463 39.6 60.7009 39.502 61.0183 39.306C61.3449 39.11 61.6016 38.8347 61.7883 38.48C61.9843 38.1253 62.0823 37.7193 62.0823 37.262ZM69.0579 33.37C69.3379 33.37 69.5712 33.4493 69.7579 33.608C69.9539 33.7667 70.0519 33.9533 70.0519 34.168C70.0519 34.4573 69.9772 34.6767 69.8279 34.826C69.6785 34.966 69.5012 35.036 69.2959 35.036C69.1559 35.036 68.9972 35.0033 68.8199 34.938C68.7919 34.9287 68.7265 34.91 68.6239 34.882C68.5305 34.854 68.4279 34.84 68.3159 34.84C68.0732 34.84 67.8399 34.9147 67.6159 35.064C67.3919 35.2133 67.2052 35.442 67.0559 35.75C66.9159 36.0487 66.8459 36.408 66.8459 36.828V40.146C66.8459 40.3887 66.7665 40.594 66.6079 40.762C66.4492 40.9207 66.2485 41 66.0059 41C65.7632 41 65.5625 40.9207 65.4039 40.762C65.2452 40.594 65.1659 40.3887 65.1659 40.146V34.364C65.1659 34.1213 65.2452 33.9207 65.4039 33.762C65.5625 33.594 65.7632 33.51 66.0059 33.51C66.2485 33.51 66.4492 33.594 66.6079 33.762C66.7665 33.9207 66.8459 34.1213 66.8459 34.364V34.546C67.0605 34.1633 67.3685 33.874 67.7699 33.678C68.1712 33.4727 68.6005 33.37 69.0579 33.37ZM79.8742 33.37C80.7982 33.37 81.4375 33.6547 81.7922 34.224C82.1468 34.784 82.3242 35.5633 82.3242 36.562V40.146C82.3242 40.3887 82.2448 40.594 82.0862 40.762C81.9275 40.9207 81.7268 41 81.4842 41C81.2415 41 81.0408 40.9207 80.8822 40.762C80.7235 40.594 80.6442 40.3887 80.6442 40.146V36.562C80.6442 36.0487 80.5415 35.6473 80.3362 35.358C80.1402 35.0593 79.7902 34.91 79.2862 34.91C78.7635 34.91 78.3528 35.0687 78.0542 35.386C77.7648 35.694 77.6202 36.086 77.6202 36.562V40.146C77.6202 40.3887 77.5408 40.594 77.3822 40.762C77.2235 40.9207 77.0228 41 76.7802 41C76.5375 41 76.3368 40.9207 76.1782 40.762C76.0195 40.594 75.9402 40.3887 75.9402 40.146V36.562C75.9402 36.0487 75.8375 35.6473 75.6322 35.358C75.4362 35.0593 75.0862 34.91 74.5822 34.91C74.0595 34.91 73.6488 35.0687 73.3502 35.386C73.0608 35.694 72.9162 36.086 72.9162 36.562V40.146C72.9162 40.3887 72.8368 40.594 72.6782 40.762C72.5195 40.9207 72.3188 41 72.0762 41C71.8335 41 71.6328 40.9207 71.4742 40.762C71.3155 40.594 71.2362 40.3887 71.2362 40.146V34.364C71.2362 34.1213 71.3155 33.9207 71.4742 33.762C71.6328 33.594 71.8335 33.51 72.0762 33.51C72.3188 33.51 72.5195 33.594 72.6782 33.762C72.8368 33.9207 72.9162 34.1213 72.9162 34.364V34.588C73.1682 34.252 73.4855 33.9673 73.8682 33.734C74.2602 33.4913 74.6942 33.37 75.1702 33.37C76.3462 33.37 77.0975 33.8833 77.4242 34.91C77.6388 34.518 77.9608 34.1633 78.3902 33.846C78.8288 33.5287 79.3235 33.37 79.8742 33.37ZM90.2044 33.37C90.4471 33.37 90.6478 33.4493 90.8064 33.608C90.9651 33.7667 91.0444 33.972 91.0444 34.224V40.146C91.0444 40.3887 90.9651 40.594 90.8064 40.762C90.6478 40.9207 90.4471 41 90.2044 41C89.9618 41 89.7611 40.9207 89.6024 40.762C89.4531 40.6033 89.3738 40.4027 89.3644 40.16C89.1311 40.4307 88.8138 40.664 88.4124 40.86C88.0204 41.0467 87.6051 41.14 87.1664 41.14C86.5224 41.14 85.9391 40.9767 85.4164 40.65C84.8938 40.314 84.4784 39.852 84.1704 39.264C83.8718 38.676 83.7224 38.0087 83.7224 37.262C83.7224 36.5153 83.8718 35.848 84.1704 35.26C84.4691 34.6627 84.8751 34.2007 85.3884 33.874C85.9111 33.538 86.4851 33.37 87.1104 33.37C87.5584 33.37 87.9784 33.454 88.3704 33.622C88.7624 33.7807 89.0938 33.986 89.3644 34.238V34.224C89.3644 33.9813 89.4438 33.7807 89.6024 33.622C89.7611 33.454 89.9618 33.37 90.2044 33.37ZM87.3764 39.6C87.9831 39.6 88.4778 39.3807 88.8604 38.942C89.2431 38.494 89.4344 37.934 89.4344 37.262C89.4344 36.59 89.2431 36.03 88.8604 35.582C88.4778 35.134 87.9831 34.91 87.3764 34.91C86.7791 34.91 86.2891 35.134 85.9064 35.582C85.5238 36.03 85.3324 36.59 85.3324 37.262C85.3324 37.934 85.5191 38.494 85.8924 38.942C86.2751 39.3807 86.7698 39.6 87.3764 39.6ZM96.4771 39.418C96.6077 39.418 96.7244 39.4833 96.8271 39.614C96.9391 39.7353 96.9951 39.8987 96.9951 40.104C96.9951 40.356 96.8551 40.5707 96.5751 40.748C96.3044 40.916 95.9964 41 95.6511 41C95.0724 41 94.5824 40.8787 94.1811 40.636C93.7891 40.384 93.5931 39.8567 93.5931 39.054V35.19H92.9491C92.7251 35.19 92.5384 35.1153 92.3891 34.966C92.2397 34.8167 92.1651 34.63 92.1651 34.406C92.1651 34.1913 92.2397 34.014 92.3891 33.874C92.5384 33.7247 92.7251 33.65 92.9491 33.65H93.5931V32.754C93.5931 32.5113 93.6724 32.3107 93.8311 32.152C93.9991 31.984 94.2044 31.9 94.4471 31.9C94.6804 31.9 94.8764 31.984 95.0351 32.152C95.1937 32.3107 95.2731 32.5113 95.2731 32.754V33.65H96.2671C96.4911 33.65 96.6777 33.7247 96.8271 33.874C96.9764 34.0233 97.0511 34.21 97.0511 34.434C97.0511 34.6487 96.9764 34.8307 96.8271 34.98C96.6777 35.12 96.4911 35.19 96.2671 35.19H95.2731V38.984C95.2731 39.18 95.3244 39.3247 95.4271 39.418C95.5297 39.502 95.6697 39.544 95.8471 39.544C95.9217 39.544 96.0244 39.5253 96.1551 39.488C96.2671 39.4413 96.3744 39.418 96.4771 39.418ZM98.433 39.838C98.349 39.726 98.307 39.586 98.307 39.418C98.307 39.1753 98.4284 38.97 98.671 38.802C98.8017 38.718 98.937 38.676 99.077 38.676C99.273 38.676 99.4597 38.7647 99.637 38.942C99.917 39.2313 100.206 39.446 100.505 39.586C100.813 39.726 101.182 39.796 101.611 39.796C102.339 39.768 102.703 39.4927 102.703 38.97C102.703 38.6993 102.577 38.494 102.325 38.354C102.082 38.214 101.7 38.074 101.177 37.934C100.636 37.7847 100.192 37.6353 99.847 37.486C99.511 37.3367 99.217 37.1127 98.965 36.814C98.7224 36.506 98.601 36.0953 98.601 35.582C98.601 35.134 98.727 34.7467 98.979 34.42C99.2404 34.084 99.5764 33.8273 99.987 33.65C100.407 33.4633 100.85 33.37 101.317 33.37C101.793 33.37 102.269 33.4587 102.745 33.636C103.221 33.8133 103.594 34.0747 103.865 34.42C103.986 34.5693 104.047 34.7373 104.047 34.924C104.047 35.1387 103.958 35.316 103.781 35.456C103.65 35.5587 103.501 35.61 103.333 35.61C103.128 35.61 102.96 35.5447 102.829 35.414C102.661 35.2087 102.442 35.0453 102.171 34.924C101.91 34.8027 101.611 34.742 101.275 34.742C100.566 34.742 100.211 34.9987 100.211 35.512C100.211 35.7173 100.276 35.8853 100.407 36.016C100.538 36.1373 100.701 36.2353 100.897 36.31C101.102 36.3753 101.387 36.4593 101.751 36.562C102.255 36.702 102.675 36.8467 103.011 36.996C103.347 37.1453 103.632 37.374 103.865 37.682C104.098 37.99 104.215 38.396 104.215 38.9C104.215 39.3573 104.08 39.7587 103.809 40.104C103.538 40.44 103.188 40.6967 102.759 40.874C102.339 41.0513 101.905 41.14 101.457 41.14C100.841 41.14 100.267 41.0373 99.735 40.832C99.203 40.6267 98.769 40.2953 98.433 39.838ZM112.723 43.548C112.583 43.548 112.457 43.5107 112.345 43.436C111.281 42.7267 110.464 41.8493 109.895 40.804C109.335 39.7493 109.055 38.606 109.055 37.374C109.055 36.142 109.335 35.0033 109.895 33.958C110.464 32.9033 111.281 32.0213 112.345 31.312C112.457 31.2373 112.583 31.2 112.723 31.2C112.928 31.2 113.096 31.2793 113.227 31.438C113.357 31.5967 113.423 31.76 113.423 31.928C113.423 32.1427 113.325 32.3293 113.129 32.488C112.335 33.104 111.738 33.832 111.337 34.672C110.945 35.512 110.749 36.4127 110.749 37.374C110.749 38.354 110.945 39.2733 111.337 40.132C111.729 40.9813 112.326 41.6907 113.129 42.26C113.325 42.4 113.423 42.5867 113.423 42.82C113.423 42.9973 113.353 43.1607 113.213 43.31C113.073 43.4687 112.909 43.548 112.723 43.548ZM115.291 40.986C115.02 40.986 114.81 40.916 114.661 40.776C114.521 40.6267 114.451 40.4167 114.451 40.146V39.908C114.451 39.6373 114.521 39.432 114.661 39.292C114.81 39.1427 115.02 39.068 115.291 39.068H115.473C115.743 39.068 115.949 39.1427 116.089 39.292C116.238 39.432 116.313 39.6373 116.313 39.908V40.146C116.313 40.4167 116.238 40.6267 116.089 40.776C115.949 40.916 115.743 40.986 115.473 40.986H115.291ZM121.297 33.37C122.09 33.37 122.73 33.496 123.215 33.748C123.7 33.9907 123.943 34.3173 123.943 34.728C123.943 34.9333 123.882 35.1153 123.761 35.274C123.64 35.4233 123.481 35.498 123.285 35.498C123.136 35.498 123.014 35.4793 122.921 35.442C122.828 35.3953 122.734 35.3393 122.641 35.274C122.557 35.1993 122.473 35.1387 122.389 35.092C122.296 35.0453 122.156 35.0033 121.969 34.966C121.792 34.9287 121.647 34.91 121.535 34.91C120.835 34.91 120.284 35.1293 119.883 35.568C119.491 35.9973 119.295 36.562 119.295 37.262C119.295 37.934 119.496 38.494 119.897 38.942C120.298 39.3807 120.812 39.6 121.437 39.6C121.894 39.6 122.235 39.544 122.459 39.432C122.515 39.404 122.59 39.3573 122.683 39.292C122.786 39.2173 122.879 39.1613 122.963 39.124C123.047 39.0867 123.15 39.068 123.271 39.068C123.504 39.068 123.686 39.1427 123.817 39.292C123.957 39.4413 124.027 39.6327 124.027 39.866C124.027 40.09 123.896 40.3 123.635 40.496C123.374 40.692 123.028 40.8507 122.599 40.972C122.17 41.084 121.712 41.14 121.227 41.14C120.508 41.14 119.874 40.972 119.323 40.636C118.782 40.3 118.362 39.838 118.063 39.25C117.764 38.6527 117.615 37.99 117.615 37.262C117.615 36.506 117.769 35.834 118.077 35.246C118.394 34.658 118.833 34.2007 119.393 33.874C119.953 33.538 120.588 33.37 121.297 33.37ZM124.806 39.838C124.722 39.726 124.68 39.586 124.68 39.418C124.68 39.1753 124.801 38.97 125.044 38.802C125.175 38.718 125.31 38.676 125.45 38.676C125.646 38.676 125.833 38.7647 126.01 38.942C126.29 39.2313 126.579 39.446 126.878 39.586C127.186 39.726 127.555 39.796 127.984 39.796C128.712 39.768 129.076 39.4927 129.076 38.97C129.076 38.6993 128.95 38.494 128.698 38.354C128.455 38.214 128.073 38.074 127.55 37.934C127.009 37.7847 126.565 37.6353 126.22 37.486C125.884 37.3367 125.59 37.1127 125.338 36.814C125.095 36.506 124.974 36.0953 124.974 35.582C124.974 35.134 125.1 34.7467 125.352 34.42C125.613 34.084 125.949 33.8273 126.36 33.65C126.78 33.4633 127.223 33.37 127.69 33.37C128.166 33.37 128.642 33.4587 129.118 33.636C129.594 33.8133 129.967 34.0747 130.238 34.42C130.359 34.5693 130.42 34.7373 130.42 34.924C130.42 35.1387 130.331 35.316 130.154 35.456C130.023 35.5587 129.874 35.61 129.706 35.61C129.501 35.61 129.333 35.5447 129.202 35.414C129.034 35.2087 128.815 35.0453 128.544 34.924C128.283 34.8027 127.984 34.742 127.648 34.742C126.939 34.742 126.584 34.9987 126.584 35.512C126.584 35.7173 126.649 35.8853 126.78 36.016C126.911 36.1373 127.074 36.2353 127.27 36.31C127.475 36.3753 127.76 36.4593 128.124 36.562C128.628 36.702 129.048 36.8467 129.384 36.996C129.72 37.1453 130.005 37.374 130.238 37.682C130.471 37.99 130.588 38.396 130.588 38.9C130.588 39.3573 130.453 39.7587 130.182 40.104C129.911 40.44 129.561 40.6967 129.132 40.874C128.712 41.0513 128.278 41.14 127.83 41.14C127.214 41.14 126.64 41.0373 126.108 40.832C125.576 40.6267 125.142 40.2953 124.806 39.838ZM137.748 33.524C137.972 33.524 138.159 33.5987 138.308 33.748C138.457 33.888 138.532 34.0653 138.532 34.28C138.532 34.392 138.495 34.532 138.42 34.7L135.802 40.468C135.737 40.6267 135.639 40.7527 135.508 40.846C135.387 40.9393 135.247 40.9907 135.088 41L134.962 41.014C134.803 41.014 134.654 40.9673 134.514 40.874C134.383 40.7713 134.281 40.636 134.206 40.468L131.602 34.7C131.537 34.5507 131.504 34.4013 131.504 34.252C131.504 34.0653 131.583 33.8973 131.742 33.748C131.901 33.5893 132.097 33.51 132.33 33.51C132.507 33.51 132.671 33.5567 132.82 33.65C132.969 33.7433 133.081 33.874 133.156 34.042L135.088 38.466L137.006 34.056C137.081 33.8787 137.183 33.7433 137.314 33.65C137.445 33.5567 137.589 33.5147 137.748 33.524ZM139.855 43.548C139.65 43.548 139.482 43.4687 139.351 43.31C139.221 43.1513 139.155 42.988 139.155 42.82C139.155 42.6053 139.253 42.4187 139.449 42.26C140.243 41.644 140.835 40.916 141.227 40.076C141.629 39.236 141.829 38.3353 141.829 37.374C141.829 36.394 141.633 35.4793 141.241 34.63C140.849 33.7713 140.252 33.0573 139.449 32.488C139.253 32.348 139.155 32.1613 139.155 31.928C139.155 31.7507 139.225 31.5873 139.365 31.438C139.505 31.2793 139.669 31.2 139.855 31.2C139.995 31.2 140.121 31.2373 140.233 31.312C141.297 32.0213 142.109 32.9033 142.669 33.958C143.239 35.0033 143.523 36.142 143.523 37.374C143.523 38.606 143.239 39.7493 142.669 40.804C142.109 41.8493 141.297 42.7267 140.233 43.436C140.121 43.5107 139.995 43.548 139.855 43.548Z" fill="#19191F"/>
<path d="M229.17 19C228.984 19.1874 228.879 19.4408 228.879 19.705C228.879 19.9692 228.984 20.2226 229.17 20.41L232.71 24L229.17 27.54C228.984 27.7274 228.879 27.9808 228.879 28.245C228.879 28.5092 228.984 28.7626 229.17 28.95C229.263 29.0437 229.374 29.1181 229.495 29.1689C229.617 29.2197 229.748 29.2458 229.88 29.2458C230.012 29.2458 230.143 29.2197 230.265 29.1689C230.386 29.1181 230.497 29.0437 230.59 28.95L234.83 24.71C234.924 24.617 234.998 24.5064 235.049 24.3846C235.1 24.2627 235.126 24.132 235.126 24C235.126 23.868 235.1 23.7373 235.049 23.6154C234.998 23.4936 234.924 23.383 234.83 23.29L230.59 19C230.497 18.9063 230.386 18.8319 230.265 18.7811C230.143 18.7303 230.012 18.7042 229.88 18.7042C229.748 18.7042 229.617 18.7303 229.495 18.7811C229.374 18.8319 229.263 18.9063 229.17 19Z" fill="#9591AF"/>
<path d="M30 19.41C29.9844 19.2722 29.9542 19.1364 29.91 19.005V18.87C29.8379 18.7158 29.7417 18.574 29.625 18.45V18.45L20.625 9.45C20.501 9.33332 20.3592 9.23712 20.205 9.165H20.07L19.59 9H10.5C9.30653 9 8.16193 9.47411 7.31802 10.318C6.47411 11.1619 6 12.3065 6 13.5V34.5C6 35.6935 6.47411 36.8381 7.31802 37.682C8.16193 38.5259 9.30653 39 10.5 39H25.5C26.6935 39 27.8381 38.5259 28.682 37.682C29.5259 36.8381 30 35.6935 30 34.5V19.5C30 19.5 30 19.5 30 19.41ZM21 14.115L24.885 18H21V14.115ZM27 34.5C27 34.8978 26.842 35.2794 26.5607 35.5607C26.2794 35.842 25.8978 36 25.5 36H10.5C10.1022 36 9.72064 35.842 9.43934 35.5607C9.15804 35.2794 9 34.8978 9 34.5V13.5C9 13.1022 9.15804 12.7206 9.43934 12.4393C9.72064 12.158 10.1022 12 10.5 12H18V19.5C18 19.8978 18.158 20.2794 18.4393 20.5607C18.7206 20.842 19.1022 21 19.5 21H27V34.5Z" fill="#19191F"/>
<rect x="6" y="24" width="24" height="10.5" fill="#CF5250"/>
<path d="M15.15 27.264C15.274 27.328 15.336 27.43 15.336 27.57C15.336 27.654 15.306 27.736 15.246 27.816C15.182 27.9 15.1 27.942 15 27.942C14.932 27.942 14.864 27.924 14.796 27.888C14.6 27.796 14.388 27.75 14.16 27.75C13.88 27.75 13.636 27.81 13.428 27.93C13.22 28.046 13.06 28.212 12.948 28.428C12.836 28.64 12.78 28.884 12.78 29.16C12.78 29.632 12.906 29.99 13.158 30.234C13.414 30.478 13.748 30.6 14.16 30.6C14.404 30.6 14.616 30.554 14.796 30.462C14.868 30.43 14.932 30.414 14.988 30.414C15.092 30.414 15.18 30.458 15.252 30.546C15.312 30.622 15.342 30.704 15.342 30.792C15.342 30.856 15.326 30.914 15.294 30.966C15.262 31.018 15.216 31.058 15.156 31.086C14.844 31.242 14.512 31.32 14.16 31.32C13.768 31.32 13.408 31.238 13.08 31.074C12.752 30.906 12.49 30.66 12.294 30.336C12.098 30.012 12 29.62 12 29.16C12 28.752 12.092 28.386 12.276 28.062C12.464 27.738 12.722 27.486 13.05 27.306C13.378 27.122 13.748 27.03 14.16 27.03C14.516 27.03 14.846 27.108 15.15 27.264Z" fill="white"/>
<path d="M17.3217 31.32C17.0337 31.32 16.7777 31.284 16.5537 31.212C16.3297 31.14 16.1197 31.018 15.9237 30.846C15.8157 30.75 15.7617 30.644 15.7617 30.528C15.7617 30.436 15.7957 30.356 15.8637 30.288C15.9317 30.216 16.0137 30.18 16.1097 30.18C16.1857 30.18 16.2537 30.204 16.3137 30.252C16.4737 30.384 16.6297 30.48 16.7817 30.54C16.9337 30.6 17.1137 30.63 17.3217 30.63C17.5457 30.63 17.7377 30.58 17.8977 30.48C18.0617 30.38 18.1437 30.256 18.1437 30.108C18.1437 29.928 18.0637 29.788 17.9037 29.688C17.7437 29.584 17.4897 29.506 17.1417 29.454C16.2657 29.326 15.8277 28.918 15.8277 28.23C15.8277 27.978 15.8937 27.76 16.0257 27.576C16.1577 27.388 16.3377 27.246 16.5657 27.15C16.7937 27.05 17.0477 27 17.3277 27C17.5797 27 17.8157 27.038 18.0357 27.114C18.2597 27.19 18.4457 27.29 18.5937 27.414C18.7097 27.506 18.7677 27.612 18.7677 27.732C18.7677 27.824 18.7337 27.906 18.6657 27.978C18.5977 28.046 18.5177 28.08 18.4257 28.08C18.3657 28.08 18.3117 28.062 18.2637 28.026C18.1597 27.942 18.0137 27.866 17.8257 27.798C17.6417 27.726 17.4757 27.69 17.3277 27.69C17.0757 27.69 16.8797 27.738 16.7397 27.834C16.6037 27.926 16.5357 28.048 16.5357 28.2C16.5357 28.372 16.6057 28.502 16.7457 28.59C16.8897 28.678 17.1137 28.75 17.4177 28.806C17.7617 28.866 18.0357 28.944 18.2397 29.04C18.4477 29.132 18.6037 29.26 18.7077 29.424C18.8117 29.584 18.8637 29.798 18.8637 30.066C18.8637 30.318 18.7917 30.54 18.6477 30.732C18.5077 30.92 18.3197 31.066 18.0837 31.17C17.8477 31.27 17.5937 31.32 17.3217 31.32Z" fill="white"/>
<path d="M22.6178 27.048C22.7178 27.048 22.8038 27.082 22.8758 27.15C22.9518 27.218 22.9898 27.3 22.9898 27.396C22.9898 27.448 22.9778 27.502 22.9538 27.558L21.4718 31.026C21.4358 31.102 21.3858 31.16 21.3218 31.2C21.2578 31.24 21.1898 31.26 21.1178 31.26C21.0498 31.256 20.9858 31.236 20.9258 31.2C20.8698 31.16 20.8258 31.104 20.7938 31.032L19.3118 27.552C19.2918 27.512 19.2818 27.462 19.2818 27.402C19.2818 27.294 19.3218 27.208 19.4018 27.144C19.4818 27.076 19.5638 27.042 19.6478 27.042C19.7158 27.042 19.7798 27.062 19.8398 27.102C19.8998 27.142 19.9458 27.2 19.9778 27.276L21.1838 30.114L22.2878 27.276C22.3198 27.204 22.3658 27.148 22.4258 27.108C22.4858 27.068 22.5498 27.048 22.6178 27.048Z" fill="white"/>
</svg>
