<svg width="250" height="137" viewBox="0 0 250 137" fill="none" xmlns="http://www.w3.org/2000/svg">
<rect y="137" width="137" height="26" rx="2" transform="rotate(-90 0 137)" fill="#5B588F"/>
<path d="M11.34 123.35C11.4267 123.177 11.5633 123.077 11.75 123.05C11.9367 123.017 12.1067 123.063 12.26 123.19C12.38 123.277 12.4467 123.39 12.46 123.53C12.4733 123.663 12.4467 123.8 12.38 123.94C12.3067 124.1 12.25 124.27 12.21 124.45C12.17 124.623 12.15 124.807 12.15 125C12.15 125.36 12.2067 125.683 12.32 125.97C12.4333 126.25 12.5967 126.49 12.81 126.69C13.0167 126.89 13.2633 127.043 13.55 127.15C13.8367 127.25 14.1533 127.3 14.5 127.3C14.9067 127.3 15.26 127.243 15.56 127.13C15.86 127.01 16.11 126.847 16.31 126.64C16.51 126.433 16.66 126.19 16.76 125.91C16.8533 125.63 16.9 125.327 16.9 125C16.9 124.82 16.8833 124.64 16.85 124.46C16.8167 124.28 16.7567 124.107 16.67 123.94C16.6033 123.8 16.58 123.663 16.6 123.53C16.62 123.39 16.69 123.273 16.81 123.18C16.9767 123.047 17.15 123 17.33 123.04C17.5033 123.073 17.63 123.173 17.71 123.34C17.7967 123.513 17.87 123.693 17.93 123.88C17.9833 124.06 18.0233 124.243 18.05 124.43C18.0833 124.617 18.1 124.807 18.1 125C18.1 125.48 18.0233 125.937 17.87 126.37C17.7167 126.797 17.49 127.18 17.19 127.52C16.89 127.853 16.5167 128.117 16.07 128.31C15.6167 128.503 15.0933 128.6 14.5 128.6C13.9867 128.6 13.5133 128.513 13.08 128.34C12.6467 128.16 12.2733 127.91 11.96 127.59C11.64 127.263 11.3933 126.88 11.22 126.44C11.04 126 10.95 125.52 10.95 125C10.95 124.707 10.9833 124.42 11.05 124.14C11.1167 123.86 11.2133 123.597 11.34 123.35ZM18 119.26C18 119.447 17.9433 119.614 17.83 119.76C17.71 119.907 17.5633 119.98 17.39 119.98H11.61C11.4367 119.98 11.2933 119.924 11.18 119.81C11.06 119.69 11 119.544 11 119.37V116.49C11 116.144 11.0933 115.82 11.28 115.52C11.46 115.214 11.7133 114.967 12.04 114.78C12.36 114.594 12.73 114.5 13.15 114.5C13.4033 114.5 13.65 114.554 13.89 114.66C14.13 114.76 14.3467 114.9 14.54 115.08C14.7333 115.254 14.8833 115.45 14.99 115.67L14.76 115.66C14.86 115.474 14.98 115.32 15.12 115.2C15.2533 115.074 15.4 114.977 15.56 114.91C15.7133 114.837 15.88 114.794 16.06 114.78C16.2267 114.754 16.3733 114.737 16.5 114.73C16.6267 114.717 16.7333 114.697 16.82 114.67C16.9067 114.637 16.9733 114.577 17.02 114.49C17.1067 114.344 17.2333 114.254 17.4 114.22C17.56 114.18 17.7033 114.217 17.83 114.33C17.9167 114.404 17.9733 114.497 18 114.61C18.02 114.724 18.02 114.837 18 114.95C17.9733 115.064 17.94 115.157 17.9 115.23C17.8333 115.344 17.7367 115.457 17.61 115.57C17.4767 115.684 17.3 115.777 17.08 115.85C16.86 115.917 16.5767 115.95 16.23 115.95C16.1167 115.95 16.0133 115.97 15.92 116.01C15.82 116.05 15.7367 116.107 15.67 116.18C15.5967 116.254 15.5433 116.347 15.51 116.46C15.47 116.574 15.45 116.707 15.45 116.86V118.88L15.22 118.73H17.39C17.5633 118.73 17.71 118.777 17.83 118.87C17.9433 118.964 18 119.094 18 119.26ZM14.42 118.87V116.54C14.42 116.42 14.3667 116.304 14.26 116.19C14.1467 116.077 13.9967 115.984 13.81 115.91C13.6167 115.837 13.4067 115.8 13.18 115.8C12.8867 115.8 12.6433 115.88 12.45 116.04C12.25 116.194 12.15 116.36 12.15 116.54V118.85L11.83 118.73H14.66L14.42 118.87ZM11 110.505L11 107.155C11 106.982 11.0567 106.839 11.17 106.725C11.2767 106.605 11.4167 106.545 11.59 106.545C11.7567 106.545 11.8933 106.605 12 106.725C12.1 106.839 12.15 106.982 12.15 107.155V109.955L11.98 109.865H13.93L13.85 109.945V107.605C13.85 107.432 13.9067 107.289 14.02 107.175C14.1267 107.055 14.2667 106.995 14.44 106.995C14.6067 106.995 14.7433 107.055 14.85 107.175C14.95 107.289 15 107.432 15 107.605V109.915L14.92 109.865H16.94L16.85 109.945V107.155C16.85 106.982 16.91 106.839 17.03 106.725C17.1433 106.605 17.2767 106.545 17.43 106.545C17.5967 106.545 17.7333 106.605 17.84 106.725C17.9467 106.839 18 106.982 18 107.155V110.505C18 110.679 17.9433 110.825 17.83 110.945C17.71 111.059 17.5633 111.115 17.39 111.115H11.61C11.4367 111.115 11.2933 111.059 11.18 110.945C11.06 110.825 11 110.679 11 110.505ZM11 100.393C11 99.9126 11.09 99.4859 11.27 99.1126C11.45 98.7392 11.7033 98.4259 12.03 98.1726C12.35 97.9126 12.7233 97.7192 13.15 97.5926C13.57 97.4592 14.02 97.3926 14.5 97.3926C15.1467 97.3926 15.7367 97.5092 16.27 97.7426C16.7967 97.9759 17.2167 98.3159 17.53 98.7626C17.8433 99.2026 18 99.7459 18 100.393V102.783C18 102.956 17.9433 103.103 17.83 103.223C17.71 103.336 17.5633 103.393 17.39 103.393H11.61C11.4367 103.393 11.2933 103.336 11.18 103.223C11.06 103.103 11 102.956 11 102.783V100.393ZM16.85 100.493C16.85 100.073 16.7433 99.7292 16.53 99.4626C16.31 99.1959 16.0233 99.0026 15.67 98.8826C15.31 98.7559 14.92 98.6926 14.5 98.6926C14.1867 98.6926 13.89 98.7292 13.61 98.8026C13.3233 98.8692 13.0733 98.9759 12.86 99.1226C12.64 99.2692 12.4667 99.4559 12.34 99.6826C12.2133 99.9092 12.15 100.179 12.15 100.493V102.243L12.06 102.143H16.96L16.85 102.203V100.493ZM17.39 92.9941C17.5633 92.9941 17.71 93.0575 17.83 93.1841C17.9433 93.3108 18 93.4575 18 93.6241C18 93.8108 17.9433 93.9608 17.83 94.0741C17.71 94.1875 17.5633 94.2441 17.39 94.2441H11.61C11.4367 94.2441 11.2933 94.1841 11.18 94.0641C11.06 93.9441 11 93.7908 11 93.6041C11 93.4441 11.06 93.3041 11.18 93.1841C11.2933 93.0575 11.4367 92.9941 11.61 92.9941H17.39ZM18 87.1202C18 87.3069 17.9433 87.4602 17.83 87.5802C17.71 87.7002 17.5633 87.7602 17.39 87.7602H11.59V86.4602H17.39C17.5633 86.4602 17.71 86.5236 17.83 86.6502C17.9433 86.7702 18 86.9269 18 87.1202ZM12.15 89.3302C12.15 89.5036 12.0967 89.6502 11.99 89.7702C11.8833 89.8836 11.7433 89.9402 11.57 89.9402C11.3967 89.9402 11.26 89.8836 11.16 89.7702C11.0533 89.6502 11 89.5036 11 89.3302L11 84.8902C11 84.7169 11.0533 84.5736 11.16 84.4602C11.2667 84.3402 11.4067 84.2802 11.58 84.2802C11.7533 84.2802 11.8933 84.3402 12 84.4602C12.1 84.5736 12.15 84.7169 12.15 84.8902V89.3302ZM11.34 71.5277C11.4267 71.3544 11.5633 71.2544 11.75 71.2277C11.9367 71.1944 12.1067 71.2411 12.26 71.3677C12.38 71.4544 12.4467 71.5677 12.46 71.7077C12.4733 71.8411 12.4467 71.9777 12.38 72.1177C12.3067 72.2777 12.25 72.4477 12.21 72.6277C12.17 72.8011 12.15 72.9844 12.15 73.1777C12.15 73.5377 12.2067 73.8611 12.32 74.1477C12.4333 74.4277 12.5967 74.6677 12.81 74.8677C13.0167 75.0677 13.2633 75.2211 13.55 75.3277C13.8367 75.4277 14.1533 75.4777 14.5 75.4777C14.9067 75.4777 15.26 75.4211 15.56 75.3077C15.86 75.1877 16.11 75.0244 16.31 74.8177C16.51 74.6111 16.66 74.3677 16.76 74.0877C16.8533 73.8077 16.9 73.5044 16.9 73.1777C16.9 72.9977 16.8833 72.8177 16.85 72.6377C16.8167 72.4577 16.7567 72.2844 16.67 72.1177C16.6033 71.9777 16.58 71.8411 16.6 71.7077C16.62 71.5677 16.69 71.4511 16.81 71.3577C16.9767 71.2244 17.15 71.1777 17.33 71.2177C17.5033 71.2511 17.63 71.3511 17.71 71.5177C17.7967 71.6911 17.87 71.8711 17.93 72.0577C17.9833 72.2377 18.0233 72.4211 18.05 72.6077C18.0833 72.7944 18.1 72.9844 18.1 73.1777C18.1 73.6577 18.0233 74.1144 17.87 74.5477C17.7167 74.9744 17.49 75.3577 17.19 75.6977C16.89 76.0311 16.5167 76.2944 16.07 76.4877C15.6167 76.6811 15.0933 76.7777 14.5 76.7777C13.9867 76.7777 13.5133 76.6911 13.08 76.5177C12.6467 76.3377 12.2733 76.0877 11.96 75.7677C11.64 75.4411 11.3933 75.0577 11.22 74.6177C11.04 74.1777 10.95 73.6977 10.95 73.1777C10.95 72.8844 10.9833 72.5977 11.05 72.3177C11.1167 72.0377 11.2133 71.7744 11.34 71.5277ZM12.57 65.5882L17.65 67.7482C17.7767 67.7949 17.8767 67.8682 17.95 67.9682C18.0167 68.0615 18.05 68.1649 18.05 68.2782C18.05 68.4582 18 68.5915 17.9 68.6782C17.8 68.7649 17.6767 68.8082 17.53 68.8082C17.47 68.8082 17.4067 68.7982 17.34 68.7782L11.36 66.2882C11.2267 66.2349 11.1233 66.1549 11.05 66.0482C10.9767 65.9349 10.9467 65.8149 10.96 65.6882C10.96 65.5682 10.9967 65.4582 11.07 65.3582C11.1367 65.2515 11.2333 65.1749 11.36 65.1282L17.22 62.6682C17.3067 62.6349 17.3867 62.6182 17.46 62.6182C17.64 62.6182 17.7833 62.6782 17.89 62.7982C17.9967 62.9115 18.05 63.0382 18.05 63.1782C18.05 63.2982 18.0133 63.4082 17.94 63.5082C17.8667 63.6015 17.7667 63.6749 17.64 63.7282L12.63 65.8782L12.57 65.5882ZM16.43 67.4382L15.28 66.8882V64.1882L16.43 63.9982V67.4382ZM18 59.0515C18 59.2382 17.9433 59.4048 17.83 59.5515C17.71 59.6982 17.5633 59.7715 17.39 59.7715H11.61C11.4367 59.7715 11.2933 59.7148 11.18 59.6015C11.06 59.4815 11 59.3348 11 59.1615V56.2815C11 55.9348 11.0933 55.6115 11.28 55.3115C11.46 55.0048 11.7133 54.7582 12.04 54.5715C12.36 54.3848 12.73 54.2915 13.15 54.2915C13.4033 54.2915 13.65 54.3448 13.89 54.4515C14.13 54.5515 14.3467 54.6915 14.54 54.8715C14.7333 55.0448 14.8833 55.2415 14.99 55.4615L14.76 55.4515C14.86 55.2648 14.98 55.1115 15.12 54.9915C15.2533 54.8648 15.4 54.7682 15.56 54.7015C15.7133 54.6282 15.88 54.5848 16.06 54.5715C16.2267 54.5448 16.3733 54.5282 16.5 54.5215C16.6267 54.5082 16.7333 54.4882 16.82 54.4615C16.9067 54.4282 16.9733 54.3682 17.02 54.2815C17.1067 54.1348 17.2333 54.0448 17.4 54.0115C17.56 53.9715 17.7033 54.0082 17.83 54.1215C17.9167 54.1948 17.9733 54.2882 18 54.4015C18.02 54.5148 18.02 54.6282 18 54.7415C17.9733 54.8548 17.94 54.9482 17.9 55.0215C17.8333 55.1348 17.7367 55.2482 17.61 55.3615C17.4767 55.4748 17.3 55.5682 17.08 55.6415C16.86 55.7082 16.5767 55.7415 16.23 55.7415C16.1167 55.7415 16.0133 55.7615 15.92 55.8015C15.82 55.8415 15.7367 55.8982 15.67 55.9715C15.5967 56.0448 15.5433 56.1382 15.51 56.2515C15.47 56.3648 15.45 56.4982 15.45 56.6515V58.6715L15.22 58.5215H17.39C17.5633 58.5215 17.71 58.5682 17.83 58.6615C17.9433 58.7548 18 58.8848 18 59.0515ZM14.42 58.6615V56.3315C14.42 56.2115 14.3667 56.0948 14.26 55.9815C14.1467 55.8682 13.9967 55.7748 13.81 55.7015C13.6167 55.6282 13.4067 55.5915 13.18 55.5915C12.8867 55.5915 12.6433 55.6715 12.45 55.8315C12.25 55.9848 12.15 56.1515 12.15 56.3315V58.6415L11.83 58.5215H14.66L14.42 58.6615ZM11 47.9062C11 47.4262 11.09 46.9996 11.27 46.6262C11.45 46.2529 11.7033 45.9396 12.03 45.6862C12.35 45.4262 12.7233 45.2329 13.15 45.1062C13.57 44.9729 14.02 44.9062 14.5 44.9062C15.1467 44.9062 15.7367 45.0229 16.27 45.2562C16.7967 45.4896 17.2167 45.8296 17.53 46.2762C17.8433 46.7162 18 47.2596 18 47.9062L18 50.2962C18 50.4696 17.9433 50.6162 17.83 50.7362C17.71 50.8496 17.5633 50.9062 17.39 50.9062H11.61C11.4367 50.9062 11.2933 50.8496 11.18 50.7362C11.06 50.6162 11 50.4696 11 50.2962V47.9062ZM16.85 48.0062C16.85 47.5862 16.7433 47.2429 16.53 46.9762C16.31 46.7096 16.0233 46.5162 15.67 46.3962C15.31 46.2696 14.92 46.2062 14.5 46.2062C14.1867 46.2062 13.89 46.2429 13.61 46.3162C13.3233 46.3829 13.0733 46.4896 12.86 46.6362C12.64 46.7829 12.4667 46.9696 12.34 47.1962C12.2133 47.4229 12.15 47.6929 12.15 48.0062V49.7562L12.06 49.6562H16.96L16.85 49.7162V48.0062Z" fill="white"/>
<rect x="56" y="137" width="122" height="26" rx="2" transform="rotate(-90 56 137)" fill="#5B588F"/>
<path d="M67.57 124.966L72.65 127.126C72.7767 127.173 72.8767 127.246 72.95 127.346C73.0167 127.439 73.05 127.543 73.05 127.656C73.05 127.836 73 127.969 72.9 128.056C72.8 128.143 72.6767 128.186 72.53 128.186C72.47 128.186 72.4067 128.176 72.34 128.156L66.36 125.666C66.2267 125.613 66.1233 125.533 66.05 125.426C65.9767 125.313 65.9467 125.193 65.96 125.066C65.96 124.946 65.9967 124.836 66.07 124.736C66.1367 124.629 66.2333 124.553 66.36 124.506L72.22 122.046C72.3067 122.013 72.3867 121.996 72.46 121.996C72.64 121.996 72.7833 122.056 72.89 122.176C72.9967 122.289 73.05 122.416 73.05 122.556C73.05 122.676 73.0133 122.786 72.94 122.886C72.8667 122.979 72.7667 123.053 72.64 123.106L67.63 125.256L67.57 124.966ZM71.43 126.816L70.28 126.266V123.566L71.43 123.376V126.816ZM66 116.149C66 115.669 66.09 115.243 66.27 114.869C66.45 114.496 66.7033 114.183 67.03 113.929C67.35 113.669 67.7233 113.476 68.15 113.349C68.57 113.216 69.02 113.149 69.5 113.149C70.1467 113.149 70.7367 113.266 71.27 113.499C71.7967 113.733 72.2167 114.073 72.53 114.519C72.8433 114.959 73 115.503 73 116.149V118.539C73 118.713 72.9433 118.859 72.83 118.979C72.71 119.093 72.5633 119.149 72.39 119.149H66.61C66.4367 119.149 66.2933 119.093 66.18 118.979C66.06 118.859 66 118.713 66 118.539V116.149ZM71.85 116.249C71.85 115.829 71.7433 115.486 71.53 115.219C71.31 114.953 71.0233 114.759 70.67 114.639C70.31 114.513 69.92 114.449 69.5 114.449C69.1867 114.449 68.89 114.486 68.61 114.559C68.3233 114.626 68.0733 114.733 67.86 114.879C67.64 115.026 67.4667 115.213 67.34 115.439C67.2133 115.666 67.15 115.936 67.15 116.249V117.999L67.06 117.899H71.96L71.85 117.959V116.249ZM66 107.001C66 106.521 66.09 106.094 66.27 105.721C66.45 105.347 66.7033 105.034 67.03 104.781C67.35 104.521 67.7233 104.327 68.15 104.201C68.57 104.067 69.02 104.001 69.5 104.001C70.1467 104.001 70.7367 104.117 71.27 104.351C71.7967 104.584 72.2167 104.924 72.53 105.371C72.8433 105.811 73 106.354 73 107.001V109.391C73 109.564 72.9433 109.711 72.83 109.831C72.71 109.944 72.5633 110.001 72.39 110.001H66.61C66.4367 110.001 66.2933 109.944 66.18 109.831C66.06 109.711 66 109.564 66 109.391V107.001ZM71.85 107.101C71.85 106.681 71.7433 106.337 71.53 106.071C71.31 105.804 71.0233 105.611 70.67 105.491C70.31 105.364 69.92 105.301 69.5 105.301C69.1867 105.301 68.89 105.337 68.61 105.411C68.3233 105.477 68.0733 105.584 67.86 105.731C67.64 105.877 67.4667 106.064 67.34 106.291C67.2133 106.517 67.15 106.787 67.15 107.101V108.851L67.06 108.751H71.96L71.85 108.811V107.101ZM73 100.132C73 100.319 72.9433 100.486 72.83 100.632C72.71 100.779 72.5633 100.852 72.39 100.852H66.61C66.4367 100.852 66.2933 100.796 66.18 100.682C66.06 100.562 66 100.416 66 100.242V97.3623C66 97.0156 66.0933 96.6923 66.28 96.3923C66.46 96.0856 66.7133 95.839 67.04 95.6523C67.36 95.4656 67.73 95.3723 68.15 95.3723C68.4033 95.3723 68.65 95.4256 68.89 95.5323C69.13 95.6323 69.3467 95.7723 69.54 95.9523C69.7333 96.1256 69.8833 96.3223 69.99 96.5423L69.76 96.5323C69.86 96.3456 69.98 96.1923 70.12 96.0723C70.2533 95.9456 70.4 95.849 70.56 95.7823C70.7133 95.709 70.88 95.6656 71.06 95.6523C71.2267 95.6256 71.3733 95.609 71.5 95.6023C71.6267 95.589 71.7333 95.569 71.82 95.5423C71.9067 95.509 71.9733 95.449 72.02 95.3623C72.1067 95.2156 72.2333 95.1256 72.4 95.0923C72.56 95.0523 72.7033 95.089 72.83 95.2023C72.9167 95.2756 72.9733 95.369 73 95.4823C73.02 95.5956 73.02 95.709 73 95.8223C72.9733 95.9356 72.94 96.029 72.9 96.1023C72.8333 96.2156 72.7367 96.329 72.61 96.4423C72.4767 96.5556 72.3 96.649 72.08 96.7223C71.86 96.789 71.5767 96.8223 71.23 96.8223C71.1167 96.8223 71.0133 96.8423 70.92 96.8823C70.82 96.9223 70.7367 96.979 70.67 97.0523C70.5967 97.1256 70.5433 97.219 70.51 97.3323C70.47 97.4456 70.45 97.579 70.45 97.7323V99.7523L70.22 99.6023H72.39C72.5633 99.6023 72.71 99.649 72.83 99.7423C72.9433 99.8356 73 99.9656 73 100.132ZM69.42 99.7423V97.4123C69.42 97.2923 69.3667 97.1756 69.26 97.0623C69.1467 96.949 68.9967 96.8556 68.81 96.7823C68.6167 96.709 68.4067 96.6723 68.18 96.6723C67.8867 96.6723 67.6433 96.7523 67.45 96.9123C67.25 97.0656 67.15 97.2323 67.15 97.4123V99.7223L66.83 99.6023H69.66L69.42 99.7423ZM66 91.3771V88.0271C66 87.8537 66.0567 87.7104 66.17 87.5971C66.2767 87.4771 66.4167 87.4171 66.59 87.4171C66.7567 87.4171 66.8933 87.4771 67 87.5971C67.1 87.7104 67.15 87.8537 67.15 88.0271V90.8271L66.98 90.7371H68.93L68.85 90.8171V88.4771C68.85 88.3037 68.9067 88.1604 69.02 88.0471C69.1267 87.9271 69.2667 87.8671 69.44 87.8671C69.6067 87.8671 69.7433 87.9271 69.85 88.0471C69.95 88.1604 70 88.3037 70 88.4771V90.7871L69.92 90.7371H71.94L71.85 90.8171V88.0271C71.85 87.8537 71.91 87.7104 72.03 87.5971C72.1433 87.4771 72.2767 87.4171 72.43 87.4171C72.5967 87.4171 72.7333 87.4771 72.84 87.5971C72.9467 87.7104 73 87.8537 73 88.0271V91.3771C73 91.5504 72.9433 91.6971 72.83 91.8171C72.71 91.9304 72.5633 91.9871 72.39 91.9871H66.61C66.4367 91.9871 66.2933 91.9304 66.18 91.8171C66.06 91.6971 66 91.5504 66 91.3771ZM73.1 82.0144C73.1 82.4811 73.0433 82.9011 72.93 83.2744C72.81 83.6477 72.6033 84.0044 72.31 84.3444C72.2367 84.4311 72.1533 84.4977 72.06 84.5444C71.9667 84.5911 71.8733 84.6144 71.78 84.6144C71.6267 84.6144 71.4933 84.5611 71.38 84.4544C71.26 84.3411 71.2 84.2011 71.2 84.0344C71.2 83.9077 71.24 83.7944 71.32 83.6944C71.5267 83.4411 71.6833 83.1911 71.79 82.9444C71.8967 82.6911 71.95 82.3811 71.95 82.0144C71.95 81.7677 71.9133 81.5411 71.84 81.3344C71.76 81.1277 71.6567 80.9611 71.53 80.8344C71.3967 80.7077 71.2467 80.6444 71.08 80.6444C70.88 80.6444 70.71 80.7044 70.57 80.8244C70.43 80.9444 70.3133 81.1277 70.22 81.3744C70.12 81.6211 70.0433 81.9344 69.99 82.3144C69.9367 82.6744 69.8567 82.9911 69.75 83.2644C69.6367 83.5377 69.4967 83.7677 69.33 83.9544C69.1567 84.1344 68.9567 84.2711 68.73 84.3644C68.4967 84.4577 68.2367 84.5044 67.95 84.5044C67.5167 84.5044 67.1467 84.3944 66.84 84.1744C66.5333 83.9477 66.3 83.6444 66.14 83.2644C65.98 82.8844 65.9 82.4644 65.9 82.0044C65.9 81.5711 65.9667 81.1711 66.1 80.8044C66.2267 80.4311 66.39 80.1277 66.59 79.8944C66.7433 79.7011 66.92 79.6044 67.12 79.6044C67.2667 79.6044 67.4 79.6611 67.52 79.7744C67.64 79.8877 67.7 80.0211 67.7 80.1744C67.7 80.2744 67.67 80.3644 67.61 80.4444C67.5167 80.5511 67.43 80.6944 67.35 80.8744C67.2633 81.0544 67.1933 81.2444 67.14 81.4444C67.08 81.6444 67.05 81.8311 67.05 82.0044C67.05 82.2911 67.0867 82.5344 67.16 82.7344C67.2333 82.9277 67.3333 83.0744 67.46 83.1744C67.5867 83.2744 67.7333 83.3244 67.9 83.3244C68.1 83.3244 68.2667 83.2677 68.4 83.1544C68.5267 83.0344 68.63 82.8644 68.71 82.6444C68.7833 82.4244 68.85 82.1611 68.91 81.8544C68.9833 81.4544 69.07 81.1044 69.17 80.8044C69.27 80.4977 69.4 80.2444 69.56 80.0444C69.7133 79.8444 69.91 79.6944 70.15 79.5944C70.3833 79.4944 70.67 79.4444 71.01 79.4444C71.4433 79.4444 71.8167 79.5644 72.13 79.8044C72.4433 80.0444 72.6833 80.3611 72.85 80.7544C73.0167 81.1411 73.1 81.5611 73.1 82.0144ZM73.1 74.0476C73.1 74.5143 73.0433 74.9343 72.93 75.3076C72.81 75.6809 72.6033 76.0376 72.31 76.3776C72.2367 76.4643 72.1533 76.5309 72.06 76.5776C71.9667 76.6243 71.8733 76.6476 71.78 76.6476C71.6267 76.6476 71.4933 76.5943 71.38 76.4876C71.26 76.3743 71.2 76.2343 71.2 76.0676C71.2 75.9409 71.24 75.8276 71.32 75.7276C71.5267 75.4743 71.6833 75.2243 71.79 74.9776C71.8967 74.7243 71.95 74.4143 71.95 74.0476C71.95 73.8009 71.9133 73.5743 71.84 73.3676C71.76 73.1609 71.6567 72.9943 71.53 72.8676C71.3967 72.7409 71.2467 72.6776 71.08 72.6776C70.88 72.6776 70.71 72.7376 70.57 72.8576C70.43 72.9776 70.3133 73.1609 70.22 73.4076C70.12 73.6543 70.0433 73.9676 69.99 74.3476C69.9367 74.7076 69.8567 75.0243 69.75 75.2976C69.6367 75.5709 69.4967 75.8009 69.33 75.9876C69.1567 76.1676 68.9567 76.3043 68.73 76.3976C68.4967 76.4909 68.2367 76.5376 67.95 76.5376C67.5167 76.5376 67.1467 76.4276 66.84 76.2076C66.5333 75.9809 66.3 75.6776 66.14 75.2976C65.98 74.9176 65.9 74.4976 65.9 74.0376C65.9 73.6043 65.9667 73.2043 66.1 72.8376C66.2267 72.4643 66.39 72.1609 66.59 71.9276C66.7433 71.7343 66.92 71.6376 67.12 71.6376C67.2667 71.6376 67.4 71.6943 67.52 71.8076C67.64 71.9209 67.7 72.0543 67.7 72.2076C67.7 72.3076 67.67 72.3976 67.61 72.4776C67.5167 72.5843 67.43 72.7276 67.35 72.9076C67.2633 73.0876 67.1933 73.2776 67.14 73.4776C67.08 73.6776 67.05 73.8643 67.05 74.0376C67.05 74.3243 67.0867 74.5676 67.16 74.7676C67.2333 74.9609 67.3333 75.1076 67.46 75.2076C67.5867 75.3076 67.7333 75.3576 67.9 75.3576C68.1 75.3576 68.2667 75.3009 68.4 75.1876C68.5267 75.0676 68.63 74.8976 68.71 74.6776C68.7833 74.4576 68.85 74.1943 68.91 73.8876C68.9833 73.4876 69.07 73.1376 69.17 72.8376C69.27 72.5309 69.4 72.2776 69.56 72.0776C69.7133 71.8776 69.91 71.7276 70.15 71.6276C70.3833 71.5276 70.67 71.4776 71.01 71.4776C71.4433 71.4776 71.8167 71.5976 72.13 71.8376C72.4433 72.0776 72.6833 72.3943 72.85 72.7876C73.0167 73.1743 73.1 73.5943 73.1 74.0476Z" fill="white"/>
<rect x="112" y="137" width="103" height="26" rx="2" transform="rotate(-90 112 137)" fill="#5B588F"/>
<path d="M127.83 125.033C127.83 124.859 127.887 124.716 128 124.603C128.107 124.483 128.247 124.423 128.42 124.423C128.587 124.423 128.727 124.483 128.84 124.603C128.947 124.716 129 124.859 129 125.033V128.283C129 128.456 128.943 128.603 128.83 128.723C128.71 128.836 128.563 128.893 128.39 128.893H122.61C122.437 128.893 122.293 128.833 122.18 128.713C122.06 128.593 122 128.439 122 128.253C122 128.093 122.06 127.953 122.18 127.833C122.293 127.706 122.437 127.643 122.61 127.643H128L127.83 127.863V125.033ZM128.39 120.027C128.563 120.027 128.71 120.091 128.83 120.217C128.943 120.344 129 120.491 129 120.657C129 120.844 128.943 120.994 128.83 121.107C128.71 121.221 128.563 121.277 128.39 121.277H122.61C122.437 121.277 122.293 121.217 122.18 121.097C122.06 120.977 122 120.824 122 120.637C122 120.477 122.06 120.337 122.18 120.217C122.293 120.091 122.437 120.027 122.61 120.027H128.39ZM129.1 114.273C129.1 114.74 129.043 115.16 128.93 115.533C128.81 115.907 128.603 116.263 128.31 116.603C128.237 116.69 128.153 116.757 128.06 116.803C127.967 116.85 127.873 116.873 127.78 116.873C127.627 116.873 127.493 116.82 127.38 116.713C127.26 116.6 127.2 116.46 127.2 116.293C127.2 116.167 127.24 116.053 127.32 115.953C127.527 115.7 127.683 115.45 127.79 115.203C127.897 114.95 127.95 114.64 127.95 114.273C127.95 114.027 127.913 113.8 127.84 113.593C127.76 113.387 127.657 113.22 127.53 113.093C127.397 112.967 127.247 112.903 127.08 112.903C126.88 112.903 126.71 112.963 126.57 113.083C126.43 113.203 126.313 113.387 126.22 113.633C126.12 113.88 126.043 114.193 125.99 114.573C125.937 114.933 125.857 115.25 125.75 115.523C125.637 115.797 125.497 116.027 125.33 116.213C125.157 116.393 124.957 116.53 124.73 116.623C124.497 116.717 124.237 116.763 123.95 116.763C123.517 116.763 123.147 116.653 122.84 116.433C122.533 116.207 122.3 115.903 122.14 115.523C121.98 115.143 121.9 114.723 121.9 114.263C121.9 113.83 121.967 113.43 122.1 113.063C122.227 112.69 122.39 112.387 122.59 112.153C122.743 111.96 122.92 111.863 123.12 111.863C123.267 111.863 123.4 111.92 123.52 112.033C123.64 112.147 123.7 112.28 123.7 112.433C123.7 112.533 123.67 112.623 123.61 112.703C123.517 112.81 123.43 112.953 123.35 113.133C123.263 113.313 123.193 113.503 123.14 113.703C123.08 113.903 123.05 114.09 123.05 114.263C123.05 114.55 123.087 114.793 123.16 114.993C123.233 115.187 123.333 115.333 123.46 115.433C123.587 115.533 123.733 115.583 123.9 115.583C124.1 115.583 124.267 115.527 124.4 115.413C124.527 115.293 124.63 115.123 124.71 114.903C124.783 114.683 124.85 114.42 124.91 114.113C124.983 113.713 125.07 113.363 125.17 113.063C125.27 112.757 125.4 112.503 125.56 112.303C125.713 112.103 125.91 111.953 126.15 111.853C126.383 111.753 126.67 111.703 127.01 111.703C127.443 111.703 127.817 111.823 128.13 112.063C128.443 112.303 128.683 112.62 128.85 113.013C129.017 113.4 129.1 113.82 129.1 114.273ZM122 107.947V104.597C122 104.423 122.057 104.28 122.17 104.167C122.277 104.047 122.417 103.987 122.59 103.987C122.757 103.987 122.893 104.047 123 104.167C123.1 104.28 123.15 104.423 123.15 104.597V107.397L122.98 107.307H124.93L124.85 107.387V105.047C124.85 104.873 124.907 104.73 125.02 104.617C125.127 104.497 125.267 104.437 125.44 104.437C125.607 104.437 125.743 104.497 125.85 104.617C125.95 104.73 126 104.873 126 105.047V107.357L125.92 107.307H127.94L127.85 107.387V104.597C127.85 104.423 127.91 104.28 128.03 104.167C128.143 104.047 128.277 103.987 128.43 103.987C128.597 103.987 128.733 104.047 128.84 104.167C128.947 104.28 129 104.423 129 104.597V107.947C129 108.12 128.943 108.267 128.83 108.387C128.71 108.5 128.563 108.557 128.39 108.557H122.61C122.437 108.557 122.293 108.5 122.18 108.387C122.06 108.267 122 108.12 122 107.947ZM122 95.524C122 95.364 122.053 95.234 122.16 95.134C122.267 95.034 122.4 94.984 122.56 94.984H128.39C128.563 94.984 128.71 95.044 128.83 95.164C128.943 95.2773 129 95.4207 129 95.594C129 95.6807 128.987 95.7707 128.96 95.864C128.927 95.9507 128.883 96.0173 128.83 96.064L123.84 99.994L123.68 99.734H128.44C128.6 99.734 128.733 99.7873 128.84 99.894C128.947 99.994 129 100.127 129 100.294C129 100.454 128.947 100.584 128.84 100.684C128.733 100.784 128.6 100.834 128.44 100.834H122.61C122.437 100.834 122.293 100.777 122.18 100.664C122.06 100.544 122 100.397 122 100.224C122 100.131 122.02 100.034 122.06 99.934C122.093 99.834 122.147 99.7607 122.22 99.714L127.08 95.904L127.2 96.074H122.56C122.4 96.074 122.267 96.024 122.16 95.924C122.053 95.824 122 95.6907 122 95.524ZM122.34 86.5805C122.427 86.4071 122.563 86.3071 122.75 86.2805C122.937 86.2471 123.107 86.2938 123.26 86.4205C123.38 86.5071 123.447 86.6205 123.46 86.7605C123.473 86.8938 123.447 87.0305 123.38 87.1705C123.307 87.3305 123.25 87.5005 123.21 87.6805C123.17 87.8538 123.15 88.0371 123.15 88.2305C123.15 88.5905 123.207 88.9138 123.32 89.2005C123.433 89.4805 123.597 89.7205 123.81 89.9205C124.017 90.1205 124.263 90.2738 124.55 90.3805C124.837 90.4805 125.153 90.5305 125.5 90.5305C125.907 90.5305 126.26 90.4738 126.56 90.3605C126.86 90.2405 127.11 90.0771 127.31 89.8705C127.51 89.6638 127.66 89.4205 127.76 89.1405C127.853 88.8605 127.9 88.5571 127.9 88.2305C127.9 88.0505 127.883 87.8705 127.85 87.6905C127.817 87.5105 127.757 87.3371 127.67 87.1705C127.603 87.0305 127.58 86.8938 127.6 86.7605C127.62 86.6205 127.69 86.5038 127.81 86.4105C127.977 86.2771 128.15 86.2305 128.33 86.2705C128.503 86.3038 128.63 86.4038 128.71 86.5705C128.797 86.7438 128.87 86.9238 128.93 87.1105C128.983 87.2905 129.023 87.4738 129.05 87.6605C129.083 87.8471 129.1 88.0371 129.1 88.2305C129.1 88.7105 129.023 89.1671 128.87 89.6005C128.717 90.0271 128.49 90.4105 128.19 90.7505C127.89 91.0838 127.517 91.3471 127.07 91.5405C126.617 91.7338 126.093 91.8305 125.5 91.8305C124.987 91.8305 124.513 91.7438 124.08 91.5705C123.647 91.3905 123.273 91.1405 122.96 90.8205C122.64 90.4938 122.393 90.1105 122.22 89.6705C122.04 89.2305 121.95 88.7505 121.95 88.2305C121.95 87.9371 121.983 87.6505 122.05 87.3705C122.117 87.0905 122.213 86.8271 122.34 86.5805ZM122 82.6009V79.2509C122 79.0776 122.057 78.9343 122.17 78.8209C122.277 78.7009 122.417 78.6409 122.59 78.6409C122.757 78.6409 122.893 78.7009 123 78.8209C123.1 78.9343 123.15 79.0776 123.15 79.2509V82.0509L122.98 81.9609H124.93L124.85 82.0409V79.7009C124.85 79.5276 124.907 79.3843 125.02 79.2709C125.127 79.1509 125.267 79.0909 125.44 79.0909C125.607 79.0909 125.743 79.1509 125.85 79.2709C125.95 79.3843 126 79.5276 126 79.7009V82.0109L125.92 81.9609H127.94L127.85 82.0409V79.2509C127.85 79.0776 127.91 78.9343 128.03 78.8209C128.143 78.7009 128.277 78.6409 128.43 78.6409C128.597 78.6409 128.733 78.7009 128.84 78.8209C128.947 78.9343 129 79.0776 129 79.2509V82.6009C129 82.7743 128.943 82.9209 128.83 83.0409C128.71 83.1543 128.563 83.2109 128.39 83.2109H122.61C122.437 83.2109 122.293 83.1543 122.18 83.0409C122.06 82.9209 122 82.7743 122 82.6009Z" fill="white"/>
<rect x="168" y="137" width="78.0001" height="26" rx="2" transform="rotate(-90 168 137)" fill="#5B588F"/>
<path d="M179.57 128.109L184.65 130.269C184.777 130.316 184.877 130.389 184.95 130.489C185.017 130.582 185.05 130.686 185.05 130.799C185.05 130.979 185 131.112 184.9 131.199C184.8 131.286 184.677 131.329 184.53 131.329C184.47 131.329 184.407 131.319 184.34 131.299L178.36 128.809C178.227 128.756 178.123 128.676 178.05 128.569C177.977 128.456 177.947 128.336 177.96 128.209C177.96 128.089 177.997 127.979 178.07 127.879C178.137 127.772 178.233 127.696 178.36 127.649L184.22 125.189C184.307 125.156 184.387 125.139 184.46 125.139C184.64 125.139 184.783 125.199 184.89 125.319C184.997 125.432 185.05 125.559 185.05 125.699C185.05 125.819 185.013 125.929 184.94 126.029C184.867 126.122 184.767 126.196 184.64 126.249L179.63 128.399L179.57 128.109ZM183.43 129.959L182.28 129.409V126.709L183.43 126.519V129.959ZM177.97 114.647C177.97 114.494 178.03 114.347 178.15 114.207C178.263 114.067 178.42 113.997 178.62 113.997C178.68 113.997 178.747 114.007 178.82 114.027L184.62 115.997C184.74 116.037 184.833 116.11 184.9 116.217C184.96 116.317 184.993 116.424 185 116.537C185 116.65 184.967 116.764 184.9 116.877C184.833 116.984 184.737 117.067 184.61 117.127L181.25 118.607L181.31 118.517L184.61 119.977C184.737 120.037 184.833 120.124 184.9 120.237C184.967 120.344 185 120.454 185 120.567C184.993 120.674 184.96 120.78 184.9 120.887C184.833 120.994 184.74 121.067 184.62 121.107L178.82 123.077C178.747 123.097 178.68 123.107 178.62 123.107C178.42 123.107 178.263 123.037 178.15 122.897C178.03 122.75 177.97 122.6 177.97 122.447C177.97 122.32 178.003 122.204 178.07 122.097C178.137 121.984 178.233 121.907 178.36 121.867L183.18 120.277L183.17 120.497L179.76 119.077C179.64 119.024 179.547 118.947 179.48 118.847C179.407 118.747 179.373 118.634 179.38 118.507C179.373 118.38 179.407 118.267 179.48 118.167C179.547 118.067 179.64 117.994 179.76 117.947L183.02 116.647L183.12 116.807L178.36 115.237C178.233 115.197 178.137 115.12 178.07 115.007C178.003 114.894 177.97 114.774 177.97 114.647ZM185.1 108.931C185.1 109.398 185.043 109.818 184.93 110.191C184.81 110.564 184.603 110.921 184.31 111.261C184.237 111.348 184.153 111.414 184.06 111.461C183.967 111.508 183.873 111.531 183.78 111.531C183.627 111.531 183.493 111.478 183.38 111.371C183.26 111.258 183.2 111.118 183.2 110.951C183.2 110.824 183.24 110.711 183.32 110.611C183.527 110.358 183.683 110.108 183.79 109.861C183.897 109.608 183.95 109.298 183.95 108.931C183.95 108.684 183.913 108.458 183.84 108.251C183.76 108.044 183.657 107.878 183.53 107.751C183.397 107.624 183.247 107.561 183.08 107.561C182.88 107.561 182.71 107.621 182.57 107.741C182.43 107.861 182.313 108.044 182.22 108.291C182.12 108.538 182.043 108.851 181.99 109.231C181.937 109.591 181.857 109.908 181.75 110.181C181.637 110.454 181.497 110.684 181.33 110.871C181.157 111.051 180.957 111.188 180.73 111.281C180.497 111.374 180.237 111.421 179.95 111.421C179.517 111.421 179.147 111.311 178.84 111.091C178.533 110.864 178.3 110.561 178.14 110.181C177.98 109.801 177.9 109.381 177.9 108.921C177.9 108.488 177.967 108.088 178.1 107.721C178.227 107.348 178.39 107.044 178.59 106.811C178.743 106.618 178.92 106.521 179.12 106.521C179.267 106.521 179.4 106.578 179.52 106.691C179.64 106.804 179.7 106.938 179.7 107.091C179.7 107.191 179.67 107.281 179.61 107.361C179.517 107.468 179.43 107.611 179.35 107.791C179.263 107.971 179.193 108.161 179.14 108.361C179.08 108.561 179.05 108.748 179.05 108.921C179.05 109.208 179.087 109.451 179.16 109.651C179.233 109.844 179.333 109.991 179.46 110.091C179.587 110.191 179.733 110.241 179.9 110.241C180.1 110.241 180.267 110.184 180.4 110.071C180.527 109.951 180.63 109.781 180.71 109.561C180.783 109.341 180.85 109.078 180.91 108.771C180.983 108.371 181.07 108.021 181.17 107.721C181.27 107.414 181.4 107.161 181.56 106.961C181.713 106.761 181.91 106.611 182.15 106.511C182.383 106.411 182.67 106.361 183.01 106.361C183.443 106.361 183.817 106.481 184.13 106.721C184.443 106.961 184.683 107.278 184.85 107.671C185.017 108.058 185.1 108.478 185.1 108.931ZM185 93.5914C185 93.778 184.923 93.928 184.77 94.0414L181.73 96.3514L180.8 95.4414L183.96 93.0514C184.087 92.958 184.223 92.9114 184.37 92.9114C184.557 92.9114 184.71 92.9814 184.83 93.1214C184.943 93.2614 185 93.418 185 93.5914ZM177.95 93.4714C177.95 93.3114 178.017 93.1814 178.15 93.0814C178.277 92.9747 178.407 92.9214 178.54 92.9214C178.68 92.9214 178.81 92.9814 178.93 93.1014L182.94 97.2914L181.51 97.3414L178.18 93.9614C178.027 93.808 177.95 93.6447 177.95 93.4714ZM185 97.7914C185 97.978 184.943 98.128 184.83 98.2414C184.71 98.3547 184.563 98.4114 184.39 98.4114H178.61C178.437 98.4114 178.293 98.3514 178.18 98.2314C178.06 98.1114 178 97.958 178 97.7714C178 97.5847 178.06 97.438 178.18 97.3314C178.293 97.218 178.437 97.1614 178.61 97.1614H184.39C184.563 97.1614 184.71 97.218 184.83 97.3314C184.943 97.4447 185 97.598 185 97.7914ZM178 89.2486V85.8986C178 85.7253 178.057 85.582 178.17 85.4686C178.277 85.3486 178.417 85.2886 178.59 85.2886C178.757 85.2886 178.893 85.3486 179 85.4686C179.1 85.582 179.15 85.7253 179.15 85.8986V88.6986L178.98 88.6086H180.93L180.85 88.6886V86.3486C180.85 86.1753 180.907 86.032 181.02 85.9186C181.127 85.7986 181.267 85.7386 181.44 85.7386C181.607 85.7386 181.743 85.7986 181.85 85.9186C181.95 86.032 182 86.1753 182 86.3486V88.6586L181.92 88.6086H183.94L183.85 88.6886V85.8986C183.85 85.7253 183.91 85.582 184.03 85.4686C184.143 85.3486 184.277 85.2886 184.43 85.2886C184.597 85.2886 184.733 85.3486 184.84 85.4686C184.947 85.582 185 85.7253 185 85.8986V89.2486C185 89.422 184.943 89.5686 184.83 89.6886C184.71 89.802 184.563 89.8586 184.39 89.8586H178.61C178.437 89.8586 178.293 89.802 178.18 89.6886C178.06 89.5686 178 89.422 178 89.2486ZM177.97 77.676C177.97 77.5227 178.03 77.386 178.15 77.266C178.263 77.1393 178.41 77.076 178.59 77.076C178.65 77.076 178.713 77.086 178.78 77.106C178.84 77.1193 178.9 77.146 178.96 77.186L182.21 79.456L181.52 79.276H184.39C184.563 79.276 184.71 79.336 184.83 79.456C184.943 79.5693 185 79.7027 185 79.856C185 80.0227 184.943 80.166 184.83 80.286C184.71 80.3993 184.563 80.456 184.39 80.456H181.6L181.92 80.376L179.05 82.536C178.963 82.6027 178.88 82.6493 178.8 82.676C178.72 82.7027 178.647 82.716 178.58 82.716C178.4 82.716 178.253 82.646 178.14 82.506C178.027 82.366 177.97 82.2227 177.97 82.076C177.97 81.8893 178.063 81.726 178.25 81.586L180.9 79.666L180.86 79.946L178.27 78.176C178.07 78.036 177.97 77.8693 177.97 77.676Z" fill="white"/>
<rect x="224" y="137" width="115" height="26" rx="2" transform="rotate(-90 224 137)" fill="#5B588F"/>
<path d="M234.34 124.563C234.427 124.39 234.563 124.29 234.75 124.263C234.937 124.23 235.107 124.277 235.26 124.403C235.38 124.49 235.447 124.603 235.46 124.743C235.473 124.877 235.447 125.013 235.38 125.153C235.307 125.313 235.25 125.483 235.21 125.663C235.17 125.837 235.15 126.02 235.15 126.213C235.15 126.573 235.207 126.897 235.32 127.183C235.433 127.463 235.597 127.703 235.81 127.903C236.017 128.103 236.263 128.257 236.55 128.363C236.837 128.463 237.153 128.513 237.5 128.513C237.907 128.513 238.26 128.457 238.56 128.343C238.86 128.223 239.11 128.06 239.31 127.853C239.51 127.647 239.66 127.403 239.76 127.123C239.853 126.843 239.9 126.54 239.9 126.213C239.9 126.033 239.883 125.853 239.85 125.673C239.817 125.493 239.757 125.32 239.67 125.153C239.603 125.013 239.58 124.877 239.6 124.743C239.62 124.603 239.69 124.487 239.81 124.393C239.977 124.26 240.15 124.213 240.33 124.253C240.503 124.287 240.63 124.387 240.71 124.553C240.797 124.727 240.87 124.907 240.93 125.093C240.983 125.273 241.023 125.457 241.05 125.643C241.083 125.83 241.1 126.02 241.1 126.213C241.1 126.693 241.023 127.15 240.87 127.583C240.717 128.01 240.49 128.393 240.19 128.733C239.89 129.067 239.517 129.33 239.07 129.523C238.617 129.717 238.093 129.813 237.5 129.813C236.987 129.813 236.513 129.727 236.08 129.553C235.647 129.373 235.273 129.123 234.96 128.803C234.64 128.477 234.393 128.093 234.22 127.653C234.04 127.213 233.95 126.733 233.95 126.213C233.95 125.92 233.983 125.633 234.05 125.353C234.117 125.073 234.213 124.81 234.34 124.563ZM241 120.474C241 120.661 240.943 120.827 240.83 120.974C240.71 121.121 240.563 121.194 240.39 121.194H234.61C234.437 121.194 234.293 121.137 234.18 121.024C234.06 120.904 234 120.757 234 120.584V117.704C234 117.357 234.093 117.034 234.28 116.734C234.46 116.427 234.713 116.181 235.04 115.994C235.36 115.807 235.73 115.714 236.15 115.714C236.403 115.714 236.65 115.767 236.89 115.874C237.13 115.974 237.347 116.114 237.54 116.294C237.733 116.467 237.883 116.664 237.99 116.884L237.76 116.874C237.86 116.687 237.98 116.534 238.12 116.414C238.253 116.287 238.4 116.191 238.56 116.124C238.713 116.051 238.88 116.007 239.06 115.994C239.227 115.967 239.373 115.951 239.5 115.944C239.627 115.931 239.733 115.911 239.82 115.884C239.907 115.851 239.973 115.791 240.02 115.704C240.107 115.557 240.233 115.467 240.4 115.434C240.56 115.394 240.703 115.431 240.83 115.544C240.917 115.617 240.973 115.711 241 115.824C241.02 115.937 241.02 116.051 241 116.164C240.973 116.277 240.94 116.371 240.9 116.444C240.833 116.557 240.737 116.671 240.61 116.784C240.477 116.897 240.3 116.991 240.08 117.064C239.86 117.131 239.577 117.164 239.23 117.164C239.117 117.164 239.013 117.184 238.92 117.224C238.82 117.264 238.737 117.321 238.67 117.394C238.597 117.467 238.543 117.561 238.51 117.674C238.47 117.787 238.45 117.921 238.45 118.074V120.094L238.22 119.944H240.39C240.563 119.944 240.71 119.991 240.83 120.084C240.943 120.177 241 120.307 241 120.474ZM237.42 120.084V117.754C237.42 117.634 237.367 117.517 237.26 117.404C237.147 117.291 236.997 117.197 236.81 117.124C236.617 117.051 236.407 117.014 236.18 117.014C235.887 117.014 235.643 117.094 235.45 117.254C235.25 117.407 235.15 117.574 235.15 117.754V120.064L234.83 119.944H237.66L237.42 120.084ZM234 111.719V108.369C234 108.195 234.057 108.052 234.17 107.939C234.277 107.819 234.417 107.759 234.59 107.759C234.757 107.759 234.893 107.819 235 107.939C235.1 108.052 235.15 108.195 235.15 108.369V111.169L234.98 111.079H236.93L236.85 111.159V108.819C236.85 108.645 236.907 108.502 237.02 108.389C237.127 108.269 237.267 108.209 237.44 108.209C237.607 108.209 237.743 108.269 237.85 108.389C237.95 108.502 238 108.645 238 108.819V111.129L237.92 111.079H239.94L239.85 111.159V108.369C239.85 108.195 239.91 108.052 240.03 107.939C240.143 107.819 240.277 107.759 240.43 107.759C240.597 107.759 240.733 107.819 240.84 107.939C240.947 108.052 241 108.195 241 108.369V111.719C241 111.892 240.943 112.039 240.83 112.159C240.71 112.272 240.563 112.329 240.39 112.329H234.61C234.437 112.329 234.293 112.272 234.18 112.159C234.06 112.039 234 111.892 234 111.719ZM234 101.606C234 101.126 234.09 100.699 234.27 100.326C234.45 99.9526 234.703 99.6393 235.03 99.386C235.35 99.126 235.723 98.9326 236.15 98.806C236.57 98.6726 237.02 98.606 237.5 98.606C238.147 98.606 238.737 98.7226 239.27 98.956C239.797 99.1893 240.217 99.5293 240.53 99.976C240.843 100.416 241 100.959 241 101.606V103.996C241 104.169 240.943 104.316 240.83 104.436C240.71 104.549 240.563 104.606 240.39 104.606H234.61C234.437 104.606 234.293 104.549 234.18 104.436C234.06 104.316 234 104.169 234 103.996V101.606ZM239.85 101.706C239.85 101.286 239.743 100.943 239.53 100.676C239.31 100.409 239.023 100.216 238.67 100.096C238.31 99.9693 237.92 99.906 237.5 99.906C237.187 99.906 236.89 99.9426 236.61 100.016C236.323 100.083 236.073 100.189 235.86 100.336C235.64 100.483 235.467 100.669 235.34 100.896C235.213 101.123 235.15 101.393 235.15 101.706V103.456L235.06 103.356H239.96L239.85 103.416V101.706ZM240.39 94.2075C240.563 94.2075 240.71 94.2709 240.83 94.3975C240.943 94.5242 241 94.6709 241 94.8375C241 95.0242 240.943 95.1742 240.83 95.2875C240.71 95.4009 240.563 95.4575 240.39 95.4575H234.61C234.437 95.4575 234.293 95.3975 234.18 95.2775C234.06 95.1575 234 95.0042 234 94.8175C234 94.6575 234.06 94.5175 234.18 94.3975C234.293 94.2709 234.437 94.2075 234.61 94.2075H240.39ZM241 88.3336C241 88.5203 240.943 88.6736 240.83 88.7936C240.71 88.9136 240.563 88.9736 240.39 88.9736H234.59V87.6736H240.39C240.563 87.6736 240.71 87.7369 240.83 87.8636C240.943 87.9836 241 88.1403 241 88.3336ZM235.15 90.5436C235.15 90.7169 235.097 90.8636 234.99 90.9836C234.883 91.0969 234.743 91.1536 234.57 91.1536C234.397 91.1536 234.26 91.0969 234.16 90.9836C234.053 90.8636 234 90.7169 234 90.5436V86.1036C234 85.9303 234.053 85.7869 234.16 85.6736C234.267 85.5536 234.407 85.4936 234.58 85.4936C234.753 85.4936 234.893 85.5536 235 85.6736C235.1 85.7869 235.15 85.9303 235.15 86.1036V90.5436ZM234.34 72.7411C234.427 72.5678 234.563 72.4678 234.75 72.4411C234.937 72.4078 235.107 72.4544 235.26 72.5811C235.38 72.6678 235.447 72.7811 235.46 72.9211C235.473 73.0544 235.447 73.1911 235.38 73.3311C235.307 73.4911 235.25 73.6611 235.21 73.8411C235.17 74.0144 235.15 74.1978 235.15 74.3911C235.15 74.7511 235.207 75.0744 235.32 75.3611C235.433 75.6411 235.597 75.8811 235.81 76.0811C236.017 76.2811 236.263 76.4344 236.55 76.5411C236.837 76.6411 237.153 76.6911 237.5 76.6911C237.907 76.6911 238.26 76.6344 238.56 76.5211C238.86 76.4011 239.11 76.2378 239.31 76.0311C239.51 75.8244 239.66 75.5811 239.76 75.3011C239.853 75.0211 239.9 74.7178 239.9 74.3911C239.9 74.2111 239.883 74.0311 239.85 73.8511C239.817 73.6711 239.757 73.4978 239.67 73.3311C239.603 73.1911 239.58 73.0544 239.6 72.9211C239.62 72.7811 239.69 72.6644 239.81 72.5711C239.977 72.4378 240.15 72.3911 240.33 72.4311C240.503 72.4644 240.63 72.5644 240.71 72.7311C240.797 72.9044 240.87 73.0844 240.93 73.2711C240.983 73.4511 241.023 73.6344 241.05 73.8211C241.083 74.0078 241.1 74.1978 241.1 74.3911C241.1 74.8711 241.023 75.3278 240.87 75.7611C240.717 76.1878 240.49 76.5711 240.19 76.9111C239.89 77.2444 239.517 77.5078 239.07 77.7011C238.617 77.8944 238.093 77.9911 237.5 77.9911C236.987 77.9911 236.513 77.9044 236.08 77.7311C235.647 77.5511 235.273 77.3011 234.96 76.9811C234.64 76.6544 234.393 76.2711 234.22 75.8311C234.04 75.3911 233.95 74.9111 233.95 74.3911C233.95 74.0978 233.983 73.8111 234.05 73.5311C234.117 73.2511 234.213 72.9878 234.34 72.7411ZM235.57 66.8016L240.65 68.9616C240.777 69.0082 240.877 69.0816 240.95 69.1816C241.017 69.2749 241.05 69.3782 241.05 69.4916C241.05 69.6716 241 69.8049 240.9 69.8916C240.8 69.9782 240.677 70.0216 240.53 70.0216C240.47 70.0216 240.407 70.0116 240.34 69.9916L234.36 67.5016C234.227 67.4482 234.123 67.3682 234.05 67.2616C233.977 67.1482 233.947 67.0282 233.96 66.9016C233.96 66.7816 233.997 66.6716 234.07 66.5716C234.137 66.4649 234.233 66.3882 234.36 66.3416L240.22 63.8816C240.307 63.8482 240.387 63.8316 240.46 63.8316C240.64 63.8316 240.783 63.8916 240.89 64.0116C240.997 64.1249 241.05 64.2516 241.05 64.3916C241.05 64.5116 241.013 64.6216 240.94 64.7216C240.867 64.8149 240.767 64.8882 240.64 64.9416L235.63 67.0916L235.57 66.8016ZM239.43 68.6516L238.28 68.1016V65.4016L239.43 65.2116V68.6516ZM241 60.2649C241 60.4515 240.943 60.6182 240.83 60.7649C240.71 60.9115 240.563 60.9849 240.39 60.9849H234.61C234.437 60.9849 234.293 60.9282 234.18 60.8149C234.06 60.6949 234 60.5482 234 60.3749V57.4949C234 57.1482 234.093 56.8249 234.28 56.5249C234.46 56.2182 234.713 55.9715 235.04 55.7849C235.36 55.5982 235.73 55.5049 236.15 55.5049C236.403 55.5049 236.65 55.5582 236.89 55.6649C237.13 55.7649 237.347 55.9049 237.54 56.0849C237.733 56.2582 237.883 56.4549 237.99 56.6749L237.76 56.6649C237.86 56.4782 237.98 56.3249 238.12 56.2049C238.253 56.0782 238.4 55.9815 238.56 55.9149C238.713 55.8415 238.88 55.7982 239.06 55.7849C239.227 55.7582 239.373 55.7415 239.5 55.7349C239.627 55.7215 239.733 55.7015 239.82 55.6749C239.907 55.6415 239.973 55.5815 240.02 55.4949C240.107 55.3482 240.233 55.2582 240.4 55.2249C240.56 55.1849 240.703 55.2215 240.83 55.3349C240.917 55.4082 240.973 55.5015 241 55.6149C241.02 55.7282 241.02 55.8415 241 55.9549C240.973 56.0682 240.94 56.1615 240.9 56.2349C240.833 56.3482 240.737 56.4615 240.61 56.5749C240.477 56.6882 240.3 56.7815 240.08 56.8549C239.86 56.9215 239.577 56.9549 239.23 56.9549C239.117 56.9549 239.013 56.9749 238.92 57.0149C238.82 57.0549 238.737 57.1115 238.67 57.1849C238.597 57.2582 238.543 57.3515 238.51 57.4649C238.47 57.5782 238.45 57.7115 238.45 57.8649V59.8849L238.22 59.7349H240.39C240.563 59.7349 240.71 59.7815 240.83 59.8749C240.943 59.9682 241 60.0982 241 60.2649ZM237.42 59.8749V57.5449C237.42 57.4249 237.367 57.3082 237.26 57.1949C237.147 57.0815 236.997 56.9882 236.81 56.9149C236.617 56.8415 236.407 56.8049 236.18 56.8049C235.887 56.8049 235.643 56.8849 235.45 57.0449C235.25 57.1982 235.15 57.3649 235.15 57.5449V59.8549L234.83 59.7349H237.66L237.42 59.8749ZM234 49.1196C234 48.6396 234.09 48.213 234.27 47.8396C234.45 47.4663 234.703 47.153 235.03 46.8996C235.35 46.6396 235.723 46.4463 236.15 46.3196C236.57 46.1863 237.02 46.1196 237.5 46.1196C238.147 46.1196 238.737 46.2363 239.27 46.4696C239.797 46.703 240.217 47.043 240.53 47.4896C240.843 47.9296 241 48.473 241 49.1196V51.5096C241 51.683 240.943 51.8296 240.83 51.9496C240.71 52.063 240.563 52.1196 240.39 52.1196H234.61C234.437 52.1196 234.293 52.063 234.18 51.9496C234.06 51.8296 234 51.683 234 51.5096V49.1196ZM239.85 49.2196C239.85 48.7996 239.743 48.4563 239.53 48.1896C239.31 47.923 239.023 47.7296 238.67 47.6096C238.31 47.483 237.92 47.4196 237.5 47.4196C237.187 47.4196 236.89 47.4563 236.61 47.5296C236.323 47.5963 236.073 47.703 235.86 47.8496C235.64 47.9963 235.467 48.183 235.34 48.4096C235.213 48.6363 235.15 48.9063 235.15 49.2196V50.9696L235.06 50.8696H239.96L239.85 50.9296V49.2196Z" fill="white"/>
</svg>
