<svg width="180" height="56" viewBox="0 0 180 56" fill="none" xmlns="http://www.w3.org/2000/svg">
<path d="M21.9 7.59001L20.9 3.72001C20.7981 3.33568 20.6209 2.97544 20.3786 2.66022C20.1363 2.345 19.8337 2.08109 19.4885 1.88383C19.1433 1.68657 18.7623 1.55989 18.3678 1.51117C17.9732 1.46244 17.5728 1.49264 17.19 1.60001L15.26 2.12001C15.1323 2.15365 15.0126 2.21224 14.9076 2.29241C14.8027 2.37257 14.7147 2.47272 14.6487 2.58708C14.5827 2.70143 14.54 2.82772 14.5231 2.95867C14.5061 3.08961 14.5153 3.22262 14.55 3.35001L14.81 4.35001L4.18999 7.16001C3.93433 7.22808 3.71607 7.39469 3.58299 7.62335C3.44992 7.85201 3.41288 8.12409 3.47999 8.38001L3.73999 9.38001L2.73999 9.64001C2.47478 9.67316 2.23359 9.81031 2.0695 10.0213C1.9054 10.2323 1.83184 10.4998 1.86499 10.765C1.89815 11.0302 2.0353 11.2714 2.24628 11.4355C2.45725 11.5996 2.72478 11.6732 2.98999 11.64C3.07635 11.6504 3.16364 11.6504 3.24999 11.64L4.24999 11.37L4.50999 12.37C4.5789 12.6225 4.74405 12.8379 4.96999 12.97C5.12143 13.0599 5.29391 13.1082 5.46999 13.11C5.556 13.1251 5.64399 13.1251 5.72999 13.11L8.99999 12.08V12.5C9.00069 12.944 9.10333 13.3819 9.29999 13.78L4.29999 18.78C4.11169 18.967 4.00538 19.2211 4.00444 19.4865C4.0035 19.7518 4.10802 20.0067 4.29499 20.195C4.48197 20.3833 4.73609 20.4896 5.00146 20.4906C5.26682 20.4915 5.52169 20.387 5.70999 20.2L10.71 15.2L10.99 15.31V21.5C10.99 21.7652 11.0954 22.0196 11.2829 22.2071C11.4704 22.3947 11.7248 22.5 11.99 22.5C12.2552 22.5 12.5096 22.3947 12.6971 22.2071C12.8846 22.0196 12.99 21.7652 12.99 21.5V15.32C13.0891 15.2861 13.1859 15.246 13.28 15.2L18.28 20.2C18.4683 20.387 18.7232 20.4915 18.9885 20.4906C19.2539 20.4896 19.508 20.3833 19.695 20.195C19.882 20.0067 19.9865 19.7518 19.9855 19.4865C19.9846 19.2211 19.8783 18.967 19.69 18.78L14.69 13.78C14.8841 13.3806 14.9898 12.944 15 12.5V10.5L16.35 10.14L16.6 11.14C16.6586 11.3582 16.7893 11.5501 16.9709 11.6844C17.1525 11.8188 17.3742 11.8877 17.6 11.88H17.86L19.79 11.36C20.1801 11.2576 20.5455 11.0776 20.8645 10.8308C21.1834 10.584 21.4493 10.2754 21.6463 9.92347C21.8432 9.57154 21.9672 9.18351 22.0108 8.78258C22.0544 8.38165 22.0167 7.97604 21.9 7.59001ZM13 12.5C12.999 12.7575 12.8987 13.0046 12.72 13.19C12.5346 13.3687 12.2875 13.469 12.03 13.47C11.7677 13.4689 11.5163 13.3648 11.33 13.18C11.1453 12.9937 11.0411 12.7423 11.04 12.48V11.48L13 11V12.5ZM6.18999 10.76L5.66999 8.83001L15.33 6.24001L15.59 7.24001L15.85 8.24001L6.18999 10.76ZM19.87 8.86001C19.8044 8.97477 19.7168 9.07541 19.612 9.15608C19.5073 9.23675 19.3877 9.29587 19.26 9.33001L18.26 9.59001L17.48 6.69001L17 4.76001L16.74 3.76001L17.74 3.50001C17.8674 3.46528 18.0004 3.45613 18.1313 3.47307C18.2623 3.49002 18.3886 3.53272 18.5029 3.59873C18.6173 3.66474 18.7174 3.75274 18.7976 3.85766C18.8778 3.96258 18.9364 4.08233 18.97 4.21001L19.97 8.08001C20.0069 8.21003 20.0171 8.34619 19.9999 8.48025C19.9827 8.61431 19.9385 8.7435 19.87 8.86001Z" fill="white"/>
<path d="M40.75 6.4C41.614 6.4 42.382 6.562 43.054 6.886C43.726 7.21 44.29 7.666 44.746 8.254C45.214 8.83 45.562 9.502 45.79 10.27C46.03 11.026 46.15 11.836 46.15 12.7C46.15 13.864 45.94 14.926 45.52 15.886C45.1 16.834 44.488 17.59 43.684 18.154C42.892 18.718 41.914 19 40.75 19H36.448C36.136 19 35.872 18.898 35.656 18.694C35.452 18.478 35.35 18.214 35.35 17.902V7.498C35.35 7.186 35.452 6.928 35.656 6.724C35.872 6.508 36.136 6.4 36.448 6.4H40.75ZM40.57 16.93C41.326 16.93 41.944 16.738 42.424 16.354C42.904 15.958 43.252 15.442 43.468 14.806C43.696 14.158 43.81 13.456 43.81 12.7C43.81 12.136 43.744 11.602 43.612 11.098C43.492 10.582 43.3 10.132 43.036 9.748C42.772 9.352 42.436 9.04 42.028 8.812C41.62 8.584 41.134 8.47 40.57 8.47H37.42L37.6 8.308V17.128L37.492 16.93H40.57ZM50.0712 17.902C50.0712 18.214 49.9692 18.478 49.7652 18.694C49.5612 18.898 49.3032 19 48.9912 19C48.6792 19 48.4212 18.898 48.2172 18.694C48.0132 18.478 47.9112 18.214 47.9112 17.902V10.468C47.9112 10.156 48.0132 9.898 48.2172 9.694C48.4212 9.478 48.6792 9.37 48.9912 9.37C49.3032 9.37 49.5612 9.478 49.7652 9.694C49.9692 9.898 50.0712 10.156 50.0712 10.468V17.902ZM48.9732 8.2C48.5652 8.2 48.2772 8.134 48.1092 8.002C47.9412 7.87 47.8572 7.636 47.8572 7.3V6.958C47.8572 6.61 47.9472 6.376 48.1272 6.256C48.3192 6.124 48.6072 6.058 48.9912 6.058C49.4112 6.058 49.7052 6.124 49.8732 6.256C50.0412 6.388 50.1252 6.622 50.1252 6.958V7.3C50.1252 7.648 50.0352 7.888 49.8552 8.02C49.6752 8.14 49.3812 8.2 48.9732 8.2ZM51.7331 17.506C51.6131 17.338 51.5591 17.122 51.5711 16.858C51.5831 16.594 51.7391 16.366 52.0391 16.174C52.2311 16.054 52.4351 16.006 52.6511 16.03C52.8671 16.042 53.0771 16.15 53.2811 16.354C53.6291 16.702 53.9951 16.972 54.3791 17.164C54.7631 17.356 55.2431 17.452 55.8191 17.452C55.9991 17.44 56.1971 17.416 56.4131 17.38C56.6291 17.332 56.8151 17.236 56.9711 17.092C57.1391 16.936 57.2231 16.702 57.2231 16.39C57.2231 16.126 57.1331 15.916 56.9531 15.76C56.7731 15.604 56.5331 15.472 56.2331 15.364C55.9451 15.256 55.6211 15.154 55.2611 15.058C54.8891 14.95 54.5051 14.83 54.1091 14.698C53.7251 14.566 53.3711 14.398 53.0471 14.194C52.7231 13.978 52.4591 13.696 52.2551 13.348C52.0511 13 51.9491 12.562 51.9491 12.034C51.9491 11.434 52.1171 10.924 52.4531 10.504C52.7891 10.084 53.2211 9.76 53.7491 9.532C54.2891 9.304 54.8531 9.19 55.4411 9.19C55.8131 9.19 56.2031 9.238 56.6111 9.334C57.0191 9.418 57.4091 9.562 57.7811 9.766C58.1531 9.958 58.4651 10.216 58.7171 10.54C58.8491 10.72 58.9271 10.936 58.9511 11.188C58.9751 11.44 58.8611 11.668 58.6091 11.872C58.4291 12.016 58.2191 12.082 57.9791 12.07C57.7391 12.046 57.5411 11.962 57.3851 11.818C57.1811 11.554 56.9051 11.344 56.5571 11.188C56.2211 11.032 55.8311 10.954 55.3871 10.954C55.2071 10.954 55.0091 10.978 54.7931 11.026C54.5891 11.062 54.4091 11.152 54.2531 11.296C54.0971 11.428 54.0191 11.644 54.0191 11.944C54.0191 12.22 54.1091 12.442 54.2891 12.61C54.4691 12.766 54.7091 12.898 55.0091 13.006C55.3211 13.102 55.6511 13.198 55.9991 13.294C56.3591 13.39 56.7251 13.504 57.0971 13.636C57.4691 13.768 57.8111 13.942 58.1231 14.158C58.4351 14.374 58.6871 14.656 58.8791 15.004C59.0711 15.34 59.1671 15.772 59.1671 16.3C59.1671 16.912 58.9871 17.434 58.6271 17.866C58.2671 18.298 57.8171 18.628 57.2771 18.856C56.7371 19.072 56.1851 19.18 55.6211 19.18C54.9131 19.18 54.2051 19.06 53.4971 18.82C52.7891 18.568 52.2011 18.13 51.7331 17.506ZM65.2587 9.19C65.9427 9.19 66.5367 9.262 67.0407 9.406C67.5567 9.55 67.9527 9.754 68.2287 10.018C68.5167 10.27 68.6607 10.576 68.6607 10.936C68.6607 11.176 68.5887 11.404 68.4447 11.62C68.3007 11.824 68.0907 11.926 67.8147 11.926C67.6227 11.926 67.4607 11.902 67.3287 11.854C67.2087 11.794 67.1007 11.722 67.0047 11.638C66.9087 11.554 66.7947 11.476 66.6627 11.404C66.5427 11.332 66.3567 11.278 66.1047 11.242C65.8647 11.194 65.6847 11.17 65.5647 11.17C64.9527 11.17 64.4307 11.302 63.9987 11.566C63.5787 11.83 63.2547 12.19 63.0267 12.646C62.7987 13.09 62.6847 13.606 62.6847 14.194C62.6847 14.77 62.7987 15.286 63.0267 15.742C63.2667 16.186 63.5907 16.54 63.9987 16.804C64.4187 17.068 64.8987 17.2 65.4387 17.2C65.7387 17.2 65.9967 17.182 66.2127 17.146C66.4287 17.11 66.6087 17.056 66.7527 16.984C66.9207 16.888 67.0707 16.786 67.2027 16.678C67.3347 16.57 67.5327 16.516 67.7967 16.516C68.1087 16.516 68.3487 16.618 68.5167 16.822C68.6847 17.014 68.7687 17.254 68.7687 17.542C68.7687 17.842 68.6007 18.118 68.2647 18.37C67.9287 18.61 67.4847 18.808 66.9327 18.964C66.3927 19.108 65.8047 19.18 65.1687 19.18C64.2207 19.18 63.3987 18.964 62.7027 18.532C62.0067 18.088 61.4667 17.488 61.0827 16.732C60.7107 15.976 60.5247 15.13 60.5247 14.194C60.5247 13.21 60.7227 12.346 61.1187 11.602C61.5267 10.846 62.0847 10.258 62.7927 9.838C63.5127 9.406 64.3347 9.19 65.2587 9.19ZM79.6683 14.194C79.6683 15.178 79.4463 16.048 79.0023 16.804C78.5703 17.548 77.9823 18.13 77.2383 18.55C76.5063 18.97 75.6843 19.18 74.7723 19.18C73.8603 19.18 73.0323 18.97 72.2883 18.55C71.5563 18.13 70.9683 17.548 70.5243 16.804C70.0923 16.048 69.8763 15.178 69.8763 14.194C69.8763 13.21 70.0923 12.346 70.5243 11.602C70.9683 10.846 71.5563 10.258 72.2883 9.838C73.0323 9.406 73.8603 9.19 74.7723 9.19C75.6843 9.19 76.5063 9.406 77.2383 9.838C77.9823 10.258 78.5703 10.846 79.0023 11.602C79.4463 12.346 79.6683 13.21 79.6683 14.194ZM77.5083 14.194C77.5083 13.582 77.3823 13.054 77.1303 12.61C76.8903 12.154 76.5603 11.8 76.1403 11.548C75.7323 11.296 75.2763 11.17 74.7723 11.17C74.2683 11.17 73.8063 11.296 73.3863 11.548C72.9783 11.8 72.6483 12.154 72.3963 12.61C72.1563 13.054 72.0363 13.582 72.0363 14.194C72.0363 14.794 72.1563 15.322 72.3963 15.778C72.6483 16.222 72.9783 16.57 73.3863 16.822C73.8063 17.074 74.2683 17.2 74.7723 17.2C75.2763 17.2 75.7323 17.074 76.1403 16.822C76.5603 16.57 76.8903 16.222 77.1303 15.778C77.3823 15.322 77.5083 14.794 77.5083 14.194ZM81.9028 9.37C82.1308 9.37 82.3408 9.43 82.5328 9.55C82.7248 9.658 82.8688 9.826 82.9648 10.054L85.6108 16.102L85.2148 16.282L87.9148 10.072C88.1188 9.592 88.4368 9.364 88.8688 9.388C89.1688 9.388 89.4088 9.484 89.5888 9.676C89.7808 9.856 89.8768 10.084 89.8768 10.36C89.8768 10.444 89.8588 10.534 89.8228 10.63C89.7988 10.726 89.7688 10.816 89.7328 10.9L86.3668 18.316C86.1748 18.748 85.8688 18.976 85.4488 19C85.2208 19.036 84.9988 18.994 84.7828 18.874C84.5788 18.754 84.4228 18.568 84.3148 18.316L80.9668 10.9C80.9428 10.84 80.9128 10.762 80.8768 10.666C80.8528 10.57 80.8408 10.456 80.8408 10.324C80.8408 10.108 80.9368 9.898 81.1288 9.694C81.3208 9.478 81.5788 9.37 81.9028 9.37ZM96.0263 19.18C95.0063 19.18 94.1183 18.97 93.3623 18.55C92.6183 18.118 92.0423 17.536 91.6343 16.804C91.2383 16.072 91.0403 15.244 91.0403 14.32C91.0403 13.24 91.2563 12.322 91.6883 11.566C92.1323 10.798 92.7083 10.21 93.4163 9.802C94.1243 9.394 94.8743 9.19 95.6663 9.19C96.2783 9.19 96.8543 9.316 97.3943 9.568C97.9463 9.82 98.4323 10.168 98.8523 10.612C99.2723 11.044 99.6023 11.548 99.8423 12.124C100.094 12.7 100.22 13.312 100.22 13.96C100.208 14.248 100.094 14.482 99.8783 14.662C99.6623 14.842 99.4103 14.932 99.1223 14.932H92.2463L91.7063 13.132H98.3123L97.9163 13.492V13.006C97.8923 12.658 97.7663 12.346 97.5383 12.07C97.3223 11.794 97.0463 11.578 96.7103 11.422C96.3863 11.254 96.0383 11.17 95.6663 11.17C95.3063 11.17 94.9703 11.218 94.6583 11.314C94.3463 11.41 94.0763 11.572 93.8483 11.8C93.6203 12.028 93.4403 12.334 93.3083 12.718C93.1763 13.102 93.1103 13.588 93.1103 14.176C93.1103 14.824 93.2423 15.376 93.5063 15.832C93.7823 16.276 94.1303 16.618 94.5503 16.858C94.9823 17.086 95.4383 17.2 95.9183 17.2C96.3623 17.2 96.7163 17.164 96.9803 17.092C97.2443 17.02 97.4543 16.936 97.6103 16.84C97.7783 16.732 97.9283 16.642 98.0603 16.57C98.2763 16.462 98.4803 16.408 98.6723 16.408C98.9363 16.408 99.1523 16.498 99.3203 16.678C99.5003 16.858 99.5903 17.068 99.5903 17.308C99.5903 17.632 99.4223 17.926 99.0863 18.19C98.7743 18.454 98.3363 18.688 97.7723 18.892C97.2083 19.084 96.6263 19.18 96.0263 19.18ZM103.188 19C102.876 19 102.618 18.898 102.414 18.694C102.21 18.478 102.108 18.214 102.108 17.902V10.468C102.108 10.156 102.21 9.898 102.414 9.694C102.618 9.478 102.876 9.37 103.188 9.37C103.5 9.37 103.758 9.478 103.962 9.694C104.166 9.898 104.268 10.156 104.268 10.468V12.16L104.142 10.954C104.274 10.666 104.442 10.414 104.646 10.198C104.862 9.97 105.102 9.784 105.366 9.64C105.63 9.484 105.912 9.37 106.212 9.298C106.512 9.226 106.812 9.19 107.112 9.19C107.472 9.19 107.772 9.292 108.012 9.496C108.264 9.7 108.39 9.94 108.39 10.216C108.39 10.612 108.288 10.9 108.084 11.08C107.88 11.248 107.658 11.332 107.418 11.332C107.19 11.332 106.98 11.29 106.788 11.206C106.608 11.122 106.398 11.08 106.158 11.08C105.942 11.08 105.72 11.134 105.492 11.242C105.276 11.338 105.072 11.494 104.88 11.71C104.7 11.926 104.55 12.196 104.43 12.52C104.322 12.832 104.268 13.204 104.268 13.636V17.902C104.268 18.214 104.166 18.478 103.962 18.694C103.758 18.898 103.5 19 103.188 19Z" fill="white"/>
<path d="M1.932 51C1.67067 51 1.456 50.9207 1.288 50.762C1.12933 50.594 1.05 50.3887 1.05 50.146V42.054C1.05 41.8113 1.12933 41.6107 1.288 41.452C1.456 41.284 1.66133 41.2 1.904 41.2H6.454C6.69667 41.2 6.89733 41.2793 7.056 41.438C7.224 41.5873 7.308 41.7833 7.308 42.026C7.308 42.2313 7.224 42.4133 7.056 42.572C6.89733 42.7307 6.69667 42.81 6.454 42.81H2.674L2.8 42.642V45.456L2.702 45.274H5.824C6.06667 45.274 6.26733 45.3533 6.426 45.512C6.594 45.6613 6.678 45.8573 6.678 46.1C6.678 46.3053 6.594 46.4873 6.426 46.646C6.26733 46.8047 6.06667 46.884 5.824 46.884H2.674L2.8 46.758V50.146C2.8 50.3887 2.71133 50.594 2.534 50.762C2.366 50.9207 2.16533 51 1.932 51ZM10.3533 50.146C10.3533 50.3887 10.274 50.594 10.1153 50.762C9.95666 50.9207 9.75599 51 9.51333 51C9.27066 51 9.06999 50.9207 8.91133 50.762C8.75266 50.594 8.67333 50.3887 8.67333 50.146V44.364C8.67333 44.1213 8.75266 43.9207 8.91133 43.762C9.06999 43.594 9.27066 43.51 9.51333 43.51C9.75599 43.51 9.95666 43.594 10.1153 43.762C10.274 43.9207 10.3533 44.1213 10.3533 44.364V50.146ZM9.49933 42.6C9.18199 42.6 8.95799 42.5487 8.82733 42.446C8.69666 42.3433 8.63133 42.1613 8.63133 41.9V41.634C8.63133 41.3633 8.70133 41.1813 8.84133 41.088C8.99066 40.9853 9.21466 40.934 9.51333 40.934C9.83999 40.934 10.0687 40.9853 10.1993 41.088C10.33 41.1907 10.3953 41.3727 10.3953 41.634V41.9C10.3953 42.1707 10.3253 42.3573 10.1853 42.46C10.0453 42.5533 9.81666 42.6 9.49933 42.6ZM16.0839 43.37C16.7746 43.37 17.2973 43.5147 17.6519 43.804C18.0159 44.0933 18.2633 44.4807 18.3939 44.966C18.5339 45.442 18.6039 45.974 18.6039 46.562V50.146C18.6039 50.3887 18.5246 50.594 18.3659 50.762C18.2073 50.9207 18.0066 51 17.7639 51C17.5213 51 17.3206 50.9207 17.1619 50.762C17.0033 50.594 16.9239 50.3887 16.9239 50.146V46.562C16.9239 46.254 16.8819 45.9787 16.7979 45.736C16.7233 45.484 16.5833 45.2833 16.3779 45.134C16.1726 44.9847 15.8786 44.91 15.4959 44.91C15.1226 44.91 14.8053 44.9847 14.5439 45.134C14.2919 45.2833 14.0959 45.484 13.9559 45.736C13.8253 45.9787 13.7599 46.254 13.7599 46.562V50.146C13.7599 50.3887 13.6806 50.594 13.5219 50.762C13.3633 50.9207 13.1626 51 12.9199 51C12.6773 51 12.4766 50.9207 12.3179 50.762C12.1593 50.594 12.0799 50.3887 12.0799 50.146V44.364C12.0799 44.1213 12.1593 43.9207 12.3179 43.762C12.4766 43.594 12.6773 43.51 12.9199 43.51C13.1626 43.51 13.3633 43.594 13.5219 43.762C13.6806 43.9207 13.7599 44.1213 13.7599 44.364V44.966L13.5499 44.924C13.6339 44.7653 13.7553 44.5973 13.9139 44.42C14.0726 44.2333 14.2593 44.0607 14.4739 43.902C14.6886 43.7433 14.9313 43.6173 15.2019 43.524C15.4726 43.4213 15.7666 43.37 16.0839 43.37ZM26.5518 40.64C26.7944 40.64 26.9951 40.7193 27.1538 40.878C27.3124 41.0367 27.3918 41.242 27.3918 41.494V50.146C27.3918 50.3887 27.3124 50.594 27.1538 50.762C26.9951 50.9207 26.7944 51 26.5518 51C26.3091 51 26.1084 50.9207 25.9498 50.762C25.7911 50.594 25.7118 50.3887 25.7118 50.146V49.46L26.0198 49.586C26.0198 49.7073 25.9544 49.8567 25.8238 50.034C25.6931 50.202 25.5158 50.37 25.2918 50.538C25.0678 50.706 24.8018 50.8507 24.4938 50.972C24.1951 51.084 23.8684 51.14 23.5138 51.14C22.8698 51.14 22.2864 50.9767 21.7638 50.65C21.2411 50.314 20.8258 49.8567 20.5178 49.278C20.2191 48.69 20.0698 48.018 20.0698 47.262C20.0698 46.4967 20.2191 45.8247 20.5178 45.246C20.8258 44.658 21.2364 44.2007 21.7498 43.874C22.2631 43.538 22.8324 43.37 23.4578 43.37C23.8591 43.37 24.2278 43.4307 24.5638 43.552C24.8998 43.6733 25.1891 43.8273 25.4318 44.014C25.6838 44.2007 25.8751 44.392 26.0058 44.588C26.1458 44.7747 26.2158 44.9333 26.2158 45.064L25.7118 45.246V41.494C25.7118 41.2513 25.7911 41.0507 25.9498 40.892C26.1084 40.724 26.3091 40.64 26.5518 40.64ZM23.7238 49.6C24.1344 49.6 24.4938 49.4973 24.8018 49.292C25.1098 49.0867 25.3478 48.8067 25.5158 48.452C25.6931 48.0973 25.7818 47.7007 25.7818 47.262C25.7818 46.814 25.6931 46.4127 25.5158 46.058C25.3478 45.7033 25.1098 45.4233 24.8018 45.218C24.4938 45.0127 24.1344 44.91 23.7238 44.91C23.3224 44.91 22.9678 45.0127 22.6598 45.218C22.3518 45.4233 22.1091 45.7033 21.9318 46.058C21.7638 46.4127 21.6798 46.814 21.6798 47.262C21.6798 47.7007 21.7638 48.0973 21.9318 48.452C22.1091 48.8067 22.3518 49.0867 22.6598 49.292C22.9678 49.4973 23.3224 49.6 23.7238 49.6ZM37.4746 41.2C38.1466 41.2 38.7439 41.326 39.2666 41.578C39.7893 41.83 40.2279 42.1847 40.5826 42.642C40.9466 43.09 41.2173 43.6127 41.3946 44.21C41.5813 44.798 41.6746 45.428 41.6746 46.1C41.6746 47.0053 41.5113 47.8313 41.1846 48.578C40.8579 49.3153 40.3819 49.9033 39.7566 50.342C39.1406 50.7807 38.3799 51 37.4746 51H34.1286C33.8859 51 33.6806 50.9207 33.5126 50.762C33.3539 50.594 33.2746 50.3887 33.2746 50.146V42.054C33.2746 41.8113 33.3539 41.6107 33.5126 41.452C33.6806 41.284 33.8859 41.2 34.1286 41.2H37.4746ZM37.3346 49.39C37.9226 49.39 38.4033 49.2407 38.7766 48.942C39.1499 48.634 39.4206 48.2327 39.5886 47.738C39.7659 47.234 39.8546 46.688 39.8546 46.1C39.8546 45.6613 39.8033 45.246 39.7006 44.854C39.6073 44.4527 39.4579 44.1027 39.2526 43.804C39.0473 43.496 38.7859 43.2533 38.4686 43.076C38.1513 42.8987 37.7733 42.81 37.3346 42.81H34.8846L35.0246 42.684V49.544L34.9406 49.39H37.3346ZM49.2744 43.37C49.5171 43.37 49.7178 43.4493 49.8764 43.608C50.0351 43.7667 50.1144 43.972 50.1144 44.224V50.146C50.1144 50.3887 50.0351 50.594 49.8764 50.762C49.7178 50.9207 49.5171 51 49.2744 51C49.0318 51 48.8311 50.9207 48.6724 50.762C48.5138 50.594 48.4344 50.3887 48.4344 50.146V49.46L48.7424 49.586C48.7424 49.7073 48.6771 49.8567 48.5464 50.034C48.4158 50.202 48.2384 50.37 48.0144 50.538C47.7904 50.706 47.5244 50.8507 47.2164 50.972C46.9178 51.084 46.5911 51.14 46.2364 51.14C45.5924 51.14 45.0091 50.9767 44.4864 50.65C43.9638 50.314 43.5484 49.8567 43.2404 49.278C42.9418 48.69 42.7924 48.018 42.7924 47.262C42.7924 46.4967 42.9418 45.8247 43.2404 45.246C43.5484 44.658 43.9591 44.2007 44.4724 43.874C44.9858 43.538 45.5551 43.37 46.1804 43.37C46.5818 43.37 46.9504 43.4307 47.2864 43.552C47.6224 43.6733 47.9118 43.8273 48.1544 44.014C48.4064 44.2007 48.5978 44.392 48.7284 44.588C48.8684 44.7747 48.9384 44.9333 48.9384 45.064L48.4344 45.246V44.224C48.4344 43.9813 48.5138 43.7807 48.6724 43.622C48.8311 43.454 49.0318 43.37 49.2744 43.37ZM46.4464 49.6C46.8571 49.6 47.2164 49.4973 47.5244 49.292C47.8324 49.0867 48.0704 48.8067 48.2384 48.452C48.4158 48.0973 48.5044 47.7007 48.5044 47.262C48.5044 46.814 48.4158 46.4127 48.2384 46.058C48.0704 45.7033 47.8324 45.4233 47.5244 45.218C47.2164 45.0127 46.8571 44.91 46.4464 44.91C46.0451 44.91 45.6904 45.0127 45.3824 45.218C45.0744 45.4233 44.8318 45.7033 44.6544 46.058C44.4864 46.4127 44.4024 46.814 44.4024 47.262C44.4024 47.7007 44.4864 48.0973 44.6544 48.452C44.8318 48.8067 45.0744 49.0867 45.3824 49.292C45.6904 49.4973 46.0451 49.6 46.4464 49.6ZM52.0174 43.65H55.3354C55.5594 43.65 55.7461 43.7247 55.8954 43.874C56.0448 44.0233 56.1194 44.21 56.1194 44.434C56.1194 44.6487 56.0448 44.8307 55.8954 44.98C55.7461 45.12 55.5594 45.19 55.3354 45.19H52.0174C51.7934 45.19 51.6068 45.1153 51.4574 44.966C51.3081 44.8167 51.2334 44.63 51.2334 44.406C51.2334 44.1913 51.3081 44.014 51.4574 43.874C51.6068 43.7247 51.7934 43.65 52.0174 43.65ZM53.5154 41.9C53.7581 41.9 53.9541 41.984 54.1034 42.152C54.2621 42.3107 54.3414 42.5113 54.3414 42.754V48.984C54.3414 49.1147 54.3648 49.222 54.4114 49.306C54.4674 49.39 54.5374 49.4507 54.6214 49.488C54.7148 49.5253 54.8128 49.544 54.9154 49.544C55.0274 49.544 55.1301 49.5253 55.2234 49.488C55.3168 49.4413 55.4241 49.418 55.5454 49.418C55.6761 49.418 55.7928 49.4787 55.8954 49.6C56.0074 49.7213 56.0634 49.8893 56.0634 50.104C56.0634 50.3653 55.9188 50.58 55.6294 50.748C55.3494 50.916 55.0461 51 54.7194 51C54.5234 51 54.3041 50.986 54.0614 50.958C53.8281 50.9207 53.6041 50.8413 53.3894 50.72C53.1841 50.5893 53.0114 50.3933 52.8714 50.132C52.7314 49.8707 52.6614 49.5113 52.6614 49.054V42.754C52.6614 42.5113 52.7408 42.3107 52.8994 42.152C53.0674 41.984 53.2728 41.9 53.5154 41.9ZM63.794 43.37C64.0366 43.37 64.2373 43.4493 64.396 43.608C64.5546 43.7667 64.634 43.972 64.634 44.224V50.146C64.634 50.3887 64.5546 50.594 64.396 50.762C64.2373 50.9207 64.0366 51 63.794 51C63.5513 51 63.3506 50.9207 63.192 50.762C63.0333 50.594 62.954 50.3887 62.954 50.146V49.46L63.262 49.586C63.262 49.7073 63.1966 49.8567 63.066 50.034C62.9353 50.202 62.758 50.37 62.534 50.538C62.31 50.706 62.044 50.8507 61.736 50.972C61.4373 51.084 61.1106 51.14 60.756 51.14C60.112 51.14 59.5286 50.9767 59.006 50.65C58.4833 50.314 58.068 49.8567 57.76 49.278C57.4613 48.69 57.312 48.018 57.312 47.262C57.312 46.4967 57.4613 45.8247 57.76 45.246C58.068 44.658 58.4786 44.2007 58.992 43.874C59.5053 43.538 60.0746 43.37 60.7 43.37C61.1013 43.37 61.47 43.4307 61.806 43.552C62.142 43.6733 62.4313 43.8273 62.674 44.014C62.926 44.2007 63.1173 44.392 63.248 44.588C63.388 44.7747 63.458 44.9333 63.458 45.064L62.954 45.246V44.224C62.954 43.9813 63.0333 43.7807 63.192 43.622C63.3506 43.454 63.5513 43.37 63.794 43.37ZM60.966 49.6C61.3766 49.6 61.736 49.4973 62.044 49.292C62.352 49.0867 62.59 48.8067 62.758 48.452C62.9353 48.0973 63.024 47.7007 63.024 47.262C63.024 46.814 62.9353 46.4127 62.758 46.058C62.59 45.7033 62.352 45.4233 62.044 45.218C61.736 45.0127 61.3766 44.91 60.966 44.91C60.5646 44.91 60.21 45.0127 59.902 45.218C59.594 45.4233 59.3513 45.7033 59.174 46.058C59.006 46.4127 58.922 46.814 58.922 47.262C58.922 47.7007 59.006 48.0973 59.174 48.452C59.3513 48.8067 59.594 49.0867 59.902 49.292C60.21 49.4973 60.5646 49.6 60.966 49.6ZM76.5088 43.37C76.7515 43.37 76.9521 43.4493 77.1108 43.608C77.2695 43.7667 77.3488 43.972 77.3488 44.224V50.146C77.3488 50.3887 77.2695 50.594 77.1108 50.762C76.9521 50.9207 76.7515 51 76.5088 51C76.2661 51 76.0655 50.9207 75.9068 50.762C75.7481 50.594 75.6688 50.3887 75.6688 50.146V49.46L75.9768 49.586C75.9768 49.7073 75.9115 49.8567 75.7808 50.034C75.6501 50.202 75.4728 50.37 75.2488 50.538C75.0248 50.706 74.7588 50.8507 74.4508 50.972C74.1521 51.084 73.8255 51.14 73.4708 51.14C72.8268 51.14 72.2435 50.9767 71.7208 50.65C71.1981 50.314 70.7828 49.8567 70.4748 49.278C70.1761 48.69 70.0268 48.018 70.0268 47.262C70.0268 46.4967 70.1761 45.8247 70.4748 45.246C70.7828 44.658 71.1935 44.2007 71.7068 43.874C72.2201 43.538 72.7895 43.37 73.4148 43.37C73.8161 43.37 74.1848 43.4307 74.5208 43.552C74.8568 43.6733 75.1461 43.8273 75.3888 44.014C75.6408 44.2007 75.8321 44.392 75.9628 44.588C76.1028 44.7747 76.1728 44.9333 76.1728 45.064L75.6688 45.246V44.224C75.6688 43.9813 75.7481 43.7807 75.9068 43.622C76.0655 43.454 76.2661 43.37 76.5088 43.37ZM73.6808 49.6C74.0915 49.6 74.4508 49.4973 74.7588 49.292C75.0668 49.0867 75.3048 48.8067 75.4728 48.452C75.6501 48.0973 75.7388 47.7007 75.7388 47.262C75.7388 46.814 75.6501 46.4127 75.4728 46.058C75.3048 45.7033 75.0668 45.4233 74.7588 45.218C74.4508 45.0127 74.0915 44.91 73.6808 44.91C73.2795 44.91 72.9248 45.0127 72.6168 45.218C72.3088 45.4233 72.0661 45.7033 71.8888 46.058C71.7208 46.4127 71.6368 46.814 71.6368 47.262C71.6368 47.7007 71.7208 48.0973 71.8888 48.452C72.0661 48.8067 72.3088 49.0867 72.6168 49.292C72.9248 49.4973 73.2795 49.6 73.6808 49.6ZM79.2518 43.65H82.5698C82.7938 43.65 82.9805 43.7247 83.1298 43.874C83.2791 44.0233 83.3538 44.21 83.3538 44.434C83.3538 44.6487 83.2791 44.8307 83.1298 44.98C82.9805 45.12 82.7938 45.19 82.5698 45.19H79.2518C79.0278 45.19 78.8411 45.1153 78.6918 44.966C78.5425 44.8167 78.4678 44.63 78.4678 44.406C78.4678 44.1913 78.5425 44.014 78.6918 43.874C78.8411 43.7247 79.0278 43.65 79.2518 43.65ZM80.7498 41.9C80.9925 41.9 81.1885 41.984 81.3378 42.152C81.4965 42.3107 81.5758 42.5113 81.5758 42.754V48.984C81.5758 49.1147 81.5991 49.222 81.6458 49.306C81.7018 49.39 81.7718 49.4507 81.8558 49.488C81.9491 49.5253 82.0471 49.544 82.1498 49.544C82.2618 49.544 82.3645 49.5253 82.4578 49.488C82.5511 49.4413 82.6585 49.418 82.7798 49.418C82.9105 49.418 83.0271 49.4787 83.1298 49.6C83.2418 49.7213 83.2978 49.8893 83.2978 50.104C83.2978 50.3653 83.1531 50.58 82.8638 50.748C82.5838 50.916 82.2805 51 81.9538 51C81.7578 51 81.5385 50.986 81.2958 50.958C81.0625 50.9207 80.8385 50.8413 80.6238 50.72C80.4185 50.5893 80.2458 50.3933 80.1058 50.132C79.9658 49.8707 79.8958 49.5113 79.8958 49.054V42.754C79.8958 42.5113 79.9751 42.3107 80.1338 42.152C80.3018 41.984 80.5071 41.9 80.7498 41.9ZM88.9042 43.65H92.2222C92.4462 43.65 92.6328 43.7247 92.7822 43.874C92.9315 44.0233 93.0062 44.21 93.0062 44.434C93.0062 44.6487 92.9315 44.8307 92.7822 44.98C92.6328 45.12 92.4462 45.19 92.2222 45.19H88.9042C88.6802 45.19 88.4935 45.1153 88.3442 44.966C88.1948 44.8167 88.1202 44.63 88.1202 44.406C88.1202 44.1913 88.1948 44.014 88.3442 43.874C88.4935 43.7247 88.6802 43.65 88.9042 43.65ZM90.4022 41.9C90.6448 41.9 90.8408 41.984 90.9902 42.152C91.1488 42.3107 91.2282 42.5113 91.2282 42.754V48.984C91.2282 49.1147 91.2515 49.222 91.2982 49.306C91.3542 49.39 91.4242 49.4507 91.5082 49.488C91.6015 49.5253 91.6995 49.544 91.8022 49.544C91.9142 49.544 92.0168 49.5253 92.1102 49.488C92.2035 49.4413 92.3108 49.418 92.4322 49.418C92.5628 49.418 92.6795 49.4787 92.7822 49.6C92.8942 49.7213 92.9502 49.8893 92.9502 50.104C92.9502 50.3653 92.8055 50.58 92.5162 50.748C92.2362 50.916 91.9328 51 91.6062 51C91.4102 51 91.1908 50.986 90.9482 50.958C90.7148 50.9207 90.4908 50.8413 90.2762 50.72C90.0708 50.5893 89.8982 50.3933 89.7582 50.132C89.6182 49.8707 89.5482 49.5113 89.5482 49.054V42.754C89.5482 42.5113 89.6275 42.3107 89.7862 42.152C89.9542 41.984 90.1595 41.9 90.4022 41.9ZM98.4827 43.37C99.1547 43.37 99.6633 43.5147 100.009 43.804C100.363 44.0933 100.606 44.4807 100.737 44.966C100.867 45.442 100.933 45.974 100.933 46.562V50.146C100.933 50.3887 100.853 50.594 100.695 50.762C100.536 50.9207 100.335 51 100.093 51C99.85 51 99.6493 50.9207 99.4907 50.762C99.332 50.594 99.2527 50.3887 99.2527 50.146V46.562C99.2527 46.254 99.2153 45.9787 99.1407 45.736C99.066 45.484 98.9307 45.2833 98.7347 45.134C98.5387 44.9847 98.2587 44.91 97.8947 44.91C97.54 44.91 97.2367 44.9847 96.9847 45.134C96.7327 45.2833 96.5413 45.484 96.4107 45.736C96.2893 45.9787 96.2287 46.254 96.2287 46.562V50.146C96.2287 50.3887 96.1493 50.594 95.9907 50.762C95.832 50.9207 95.6313 51 95.3887 51C95.146 51 94.9453 50.9207 94.7867 50.762C94.628 50.594 94.5487 50.3887 94.5487 50.146V41.494C94.5487 41.2513 94.628 41.0507 94.7867 40.892C94.9453 40.724 95.146 40.64 95.3887 40.64C95.6313 40.64 95.832 40.724 95.9907 40.892C96.1493 41.0507 96.2287 41.2513 96.2287 41.494V44.966L96.0187 44.924C96.1027 44.7653 96.2193 44.5973 96.3687 44.42C96.518 44.2333 96.7 44.0607 96.9147 43.902C97.1293 43.7433 97.3673 43.6173 97.6287 43.524C97.89 43.4213 98.1747 43.37 98.4827 43.37ZM103.592 51C103.349 51 103.148 50.9207 102.99 50.762C102.831 50.594 102.752 50.3887 102.752 50.146V44.364C102.752 44.1213 102.831 43.9207 102.99 43.762C103.148 43.594 103.349 43.51 103.592 43.51C103.834 43.51 104.035 43.594 104.194 43.762C104.352 43.9207 104.432 44.1213 104.432 44.364V45.68L104.334 44.742C104.436 44.518 104.567 44.322 104.726 44.154C104.894 43.9767 105.08 43.832 105.286 43.72C105.491 43.5987 105.71 43.51 105.944 43.454C106.177 43.398 106.41 43.37 106.644 43.37C106.924 43.37 107.157 43.4493 107.344 43.608C107.54 43.7667 107.638 43.9533 107.638 44.168C107.638 44.476 107.558 44.7 107.4 44.84C107.241 44.9707 107.068 45.036 106.882 45.036C106.704 45.036 106.541 45.0033 106.392 44.938C106.252 44.8727 106.088 44.84 105.902 44.84C105.734 44.84 105.561 44.882 105.384 44.966C105.216 45.0407 105.057 45.162 104.908 45.33C104.768 45.498 104.651 45.708 104.558 45.96C104.474 46.2027 104.432 46.492 104.432 46.828V50.146C104.432 50.3887 104.352 50.594 104.194 50.762C104.035 50.9207 103.834 51 103.592 51ZM112.036 51.14C111.242 51.14 110.552 50.9767 109.964 50.65C109.385 50.314 108.937 49.8613 108.62 49.292C108.312 48.7227 108.158 48.0787 108.158 47.36C108.158 46.52 108.326 45.806 108.662 45.218C109.007 44.6207 109.455 44.1633 110.006 43.846C110.556 43.5287 111.14 43.37 111.756 43.37C112.232 43.37 112.68 43.468 113.1 43.664C113.529 43.86 113.907 44.1307 114.234 44.476C114.56 44.812 114.817 45.204 115.004 45.652C115.2 46.1 115.298 46.576 115.298 47.08C115.288 47.304 115.2 47.486 115.032 47.626C114.864 47.766 114.668 47.836 114.444 47.836H109.096L108.676 46.436H113.814L113.506 46.716V46.338C113.487 46.0673 113.389 45.8247 113.212 45.61C113.044 45.3953 112.829 45.2273 112.568 45.106C112.316 44.9753 112.045 44.91 111.756 44.91C111.476 44.91 111.214 44.9473 110.972 45.022C110.729 45.0967 110.519 45.2227 110.342 45.4C110.164 45.5773 110.024 45.8153 109.922 46.114C109.819 46.4127 109.768 46.7907 109.768 47.248C109.768 47.752 109.87 48.1813 110.076 48.536C110.29 48.8813 110.561 49.1473 110.888 49.334C111.224 49.5113 111.578 49.6 111.952 49.6C112.297 49.6 112.572 49.572 112.778 49.516C112.983 49.46 113.146 49.3947 113.268 49.32C113.398 49.236 113.515 49.166 113.618 49.11C113.786 49.026 113.944 48.984 114.094 48.984C114.299 48.984 114.467 49.054 114.598 49.194C114.738 49.334 114.808 49.4973 114.808 49.684C114.808 49.936 114.677 50.1647 114.416 50.37C114.173 50.5753 113.832 50.7573 113.394 50.916C112.955 51.0653 112.502 51.14 112.036 51.14ZM122.952 43.37C123.195 43.37 123.395 43.4493 123.554 43.608C123.713 43.7667 123.792 43.972 123.792 44.224V50.146C123.792 50.3887 123.713 50.594 123.554 50.762C123.395 50.9207 123.195 51 122.952 51C122.709 51 122.509 50.9207 122.35 50.762C122.191 50.594 122.112 50.3887 122.112 50.146V49.46L122.42 49.586C122.42 49.7073 122.355 49.8567 122.224 50.034C122.093 50.202 121.916 50.37 121.692 50.538C121.468 50.706 121.202 50.8507 120.894 50.972C120.595 51.084 120.269 51.14 119.914 51.14C119.27 51.14 118.687 50.9767 118.164 50.65C117.641 50.314 117.226 49.8567 116.918 49.278C116.619 48.69 116.47 48.018 116.47 47.262C116.47 46.4967 116.619 45.8247 116.918 45.246C117.226 44.658 117.637 44.2007 118.15 43.874C118.663 43.538 119.233 43.37 119.858 43.37C120.259 43.37 120.628 43.4307 120.964 43.552C121.3 43.6733 121.589 43.8273 121.832 44.014C122.084 44.2007 122.275 44.392 122.406 44.588C122.546 44.7747 122.616 44.9333 122.616 45.064L122.112 45.246V44.224C122.112 43.9813 122.191 43.7807 122.35 43.622C122.509 43.454 122.709 43.37 122.952 43.37ZM120.124 49.6C120.535 49.6 120.894 49.4973 121.202 49.292C121.51 49.0867 121.748 48.8067 121.916 48.452C122.093 48.0973 122.182 47.7007 122.182 47.262C122.182 46.814 122.093 46.4127 121.916 46.058C121.748 45.7033 121.51 45.4233 121.202 45.218C120.894 45.0127 120.535 44.91 120.124 44.91C119.723 44.91 119.368 45.0127 119.06 45.218C118.752 45.4233 118.509 45.7033 118.332 46.058C118.164 46.4127 118.08 46.814 118.08 47.262C118.08 47.7007 118.164 48.0973 118.332 48.452C118.509 48.8067 118.752 49.0867 119.06 49.292C119.368 49.4973 119.723 49.6 120.124 49.6ZM125.695 43.65H129.013C129.237 43.65 129.424 43.7247 129.573 43.874C129.723 44.0233 129.797 44.21 129.797 44.434C129.797 44.6487 129.723 44.8307 129.573 44.98C129.424 45.12 129.237 45.19 129.013 45.19H125.695C125.471 45.19 125.285 45.1153 125.135 44.966C124.986 44.8167 124.911 44.63 124.911 44.406C124.911 44.1913 124.986 44.014 125.135 43.874C125.285 43.7247 125.471 43.65 125.695 43.65ZM127.193 41.9C127.436 41.9 127.632 41.984 127.781 42.152C127.94 42.3107 128.019 42.5113 128.019 42.754V48.984C128.019 49.1147 128.043 49.222 128.089 49.306C128.145 49.39 128.215 49.4507 128.299 49.488C128.393 49.5253 128.491 49.544 128.593 49.544C128.705 49.544 128.808 49.5253 128.901 49.488C128.995 49.4413 129.102 49.418 129.223 49.418C129.354 49.418 129.471 49.4787 129.573 49.6C129.685 49.7213 129.741 49.8893 129.741 50.104C129.741 50.3653 129.597 50.58 129.307 50.748C129.027 50.916 128.724 51 128.397 51C128.201 51 127.982 50.986 127.739 50.958C127.506 50.9207 127.282 50.8413 127.067 50.72C126.862 50.5893 126.689 50.3933 126.549 50.132C126.409 49.8707 126.339 49.5113 126.339 49.054V42.754C126.339 42.5113 126.419 42.3107 126.577 42.152C126.745 41.984 126.951 41.9 127.193 41.9Z" fill="white"/>
<path d="M165 6L171 12L165 18" stroke="white" stroke-width="1.68424" stroke-linecap="round" stroke-linejoin="round"/>
</svg>
