<svg width="263" height="263" viewBox="0 0 263 263" fill="none" xmlns="http://www.w3.org/2000/svg">
<g filter="url(#filter0_d_393_1539)">
<circle cx="131.5" cy="111.5" r="97.5" fill="white"/>
<circle cx="131.5" cy="111.5" r="97" stroke="white"/>
</g>
<g filter="url(#filter1_d_393_1539)">
<path fill-rule="evenodd" clip-rule="evenodd" d="M130.895 206.578C183.07 206.578 225.367 164.073 225.367 111.642C225.367 80.4415 210.39 52.7566 187.267 35.4513C179.005 29.2684 168.296 27.735 159.257 32.713C151.121 37.1937 142.82 41.7657 130.895 35.8116C125.289 33.0124 122.901 34.3793 120.059 36.006C116.536 38.0226 112.315 40.4385 100.401 35.8116C98.395 35.0327 96.0245 34.4639 93.4628 34.0826C82.5026 32.4514 71.5388 36.9531 63.7615 44.8462C46.8604 61.9992 36.4229 85.5954 36.4229 111.642C36.4228 164.073 78.7194 206.578 130.895 206.578Z" fill="url(#paint0_linear_393_1539)"/>
</g>
<g style="mix-blend-mode:screen" opacity="0.6" filter="url(#filter2_d_393_1539)">
<path fill-rule="evenodd" clip-rule="evenodd" d="M130.895 206.578C183.07 206.578 225.367 164.074 225.367 111.642C225.367 84.04 213.645 59.1892 194.931 41.8424C193.045 42.0332 191.203 42.4072 189.491 42.977C180.523 45.9624 173.945 43.5741 165.574 39.9915C157.204 36.4089 142.853 39.9915 132.091 48.3507C121.328 56.71 99.8028 56.1128 91.4319 45.3653C85.2517 37.4305 74.8619 38.0388 69.3795 39.5878C49.2032 56.9989 36.4229 82.8206 36.4229 111.642C36.4228 164.074 78.7194 206.578 130.895 206.578Z" fill="url(#paint1_linear_393_1539)"/>
</g>
<g style="mix-blend-mode:soft-light" opacity="0.2" filter="url(#filter3_d_393_1539)">
<ellipse cx="130.895" cy="111.5" rx="94.4721" ry="95.0776" fill="url(#paint2_linear_393_1539)"/>
<path d="M224.867 111.5C224.867 163.737 182.791 206.078 130.895 206.078C78.9986 206.078 36.9228 163.737 36.9228 111.5C36.9228 59.2632 78.9986 16.9224 130.895 16.9224C182.791 16.9224 224.867 59.2632 224.867 111.5Z" stroke="white"/>
</g>
<defs>
<filter id="filter0_d_393_1539" x="0.315101" y="0.526041" width="262.37" height="262.37" filterUnits="userSpaceOnUse" color-interpolation-filters="sRGB">
<feFlood flood-opacity="0" result="BackgroundImageFix"/>
<feColorMatrix in="SourceAlpha" type="matrix" values="0 0 0 0 0 0 0 0 0 0 0 0 0 0 0 0 0 0 127 0" result="hardAlpha"/>
<feMorphology radius="6.73698" operator="erode" in="SourceAlpha" result="effect1_dropShadow_393_1539"/>
<feOffset dy="20.2109"/>
<feGaussianBlur stdDeviation="20.2109"/>
<feComposite in2="hardAlpha" operator="out"/>
<feColorMatrix type="matrix" values="0 0 0 0 0.152941 0 0 0 0 0.221961 0 0 0 0 0.466667 0 0 0 0.16 0"/>
<feBlend mode="normal" in2="BackgroundImageFix" result="effect1_dropShadow_393_1539"/>
<feBlend mode="normal" in="SourceGraphic" in2="effect1_dropShadow_393_1539" result="shape"/>
</filter>
<filter id="filter1_d_393_1539" x="2.73795" y="16.2712" width="256.314" height="244.203" filterUnits="userSpaceOnUse" color-interpolation-filters="sRGB">
<feFlood flood-opacity="0" result="BackgroundImageFix"/>
<feColorMatrix in="SourceAlpha" type="matrix" values="0 0 0 0 0 0 0 0 0 0 0 0 0 0 0 0 0 0 127 0" result="hardAlpha"/>
<feMorphology radius="6.73698" operator="erode" in="SourceAlpha" result="effect1_dropShadow_393_1539"/>
<feOffset dy="20.2109"/>
<feGaussianBlur stdDeviation="20.2109"/>
<feComposite in2="hardAlpha" operator="out"/>
<feColorMatrix type="matrix" values="0 0 0 0 0.152941 0 0 0 0 0.221961 0 0 0 0 0.466667 0 0 0 0.16 0"/>
<feBlend mode="normal" in2="BackgroundImageFix" result="effect1_dropShadow_393_1539"/>
<feBlend mode="normal" in="SourceGraphic" in2="effect1_dropShadow_393_1539" result="shape"/>
</filter>
<filter id="filter2_d_393_1539" x="2.73795" y="25.1342" width="256.314" height="235.34" filterUnits="userSpaceOnUse" color-interpolation-filters="sRGB">
<feFlood flood-opacity="0" result="BackgroundImageFix"/>
<feColorMatrix in="SourceAlpha" type="matrix" values="0 0 0 0 0 0 0 0 0 0 0 0 0 0 0 0 0 0 127 0" result="hardAlpha"/>
<feMorphology radius="6.73698" operator="erode" in="SourceAlpha" result="effect1_dropShadow_393_1539"/>
<feOffset dy="20.2109"/>
<feGaussianBlur stdDeviation="20.2109"/>
<feComposite in2="hardAlpha" operator="out"/>
<feColorMatrix type="matrix" values="0 0 0 0 0.152941 0 0 0 0 0.221961 0 0 0 0 0.466667 0 0 0 0.16 0"/>
<feBlend mode="normal" in2="BackgroundImageFix" result="effect1_dropShadow_393_1539"/>
<feBlend mode="normal" in="SourceGraphic" in2="effect1_dropShadow_393_1539" result="shape"/>
</filter>
<filter id="filter3_d_393_1539" x="2.73795" y="2.9484" width="256.314" height="257.525" filterUnits="userSpaceOnUse" color-interpolation-filters="sRGB">
<feFlood flood-opacity="0" result="BackgroundImageFix"/>
<feColorMatrix in="SourceAlpha" type="matrix" values="0 0 0 0 0 0 0 0 0 0 0 0 0 0 0 0 0 0 127 0" result="hardAlpha"/>
<feMorphology radius="6.73698" operator="erode" in="SourceAlpha" result="effect1_dropShadow_393_1539"/>
<feOffset dy="20.2109"/>
<feGaussianBlur stdDeviation="20.2109"/>
<feComposite in2="hardAlpha" operator="out"/>
<feColorMatrix type="matrix" values="0 0 0 0 0.152941 0 0 0 0 0.221961 0 0 0 0 0.466667 0 0 0 0.16 0"/>
<feBlend mode="normal" in2="BackgroundImageFix" result="effect1_dropShadow_393_1539"/>
<feBlend mode="normal" in="SourceGraphic" in2="effect1_dropShadow_393_1539" result="shape"/>
</filter>
<linearGradient id="paint0_linear_393_1539" x1="130.895" y1="19.5209" x2="130.895" y2="206.578" gradientUnits="userSpaceOnUse">
<stop stop-color="#CC6B7D"/>
<stop offset="1" stop-color="#7E1B2D"/>
</linearGradient>
<linearGradient id="paint1_linear_393_1539" x1="130.895" y1="16.7052" x2="130.895" y2="206.578" gradientUnits="userSpaceOnUse">
<stop stop-color="#CC6B7D"/>
<stop offset="1" stop-color="#7E1B2D"/>
</linearGradient>
<linearGradient id="paint2_linear_393_1539" x1="130.895" y1="16.4224" x2="130.895" y2="206.578" gradientUnits="userSpaceOnUse">
<stop stop-color="#F8F8FB"/>
<stop offset="1" stop-color="#F8F8FB"/>
</linearGradient>
</defs>
</svg>
