<svg width="109" height="24" viewBox="0 0 109 24" fill="none" xmlns="http://www.w3.org/2000/svg">
<path d="M33.904 7.2H38.594C38.8367 7.2 39.0373 7.27933 39.196 7.438C39.364 7.58733 39.448 7.78333 39.448 8.026C39.448 8.25933 39.364 8.45067 39.196 8.6C39.0373 8.74 38.8367 8.81 38.594 8.81H34.674L34.8 8.572V11.302L34.688 11.19H37.964C38.2067 11.19 38.4073 11.2693 38.566 11.428C38.734 11.5773 38.818 11.7733 38.818 12.016C38.818 12.2493 38.734 12.4407 38.566 12.59C38.4073 12.73 38.2067 12.8 37.964 12.8H34.73L34.8 12.688V15.516L34.688 15.39H38.594C38.8367 15.39 39.0373 15.474 39.196 15.642C39.364 15.8007 39.448 15.9873 39.448 16.202C39.448 16.4353 39.364 16.6267 39.196 16.776C39.0373 16.9253 38.8367 17 38.594 17H33.904C33.6613 17 33.456 16.9207 33.288 16.762C33.1293 16.594 33.05 16.3887 33.05 16.146V8.054C33.05 7.81133 33.1293 7.61067 33.288 7.452C33.456 7.284 33.6613 7.2 33.904 7.2ZM41.7617 17C41.5191 17 41.3184 16.9207 41.1597 16.762C41.0011 16.594 40.9217 16.3887 40.9217 16.146V10.364C40.9217 10.1213 41.0011 9.92067 41.1597 9.762C41.3184 9.594 41.5191 9.51 41.7617 9.51C42.0044 9.51 42.2051 9.594 42.3637 9.762C42.5224 9.92067 42.6017 10.1213 42.6017 10.364V11.68L42.5037 10.742C42.6064 10.518 42.7371 10.322 42.8957 10.154C43.0637 9.97667 43.2504 9.832 43.4557 9.72C43.6611 9.59867 43.8804 9.51 44.1137 9.454C44.3471 9.398 44.5804 9.37 44.8137 9.37C45.0937 9.37 45.3271 9.44933 45.5137 9.608C45.7097 9.76667 45.8077 9.95333 45.8077 10.168C45.8077 10.476 45.7284 10.7 45.5697 10.84C45.4111 10.9707 45.2384 11.036 45.0517 11.036C44.8744 11.036 44.7111 11.0033 44.5617 10.938C44.4217 10.8727 44.2584 10.84 44.0717 10.84C43.9037 10.84 43.7311 10.882 43.5537 10.966C43.3857 11.0407 43.2271 11.162 43.0777 11.33C42.9377 11.498 42.8211 11.708 42.7277 11.96C42.6437 12.2027 42.6017 12.492 42.6017 12.828V16.146C42.6017 16.3887 42.5224 16.594 42.3637 16.762C42.2051 16.9207 42.0044 17 41.7617 17ZM47.832 17C47.5894 17 47.3887 16.9207 47.23 16.762C47.0714 16.594 46.992 16.3887 46.992 16.146V10.364C46.992 10.1213 47.0714 9.92067 47.23 9.762C47.3887 9.594 47.5894 9.51 47.832 9.51C48.0747 9.51 48.2754 9.594 48.434 9.762C48.5927 9.92067 48.672 10.1213 48.672 10.364V11.68L48.574 10.742C48.6767 10.518 48.8074 10.322 48.966 10.154C49.134 9.97667 49.3207 9.832 49.526 9.72C49.7314 9.59867 49.9507 9.51 50.184 9.454C50.4174 9.398 50.6507 9.37 50.884 9.37C51.164 9.37 51.3974 9.44933 51.584 9.608C51.78 9.76667 51.878 9.95333 51.878 10.168C51.878 10.476 51.7987 10.7 51.64 10.84C51.4814 10.9707 51.3087 11.036 51.122 11.036C50.9447 11.036 50.7814 11.0033 50.632 10.938C50.492 10.8727 50.3287 10.84 50.142 10.84C49.974 10.84 49.8014 10.882 49.624 10.966C49.456 11.0407 49.2974 11.162 49.148 11.33C49.008 11.498 48.8914 11.708 48.798 11.96C48.714 12.2027 48.672 12.492 48.672 12.828V16.146C48.672 16.3887 48.5927 16.594 48.434 16.762C48.2754 16.9207 48.0747 17 47.832 17ZM60.0139 13.262C60.0139 14.0273 59.8412 14.704 59.4959 15.292C59.1599 15.8707 58.7026 16.3233 58.1239 16.65C57.5546 16.9767 56.9152 17.14 56.2059 17.14C55.4966 17.14 54.8526 16.9767 54.2739 16.65C53.7046 16.3233 53.2472 15.8707 52.9019 15.292C52.5659 14.704 52.3979 14.0273 52.3979 13.262C52.3979 12.4967 52.5659 11.8247 52.9019 11.246C53.2472 10.658 53.7046 10.2007 54.2739 9.874C54.8526 9.538 55.4966 9.37 56.2059 9.37C56.9152 9.37 57.5546 9.538 58.1239 9.874C58.7026 10.2007 59.1599 10.658 59.4959 11.246C59.8412 11.8247 60.0139 12.4967 60.0139 13.262ZM58.3339 13.262C58.3339 12.786 58.2359 12.3753 58.0399 12.03C57.8532 11.6753 57.5966 11.4 57.2699 11.204C56.9526 11.008 56.5979 10.91 56.2059 10.91C55.8139 10.91 55.4546 11.008 55.1279 11.204C54.8106 11.4 54.5539 11.6753 54.3579 12.03C54.1712 12.3753 54.0779 12.786 54.0779 13.262C54.0779 13.7287 54.1712 14.1393 54.3579 14.494C54.5539 14.8393 54.8106 15.11 55.1279 15.306C55.4546 15.502 55.8139 15.6 56.2059 15.6C56.5979 15.6 56.9526 15.502 57.2699 15.306C57.5966 15.11 57.8532 14.8393 58.0399 14.494C58.2359 14.1393 58.3339 13.7287 58.3339 13.262ZM62.3242 17C62.0816 17 61.8809 16.9207 61.7222 16.762C61.5636 16.594 61.4842 16.3887 61.4842 16.146V10.364C61.4842 10.1213 61.5636 9.92067 61.7222 9.762C61.8809 9.594 62.0816 9.51 62.3242 9.51C62.5669 9.51 62.7676 9.594 62.9262 9.762C63.0849 9.92067 63.1642 10.1213 63.1642 10.364V11.68L63.0662 10.742C63.1689 10.518 63.2996 10.322 63.4582 10.154C63.6262 9.97667 63.8129 9.832 64.0182 9.72C64.2236 9.59867 64.4429 9.51 64.6762 9.454C64.9096 9.398 65.1429 9.37 65.3762 9.37C65.6562 9.37 65.8896 9.44933 66.0762 9.608C66.2722 9.76667 66.3702 9.95333 66.3702 10.168C66.3702 10.476 66.2909 10.7 66.1322 10.84C65.9736 10.9707 65.8009 11.036 65.6142 11.036C65.4369 11.036 65.2736 11.0033 65.1242 10.938C64.9842 10.8727 64.8209 10.84 64.6342 10.84C64.4662 10.84 64.2936 10.882 64.1162 10.966C63.9482 11.0407 63.7896 11.162 63.6402 11.33C63.5002 11.498 63.3836 11.708 63.2902 11.96C63.2062 12.2027 63.1642 12.492 63.1642 12.828V16.146C63.1642 16.3887 63.0849 16.594 62.9262 16.762C62.7676 16.9207 62.5669 17 62.3242 17ZM74.7684 17.14C74.115 17.14 73.527 17.0607 73.0044 16.902C72.4817 16.734 71.9824 16.4447 71.5064 16.034C71.385 15.9313 71.2917 15.8147 71.2264 15.684C71.161 15.5533 71.1284 15.4227 71.1284 15.292C71.1284 15.0773 71.203 14.8907 71.3524 14.732C71.511 14.564 71.707 14.48 71.9404 14.48C72.1177 14.48 72.2764 14.536 72.4164 14.648C72.771 14.9373 73.121 15.1567 73.4664 15.306C73.821 15.4553 74.255 15.53 74.7684 15.53C75.1137 15.53 75.431 15.4787 75.7204 15.376C76.0097 15.264 76.243 15.1193 76.4204 14.942C76.5977 14.7553 76.6864 14.5453 76.6864 14.312C76.6864 14.032 76.6024 13.794 76.4344 13.598C76.2664 13.402 76.0097 13.2387 75.6644 13.108C75.319 12.968 74.8804 12.8607 74.3484 12.786C73.8444 12.7113 73.401 12.5993 73.0184 12.45C72.6357 12.2913 72.3137 12.0953 72.0524 11.862C71.8004 11.6193 71.609 11.3393 71.4784 11.022C71.3477 10.6953 71.2824 10.3313 71.2824 9.93C71.2824 9.32333 71.4364 8.80533 71.7444 8.376C72.0617 7.94667 72.4864 7.62 73.0184 7.396C73.5504 7.172 74.1384 7.06 74.7824 7.06C75.389 7.06 75.949 7.15333 76.4624 7.34C76.985 7.51733 77.4097 7.746 77.7364 8.026C78.007 8.24067 78.1424 8.488 78.1424 8.768C78.1424 8.97333 78.063 9.16 77.9044 9.328C77.7457 9.496 77.559 9.58 77.3444 9.58C77.2044 9.58 77.0784 9.538 76.9664 9.454C76.817 9.32333 76.6164 9.202 76.3644 9.09C76.1124 8.96867 75.8464 8.87067 75.5664 8.796C75.2864 8.712 75.025 8.67 74.7824 8.67C74.381 8.67 74.0404 8.72133 73.7604 8.824C73.4897 8.92667 73.2844 9.06667 73.1444 9.244C73.0044 9.42133 72.9344 9.62667 72.9344 9.86C72.9344 10.14 73.0137 10.3733 73.1724 10.56C73.3404 10.7373 73.5784 10.882 73.8864 10.994C74.1944 11.0967 74.563 11.19 74.9924 11.274C75.5524 11.3767 76.0424 11.498 76.4624 11.638C76.8917 11.778 77.2464 11.96 77.5264 12.184C77.8064 12.3987 78.0164 12.674 78.1564 13.01C78.2964 13.3367 78.3664 13.738 78.3664 14.214C78.3664 14.8207 78.1984 15.3433 77.8624 15.782C77.5264 16.2207 77.083 16.5567 76.5324 16.79C75.991 17.0233 75.403 17.14 74.7684 17.14ZM83.1639 9.37C83.6959 9.37 84.1579 9.426 84.5499 9.538C84.9512 9.65 85.2592 9.80867 85.4739 10.014C85.6979 10.21 85.8099 10.448 85.8099 10.728C85.8099 10.9147 85.7539 11.092 85.6419 11.26C85.5299 11.4187 85.3665 11.498 85.1519 11.498C85.0025 11.498 84.8765 11.4793 84.7739 11.442C84.6805 11.3953 84.5965 11.3393 84.5219 11.274C84.4472 11.2087 84.3585 11.148 84.2559 11.092C84.1625 11.036 84.0179 10.994 83.8219 10.966C83.6352 10.9287 83.4952 10.91 83.4019 10.91C82.9259 10.91 82.5199 11.0127 82.1839 11.218C81.8572 11.4233 81.6052 11.7033 81.4279 12.058C81.2505 12.4033 81.1619 12.8047 81.1619 13.262C81.1619 13.71 81.2505 14.1113 81.4279 14.466C81.6145 14.8113 81.8665 15.0867 82.1839 15.292C82.5105 15.4973 82.8839 15.6 83.3039 15.6C83.5372 15.6 83.7379 15.586 83.9059 15.558C84.0739 15.53 84.2139 15.488 84.3259 15.432C84.4565 15.3573 84.5732 15.278 84.6759 15.194C84.7785 15.11 84.9325 15.068 85.1379 15.068C85.3805 15.068 85.5672 15.1473 85.6979 15.306C85.8285 15.4553 85.8939 15.642 85.8939 15.866C85.8939 16.0993 85.7632 16.314 85.5019 16.51C85.2405 16.6967 84.8952 16.8507 84.4659 16.972C84.0459 17.084 83.5885 17.14 83.0939 17.14C82.3565 17.14 81.7172 16.972 81.1759 16.636C80.6345 16.2907 80.2145 15.824 79.9159 15.236C79.6265 14.648 79.4819 13.99 79.4819 13.262C79.4819 12.4967 79.6359 11.8247 79.9439 11.246C80.2612 10.658 80.6952 10.2007 81.2459 9.874C81.8059 9.538 82.4452 9.37 83.1639 9.37ZM94.3713 13.262C94.3713 14.0273 94.1986 14.704 93.8533 15.292C93.5173 15.8707 93.06 16.3233 92.4813 16.65C91.912 16.9767 91.2726 17.14 90.5633 17.14C89.854 17.14 89.21 16.9767 88.6313 16.65C88.062 16.3233 87.6046 15.8707 87.2593 15.292C86.9233 14.704 86.7553 14.0273 86.7553 13.262C86.7553 12.4967 86.9233 11.8247 87.2593 11.246C87.6046 10.658 88.062 10.2007 88.6313 9.874C89.21 9.538 89.854 9.37 90.5633 9.37C91.2726 9.37 91.912 9.538 92.4813 9.874C93.06 10.2007 93.5173 10.658 93.8533 11.246C94.1986 11.8247 94.3713 12.4967 94.3713 13.262ZM92.6913 13.262C92.6913 12.786 92.5933 12.3753 92.3973 12.03C92.2106 11.6753 91.954 11.4 91.6273 11.204C91.31 11.008 90.9553 10.91 90.5633 10.91C90.1713 10.91 89.812 11.008 89.4853 11.204C89.168 11.4 88.9113 11.6753 88.7153 12.03C88.5286 12.3753 88.4353 12.786 88.4353 13.262C88.4353 13.7287 88.5286 14.1393 88.7153 14.494C88.9113 14.8393 89.168 15.11 89.4853 15.306C89.812 15.502 90.1713 15.6 90.5633 15.6C90.9553 15.6 91.31 15.502 91.6273 15.306C91.954 15.11 92.2106 14.8393 92.3973 14.494C92.5933 14.1393 92.6913 13.7287 92.6913 13.262ZM96.6816 17C96.439 17 96.2383 16.9207 96.0796 16.762C95.921 16.594 95.8416 16.3887 95.8416 16.146V10.364C95.8416 10.1213 95.921 9.92067 96.0796 9.762C96.2383 9.594 96.439 9.51 96.6816 9.51C96.9243 9.51 97.125 9.594 97.2836 9.762C97.4423 9.92067 97.5216 10.1213 97.5216 10.364V11.68L97.4236 10.742C97.5263 10.518 97.657 10.322 97.8156 10.154C97.9836 9.97667 98.1703 9.832 98.3756 9.72C98.581 9.59867 98.8003 9.51 99.0336 9.454C99.267 9.398 99.5003 9.37 99.7336 9.37C100.014 9.37 100.247 9.44933 100.434 9.608C100.63 9.76667 100.728 9.95333 100.728 10.168C100.728 10.476 100.648 10.7 100.49 10.84C100.331 10.9707 100.158 11.036 99.9716 11.036C99.7943 11.036 99.631 11.0033 99.4816 10.938C99.3416 10.8727 99.1783 10.84 98.9916 10.84C98.8236 10.84 98.651 10.882 98.4736 10.966C98.3056 11.0407 98.147 11.162 97.9976 11.33C97.8576 11.498 97.741 11.708 97.6476 11.96C97.5636 12.2027 97.5216 12.492 97.5216 12.828V16.146C97.5216 16.3887 97.4423 16.594 97.2836 16.762C97.125 16.9207 96.9243 17 96.6816 17ZM105.126 17.14C104.332 17.14 103.642 16.9767 103.054 16.65C102.475 16.314 102.027 15.8613 101.71 15.292C101.402 14.7227 101.248 14.0787 101.248 13.36C101.248 12.52 101.416 11.806 101.752 11.218C102.097 10.6207 102.545 10.1633 103.096 9.846C103.646 9.52867 104.23 9.37 104.846 9.37C105.322 9.37 105.77 9.468 106.19 9.664C106.619 9.86 106.997 10.1307 107.324 10.476C107.65 10.812 107.907 11.204 108.094 11.652C108.29 12.1 108.388 12.576 108.388 13.08C108.378 13.304 108.29 13.486 108.122 13.626C107.954 13.766 107.758 13.836 107.534 13.836H102.186L101.766 12.436H106.904L106.596 12.716V12.338C106.577 12.0673 106.479 11.8247 106.302 11.61C106.134 11.3953 105.919 11.2273 105.658 11.106C105.406 10.9753 105.135 10.91 104.846 10.91C104.566 10.91 104.304 10.9473 104.062 11.022C103.819 11.0967 103.609 11.2227 103.432 11.4C103.254 11.5773 103.114 11.8153 103.012 12.114C102.909 12.4127 102.858 12.7907 102.858 13.248C102.858 13.752 102.96 14.1813 103.166 14.536C103.38 14.8813 103.651 15.1473 103.978 15.334C104.314 15.5113 104.668 15.6 105.042 15.6C105.387 15.6 105.662 15.572 105.868 15.516C106.073 15.46 106.236 15.3947 106.358 15.32C106.488 15.236 106.605 15.166 106.708 15.11C106.876 15.026 107.034 14.984 107.184 14.984C107.389 14.984 107.557 15.054 107.688 15.194C107.828 15.334 107.898 15.4973 107.898 15.684C107.898 15.936 107.767 16.1647 107.506 16.37C107.263 16.5753 106.922 16.7573 106.484 16.916C106.045 17.0653 105.592 17.14 105.126 17.14Z" fill="white"/>
<path d="M12.0005 16C11.8027 16 11.6093 16.0587 11.4449 16.1686C11.2804 16.2784 11.1523 16.4346 11.0766 16.6173C11.0009 16.8001 10.9811 17.0011 11.0197 17.1951C11.0583 17.3891 11.1535 17.5673 11.2933 17.7071C11.4332 17.847 11.6114 17.9422 11.8054 17.9808C11.9993 18.0194 12.2004 17.9996 12.3831 17.9239C12.5659 17.8482 12.722 17.72 12.8319 17.5556C12.9418 17.3911 13.0005 17.1978 13.0005 17C13.0005 16.7348 12.8951 16.4805 12.7076 16.2929C12.52 16.1054 12.2657 16 12.0005 16ZM22.6705 17.47L14.6205 3.47003C14.3603 3.00354 13.9802 2.61498 13.5196 2.3445C13.0591 2.07401 12.5346 1.9314 12.0005 1.9314C11.4663 1.9314 10.9419 2.07401 10.4813 2.3445C10.0207 2.61498 9.64065 3.00354 9.38046 3.47003L1.38046 17.47C1.11125 17.924 0.966598 18.441 0.9611 18.9688C0.955602 19.4966 1.08945 20.0166 1.34914 20.4761C1.60883 20.9356 1.98516 21.3185 2.44014 21.5861C2.89512 21.8536 3.41264 21.9964 3.94046 22H20.0605C20.5925 22.0053 21.1164 21.8689 21.5784 21.6049C22.0403 21.341 22.4238 20.9589 22.6894 20.4978C22.9551 20.0368 23.0933 19.5134 23.09 18.9814C23.0866 18.4493 22.9418 17.9277 22.6705 17.47ZM20.9405 19.47C20.8528 19.626 20.7249 19.7556 20.5701 19.8453C20.4154 19.935 20.2393 19.9815 20.0605 19.98H3.94046C3.76157 19.9815 3.58556 19.935 3.43077 19.8453C3.27599 19.7556 3.14811 19.626 3.06046 19.47C2.97269 19.318 2.92648 19.1456 2.92648 18.97C2.92648 18.7945 2.97269 18.622 3.06046 18.47L11.0605 4.47003C11.1444 4.30623 11.2719 4.16876 11.4289 4.07277C11.5859 3.97678 11.7664 3.92599 11.9505 3.92599C12.1345 3.92599 12.315 3.97678 12.472 4.07277C12.629 4.16876 12.7565 4.30623 12.8405 4.47003L20.8905 18.47C20.9897 18.6199 21.0467 18.7937 21.0555 18.9732C21.0643 19.1527 21.0245 19.3312 20.9405 19.49V19.47ZM12.0005 8.00003C11.7352 8.00003 11.4809 8.10538 11.2933 8.29292C11.1058 8.48046 11.0005 8.73481 11.0005 9.00003V13C11.0005 13.2652 11.1058 13.5196 11.2933 13.7071C11.4809 13.8947 11.7352 14 12.0005 14C12.2657 14 12.52 13.8947 12.7076 13.7071C12.8951 13.5196 13.0005 13.2652 13.0005 13V9.00003C13.0005 8.73481 12.8951 8.48046 12.7076 8.29292C12.52 8.10538 12.2657 8.00003 12.0005 8.00003Z" fill="white"/>
</svg>
