<svg width="211" height="94" viewBox="0 0 211 94" fill="none" xmlns="http://www.w3.org/2000/svg">
<path d="M0 24H211V78C211 86.8366 203.837 94 195 94H16C7.16344 94 0 86.8366 0 78V24Z" fill="#F9F9FD"/>
<path d="M19.94 76.12C19.468 76.12 19.036 76.012 18.644 75.796C18.252 75.58 17.936 75.28 17.696 74.896C17.624 74.776 17.588 74.664 17.588 74.56C17.588 74.392 17.652 74.252 17.78 74.14C17.908 74.028 18.036 73.972 18.164 73.972C18.276 73.972 18.376 74.004 18.464 74.068C18.56 74.124 18.648 74.196 18.728 74.284C18.888 74.492 19.068 74.652 19.268 74.764C19.468 74.868 19.692 74.92 19.94 74.92C20.228 74.92 20.488 74.856 20.72 74.728C20.952 74.592 21.136 74.412 21.272 74.188C21.408 73.956 21.476 73.704 21.476 73.432V68.212C21.476 68.036 21.54 67.892 21.668 67.78C21.796 67.66 21.944 67.6 22.112 67.6C22.296 67.6 22.444 67.66 22.556 67.78C22.668 67.892 22.724 68.036 22.724 68.212V73.432C22.724 73.92 22.6 74.368 22.352 74.776C22.112 75.184 21.78 75.512 21.356 75.76C20.94 76 20.468 76.12 19.94 76.12ZM29.7151 69.592C29.8911 69.592 30.0351 69.652 30.1471 69.772C30.2591 69.884 30.3151 70.028 30.3151 70.204V75.388C30.3151 75.564 30.2591 75.712 30.1471 75.832C30.0351 75.944 29.8911 76 29.7151 76C29.5471 76 29.4031 75.944 29.2831 75.832C29.1711 75.712 29.1151 75.564 29.1151 75.388V74.524L29.3671 74.56C29.3671 74.704 29.3071 74.864 29.1871 75.04C29.0751 75.216 28.9191 75.388 28.7191 75.556C28.5191 75.716 28.2831 75.852 28.0111 75.964C27.7391 76.068 27.4471 76.12 27.1351 76.12C26.5831 76.12 26.0871 75.98 25.6471 75.7C25.2071 75.412 24.8591 75.02 24.6031 74.524C24.3471 74.028 24.2191 73.464 24.2191 72.832C24.2191 72.184 24.3471 71.616 24.6031 71.128C24.8591 70.632 25.2031 70.244 25.6351 69.964C26.0751 69.684 26.5631 69.544 27.0991 69.544C27.4431 69.544 27.7591 69.6 28.0471 69.712C28.3431 69.824 28.5991 69.968 28.8151 70.144C29.0311 70.32 29.1951 70.508 29.3071 70.708C29.4271 70.9 29.4871 71.084 29.4871 71.26L29.1151 71.296V70.204C29.1151 70.036 29.1711 69.892 29.2831 69.772C29.4031 69.652 29.5471 69.592 29.7151 69.592ZM27.2671 75.016C27.6431 75.016 27.9751 74.92 28.2631 74.728C28.5511 74.536 28.7751 74.276 28.9351 73.948C29.0951 73.612 29.1751 73.24 29.1751 72.832C29.1751 72.416 29.0951 72.044 28.9351 71.716C28.7751 71.388 28.5511 71.128 28.2631 70.936C27.9751 70.744 27.6431 70.648 27.2671 70.648C26.8991 70.648 26.5711 70.744 26.2831 70.936C26.0031 71.128 25.7791 71.388 25.6111 71.716C25.4511 72.044 25.3711 72.416 25.3711 72.832C25.3711 73.24 25.4511 73.612 25.6111 73.948C25.7791 74.276 26.0031 74.536 26.2831 74.728C26.5711 74.92 26.8991 75.016 27.2671 75.016ZM31.9996 69.628C32.1196 69.628 32.2316 69.66 32.3356 69.724C32.4476 69.788 32.5276 69.884 32.5756 70.012L34.4596 74.368L34.2316 74.476L36.1396 70.024C36.2516 69.76 36.4316 69.632 36.6796 69.64C36.8396 69.64 36.9716 69.692 37.0756 69.796C37.1876 69.892 37.2436 70.02 37.2436 70.18C37.2436 70.228 37.2356 70.28 37.2196 70.336C37.2036 70.384 37.1836 70.432 37.1596 70.48L34.8796 75.616C34.7756 75.856 34.6036 75.984 34.3636 76C34.2436 76.016 34.1236 75.992 34.0036 75.928C33.8916 75.856 33.8036 75.752 33.7396 75.616L31.4716 70.48C31.4556 70.448 31.4396 70.408 31.4236 70.36C31.4076 70.304 31.3996 70.24 31.3996 70.168C31.3996 70.048 31.4516 69.928 31.5556 69.808C31.6676 69.688 31.8156 69.628 31.9996 69.628ZM43.6136 69.592C43.7896 69.592 43.9336 69.652 44.0456 69.772C44.1576 69.884 44.2136 70.028 44.2136 70.204V75.388C44.2136 75.564 44.1576 75.712 44.0456 75.832C43.9336 75.944 43.7896 76 43.6136 76C43.4456 76 43.3016 75.944 43.1816 75.832C43.0696 75.712 43.0136 75.564 43.0136 75.388V74.524L43.2656 74.56C43.2656 74.704 43.2056 74.864 43.0856 75.04C42.9736 75.216 42.8176 75.388 42.6176 75.556C42.4176 75.716 42.1816 75.852 41.9096 75.964C41.6376 76.068 41.3456 76.12 41.0336 76.12C40.4816 76.12 39.9856 75.98 39.5456 75.7C39.1056 75.412 38.7576 75.02 38.5016 74.524C38.2456 74.028 38.1176 73.464 38.1176 72.832C38.1176 72.184 38.2456 71.616 38.5016 71.128C38.7576 70.632 39.1016 70.244 39.5336 69.964C39.9736 69.684 40.4616 69.544 40.9976 69.544C41.3416 69.544 41.6576 69.6 41.9456 69.712C42.2416 69.824 42.4976 69.968 42.7136 70.144C42.9296 70.32 43.0936 70.508 43.2056 70.708C43.3256 70.9 43.3856 71.084 43.3856 71.26L43.0136 71.296V70.204C43.0136 70.036 43.0696 69.892 43.1816 69.772C43.3016 69.652 43.4456 69.592 43.6136 69.592ZM41.1656 75.016C41.5416 75.016 41.8736 74.92 42.1616 74.728C42.4496 74.536 42.6736 74.276 42.8336 73.948C42.9936 73.612 43.0736 73.24 43.0736 72.832C43.0736 72.416 42.9936 72.044 42.8336 71.716C42.6736 71.388 42.4496 71.128 42.1616 70.936C41.8736 70.744 41.5416 70.648 41.1656 70.648C40.7976 70.648 40.4696 70.744 40.1816 70.936C39.9016 71.128 39.6776 71.388 39.5096 71.716C39.3496 72.044 39.2696 72.416 39.2696 72.832C39.2696 73.24 39.3496 73.612 39.5096 73.948C39.6776 74.276 39.9016 74.536 40.1816 74.728C40.4696 74.92 40.7976 75.016 41.1656 75.016ZM51.9465 76.12C51.3705 76.12 50.8585 76.04 50.4105 75.88C49.9625 75.72 49.5345 75.456 49.1265 75.088C49.0385 75.024 48.9705 74.948 48.9225 74.86C48.8825 74.764 48.8625 74.668 48.8625 74.572C48.8625 74.42 48.9185 74.284 49.0305 74.164C49.1425 74.044 49.2825 73.984 49.4505 73.984C49.5785 73.984 49.6985 74.028 49.8105 74.116C50.1145 74.396 50.4305 74.608 50.7585 74.752C51.0945 74.896 51.4865 74.968 51.9345 74.968C52.2545 74.968 52.5465 74.916 52.8105 74.812C53.0825 74.708 53.2985 74.568 53.4585 74.392C53.6185 74.216 53.6985 74.012 53.6985 73.78C53.6985 73.492 53.6145 73.256 53.4465 73.072C53.2865 72.88 53.0505 72.724 52.7385 72.604C52.4345 72.476 52.0665 72.368 51.6345 72.28C51.2345 72.208 50.8745 72.108 50.5545 71.98C50.2425 71.852 49.9745 71.692 49.7505 71.5C49.5265 71.3 49.3545 71.064 49.2345 70.792C49.1145 70.52 49.0545 70.204 49.0545 69.844C49.0545 69.356 49.1825 68.936 49.4385 68.584C49.6945 68.232 50.0425 67.96 50.4825 67.768C50.9225 67.576 51.4185 67.48 51.9705 67.48C52.4745 67.48 52.9465 67.56 53.3865 67.72C53.8265 67.872 54.1825 68.08 54.4545 68.344C54.6465 68.512 54.7425 68.692 54.7425 68.884C54.7425 69.028 54.6825 69.164 54.5625 69.292C54.4505 69.412 54.3185 69.472 54.1665 69.472C54.0545 69.472 53.9585 69.44 53.8785 69.376C53.7505 69.24 53.5785 69.12 53.3625 69.016C53.1465 68.904 52.9145 68.812 52.6665 68.74C52.4265 68.668 52.1945 68.632 51.9705 68.632C51.6105 68.632 51.3025 68.684 51.0465 68.788C50.7905 68.884 50.5945 69.02 50.4585 69.196C50.3225 69.364 50.2545 69.564 50.2545 69.796C50.2545 70.068 50.3305 70.292 50.4825 70.468C50.6425 70.644 50.8625 70.788 51.1425 70.9C51.4225 71.004 51.7425 71.1 52.1025 71.188C52.5425 71.284 52.9345 71.392 53.2785 71.512C53.6305 71.632 53.9265 71.788 54.1665 71.98C54.4065 72.164 54.5905 72.396 54.7185 72.676C54.8465 72.956 54.9105 73.304 54.9105 73.72C54.9105 74.2 54.7745 74.62 54.5025 74.98C54.2305 75.34 53.8705 75.62 53.4225 75.82C52.9825 76.02 52.4905 76.12 51.9465 76.12ZM59.0501 69.544C59.4821 69.544 59.8661 69.592 60.2021 69.688C60.5381 69.776 60.7981 69.904 60.9821 70.072C61.1741 70.232 61.2701 70.42 61.2701 70.636C61.2701 70.772 61.2301 70.9 61.1501 71.02C61.0701 71.132 60.9501 71.188 60.7901 71.188C60.6781 71.188 60.5821 71.168 60.5021 71.128C60.4301 71.088 60.3621 71.04 60.2981 70.984C60.2341 70.928 60.1541 70.872 60.0581 70.816C59.9701 70.768 59.8381 70.728 59.6621 70.696C59.4941 70.664 59.3421 70.648 59.2061 70.648C58.7821 70.648 58.4141 70.744 58.1021 70.936C57.7981 71.128 57.5581 71.388 57.3821 71.716C57.2141 72.044 57.1301 72.416 57.1301 72.832C57.1301 73.248 57.2141 73.62 57.3821 73.948C57.5581 74.276 57.7941 74.536 58.0901 74.728C58.3941 74.92 58.7461 75.016 59.1461 75.016C59.3861 75.016 59.5821 75 59.7341 74.968C59.8861 74.928 60.0181 74.88 60.1301 74.824C60.2501 74.752 60.3501 74.68 60.4301 74.608C60.5181 74.528 60.6381 74.488 60.7901 74.488C60.9661 74.488 61.0981 74.544 61.1861 74.656C61.2821 74.76 61.3301 74.892 61.3301 75.052C61.3301 75.228 61.2221 75.4 61.0061 75.568C60.7981 75.728 60.5181 75.86 60.1661 75.964C59.8141 76.068 59.4261 76.12 59.0021 76.12C58.3781 76.12 57.8341 75.976 57.3701 75.688C56.9141 75.4 56.5581 75.008 56.3021 74.512C56.0541 74.016 55.9301 73.456 55.9301 72.832C55.9301 72.2 56.0621 71.64 56.3261 71.152C56.5901 70.656 56.9581 70.264 57.4301 69.976C57.9021 69.688 58.4421 69.544 59.0501 69.544ZM63.0767 76C62.9007 76 62.7567 75.944 62.6447 75.832C62.5327 75.712 62.4767 75.564 62.4767 75.388V70.3C62.4767 70.124 62.5327 69.98 62.6447 69.868C62.7567 69.748 62.9007 69.688 63.0767 69.688C63.2447 69.688 63.3847 69.748 63.4967 69.868C63.6167 69.98 63.6767 70.124 63.6767 70.3V71.644L63.5567 71.128C63.6207 70.904 63.7167 70.696 63.8447 70.504C63.9807 70.312 64.1407 70.144 64.3247 70C64.5087 69.856 64.7127 69.744 64.9367 69.664C65.1687 69.584 65.4087 69.544 65.6567 69.544C65.8647 69.544 66.0447 69.6 66.1967 69.712C66.3487 69.824 66.4247 69.964 66.4247 70.132C66.4247 70.348 66.3687 70.508 66.2567 70.612C66.1447 70.708 66.0207 70.756 65.8847 70.756C65.7647 70.756 65.6487 70.732 65.5367 70.684C65.4247 70.628 65.2927 70.6 65.1407 70.6C64.9727 70.6 64.8007 70.644 64.6247 70.732C64.4487 70.82 64.2887 70.952 64.1447 71.128C64.0007 71.296 63.8847 71.496 63.7967 71.728C63.7167 71.96 63.6767 72.22 63.6767 72.508V75.388C63.6767 75.564 63.6167 75.712 63.4967 75.832C63.3847 75.944 63.2447 76 63.0767 76ZM68.6203 75.388C68.6203 75.564 68.5643 75.712 68.4523 75.832C68.3403 75.944 68.1963 76 68.0203 76C67.8523 76 67.7083 75.944 67.5883 75.832C67.4763 75.712 67.4203 75.564 67.4203 75.388V70.252C67.4203 70.076 67.4763 69.932 67.5883 69.82C67.7083 69.7 67.8523 69.64 68.0203 69.64C68.1963 69.64 68.3403 69.7 68.4523 69.82C68.5643 69.932 68.6203 70.076 68.6203 70.252V75.388ZM68.0083 68.848C67.7763 68.848 67.6083 68.808 67.5043 68.728C67.4003 68.64 67.3483 68.496 67.3483 68.296V68.104C67.3483 67.904 67.4043 67.764 67.5163 67.684C67.6283 67.604 67.7963 67.564 68.0203 67.564C68.2603 67.564 68.4323 67.608 68.5363 67.696C68.6403 67.776 68.6923 67.912 68.6923 68.104V68.296C68.6923 68.504 68.6363 68.648 68.5243 68.728C68.4203 68.808 68.2483 68.848 68.0083 68.848ZM73.4145 69.58C73.9745 69.58 74.4705 69.72 74.9025 70C75.3425 70.28 75.6905 70.664 75.9465 71.152C76.2025 71.632 76.3305 72.192 76.3305 72.832C76.3305 73.472 76.2025 74.04 75.9465 74.536C75.6905 75.024 75.3465 75.408 74.9145 75.688C74.4825 75.968 73.9945 76.108 73.4505 76.108C73.1465 76.108 72.8585 76.06 72.5865 75.964C72.3145 75.868 72.0745 75.744 71.8665 75.592C71.6585 75.432 71.4865 75.264 71.3505 75.088C71.2225 74.912 71.1425 74.748 71.1105 74.596L71.4345 74.44V77.788C71.4345 77.964 71.3745 78.108 71.2545 78.22C71.1425 78.34 71.0025 78.4 70.8345 78.4C70.6585 78.4 70.5145 78.34 70.4025 78.22C70.2905 78.108 70.2345 77.964 70.2345 77.788V70.276C70.2345 70.108 70.2905 69.964 70.4025 69.844C70.5145 69.724 70.6585 69.664 70.8345 69.664C71.0025 69.664 71.1425 69.724 71.2545 69.844C71.3745 69.964 71.4345 70.108 71.4345 70.276V71.104L71.2425 70.996C71.2665 70.844 71.3425 70.688 71.4705 70.528C71.5985 70.36 71.7585 70.204 71.9505 70.06C72.1505 69.916 72.3745 69.8 72.6225 69.712C72.8785 69.624 73.1425 69.58 73.4145 69.58ZM73.2825 70.684C72.8985 70.684 72.5625 70.78 72.2745 70.972C71.9945 71.156 71.7745 71.408 71.6145 71.728C71.4545 72.048 71.3745 72.416 71.3745 72.832C71.3745 73.24 71.4545 73.612 71.6145 73.948C71.7745 74.276 71.9945 74.536 72.2745 74.728C72.5625 74.912 72.8985 75.004 73.2825 75.004C73.6585 75.004 73.9865 74.912 74.2665 74.728C74.5465 74.536 74.7665 74.276 74.9265 73.948C75.0945 73.612 75.1785 73.24 75.1785 72.832C75.1785 72.424 75.0945 72.06 74.9265 71.74C74.7665 71.412 74.5465 71.156 74.2665 70.972C73.9865 70.78 73.6585 70.684 73.2825 70.684ZM77.6037 69.76H80.4237C80.5837 69.76 80.7157 69.816 80.8197 69.928C80.9317 70.032 80.9877 70.164 80.9877 70.324C80.9877 70.476 80.9317 70.604 80.8197 70.708C80.7157 70.812 80.5837 70.864 80.4237 70.864H77.6037C77.4437 70.864 77.3077 70.812 77.1957 70.708C77.0917 70.596 77.0397 70.464 77.0397 70.312C77.0397 70.152 77.0917 70.02 77.1957 69.916C77.3077 69.812 77.4437 69.76 77.6037 69.76ZM78.8637 68.2C79.0397 68.2 79.1837 68.26 79.2957 68.38C79.4077 68.492 79.4637 68.636 79.4637 68.812V74.38C79.4637 74.524 79.4877 74.64 79.5357 74.728C79.5837 74.816 79.6477 74.876 79.7277 74.908C79.8157 74.94 79.9037 74.956 79.9917 74.956C80.0797 74.956 80.1557 74.94 80.2197 74.908C80.2917 74.876 80.3757 74.86 80.4717 74.86C80.5677 74.86 80.6557 74.904 80.7357 74.992C80.8157 75.08 80.8557 75.2 80.8557 75.352C80.8557 75.544 80.7517 75.7 80.5437 75.82C80.3357 75.94 80.1117 76 79.8717 76C79.7357 76 79.5757 75.988 79.3917 75.964C79.2077 75.94 79.0277 75.88 78.8517 75.784C78.6837 75.688 78.5437 75.536 78.4317 75.328C78.3197 75.112 78.2637 74.812 78.2637 74.428V68.812C78.2637 68.636 78.3197 68.492 78.4317 68.38C78.5517 68.26 78.6957 68.2 78.8637 68.2Z" fill="#9591AF"/>
<path d="M109.94 76.12C109.468 76.12 109.036 76.012 108.644 75.796C108.252 75.58 107.936 75.28 107.696 74.896C107.624 74.776 107.588 74.664 107.588 74.56C107.588 74.392 107.652 74.252 107.78 74.14C107.908 74.028 108.036 73.972 108.164 73.972C108.276 73.972 108.376 74.004 108.464 74.068C108.56 74.124 108.648 74.196 108.728 74.284C108.888 74.492 109.068 74.652 109.268 74.764C109.468 74.868 109.692 74.92 109.94 74.92C110.228 74.92 110.488 74.856 110.72 74.728C110.952 74.592 111.136 74.412 111.272 74.188C111.408 73.956 111.476 73.704 111.476 73.432V68.212C111.476 68.036 111.54 67.892 111.668 67.78C111.796 67.66 111.944 67.6 112.112 67.6C112.296 67.6 112.444 67.66 112.556 67.78C112.668 67.892 112.724 68.036 112.724 68.212V73.432C112.724 73.92 112.6 74.368 112.352 74.776C112.112 75.184 111.78 75.512 111.356 75.76C110.94 76 110.468 76.12 109.94 76.12ZM119.715 69.592C119.891 69.592 120.035 69.652 120.147 69.772C120.259 69.884 120.315 70.028 120.315 70.204V75.388C120.315 75.564 120.259 75.712 120.147 75.832C120.035 75.944 119.891 76 119.715 76C119.547 76 119.403 75.944 119.283 75.832C119.171 75.712 119.115 75.564 119.115 75.388V74.524L119.367 74.56C119.367 74.704 119.307 74.864 119.187 75.04C119.075 75.216 118.919 75.388 118.719 75.556C118.519 75.716 118.283 75.852 118.011 75.964C117.739 76.068 117.447 76.12 117.135 76.12C116.583 76.12 116.087 75.98 115.647 75.7C115.207 75.412 114.859 75.02 114.603 74.524C114.347 74.028 114.219 73.464 114.219 72.832C114.219 72.184 114.347 71.616 114.603 71.128C114.859 70.632 115.203 70.244 115.635 69.964C116.075 69.684 116.563 69.544 117.099 69.544C117.443 69.544 117.759 69.6 118.047 69.712C118.343 69.824 118.599 69.968 118.815 70.144C119.031 70.32 119.195 70.508 119.307 70.708C119.427 70.9 119.487 71.084 119.487 71.26L119.115 71.296V70.204C119.115 70.036 119.171 69.892 119.283 69.772C119.403 69.652 119.547 69.592 119.715 69.592ZM117.267 75.016C117.643 75.016 117.975 74.92 118.263 74.728C118.551 74.536 118.775 74.276 118.935 73.948C119.095 73.612 119.175 73.24 119.175 72.832C119.175 72.416 119.095 72.044 118.935 71.716C118.775 71.388 118.551 71.128 118.263 70.936C117.975 70.744 117.643 70.648 117.267 70.648C116.899 70.648 116.571 70.744 116.283 70.936C116.003 71.128 115.779 71.388 115.611 71.716C115.451 72.044 115.371 72.416 115.371 72.832C115.371 73.24 115.451 73.612 115.611 73.948C115.779 74.276 116.003 74.536 116.283 74.728C116.571 74.92 116.899 75.016 117.267 75.016ZM122 69.628C122.12 69.628 122.232 69.66 122.336 69.724C122.448 69.788 122.528 69.884 122.576 70.012L124.46 74.368L124.232 74.476L126.14 70.024C126.252 69.76 126.432 69.632 126.68 69.64C126.84 69.64 126.972 69.692 127.076 69.796C127.188 69.892 127.244 70.02 127.244 70.18C127.244 70.228 127.236 70.28 127.22 70.336C127.204 70.384 127.184 70.432 127.16 70.48L124.88 75.616C124.776 75.856 124.604 75.984 124.364 76C124.244 76.016 124.124 75.992 124.004 75.928C123.892 75.856 123.804 75.752 123.74 75.616L121.472 70.48C121.456 70.448 121.44 70.408 121.424 70.36C121.408 70.304 121.4 70.24 121.4 70.168C121.4 70.048 121.452 69.928 121.556 69.808C121.668 69.688 121.816 69.628 122 69.628ZM133.614 69.592C133.79 69.592 133.934 69.652 134.046 69.772C134.158 69.884 134.214 70.028 134.214 70.204V75.388C134.214 75.564 134.158 75.712 134.046 75.832C133.934 75.944 133.79 76 133.614 76C133.446 76 133.302 75.944 133.182 75.832C133.07 75.712 133.014 75.564 133.014 75.388V74.524L133.266 74.56C133.266 74.704 133.206 74.864 133.086 75.04C132.974 75.216 132.818 75.388 132.618 75.556C132.418 75.716 132.182 75.852 131.91 75.964C131.638 76.068 131.346 76.12 131.034 76.12C130.482 76.12 129.986 75.98 129.546 75.7C129.106 75.412 128.758 75.02 128.502 74.524C128.246 74.028 128.118 73.464 128.118 72.832C128.118 72.184 128.246 71.616 128.502 71.128C128.758 70.632 129.102 70.244 129.534 69.964C129.974 69.684 130.462 69.544 130.998 69.544C131.342 69.544 131.658 69.6 131.946 69.712C132.242 69.824 132.498 69.968 132.714 70.144C132.93 70.32 133.094 70.508 133.206 70.708C133.326 70.9 133.386 71.084 133.386 71.26L133.014 71.296V70.204C133.014 70.036 133.07 69.892 133.182 69.772C133.302 69.652 133.446 69.592 133.614 69.592ZM131.166 75.016C131.542 75.016 131.874 74.92 132.162 74.728C132.45 74.536 132.674 74.276 132.834 73.948C132.994 73.612 133.074 73.24 133.074 72.832C133.074 72.416 132.994 72.044 132.834 71.716C132.674 71.388 132.45 71.128 132.162 70.936C131.874 70.744 131.542 70.648 131.166 70.648C130.798 70.648 130.47 70.744 130.182 70.936C129.902 71.128 129.678 71.388 129.51 71.716C129.35 72.044 129.27 72.416 129.27 72.832C129.27 73.24 129.35 73.612 129.51 73.948C129.678 74.276 129.902 74.536 130.182 74.728C130.47 74.92 130.798 75.016 131.166 75.016ZM141.947 76.12C141.371 76.12 140.859 76.04 140.411 75.88C139.963 75.72 139.535 75.456 139.127 75.088C139.039 75.024 138.971 74.948 138.923 74.86C138.883 74.764 138.863 74.668 138.863 74.572C138.863 74.42 138.919 74.284 139.031 74.164C139.143 74.044 139.283 73.984 139.451 73.984C139.579 73.984 139.699 74.028 139.811 74.116C140.115 74.396 140.431 74.608 140.759 74.752C141.095 74.896 141.487 74.968 141.935 74.968C142.255 74.968 142.547 74.916 142.811 74.812C143.083 74.708 143.299 74.568 143.459 74.392C143.619 74.216 143.699 74.012 143.699 73.78C143.699 73.492 143.615 73.256 143.447 73.072C143.287 72.88 143.051 72.724 142.739 72.604C142.435 72.476 142.067 72.368 141.635 72.28C141.235 72.208 140.875 72.108 140.555 71.98C140.243 71.852 139.975 71.692 139.751 71.5C139.527 71.3 139.355 71.064 139.235 70.792C139.115 70.52 139.055 70.204 139.055 69.844C139.055 69.356 139.183 68.936 139.439 68.584C139.695 68.232 140.043 67.96 140.483 67.768C140.923 67.576 141.419 67.48 141.971 67.48C142.475 67.48 142.947 67.56 143.387 67.72C143.827 67.872 144.183 68.08 144.455 68.344C144.647 68.512 144.743 68.692 144.743 68.884C144.743 69.028 144.683 69.164 144.563 69.292C144.451 69.412 144.319 69.472 144.167 69.472C144.055 69.472 143.959 69.44 143.879 69.376C143.751 69.24 143.579 69.12 143.363 69.016C143.147 68.904 142.915 68.812 142.667 68.74C142.427 68.668 142.195 68.632 141.971 68.632C141.611 68.632 141.303 68.684 141.047 68.788C140.791 68.884 140.595 69.02 140.459 69.196C140.323 69.364 140.255 69.564 140.255 69.796C140.255 70.068 140.331 70.292 140.483 70.468C140.643 70.644 140.863 70.788 141.143 70.9C141.423 71.004 141.743 71.1 142.103 71.188C142.543 71.284 142.935 71.392 143.279 71.512C143.631 71.632 143.927 71.788 144.167 71.98C144.407 72.164 144.591 72.396 144.719 72.676C144.847 72.956 144.911 73.304 144.911 73.72C144.911 74.2 144.775 74.62 144.503 74.98C144.231 75.34 143.871 75.62 143.423 75.82C142.983 76.02 142.491 76.12 141.947 76.12ZM149.05 69.544C149.482 69.544 149.866 69.592 150.202 69.688C150.538 69.776 150.798 69.904 150.982 70.072C151.174 70.232 151.27 70.42 151.27 70.636C151.27 70.772 151.23 70.9 151.15 71.02C151.07 71.132 150.95 71.188 150.79 71.188C150.678 71.188 150.582 71.168 150.502 71.128C150.43 71.088 150.362 71.04 150.298 70.984C150.234 70.928 150.154 70.872 150.058 70.816C149.97 70.768 149.838 70.728 149.662 70.696C149.494 70.664 149.342 70.648 149.206 70.648C148.782 70.648 148.414 70.744 148.102 70.936C147.798 71.128 147.558 71.388 147.382 71.716C147.214 72.044 147.13 72.416 147.13 72.832C147.13 73.248 147.214 73.62 147.382 73.948C147.558 74.276 147.794 74.536 148.09 74.728C148.394 74.92 148.746 75.016 149.146 75.016C149.386 75.016 149.582 75 149.734 74.968C149.886 74.928 150.018 74.88 150.13 74.824C150.25 74.752 150.35 74.68 150.43 74.608C150.518 74.528 150.638 74.488 150.79 74.488C150.966 74.488 151.098 74.544 151.186 74.656C151.282 74.76 151.33 74.892 151.33 75.052C151.33 75.228 151.222 75.4 151.006 75.568C150.798 75.728 150.518 75.86 150.166 75.964C149.814 76.068 149.426 76.12 149.002 76.12C148.378 76.12 147.834 75.976 147.37 75.688C146.914 75.4 146.558 75.008 146.302 74.512C146.054 74.016 145.93 73.456 145.93 72.832C145.93 72.2 146.062 71.64 146.326 71.152C146.59 70.656 146.958 70.264 147.43 69.976C147.902 69.688 148.442 69.544 149.05 69.544ZM153.077 76C152.901 76 152.757 75.944 152.645 75.832C152.533 75.712 152.477 75.564 152.477 75.388V70.3C152.477 70.124 152.533 69.98 152.645 69.868C152.757 69.748 152.901 69.688 153.077 69.688C153.245 69.688 153.385 69.748 153.497 69.868C153.617 69.98 153.677 70.124 153.677 70.3V71.644L153.557 71.128C153.621 70.904 153.717 70.696 153.845 70.504C153.981 70.312 154.141 70.144 154.325 70C154.509 69.856 154.713 69.744 154.937 69.664C155.169 69.584 155.409 69.544 155.657 69.544C155.865 69.544 156.045 69.6 156.197 69.712C156.349 69.824 156.425 69.964 156.425 70.132C156.425 70.348 156.369 70.508 156.257 70.612C156.145 70.708 156.021 70.756 155.885 70.756C155.765 70.756 155.649 70.732 155.537 70.684C155.425 70.628 155.293 70.6 155.141 70.6C154.973 70.6 154.801 70.644 154.625 70.732C154.449 70.82 154.289 70.952 154.145 71.128C154.001 71.296 153.885 71.496 153.797 71.728C153.717 71.96 153.677 72.22 153.677 72.508V75.388C153.677 75.564 153.617 75.712 153.497 75.832C153.385 75.944 153.245 76 153.077 76ZM158.62 75.388C158.62 75.564 158.564 75.712 158.452 75.832C158.34 75.944 158.196 76 158.02 76C157.852 76 157.708 75.944 157.588 75.832C157.476 75.712 157.42 75.564 157.42 75.388V70.252C157.42 70.076 157.476 69.932 157.588 69.82C157.708 69.7 157.852 69.64 158.02 69.64C158.196 69.64 158.34 69.7 158.452 69.82C158.564 69.932 158.62 70.076 158.62 70.252V75.388ZM158.008 68.848C157.776 68.848 157.608 68.808 157.504 68.728C157.4 68.64 157.348 68.496 157.348 68.296V68.104C157.348 67.904 157.404 67.764 157.516 67.684C157.628 67.604 157.796 67.564 158.02 67.564C158.26 67.564 158.432 67.608 158.536 67.696C158.64 67.776 158.692 67.912 158.692 68.104V68.296C158.692 68.504 158.636 68.648 158.524 68.728C158.42 68.808 158.248 68.848 158.008 68.848ZM163.415 69.58C163.975 69.58 164.471 69.72 164.903 70C165.343 70.28 165.691 70.664 165.947 71.152C166.203 71.632 166.331 72.192 166.331 72.832C166.331 73.472 166.203 74.04 165.947 74.536C165.691 75.024 165.347 75.408 164.915 75.688C164.483 75.968 163.995 76.108 163.451 76.108C163.147 76.108 162.859 76.06 162.587 75.964C162.315 75.868 162.075 75.744 161.867 75.592C161.659 75.432 161.487 75.264 161.351 75.088C161.223 74.912 161.143 74.748 161.111 74.596L161.435 74.44V77.788C161.435 77.964 161.375 78.108 161.255 78.22C161.143 78.34 161.003 78.4 160.835 78.4C160.659 78.4 160.515 78.34 160.403 78.22C160.291 78.108 160.235 77.964 160.235 77.788V70.276C160.235 70.108 160.291 69.964 160.403 69.844C160.515 69.724 160.659 69.664 160.835 69.664C161.003 69.664 161.143 69.724 161.255 69.844C161.375 69.964 161.435 70.108 161.435 70.276V71.104L161.243 70.996C161.267 70.844 161.343 70.688 161.471 70.528C161.599 70.36 161.759 70.204 161.951 70.06C162.151 69.916 162.375 69.8 162.623 69.712C162.879 69.624 163.143 69.58 163.415 69.58ZM163.283 70.684C162.899 70.684 162.563 70.78 162.275 70.972C161.995 71.156 161.775 71.408 161.615 71.728C161.455 72.048 161.375 72.416 161.375 72.832C161.375 73.24 161.455 73.612 161.615 73.948C161.775 74.276 161.995 74.536 162.275 74.728C162.563 74.912 162.899 75.004 163.283 75.004C163.659 75.004 163.987 74.912 164.267 74.728C164.547 74.536 164.767 74.276 164.927 73.948C165.095 73.612 165.179 73.24 165.179 72.832C165.179 72.424 165.095 72.06 164.927 71.74C164.767 71.412 164.547 71.156 164.267 70.972C163.987 70.78 163.659 70.684 163.283 70.684ZM167.604 69.76H170.424C170.584 69.76 170.716 69.816 170.82 69.928C170.932 70.032 170.988 70.164 170.988 70.324C170.988 70.476 170.932 70.604 170.82 70.708C170.716 70.812 170.584 70.864 170.424 70.864H167.604C167.444 70.864 167.308 70.812 167.196 70.708C167.092 70.596 167.04 70.464 167.04 70.312C167.04 70.152 167.092 70.02 167.196 69.916C167.308 69.812 167.444 69.76 167.604 69.76ZM168.864 68.2C169.04 68.2 169.184 68.26 169.296 68.38C169.408 68.492 169.464 68.636 169.464 68.812V74.38C169.464 74.524 169.488 74.64 169.536 74.728C169.584 74.816 169.648 74.876 169.728 74.908C169.816 74.94 169.904 74.956 169.992 74.956C170.08 74.956 170.156 74.94 170.22 74.908C170.292 74.876 170.376 74.86 170.472 74.86C170.568 74.86 170.656 74.904 170.736 74.992C170.816 75.08 170.856 75.2 170.856 75.352C170.856 75.544 170.752 75.7 170.544 75.82C170.336 75.94 170.112 76 169.872 76C169.736 76 169.576 75.988 169.392 75.964C169.208 75.94 169.028 75.88 168.852 75.784C168.684 75.688 168.544 75.536 168.432 75.328C168.32 75.112 168.264 74.812 168.264 74.428V68.812C168.264 68.636 168.32 68.492 168.432 68.38C168.552 68.26 168.696 68.2 168.864 68.2Z" fill="#9591AF"/>
<path d="M26.972 42.382C27.248 42.382 27.482 42.49 27.674 42.706C27.878 42.922 27.98 43.15 27.98 43.39C27.98 43.618 27.902 43.834 27.746 44.038L24.128 48.808L22.904 47.134L26.09 42.904C26.342 42.556 26.636 42.382 26.972 42.382ZM18.944 42.346C19.292 42.346 19.586 42.502 19.826 42.814L27.746 53.344C27.89 53.536 27.962 53.758 27.962 54.01C27.962 54.346 27.842 54.61 27.602 54.802C27.362 54.994 27.122 55.09 26.882 55.09C26.534 55.09 26.24 54.934 26 54.622L18.08 44.092C17.924 43.9 17.846 43.684 17.846 43.444C17.846 43.132 17.96 42.874 18.188 42.67C18.428 42.454 18.68 42.346 18.944 42.346ZM18.782 55.09C18.518 55.09 18.29 54.994 18.098 54.802C17.906 54.598 17.81 54.376 17.81 54.136C17.81 53.872 17.9 53.626 18.08 53.398L21.734 48.448L22.922 50.194L19.682 54.586C19.442 54.922 19.142 55.09 18.782 55.09ZM38.7669 42.382C39.0429 42.382 39.2769 42.49 39.4689 42.706C39.6729 42.922 39.7749 43.15 39.7749 43.39C39.7749 43.618 39.6969 43.834 39.5409 44.038L35.9229 48.808L34.6989 47.134L37.8849 42.904C38.1369 42.556 38.4309 42.382 38.7669 42.382ZM30.7389 42.346C31.0869 42.346 31.3809 42.502 31.6209 42.814L39.5409 53.344C39.6849 53.536 39.7569 53.758 39.7569 54.01C39.7569 54.346 39.6369 54.61 39.3969 54.802C39.1569 54.994 38.9169 55.09 38.6769 55.09C38.3289 55.09 38.0349 54.934 37.7949 54.622L29.8749 44.092C29.7189 43.9 29.6409 43.684 29.6409 43.444C29.6409 43.132 29.7549 42.874 29.9829 42.67C30.2229 42.454 30.4749 42.346 30.7389 42.346ZM30.5769 55.09C30.3129 55.09 30.0849 54.994 29.8929 54.802C29.7009 54.598 29.6049 54.376 29.6049 54.136C29.6049 53.872 29.6949 53.626 29.8749 53.398L33.5289 48.448L34.7169 50.194L31.4769 54.586C31.2369 54.922 30.9369 55.09 30.5769 55.09Z" fill="#69CA94"/>
<path d="M42.1018 57.412C41.8978 57.412 41.6878 57.328 41.4718 57.16C41.2558 56.992 41.1478 56.776 41.1478 56.512C41.1478 56.368 41.1838 56.224 41.2558 56.08L48.5638 41.122C48.6478 40.954 48.7618 40.822 48.9058 40.726C49.0498 40.63 49.1998 40.582 49.3558 40.582C49.5598 40.582 49.7638 40.666 49.9678 40.834C50.1838 40.99 50.2918 41.206 50.2918 41.482C50.2918 41.626 50.2558 41.77 50.1838 41.914L42.8938 56.872C42.8098 57.04 42.6958 57.172 42.5518 57.268C42.4198 57.364 42.2698 57.412 42.1018 57.412ZM60.7923 42.382C61.0683 42.382 61.3023 42.49 61.4943 42.706C61.6983 42.922 61.8003 43.15 61.8003 43.39C61.8003 43.618 61.7223 43.834 61.5663 44.038L57.9483 48.808L56.7243 47.134L59.9103 42.904C60.1623 42.556 60.4563 42.382 60.7923 42.382ZM52.7643 42.346C53.1123 42.346 53.4063 42.502 53.6463 42.814L61.5663 53.344C61.7103 53.536 61.7823 53.758 61.7823 54.01C61.7823 54.346 61.6623 54.61 61.4223 54.802C61.1823 54.994 60.9423 55.09 60.7023 55.09C60.3543 55.09 60.0603 54.934 59.8203 54.622L51.9003 44.092C51.7443 43.9 51.6663 43.684 51.6663 43.444C51.6663 43.132 51.7803 42.874 52.0083 42.67C52.2483 42.454 52.5003 42.346 52.7643 42.346ZM52.6023 55.09C52.3383 55.09 52.1103 54.994 51.9183 54.802C51.7263 54.598 51.6303 54.376 51.6303 54.136C51.6303 53.872 51.7203 53.626 51.9003 53.398L55.5543 48.448L56.7423 50.194L53.5023 54.586C53.2623 54.922 52.9623 55.09 52.6023 55.09ZM72.5872 42.382C72.8632 42.382 73.0972 42.49 73.2892 42.706C73.4932 42.922 73.5952 43.15 73.5952 43.39C73.5952 43.618 73.5172 43.834 73.3612 44.038L69.7432 48.808L68.5192 47.134L71.7052 42.904C71.9572 42.556 72.2512 42.382 72.5872 42.382ZM64.5592 42.346C64.9072 42.346 65.2012 42.502 65.4412 42.814L73.3612 53.344C73.5052 53.536 73.5772 53.758 73.5772 54.01C73.5772 54.346 73.4572 54.61 73.2172 54.802C72.9772 54.994 72.7372 55.09 72.4972 55.09C72.1492 55.09 71.8552 54.934 71.6152 54.622L63.6952 44.092C63.5392 43.9 63.4612 43.684 63.4612 43.444C63.4612 43.132 63.5752 42.874 63.8032 42.67C64.0432 42.454 64.2952 42.346 64.5592 42.346ZM64.3972 55.09C64.1332 55.09 63.9052 54.994 63.7132 54.802C63.5212 54.598 63.4252 54.376 63.4252 54.136C63.4252 53.872 63.5152 53.626 63.6952 53.398L67.3492 48.448L68.5372 50.194L65.2972 54.586C65.0572 54.922 64.7572 55.09 64.3972 55.09Z" fill="#19191F"/>
<path d="M116.972 42.382C117.248 42.382 117.482 42.49 117.674 42.706C117.878 42.922 117.98 43.15 117.98 43.39C117.98 43.618 117.902 43.834 117.746 44.038L114.128 48.808L112.904 47.134L116.09 42.904C116.342 42.556 116.636 42.382 116.972 42.382ZM108.944 42.346C109.292 42.346 109.586 42.502 109.826 42.814L117.746 53.344C117.89 53.536 117.962 53.758 117.962 54.01C117.962 54.346 117.842 54.61 117.602 54.802C117.362 54.994 117.122 55.09 116.882 55.09C116.534 55.09 116.24 54.934 116 54.622L108.08 44.092C107.924 43.9 107.846 43.684 107.846 43.444C107.846 43.132 107.96 42.874 108.188 42.67C108.428 42.454 108.68 42.346 108.944 42.346ZM108.782 55.09C108.518 55.09 108.29 54.994 108.098 54.802C107.906 54.598 107.81 54.376 107.81 54.136C107.81 53.872 107.9 53.626 108.08 53.398L111.734 48.448L112.922 50.194L109.682 54.586C109.442 54.922 109.142 55.09 108.782 55.09ZM128.767 42.382C129.043 42.382 129.277 42.49 129.469 42.706C129.673 42.922 129.775 43.15 129.775 43.39C129.775 43.618 129.697 43.834 129.541 44.038L125.923 48.808L124.699 47.134L127.885 42.904C128.137 42.556 128.431 42.382 128.767 42.382ZM120.739 42.346C121.087 42.346 121.381 42.502 121.621 42.814L129.541 53.344C129.685 53.536 129.757 53.758 129.757 54.01C129.757 54.346 129.637 54.61 129.397 54.802C129.157 54.994 128.917 55.09 128.677 55.09C128.329 55.09 128.035 54.934 127.795 54.622L119.875 44.092C119.719 43.9 119.641 43.684 119.641 43.444C119.641 43.132 119.755 42.874 119.983 42.67C120.223 42.454 120.475 42.346 120.739 42.346ZM120.577 55.09C120.313 55.09 120.085 54.994 119.893 54.802C119.701 54.598 119.605 54.376 119.605 54.136C119.605 53.872 119.695 53.626 119.875 53.398L123.529 48.448L124.717 50.194L121.477 54.586C121.237 54.922 120.937 55.09 120.577 55.09Z" fill="#69CA94"/>
<path d="M132.102 57.412C131.898 57.412 131.688 57.328 131.472 57.16C131.256 56.992 131.148 56.776 131.148 56.512C131.148 56.368 131.184 56.224 131.256 56.08L138.564 41.122C138.648 40.954 138.762 40.822 138.906 40.726C139.05 40.63 139.2 40.582 139.356 40.582C139.56 40.582 139.764 40.666 139.968 40.834C140.184 40.99 140.292 41.206 140.292 41.482C140.292 41.626 140.256 41.77 140.184 41.914L132.894 56.872C132.81 57.04 132.696 57.172 132.552 57.268C132.42 57.364 132.27 57.412 132.102 57.412ZM150.792 42.382C151.068 42.382 151.302 42.49 151.494 42.706C151.698 42.922 151.8 43.15 151.8 43.39C151.8 43.618 151.722 43.834 151.566 44.038L147.948 48.808L146.724 47.134L149.91 42.904C150.162 42.556 150.456 42.382 150.792 42.382ZM142.764 42.346C143.112 42.346 143.406 42.502 143.646 42.814L151.566 53.344C151.71 53.536 151.782 53.758 151.782 54.01C151.782 54.346 151.662 54.61 151.422 54.802C151.182 54.994 150.942 55.09 150.702 55.09C150.354 55.09 150.06 54.934 149.82 54.622L141.9 44.092C141.744 43.9 141.666 43.684 141.666 43.444C141.666 43.132 141.78 42.874 142.008 42.67C142.248 42.454 142.5 42.346 142.764 42.346ZM142.602 55.09C142.338 55.09 142.11 54.994 141.918 54.802C141.726 54.598 141.63 54.376 141.63 54.136C141.63 53.872 141.72 53.626 141.9 53.398L145.554 48.448L146.742 50.194L143.502 54.586C143.262 54.922 142.962 55.09 142.602 55.09ZM162.587 42.382C162.863 42.382 163.097 42.49 163.289 42.706C163.493 42.922 163.595 43.15 163.595 43.39C163.595 43.618 163.517 43.834 163.361 44.038L159.743 48.808L158.519 47.134L161.705 42.904C161.957 42.556 162.251 42.382 162.587 42.382ZM154.559 42.346C154.907 42.346 155.201 42.502 155.441 42.814L163.361 53.344C163.505 53.536 163.577 53.758 163.577 54.01C163.577 54.346 163.457 54.61 163.217 54.802C162.977 54.994 162.737 55.09 162.497 55.09C162.149 55.09 161.855 54.934 161.615 54.622L153.695 44.092C153.539 43.9 153.461 43.684 153.461 43.444C153.461 43.132 153.575 42.874 153.803 42.67C154.043 42.454 154.295 42.346 154.559 42.346ZM154.397 55.09C154.133 55.09 153.905 54.994 153.713 54.802C153.521 54.598 153.425 54.376 153.425 54.136C153.425 53.872 153.515 53.626 153.695 53.398L157.349 48.448L158.537 50.194L155.297 54.586C155.057 54.922 154.757 55.09 154.397 55.09Z" fill="#19191F"/>
<path d="M17.656 12C17.432 12 17.248 11.932 17.104 11.796C16.968 11.652 16.9 11.476 16.9 11.268V4.332C16.9 4.124 16.968 3.952 17.104 3.816C17.248 3.672 17.424 3.6 17.632 3.6H21.532C21.74 3.6 21.912 3.668 22.048 3.804C22.192 3.932 22.264 4.1 22.264 4.308C22.264 4.484 22.192 4.64 22.048 4.776C21.912 4.912 21.74 4.98 21.532 4.98H18.292L18.4 4.836V7.248L18.316 7.092H20.992C21.2 7.092 21.372 7.16 21.508 7.296C21.652 7.424 21.724 7.592 21.724 7.8C21.724 7.976 21.652 8.132 21.508 8.268C21.372 8.404 21.2 8.472 20.992 8.472H18.292L18.4 8.364V11.268C18.4 11.476 18.324 11.652 18.172 11.796C18.028 11.932 17.856 12 17.656 12ZM24.8743 11.268C24.8743 11.476 24.8063 11.652 24.6703 11.796C24.5343 11.932 24.3623 12 24.1543 12C23.9463 12 23.7743 11.932 23.6383 11.796C23.5023 11.652 23.4343 11.476 23.4343 11.268V6.312C23.4343 6.104 23.5023 5.932 23.6383 5.796C23.7743 5.652 23.9463 5.58 24.1543 5.58C24.3623 5.58 24.5343 5.652 24.6703 5.796C24.8063 5.932 24.8743 6.104 24.8743 6.312V11.268ZM24.1423 4.8C23.8703 4.8 23.6783 4.756 23.5663 4.668C23.4543 4.58 23.3983 4.424 23.3983 4.2V3.972C23.3983 3.74 23.4583 3.584 23.5783 3.504C23.7063 3.416 23.8983 3.372 24.1543 3.372C24.4343 3.372 24.6303 3.416 24.7423 3.504C24.8543 3.592 24.9103 3.748 24.9103 3.972V4.2C24.9103 4.432 24.8503 4.592 24.7303 4.68C24.6103 4.76 24.4143 4.8 24.1423 4.8ZM27.9142 11.268C27.9142 11.476 27.8422 11.652 27.6982 11.796C27.5622 11.932 27.3902 12 27.1822 12C26.9822 12 26.8142 11.932 26.6782 11.796C26.5422 11.652 26.4742 11.476 26.4742 11.268V3.852C26.4742 3.644 26.5422 3.472 26.6782 3.336C26.8222 3.192 26.9982 3.12 27.2062 3.12C27.4142 3.12 27.5822 3.192 27.7102 3.336C27.8462 3.472 27.9142 3.644 27.9142 3.852V11.268ZM32.4954 12.12C31.8154 12.12 31.2234 11.98 30.7194 11.7C30.2234 11.412 29.8394 11.024 29.5674 10.536C29.3034 10.048 29.1714 9.496 29.1714 8.88C29.1714 8.16 29.3154 7.548 29.6034 7.044C29.8994 6.532 30.2834 6.14 30.7554 5.868C31.2274 5.596 31.7274 5.46 32.2554 5.46C32.6634 5.46 33.0474 5.544 33.4074 5.712C33.7754 5.88 34.0994 6.112 34.3794 6.408C34.6594 6.696 34.8794 7.032 35.0394 7.416C35.2074 7.8 35.2914 8.208 35.2914 8.64C35.2834 8.832 35.2074 8.988 35.0634 9.108C34.9194 9.228 34.7514 9.288 34.5594 9.288H29.9754L29.6154 8.088H34.0194L33.7554 8.328V8.004C33.7394 7.772 33.6554 7.564 33.5034 7.38C33.3594 7.196 33.1754 7.052 32.9514 6.948C32.7354 6.836 32.5034 6.78 32.2554 6.78C32.0154 6.78 31.7914 6.812 31.5834 6.876C31.3754 6.94 31.1954 7.048 31.0434 7.2C30.8914 7.352 30.7714 7.556 30.6834 7.812C30.5954 8.068 30.5514 8.392 30.5514 8.784C30.5514 9.216 30.6394 9.584 30.8154 9.888C30.9994 10.184 31.2314 10.412 31.5114 10.572C31.7994 10.724 32.1034 10.8 32.4234 10.8C32.7194 10.8 32.9554 10.776 33.1314 10.728C33.3074 10.68 33.4474 10.624 33.5514 10.56C33.6634 10.488 33.7634 10.428 33.8514 10.38C33.9954 10.308 34.1314 10.272 34.2594 10.272C34.4354 10.272 34.5794 10.332 34.6914 10.452C34.8114 10.572 34.8714 10.712 34.8714 10.872C34.8714 11.088 34.7594 11.284 34.5354 11.46C34.3274 11.636 34.0354 11.792 33.6594 11.928C33.2834 12.056 32.8954 12.12 32.4954 12.12ZM45.9128 4.008C46.1208 4.112 46.2408 4.276 46.2728 4.5C46.3128 4.724 46.2568 4.928 46.1048 5.112C46.0008 5.256 45.8648 5.336 45.6968 5.352C45.5368 5.368 45.3728 5.336 45.2048 5.256C45.0128 5.168 44.8088 5.1 44.5928 5.052C44.3848 5.004 44.1648 4.98 43.9328 4.98C43.5008 4.98 43.1128 5.048 42.7688 5.184C42.4328 5.32 42.1448 5.516 41.9048 5.772C41.6648 6.02 41.4808 6.316 41.3528 6.66C41.2328 7.004 41.1728 7.384 41.1728 7.8C41.1728 8.288 41.2408 8.712 41.3768 9.072C41.5208 9.432 41.7168 9.732 41.9648 9.972C42.2128 10.212 42.5048 10.392 42.8408 10.512C43.1768 10.624 43.5408 10.68 43.9328 10.68C44.1488 10.68 44.3648 10.66 44.5808 10.62C44.7968 10.58 45.0048 10.508 45.2048 10.404C45.3728 10.324 45.5368 10.296 45.6968 10.32C45.8648 10.344 46.0048 10.428 46.1168 10.572C46.2768 10.772 46.3328 10.98 46.2848 11.196C46.2448 11.404 46.1248 11.556 45.9248 11.652C45.7168 11.756 45.5008 11.844 45.2768 11.916C45.0608 11.98 44.8408 12.028 44.6168 12.06C44.3928 12.1 44.1648 12.12 43.9328 12.12C43.3568 12.12 42.8088 12.028 42.2888 11.844C41.7768 11.66 41.3168 11.388 40.9088 11.028C40.5088 10.668 40.1928 10.22 39.9608 9.684C39.7288 9.14 39.6128 8.512 39.6128 7.8C39.6128 7.184 39.7168 6.616 39.9248 6.096C40.1408 5.576 40.4408 5.128 40.8248 4.752C41.2168 4.368 41.6768 4.072 42.2048 3.864C42.7328 3.648 43.3088 3.54 43.9328 3.54C44.2848 3.54 44.6288 3.58 44.9648 3.66C45.3008 3.74 45.6168 3.856 45.9128 4.008ZM52.6923 5.46C52.9003 5.46 53.0723 5.528 53.2083 5.664C53.3443 5.8 53.4123 5.976 53.4123 6.192V11.268C53.4123 11.476 53.3443 11.652 53.2083 11.796C53.0723 11.932 52.9003 12 52.6923 12C52.4843 12 52.3123 11.932 52.1763 11.796C52.0403 11.652 51.9723 11.476 51.9723 11.268V10.68L52.2363 10.788C52.2363 10.892 52.1803 11.02 52.0683 11.172C51.9563 11.316 51.8043 11.46 51.6123 11.604C51.4203 11.748 51.1923 11.872 50.9283 11.976C50.6723 12.072 50.3923 12.12 50.0883 12.12C49.5363 12.12 49.0363 11.98 48.5883 11.7C48.1403 11.412 47.7843 11.02 47.5203 10.524C47.2643 10.02 47.1363 9.444 47.1363 8.796C47.1363 8.14 47.2643 7.564 47.5203 7.068C47.7843 6.564 48.1363 6.172 48.5763 5.892C49.0163 5.604 49.5043 5.46 50.0403 5.46C50.3843 5.46 50.7003 5.512 50.9883 5.616C51.2763 5.72 51.5243 5.852 51.7323 6.012C51.9483 6.172 52.1123 6.336 52.2243 6.504C52.3443 6.664 52.4043 6.8 52.4043 6.912L51.9723 7.068V6.192C51.9723 5.984 52.0403 5.812 52.1763 5.676C52.3123 5.532 52.4843 5.46 52.6923 5.46ZM50.2683 10.8C50.6203 10.8 50.9283 10.712 51.1923 10.536C51.4563 10.36 51.6603 10.12 51.8043 9.816C51.9563 9.512 52.0323 9.172 52.0323 8.796C52.0323 8.412 51.9563 8.068 51.8043 7.764C51.6603 7.46 51.4563 7.22 51.1923 7.044C50.9283 6.868 50.6203 6.78 50.2683 6.78C49.9243 6.78 49.6203 6.868 49.3563 7.044C49.0923 7.22 48.8843 7.46 48.7323 7.764C48.5883 8.068 48.5163 8.412 48.5163 8.796C48.5163 9.172 48.5883 9.512 48.7323 9.816C48.8843 10.12 49.0923 10.36 49.3563 10.536C49.6203 10.712 49.9243 10.8 50.2683 10.8ZM55.0434 5.7H57.8874C58.0794 5.7 58.2394 5.764 58.3674 5.892C58.4954 6.02 58.5594 6.18 58.5594 6.372C58.5594 6.556 58.4954 6.712 58.3674 6.84C58.2394 6.96 58.0794 7.02 57.8874 7.02H55.0434C54.8514 7.02 54.6914 6.956 54.5634 6.828C54.4354 6.7 54.3714 6.54 54.3714 6.348C54.3714 6.164 54.4354 6.012 54.5634 5.892C54.6914 5.764 54.8514 5.7 55.0434 5.7ZM56.3274 4.2C56.5354 4.2 56.7034 4.272 56.8314 4.416C56.9674 4.552 57.0354 4.724 57.0354 4.932V10.272C57.0354 10.384 57.0554 10.476 57.0954 10.548C57.1434 10.62 57.2034 10.672 57.2754 10.704C57.3554 10.736 57.4394 10.752 57.5274 10.752C57.6234 10.752 57.7114 10.736 57.7914 10.704C57.8714 10.664 57.9634 10.644 58.0674 10.644C58.1794 10.644 58.2794 10.696 58.3674 10.8C58.4634 10.904 58.5114 11.048 58.5114 11.232C58.5114 11.456 58.3874 11.64 58.1394 11.784C57.8994 11.928 57.6394 12 57.3594 12C57.1914 12 57.0034 11.988 56.7954 11.964C56.5954 11.932 56.4034 11.864 56.2194 11.76C56.0434 11.648 55.8954 11.48 55.7754 11.256C55.6554 11.032 55.5954 10.724 55.5954 10.332V4.932C55.5954 4.724 55.6634 4.552 55.7994 4.416C55.9434 4.272 56.1194 4.2 56.3274 4.2ZM62.847 12.12C62.167 12.12 61.575 11.98 61.071 11.7C60.575 11.412 60.191 11.024 59.919 10.536C59.655 10.048 59.523 9.496 59.523 8.88C59.523 8.16 59.667 7.548 59.955 7.044C60.251 6.532 60.635 6.14 61.107 5.868C61.579 5.596 62.079 5.46 62.607 5.46C63.015 5.46 63.399 5.544 63.759 5.712C64.127 5.88 64.451 6.112 64.731 6.408C65.011 6.696 65.231 7.032 65.391 7.416C65.559 7.8 65.643 8.208 65.643 8.64C65.635 8.832 65.559 8.988 65.415 9.108C65.271 9.228 65.103 9.288 64.911 9.288H60.327L59.967 8.088H64.371L64.107 8.328V8.004C64.091 7.772 64.007 7.564 63.855 7.38C63.711 7.196 63.527 7.052 63.303 6.948C63.087 6.836 62.855 6.78 62.607 6.78C62.367 6.78 62.143 6.812 61.935 6.876C61.727 6.94 61.547 7.048 61.395 7.2C61.243 7.352 61.123 7.556 61.035 7.812C60.947 8.068 60.903 8.392 60.903 8.784C60.903 9.216 60.991 9.584 61.167 9.888C61.351 10.184 61.583 10.412 61.863 10.572C62.151 10.724 62.455 10.8 62.775 10.8C63.071 10.8 63.307 10.776 63.483 10.728C63.659 10.68 63.799 10.624 63.903 10.56C64.015 10.488 64.115 10.428 64.203 10.38C64.347 10.308 64.483 10.272 64.611 10.272C64.787 10.272 64.931 10.332 65.043 10.452C65.163 10.572 65.223 10.712 65.223 10.872C65.223 11.088 65.111 11.284 64.887 11.46C64.679 11.636 64.387 11.792 64.011 11.928C63.635 12.056 63.247 12.12 62.847 12.12ZM69.5065 5.46C69.8425 5.46 70.1505 5.512 70.4305 5.616C70.7105 5.72 70.9505 5.852 71.1505 6.012C71.3585 6.172 71.5185 6.336 71.6305 6.504C71.7505 6.664 71.8105 6.8 71.8105 6.912L71.4985 7.068V6.192C71.4985 5.984 71.5665 5.812 71.7025 5.676C71.8385 5.532 72.0105 5.46 72.2185 5.46C72.4265 5.46 72.5985 5.528 72.7345 5.664C72.8705 5.8 72.9385 5.976 72.9385 6.192V11.532C72.9385 12.228 72.7865 12.784 72.4825 13.2C72.1865 13.624 71.7945 13.928 71.3065 14.112C70.8185 14.304 70.2945 14.4 69.7345 14.4C69.5745 14.4 69.3665 14.38 69.1105 14.34C68.8545 14.3 68.6105 14.252 68.3785 14.196C68.1465 14.14 67.9705 14.088 67.8505 14.04C67.6105 13.936 67.4425 13.804 67.3465 13.644C67.2585 13.492 67.2425 13.328 67.2985 13.152C67.3705 12.92 67.4865 12.76 67.6465 12.672C67.8065 12.592 67.9745 12.584 68.1505 12.648C68.2305 12.672 68.3625 12.72 68.5465 12.792C68.7305 12.864 68.9305 12.928 69.1465 12.984C69.3705 13.048 69.5665 13.08 69.7345 13.08C70.3345 13.08 70.7785 12.96 71.0665 12.72C71.3545 12.48 71.4985 12.148 71.4985 11.724V10.68L71.6425 10.788C71.6425 10.892 71.5865 11.02 71.4745 11.172C71.3705 11.316 71.2225 11.46 71.0305 11.604C70.8465 11.748 70.6265 11.872 70.3705 11.976C70.1145 12.072 69.8425 12.12 69.5545 12.12C68.9865 12.12 68.4745 11.98 68.0185 11.7C67.5625 11.412 67.2025 11.02 66.9385 10.524C66.6745 10.02 66.5425 9.444 66.5425 8.796C66.5425 8.14 66.6745 7.564 66.9385 7.068C67.2025 6.564 67.5585 6.172 68.0065 5.892C68.4545 5.604 68.9545 5.46 69.5065 5.46ZM69.7345 6.78C69.3745 6.78 69.0585 6.868 68.7865 7.044C68.5145 7.22 68.3025 7.46 68.1505 7.764C67.9985 8.068 67.9225 8.412 67.9225 8.796C67.9225 9.172 67.9985 9.512 68.1505 9.816C68.3025 10.12 68.5145 10.36 68.7865 10.536C69.0585 10.712 69.3745 10.8 69.7345 10.8C70.1025 10.8 70.4225 10.712 70.6945 10.536C70.9665 10.36 71.1785 10.12 71.3305 9.816C71.4825 9.512 71.5585 9.172 71.5585 8.796C71.5585 8.412 71.4825 8.068 71.3305 7.764C71.1785 7.46 70.9665 7.22 70.6945 7.044C70.4225 6.868 70.1025 6.78 69.7345 6.78ZM80.4885 8.796C80.4885 9.452 80.3405 10.032 80.0445 10.536C79.7565 11.032 79.3645 11.42 78.8685 11.7C78.3805 11.98 77.8325 12.12 77.2245 12.12C76.6165 12.12 76.0645 11.98 75.5685 11.7C75.0805 11.42 74.6885 11.032 74.3925 10.536C74.1045 10.032 73.9605 9.452 73.9605 8.796C73.9605 8.14 74.1045 7.564 74.3925 7.068C74.6885 6.564 75.0805 6.172 75.5685 5.892C76.0645 5.604 76.6165 5.46 77.2245 5.46C77.8325 5.46 78.3805 5.604 78.8685 5.892C79.3645 6.172 79.7565 6.564 80.0445 7.068C80.3405 7.564 80.4885 8.14 80.4885 8.796ZM79.0485 8.796C79.0485 8.388 78.9645 8.036 78.7965 7.74C78.6365 7.436 78.4165 7.2 78.1365 7.032C77.8645 6.864 77.5605 6.78 77.2245 6.78C76.8885 6.78 76.5805 6.864 76.3005 7.032C76.0285 7.2 75.8085 7.436 75.6405 7.74C75.4805 8.036 75.4005 8.388 75.4005 8.796C75.4005 9.196 75.4805 9.548 75.6405 9.852C75.8085 10.148 76.0285 10.38 76.3005 10.548C76.5805 10.716 76.8885 10.8 77.2245 10.8C77.5605 10.8 77.8645 10.716 78.1365 10.548C78.4165 10.38 78.6365 10.148 78.7965 9.852C78.9645 9.548 79.0485 9.196 79.0485 8.796ZM82.4688 12C82.2608 12 82.0888 11.932 81.9528 11.796C81.8168 11.652 81.7488 11.476 81.7488 11.268V6.312C81.7488 6.104 81.8168 5.932 81.9528 5.796C82.0888 5.652 82.2608 5.58 82.4688 5.58C82.6768 5.58 82.8488 5.652 82.9848 5.796C83.1208 5.932 83.1888 6.104 83.1888 6.312V7.44L83.1048 6.636C83.1928 6.444 83.3048 6.276 83.4408 6.132C83.5848 5.98 83.7448 5.856 83.9208 5.76C84.0968 5.656 84.2848 5.58 84.4848 5.532C84.6848 5.484 84.8848 5.46 85.0848 5.46C85.3248 5.46 85.5248 5.528 85.6848 5.664C85.8528 5.8 85.9368 5.96 85.9368 6.144C85.9368 6.408 85.8688 6.6 85.7328 6.72C85.5968 6.832 85.4488 6.888 85.2888 6.888C85.1368 6.888 84.9968 6.86 84.8688 6.804C84.7488 6.748 84.6088 6.72 84.4488 6.72C84.3048 6.72 84.1568 6.756 84.0048 6.828C83.8608 6.892 83.7248 6.996 83.5968 7.14C83.4768 7.284 83.3768 7.464 83.2968 7.68C83.2248 7.888 83.1888 8.136 83.1888 8.424V11.268C83.1888 11.476 83.1208 11.652 82.9848 11.796C82.8488 11.932 82.6768 12 82.4688 12ZM88.3079 11.268C88.3079 11.476 88.2399 11.652 88.1039 11.796C87.9679 11.932 87.7959 12 87.5879 12C87.3799 12 87.2079 11.932 87.0719 11.796C86.9359 11.652 86.8679 11.476 86.8679 11.268V6.312C86.8679 6.104 86.9359 5.932 87.0719 5.796C87.2079 5.652 87.3799 5.58 87.5879 5.58C87.7959 5.58 87.9679 5.652 88.1039 5.796C88.2399 5.932 88.3079 6.104 88.3079 6.312V11.268ZM87.5759 4.8C87.3039 4.8 87.1119 4.756 86.9999 4.668C86.8879 4.58 86.8319 4.424 86.8319 4.2V3.972C86.8319 3.74 86.8919 3.584 87.0119 3.504C87.1399 3.416 87.3319 3.372 87.5879 3.372C87.8679 3.372 88.0639 3.416 88.1759 3.504C88.2879 3.592 88.3439 3.748 88.3439 3.972V4.2C88.3439 4.432 88.2839 4.592 88.1639 4.68C88.0439 4.76 87.8479 4.8 87.5759 4.8ZM93.8798 10.68C94.0718 10.68 94.2318 10.744 94.3598 10.872C94.4878 10.992 94.5518 11.148 94.5518 11.34C94.5518 11.524 94.4878 11.68 94.3598 11.808C94.2318 11.936 94.0718 12 93.8798 12H90.0158C89.8158 12 89.6558 11.928 89.5358 11.784C89.4158 11.64 89.3598 11.496 89.3678 11.352C89.3758 11.232 89.3918 11.128 89.4158 11.04C89.4398 10.944 89.4998 10.836 89.5958 10.716L92.5838 6.852L92.5598 7.02H90.1238C89.9318 7.02 89.7718 6.956 89.6438 6.828C89.5158 6.7 89.4518 6.54 89.4518 6.348C89.4518 6.164 89.5158 6.012 89.6438 5.892C89.7718 5.764 89.9318 5.7 90.1238 5.7H93.8198C94.0038 5.7 94.1598 5.768 94.2878 5.904C94.4158 6.04 94.4718 6.212 94.4558 6.42C94.4478 6.5 94.4318 6.58 94.4078 6.66C94.3918 6.74 94.3398 6.836 94.2518 6.948L91.3118 10.752V10.68H93.8798ZM100.856 5.46C101.064 5.46 101.236 5.528 101.372 5.664C101.508 5.8 101.576 5.976 101.576 6.192V11.268C101.576 11.476 101.508 11.652 101.372 11.796C101.236 11.932 101.064 12 100.856 12C100.648 12 100.476 11.932 100.34 11.796C100.204 11.652 100.136 11.476 100.136 11.268V10.68L100.4 10.788C100.4 10.892 100.344 11.02 100.232 11.172C100.12 11.316 99.9683 11.46 99.7763 11.604C99.5843 11.748 99.3563 11.872 99.0923 11.976C98.8363 12.072 98.5563 12.12 98.2523 12.12C97.7003 12.12 97.2003 11.98 96.7523 11.7C96.3043 11.412 95.9483 11.02 95.6843 10.524C95.4283 10.02 95.3003 9.444 95.3003 8.796C95.3003 8.14 95.4283 7.564 95.6843 7.068C95.9483 6.564 96.3003 6.172 96.7403 5.892C97.1803 5.604 97.6683 5.46 98.2043 5.46C98.5483 5.46 98.8643 5.512 99.1523 5.616C99.4403 5.72 99.6883 5.852 99.8963 6.012C100.112 6.172 100.276 6.336 100.388 6.504C100.508 6.664 100.568 6.8 100.568 6.912L100.136 7.068V6.192C100.136 5.984 100.204 5.812 100.34 5.676C100.476 5.532 100.648 5.46 100.856 5.46ZM98.4323 10.8C98.7843 10.8 99.0923 10.712 99.3563 10.536C99.6203 10.36 99.8243 10.12 99.9683 9.816C100.12 9.512 100.196 9.172 100.196 8.796C100.196 8.412 100.12 8.068 99.9683 7.764C99.8243 7.46 99.6203 7.22 99.3563 7.044C99.0923 6.868 98.7843 6.78 98.4323 6.78C98.0883 6.78 97.7843 6.868 97.5203 7.044C97.2563 7.22 97.0483 7.46 96.8963 7.764C96.7523 8.068 96.6803 8.412 96.6803 8.796C96.6803 9.172 96.7523 9.512 96.8963 9.816C97.0483 10.12 97.2563 10.36 97.5203 10.536C97.7843 10.712 98.0883 10.8 98.4323 10.8ZM103.207 5.7H106.051C106.243 5.7 106.403 5.764 106.531 5.892C106.659 6.02 106.723 6.18 106.723 6.372C106.723 6.556 106.659 6.712 106.531 6.84C106.403 6.96 106.243 7.02 106.051 7.02H103.207C103.015 7.02 102.855 6.956 102.727 6.828C102.599 6.7 102.535 6.54 102.535 6.348C102.535 6.164 102.599 6.012 102.727 5.892C102.855 5.764 103.015 5.7 103.207 5.7ZM104.491 4.2C104.699 4.2 104.867 4.272 104.995 4.416C105.131 4.552 105.199 4.724 105.199 4.932V10.272C105.199 10.384 105.219 10.476 105.259 10.548C105.307 10.62 105.367 10.672 105.439 10.704C105.519 10.736 105.603 10.752 105.691 10.752C105.787 10.752 105.875 10.736 105.955 10.704C106.035 10.664 106.127 10.644 106.231 10.644C106.343 10.644 106.443 10.696 106.531 10.8C106.627 10.904 106.675 11.048 106.675 11.232C106.675 11.456 106.551 11.64 106.303 11.784C106.063 11.928 105.803 12 105.523 12C105.355 12 105.167 11.988 104.959 11.964C104.759 11.932 104.567 11.864 104.383 11.76C104.207 11.648 104.059 11.48 103.939 11.256C103.819 11.032 103.759 10.724 103.759 10.332V4.932C103.759 4.724 103.827 4.552 103.963 4.416C104.107 4.272 104.283 4.2 104.491 4.2ZM109.402 11.268C109.402 11.476 109.334 11.652 109.198 11.796C109.062 11.932 108.89 12 108.682 12C108.474 12 108.302 11.932 108.166 11.796C108.03 11.652 107.962 11.476 107.962 11.268V6.312C107.962 6.104 108.03 5.932 108.166 5.796C108.302 5.652 108.474 5.58 108.682 5.58C108.89 5.58 109.062 5.652 109.198 5.796C109.334 5.932 109.402 6.104 109.402 6.312V11.268ZM108.67 4.8C108.398 4.8 108.206 4.756 108.094 4.668C107.982 4.58 107.926 4.424 107.926 4.2V3.972C107.926 3.74 107.986 3.584 108.106 3.504C108.234 3.416 108.426 3.372 108.682 3.372C108.962 3.372 109.158 3.416 109.27 3.504C109.382 3.592 109.438 3.748 109.438 3.972V4.2C109.438 4.432 109.378 4.592 109.258 4.68C109.138 4.76 108.942 4.8 108.67 4.8ZM117.11 8.796C117.11 9.452 116.962 10.032 116.666 10.536C116.378 11.032 115.986 11.42 115.49 11.7C115.002 11.98 114.454 12.12 113.846 12.12C113.238 12.12 112.686 11.98 112.19 11.7C111.702 11.42 111.31 11.032 111.014 10.536C110.726 10.032 110.582 9.452 110.582 8.796C110.582 8.14 110.726 7.564 111.014 7.068C111.31 6.564 111.702 6.172 112.19 5.892C112.686 5.604 113.238 5.46 113.846 5.46C114.454 5.46 115.002 5.604 115.49 5.892C115.986 6.172 116.378 6.564 116.666 7.068C116.962 7.564 117.11 8.14 117.11 8.796ZM115.67 8.796C115.67 8.388 115.586 8.036 115.418 7.74C115.258 7.436 115.038 7.2 114.758 7.032C114.486 6.864 114.182 6.78 113.846 6.78C113.51 6.78 113.202 6.864 112.922 7.032C112.65 7.2 112.43 7.436 112.262 7.74C112.102 8.036 112.022 8.388 112.022 8.796C112.022 9.196 112.102 9.548 112.262 9.852C112.43 10.148 112.65 10.38 112.922 10.548C113.202 10.716 113.51 10.8 113.846 10.8C114.182 10.8 114.486 10.716 114.758 10.548C115.038 10.38 115.258 10.148 115.418 9.852C115.586 9.548 115.67 9.196 115.67 8.796ZM121.802 5.46C122.394 5.46 122.842 5.584 123.146 5.832C123.458 6.08 123.67 6.412 123.782 6.828C123.902 7.236 123.962 7.692 123.962 8.196V11.268C123.962 11.476 123.894 11.652 123.758 11.796C123.622 11.932 123.45 12 123.242 12C123.034 12 122.862 11.932 122.726 11.796C122.59 11.652 122.522 11.476 122.522 11.268V8.196C122.522 7.932 122.486 7.696 122.414 7.488C122.35 7.272 122.23 7.1 122.054 6.972C121.878 6.844 121.626 6.78 121.298 6.78C120.978 6.78 120.706 6.844 120.482 6.972C120.266 7.1 120.098 7.272 119.978 7.488C119.866 7.696 119.81 7.932 119.81 8.196V11.268C119.81 11.476 119.742 11.652 119.606 11.796C119.47 11.932 119.298 12 119.09 12C118.882 12 118.71 11.932 118.574 11.796C118.438 11.652 118.37 11.476 118.37 11.268V6.312C118.37 6.104 118.438 5.932 118.574 5.796C118.71 5.652 118.882 5.58 119.09 5.58C119.298 5.58 119.47 5.652 119.606 5.796C119.742 5.932 119.81 6.104 119.81 6.312V6.828L119.63 6.792C119.702 6.656 119.806 6.512 119.942 6.36C120.078 6.2 120.238 6.052 120.422 5.916C120.606 5.78 120.814 5.672 121.046 5.592C121.278 5.504 121.53 5.46 121.802 5.46Z" fill="#5B588F"/>
</svg>
