<svg width="263" height="338" viewBox="0 0 263 338" fill="none" xmlns="http://www.w3.org/2000/svg">
<path d="M4 279H260V322C260 330.837 252.837 338 244 338H20C11.1634 338 4 330.837 4 322V279Z" fill="white"/>
<g opacity="0.8">
<path d="M104.932 17C104.671 17 104.456 16.9207 104.288 16.762C104.129 16.594 104.05 16.3887 104.05 16.146V8.054C104.05 7.81133 104.129 7.61067 104.288 7.452C104.456 7.284 104.661 7.2 104.904 7.2H109.454C109.697 7.2 109.897 7.27933 110.056 7.438C110.224 7.58733 110.308 7.78333 110.308 8.026C110.308 8.23133 110.224 8.41333 110.056 8.572C109.897 8.73067 109.697 8.81 109.454 8.81H105.674L105.8 8.642V11.456L105.702 11.274H108.824C109.067 11.274 109.267 11.3533 109.426 11.512C109.594 11.6613 109.678 11.8573 109.678 12.1C109.678 12.3053 109.594 12.4873 109.426 12.646C109.267 12.8047 109.067 12.884 108.824 12.884H105.674L105.8 12.758V16.146C105.8 16.3887 105.711 16.594 105.534 16.762C105.366 16.9207 105.165 17 104.932 17ZM113.353 16.146C113.353 16.3887 113.274 16.594 113.115 16.762C112.957 16.9207 112.756 17 112.513 17C112.271 17 112.07 16.9207 111.911 16.762C111.753 16.594 111.673 16.3887 111.673 16.146V10.364C111.673 10.1213 111.753 9.92067 111.911 9.762C112.07 9.594 112.271 9.51 112.513 9.51C112.756 9.51 112.957 9.594 113.115 9.762C113.274 9.92067 113.353 10.1213 113.353 10.364V16.146ZM112.499 8.6C112.182 8.6 111.958 8.54867 111.827 8.446C111.697 8.34333 111.631 8.16133 111.631 7.9V7.634C111.631 7.36333 111.701 7.18133 111.841 7.088C111.991 6.98533 112.215 6.934 112.513 6.934C112.84 6.934 113.069 6.98533 113.199 7.088C113.33 7.19067 113.395 7.37267 113.395 7.634V7.9C113.395 8.17067 113.325 8.35733 113.185 8.46C113.045 8.55333 112.817 8.6 112.499 8.6ZM116.9 16.146C116.9 16.3887 116.816 16.594 116.648 16.762C116.489 16.9207 116.289 17 116.046 17C115.813 17 115.617 16.9207 115.458 16.762C115.299 16.594 115.22 16.3887 115.22 16.146V7.494C115.22 7.25133 115.299 7.05067 115.458 6.892C115.626 6.724 115.831 6.64 116.074 6.64C116.317 6.64 116.513 6.724 116.662 6.892C116.821 7.05067 116.9 7.25133 116.9 7.494V16.146ZM122.245 17.14C121.451 17.14 120.761 16.9767 120.173 16.65C119.594 16.314 119.146 15.8613 118.829 15.292C118.521 14.7227 118.367 14.0787 118.367 13.36C118.367 12.52 118.535 11.806 118.871 11.218C119.216 10.6207 119.664 10.1633 120.215 9.846C120.765 9.52867 121.349 9.37 121.965 9.37C122.441 9.37 122.889 9.468 123.309 9.664C123.738 9.86 124.116 10.1307 124.443 10.476C124.769 10.812 125.026 11.204 125.213 11.652C125.409 12.1 125.507 12.576 125.507 13.08C125.497 13.304 125.409 13.486 125.241 13.626C125.073 13.766 124.877 13.836 124.653 13.836H119.305L118.885 12.436H124.023L123.715 12.716V12.338C123.696 12.0673 123.598 11.8247 123.421 11.61C123.253 11.3953 123.038 11.2273 122.777 11.106C122.525 10.9753 122.254 10.91 121.965 10.91C121.685 10.91 121.423 10.9473 121.181 11.022C120.938 11.0967 120.728 11.2227 120.551 11.4C120.373 11.5773 120.233 11.8153 120.131 12.114C120.028 12.4127 119.977 12.7907 119.977 13.248C119.977 13.752 120.079 14.1813 120.285 14.536C120.499 14.8813 120.77 15.1473 121.097 15.334C121.433 15.5113 121.787 15.6 122.161 15.6C122.506 15.6 122.781 15.572 122.987 15.516C123.192 15.46 123.355 15.3947 123.477 15.32C123.607 15.236 123.724 15.166 123.827 15.11C123.995 15.026 124.153 14.984 124.303 14.984C124.508 14.984 124.676 15.054 124.807 15.194C124.947 15.334 125.017 15.4973 125.017 15.684C125.017 15.936 124.886 16.1647 124.625 16.37C124.382 16.5753 124.041 16.7573 123.603 16.916C123.164 17.0653 122.711 17.14 122.245 17.14ZM126.54 15.838C126.447 15.7073 126.405 15.5393 126.414 15.334C126.424 15.1287 126.545 14.9513 126.778 14.802C126.928 14.7087 127.086 14.6713 127.254 14.69C127.422 14.6993 127.586 14.7833 127.744 14.942C128.015 15.2127 128.3 15.4227 128.598 15.572C128.897 15.7213 129.27 15.796 129.718 15.796C129.858 15.7867 130.012 15.768 130.18 15.74C130.348 15.7027 130.493 15.628 130.614 15.516C130.745 15.3947 130.81 15.2127 130.81 14.97C130.81 14.7647 130.74 14.6013 130.6 14.48C130.46 14.3587 130.274 14.256 130.04 14.172C129.816 14.088 129.564 14.0087 129.284 13.934C128.995 13.85 128.696 13.7567 128.388 13.654C128.09 13.5513 127.814 13.4207 127.562 13.262C127.31 13.094 127.105 12.8747 126.946 12.604C126.788 12.3333 126.708 11.9927 126.708 11.582C126.708 11.1153 126.839 10.7187 127.1 10.392C127.362 10.0653 127.698 9.81333 128.108 9.636C128.528 9.45867 128.967 9.37 129.424 9.37C129.714 9.37 130.017 9.40733 130.334 9.482C130.652 9.54733 130.955 9.65933 131.244 9.818C131.534 9.96733 131.776 10.168 131.972 10.42C132.075 10.56 132.136 10.728 132.154 10.924C132.173 11.12 132.084 11.2973 131.888 11.456C131.748 11.568 131.585 11.6193 131.398 11.61C131.212 11.5913 131.058 11.526 130.936 11.414C130.778 11.2087 130.563 11.0453 130.292 10.924C130.031 10.8027 129.728 10.742 129.382 10.742C129.242 10.742 129.088 10.7607 128.92 10.798C128.762 10.826 128.622 10.896 128.5 11.008C128.379 11.1107 128.318 11.2787 128.318 11.512C128.318 11.7267 128.388 11.8993 128.528 12.03C128.668 12.1513 128.855 12.254 129.088 12.338C129.331 12.4127 129.588 12.4873 129.858 12.562C130.138 12.6367 130.423 12.7253 130.712 12.828C131.002 12.9307 131.268 13.066 131.51 13.234C131.753 13.402 131.949 13.6213 132.098 13.892C132.248 14.1533 132.322 14.4893 132.322 14.9C132.322 15.376 132.182 15.782 131.902 16.118C131.622 16.454 131.272 16.7107 130.852 16.888C130.432 17.056 130.003 17.14 129.564 17.14C129.014 17.14 128.463 17.0467 127.912 16.86C127.362 16.664 126.904 16.3233 126.54 15.838ZM140.942 17.14C140.289 17.14 139.701 17.0607 139.178 16.902C138.656 16.734 138.156 16.4447 137.68 16.034C137.559 15.9313 137.466 15.8147 137.4 15.684C137.335 15.5533 137.302 15.4227 137.302 15.292C137.302 15.0773 137.377 14.8907 137.526 14.732C137.685 14.564 137.881 14.48 138.114 14.48C138.292 14.48 138.45 14.536 138.59 14.648C138.945 14.9373 139.295 15.1567 139.64 15.306C139.995 15.4553 140.429 15.53 140.942 15.53C141.288 15.53 141.605 15.4787 141.894 15.376C142.184 15.264 142.417 15.1193 142.594 14.942C142.772 14.7553 142.86 14.5453 142.86 14.312C142.86 14.032 142.776 13.794 142.608 13.598C142.44 13.402 142.184 13.2387 141.838 13.108C141.493 12.968 141.054 12.8607 140.522 12.786C140.018 12.7113 139.575 12.5993 139.192 12.45C138.81 12.2913 138.488 12.0953 138.226 11.862C137.974 11.6193 137.783 11.3393 137.652 11.022C137.522 10.6953 137.456 10.3313 137.456 9.93C137.456 9.32333 137.61 8.80533 137.918 8.376C138.236 7.94667 138.66 7.62 139.192 7.396C139.724 7.172 140.312 7.06 140.956 7.06C141.563 7.06 142.123 7.15333 142.636 7.34C143.159 7.51733 143.584 7.746 143.91 8.026C144.181 8.24067 144.316 8.488 144.316 8.768C144.316 8.97333 144.237 9.16 144.078 9.328C143.92 9.496 143.733 9.58 143.518 9.58C143.378 9.58 143.252 9.538 143.14 9.454C142.991 9.32333 142.79 9.202 142.538 9.09C142.286 8.96867 142.02 8.87067 141.74 8.796C141.46 8.712 141.199 8.67 140.956 8.67C140.555 8.67 140.214 8.72133 139.934 8.824C139.664 8.92667 139.458 9.06667 139.318 9.244C139.178 9.42133 139.108 9.62667 139.108 9.86C139.108 10.14 139.188 10.3733 139.346 10.56C139.514 10.7373 139.752 10.882 140.06 10.994C140.368 11.0967 140.737 11.19 141.166 11.274C141.726 11.3767 142.216 11.498 142.636 11.638C143.066 11.778 143.42 11.96 143.7 12.184C143.98 12.3987 144.19 12.674 144.33 13.01C144.47 13.3367 144.54 13.738 144.54 14.214C144.54 14.8207 144.372 15.3433 144.036 15.782C143.7 16.2207 143.257 16.5567 142.706 16.79C142.165 17.0233 141.577 17.14 140.942 17.14ZM149.338 9.37C149.87 9.37 150.332 9.426 150.724 9.538C151.125 9.65 151.433 9.80867 151.648 10.014C151.872 10.21 151.984 10.448 151.984 10.728C151.984 10.9147 151.928 11.092 151.816 11.26C151.704 11.4187 151.54 11.498 151.326 11.498C151.176 11.498 151.05 11.4793 150.948 11.442C150.854 11.3953 150.77 11.3393 150.696 11.274C150.621 11.2087 150.532 11.148 150.43 11.092C150.336 11.036 150.192 10.994 149.996 10.966C149.809 10.9287 149.669 10.91 149.576 10.91C149.1 10.91 148.694 11.0127 148.358 11.218C148.031 11.4233 147.779 11.7033 147.602 12.058C147.424 12.4033 147.336 12.8047 147.336 13.262C147.336 13.71 147.424 14.1113 147.602 14.466C147.788 14.8113 148.04 15.0867 148.358 15.292C148.684 15.4973 149.058 15.6 149.478 15.6C149.711 15.6 149.912 15.586 150.08 15.558C150.248 15.53 150.388 15.488 150.5 15.432C150.63 15.3573 150.747 15.278 150.85 15.194C150.952 15.11 151.106 15.068 151.312 15.068C151.554 15.068 151.741 15.1473 151.872 15.306C152.002 15.4553 152.068 15.642 152.068 15.866C152.068 16.0993 151.937 16.314 151.676 16.51C151.414 16.6967 151.069 16.8507 150.64 16.972C150.22 17.084 149.762 17.14 149.268 17.14C148.53 17.14 147.891 16.972 147.35 16.636C146.808 16.2907 146.388 15.824 146.09 15.236C145.8 14.648 145.656 13.99 145.656 13.262C145.656 12.4967 145.81 11.8247 146.118 11.246C146.435 10.658 146.869 10.2007 147.42 9.874C147.98 9.538 148.619 9.37 149.338 9.37ZM159.411 9.37C159.654 9.37 159.854 9.44933 160.013 9.608C160.172 9.76667 160.251 9.972 160.251 10.224V16.146C160.251 16.3887 160.172 16.594 160.013 16.762C159.854 16.9207 159.654 17 159.411 17C159.168 17 158.968 16.9207 158.809 16.762C158.65 16.594 158.571 16.3887 158.571 16.146V15.46L158.879 15.586C158.879 15.7073 158.814 15.8567 158.683 16.034C158.552 16.202 158.375 16.37 158.151 16.538C157.927 16.706 157.661 16.8507 157.353 16.972C157.054 17.084 156.728 17.14 156.373 17.14C155.729 17.14 155.146 16.9767 154.623 16.65C154.1 16.314 153.685 15.8567 153.377 15.278C153.078 14.69 152.929 14.018 152.929 13.262C152.929 12.4967 153.078 11.8247 153.377 11.246C153.685 10.658 154.096 10.2007 154.609 9.874C155.122 9.538 155.692 9.37 156.317 9.37C156.718 9.37 157.087 9.43067 157.423 9.552C157.759 9.67333 158.048 9.82733 158.291 10.014C158.543 10.2007 158.734 10.392 158.865 10.588C159.005 10.7747 159.075 10.9333 159.075 11.064L158.571 11.246V10.224C158.571 9.98133 158.65 9.78067 158.809 9.622C158.968 9.454 159.168 9.37 159.411 9.37ZM156.583 15.6C156.994 15.6 157.353 15.4973 157.661 15.292C157.969 15.0867 158.207 14.8067 158.375 14.452C158.552 14.0973 158.641 13.7007 158.641 13.262C158.641 12.814 158.552 12.4127 158.375 12.058C158.207 11.7033 157.969 11.4233 157.661 11.218C157.353 11.0127 156.994 10.91 156.583 10.91C156.182 10.91 155.827 11.0127 155.519 11.218C155.211 11.4233 154.968 11.7033 154.791 12.058C154.623 12.4127 154.539 12.814 154.539 13.262C154.539 13.7007 154.623 14.0973 154.791 14.452C154.968 14.8067 155.211 15.0867 155.519 15.292C155.827 15.4973 156.182 15.6 156.583 15.6ZM166.074 9.37C166.765 9.37 167.287 9.51467 167.642 9.804C168.006 10.0933 168.253 10.4807 168.384 10.966C168.524 11.442 168.594 11.974 168.594 12.562V16.146C168.594 16.3887 168.515 16.594 168.356 16.762C168.197 16.9207 167.997 17 167.754 17C167.511 17 167.311 16.9207 167.152 16.762C166.993 16.594 166.914 16.3887 166.914 16.146V12.562C166.914 12.254 166.872 11.9787 166.788 11.736C166.713 11.484 166.573 11.2833 166.368 11.134C166.163 10.9847 165.869 10.91 165.486 10.91C165.113 10.91 164.795 10.9847 164.534 11.134C164.282 11.2833 164.086 11.484 163.946 11.736C163.815 11.9787 163.75 12.254 163.75 12.562V16.146C163.75 16.3887 163.671 16.594 163.512 16.762C163.353 16.9207 163.153 17 162.91 17C162.667 17 162.467 16.9207 162.308 16.762C162.149 16.594 162.07 16.3887 162.07 16.146V10.364C162.07 10.1213 162.149 9.92067 162.308 9.762C162.467 9.594 162.667 9.51 162.91 9.51C163.153 9.51 163.353 9.594 163.512 9.762C163.671 9.92067 163.75 10.1213 163.75 10.364V10.966L163.54 10.924C163.624 10.7653 163.745 10.5973 163.904 10.42C164.063 10.2333 164.249 10.0607 164.464 9.902C164.679 9.74333 164.921 9.61733 165.192 9.524C165.463 9.42133 165.757 9.37 166.074 9.37ZM174.414 9.37C175.105 9.37 175.627 9.51467 175.982 9.804C176.346 10.0933 176.593 10.4807 176.724 10.966C176.864 11.442 176.934 11.974 176.934 12.562V16.146C176.934 16.3887 176.855 16.594 176.696 16.762C176.537 16.9207 176.337 17 176.094 17C175.851 17 175.651 16.9207 175.492 16.762C175.333 16.594 175.254 16.3887 175.254 16.146V12.562C175.254 12.254 175.212 11.9787 175.128 11.736C175.053 11.484 174.913 11.2833 174.708 11.134C174.503 10.9847 174.209 10.91 173.826 10.91C173.453 10.91 173.135 10.9847 172.874 11.134C172.622 11.2833 172.426 11.484 172.286 11.736C172.155 11.9787 172.09 12.254 172.09 12.562V16.146C172.09 16.3887 172.011 16.594 171.852 16.762C171.693 16.9207 171.493 17 171.25 17C171.007 17 170.807 16.9207 170.648 16.762C170.489 16.594 170.41 16.3887 170.41 16.146V10.364C170.41 10.1213 170.489 9.92067 170.648 9.762C170.807 9.594 171.007 9.51 171.25 9.51C171.493 9.51 171.693 9.594 171.852 9.762C172.011 9.92067 172.09 10.1213 172.09 10.364V10.966L171.88 10.924C171.964 10.7653 172.085 10.5973 172.244 10.42C172.403 10.2333 172.589 10.0607 172.804 9.902C173.019 9.74333 173.261 9.61733 173.532 9.524C173.803 9.42133 174.097 9.37 174.414 9.37ZM182.278 17.14C181.485 17.14 180.794 16.9767 180.206 16.65C179.627 16.314 179.179 15.8613 178.862 15.292C178.554 14.7227 178.4 14.0787 178.4 13.36C178.4 12.52 178.568 11.806 178.904 11.218C179.249 10.6207 179.697 10.1633 180.248 9.846C180.799 9.52867 181.382 9.37 181.998 9.37C182.474 9.37 182.922 9.468 183.342 9.664C183.771 9.86 184.149 10.1307 184.476 10.476C184.803 10.812 185.059 11.204 185.246 11.652C185.442 12.1 185.54 12.576 185.54 13.08C185.531 13.304 185.442 13.486 185.274 13.626C185.106 13.766 184.91 13.836 184.686 13.836H179.338L178.918 12.436H184.056L183.748 12.716V12.338C183.729 12.0673 183.631 11.8247 183.454 11.61C183.286 11.3953 183.071 11.2273 182.81 11.106C182.558 10.9753 182.287 10.91 181.998 10.91C181.718 10.91 181.457 10.9473 181.214 11.022C180.971 11.0967 180.761 11.2227 180.584 11.4C180.407 11.5773 180.267 11.8153 180.164 12.114C180.061 12.4127 180.01 12.7907 180.01 13.248C180.01 13.752 180.113 14.1813 180.318 14.536C180.533 14.8813 180.803 15.1473 181.13 15.334C181.466 15.5113 181.821 15.6 182.194 15.6C182.539 15.6 182.815 15.572 183.02 15.516C183.225 15.46 183.389 15.3947 183.51 15.32C183.641 15.236 183.757 15.166 183.86 15.11C184.028 15.026 184.187 14.984 184.336 14.984C184.541 14.984 184.709 15.054 184.84 15.194C184.98 15.334 185.05 15.4973 185.05 15.684C185.05 15.936 184.919 16.1647 184.658 16.37C184.415 16.5753 184.075 16.7573 183.636 16.916C183.197 17.0653 182.745 17.14 182.278 17.14ZM193.14 6.64C193.382 6.64 193.583 6.71933 193.742 6.878C193.9 7.03667 193.98 7.242 193.98 7.494V16.146C193.98 16.3887 193.9 16.594 193.742 16.762C193.583 16.9207 193.382 17 193.14 17C192.897 17 192.696 16.9207 192.538 16.762C192.379 16.594 192.3 16.3887 192.3 16.146V15.46L192.608 15.586C192.608 15.7073 192.542 15.8567 192.412 16.034C192.281 16.202 192.104 16.37 191.88 16.538C191.656 16.706 191.39 16.8507 191.082 16.972C190.783 17.084 190.456 17.14 190.102 17.14C189.458 17.14 188.874 16.9767 188.352 16.65C187.829 16.314 187.414 15.8567 187.106 15.278C186.807 14.69 186.658 14.018 186.658 13.262C186.658 12.4967 186.807 11.8247 187.106 11.246C187.414 10.658 187.824 10.2007 188.338 9.874C188.851 9.538 189.42 9.37 190.046 9.37C190.447 9.37 190.816 9.43067 191.152 9.552C191.488 9.67333 191.777 9.82733 192.02 10.014C192.272 10.2007 192.463 10.392 192.594 10.588C192.734 10.7747 192.804 10.9333 192.804 11.064L192.3 11.246V7.494C192.3 7.25133 192.379 7.05067 192.538 6.892C192.696 6.724 192.897 6.64 193.14 6.64ZM190.312 15.6C190.722 15.6 191.082 15.4973 191.39 15.292C191.698 15.0867 191.936 14.8067 192.104 14.452C192.281 14.0973 192.37 13.7007 192.37 13.262C192.37 12.814 192.281 12.4127 192.104 12.058C191.936 11.7033 191.698 11.4233 191.39 11.218C191.082 11.0127 190.722 10.91 190.312 10.91C189.91 10.91 189.556 11.0127 189.248 11.218C188.94 11.4233 188.697 11.7033 188.52 12.058C188.352 12.4127 188.268 12.814 188.268 13.262C188.268 13.7007 188.352 14.0973 188.52 14.452C188.697 14.8067 188.94 15.0867 189.248 15.292C189.556 15.4973 189.91 15.6 190.312 15.6Z" fill="#19191F"/>
<path d="M83 20H76C75.7348 20 75.4804 19.8946 75.2929 19.7071C75.1054 19.5196 75 19.2652 75 19V5C75 4.73478 75.1054 4.48043 75.2929 4.29289C75.4804 4.10536 75.7348 4 76 4H81V7C81 7.79565 81.3161 8.55871 81.8787 9.12132C82.4413 9.68393 83.2044 10 84 10H87V11C87 11.2652 87.1054 11.5196 87.2929 11.7071C87.4804 11.8946 87.7348 12 88 12C88.2652 12 88.5196 11.8946 88.7071 11.7071C88.8946 11.5196 89 11.2652 89 11V9C89 9 89 9 89 8.94C88.9896 8.84813 88.9695 8.75763 88.94 8.67V8.58C88.8919 8.47718 88.8278 8.38267 88.75 8.3L82.75 2.3C82.6673 2.22222 82.5728 2.15808 82.47 2.11C82.4402 2.10576 82.4099 2.10576 82.38 2.11C82.2784 2.05174 82.1662 2.01434 82.05 2H76C75.2044 2 74.4413 2.31607 73.8787 2.87868C73.3161 3.44129 73 4.20435 73 5V19C73 19.7956 73.3161 20.5587 73.8787 21.1213C74.4413 21.6839 75.2044 22 76 22H83C83.2652 22 83.5196 21.8946 83.7071 21.7071C83.8946 21.5196 84 21.2652 84 21C84 20.7348 83.8946 20.4804 83.7071 20.2929C83.5196 20.1054 83.2652 20 83 20ZM83 5.41L85.59 8H84C83.7348 8 83.4804 7.89464 83.2929 7.70711C83.1054 7.51957 83 7.26522 83 7V5.41ZM78 8C77.7348 8 77.4804 8.10536 77.2929 8.29289C77.1054 8.48043 77 8.73478 77 9C77 9.26522 77.1054 9.51957 77.2929 9.70711C77.4804 9.89464 77.7348 10 78 10H79C79.2652 10 79.5196 9.89464 79.7071 9.70711C79.8946 9.51957 80 9.26522 80 9C80 8.73478 79.8946 8.48043 79.7071 8.29289C79.5196 8.10536 79.2652 8 79 8H78ZM92.71 20.29L91.54 19.13C91.914 18.4773 92.0636 17.7199 91.9661 16.974C91.8686 16.2281 91.5292 15.5347 91 15C90.513 14.4957 89.8854 14.1497 89.199 14.0071C88.5126 13.8646 87.7992 13.9321 87.1517 14.2008C86.5041 14.4695 85.9526 14.927 85.5688 15.5137C85.185 16.1004 84.9868 16.7891 85 17.49C84.9966 18.0932 85.1509 18.6868 85.4476 19.2119C85.7444 19.7371 86.1733 20.1755 86.6917 20.4838C87.2102 20.7921 87.8003 20.9594 88.4034 20.9693C89.0065 20.9791 89.6017 20.8311 90.13 20.54L91.29 21.71C91.383 21.8037 91.4936 21.8781 91.6154 21.9289C91.7373 21.9797 91.868 22.0058 92 22.0058C92.132 22.0058 92.2627 21.9797 92.3846 21.9289C92.5064 21.8781 92.617 21.8037 92.71 21.71C92.8037 21.617 92.8781 21.5064 92.9289 21.3846C92.9797 21.2627 93.0058 21.132 93.0058 21C93.0058 20.868 92.9797 20.7373 92.9289 20.6154C92.8781 20.4936 92.8037 20.383 92.71 20.29ZM89.54 18.54C89.2544 18.8086 88.8771 18.9581 88.485 18.9581C88.0929 18.9581 87.7156 18.8086 87.43 18.54C87.1547 18.2598 87.0003 17.8828 87 17.49C86.9979 17.2928 87.0359 17.0971 87.1115 16.915C87.1871 16.7328 87.2989 16.5678 87.44 16.43C87.7066 16.1648 88.0641 16.0111 88.44 16C88.6422 15.9876 88.8447 16.0171 89.035 16.0866C89.2252 16.1562 89.399 16.2643 89.5455 16.4042C89.692 16.5441 89.808 16.7128 89.8862 16.8996C89.9644 17.0865 90.0031 17.2875 90 17.49C89.9917 17.8871 89.8263 18.2647 89.54 18.54ZM84 12H78C77.7348 12 77.4804 12.1054 77.2929 12.2929C77.1054 12.4804 77 12.7348 77 13C77 13.2652 77.1054 13.5196 77.2929 13.7071C77.4804 13.8946 77.7348 14 78 14H84C84.2652 14 84.5196 13.8946 84.7071 13.7071C84.8946 13.5196 85 13.2652 85 13C85 12.7348 84.8946 12.4804 84.7071 12.2929C84.5196 12.1054 84.2652 12 84 12ZM82 18C82.2652 18 82.5196 17.8946 82.7071 17.7071C82.8946 17.5196 83 17.2652 83 17C83 16.7348 82.8946 16.4804 82.7071 16.2929C82.5196 16.1054 82.2652 16 82 16H78C77.7348 16 77.4804 16.1054 77.2929 16.2929C77.1054 16.4804 77 16.7348 77 17C77 17.2652 77.1054 17.5196 77.2929 17.7071C77.4804 17.8946 77.7348 18 78 18H82Z" fill="#69CA94"/>
</g>
<g filter="url(#filter0_d_337_1530)">
<circle cx="131.5" cy="143.5" r="97.5" fill="white"/>
<circle cx="131.5" cy="143.5" r="97" stroke="white"/>
</g>
<g filter="url(#filter1_d_337_1530)">
<path fill-rule="evenodd" clip-rule="evenodd" d="M130.894 238.578C183.07 238.578 225.367 196.073 225.367 143.642C225.367 112.441 210.389 84.7566 187.266 67.4513C179.005 61.2684 168.295 59.735 159.257 64.713C151.121 69.1937 142.819 73.7657 130.894 67.8116C125.288 65.0124 122.9 66.3793 120.058 68.006C116.535 70.0226 112.315 72.4385 100.4 67.8116C98.3945 67.0327 96.024 66.4639 93.4624 66.0826C82.5022 64.4514 71.5383 68.9531 63.7611 76.8462C46.8599 93.9992 36.4224 117.595 36.4224 143.642C36.4224 196.073 78.719 238.578 130.894 238.578Z" fill="url(#paint0_linear_337_1530)"/>
</g>
<g style="mix-blend-mode:screen" opacity="0.6" filter="url(#filter2_d_337_1530)">
<path fill-rule="evenodd" clip-rule="evenodd" d="M130.894 238.578C183.07 238.578 225.366 196.074 225.366 143.642C225.366 116.04 213.645 91.1892 194.931 73.8424C193.045 74.0332 191.203 74.4072 189.491 74.977C180.522 77.9624 173.945 75.5741 165.574 71.9915C157.203 68.4089 142.853 71.9915 132.09 80.3507C121.328 88.71 99.8023 88.1128 91.4314 77.3653C85.2512 69.4305 74.8614 70.0388 69.379 71.5878C49.2027 88.9989 36.4224 114.821 36.4224 143.642C36.4224 196.074 78.7189 238.578 130.894 238.578Z" fill="url(#paint1_linear_337_1530)"/>
</g>
<g style="mix-blend-mode:soft-light" opacity="0.2" filter="url(#filter3_d_337_1530)">
<ellipse cx="130.894" cy="143.5" rx="94.4721" ry="95.0776" fill="url(#paint2_linear_337_1530)"/>
<path d="M224.867 143.5C224.867 195.737 182.791 238.078 130.894 238.078C78.9981 238.078 36.9224 195.737 36.9224 143.5C36.9224 91.2632 78.9981 48.9224 130.894 48.9224C182.791 48.9224 224.867 91.2632 224.867 143.5Z" stroke="white"/>
</g>
<path d="M21.34 302C21.18 302 21.05 301.953 20.95 301.86C20.8567 301.76 20.81 301.637 20.81 301.49V295.51C20.81 295.363 20.86 295.243 20.96 295.15C21.06 295.05 21.18 295 21.32 295H24.7C24.8467 295 24.9667 295.047 25.06 295.14C25.16 295.233 25.21 295.35 25.21 295.49C25.21 295.617 25.16 295.727 25.06 295.82C24.9667 295.913 24.8467 295.96 24.7 295.96H21.78L21.85 295.86V298.09L21.79 297.97H24.25C24.3967 297.97 24.5167 298.017 24.61 298.11C24.71 298.203 24.76 298.32 24.76 298.46C24.76 298.587 24.71 298.697 24.61 298.79C24.5167 298.883 24.3967 298.93 24.25 298.93H21.77L21.85 298.85V301.49C21.85 301.637 21.8 301.76 21.7 301.86C21.6 301.953 21.48 302 21.34 302ZM27.2748 301.49C27.2748 301.637 27.2281 301.76 27.1348 301.86C27.0414 301.953 26.9214 302 26.7748 302C26.6348 302 26.5148 301.953 26.4148 301.86C26.3214 301.76 26.2748 301.637 26.2748 301.49V297.21C26.2748 297.063 26.3214 296.943 26.4148 296.85C26.5148 296.75 26.6348 296.7 26.7748 296.7C26.9214 296.7 27.0414 296.75 27.1348 296.85C27.2281 296.943 27.2748 297.063 27.2748 297.21V301.49ZM26.7648 296.04C26.5714 296.04 26.4314 296.007 26.3448 295.94C26.2581 295.867 26.2148 295.747 26.2148 295.58V295.42C26.2148 295.253 26.2614 295.137 26.3548 295.07C26.4481 295.003 26.5881 294.97 26.7748 294.97C26.9748 294.97 27.1181 295.007 27.2048 295.08C27.2914 295.147 27.3348 295.26 27.3348 295.42V295.58C27.3348 295.753 27.2881 295.873 27.1948 295.94C27.1081 296.007 26.9648 296.04 26.7648 296.04ZM29.6999 301.49C29.6999 301.637 29.6499 301.76 29.5499 301.86C29.4566 301.953 29.3399 302 29.1999 302C29.0599 302 28.9399 301.953 28.8399 301.86C28.7466 301.76 28.6999 301.637 28.6999 301.49V295.11C28.6999 294.963 28.7499 294.843 28.8499 294.75C28.9499 294.65 29.0699 294.6 29.2099 294.6C29.3566 294.6 29.4733 294.65 29.5599 294.75C29.6533 294.843 29.6999 294.963 29.6999 295.11V301.49ZM33.5406 302.1C32.9873 302.1 32.5073 301.987 32.1006 301.76C31.694 301.527 31.3773 301.21 31.1506 300.81C30.9306 300.403 30.8206 299.94 30.8206 299.42C30.8206 298.833 30.9373 298.333 31.1706 297.92C31.4106 297.5 31.7206 297.18 32.1006 296.96C32.4806 296.733 32.884 296.62 33.3106 296.62C33.6373 296.62 33.9473 296.687 34.2406 296.82C34.534 296.947 34.794 297.127 35.0206 297.36C35.254 297.587 35.4373 297.857 35.5706 298.17C35.704 298.477 35.774 298.813 35.7806 299.18C35.774 299.313 35.7206 299.423 35.6206 299.51C35.5206 299.597 35.404 299.64 35.2706 299.64H31.3806L31.1406 298.79H34.9006L34.7106 298.97V298.72C34.6973 298.487 34.6206 298.283 34.4806 298.11C34.3406 297.93 34.1673 297.793 33.9606 297.7C33.754 297.6 33.5373 297.55 33.3106 297.55C33.1106 297.55 32.9173 297.583 32.7306 297.65C32.5506 297.71 32.3873 297.81 32.2406 297.95C32.1006 298.09 31.9873 298.277 31.9006 298.51C31.8206 298.737 31.7806 299.02 31.7806 299.36C31.7806 299.727 31.8573 300.047 32.0106 300.32C32.164 300.593 32.3706 300.807 32.6306 300.96C32.8906 301.107 33.1773 301.18 33.4906 301.18C33.7373 301.18 33.9406 301.157 34.1006 301.11C34.2606 301.057 34.394 300.993 34.5006 300.92C34.6073 300.847 34.7006 300.777 34.7806 300.71C34.8806 300.65 34.9806 300.62 35.0806 300.62C35.2006 300.62 35.3006 300.663 35.3806 300.75C35.4606 300.83 35.5006 300.927 35.5006 301.04C35.5006 301.187 35.4273 301.32 35.2806 301.44C35.1006 301.613 34.8506 301.767 34.5306 301.9C34.2173 302.033 33.8873 302.1 33.5406 302.1ZM45.0541 295C45.1875 295 45.2941 295.047 45.3741 295.14C45.4608 295.227 45.5041 295.337 45.5041 295.47V301.49C45.5041 301.637 45.4541 301.76 45.3541 301.86C45.2608 301.953 45.1408 302 44.9941 302C44.9275 302 44.8541 301.987 44.7741 301.96C44.7008 301.933 44.6441 301.897 44.6041 301.85L40.4941 296.52L40.7241 296.39V301.54C40.7241 301.667 40.6808 301.777 40.5941 301.87C40.5075 301.957 40.3975 302 40.2641 302C40.1241 302 40.0108 301.957 39.9241 301.87C39.8441 301.777 39.8041 301.667 39.8041 301.54V295.51C39.8041 295.357 39.8541 295.233 39.9541 295.14C40.0541 295.047 40.1741 295 40.3141 295C40.3875 295 40.4641 295.017 40.5441 295.05C40.6308 295.077 40.6941 295.12 40.7341 295.18L44.7441 300.4L44.5941 300.54V295.47C44.5941 295.337 44.6375 295.227 44.7241 295.14C44.8108 295.047 44.9208 295 45.0541 295ZM51.3381 296.66C51.4848 296.66 51.6048 296.71 51.6981 296.81C51.7915 296.903 51.8381 297.023 51.8381 297.17V301.49C51.8381 301.637 51.7915 301.76 51.6981 301.86C51.6048 301.953 51.4848 302 51.3381 302C51.1981 302 51.0781 301.953 50.9781 301.86C50.8848 301.76 50.8381 301.637 50.8381 301.49V300.77L51.0481 300.8C51.0481 300.92 50.9981 301.053 50.8981 301.2C50.8048 301.347 50.6748 301.49 50.5081 301.63C50.3415 301.763 50.1448 301.877 49.9181 301.97C49.6915 302.057 49.4481 302.1 49.1881 302.1C48.7281 302.1 48.3148 301.983 47.9481 301.75C47.5815 301.51 47.2915 301.183 47.0781 300.77C46.8648 300.357 46.7581 299.887 46.7581 299.36C46.7581 298.82 46.8648 298.347 47.0781 297.94C47.2915 297.527 47.5781 297.203 47.9381 296.97C48.3048 296.737 48.7115 296.62 49.1581 296.62C49.4448 296.62 49.7081 296.667 49.9481 296.76C50.1948 296.853 50.4081 296.973 50.5881 297.12C50.7681 297.267 50.9048 297.423 50.9981 297.59C51.0981 297.75 51.1481 297.903 51.1481 298.05L50.8381 298.08V297.17C50.8381 297.03 50.8848 296.91 50.9781 296.81C51.0781 296.71 51.1981 296.66 51.3381 296.66ZM49.2981 301.18C49.6115 301.18 49.8881 301.1 50.1281 300.94C50.3681 300.78 50.5548 300.563 50.6881 300.29C50.8215 300.01 50.8881 299.7 50.8881 299.36C50.8881 299.013 50.8215 298.703 50.6881 298.43C50.5548 298.157 50.3681 297.94 50.1281 297.78C49.8881 297.62 49.6115 297.54 49.2981 297.54C48.9915 297.54 48.7181 297.62 48.4781 297.78C48.2448 297.94 48.0581 298.157 47.9181 298.43C47.7848 298.703 47.7181 299.013 47.7181 299.36C47.7181 299.7 47.7848 300.01 47.9181 300.29C48.0581 300.563 48.2448 300.78 48.4781 300.94C48.7181 301.1 48.9915 301.18 49.2981 301.18ZM55.8791 296.65C56.3724 296.65 56.7524 296.773 57.0191 297.02C57.2857 297.26 57.4624 297.587 57.5491 298L57.3891 297.95L57.4591 297.79C57.5457 297.617 57.6757 297.443 57.8491 297.27C58.0291 297.09 58.2424 296.943 58.4891 296.83C58.7357 296.71 58.9991 296.65 59.2791 296.65C59.7391 296.65 60.0957 296.75 60.3491 296.95C60.6024 297.143 60.7791 297.407 60.8791 297.74C60.9791 298.067 61.0291 298.433 61.0291 298.84V301.49C61.0291 301.637 60.9824 301.76 60.8891 301.86C60.7957 301.953 60.6757 302 60.5291 302C60.3891 302 60.2691 301.953 60.1691 301.86C60.0757 301.76 60.0291 301.637 60.0291 301.49V298.85C60.0291 298.617 59.9957 298.403 59.9291 298.21C59.8691 298.017 59.7591 297.863 59.5991 297.75C59.4457 297.63 59.2324 297.57 58.9591 297.57C58.6991 297.57 58.4657 297.63 58.2591 297.75C58.0591 297.863 57.9024 298.017 57.7891 298.21C57.6757 298.403 57.6191 298.617 57.6191 298.85V301.49C57.6191 301.637 57.5724 301.76 57.4791 301.86C57.3857 301.953 57.2657 302 57.1191 302C56.9724 302 56.8524 301.953 56.7591 301.86C56.6657 301.76 56.6191 301.637 56.6191 301.49V298.84C56.6191 298.607 56.5857 298.393 56.5191 298.2C56.4591 298.007 56.3524 297.853 56.1991 297.74C56.0457 297.627 55.8324 297.57 55.5591 297.57C55.2991 297.57 55.0691 297.627 54.8691 297.74C54.6691 297.853 54.5124 298.007 54.3991 298.2C54.2924 298.393 54.2391 298.607 54.2391 298.84V301.49C54.2391 301.637 54.1891 301.76 54.0891 301.86C53.9957 301.953 53.8791 302 53.7391 302C53.5924 302 53.4724 301.953 53.3791 301.86C53.2857 301.76 53.2391 301.637 53.2391 301.49V297.25C53.2391 297.103 53.2857 296.983 53.3791 296.89C53.4724 296.79 53.5924 296.74 53.7391 296.74C53.8791 296.74 53.9957 296.79 54.0891 296.89C54.1891 296.983 54.2391 297.103 54.2391 297.25V297.84L54.0491 297.95C54.0957 297.803 54.1724 297.653 54.2791 297.5C54.3857 297.347 54.5191 297.207 54.6791 297.08C54.8457 296.953 55.0291 296.85 55.2291 296.77C55.4291 296.69 55.6457 296.65 55.8791 296.65ZM64.8785 302.1C64.3252 302.1 63.8452 301.987 63.4385 301.76C63.0318 301.527 62.7152 301.21 62.4885 300.81C62.2685 300.403 62.1585 299.94 62.1585 299.42C62.1585 298.833 62.2752 298.333 62.5085 297.92C62.7485 297.5 63.0585 297.18 63.4385 296.96C63.8185 296.733 64.2218 296.62 64.6485 296.62C64.9752 296.62 65.2852 296.687 65.5785 296.82C65.8718 296.947 66.1318 297.127 66.3585 297.36C66.5918 297.587 66.7752 297.857 66.9085 298.17C67.0418 298.477 67.1118 298.813 67.1185 299.18C67.1118 299.313 67.0585 299.423 66.9585 299.51C66.8585 299.597 66.7418 299.64 66.6085 299.64H62.7185L62.4785 298.79H66.2385L66.0485 298.97V298.72C66.0352 298.487 65.9585 298.283 65.8185 298.11C65.6785 297.93 65.5052 297.793 65.2985 297.7C65.0918 297.6 64.8752 297.55 64.6485 297.55C64.4485 297.55 64.2552 297.583 64.0685 297.65C63.8885 297.71 63.7252 297.81 63.5785 297.95C63.4385 298.09 63.3252 298.277 63.2385 298.51C63.1585 298.737 63.1185 299.02 63.1185 299.36C63.1185 299.727 63.1952 300.047 63.3485 300.32C63.5018 300.593 63.7085 300.807 63.9685 300.96C64.2285 301.107 64.5152 301.18 64.8285 301.18C65.0752 301.18 65.2785 301.157 65.4385 301.11C65.5985 301.057 65.7318 300.993 65.8385 300.92C65.9452 300.847 66.0385 300.777 66.1185 300.71C66.2185 300.65 66.3185 300.62 66.4185 300.62C66.5385 300.62 66.6385 300.663 66.7185 300.75C66.7985 300.83 66.8385 300.927 66.8385 301.04C66.8385 301.187 66.7652 301.32 66.6185 301.44C66.4385 301.613 66.1885 301.767 65.8685 301.9C65.5552 302.033 65.2252 302.1 64.8785 302.1Z" fill="#19191F"/>
<path d="M26.036 312.12C26.244 312.12 26.416 312.188 26.552 312.324C26.688 312.46 26.756 312.636 26.756 312.852V320.268C26.756 320.476 26.688 320.652 26.552 320.796C26.416 320.932 26.244 321 26.036 321C25.828 321 25.656 320.932 25.52 320.796C25.384 320.652 25.316 320.476 25.316 320.268V319.68L25.58 319.788C25.58 319.892 25.524 320.02 25.412 320.172C25.3 320.316 25.148 320.46 24.956 320.604C24.764 320.748 24.536 320.872 24.272 320.976C24.016 321.072 23.736 321.12 23.432 321.12C22.88 321.12 22.38 320.98 21.932 320.7C21.484 320.412 21.128 320.02 20.864 319.524C20.608 319.02 20.48 318.444 20.48 317.796C20.48 317.14 20.608 316.564 20.864 316.068C21.128 315.564 21.48 315.172 21.92 314.892C22.36 314.604 22.848 314.46 23.384 314.46C23.728 314.46 24.044 314.512 24.332 314.616C24.62 314.72 24.868 314.852 25.076 315.012C25.292 315.172 25.456 315.336 25.568 315.504C25.688 315.664 25.748 315.8 25.748 315.912L25.316 316.068V312.852C25.316 312.644 25.384 312.472 25.52 312.336C25.656 312.192 25.828 312.12 26.036 312.12ZM23.612 319.8C23.964 319.8 24.272 319.712 24.536 319.536C24.8 319.36 25.004 319.12 25.148 318.816C25.3 318.512 25.376 318.172 25.376 317.796C25.376 317.412 25.3 317.068 25.148 316.764C25.004 316.46 24.8 316.22 24.536 316.044C24.272 315.868 23.964 315.78 23.612 315.78C23.268 315.78 22.964 315.868 22.7 316.044C22.436 316.22 22.228 316.46 22.076 316.764C21.932 317.068 21.86 317.412 21.86 317.796C21.86 318.172 21.932 318.512 22.076 318.816C22.228 319.12 22.436 319.36 22.7 319.536C22.964 319.712 23.268 319.8 23.612 319.8ZM33.5712 314.46C33.7792 314.46 33.9512 314.528 34.0872 314.664C34.2232 314.8 34.2912 314.976 34.2912 315.192V320.268C34.2912 320.476 34.2232 320.652 34.0872 320.796C33.9512 320.932 33.7792 321 33.5712 321C33.3632 321 33.1912 320.932 33.0552 320.796C32.9192 320.652 32.8512 320.476 32.8512 320.268V319.68L33.1152 319.788C33.1152 319.892 33.0592 320.02 32.9472 320.172C32.8352 320.316 32.6832 320.46 32.4912 320.604C32.2992 320.748 32.0712 320.872 31.8072 320.976C31.5512 321.072 31.2712 321.12 30.9672 321.12C30.4152 321.12 29.9152 320.98 29.4672 320.7C29.0192 320.412 28.6632 320.02 28.3992 319.524C28.1432 319.02 28.0152 318.444 28.0152 317.796C28.0152 317.14 28.1432 316.564 28.3992 316.068C28.6632 315.564 29.0152 315.172 29.4552 314.892C29.8952 314.604 30.3832 314.46 30.9192 314.46C31.2632 314.46 31.5792 314.512 31.8672 314.616C32.1552 314.72 32.4032 314.852 32.6112 315.012C32.8272 315.172 32.9912 315.336 33.1032 315.504C33.2232 315.664 33.2832 315.8 33.2832 315.912L32.8512 316.068V315.192C32.8512 314.984 32.9192 314.812 33.0552 314.676C33.1912 314.532 33.3632 314.46 33.5712 314.46ZM31.1472 319.8C31.4992 319.8 31.8072 319.712 32.0712 319.536C32.3352 319.36 32.5392 319.12 32.6832 318.816C32.8352 318.512 32.9112 318.172 32.9112 317.796C32.9112 317.412 32.8352 317.068 32.6832 316.764C32.5392 316.46 32.3352 316.22 32.0712 316.044C31.8072 315.868 31.4992 315.78 31.1472 315.78C30.8032 315.78 30.4992 315.868 30.2352 316.044C29.9712 316.22 29.7632 316.46 29.6112 316.764C29.4672 317.068 29.3952 317.412 29.3952 317.796C29.3952 318.172 29.4672 318.512 29.6112 318.816C29.7632 319.12 29.9712 319.36 30.2352 319.536C30.4992 319.712 30.8032 319.8 31.1472 319.8ZM35.9223 314.7H38.7663C38.9583 314.7 39.1183 314.764 39.2463 314.892C39.3743 315.02 39.4383 315.18 39.4383 315.372C39.4383 315.556 39.3743 315.712 39.2463 315.84C39.1183 315.96 38.9583 316.02 38.7663 316.02H35.9223C35.7303 316.02 35.5703 315.956 35.4423 315.828C35.3143 315.7 35.2503 315.54 35.2503 315.348C35.2503 315.164 35.3143 315.012 35.4423 314.892C35.5703 314.764 35.7303 314.7 35.9223 314.7ZM37.2063 313.2C37.4143 313.2 37.5823 313.272 37.7103 313.416C37.8463 313.552 37.9143 313.724 37.9143 313.932V319.272C37.9143 319.384 37.9343 319.476 37.9743 319.548C38.0223 319.62 38.0823 319.672 38.1543 319.704C38.2343 319.736 38.3183 319.752 38.4063 319.752C38.5023 319.752 38.5903 319.736 38.6703 319.704C38.7503 319.664 38.8423 319.644 38.9463 319.644C39.0583 319.644 39.1583 319.696 39.2463 319.8C39.3423 319.904 39.3903 320.048 39.3903 320.232C39.3903 320.456 39.2663 320.64 39.0183 320.784C38.7783 320.928 38.5183 321 38.2383 321C38.0703 321 37.8823 320.988 37.6743 320.964C37.4743 320.932 37.2823 320.864 37.0983 320.76C36.9223 320.648 36.7743 320.48 36.6543 320.256C36.5343 320.032 36.4743 319.724 36.4743 319.332V313.932C36.4743 313.724 36.5423 313.552 36.6783 313.416C36.8223 313.272 36.9983 313.2 37.2063 313.2ZM46.0165 314.46C46.2245 314.46 46.3965 314.528 46.5325 314.664C46.6685 314.8 46.7365 314.976 46.7365 315.192V320.268C46.7365 320.476 46.6685 320.652 46.5325 320.796C46.3965 320.932 46.2245 321 46.0165 321C45.8085 321 45.6365 320.932 45.5005 320.796C45.3645 320.652 45.2965 320.476 45.2965 320.268V319.68L45.5605 319.788C45.5605 319.892 45.5045 320.02 45.3925 320.172C45.2805 320.316 45.1285 320.46 44.9365 320.604C44.7445 320.748 44.5165 320.872 44.2525 320.976C43.9965 321.072 43.7165 321.12 43.4125 321.12C42.8605 321.12 42.3605 320.98 41.9125 320.7C41.4645 320.412 41.1085 320.02 40.8445 319.524C40.5885 319.02 40.4605 318.444 40.4605 317.796C40.4605 317.14 40.5885 316.564 40.8445 316.068C41.1085 315.564 41.4605 315.172 41.9005 314.892C42.3405 314.604 42.8285 314.46 43.3645 314.46C43.7085 314.46 44.0245 314.512 44.3125 314.616C44.6005 314.72 44.8485 314.852 45.0565 315.012C45.2725 315.172 45.4365 315.336 45.5485 315.504C45.6685 315.664 45.7285 315.8 45.7285 315.912L45.2965 316.068V315.192C45.2965 314.984 45.3645 314.812 45.5005 314.676C45.6365 314.532 45.8085 314.46 46.0165 314.46ZM43.5925 319.8C43.9445 319.8 44.2525 319.712 44.5165 319.536C44.7805 319.36 44.9845 319.12 45.1285 318.816C45.2805 318.512 45.3565 318.172 45.3565 317.796C45.3565 317.412 45.2805 317.068 45.1285 316.764C44.9845 316.46 44.7805 316.22 44.5165 316.044C44.2525 315.868 43.9445 315.78 43.5925 315.78C43.2485 315.78 42.9445 315.868 42.6805 316.044C42.4165 316.22 42.2085 316.46 42.0565 316.764C41.9125 317.068 41.8405 317.412 41.8405 317.796C41.8405 318.172 41.9125 318.512 42.0565 318.816C42.2085 319.12 42.4165 319.36 42.6805 319.536C42.9445 319.712 43.2485 319.8 43.5925 319.8ZM48.9316 320.988C48.6996 320.988 48.5196 320.928 48.3916 320.808C48.2716 320.68 48.2116 320.5 48.2116 320.268V320.064C48.2116 319.832 48.2716 319.656 48.3916 319.536C48.5196 319.408 48.6996 319.344 48.9316 319.344H49.0876C49.3196 319.344 49.4956 319.408 49.6156 319.536C49.7436 319.656 49.8076 319.832 49.8076 320.064V320.268C49.8076 320.5 49.7436 320.68 49.6156 320.808C49.4956 320.928 49.3196 320.988 49.0876 320.988H48.9316ZM51.3559 314.7H54.1999C54.3919 314.7 54.5519 314.764 54.6799 314.892C54.8079 315.02 54.8719 315.18 54.8719 315.372C54.8719 315.556 54.8079 315.712 54.6799 315.84C54.5519 315.96 54.3919 316.02 54.1999 316.02H51.3559C51.1639 316.02 51.0039 315.956 50.8759 315.828C50.7479 315.7 50.6839 315.54 50.6839 315.348C50.6839 315.164 50.7479 315.012 50.8759 314.892C51.0039 314.764 51.1639 314.7 51.3559 314.7ZM52.6399 313.2C52.8479 313.2 53.0159 313.272 53.1439 313.416C53.2799 313.552 53.3479 313.724 53.3479 313.932V319.272C53.3479 319.384 53.3679 319.476 53.4079 319.548C53.4559 319.62 53.5159 319.672 53.5879 319.704C53.6679 319.736 53.7519 319.752 53.8399 319.752C53.9359 319.752 54.0239 319.736 54.1039 319.704C54.1839 319.664 54.2759 319.644 54.3799 319.644C54.4919 319.644 54.5919 319.696 54.6799 319.8C54.7759 319.904 54.8239 320.048 54.8239 320.232C54.8239 320.456 54.6999 320.64 54.4519 320.784C54.2119 320.928 53.9519 321 53.6719 321C53.5039 321 53.3159 320.988 53.1079 320.964C52.9079 320.932 52.7159 320.864 52.5319 320.76C52.3559 320.648 52.2079 320.48 52.0879 320.256C51.9679 320.032 51.9079 319.724 51.9079 319.332V313.932C51.9079 313.724 51.9759 313.552 52.1119 313.416C52.2559 313.272 52.4319 313.2 52.6399 313.2ZM56.3261 314.58C56.5581 314.58 56.7541 314.68 56.9141 314.88L60.9221 319.86C61.0261 319.988 61.0781 320.132 61.0781 320.292C61.0781 320.492 61.0021 320.664 60.8501 320.808C60.6981 320.952 60.5301 321.024 60.3461 321.024C60.1141 321.024 59.9181 320.92 59.7581 320.712L55.7501 315.732C55.6461 315.604 55.5941 315.46 55.5941 315.3C55.5941 315.092 55.6661 314.92 55.8101 314.784C55.9621 314.648 56.1341 314.58 56.3261 314.58ZM56.3381 321.012C56.1781 321.012 56.0181 320.952 55.8581 320.832C55.7061 320.704 55.6301 320.552 55.6301 320.376C55.6301 320.216 55.6901 320.064 55.8101 319.92L57.6461 317.676L58.3661 318.876L56.9141 320.712C56.7621 320.912 56.5701 321.012 56.3381 321.012ZM60.3341 314.58C60.5261 314.58 60.6861 314.648 60.8141 314.784C60.9501 314.912 61.0181 315.06 61.0181 315.228C61.0181 315.308 61.0061 315.388 60.9821 315.468C60.9581 315.548 60.9141 315.624 60.8501 315.696L59.0381 317.904L58.2821 316.86L59.7581 314.904C59.9181 314.688 60.1101 314.58 60.3341 314.58ZM62.7114 314.7H65.5554C65.7474 314.7 65.9074 314.764 66.0354 314.892C66.1634 315.02 66.2274 315.18 66.2274 315.372C66.2274 315.556 66.1634 315.712 66.0354 315.84C65.9074 315.96 65.7474 316.02 65.5554 316.02H62.7114C62.5194 316.02 62.3594 315.956 62.2314 315.828C62.1034 315.7 62.0394 315.54 62.0394 315.348C62.0394 315.164 62.1034 315.012 62.2314 314.892C62.3594 314.764 62.5194 314.7 62.7114 314.7ZM63.9954 313.2C64.2034 313.2 64.3714 313.272 64.4994 313.416C64.6354 313.552 64.7034 313.724 64.7034 313.932V319.272C64.7034 319.384 64.7234 319.476 64.7634 319.548C64.8114 319.62 64.8714 319.672 64.9434 319.704C65.0234 319.736 65.1074 319.752 65.1954 319.752C65.2914 319.752 65.3794 319.736 65.4594 319.704C65.5394 319.664 65.6314 319.644 65.7354 319.644C65.8474 319.644 65.9474 319.696 66.0354 319.8C66.1314 319.904 66.1794 320.048 66.1794 320.232C66.1794 320.456 66.0554 320.64 65.8074 320.784C65.5674 320.928 65.3074 321 65.0274 321C64.8594 321 64.6714 320.988 64.4634 320.964C64.2634 320.932 64.0714 320.864 63.8874 320.76C63.7114 320.648 63.5634 320.48 63.4434 320.256C63.3234 320.032 63.2634 319.724 63.2634 319.332V313.932C63.2634 313.724 63.3314 313.552 63.4674 313.416C63.6114 313.272 63.7874 313.2 63.9954 313.2Z" fill="#5B588F"/>
<path d="M182.96 302.1C182.48 302.1 182.053 302.033 181.68 301.9C181.307 301.767 180.95 301.547 180.61 301.24C180.537 301.187 180.48 301.123 180.44 301.05C180.407 300.97 180.39 300.89 180.39 300.81C180.39 300.683 180.437 300.57 180.53 300.47C180.623 300.37 180.74 300.32 180.88 300.32C180.987 300.32 181.087 300.357 181.18 300.43C181.433 300.663 181.697 300.84 181.97 300.96C182.25 301.08 182.577 301.14 182.95 301.14C183.217 301.14 183.46 301.097 183.68 301.01C183.907 300.923 184.087 300.807 184.22 300.66C184.353 300.513 184.42 300.343 184.42 300.15C184.42 299.91 184.35 299.713 184.21 299.56C184.077 299.4 183.88 299.27 183.62 299.17C183.367 299.063 183.06 298.973 182.7 298.9C182.367 298.84 182.067 298.757 181.8 298.65C181.54 298.543 181.317 298.41 181.13 298.25C180.943 298.083 180.8 297.887 180.7 297.66C180.6 297.433 180.55 297.17 180.55 296.87C180.55 296.463 180.657 296.113 180.87 295.82C181.083 295.527 181.373 295.3 181.74 295.14C182.107 294.98 182.52 294.9 182.98 294.9C183.4 294.9 183.793 294.967 184.16 295.1C184.527 295.227 184.823 295.4 185.05 295.62C185.21 295.76 185.29 295.91 185.29 296.07C185.29 296.19 185.24 296.303 185.14 296.41C185.047 296.51 184.937 296.56 184.81 296.56C184.717 296.56 184.637 296.533 184.57 296.48C184.463 296.367 184.32 296.267 184.14 296.18C183.96 296.087 183.767 296.01 183.56 295.95C183.36 295.89 183.167 295.86 182.98 295.86C182.68 295.86 182.423 295.903 182.21 295.99C181.997 296.07 181.833 296.183 181.72 296.33C181.607 296.47 181.55 296.637 181.55 296.83C181.55 297.057 181.613 297.243 181.74 297.39C181.873 297.537 182.057 297.657 182.29 297.75C182.523 297.837 182.79 297.917 183.09 297.99C183.457 298.07 183.783 298.16 184.07 298.26C184.363 298.36 184.61 298.49 184.81 298.65C185.01 298.803 185.163 298.997 185.27 299.23C185.377 299.463 185.43 299.753 185.43 300.1C185.43 300.5 185.317 300.85 185.09 301.15C184.863 301.45 184.563 301.683 184.19 301.85C183.823 302.017 183.413 302.1 182.96 302.1ZM191.59 299.37C191.59 299.903 191.473 300.377 191.24 300.79C191.006 301.197 190.69 301.517 190.29 301.75C189.89 301.983 189.44 302.1 188.94 302.1C188.44 302.1 187.99 301.983 187.59 301.75C187.19 301.517 186.87 301.197 186.63 300.79C186.396 300.377 186.28 299.903 186.28 299.37C186.28 298.83 186.396 298.357 186.63 297.95C186.87 297.537 187.19 297.213 187.59 296.98C187.99 296.74 188.44 296.62 188.94 296.62C189.44 296.62 189.89 296.74 190.29 296.98C190.69 297.213 191.006 297.537 191.24 297.95C191.473 298.357 191.59 298.83 191.59 299.37ZM190.59 299.37C190.59 299.003 190.516 298.687 190.37 298.42C190.223 298.147 190.023 297.933 189.77 297.78C189.523 297.62 189.246 297.54 188.94 297.54C188.633 297.54 188.353 297.62 188.1 297.78C187.846 297.933 187.646 298.147 187.5 298.42C187.353 298.687 187.28 299.003 187.28 299.37C187.28 299.723 187.353 300.037 187.5 300.31C187.646 300.583 187.846 300.797 188.1 300.95C188.353 301.103 188.633 301.18 188.94 301.18C189.246 301.18 189.523 301.103 189.77 300.95C190.023 300.797 190.223 300.583 190.37 300.31C190.516 300.037 190.59 299.723 190.59 299.37ZM196.641 296.74C196.781 296.74 196.898 296.79 196.991 296.89C197.091 296.983 197.141 297.103 197.141 297.25V299.88C197.141 300.573 196.948 301.117 196.561 301.51C196.175 301.897 195.628 302.09 194.921 302.09C194.221 302.09 193.678 301.897 193.291 301.51C192.911 301.117 192.721 300.573 192.721 299.88V297.25C192.721 297.103 192.768 296.983 192.861 296.89C192.955 296.79 193.075 296.74 193.221 296.74C193.361 296.74 193.478 296.79 193.571 296.89C193.671 296.983 193.721 297.103 193.721 297.25V299.88C193.721 300.313 193.821 300.637 194.021 300.85C194.228 301.063 194.528 301.17 194.921 301.17C195.321 301.17 195.625 301.063 195.831 300.85C196.038 300.637 196.141 300.313 196.141 299.88V297.25C196.141 297.103 196.188 296.983 196.281 296.89C196.375 296.79 196.495 296.74 196.641 296.74ZM199.032 302C198.885 302 198.765 301.953 198.672 301.86C198.579 301.76 198.532 301.637 198.532 301.49V297.25C198.532 297.103 198.579 296.983 198.672 296.89C198.765 296.79 198.885 296.74 199.032 296.74C199.172 296.74 199.289 296.79 199.382 296.89C199.482 296.983 199.532 297.103 199.532 297.25V298.37L199.432 297.94C199.485 297.753 199.565 297.58 199.672 297.42C199.785 297.26 199.919 297.12 200.072 297C200.225 296.88 200.395 296.787 200.582 296.72C200.775 296.653 200.975 296.62 201.182 296.62C201.355 296.62 201.505 296.667 201.632 296.76C201.759 296.853 201.822 296.97 201.822 297.11C201.822 297.29 201.775 297.423 201.682 297.51C201.589 297.59 201.485 297.63 201.372 297.63C201.272 297.63 201.175 297.61 201.082 297.57C200.989 297.523 200.879 297.5 200.752 297.5C200.612 297.5 200.469 297.537 200.322 297.61C200.175 297.683 200.042 297.793 199.922 297.94C199.802 298.08 199.705 298.247 199.632 298.44C199.565 298.633 199.532 298.85 199.532 299.09V301.49C199.532 301.637 199.482 301.76 199.382 301.86C199.289 301.953 199.172 302 199.032 302ZM204.817 296.62C205.177 296.62 205.497 296.66 205.777 296.74C206.057 296.813 206.274 296.92 206.427 297.06C206.587 297.193 206.667 297.35 206.667 297.53C206.667 297.643 206.634 297.75 206.567 297.85C206.5 297.943 206.4 297.99 206.267 297.99C206.174 297.99 206.094 297.973 206.027 297.94C205.967 297.907 205.91 297.867 205.857 297.82C205.804 297.773 205.737 297.727 205.657 297.68C205.584 297.64 205.474 297.607 205.327 297.58C205.187 297.553 205.06 297.54 204.947 297.54C204.594 297.54 204.287 297.62 204.027 297.78C203.774 297.94 203.574 298.157 203.427 298.43C203.287 298.703 203.217 299.013 203.217 299.36C203.217 299.707 203.287 300.017 203.427 300.29C203.574 300.563 203.77 300.78 204.017 300.94C204.27 301.1 204.564 301.18 204.897 301.18C205.097 301.18 205.26 301.167 205.387 301.14C205.514 301.107 205.624 301.067 205.717 301.02C205.817 300.96 205.9 300.9 205.967 300.84C206.04 300.773 206.14 300.74 206.267 300.74C206.414 300.74 206.524 300.787 206.597 300.88C206.677 300.967 206.717 301.077 206.717 301.21C206.717 301.357 206.627 301.5 206.447 301.64C206.274 301.773 206.04 301.883 205.747 301.97C205.454 302.057 205.13 302.1 204.777 302.1C204.257 302.1 203.804 301.98 203.417 301.74C203.037 301.5 202.74 301.173 202.527 300.76C202.32 300.347 202.217 299.88 202.217 299.36C202.217 298.833 202.327 298.367 202.547 297.96C202.767 297.547 203.074 297.22 203.467 296.98C203.86 296.74 204.31 296.62 204.817 296.62ZM210.123 302.1C209.569 302.1 209.089 301.987 208.683 301.76C208.276 301.527 207.959 301.21 207.733 300.81C207.513 300.403 207.403 299.94 207.403 299.42C207.403 298.833 207.519 298.333 207.753 297.92C207.993 297.5 208.303 297.18 208.683 296.96C209.063 296.733 209.466 296.62 209.893 296.62C210.219 296.62 210.529 296.687 210.823 296.82C211.116 296.947 211.376 297.127 211.603 297.36C211.836 297.587 212.019 297.857 212.153 298.17C212.286 298.477 212.356 298.813 212.363 299.18C212.356 299.313 212.303 299.423 212.203 299.51C212.103 299.597 211.986 299.64 211.853 299.64H207.963L207.723 298.79H211.483L211.293 298.97V298.72C211.279 298.487 211.203 298.283 211.063 298.11C210.923 297.93 210.749 297.793 210.543 297.7C210.336 297.6 210.119 297.55 209.893 297.55C209.693 297.55 209.499 297.583 209.313 297.65C209.133 297.71 208.969 297.81 208.823 297.95C208.683 298.09 208.569 298.277 208.483 298.51C208.403 298.737 208.363 299.02 208.363 299.36C208.363 299.727 208.439 300.047 208.593 300.32C208.746 300.593 208.953 300.807 209.213 300.96C209.473 301.107 209.759 301.18 210.073 301.18C210.319 301.18 210.523 301.157 210.683 301.11C210.843 301.057 210.976 300.993 211.083 300.92C211.189 300.847 211.283 300.777 211.363 300.71C211.463 300.65 211.563 300.62 211.663 300.62C211.783 300.62 211.883 300.663 211.963 300.75C212.043 300.83 212.083 300.927 212.083 301.04C212.083 301.187 212.009 301.32 211.863 301.44C211.683 301.613 211.433 301.767 211.113 301.9C210.799 302.033 210.469 302.1 210.123 302.1ZM217.436 301.49C217.43 301.637 217.373 301.76 217.266 301.86C217.166 301.953 217.046 302 216.906 302C216.753 302 216.626 301.953 216.526 301.86C216.433 301.76 216.386 301.637 216.386 301.49V295.51C216.386 295.363 216.436 295.243 216.536 295.15C216.636 295.05 216.766 295 216.926 295C217.06 295 217.176 295.05 217.276 295.15C217.383 295.243 217.436 295.363 217.436 295.51V301.49ZM221.872 295C222.226 295 222.552 295.097 222.852 295.29C223.152 295.477 223.392 295.733 223.572 296.06C223.752 296.387 223.842 296.753 223.842 297.16C223.842 297.567 223.752 297.937 223.572 298.27C223.392 298.597 223.152 298.86 222.852 299.06C222.552 299.253 222.226 299.35 221.872 299.35H219.942L220.022 299.19V301.49C220.022 301.637 219.976 301.76 219.882 301.86C219.796 301.953 219.679 302 219.532 302C219.392 302 219.276 301.953 219.182 301.86C219.096 301.76 219.052 301.637 219.052 301.49V295.51C219.052 295.363 219.102 295.243 219.202 295.15C219.302 295.05 219.422 295 219.562 295H221.872ZM221.872 298.39C222.046 298.39 222.202 298.333 222.342 298.22C222.489 298.107 222.606 297.957 222.692 297.77C222.786 297.583 222.832 297.38 222.832 297.16C222.832 296.94 222.786 296.74 222.692 296.56C222.606 296.38 222.489 296.237 222.342 296.13C222.202 296.017 222.046 295.96 221.872 295.96H219.922L220.022 295.81V298.52L219.932 298.39H221.872Z" fill="#19191F"/>
<path d="M182.856 321C182.632 321 182.448 320.932 182.304 320.796C182.16 320.652 182.088 320.476 182.088 320.268V314.22L182.256 314.484L181.38 315.132C181.268 315.22 181.128 315.264 180.96 315.264C180.768 315.264 180.6 315.192 180.456 315.048C180.312 314.904 180.24 314.732 180.24 314.532C180.24 314.276 180.364 314.068 180.612 313.908L182.34 312.756C182.42 312.7 182.508 312.66 182.604 312.636C182.708 312.612 182.804 312.6 182.892 312.6C183.124 312.6 183.308 312.672 183.444 312.816C183.58 312.952 183.648 313.124 183.648 313.332V320.268C183.648 320.476 183.572 320.652 183.42 320.796C183.276 320.932 183.088 321 182.856 321ZM188.348 321.12C187.66 321.12 187.076 320.94 186.596 320.58C186.124 320.212 185.764 319.704 185.516 319.056C185.268 318.4 185.144 317.648 185.144 316.8C185.144 315.944 185.268 315.192 185.516 314.544C185.764 313.896 186.124 313.392 186.596 313.032C187.076 312.664 187.66 312.48 188.348 312.48C189.036 312.48 189.616 312.664 190.088 313.032C190.568 313.392 190.932 313.896 191.18 314.544C191.428 315.192 191.552 315.944 191.552 316.8C191.552 317.648 191.428 318.4 191.18 319.056C190.932 319.704 190.568 320.212 190.088 320.58C189.616 320.94 189.036 321.12 188.348 321.12ZM188.348 319.68C188.684 319.68 188.972 319.576 189.212 319.368C189.46 319.152 189.652 318.832 189.788 318.408C189.924 317.976 189.992 317.44 189.992 316.8C189.992 316.152 189.924 315.616 189.788 315.192C189.652 314.768 189.46 314.452 189.212 314.244C188.972 314.028 188.684 313.92 188.348 313.92C188.02 313.92 187.732 314.028 187.484 314.244C187.236 314.452 187.044 314.768 186.908 315.192C186.772 315.616 186.704 316.152 186.704 316.8C186.704 317.44 186.772 317.976 186.908 318.408C187.044 318.832 187.236 319.152 187.484 319.368C187.732 319.576 188.02 319.68 188.348 319.68ZM195.719 321.12C195.031 321.12 194.447 320.94 193.967 320.58C193.495 320.212 193.135 319.704 192.887 319.056C192.639 318.4 192.515 317.648 192.515 316.8C192.515 315.944 192.639 315.192 192.887 314.544C193.135 313.896 193.495 313.392 193.967 313.032C194.447 312.664 195.031 312.48 195.719 312.48C196.407 312.48 196.987 312.664 197.459 313.032C197.939 313.392 198.303 313.896 198.551 314.544C198.799 315.192 198.923 315.944 198.923 316.8C198.923 317.648 198.799 318.4 198.551 319.056C198.303 319.704 197.939 320.212 197.459 320.58C196.987 320.94 196.407 321.12 195.719 321.12ZM195.719 319.68C196.055 319.68 196.343 319.576 196.583 319.368C196.831 319.152 197.023 318.832 197.159 318.408C197.295 317.976 197.363 317.44 197.363 316.8C197.363 316.152 197.295 315.616 197.159 315.192C197.023 314.768 196.831 314.452 196.583 314.244C196.343 314.028 196.055 313.92 195.719 313.92C195.391 313.92 195.103 314.028 194.855 314.244C194.607 314.452 194.415 314.768 194.279 315.192C194.143 315.616 194.075 316.152 194.075 316.8C194.075 317.44 194.143 317.976 194.279 318.408C194.415 318.832 194.607 319.152 194.855 319.368C195.103 319.576 195.391 319.68 195.719 319.68ZM200.822 320.988C200.59 320.988 200.41 320.928 200.282 320.808C200.162 320.68 200.102 320.5 200.102 320.268V320.064C200.102 319.832 200.162 319.656 200.282 319.536C200.41 319.408 200.59 319.344 200.822 319.344H200.978C201.21 319.344 201.386 319.408 201.506 319.536C201.634 319.656 201.698 319.832 201.698 320.064V320.268C201.698 320.5 201.634 320.68 201.506 320.808C201.386 320.928 201.21 320.988 200.978 320.988H200.822ZM204.653 321C204.429 321 204.245 320.932 204.101 320.796C203.957 320.652 203.885 320.476 203.885 320.268V314.22L204.053 314.484L203.177 315.132C203.065 315.22 202.925 315.264 202.757 315.264C202.565 315.264 202.397 315.192 202.253 315.048C202.109 314.904 202.037 314.732 202.037 314.532C202.037 314.276 202.161 314.068 202.409 313.908L204.137 312.756C204.217 312.7 204.305 312.66 204.401 312.636C204.505 312.612 204.601 312.6 204.689 312.6C204.921 312.6 205.105 312.672 205.241 312.816C205.377 312.952 205.445 313.124 205.445 313.332V320.268C205.445 320.476 205.369 320.652 205.217 320.796C205.073 320.932 204.885 321 204.653 321ZM210.145 321.12C209.457 321.12 208.873 320.94 208.393 320.58C207.921 320.212 207.561 319.704 207.313 319.056C207.065 318.4 206.941 317.648 206.941 316.8C206.941 315.944 207.065 315.192 207.313 314.544C207.561 313.896 207.921 313.392 208.393 313.032C208.873 312.664 209.457 312.48 210.145 312.48C210.833 312.48 211.413 312.664 211.885 313.032C212.365 313.392 212.729 313.896 212.977 314.544C213.225 315.192 213.349 315.944 213.349 316.8C213.349 317.648 213.225 318.4 212.977 319.056C212.729 319.704 212.365 320.212 211.885 320.58C211.413 320.94 210.833 321.12 210.145 321.12ZM210.145 319.68C210.481 319.68 210.769 319.576 211.009 319.368C211.257 319.152 211.449 318.832 211.585 318.408C211.721 317.976 211.789 317.44 211.789 316.8C211.789 316.152 211.721 315.616 211.585 315.192C211.449 314.768 211.257 314.452 211.009 314.244C210.769 314.028 210.481 313.92 210.145 313.92C209.817 313.92 209.529 314.028 209.281 314.244C209.033 314.452 208.841 314.768 208.705 315.192C208.569 315.616 208.501 316.152 208.501 316.8C208.501 317.44 208.569 317.976 208.705 318.408C208.841 318.832 209.033 319.152 209.281 319.368C209.529 319.576 209.817 319.68 210.145 319.68ZM215.248 320.988C215.016 320.988 214.836 320.928 214.708 320.808C214.588 320.68 214.528 320.5 214.528 320.268V320.064C214.528 319.832 214.588 319.656 214.708 319.536C214.836 319.408 215.016 319.344 215.248 319.344H215.404C215.636 319.344 215.812 319.408 215.932 319.536C216.06 319.656 216.124 319.832 216.124 320.064V320.268C216.124 320.5 216.06 320.68 215.932 320.808C215.812 320.928 215.636 320.988 215.404 320.988H215.248ZM218.164 319.308C218.236 319.308 218.312 319.32 218.392 319.344C218.48 319.368 218.576 319.416 218.68 319.488C218.816 319.592 218.976 319.684 219.16 319.764C219.352 319.844 219.572 319.884 219.82 319.884C220.068 319.884 220.3 319.824 220.516 319.704C220.74 319.576 220.924 319.4 221.068 319.176C221.212 318.944 221.284 318.668 221.284 318.348C221.284 318.044 221.22 317.792 221.092 317.592C220.972 317.392 220.808 317.24 220.6 317.136C220.4 317.032 220.184 316.98 219.952 316.98C219.776 316.98 219.628 316.996 219.508 317.028C219.396 317.06 219.284 317.096 219.172 317.136C219.068 317.168 218.944 317.184 218.8 317.184C218.616 317.184 218.472 317.12 218.368 316.992C218.272 316.864 218.224 316.712 218.224 316.536C218.224 316.424 218.244 316.324 218.284 316.236C218.332 316.148 218.4 316.052 218.488 315.948L220.6 313.704L220.924 313.98H217.972C217.78 313.98 217.62 313.916 217.492 313.788C217.364 313.66 217.3 313.5 217.3 313.308C217.3 313.124 217.364 312.972 217.492 312.852C217.62 312.724 217.78 312.66 217.972 312.66H221.644C221.892 312.66 222.076 312.728 222.196 312.864C222.324 313 222.388 313.172 222.388 313.38C222.388 313.484 222.36 313.588 222.304 313.692C222.248 313.788 222.18 313.876 222.1 313.956L219.976 316.236L219.652 315.828C219.74 315.788 219.86 315.752 220.012 315.72C220.172 315.688 220.304 315.672 220.408 315.672C220.88 315.672 221.288 315.796 221.632 316.044C221.984 316.284 222.252 316.6 222.436 316.992C222.628 317.376 222.724 317.792 222.724 318.24C222.724 318.832 222.592 319.344 222.328 319.776C222.064 320.208 221.692 320.54 221.212 320.772C220.732 321.004 220.172 321.12 219.532 321.12C219.236 321.12 218.944 321.084 218.656 321.012C218.368 320.94 218.12 320.844 217.912 320.724C217.736 320.628 217.616 320.524 217.552 320.412C217.496 320.292 217.468 320.18 217.468 320.076C217.468 319.892 217.532 319.72 217.66 319.56C217.796 319.392 217.964 319.308 218.164 319.308ZM224.682 320.988C224.45 320.988 224.27 320.928 224.142 320.808C224.022 320.68 223.962 320.5 223.962 320.268V320.064C223.962 319.832 224.022 319.656 224.142 319.536C224.27 319.408 224.45 319.344 224.682 319.344H224.838C225.07 319.344 225.246 319.408 225.366 319.536C225.494 319.656 225.558 319.832 225.558 320.064V320.268C225.558 320.5 225.494 320.68 225.366 320.808C225.246 320.928 225.07 320.988 224.838 320.988H224.682ZM231.75 319.68C231.942 319.68 232.102 319.744 232.23 319.872C232.358 320 232.422 320.16 232.422 320.352C232.422 320.536 232.358 320.692 232.23 320.82C232.102 320.94 231.942 321 231.75 321H227.67C227.462 321 227.298 320.936 227.178 320.808C227.058 320.68 226.998 320.516 226.998 320.316C226.998 320.116 227.07 319.94 227.214 319.788L229.83 316.992C230.126 316.672 230.358 316.344 230.526 316.008C230.702 315.672 230.79 315.38 230.79 315.132C230.79 314.732 230.674 314.412 230.442 314.172C230.21 313.924 229.902 313.8 229.518 313.8C229.366 313.8 229.21 313.836 229.05 313.908C228.89 313.98 228.734 314.08 228.582 314.208C228.438 314.336 228.302 314.484 228.174 314.652C228.078 314.78 227.982 314.86 227.886 314.892C227.79 314.924 227.702 314.94 227.622 314.94C227.446 314.94 227.282 314.876 227.13 314.748C226.986 314.612 226.914 314.456 226.914 314.28C226.914 314.144 226.958 314.012 227.046 313.884C227.142 313.756 227.258 313.624 227.394 313.488C227.594 313.288 227.818 313.112 228.066 312.96C228.314 312.808 228.57 312.692 228.834 312.612C229.098 312.524 229.354 312.48 229.602 312.48C230.138 312.48 230.602 312.588 230.994 312.804C231.394 313.012 231.702 313.312 231.918 313.704C232.134 314.088 232.242 314.544 232.242 315.072C232.242 315.512 232.11 316.004 231.846 316.548C231.59 317.084 231.242 317.588 230.802 318.06L229.182 319.788L229.05 319.68H231.75Z" fill="#5B588F"/>
<path d="M102.96 302.1C102.48 302.1 102.053 302.033 101.68 301.9C101.307 301.767 100.95 301.547 100.61 301.24C100.537 301.187 100.48 301.123 100.44 301.05C100.407 300.97 100.39 300.89 100.39 300.81C100.39 300.683 100.437 300.57 100.53 300.47C100.623 300.37 100.74 300.32 100.88 300.32C100.987 300.32 101.087 300.357 101.18 300.43C101.433 300.663 101.697 300.84 101.97 300.96C102.25 301.08 102.577 301.14 102.95 301.14C103.217 301.14 103.46 301.097 103.68 301.01C103.907 300.923 104.087 300.807 104.22 300.66C104.353 300.513 104.42 300.343 104.42 300.15C104.42 299.91 104.35 299.713 104.21 299.56C104.077 299.4 103.88 299.27 103.62 299.17C103.367 299.063 103.06 298.973 102.7 298.9C102.367 298.84 102.067 298.757 101.8 298.65C101.54 298.543 101.317 298.41 101.13 298.25C100.943 298.083 100.8 297.887 100.7 297.66C100.6 297.433 100.55 297.17 100.55 296.87C100.55 296.463 100.657 296.113 100.87 295.82C101.083 295.527 101.373 295.3 101.74 295.14C102.107 294.98 102.52 294.9 102.98 294.9C103.4 294.9 103.793 294.967 104.16 295.1C104.527 295.227 104.823 295.4 105.05 295.62C105.21 295.76 105.29 295.91 105.29 296.07C105.29 296.19 105.24 296.303 105.14 296.41C105.047 296.51 104.937 296.56 104.81 296.56C104.717 296.56 104.637 296.533 104.57 296.48C104.463 296.367 104.32 296.267 104.14 296.18C103.96 296.087 103.767 296.01 103.56 295.95C103.36 295.89 103.167 295.86 102.98 295.86C102.68 295.86 102.423 295.903 102.21 295.99C101.997 296.07 101.833 296.183 101.72 296.33C101.607 296.47 101.55 296.637 101.55 296.83C101.55 297.057 101.613 297.243 101.74 297.39C101.873 297.537 102.057 297.657 102.29 297.75C102.523 297.837 102.79 297.917 103.09 297.99C103.457 298.07 103.783 298.16 104.07 298.26C104.363 298.36 104.61 298.49 104.81 298.65C105.01 298.803 105.163 298.997 105.27 299.23C105.377 299.463 105.43 299.753 105.43 300.1C105.43 300.5 105.317 300.85 105.09 301.15C104.863 301.45 104.563 301.683 104.19 301.85C103.823 302.017 103.413 302.1 102.96 302.1ZM107.49 301.49C107.49 301.637 107.443 301.76 107.35 301.86C107.256 301.953 107.136 302 106.99 302C106.85 302 106.73 301.953 106.63 301.86C106.536 301.76 106.49 301.637 106.49 301.49V297.21C106.49 297.063 106.536 296.943 106.63 296.85C106.73 296.75 106.85 296.7 106.99 296.7C107.136 296.7 107.256 296.75 107.35 296.85C107.443 296.943 107.49 297.063 107.49 297.21V301.49ZM106.98 296.04C106.786 296.04 106.646 296.007 106.56 295.94C106.473 295.867 106.43 295.747 106.43 295.58V295.42C106.43 295.253 106.476 295.137 106.57 295.07C106.663 295.003 106.803 294.97 106.99 294.97C107.19 294.97 107.333 295.007 107.42 295.08C107.506 295.147 107.55 295.26 107.55 295.42V295.58C107.55 295.753 107.503 295.873 107.41 295.94C107.323 296.007 107.18 296.04 106.98 296.04ZM112.175 301.08C112.308 301.08 112.418 301.123 112.505 301.21C112.598 301.297 112.645 301.407 112.645 301.54C112.645 301.667 112.598 301.777 112.505 301.87C112.418 301.957 112.308 302 112.175 302H108.945C108.805 302 108.691 301.95 108.605 301.85C108.518 301.743 108.478 301.64 108.485 301.54C108.491 301.46 108.501 301.39 108.515 301.33C108.535 301.263 108.578 301.19 108.645 301.11L111.315 297.57V297.69H109.085C108.951 297.69 108.838 297.647 108.745 297.56C108.658 297.467 108.615 297.357 108.615 297.23C108.615 297.097 108.658 296.987 108.745 296.9C108.838 296.813 108.951 296.77 109.085 296.77H112.165C112.291 296.77 112.398 296.82 112.485 296.92C112.578 297.013 112.618 297.13 112.605 297.27C112.605 297.33 112.595 297.39 112.575 297.45C112.561 297.503 112.525 297.567 112.465 297.64L109.835 301.14L109.795 301.08H112.175ZM116.011 302.1C115.458 302.1 114.978 301.987 114.571 301.76C114.165 301.527 113.848 301.21 113.621 300.81C113.401 300.403 113.291 299.94 113.291 299.42C113.291 298.833 113.408 298.333 113.641 297.92C113.881 297.5 114.191 297.18 114.571 296.96C114.951 296.733 115.355 296.62 115.781 296.62C116.108 296.62 116.418 296.687 116.711 296.82C117.005 296.947 117.265 297.127 117.491 297.36C117.725 297.587 117.908 297.857 118.041 298.17C118.175 298.477 118.245 298.813 118.251 299.18C118.245 299.313 118.191 299.423 118.091 299.51C117.991 299.597 117.875 299.64 117.741 299.64H113.851L113.611 298.79H117.371L117.181 298.97V298.72C117.168 298.487 117.091 298.283 116.951 298.11C116.811 297.93 116.638 297.793 116.431 297.7C116.225 297.6 116.008 297.55 115.781 297.55C115.581 297.55 115.388 297.583 115.201 297.65C115.021 297.71 114.858 297.81 114.711 297.95C114.571 298.09 114.458 298.277 114.371 298.51C114.291 298.737 114.251 299.02 114.251 299.36C114.251 299.727 114.328 300.047 114.481 300.32C114.635 300.593 114.841 300.807 115.101 300.96C115.361 301.107 115.648 301.18 115.961 301.18C116.208 301.18 116.411 301.157 116.571 301.11C116.731 301.057 116.865 300.993 116.971 300.92C117.078 300.847 117.171 300.777 117.251 300.71C117.351 300.65 117.451 300.62 117.551 300.62C117.671 300.62 117.771 300.663 117.851 300.75C117.931 300.83 117.971 300.927 117.971 301.04C117.971 301.187 117.898 301.32 117.751 301.44C117.571 301.613 117.321 301.767 117.001 301.9C116.688 302.033 116.358 302.1 116.011 302.1Z" fill="#19191F"/>
<path d="M106.648 312.588C106.832 312.588 106.988 312.66 107.116 312.804C107.252 312.948 107.32 313.1 107.32 313.26C107.32 313.412 107.268 313.556 107.164 313.692L104.752 316.872L103.936 315.756L106.06 312.936C106.228 312.704 106.424 312.588 106.648 312.588ZM101.296 312.564C101.528 312.564 101.724 312.668 101.884 312.876L107.164 319.896C107.26 320.024 107.308 320.172 107.308 320.34C107.308 320.564 107.228 320.74 107.068 320.868C106.908 320.996 106.748 321.06 106.588 321.06C106.356 321.06 106.16 320.956 106 320.748L100.72 313.728C100.616 313.6 100.564 313.456 100.564 313.296C100.564 313.088 100.64 312.916 100.792 312.78C100.952 312.636 101.12 312.564 101.296 312.564ZM101.188 321.06C101.012 321.06 100.86 320.996 100.732 320.868C100.604 320.732 100.54 320.584 100.54 320.424C100.54 320.248 100.6 320.084 100.72 319.932L103.156 316.632L103.948 317.796L101.788 320.724C101.628 320.948 101.428 321.06 101.188 321.06ZM114.511 312.588C114.695 312.588 114.851 312.66 114.979 312.804C115.115 312.948 115.183 313.1 115.183 313.26C115.183 313.412 115.131 313.556 115.027 313.692L112.615 316.872L111.799 315.756L113.923 312.936C114.091 312.704 114.287 312.588 114.511 312.588ZM109.159 312.564C109.391 312.564 109.587 312.668 109.747 312.876L115.027 319.896C115.123 320.024 115.171 320.172 115.171 320.34C115.171 320.564 115.091 320.74 114.931 320.868C114.771 320.996 114.611 321.06 114.451 321.06C114.219 321.06 114.023 320.956 113.863 320.748L108.583 313.728C108.479 313.6 108.427 313.456 108.427 313.296C108.427 313.088 108.503 312.916 108.655 312.78C108.815 312.636 108.983 312.564 109.159 312.564ZM109.051 321.06C108.875 321.06 108.723 320.996 108.595 320.868C108.467 320.732 108.403 320.584 108.403 320.424C108.403 320.248 108.463 320.084 108.583 319.932L111.019 316.632L111.811 317.796L109.651 320.724C109.491 320.948 109.291 321.06 109.051 321.06ZM120.746 312.588C120.858 312.588 120.974 312.62 121.094 312.684C121.222 312.74 121.318 312.816 121.382 312.912L124.298 317.4L123.698 317.376L126.686 312.912C126.838 312.696 127.034 312.588 127.274 312.588C127.466 312.588 127.638 312.656 127.79 312.792C127.942 312.928 128.018 313.104 128.018 313.32V320.268C128.018 320.476 127.95 320.652 127.814 320.796C127.678 320.932 127.498 321 127.274 321C127.05 321 126.866 320.932 126.722 320.796C126.586 320.652 126.518 320.476 126.518 320.268V314.616L126.986 314.724L124.538 318.456C124.466 318.544 124.374 318.62 124.262 318.684C124.158 318.748 124.05 318.776 123.938 318.768C123.834 318.776 123.726 318.748 123.614 318.684C123.51 318.62 123.422 318.544 123.35 318.456L121.058 314.832L121.37 314.196V320.268C121.37 320.476 121.306 320.652 121.178 320.796C121.05 320.932 120.882 321 120.674 321C120.474 321 120.31 320.932 120.182 320.796C120.054 320.652 119.99 320.476 119.99 320.268V313.32C119.99 313.12 120.062 312.948 120.206 312.804C120.358 312.66 120.538 312.588 120.746 312.588ZM133.578 312.6C134.346 312.6 134.918 312.78 135.294 313.14C135.67 313.5 135.858 314.032 135.858 314.736C135.858 315.112 135.766 315.444 135.582 315.732C135.398 316.012 135.126 316.232 134.766 316.392C134.406 316.544 133.962 316.62 133.434 316.62L133.482 316.08C133.73 316.08 134.014 316.116 134.334 316.188C134.654 316.252 134.962 316.372 135.258 316.548C135.562 316.716 135.81 316.956 136.002 317.268C136.202 317.572 136.302 317.964 136.302 318.444C136.302 318.972 136.214 319.404 136.038 319.74C135.87 320.076 135.646 320.336 135.366 320.52C135.086 320.704 134.786 320.832 134.466 320.904C134.146 320.968 133.838 321 133.542 321H130.554C130.346 321 130.17 320.932 130.026 320.796C129.89 320.652 129.822 320.476 129.822 320.268V313.332C129.822 313.124 129.89 312.952 130.026 312.816C130.17 312.672 130.346 312.6 130.554 312.6H133.578ZM133.362 314.016H131.226L131.382 313.824V315.996L131.238 315.888H133.398C133.63 315.888 133.838 315.812 134.022 315.66C134.206 315.508 134.298 315.288 134.298 315C134.298 314.656 134.21 314.408 134.034 314.256C133.866 314.096 133.642 314.016 133.362 314.016ZM133.458 317.304H131.274L131.382 317.208V319.74L131.262 319.62H133.542C133.91 319.62 134.202 319.524 134.418 319.332C134.634 319.132 134.742 318.836 134.742 318.444C134.742 318.084 134.67 317.824 134.526 317.664C134.382 317.504 134.21 317.404 134.01 317.364C133.81 317.324 133.626 317.304 133.458 317.304Z" fill="#5B588F"/>
<path d="M119.944 122.764C120.496 122.764 120.964 122.98 121.348 123.412C121.756 123.844 121.96 124.3 121.96 124.78C121.96 125.236 121.804 125.668 121.492 126.076L114.256 135.616L111.808 132.268L118.18 123.808C118.684 123.112 119.272 122.764 119.944 122.764ZM103.888 122.692C104.584 122.692 105.172 123.004 105.652 123.628L121.492 144.688C121.78 145.072 121.924 145.516 121.924 146.02C121.924 146.692 121.684 147.22 121.204 147.604C120.724 147.988 120.244 148.18 119.764 148.18C119.068 148.18 118.48 147.868 118 147.244L102.16 126.184C101.848 125.8 101.692 125.368 101.692 124.888C101.692 124.264 101.92 123.748 102.376 123.34C102.856 122.908 103.36 122.692 103.888 122.692ZM103.564 148.18C103.036 148.18 102.58 147.988 102.196 147.604C101.812 147.196 101.62 146.752 101.62 146.272C101.62 145.744 101.8 145.252 102.16 144.796L109.468 134.896L111.844 138.388L105.364 147.172C104.884 147.844 104.284 148.18 103.564 148.18ZM143.534 122.764C144.086 122.764 144.554 122.98 144.938 123.412C145.346 123.844 145.55 124.3 145.55 124.78C145.55 125.236 145.394 125.668 145.082 126.076L137.846 135.616L135.398 132.268L141.77 123.808C142.274 123.112 142.862 122.764 143.534 122.764ZM127.478 122.692C128.174 122.692 128.762 123.004 129.242 123.628L145.082 144.688C145.37 145.072 145.514 145.516 145.514 146.02C145.514 146.692 145.274 147.22 144.794 147.604C144.314 147.988 143.834 148.18 143.354 148.18C142.658 148.18 142.07 147.868 141.59 147.244L125.75 126.184C125.438 125.8 125.282 125.368 125.282 124.888C125.282 124.264 125.51 123.748 125.966 123.34C126.446 122.908 126.95 122.692 127.478 122.692ZM127.154 148.18C126.626 148.18 126.17 147.988 125.786 147.604C125.402 147.196 125.21 146.752 125.21 146.272C125.21 145.744 125.39 145.252 125.75 144.796L133.058 134.896L135.434 138.388L128.954 147.172C128.474 147.844 127.874 148.18 127.154 148.18ZM167.124 122.764C167.676 122.764 168.144 122.98 168.528 123.412C168.936 123.844 169.14 124.3 169.14 124.78C169.14 125.236 168.984 125.668 168.672 126.076L161.436 135.616L158.988 132.268L165.36 123.808C165.864 123.112 166.452 122.764 167.124 122.764ZM151.068 122.692C151.764 122.692 152.352 123.004 152.832 123.628L168.672 144.688C168.96 145.072 169.104 145.516 169.104 146.02C169.104 146.692 168.864 147.22 168.384 147.604C167.904 147.988 167.424 148.18 166.944 148.18C166.248 148.18 165.66 147.868 165.18 147.244L149.34 126.184C149.028 125.8 148.872 125.368 148.872 124.888C148.872 124.264 149.1 123.748 149.556 123.34C150.036 122.908 150.54 122.692 151.068 122.692ZM150.744 148.18C150.216 148.18 149.76 147.988 149.376 147.604C148.992 147.196 148.8 146.752 148.8 146.272C148.8 145.744 148.98 145.252 149.34 144.796L156.648 134.896L159.024 138.388L152.544 147.172C152.064 147.844 151.464 148.18 150.744 148.18Z" fill="white"/>
<path d="M110.904 168.2H115.594C115.837 168.2 116.037 168.279 116.196 168.438C116.364 168.587 116.448 168.783 116.448 169.026C116.448 169.259 116.364 169.451 116.196 169.6C116.037 169.74 115.837 169.81 115.594 169.81H111.674L111.8 169.572V172.302L111.688 172.19H114.964C115.207 172.19 115.407 172.269 115.566 172.428C115.734 172.577 115.818 172.773 115.818 173.016C115.818 173.249 115.734 173.441 115.566 173.59C115.407 173.73 115.207 173.8 114.964 173.8H111.73L111.8 173.688V176.516L111.688 176.39H115.594C115.837 176.39 116.037 176.474 116.196 176.642C116.364 176.801 116.448 176.987 116.448 177.202C116.448 177.435 116.364 177.627 116.196 177.776C116.037 177.925 115.837 178 115.594 178H110.904C110.661 178 110.456 177.921 110.288 177.762C110.129 177.594 110.05 177.389 110.05 177.146V169.054C110.05 168.811 110.129 168.611 110.288 168.452C110.456 168.284 110.661 168.2 110.904 168.2ZM118.762 178C118.519 178 118.318 177.921 118.16 177.762C118.001 177.594 117.922 177.389 117.922 177.146V171.364C117.922 171.121 118.001 170.921 118.16 170.762C118.318 170.594 118.519 170.51 118.762 170.51C119.004 170.51 119.205 170.594 119.364 170.762C119.522 170.921 119.602 171.121 119.602 171.364V172.68L119.504 171.742C119.606 171.518 119.737 171.322 119.896 171.154C120.064 170.977 120.25 170.832 120.456 170.72C120.661 170.599 120.88 170.51 121.114 170.454C121.347 170.398 121.58 170.37 121.814 170.37C122.094 170.37 122.327 170.449 122.514 170.608C122.71 170.767 122.808 170.953 122.808 171.168C122.808 171.476 122.728 171.7 122.57 171.84C122.411 171.971 122.238 172.036 122.052 172.036C121.874 172.036 121.711 172.003 121.562 171.938C121.422 171.873 121.258 171.84 121.072 171.84C120.904 171.84 120.731 171.882 120.554 171.966C120.386 172.041 120.227 172.162 120.078 172.33C119.938 172.498 119.821 172.708 119.728 172.96C119.644 173.203 119.602 173.492 119.602 173.828V177.146C119.602 177.389 119.522 177.594 119.364 177.762C119.205 177.921 119.004 178 118.762 178ZM124.832 178C124.589 178 124.389 177.921 124.23 177.762C124.071 177.594 123.992 177.389 123.992 177.146V171.364C123.992 171.121 124.071 170.921 124.23 170.762C124.389 170.594 124.589 170.51 124.832 170.51C125.075 170.51 125.275 170.594 125.434 170.762C125.593 170.921 125.672 171.121 125.672 171.364V172.68L125.574 171.742C125.677 171.518 125.807 171.322 125.966 171.154C126.134 170.977 126.321 170.832 126.526 170.72C126.731 170.599 126.951 170.51 127.184 170.454C127.417 170.398 127.651 170.37 127.884 170.37C128.164 170.37 128.397 170.449 128.584 170.608C128.78 170.767 128.878 170.953 128.878 171.168C128.878 171.476 128.799 171.7 128.64 171.84C128.481 171.971 128.309 172.036 128.122 172.036C127.945 172.036 127.781 172.003 127.632 171.938C127.492 171.873 127.329 171.84 127.142 171.84C126.974 171.84 126.801 171.882 126.624 171.966C126.456 172.041 126.297 172.162 126.148 172.33C126.008 172.498 125.891 172.708 125.798 172.96C125.714 173.203 125.672 173.492 125.672 173.828V177.146C125.672 177.389 125.593 177.594 125.434 177.762C125.275 177.921 125.075 178 124.832 178ZM137.014 174.262C137.014 175.027 136.841 175.704 136.496 176.292C136.16 176.871 135.703 177.323 135.124 177.65C134.555 177.977 133.915 178.14 133.206 178.14C132.497 178.14 131.853 177.977 131.274 177.65C130.705 177.323 130.247 176.871 129.902 176.292C129.566 175.704 129.398 175.027 129.398 174.262C129.398 173.497 129.566 172.825 129.902 172.246C130.247 171.658 130.705 171.201 131.274 170.874C131.853 170.538 132.497 170.37 133.206 170.37C133.915 170.37 134.555 170.538 135.124 170.874C135.703 171.201 136.16 171.658 136.496 172.246C136.841 172.825 137.014 173.497 137.014 174.262ZM135.334 174.262C135.334 173.786 135.236 173.375 135.04 173.03C134.853 172.675 134.597 172.4 134.27 172.204C133.953 172.008 133.598 171.91 133.206 171.91C132.814 171.91 132.455 172.008 132.128 172.204C131.811 172.4 131.554 172.675 131.358 173.03C131.171 173.375 131.078 173.786 131.078 174.262C131.078 174.729 131.171 175.139 131.358 175.494C131.554 175.839 131.811 176.11 132.128 176.306C132.455 176.502 132.814 176.6 133.206 176.6C133.598 176.6 133.953 176.502 134.27 176.306C134.597 176.11 134.853 175.839 135.04 175.494C135.236 175.139 135.334 174.729 135.334 174.262ZM139.324 178C139.082 178 138.881 177.921 138.722 177.762C138.564 177.594 138.484 177.389 138.484 177.146V171.364C138.484 171.121 138.564 170.921 138.722 170.762C138.881 170.594 139.082 170.51 139.324 170.51C139.567 170.51 139.768 170.594 139.926 170.762C140.085 170.921 140.164 171.121 140.164 171.364V172.68L140.066 171.742C140.169 171.518 140.3 171.322 140.458 171.154C140.626 170.977 140.813 170.832 141.018 170.72C141.224 170.599 141.443 170.51 141.676 170.454C141.91 170.398 142.143 170.37 142.376 170.37C142.656 170.37 142.89 170.449 143.076 170.608C143.272 170.767 143.37 170.953 143.37 171.168C143.37 171.476 143.291 171.7 143.132 171.84C142.974 171.971 142.801 172.036 142.614 172.036C142.437 172.036 142.274 172.003 142.124 171.938C141.984 171.873 141.821 171.84 141.634 171.84C141.466 171.84 141.294 171.882 141.116 171.966C140.948 172.041 140.79 172.162 140.64 172.33C140.5 172.498 140.384 172.708 140.29 172.96C140.206 173.203 140.164 173.492 140.164 173.828V177.146C140.164 177.389 140.085 177.594 139.926 177.762C139.768 177.921 139.567 178 139.324 178ZM151.768 178.14C151.115 178.14 150.527 178.061 150.004 177.902C149.482 177.734 148.982 177.445 148.506 177.034C148.385 176.931 148.292 176.815 148.226 176.684C148.161 176.553 148.128 176.423 148.128 176.292C148.128 176.077 148.203 175.891 148.352 175.732C148.511 175.564 148.707 175.48 148.94 175.48C149.118 175.48 149.276 175.536 149.416 175.648C149.771 175.937 150.121 176.157 150.466 176.306C150.821 176.455 151.255 176.53 151.768 176.53C152.114 176.53 152.431 176.479 152.72 176.376C153.01 176.264 153.243 176.119 153.42 175.942C153.598 175.755 153.686 175.545 153.686 175.312C153.686 175.032 153.602 174.794 153.434 174.598C153.266 174.402 153.01 174.239 152.664 174.108C152.319 173.968 151.88 173.861 151.348 173.786C150.844 173.711 150.401 173.599 150.018 173.45C149.636 173.291 149.314 173.095 149.052 172.862C148.8 172.619 148.609 172.339 148.478 172.022C148.348 171.695 148.282 171.331 148.282 170.93C148.282 170.323 148.436 169.805 148.744 169.376C149.062 168.947 149.486 168.62 150.018 168.396C150.55 168.172 151.138 168.06 151.782 168.06C152.389 168.06 152.949 168.153 153.462 168.34C153.985 168.517 154.41 168.746 154.736 169.026C155.007 169.241 155.142 169.488 155.142 169.768C155.142 169.973 155.063 170.16 154.904 170.328C154.746 170.496 154.559 170.58 154.344 170.58C154.204 170.58 154.078 170.538 153.966 170.454C153.817 170.323 153.616 170.202 153.364 170.09C153.112 169.969 152.846 169.871 152.566 169.796C152.286 169.712 152.025 169.67 151.782 169.67C151.381 169.67 151.04 169.721 150.76 169.824C150.49 169.927 150.284 170.067 150.144 170.244C150.004 170.421 149.934 170.627 149.934 170.86C149.934 171.14 150.014 171.373 150.172 171.56C150.34 171.737 150.578 171.882 150.886 171.994C151.194 172.097 151.563 172.19 151.992 172.274C152.552 172.377 153.042 172.498 153.462 172.638C153.892 172.778 154.246 172.96 154.526 173.184C154.806 173.399 155.016 173.674 155.156 174.01C155.296 174.337 155.366 174.738 155.366 175.214C155.366 175.821 155.198 176.343 154.862 176.782C154.526 177.221 154.083 177.557 153.532 177.79C152.991 178.023 152.403 178.14 151.768 178.14ZM160.164 170.37C160.696 170.37 161.158 170.426 161.55 170.538C161.951 170.65 162.259 170.809 162.474 171.014C162.698 171.21 162.81 171.448 162.81 171.728C162.81 171.915 162.754 172.092 162.642 172.26C162.53 172.419 162.367 172.498 162.152 172.498C162.003 172.498 161.877 172.479 161.774 172.442C161.681 172.395 161.597 172.339 161.522 172.274C161.447 172.209 161.359 172.148 161.256 172.092C161.163 172.036 161.018 171.994 160.822 171.966C160.635 171.929 160.495 171.91 160.402 171.91C159.926 171.91 159.52 172.013 159.184 172.218C158.857 172.423 158.605 172.703 158.428 173.058C158.251 173.403 158.162 173.805 158.162 174.262C158.162 174.71 158.251 175.111 158.428 175.466C158.615 175.811 158.867 176.087 159.184 176.292C159.511 176.497 159.884 176.6 160.304 176.6C160.537 176.6 160.738 176.586 160.906 176.558C161.074 176.53 161.214 176.488 161.326 176.432C161.457 176.357 161.573 176.278 161.676 176.194C161.779 176.11 161.933 176.068 162.138 176.068C162.381 176.068 162.567 176.147 162.698 176.306C162.829 176.455 162.894 176.642 162.894 176.866C162.894 177.099 162.763 177.314 162.502 177.51C162.241 177.697 161.895 177.851 161.466 177.972C161.046 178.084 160.589 178.14 160.094 178.14C159.357 178.14 158.717 177.972 158.176 177.636C157.635 177.291 157.215 176.824 156.916 176.236C156.627 175.648 156.482 174.99 156.482 174.262C156.482 173.497 156.636 172.825 156.944 172.246C157.261 171.658 157.695 171.201 158.246 170.874C158.806 170.538 159.445 170.37 160.164 170.37ZM171.371 174.262C171.371 175.027 171.199 175.704 170.853 176.292C170.517 176.871 170.06 177.323 169.481 177.65C168.912 177.977 168.273 178.14 167.563 178.14C166.854 178.14 166.21 177.977 165.631 177.65C165.062 177.323 164.605 176.871 164.259 176.292C163.923 175.704 163.755 175.027 163.755 174.262C163.755 173.497 163.923 172.825 164.259 172.246C164.605 171.658 165.062 171.201 165.631 170.874C166.21 170.538 166.854 170.37 167.563 170.37C168.273 170.37 168.912 170.538 169.481 170.874C170.06 171.201 170.517 171.658 170.853 172.246C171.199 172.825 171.371 173.497 171.371 174.262ZM169.691 174.262C169.691 173.786 169.593 173.375 169.397 173.03C169.211 172.675 168.954 172.4 168.627 172.204C168.31 172.008 167.955 171.91 167.563 171.91C167.171 171.91 166.812 172.008 166.485 172.204C166.168 172.4 165.911 172.675 165.715 173.03C165.529 173.375 165.435 173.786 165.435 174.262C165.435 174.729 165.529 175.139 165.715 175.494C165.911 175.839 166.168 176.11 166.485 176.306C166.812 176.502 167.171 176.6 167.563 176.6C167.955 176.6 168.31 176.502 168.627 176.306C168.954 176.11 169.211 175.839 169.397 175.494C169.593 175.139 169.691 174.729 169.691 174.262ZM173.682 178C173.439 178 173.238 177.921 173.08 177.762C172.921 177.594 172.842 177.389 172.842 177.146V171.364C172.842 171.121 172.921 170.921 173.08 170.762C173.238 170.594 173.439 170.51 173.682 170.51C173.924 170.51 174.125 170.594 174.284 170.762C174.442 170.921 174.522 171.121 174.522 171.364V172.68L174.424 171.742C174.526 171.518 174.657 171.322 174.816 171.154C174.984 170.977 175.17 170.832 175.376 170.72C175.581 170.599 175.8 170.51 176.034 170.454C176.267 170.398 176.5 170.37 176.734 170.37C177.014 170.37 177.247 170.449 177.434 170.608C177.63 170.767 177.728 170.953 177.728 171.168C177.728 171.476 177.648 171.7 177.49 171.84C177.331 171.971 177.158 172.036 176.972 172.036C176.794 172.036 176.631 172.003 176.482 171.938C176.342 171.873 176.178 171.84 175.992 171.84C175.824 171.84 175.651 171.882 175.474 171.966C175.306 172.041 175.147 172.162 174.998 172.33C174.858 172.498 174.741 172.708 174.648 172.96C174.564 173.203 174.522 173.492 174.522 173.828V177.146C174.522 177.389 174.442 177.594 174.284 177.762C174.125 177.921 173.924 178 173.682 178ZM182.126 178.14C181.332 178.14 180.642 177.977 180.054 177.65C179.475 177.314 179.027 176.861 178.71 176.292C178.402 175.723 178.248 175.079 178.248 174.36C178.248 173.52 178.416 172.806 178.752 172.218C179.097 171.621 179.545 171.163 180.096 170.846C180.646 170.529 181.23 170.37 181.846 170.37C182.322 170.37 182.77 170.468 183.19 170.664C183.619 170.86 183.997 171.131 184.324 171.476C184.65 171.812 184.907 172.204 185.094 172.652C185.29 173.1 185.388 173.576 185.388 174.08C185.378 174.304 185.29 174.486 185.122 174.626C184.954 174.766 184.758 174.836 184.534 174.836H179.186L178.766 173.436H183.904L183.596 173.716V173.338C183.577 173.067 183.479 172.825 183.302 172.61C183.134 172.395 182.919 172.227 182.658 172.106C182.406 171.975 182.135 171.91 181.846 171.91C181.566 171.91 181.304 171.947 181.062 172.022C180.819 172.097 180.609 172.223 180.432 172.4C180.254 172.577 180.114 172.815 180.012 173.114C179.909 173.413 179.858 173.791 179.858 174.248C179.858 174.752 179.96 175.181 180.166 175.536C180.38 175.881 180.651 176.147 180.978 176.334C181.314 176.511 181.668 176.6 182.042 176.6C182.387 176.6 182.662 176.572 182.868 176.516C183.073 176.46 183.236 176.395 183.358 176.32C183.488 176.236 183.605 176.166 183.708 176.11C183.876 176.026 184.034 175.984 184.184 175.984C184.389 175.984 184.557 176.054 184.688 176.194C184.828 176.334 184.898 176.497 184.898 176.684C184.898 176.936 184.767 177.165 184.506 177.37C184.263 177.575 183.922 177.757 183.484 177.916C183.045 178.065 182.592 178.14 182.126 178.14Z" fill="white"/>
<path d="M89 177C88.8022 177 88.6089 177.059 88.4444 177.169C88.28 177.278 88.1518 177.435 88.0761 177.617C88.0004 177.8 87.9806 178.001 88.0192 178.195C88.0578 178.389 88.153 178.567 88.2929 178.707C88.4327 178.847 88.6109 178.942 88.8049 178.981C88.9989 179.019 89.2 179 89.3827 178.924C89.5654 178.848 89.7216 178.72 89.8315 178.556C89.9413 178.391 90 178.198 90 178C90 177.735 89.8946 177.48 89.7071 177.293C89.5196 177.105 89.2652 177 89 177ZM99.67 178.47L91.62 164.47C91.3598 164.004 90.9798 163.615 90.5192 163.344C90.0586 163.074 89.5341 162.931 89 162.931C88.4659 162.931 87.9414 163.074 87.4808 163.344C87.0202 163.615 86.6402 164.004 86.38 164.47L78.38 178.47C78.1108 178.924 77.9661 179.441 77.9606 179.969C77.9551 180.497 78.089 181.017 78.3487 181.476C78.6084 181.936 78.9847 182.318 79.4397 182.586C79.8947 182.854 80.4122 182.996 80.94 183H97.06C97.5921 183.005 98.1159 182.869 98.5779 182.605C99.0399 182.341 99.4234 181.959 99.689 181.498C99.9546 181.037 100.093 180.513 100.09 179.981C100.086 179.449 99.9414 178.928 99.67 178.47ZM97.94 180.47C97.8523 180.626 97.7245 180.756 97.5697 180.845C97.4149 180.935 97.2389 180.982 97.06 180.98H80.94C80.7611 180.982 80.5851 180.935 80.4303 180.845C80.2755 180.756 80.1477 180.626 80.06 180.47C79.9722 180.318 79.926 180.146 79.926 179.97C79.926 179.794 79.9722 179.622 80.06 179.47L88.06 165.47C88.1439 165.306 88.2714 165.169 88.4284 165.073C88.5855 164.977 88.766 164.926 88.95 164.926C89.134 164.926 89.3145 164.977 89.4716 165.073C89.6286 165.169 89.7561 165.306 89.84 165.47L97.89 179.47C97.9892 179.62 98.0462 179.794 98.055 179.973C98.0638 180.153 98.0241 180.331 97.94 180.49V180.47ZM89 169C88.7348 169 88.4804 169.105 88.2929 169.293C88.1054 169.48 88 169.735 88 170V174C88 174.265 88.1054 174.52 88.2929 174.707C88.4804 174.895 88.7348 175 89 175C89.2652 175 89.5196 174.895 89.7071 174.707C89.8946 174.52 90 174.265 90 174V170C90 169.735 89.8946 169.48 89.7071 169.293C89.5196 169.105 89.2652 169 89 169Z" fill="white"/>
<defs>
<filter id="filter0_d_337_1530" x="0.315101" y="32.526" width="262.37" height="262.37" filterUnits="userSpaceOnUse" color-interpolation-filters="sRGB">
<feFlood flood-opacity="0" result="BackgroundImageFix"/>
<feColorMatrix in="SourceAlpha" type="matrix" values="0 0 0 0 0 0 0 0 0 0 0 0 0 0 0 0 0 0 127 0" result="hardAlpha"/>
<feMorphology radius="6.73698" operator="erode" in="SourceAlpha" result="effect1_dropShadow_337_1530"/>
<feOffset dy="20.2109"/>
<feGaussianBlur stdDeviation="20.2109"/>
<feComposite in2="hardAlpha" operator="out"/>
<feColorMatrix type="matrix" values="0 0 0 0 0.152941 0 0 0 0 0.221961 0 0 0 0 0.466667 0 0 0 0.16 0"/>
<feBlend mode="normal" in2="BackgroundImageFix" result="effect1_dropShadow_337_1530"/>
<feBlend mode="normal" in="SourceGraphic" in2="effect1_dropShadow_337_1530" result="shape"/>
</filter>
<filter id="filter1_d_337_1530" x="2.73749" y="48.2712" width="256.314" height="244.203" filterUnits="userSpaceOnUse" color-interpolation-filters="sRGB">
<feFlood flood-opacity="0" result="BackgroundImageFix"/>
<feColorMatrix in="SourceAlpha" type="matrix" values="0 0 0 0 0 0 0 0 0 0 0 0 0 0 0 0 0 0 127 0" result="hardAlpha"/>
<feMorphology radius="6.73698" operator="erode" in="SourceAlpha" result="effect1_dropShadow_337_1530"/>
<feOffset dy="20.2109"/>
<feGaussianBlur stdDeviation="20.2109"/>
<feComposite in2="hardAlpha" operator="out"/>
<feColorMatrix type="matrix" values="0 0 0 0 0.152941 0 0 0 0 0.221961 0 0 0 0 0.466667 0 0 0 0.16 0"/>
<feBlend mode="normal" in2="BackgroundImageFix" result="effect1_dropShadow_337_1530"/>
<feBlend mode="normal" in="SourceGraphic" in2="effect1_dropShadow_337_1530" result="shape"/>
</filter>
<filter id="filter2_d_337_1530" x="2.73746" y="57.1342" width="256.314" height="235.34" filterUnits="userSpaceOnUse" color-interpolation-filters="sRGB">
<feFlood flood-opacity="0" result="BackgroundImageFix"/>
<feColorMatrix in="SourceAlpha" type="matrix" values="0 0 0 0 0 0 0 0 0 0 0 0 0 0 0 0 0 0 127 0" result="hardAlpha"/>
<feMorphology radius="6.73698" operator="erode" in="SourceAlpha" result="effect1_dropShadow_337_1530"/>
<feOffset dy="20.2109"/>
<feGaussianBlur stdDeviation="20.2109"/>
<feComposite in2="hardAlpha" operator="out"/>
<feColorMatrix type="matrix" values="0 0 0 0 0.152941 0 0 0 0 0.221961 0 0 0 0 0.466667 0 0 0 0.16 0"/>
<feBlend mode="normal" in2="BackgroundImageFix" result="effect1_dropShadow_337_1530"/>
<feBlend mode="normal" in="SourceGraphic" in2="effect1_dropShadow_337_1530" result="shape"/>
</filter>
<filter id="filter3_d_337_1530" x="2.73746" y="34.9484" width="256.314" height="257.525" filterUnits="userSpaceOnUse" color-interpolation-filters="sRGB">
<feFlood flood-opacity="0" result="BackgroundImageFix"/>
<feColorMatrix in="SourceAlpha" type="matrix" values="0 0 0 0 0 0 0 0 0 0 0 0 0 0 0 0 0 0 127 0" result="hardAlpha"/>
<feMorphology radius="6.73698" operator="erode" in="SourceAlpha" result="effect1_dropShadow_337_1530"/>
<feOffset dy="20.2109"/>
<feGaussianBlur stdDeviation="20.2109"/>
<feComposite in2="hardAlpha" operator="out"/>
<feColorMatrix type="matrix" values="0 0 0 0 0.152941 0 0 0 0 0.221961 0 0 0 0 0.466667 0 0 0 0.16 0"/>
<feBlend mode="normal" in2="BackgroundImageFix" result="effect1_dropShadow_337_1530"/>
<feBlend mode="normal" in="SourceGraphic" in2="effect1_dropShadow_337_1530" result="shape"/>
</filter>
<linearGradient id="paint0_linear_337_1530" x1="130.894" y1="51.5209" x2="130.894" y2="238.578" gradientUnits="userSpaceOnUse">
<stop stop-color="#CC6B7D"/>
<stop offset="1" stop-color="#7E1B2D"/>
</linearGradient>
<linearGradient id="paint1_linear_337_1530" x1="130.894" y1="48.7052" x2="130.894" y2="238.578" gradientUnits="userSpaceOnUse">
<stop stop-color="#CC6B7D"/>
<stop offset="1" stop-color="#7E1B2D"/>
</linearGradient>
<linearGradient id="paint2_linear_337_1530" x1="130.894" y1="48.4224" x2="130.894" y2="238.578" gradientUnits="userSpaceOnUse">
<stop stop-color="#F8F8FB"/>
<stop offset="1" stop-color="#F8F8FB"/>
</linearGradient>
</defs>
</svg>
