<svg width="256" height="94" viewBox="0 0 256 94" fill="none" xmlns="http://www.w3.org/2000/svg">
<path d="M85.608 19C85.416 19 85.26 18.944 85.14 18.832C85.028 18.712 84.972 18.564 84.972 18.388V11.212C84.972 11.036 85.032 10.892 85.152 10.78C85.272 10.66 85.416 10.6 85.584 10.6H89.64C89.816 10.6 89.96 10.656 90.072 10.768C90.192 10.88 90.252 11.02 90.252 11.188C90.252 11.34 90.192 11.472 90.072 11.584C89.96 11.696 89.816 11.752 89.64 11.752H86.136L86.22 11.632V14.308L86.148 14.164H89.1C89.276 14.164 89.42 14.22 89.532 14.332C89.652 14.444 89.712 14.584 89.712 14.752C89.712 14.904 89.652 15.036 89.532 15.148C89.42 15.26 89.276 15.316 89.1 15.316H86.124L86.22 15.22V18.388C86.22 18.564 86.16 18.712 86.04 18.832C85.92 18.944 85.776 19 85.608 19ZM92.7297 18.388C92.7297 18.564 92.6737 18.712 92.5617 18.832C92.4497 18.944 92.3057 19 92.1297 19C91.9617 19 91.8177 18.944 91.6977 18.832C91.5857 18.712 91.5297 18.564 91.5297 18.388V13.252C91.5297 13.076 91.5857 12.932 91.6977 12.82C91.8177 12.7 91.9617 12.64 92.1297 12.64C92.3057 12.64 92.4497 12.7 92.5617 12.82C92.6737 12.932 92.7297 13.076 92.7297 13.252V18.388ZM92.1177 11.848C91.8857 11.848 91.7177 11.808 91.6137 11.728C91.5097 11.64 91.4577 11.496 91.4577 11.296V11.104C91.4577 10.904 91.5137 10.764 91.6257 10.684C91.7377 10.604 91.9057 10.564 92.1297 10.564C92.3697 10.564 92.5417 10.608 92.6457 10.696C92.7497 10.776 92.8017 10.912 92.8017 11.104V11.296C92.8017 11.504 92.7457 11.648 92.6337 11.728C92.5297 11.808 92.3577 11.848 92.1177 11.848ZM95.6399 18.388C95.6399 18.564 95.5799 18.712 95.4599 18.832C95.3479 18.944 95.2079 19 95.0399 19C94.8719 19 94.7279 18.944 94.6079 18.832C94.4959 18.712 94.4399 18.564 94.4399 18.388V10.732C94.4399 10.556 94.4999 10.412 94.6199 10.3C94.7399 10.18 94.8839 10.12 95.0519 10.12C95.2279 10.12 95.3679 10.18 95.4719 10.3C95.5839 10.412 95.6399 10.556 95.6399 10.732V18.388ZM100.249 19.12C99.5848 19.12 99.0088 18.984 98.5208 18.712C98.0328 18.432 97.6528 18.052 97.3808 17.572C97.1168 17.084 96.9848 16.528 96.9848 15.904C96.9848 15.2 97.1248 14.6 97.4048 14.104C97.6928 13.6 98.0648 13.216 98.5208 12.952C98.9768 12.68 99.4608 12.544 99.9728 12.544C100.365 12.544 100.737 12.624 101.089 12.784C101.441 12.936 101.753 13.152 102.025 13.432C102.305 13.704 102.525 14.028 102.685 14.404C102.845 14.772 102.929 15.176 102.937 15.616C102.929 15.776 102.865 15.908 102.745 16.012C102.625 16.116 102.485 16.168 102.325 16.168H97.6568L97.3688 15.148H101.881L101.653 15.364V15.064C101.637 14.784 101.545 14.54 101.377 14.332C101.209 14.116 101.001 13.952 100.753 13.84C100.505 13.72 100.245 13.66 99.9728 13.66C99.7328 13.66 99.5008 13.7 99.2768 13.78C99.0608 13.852 98.8648 13.972 98.6888 14.14C98.5208 14.308 98.3848 14.532 98.2808 14.812C98.1848 15.084 98.1368 15.424 98.1368 15.832C98.1368 16.272 98.2288 16.656 98.4128 16.984C98.5968 17.312 98.8448 17.568 99.1568 17.752C99.4688 17.928 99.8128 18.016 100.189 18.016C100.485 18.016 100.729 17.988 100.921 17.932C101.113 17.868 101.273 17.792 101.401 17.704C101.529 17.616 101.641 17.532 101.737 17.452C101.857 17.38 101.977 17.344 102.097 17.344C102.241 17.344 102.361 17.396 102.457 17.5C102.553 17.596 102.601 17.712 102.601 17.848C102.601 18.024 102.513 18.184 102.337 18.328C102.121 18.536 101.821 18.72 101.437 18.88C101.061 19.04 100.665 19.12 100.249 19.12ZM103.921 18.016C103.849 17.904 103.817 17.776 103.825 17.632C103.833 17.48 103.917 17.352 104.077 17.248C104.189 17.176 104.305 17.148 104.425 17.164C104.553 17.172 104.673 17.232 104.785 17.344C105.009 17.592 105.257 17.788 105.529 17.932C105.809 18.076 106.145 18.148 106.537 18.148C106.697 18.14 106.861 18.116 107.029 18.076C107.197 18.028 107.341 17.948 107.461 17.836C107.581 17.716 107.641 17.544 107.641 17.32C107.641 17.12 107.577 16.96 107.449 16.84C107.321 16.72 107.153 16.624 106.945 16.552C106.737 16.472 106.513 16.4 106.273 16.336C106.017 16.264 105.757 16.184 105.493 16.096C105.237 16.008 105.005 15.896 104.797 15.76C104.589 15.616 104.417 15.432 104.281 15.208C104.153 14.984 104.089 14.708 104.089 14.38C104.089 14.004 104.193 13.68 104.401 13.408C104.617 13.136 104.893 12.924 105.229 12.772C105.573 12.62 105.945 12.544 106.345 12.544C106.577 12.544 106.821 12.576 107.077 12.64C107.333 12.696 107.581 12.788 107.821 12.916C108.061 13.044 108.269 13.212 108.445 13.42C108.525 13.524 108.569 13.648 108.577 13.792C108.593 13.936 108.529 14.064 108.385 14.176C108.289 14.256 108.173 14.292 108.037 14.284C107.901 14.276 107.789 14.232 107.701 14.152C107.549 13.96 107.353 13.812 107.113 13.708C106.873 13.596 106.601 13.54 106.297 13.54C106.145 13.54 105.985 13.564 105.817 13.612C105.657 13.652 105.521 13.728 105.409 13.84C105.297 13.952 105.241 14.116 105.241 14.332C105.241 14.532 105.305 14.692 105.433 14.812C105.569 14.932 105.745 15.032 105.961 15.112C106.177 15.192 106.413 15.264 106.669 15.328C106.917 15.392 107.161 15.468 107.401 15.556C107.649 15.644 107.869 15.76 108.061 15.904C108.261 16.04 108.421 16.22 108.541 16.444C108.669 16.66 108.733 16.936 108.733 17.272C108.733 17.664 108.617 18 108.385 18.28C108.161 18.552 107.873 18.76 107.521 18.904C107.177 19.048 106.813 19.12 106.429 19.12C105.973 19.12 105.517 19.04 105.061 18.88C104.613 18.712 104.233 18.424 103.921 18.016ZM119.459 11.08C119.635 11.168 119.735 11.304 119.759 11.488C119.791 11.672 119.747 11.84 119.627 11.992C119.539 12.112 119.423 12.18 119.279 12.196C119.143 12.212 119.007 12.184 118.871 12.112C118.639 11.992 118.395 11.896 118.139 11.824C117.883 11.752 117.611 11.716 117.323 11.716C116.867 11.716 116.455 11.792 116.087 11.944C115.727 12.088 115.415 12.3 115.151 12.58C114.887 12.852 114.683 13.176 114.539 13.552C114.403 13.928 114.335 14.344 114.335 14.8C114.335 15.304 114.411 15.752 114.563 16.144C114.715 16.528 114.923 16.856 115.187 17.128C115.459 17.392 115.775 17.592 116.135 17.728C116.503 17.856 116.899 17.92 117.323 17.92C117.595 17.92 117.859 17.888 118.115 17.824C118.379 17.76 118.627 17.664 118.859 17.536C119.003 17.464 119.143 17.44 119.279 17.464C119.423 17.48 119.539 17.548 119.627 17.668C119.763 17.836 119.811 18.008 119.771 18.184C119.739 18.352 119.639 18.48 119.471 18.568C119.271 18.68 119.051 18.776 118.811 18.856C118.571 18.936 118.327 19 118.079 19.048C117.831 19.096 117.579 19.12 117.323 19.12C116.747 19.12 116.203 19.024 115.691 18.832C115.179 18.64 114.723 18.36 114.323 17.992C113.923 17.624 113.607 17.172 113.375 16.636C113.151 16.1 113.039 15.488 113.039 14.8C113.039 14.184 113.143 13.616 113.351 13.096C113.567 12.568 113.867 12.116 114.251 11.74C114.643 11.356 115.099 11.06 115.619 10.852C116.139 10.636 116.707 10.528 117.323 10.528C117.707 10.528 118.079 10.576 118.439 10.672C118.807 10.768 119.147 10.904 119.459 11.08ZM122.288 18.388C122.288 18.564 122.228 18.712 122.108 18.832C121.996 18.944 121.856 19 121.688 19C121.52 19 121.376 18.944 121.256 18.832C121.144 18.712 121.088 18.564 121.088 18.388V10.732C121.088 10.556 121.148 10.412 121.268 10.3C121.388 10.18 121.532 10.12 121.7 10.12C121.876 10.12 122.016 10.18 122.12 10.3C122.232 10.412 122.288 10.556 122.288 10.732V18.388ZM130.005 15.844C130.005 16.484 129.865 17.052 129.585 17.548C129.305 18.036 128.925 18.42 128.445 18.7C127.965 18.98 127.425 19.12 126.825 19.12C126.225 19.12 125.685 18.98 125.205 18.7C124.725 18.42 124.341 18.036 124.053 17.548C123.773 17.052 123.633 16.484 123.633 15.844C123.633 15.196 123.773 14.628 124.053 14.14C124.341 13.644 124.725 13.256 125.205 12.976C125.685 12.688 126.225 12.544 126.825 12.544C127.425 12.544 127.965 12.688 128.445 12.976C128.925 13.256 129.305 13.644 129.585 14.14C129.865 14.628 130.005 15.196 130.005 15.844ZM128.805 15.844C128.805 15.404 128.717 15.024 128.541 14.704C128.365 14.376 128.125 14.12 127.821 13.936C127.525 13.744 127.193 13.648 126.825 13.648C126.457 13.648 126.121 13.744 125.817 13.936C125.513 14.12 125.273 14.376 125.097 14.704C124.921 15.024 124.833 15.404 124.833 15.844C124.833 16.268 124.921 16.644 125.097 16.972C125.273 17.3 125.513 17.556 125.817 17.74C126.121 17.924 126.457 18.016 126.825 18.016C127.193 18.016 127.525 17.924 127.821 17.74C128.125 17.556 128.365 17.3 128.541 16.972C128.717 16.644 128.805 16.268 128.805 15.844ZM134.615 12.544C135.183 12.544 135.623 12.664 135.935 12.904C136.247 13.136 136.463 13.452 136.583 13.852C136.711 14.244 136.775 14.684 136.775 15.172V18.388C136.775 18.564 136.715 18.712 136.595 18.832C136.483 18.944 136.343 19 136.175 19C135.999 19 135.855 18.944 135.743 18.832C135.631 18.712 135.575 18.564 135.575 18.388V15.184C135.575 14.896 135.535 14.64 135.455 14.416C135.375 14.184 135.235 14 135.035 13.864C134.843 13.72 134.571 13.648 134.219 13.648C133.891 13.648 133.603 13.72 133.355 13.864C133.107 14 132.911 14.184 132.767 14.416C132.631 14.64 132.563 14.896 132.563 15.184V18.388C132.563 18.564 132.503 18.712 132.383 18.832C132.271 18.944 132.131 19 131.963 19C131.787 19 131.643 18.944 131.531 18.832C131.419 18.712 131.363 18.564 131.363 18.388V13.3C131.363 13.124 131.419 12.98 131.531 12.868C131.643 12.748 131.787 12.688 131.963 12.688C132.131 12.688 132.271 12.748 132.383 12.868C132.503 12.98 132.563 13.124 132.563 13.3V13.972L132.347 14.092C132.403 13.916 132.499 13.74 132.635 13.564C132.779 13.38 132.951 13.212 133.151 13.06C133.351 12.9 133.575 12.776 133.823 12.688C134.071 12.592 134.335 12.544 134.615 12.544ZM141.382 19.12C140.718 19.12 140.142 18.984 139.654 18.712C139.166 18.432 138.786 18.052 138.514 17.572C138.25 17.084 138.118 16.528 138.118 15.904C138.118 15.2 138.258 14.6 138.538 14.104C138.826 13.6 139.198 13.216 139.654 12.952C140.11 12.68 140.594 12.544 141.106 12.544C141.498 12.544 141.87 12.624 142.222 12.784C142.574 12.936 142.886 13.152 143.158 13.432C143.438 13.704 143.658 14.028 143.818 14.404C143.978 14.772 144.062 15.176 144.07 15.616C144.062 15.776 143.998 15.908 143.878 16.012C143.758 16.116 143.618 16.168 143.458 16.168H138.79L138.502 15.148H143.014L142.786 15.364V15.064C142.77 14.784 142.678 14.54 142.51 14.332C142.342 14.116 142.134 13.952 141.886 13.84C141.638 13.72 141.378 13.66 141.106 13.66C140.866 13.66 140.634 13.7 140.41 13.78C140.194 13.852 139.998 13.972 139.822 14.14C139.654 14.308 139.518 14.532 139.414 14.812C139.318 15.084 139.27 15.424 139.27 15.832C139.27 16.272 139.362 16.656 139.546 16.984C139.73 17.312 139.978 17.568 140.29 17.752C140.602 17.928 140.946 18.016 141.322 18.016C141.618 18.016 141.862 17.988 142.054 17.932C142.246 17.868 142.406 17.792 142.534 17.704C142.662 17.616 142.774 17.532 142.87 17.452C142.99 17.38 143.11 17.344 143.23 17.344C143.374 17.344 143.494 17.396 143.59 17.5C143.686 17.596 143.734 17.712 143.734 17.848C143.734 18.024 143.646 18.184 143.47 18.328C143.254 18.536 142.954 18.72 142.57 18.88C142.194 19.04 141.798 19.12 141.382 19.12ZM150.598 10.12C150.774 10.12 150.918 10.176 151.03 10.288C151.142 10.4 151.198 10.548 151.198 10.732V18.388C151.198 18.564 151.142 18.712 151.03 18.832C150.918 18.944 150.774 19 150.598 19C150.43 19 150.286 18.944 150.166 18.832C150.054 18.712 149.998 18.564 149.998 18.388V17.524L150.25 17.536C150.25 17.68 150.19 17.844 150.07 18.028C149.958 18.204 149.802 18.376 149.602 18.544C149.402 18.712 149.166 18.852 148.894 18.964C148.622 19.068 148.33 19.12 148.018 19.12C147.466 19.12 146.97 18.98 146.53 18.7C146.09 18.412 145.742 18.024 145.486 17.536C145.23 17.04 145.102 16.472 145.102 15.832C145.102 15.192 145.23 14.628 145.486 14.14C145.742 13.644 146.086 13.256 146.518 12.976C146.958 12.688 147.446 12.544 147.982 12.544C148.318 12.544 148.63 12.6 148.918 12.712C149.214 12.824 149.47 12.968 149.686 13.144C149.902 13.32 150.07 13.508 150.19 13.708C150.31 13.9 150.37 14.084 150.37 14.26L149.998 14.296V10.732C149.998 10.556 150.054 10.412 150.166 10.3C150.286 10.18 150.43 10.12 150.598 10.12ZM148.15 18.016C148.534 18.016 148.866 17.92 149.146 17.728C149.434 17.536 149.658 17.276 149.818 16.948C149.978 16.62 150.058 16.248 150.058 15.832C150.058 15.416 149.978 15.044 149.818 14.716C149.658 14.388 149.434 14.128 149.146 13.936C148.858 13.744 148.526 13.648 148.15 13.648C147.782 13.648 147.454 13.744 147.166 13.936C146.886 14.128 146.662 14.388 146.494 14.716C146.334 15.044 146.254 15.416 146.254 15.832C146.254 16.248 146.334 16.62 146.494 16.948C146.662 17.276 146.886 17.536 147.166 17.728C147.454 17.92 147.782 18.016 148.15 18.016Z" fill="#9591AF"/>
<path d="M64.972 6.382C65.248 6.382 65.482 6.49 65.674 6.706C65.878 6.922 65.98 7.15 65.98 7.39C65.98 7.618 65.902 7.834 65.746 8.038L62.128 12.808L60.904 11.134L64.09 6.904C64.342 6.556 64.636 6.382 64.972 6.382ZM56.944 6.346C57.292 6.346 57.586 6.502 57.826 6.814L65.746 17.344C65.89 17.536 65.962 17.758 65.962 18.01C65.962 18.346 65.842 18.61 65.602 18.802C65.362 18.994 65.122 19.09 64.882 19.09C64.534 19.09 64.24 18.934 64 18.622L56.08 8.092C55.924 7.9 55.846 7.684 55.846 7.444C55.846 7.132 55.96 6.874 56.188 6.67C56.428 6.454 56.68 6.346 56.944 6.346ZM56.782 19.09C56.518 19.09 56.29 18.994 56.098 18.802C55.906 18.598 55.81 18.376 55.81 18.136C55.81 17.872 55.9 17.626 56.08 17.398L59.734 12.448L60.922 14.194L57.682 18.586C57.442 18.922 57.142 19.09 56.782 19.09ZM76.7669 6.382C77.0429 6.382 77.2769 6.49 77.4689 6.706C77.6729 6.922 77.7749 7.15 77.7749 7.39C77.7749 7.618 77.6969 7.834 77.5409 8.038L73.9229 12.808L72.6989 11.134L75.8849 6.904C76.1369 6.556 76.4309 6.382 76.7669 6.382ZM68.7389 6.346C69.0869 6.346 69.3809 6.502 69.6209 6.814L77.5409 17.344C77.6849 17.536 77.7569 17.758 77.7569 18.01C77.7569 18.346 77.6369 18.61 77.3969 18.802C77.1569 18.994 76.9169 19.09 76.6769 19.09C76.3289 19.09 76.0349 18.934 75.7949 18.622L67.8749 8.092C67.7189 7.9 67.6409 7.684 67.6409 7.444C67.6409 7.132 67.7549 6.874 67.9829 6.67C68.2229 6.454 68.4749 6.346 68.7389 6.346ZM68.5769 19.09C68.3129 19.09 68.0849 18.994 67.8929 18.802C67.7009 18.598 67.6049 18.376 67.6049 18.136C67.6049 17.872 67.6949 17.626 67.8749 17.398L71.5289 12.448L72.7169 14.194L69.4769 18.586C69.2369 18.922 68.9369 19.09 68.5769 19.09Z" fill="#19191F"/>
<path d="M0 35H256V78C256 86.8366 248.837 94 240 94H16C7.16344 94 0 86.8366 0 78V35Z" fill="#F9F9FD"/>
<path d="M17.34 58C17.18 58 17.05 57.9533 16.95 57.86C16.8567 57.76 16.81 57.6367 16.81 57.49V51.51C16.81 51.3633 16.86 51.2433 16.96 51.15C17.06 51.05 17.18 51 17.32 51H20.7C20.8467 51 20.9667 51.0467 21.06 51.14C21.16 51.2333 21.21 51.35 21.21 51.49C21.21 51.6167 21.16 51.7267 21.06 51.82C20.9667 51.9133 20.8467 51.96 20.7 51.96H17.78L17.85 51.86V54.09L17.79 53.97H20.25C20.3967 53.97 20.5167 54.0167 20.61 54.11C20.71 54.2033 20.76 54.32 20.76 54.46C20.76 54.5867 20.71 54.6967 20.61 54.79C20.5167 54.8833 20.3967 54.93 20.25 54.93H17.77L17.85 54.85V57.49C17.85 57.6367 17.8 57.76 17.7 57.86C17.6 57.9533 17.48 58 17.34 58ZM23.2748 57.49C23.2748 57.6367 23.2281 57.76 23.1348 57.86C23.0414 57.9533 22.9214 58 22.7748 58C22.6348 58 22.5148 57.9533 22.4148 57.86C22.3214 57.76 22.2748 57.6367 22.2748 57.49V53.21C22.2748 53.0633 22.3214 52.9433 22.4148 52.85C22.5148 52.75 22.6348 52.7 22.7748 52.7C22.9214 52.7 23.0414 52.75 23.1348 52.85C23.2281 52.9433 23.2748 53.0633 23.2748 53.21V57.49ZM22.7648 52.04C22.5714 52.04 22.4314 52.0067 22.3448 51.94C22.2581 51.8667 22.2148 51.7467 22.2148 51.58V51.42C22.2148 51.2533 22.2614 51.1367 22.3548 51.07C22.4481 51.0033 22.5881 50.97 22.7748 50.97C22.9748 50.97 23.1181 51.0067 23.2048 51.08C23.2914 51.1467 23.3348 51.26 23.3348 51.42V51.58C23.3348 51.7533 23.2881 51.8733 23.1948 51.94C23.1081 52.0067 22.9648 52.04 22.7648 52.04ZM25.6999 57.49C25.6999 57.6367 25.6499 57.76 25.5499 57.86C25.4566 57.9533 25.3399 58 25.1999 58C25.0599 58 24.9399 57.9533 24.8399 57.86C24.7466 57.76 24.6999 57.6367 24.6999 57.49V51.11C24.6999 50.9633 24.7499 50.8433 24.8499 50.75C24.9499 50.65 25.0699 50.6 25.2099 50.6C25.3566 50.6 25.4733 50.65 25.5599 50.75C25.6533 50.8433 25.6999 50.9633 25.6999 51.11V57.49ZM29.5406 58.1C28.9873 58.1 28.5073 57.9867 28.1006 57.76C27.694 57.5267 27.3773 57.21 27.1506 56.81C26.9306 56.4033 26.8206 55.94 26.8206 55.42C26.8206 54.8333 26.9373 54.3333 27.1706 53.92C27.4106 53.5 27.7206 53.18 28.1006 52.96C28.4806 52.7333 28.884 52.62 29.3106 52.62C29.6373 52.62 29.9473 52.6867 30.2406 52.82C30.534 52.9467 30.794 53.1267 31.0206 53.36C31.254 53.5867 31.4373 53.8567 31.5706 54.17C31.704 54.4767 31.774 54.8133 31.7806 55.18C31.774 55.3133 31.7206 55.4233 31.6206 55.51C31.5206 55.5967 31.404 55.64 31.2706 55.64H27.3806L27.1406 54.79H30.9006L30.7106 54.97V54.72C30.6973 54.4867 30.6206 54.2833 30.4806 54.11C30.3406 53.93 30.1673 53.7933 29.9606 53.7C29.754 53.6 29.5373 53.55 29.3106 53.55C29.1106 53.55 28.9173 53.5833 28.7306 53.65C28.5506 53.71 28.3873 53.81 28.2406 53.95C28.1006 54.09 27.9873 54.2767 27.9006 54.51C27.8206 54.7367 27.7806 55.02 27.7806 55.36C27.7806 55.7267 27.8573 56.0467 28.0106 56.32C28.164 56.5933 28.3706 56.8067 28.6306 56.96C28.8906 57.1067 29.1773 57.18 29.4906 57.18C29.7373 57.18 29.9406 57.1567 30.1006 57.11C30.2606 57.0567 30.394 56.9933 30.5006 56.92C30.6073 56.8467 30.7006 56.7767 30.7806 56.71C30.8806 56.65 30.9806 56.62 31.0806 56.62C31.2006 56.62 31.3006 56.6633 31.3806 56.75C31.4606 56.83 31.5006 56.9267 31.5006 57.04C31.5006 57.1867 31.4273 57.32 31.2806 57.44C31.1006 57.6133 30.8506 57.7667 30.5306 57.9C30.2173 58.0333 29.8873 58.1 29.5406 58.1ZM41.0541 51C41.1875 51 41.2941 51.0467 41.3741 51.14C41.4608 51.2267 41.5041 51.3367 41.5041 51.47V57.49C41.5041 57.6367 41.4541 57.76 41.3541 57.86C41.2608 57.9533 41.1408 58 40.9941 58C40.9275 58 40.8541 57.9867 40.7741 57.96C40.7008 57.9333 40.6441 57.8967 40.6041 57.85L36.4941 52.52L36.7241 52.39V57.54C36.7241 57.6667 36.6808 57.7767 36.5941 57.87C36.5075 57.9567 36.3975 58 36.2641 58C36.1241 58 36.0108 57.9567 35.9241 57.87C35.8441 57.7767 35.8041 57.6667 35.8041 57.54V51.51C35.8041 51.3567 35.8541 51.2333 35.9541 51.14C36.0541 51.0467 36.1741 51 36.3141 51C36.3875 51 36.4641 51.0167 36.5441 51.05C36.6308 51.0767 36.6941 51.12 36.7341 51.18L40.7441 56.4L40.5941 56.54V51.47C40.5941 51.3367 40.6375 51.2267 40.7241 51.14C40.8108 51.0467 40.9208 51 41.0541 51ZM47.3381 52.66C47.4848 52.66 47.6048 52.71 47.6981 52.81C47.7915 52.9033 47.8381 53.0233 47.8381 53.17V57.49C47.8381 57.6367 47.7915 57.76 47.6981 57.86C47.6048 57.9533 47.4848 58 47.3381 58C47.1981 58 47.0781 57.9533 46.9781 57.86C46.8848 57.76 46.8381 57.6367 46.8381 57.49V56.77L47.0481 56.8C47.0481 56.92 46.9981 57.0533 46.8981 57.2C46.8048 57.3467 46.6748 57.49 46.5081 57.63C46.3415 57.7633 46.1448 57.8767 45.9181 57.97C45.6915 58.0567 45.4481 58.1 45.1881 58.1C44.7281 58.1 44.3148 57.9833 43.9481 57.75C43.5815 57.51 43.2915 57.1833 43.0781 56.77C42.8648 56.3567 42.7581 55.8867 42.7581 55.36C42.7581 54.82 42.8648 54.3467 43.0781 53.94C43.2915 53.5267 43.5781 53.2033 43.9381 52.97C44.3048 52.7367 44.7115 52.62 45.1581 52.62C45.4448 52.62 45.7081 52.6667 45.9481 52.76C46.1948 52.8533 46.4081 52.9733 46.5881 53.12C46.7681 53.2667 46.9048 53.4233 46.9981 53.59C47.0981 53.75 47.1481 53.9033 47.1481 54.05L46.8381 54.08V53.17C46.8381 53.03 46.8848 52.91 46.9781 52.81C47.0781 52.71 47.1981 52.66 47.3381 52.66ZM45.2981 57.18C45.6115 57.18 45.8881 57.1 46.1281 56.94C46.3681 56.78 46.5548 56.5633 46.6881 56.29C46.8215 56.01 46.8881 55.7 46.8881 55.36C46.8881 55.0133 46.8215 54.7033 46.6881 54.43C46.5548 54.1567 46.3681 53.94 46.1281 53.78C45.8881 53.62 45.6115 53.54 45.2981 53.54C44.9915 53.54 44.7181 53.62 44.4781 53.78C44.2448 53.94 44.0581 54.1567 43.9181 54.43C43.7848 54.7033 43.7181 55.0133 43.7181 55.36C43.7181 55.7 43.7848 56.01 43.9181 56.29C44.0581 56.5633 44.2448 56.78 44.4781 56.94C44.7181 57.1 44.9915 57.18 45.2981 57.18ZM51.8791 52.65C52.3724 52.65 52.7524 52.7733 53.0191 53.02C53.2857 53.26 53.4624 53.5867 53.5491 54L53.3891 53.95L53.4591 53.79C53.5457 53.6167 53.6757 53.4433 53.8491 53.27C54.0291 53.09 54.2424 52.9433 54.4891 52.83C54.7357 52.71 54.9991 52.65 55.2791 52.65C55.7391 52.65 56.0957 52.75 56.3491 52.95C56.6024 53.1433 56.7791 53.4067 56.8791 53.74C56.9791 54.0667 57.0291 54.4333 57.0291 54.84V57.49C57.0291 57.6367 56.9824 57.76 56.8891 57.86C56.7957 57.9533 56.6757 58 56.5291 58C56.3891 58 56.2691 57.9533 56.1691 57.86C56.0757 57.76 56.0291 57.6367 56.0291 57.49V54.85C56.0291 54.6167 55.9957 54.4033 55.9291 54.21C55.8691 54.0167 55.7591 53.8633 55.5991 53.75C55.4457 53.63 55.2324 53.57 54.9591 53.57C54.6991 53.57 54.4657 53.63 54.2591 53.75C54.0591 53.8633 53.9024 54.0167 53.7891 54.21C53.6757 54.4033 53.6191 54.6167 53.6191 54.85V57.49C53.6191 57.6367 53.5724 57.76 53.4791 57.86C53.3857 57.9533 53.2657 58 53.1191 58C52.9724 58 52.8524 57.9533 52.7591 57.86C52.6657 57.76 52.6191 57.6367 52.6191 57.49V54.84C52.6191 54.6067 52.5857 54.3933 52.5191 54.2C52.4591 54.0067 52.3524 53.8533 52.1991 53.74C52.0457 53.6267 51.8324 53.57 51.5591 53.57C51.2991 53.57 51.0691 53.6267 50.8691 53.74C50.6691 53.8533 50.5124 54.0067 50.3991 54.2C50.2924 54.3933 50.2391 54.6067 50.2391 54.84V57.49C50.2391 57.6367 50.1891 57.76 50.0891 57.86C49.9957 57.9533 49.8791 58 49.7391 58C49.5924 58 49.4724 57.9533 49.3791 57.86C49.2857 57.76 49.2391 57.6367 49.2391 57.49V53.25C49.2391 53.1033 49.2857 52.9833 49.3791 52.89C49.4724 52.79 49.5924 52.74 49.7391 52.74C49.8791 52.74 49.9957 52.79 50.0891 52.89C50.1891 52.9833 50.2391 53.1033 50.2391 53.25V53.84L50.0491 53.95C50.0957 53.8033 50.1724 53.6533 50.2791 53.5C50.3857 53.3467 50.5191 53.2067 50.6791 53.08C50.8457 52.9533 51.0291 52.85 51.2291 52.77C51.4291 52.69 51.6457 52.65 51.8791 52.65ZM60.8785 58.1C60.3252 58.1 59.8452 57.9867 59.4385 57.76C59.0318 57.5267 58.7152 57.21 58.4885 56.81C58.2685 56.4033 58.1585 55.94 58.1585 55.42C58.1585 54.8333 58.2752 54.3333 58.5085 53.92C58.7485 53.5 59.0585 53.18 59.4385 52.96C59.8185 52.7333 60.2218 52.62 60.6485 52.62C60.9752 52.62 61.2852 52.6867 61.5785 52.82C61.8718 52.9467 62.1318 53.1267 62.3585 53.36C62.5918 53.5867 62.7752 53.8567 62.9085 54.17C63.0418 54.4767 63.1118 54.8133 63.1185 55.18C63.1118 55.3133 63.0585 55.4233 62.9585 55.51C62.8585 55.5967 62.7418 55.64 62.6085 55.64H58.7185L58.4785 54.79H62.2385L62.0485 54.97V54.72C62.0352 54.4867 61.9585 54.2833 61.8185 54.11C61.6785 53.93 61.5052 53.7933 61.2985 53.7C61.0918 53.6 60.8752 53.55 60.6485 53.55C60.4485 53.55 60.2552 53.5833 60.0685 53.65C59.8885 53.71 59.7252 53.81 59.5785 53.95C59.4385 54.09 59.3252 54.2767 59.2385 54.51C59.1585 54.7367 59.1185 55.02 59.1185 55.36C59.1185 55.7267 59.1952 56.0467 59.3485 56.32C59.5018 56.5933 59.7085 56.8067 59.9685 56.96C60.2285 57.1067 60.5152 57.18 60.8285 57.18C61.0752 57.18 61.2785 57.1567 61.4385 57.11C61.5985 57.0567 61.7318 56.9933 61.8385 56.92C61.9452 56.8467 62.0385 56.7767 62.1185 56.71C62.2185 56.65 62.3185 56.62 62.4185 56.62C62.5385 56.62 62.6385 56.6633 62.7185 56.75C62.7985 56.83 62.8385 56.9267 62.8385 57.04C62.8385 57.1867 62.7652 57.32 62.6185 57.44C62.4385 57.6133 62.1885 57.7667 61.8685 57.9C61.5552 58.0333 61.2252 58.1 60.8785 58.1Z" fill="#19191F"/>
<path d="M22.036 68.12C22.244 68.12 22.416 68.188 22.552 68.324C22.688 68.46 22.756 68.636 22.756 68.852V76.268C22.756 76.476 22.688 76.652 22.552 76.796C22.416 76.932 22.244 77 22.036 77C21.828 77 21.656 76.932 21.52 76.796C21.384 76.652 21.316 76.476 21.316 76.268V75.68L21.58 75.788C21.58 75.892 21.524 76.02 21.412 76.172C21.3 76.316 21.148 76.46 20.956 76.604C20.764 76.748 20.536 76.872 20.272 76.976C20.016 77.072 19.736 77.12 19.432 77.12C18.88 77.12 18.38 76.98 17.932 76.7C17.484 76.412 17.128 76.02 16.864 75.524C16.608 75.02 16.48 74.444 16.48 73.796C16.48 73.14 16.608 72.564 16.864 72.068C17.128 71.564 17.48 71.172 17.92 70.892C18.36 70.604 18.848 70.46 19.384 70.46C19.728 70.46 20.044 70.512 20.332 70.616C20.62 70.72 20.868 70.852 21.076 71.012C21.292 71.172 21.456 71.336 21.568 71.504C21.688 71.664 21.748 71.8 21.748 71.912L21.316 72.068V68.852C21.316 68.644 21.384 68.472 21.52 68.336C21.656 68.192 21.828 68.12 22.036 68.12ZM19.612 75.8C19.964 75.8 20.272 75.712 20.536 75.536C20.8 75.36 21.004 75.12 21.148 74.816C21.3 74.512 21.376 74.172 21.376 73.796C21.376 73.412 21.3 73.068 21.148 72.764C21.004 72.46 20.8 72.22 20.536 72.044C20.272 71.868 19.964 71.78 19.612 71.78C19.268 71.78 18.964 71.868 18.7 72.044C18.436 72.22 18.228 72.46 18.076 72.764C17.932 73.068 17.86 73.412 17.86 73.796C17.86 74.172 17.932 74.512 18.076 74.816C18.228 75.12 18.436 75.36 18.7 75.536C18.964 75.712 19.268 75.8 19.612 75.8ZM29.5712 70.46C29.7792 70.46 29.9512 70.528 30.0872 70.664C30.2232 70.8 30.2912 70.976 30.2912 71.192V76.268C30.2912 76.476 30.2232 76.652 30.0872 76.796C29.9512 76.932 29.7792 77 29.5712 77C29.3632 77 29.1912 76.932 29.0552 76.796C28.9192 76.652 28.8512 76.476 28.8512 76.268V75.68L29.1152 75.788C29.1152 75.892 29.0592 76.02 28.9472 76.172C28.8352 76.316 28.6832 76.46 28.4912 76.604C28.2992 76.748 28.0712 76.872 27.8072 76.976C27.5512 77.072 27.2712 77.12 26.9672 77.12C26.4152 77.12 25.9152 76.98 25.4672 76.7C25.0192 76.412 24.6632 76.02 24.3992 75.524C24.1432 75.02 24.0152 74.444 24.0152 73.796C24.0152 73.14 24.1432 72.564 24.3992 72.068C24.6632 71.564 25.0152 71.172 25.4552 70.892C25.8952 70.604 26.3832 70.46 26.9192 70.46C27.2632 70.46 27.5792 70.512 27.8672 70.616C28.1552 70.72 28.4032 70.852 28.6112 71.012C28.8272 71.172 28.9912 71.336 29.1032 71.504C29.2232 71.664 29.2832 71.8 29.2832 71.912L28.8512 72.068V71.192C28.8512 70.984 28.9192 70.812 29.0552 70.676C29.1912 70.532 29.3632 70.46 29.5712 70.46ZM27.1472 75.8C27.4992 75.8 27.8072 75.712 28.0712 75.536C28.3352 75.36 28.5392 75.12 28.6832 74.816C28.8352 74.512 28.9112 74.172 28.9112 73.796C28.9112 73.412 28.8352 73.068 28.6832 72.764C28.5392 72.46 28.3352 72.22 28.0712 72.044C27.8072 71.868 27.4992 71.78 27.1472 71.78C26.8032 71.78 26.4992 71.868 26.2352 72.044C25.9712 72.22 25.7632 72.46 25.6112 72.764C25.4672 73.068 25.3952 73.412 25.3952 73.796C25.3952 74.172 25.4672 74.512 25.6112 74.816C25.7632 75.12 25.9712 75.36 26.2352 75.536C26.4992 75.712 26.8032 75.8 27.1472 75.8ZM31.9223 70.7H34.7663C34.9583 70.7 35.1183 70.764 35.2463 70.892C35.3743 71.02 35.4383 71.18 35.4383 71.372C35.4383 71.556 35.3743 71.712 35.2463 71.84C35.1183 71.96 34.9583 72.02 34.7663 72.02H31.9223C31.7303 72.02 31.5703 71.956 31.4423 71.828C31.3143 71.7 31.2503 71.54 31.2503 71.348C31.2503 71.164 31.3143 71.012 31.4423 70.892C31.5703 70.764 31.7303 70.7 31.9223 70.7ZM33.2063 69.2C33.4143 69.2 33.5823 69.272 33.7103 69.416C33.8463 69.552 33.9143 69.724 33.9143 69.932V75.272C33.9143 75.384 33.9343 75.476 33.9743 75.548C34.0223 75.62 34.0823 75.672 34.1543 75.704C34.2343 75.736 34.3183 75.752 34.4063 75.752C34.5023 75.752 34.5903 75.736 34.6703 75.704C34.7503 75.664 34.8423 75.644 34.9463 75.644C35.0583 75.644 35.1583 75.696 35.2463 75.8C35.3423 75.904 35.3903 76.048 35.3903 76.232C35.3903 76.456 35.2663 76.64 35.0183 76.784C34.7783 76.928 34.5183 77 34.2383 77C34.0703 77 33.8823 76.988 33.6743 76.964C33.4743 76.932 33.2823 76.864 33.0983 76.76C32.9223 76.648 32.7743 76.48 32.6543 76.256C32.5343 76.032 32.4743 75.724 32.4743 75.332V69.932C32.4743 69.724 32.5423 69.552 32.6783 69.416C32.8223 69.272 32.9983 69.2 33.2063 69.2ZM42.0165 70.46C42.2245 70.46 42.3965 70.528 42.5325 70.664C42.6685 70.8 42.7365 70.976 42.7365 71.192V76.268C42.7365 76.476 42.6685 76.652 42.5325 76.796C42.3965 76.932 42.2245 77 42.0165 77C41.8085 77 41.6365 76.932 41.5005 76.796C41.3645 76.652 41.2965 76.476 41.2965 76.268V75.68L41.5605 75.788C41.5605 75.892 41.5045 76.02 41.3925 76.172C41.2805 76.316 41.1285 76.46 40.9365 76.604C40.7445 76.748 40.5165 76.872 40.2525 76.976C39.9965 77.072 39.7165 77.12 39.4125 77.12C38.8605 77.12 38.3605 76.98 37.9125 76.7C37.4645 76.412 37.1085 76.02 36.8445 75.524C36.5885 75.02 36.4605 74.444 36.4605 73.796C36.4605 73.14 36.5885 72.564 36.8445 72.068C37.1085 71.564 37.4605 71.172 37.9005 70.892C38.3405 70.604 38.8285 70.46 39.3645 70.46C39.7085 70.46 40.0245 70.512 40.3125 70.616C40.6005 70.72 40.8485 70.852 41.0565 71.012C41.2725 71.172 41.4365 71.336 41.5485 71.504C41.6685 71.664 41.7285 71.8 41.7285 71.912L41.2965 72.068V71.192C41.2965 70.984 41.3645 70.812 41.5005 70.676C41.6365 70.532 41.8085 70.46 42.0165 70.46ZM39.5925 75.8C39.9445 75.8 40.2525 75.712 40.5165 75.536C40.7805 75.36 40.9845 75.12 41.1285 74.816C41.2805 74.512 41.3565 74.172 41.3565 73.796C41.3565 73.412 41.2805 73.068 41.1285 72.764C40.9845 72.46 40.7805 72.22 40.5165 72.044C40.2525 71.868 39.9445 71.78 39.5925 71.78C39.2485 71.78 38.9445 71.868 38.6805 72.044C38.4165 72.22 38.2085 72.46 38.0565 72.764C37.9125 73.068 37.8405 73.412 37.8405 73.796C37.8405 74.172 37.9125 74.512 38.0565 74.816C38.2085 75.12 38.4165 75.36 38.6805 75.536C38.9445 75.712 39.2485 75.8 39.5925 75.8ZM44.9316 76.988C44.6996 76.988 44.5196 76.928 44.3916 76.808C44.2716 76.68 44.2116 76.5 44.2116 76.268V76.064C44.2116 75.832 44.2716 75.656 44.3916 75.536C44.5196 75.408 44.6996 75.344 44.9316 75.344H45.0876C45.3196 75.344 45.4956 75.408 45.6156 75.536C45.7436 75.656 45.8076 75.832 45.8076 76.064V76.268C45.8076 76.5 45.7436 76.68 45.6156 76.808C45.4956 76.928 45.3196 76.988 45.0876 76.988H44.9316ZM47.3559 70.7H50.1999C50.3919 70.7 50.5519 70.764 50.6799 70.892C50.8079 71.02 50.8719 71.18 50.8719 71.372C50.8719 71.556 50.8079 71.712 50.6799 71.84C50.5519 71.96 50.3919 72.02 50.1999 72.02H47.3559C47.1639 72.02 47.0039 71.956 46.8759 71.828C46.7479 71.7 46.6839 71.54 46.6839 71.348C46.6839 71.164 46.7479 71.012 46.8759 70.892C47.0039 70.764 47.1639 70.7 47.3559 70.7ZM48.6399 69.2C48.8479 69.2 49.0159 69.272 49.1439 69.416C49.2799 69.552 49.3479 69.724 49.3479 69.932V75.272C49.3479 75.384 49.3679 75.476 49.4079 75.548C49.4559 75.62 49.5159 75.672 49.5879 75.704C49.6679 75.736 49.7519 75.752 49.8399 75.752C49.9359 75.752 50.0239 75.736 50.1039 75.704C50.1839 75.664 50.2759 75.644 50.3799 75.644C50.4919 75.644 50.5919 75.696 50.6799 75.8C50.7759 75.904 50.8239 76.048 50.8239 76.232C50.8239 76.456 50.6999 76.64 50.4519 76.784C50.2119 76.928 49.9519 77 49.6719 77C49.5039 77 49.3159 76.988 49.1079 76.964C48.9079 76.932 48.7159 76.864 48.5319 76.76C48.3559 76.648 48.2079 76.48 48.0879 76.256C47.9679 76.032 47.9079 75.724 47.9079 75.332V69.932C47.9079 69.724 47.9759 69.552 48.1119 69.416C48.2559 69.272 48.4319 69.2 48.6399 69.2ZM52.3261 70.58C52.5581 70.58 52.7541 70.68 52.9141 70.88L56.9221 75.86C57.0261 75.988 57.0781 76.132 57.0781 76.292C57.0781 76.492 57.0021 76.664 56.8501 76.808C56.6981 76.952 56.5301 77.024 56.3461 77.024C56.1141 77.024 55.9181 76.92 55.7581 76.712L51.7501 71.732C51.6461 71.604 51.5941 71.46 51.5941 71.3C51.5941 71.092 51.6661 70.92 51.8101 70.784C51.9621 70.648 52.1341 70.58 52.3261 70.58ZM52.3381 77.012C52.1781 77.012 52.0181 76.952 51.8581 76.832C51.7061 76.704 51.6301 76.552 51.6301 76.376C51.6301 76.216 51.6901 76.064 51.8101 75.92L53.6461 73.676L54.3661 74.876L52.9141 76.712C52.7621 76.912 52.5701 77.012 52.3381 77.012ZM56.3341 70.58C56.5261 70.58 56.6861 70.648 56.8141 70.784C56.9501 70.912 57.0181 71.06 57.0181 71.228C57.0181 71.308 57.0061 71.388 56.9821 71.468C56.9581 71.548 56.9141 71.624 56.8501 71.696L55.0381 73.904L54.2821 72.86L55.7581 70.904C55.9181 70.688 56.1101 70.58 56.3341 70.58ZM58.7114 70.7H61.5554C61.7474 70.7 61.9074 70.764 62.0354 70.892C62.1634 71.02 62.2274 71.18 62.2274 71.372C62.2274 71.556 62.1634 71.712 62.0354 71.84C61.9074 71.96 61.7474 72.02 61.5554 72.02H58.7114C58.5194 72.02 58.3594 71.956 58.2314 71.828C58.1034 71.7 58.0394 71.54 58.0394 71.348C58.0394 71.164 58.1034 71.012 58.2314 70.892C58.3594 70.764 58.5194 70.7 58.7114 70.7ZM59.9954 69.2C60.2034 69.2 60.3714 69.272 60.4994 69.416C60.6354 69.552 60.7034 69.724 60.7034 69.932V75.272C60.7034 75.384 60.7234 75.476 60.7634 75.548C60.8114 75.62 60.8714 75.672 60.9434 75.704C61.0234 75.736 61.1074 75.752 61.1954 75.752C61.2914 75.752 61.3794 75.736 61.4594 75.704C61.5394 75.664 61.6314 75.644 61.7354 75.644C61.8474 75.644 61.9474 75.696 62.0354 75.8C62.1314 75.904 62.1794 76.048 62.1794 76.232C62.1794 76.456 62.0554 76.64 61.8074 76.784C61.5674 76.928 61.3074 77 61.0274 77C60.8594 77 60.6714 76.988 60.4634 76.964C60.2634 76.932 60.0714 76.864 59.8874 76.76C59.7114 76.648 59.5634 76.48 59.4434 76.256C59.3234 76.032 59.2634 75.724 59.2634 75.332V69.932C59.2634 69.724 59.3314 69.552 59.4674 69.416C59.6114 69.272 59.7874 69.2 59.9954 69.2Z" fill="#5B588F"/>
<path d="M178.96 58.1C178.48 58.1 178.053 58.0333 177.68 57.9C177.307 57.7667 176.95 57.5467 176.61 57.24C176.537 57.1867 176.48 57.1233 176.44 57.05C176.407 56.97 176.39 56.89 176.39 56.81C176.39 56.6833 176.437 56.57 176.53 56.47C176.623 56.37 176.74 56.32 176.88 56.32C176.987 56.32 177.087 56.3567 177.18 56.43C177.433 56.6633 177.697 56.84 177.97 56.96C178.25 57.08 178.577 57.14 178.95 57.14C179.217 57.14 179.46 57.0967 179.68 57.01C179.907 56.9233 180.087 56.8067 180.22 56.66C180.353 56.5133 180.42 56.3433 180.42 56.15C180.42 55.91 180.35 55.7133 180.21 55.56C180.077 55.4 179.88 55.27 179.62 55.17C179.367 55.0633 179.06 54.9733 178.7 54.9C178.367 54.84 178.067 54.7567 177.8 54.65C177.54 54.5433 177.317 54.41 177.13 54.25C176.943 54.0833 176.8 53.8867 176.7 53.66C176.6 53.4333 176.55 53.17 176.55 52.87C176.55 52.4633 176.657 52.1133 176.87 51.82C177.083 51.5267 177.373 51.3 177.74 51.14C178.107 50.98 178.52 50.9 178.98 50.9C179.4 50.9 179.793 50.9667 180.16 51.1C180.527 51.2267 180.823 51.4 181.05 51.62C181.21 51.76 181.29 51.91 181.29 52.07C181.29 52.19 181.24 52.3033 181.14 52.41C181.047 52.51 180.937 52.56 180.81 52.56C180.717 52.56 180.637 52.5333 180.57 52.48C180.463 52.3667 180.32 52.2667 180.14 52.18C179.96 52.0867 179.767 52.01 179.56 51.95C179.36 51.89 179.167 51.86 178.98 51.86C178.68 51.86 178.423 51.9033 178.21 51.99C177.997 52.07 177.833 52.1833 177.72 52.33C177.607 52.47 177.55 52.6367 177.55 52.83C177.55 53.0567 177.613 53.2433 177.74 53.39C177.873 53.5367 178.057 53.6567 178.29 53.75C178.523 53.8367 178.79 53.9167 179.09 53.99C179.457 54.07 179.783 54.16 180.07 54.26C180.363 54.36 180.61 54.49 180.81 54.65C181.01 54.8033 181.163 54.9967 181.27 55.23C181.377 55.4633 181.43 55.7533 181.43 56.1C181.43 56.5 181.317 56.85 181.09 57.15C180.863 57.45 180.563 57.6833 180.19 57.85C179.823 58.0167 179.413 58.1 178.96 58.1ZM187.59 55.37C187.59 55.9033 187.473 56.3767 187.24 56.79C187.006 57.1967 186.69 57.5167 186.29 57.75C185.89 57.9833 185.44 58.1 184.94 58.1C184.44 58.1 183.99 57.9833 183.59 57.75C183.19 57.5167 182.87 57.1967 182.63 56.79C182.396 56.3767 182.28 55.9033 182.28 55.37C182.28 54.83 182.396 54.3567 182.63 53.95C182.87 53.5367 183.19 53.2133 183.59 52.98C183.99 52.74 184.44 52.62 184.94 52.62C185.44 52.62 185.89 52.74 186.29 52.98C186.69 53.2133 187.006 53.5367 187.24 53.95C187.473 54.3567 187.59 54.83 187.59 55.37ZM186.59 55.37C186.59 55.0033 186.516 54.6867 186.37 54.42C186.223 54.1467 186.023 53.9333 185.77 53.78C185.523 53.62 185.246 53.54 184.94 53.54C184.633 53.54 184.353 53.62 184.1 53.78C183.846 53.9333 183.646 54.1467 183.5 54.42C183.353 54.6867 183.28 55.0033 183.28 55.37C183.28 55.7233 183.353 56.0367 183.5 56.31C183.646 56.5833 183.846 56.7967 184.1 56.95C184.353 57.1033 184.633 57.18 184.94 57.18C185.246 57.18 185.523 57.1033 185.77 56.95C186.023 56.7967 186.223 56.5833 186.37 56.31C186.516 56.0367 186.59 55.7233 186.59 55.37ZM192.641 52.74C192.781 52.74 192.898 52.79 192.991 52.89C193.091 52.9833 193.141 53.1033 193.141 53.25V55.88C193.141 56.5733 192.948 57.1167 192.561 57.51C192.175 57.8967 191.628 58.09 190.921 58.09C190.221 58.09 189.678 57.8967 189.291 57.51C188.911 57.1167 188.721 56.5733 188.721 55.88V53.25C188.721 53.1033 188.768 52.9833 188.861 52.89C188.955 52.79 189.075 52.74 189.221 52.74C189.361 52.74 189.478 52.79 189.571 52.89C189.671 52.9833 189.721 53.1033 189.721 53.25V55.88C189.721 56.3133 189.821 56.6367 190.021 56.85C190.228 57.0633 190.528 57.17 190.921 57.17C191.321 57.17 191.625 57.0633 191.831 56.85C192.038 56.6367 192.141 56.3133 192.141 55.88V53.25C192.141 53.1033 192.188 52.9833 192.281 52.89C192.375 52.79 192.495 52.74 192.641 52.74ZM195.032 58C194.885 58 194.765 57.9533 194.672 57.86C194.579 57.76 194.532 57.6367 194.532 57.49V53.25C194.532 53.1033 194.579 52.9833 194.672 52.89C194.765 52.79 194.885 52.74 195.032 52.74C195.172 52.74 195.289 52.79 195.382 52.89C195.482 52.9833 195.532 53.1033 195.532 53.25V54.37L195.432 53.94C195.485 53.7533 195.565 53.58 195.672 53.42C195.785 53.26 195.919 53.12 196.072 53C196.225 52.88 196.395 52.7867 196.582 52.72C196.775 52.6533 196.975 52.62 197.182 52.62C197.355 52.62 197.505 52.6667 197.632 52.76C197.759 52.8533 197.822 52.97 197.822 53.11C197.822 53.29 197.775 53.4233 197.682 53.51C197.589 53.59 197.485 53.63 197.372 53.63C197.272 53.63 197.175 53.61 197.082 53.57C196.989 53.5233 196.879 53.5 196.752 53.5C196.612 53.5 196.469 53.5367 196.322 53.61C196.175 53.6833 196.042 53.7933 195.922 53.94C195.802 54.08 195.705 54.2467 195.632 54.44C195.565 54.6333 195.532 54.85 195.532 55.09V57.49C195.532 57.6367 195.482 57.76 195.382 57.86C195.289 57.9533 195.172 58 195.032 58ZM200.817 52.62C201.177 52.62 201.497 52.66 201.777 52.74C202.057 52.8133 202.274 52.92 202.427 53.06C202.587 53.1933 202.667 53.35 202.667 53.53C202.667 53.6433 202.634 53.75 202.567 53.85C202.5 53.9433 202.4 53.99 202.267 53.99C202.174 53.99 202.094 53.9733 202.027 53.94C201.967 53.9067 201.91 53.8667 201.857 53.82C201.804 53.7733 201.737 53.7267 201.657 53.68C201.584 53.64 201.474 53.6067 201.327 53.58C201.187 53.5533 201.06 53.54 200.947 53.54C200.594 53.54 200.287 53.62 200.027 53.78C199.774 53.94 199.574 54.1567 199.427 54.43C199.287 54.7033 199.217 55.0133 199.217 55.36C199.217 55.7067 199.287 56.0167 199.427 56.29C199.574 56.5633 199.77 56.78 200.017 56.94C200.27 57.1 200.564 57.18 200.897 57.18C201.097 57.18 201.26 57.1667 201.387 57.14C201.514 57.1067 201.624 57.0667 201.717 57.02C201.817 56.96 201.9 56.9 201.967 56.84C202.04 56.7733 202.14 56.74 202.267 56.74C202.414 56.74 202.524 56.7867 202.597 56.88C202.677 56.9667 202.717 57.0767 202.717 57.21C202.717 57.3567 202.627 57.5 202.447 57.64C202.274 57.7733 202.04 57.8833 201.747 57.97C201.454 58.0567 201.13 58.1 200.777 58.1C200.257 58.1 199.804 57.98 199.417 57.74C199.037 57.5 198.74 57.1733 198.527 56.76C198.32 56.3467 198.217 55.88 198.217 55.36C198.217 54.8333 198.327 54.3667 198.547 53.96C198.767 53.5467 199.074 53.22 199.467 52.98C199.86 52.74 200.31 52.62 200.817 52.62ZM206.123 58.1C205.569 58.1 205.089 57.9867 204.683 57.76C204.276 57.5267 203.959 57.21 203.733 56.81C203.513 56.4033 203.403 55.94 203.403 55.42C203.403 54.8333 203.519 54.3333 203.753 53.92C203.993 53.5 204.303 53.18 204.683 52.96C205.063 52.7333 205.466 52.62 205.893 52.62C206.219 52.62 206.529 52.6867 206.823 52.82C207.116 52.9467 207.376 53.1267 207.603 53.36C207.836 53.5867 208.019 53.8567 208.153 54.17C208.286 54.4767 208.356 54.8133 208.363 55.18C208.356 55.3133 208.303 55.4233 208.203 55.51C208.103 55.5967 207.986 55.64 207.853 55.64H203.963L203.723 54.79H207.483L207.293 54.97V54.72C207.279 54.4867 207.203 54.2833 207.063 54.11C206.923 53.93 206.749 53.7933 206.543 53.7C206.336 53.6 206.119 53.55 205.893 53.55C205.693 53.55 205.499 53.5833 205.313 53.65C205.133 53.71 204.969 53.81 204.823 53.95C204.683 54.09 204.569 54.2767 204.483 54.51C204.403 54.7367 204.363 55.02 204.363 55.36C204.363 55.7267 204.439 56.0467 204.593 56.32C204.746 56.5933 204.953 56.8067 205.213 56.96C205.473 57.1067 205.759 57.18 206.073 57.18C206.319 57.18 206.523 57.1567 206.683 57.11C206.843 57.0567 206.976 56.9933 207.083 56.92C207.189 56.8467 207.283 56.7767 207.363 56.71C207.463 56.65 207.563 56.62 207.663 56.62C207.783 56.62 207.883 56.6633 207.963 56.75C208.043 56.83 208.083 56.9267 208.083 57.04C208.083 57.1867 208.009 57.32 207.863 57.44C207.683 57.6133 207.433 57.7667 207.113 57.9C206.799 58.0333 206.469 58.1 206.123 58.1ZM213.436 57.49C213.43 57.6367 213.373 57.76 213.266 57.86C213.166 57.9533 213.046 58 212.906 58C212.753 58 212.626 57.9533 212.526 57.86C212.433 57.76 212.386 57.6367 212.386 57.49V51.51C212.386 51.3633 212.436 51.2433 212.536 51.15C212.636 51.05 212.766 51 212.926 51C213.06 51 213.176 51.05 213.276 51.15C213.383 51.2433 213.436 51.3633 213.436 51.51V57.49ZM217.872 51C218.226 51 218.552 51.0967 218.852 51.29C219.152 51.4767 219.392 51.7333 219.572 52.06C219.752 52.3867 219.842 52.7533 219.842 53.16C219.842 53.5667 219.752 53.9367 219.572 54.27C219.392 54.5967 219.152 54.86 218.852 55.06C218.552 55.2533 218.226 55.35 217.872 55.35H215.942L216.022 55.19V57.49C216.022 57.6367 215.976 57.76 215.882 57.86C215.796 57.9533 215.679 58 215.532 58C215.392 58 215.276 57.9533 215.182 57.86C215.096 57.76 215.052 57.6367 215.052 57.49V51.51C215.052 51.3633 215.102 51.2433 215.202 51.15C215.302 51.05 215.422 51 215.562 51H217.872ZM217.872 54.39C218.046 54.39 218.202 54.3333 218.342 54.22C218.489 54.1067 218.606 53.9567 218.692 53.77C218.786 53.5833 218.832 53.38 218.832 53.16C218.832 52.94 218.786 52.74 218.692 52.56C218.606 52.38 218.489 52.2367 218.342 52.13C218.202 52.0167 218.046 51.96 217.872 51.96H215.922L216.022 51.81V54.52L215.932 54.39H217.872Z" fill="#19191F"/>
<path d="M178.856 77C178.632 77 178.448 76.932 178.304 76.796C178.16 76.652 178.088 76.476 178.088 76.268V70.22L178.256 70.484L177.38 71.132C177.268 71.22 177.128 71.264 176.96 71.264C176.768 71.264 176.6 71.192 176.456 71.048C176.312 70.904 176.24 70.732 176.24 70.532C176.24 70.276 176.364 70.068 176.612 69.908L178.34 68.756C178.42 68.7 178.508 68.66 178.604 68.636C178.708 68.612 178.804 68.6 178.892 68.6C179.124 68.6 179.308 68.672 179.444 68.816C179.58 68.952 179.648 69.124 179.648 69.332V76.268C179.648 76.476 179.572 76.652 179.42 76.796C179.276 76.932 179.088 77 178.856 77ZM184.348 77.12C183.66 77.12 183.076 76.94 182.596 76.58C182.124 76.212 181.764 75.704 181.516 75.056C181.268 74.4 181.144 73.648 181.144 72.8C181.144 71.944 181.268 71.192 181.516 70.544C181.764 69.896 182.124 69.392 182.596 69.032C183.076 68.664 183.66 68.48 184.348 68.48C185.036 68.48 185.616 68.664 186.088 69.032C186.568 69.392 186.932 69.896 187.18 70.544C187.428 71.192 187.552 71.944 187.552 72.8C187.552 73.648 187.428 74.4 187.18 75.056C186.932 75.704 186.568 76.212 186.088 76.58C185.616 76.94 185.036 77.12 184.348 77.12ZM184.348 75.68C184.684 75.68 184.972 75.576 185.212 75.368C185.46 75.152 185.652 74.832 185.788 74.408C185.924 73.976 185.992 73.44 185.992 72.8C185.992 72.152 185.924 71.616 185.788 71.192C185.652 70.768 185.46 70.452 185.212 70.244C184.972 70.028 184.684 69.92 184.348 69.92C184.02 69.92 183.732 70.028 183.484 70.244C183.236 70.452 183.044 70.768 182.908 71.192C182.772 71.616 182.704 72.152 182.704 72.8C182.704 73.44 182.772 73.976 182.908 74.408C183.044 74.832 183.236 75.152 183.484 75.368C183.732 75.576 184.02 75.68 184.348 75.68ZM191.719 77.12C191.031 77.12 190.447 76.94 189.967 76.58C189.495 76.212 189.135 75.704 188.887 75.056C188.639 74.4 188.515 73.648 188.515 72.8C188.515 71.944 188.639 71.192 188.887 70.544C189.135 69.896 189.495 69.392 189.967 69.032C190.447 68.664 191.031 68.48 191.719 68.48C192.407 68.48 192.987 68.664 193.459 69.032C193.939 69.392 194.303 69.896 194.551 70.544C194.799 71.192 194.923 71.944 194.923 72.8C194.923 73.648 194.799 74.4 194.551 75.056C194.303 75.704 193.939 76.212 193.459 76.58C192.987 76.94 192.407 77.12 191.719 77.12ZM191.719 75.68C192.055 75.68 192.343 75.576 192.583 75.368C192.831 75.152 193.023 74.832 193.159 74.408C193.295 73.976 193.363 73.44 193.363 72.8C193.363 72.152 193.295 71.616 193.159 71.192C193.023 70.768 192.831 70.452 192.583 70.244C192.343 70.028 192.055 69.92 191.719 69.92C191.391 69.92 191.103 70.028 190.855 70.244C190.607 70.452 190.415 70.768 190.279 71.192C190.143 71.616 190.075 72.152 190.075 72.8C190.075 73.44 190.143 73.976 190.279 74.408C190.415 74.832 190.607 75.152 190.855 75.368C191.103 75.576 191.391 75.68 191.719 75.68ZM196.822 76.988C196.59 76.988 196.41 76.928 196.282 76.808C196.162 76.68 196.102 76.5 196.102 76.268V76.064C196.102 75.832 196.162 75.656 196.282 75.536C196.41 75.408 196.59 75.344 196.822 75.344H196.978C197.21 75.344 197.386 75.408 197.506 75.536C197.634 75.656 197.698 75.832 197.698 76.064V76.268C197.698 76.5 197.634 76.68 197.506 76.808C197.386 76.928 197.21 76.988 196.978 76.988H196.822ZM200.653 77C200.429 77 200.245 76.932 200.101 76.796C199.957 76.652 199.885 76.476 199.885 76.268V70.22L200.053 70.484L199.177 71.132C199.065 71.22 198.925 71.264 198.757 71.264C198.565 71.264 198.397 71.192 198.253 71.048C198.109 70.904 198.037 70.732 198.037 70.532C198.037 70.276 198.161 70.068 198.409 69.908L200.137 68.756C200.217 68.7 200.305 68.66 200.401 68.636C200.505 68.612 200.601 68.6 200.689 68.6C200.921 68.6 201.105 68.672 201.241 68.816C201.377 68.952 201.445 69.124 201.445 69.332V76.268C201.445 76.476 201.369 76.652 201.217 76.796C201.073 76.932 200.885 77 200.653 77ZM206.145 77.12C205.457 77.12 204.873 76.94 204.393 76.58C203.921 76.212 203.561 75.704 203.313 75.056C203.065 74.4 202.941 73.648 202.941 72.8C202.941 71.944 203.065 71.192 203.313 70.544C203.561 69.896 203.921 69.392 204.393 69.032C204.873 68.664 205.457 68.48 206.145 68.48C206.833 68.48 207.413 68.664 207.885 69.032C208.365 69.392 208.729 69.896 208.977 70.544C209.225 71.192 209.349 71.944 209.349 72.8C209.349 73.648 209.225 74.4 208.977 75.056C208.729 75.704 208.365 76.212 207.885 76.58C207.413 76.94 206.833 77.12 206.145 77.12ZM206.145 75.68C206.481 75.68 206.769 75.576 207.009 75.368C207.257 75.152 207.449 74.832 207.585 74.408C207.721 73.976 207.789 73.44 207.789 72.8C207.789 72.152 207.721 71.616 207.585 71.192C207.449 70.768 207.257 70.452 207.009 70.244C206.769 70.028 206.481 69.92 206.145 69.92C205.817 69.92 205.529 70.028 205.281 70.244C205.033 70.452 204.841 70.768 204.705 71.192C204.569 71.616 204.501 72.152 204.501 72.8C204.501 73.44 204.569 73.976 204.705 74.408C204.841 74.832 205.033 75.152 205.281 75.368C205.529 75.576 205.817 75.68 206.145 75.68ZM211.248 76.988C211.016 76.988 210.836 76.928 210.708 76.808C210.588 76.68 210.528 76.5 210.528 76.268V76.064C210.528 75.832 210.588 75.656 210.708 75.536C210.836 75.408 211.016 75.344 211.248 75.344H211.404C211.636 75.344 211.812 75.408 211.932 75.536C212.06 75.656 212.124 75.832 212.124 76.064V76.268C212.124 76.5 212.06 76.68 211.932 76.808C211.812 76.928 211.636 76.988 211.404 76.988H211.248ZM214.164 75.308C214.236 75.308 214.312 75.32 214.392 75.344C214.48 75.368 214.576 75.416 214.68 75.488C214.816 75.592 214.976 75.684 215.16 75.764C215.352 75.844 215.572 75.884 215.82 75.884C216.068 75.884 216.3 75.824 216.516 75.704C216.74 75.576 216.924 75.4 217.068 75.176C217.212 74.944 217.284 74.668 217.284 74.348C217.284 74.044 217.22 73.792 217.092 73.592C216.972 73.392 216.808 73.24 216.6 73.136C216.4 73.032 216.184 72.98 215.952 72.98C215.776 72.98 215.628 72.996 215.508 73.028C215.396 73.06 215.284 73.096 215.172 73.136C215.068 73.168 214.944 73.184 214.8 73.184C214.616 73.184 214.472 73.12 214.368 72.992C214.272 72.864 214.224 72.712 214.224 72.536C214.224 72.424 214.244 72.324 214.284 72.236C214.332 72.148 214.4 72.052 214.488 71.948L216.6 69.704L216.924 69.98H213.972C213.78 69.98 213.62 69.916 213.492 69.788C213.364 69.66 213.3 69.5 213.3 69.308C213.3 69.124 213.364 68.972 213.492 68.852C213.62 68.724 213.78 68.66 213.972 68.66H217.644C217.892 68.66 218.076 68.728 218.196 68.864C218.324 69 218.388 69.172 218.388 69.38C218.388 69.484 218.36 69.588 218.304 69.692C218.248 69.788 218.18 69.876 218.1 69.956L215.976 72.236L215.652 71.828C215.74 71.788 215.86 71.752 216.012 71.72C216.172 71.688 216.304 71.672 216.408 71.672C216.88 71.672 217.288 71.796 217.632 72.044C217.984 72.284 218.252 72.6 218.436 72.992C218.628 73.376 218.724 73.792 218.724 74.24C218.724 74.832 218.592 75.344 218.328 75.776C218.064 76.208 217.692 76.54 217.212 76.772C216.732 77.004 216.172 77.12 215.532 77.12C215.236 77.12 214.944 77.084 214.656 77.012C214.368 76.94 214.12 76.844 213.912 76.724C213.736 76.628 213.616 76.524 213.552 76.412C213.496 76.292 213.468 76.18 213.468 76.076C213.468 75.892 213.532 75.72 213.66 75.56C213.796 75.392 213.964 75.308 214.164 75.308ZM220.682 76.988C220.45 76.988 220.27 76.928 220.142 76.808C220.022 76.68 219.962 76.5 219.962 76.268V76.064C219.962 75.832 220.022 75.656 220.142 75.536C220.27 75.408 220.45 75.344 220.682 75.344H220.838C221.07 75.344 221.246 75.408 221.366 75.536C221.494 75.656 221.558 75.832 221.558 76.064V76.268C221.558 76.5 221.494 76.68 221.366 76.808C221.246 76.928 221.07 76.988 220.838 76.988H220.682ZM227.75 75.68C227.942 75.68 228.102 75.744 228.23 75.872C228.358 76 228.422 76.16 228.422 76.352C228.422 76.536 228.358 76.692 228.23 76.82C228.102 76.94 227.942 77 227.75 77H223.67C223.462 77 223.298 76.936 223.178 76.808C223.058 76.68 222.998 76.516 222.998 76.316C222.998 76.116 223.07 75.94 223.214 75.788L225.83 72.992C226.126 72.672 226.358 72.344 226.526 72.008C226.702 71.672 226.79 71.38 226.79 71.132C226.79 70.732 226.674 70.412 226.442 70.172C226.21 69.924 225.902 69.8 225.518 69.8C225.366 69.8 225.21 69.836 225.05 69.908C224.89 69.98 224.734 70.08 224.582 70.208C224.438 70.336 224.302 70.484 224.174 70.652C224.078 70.78 223.982 70.86 223.886 70.892C223.79 70.924 223.702 70.94 223.622 70.94C223.446 70.94 223.282 70.876 223.13 70.748C222.986 70.612 222.914 70.456 222.914 70.28C222.914 70.144 222.958 70.012 223.046 69.884C223.142 69.756 223.258 69.624 223.394 69.488C223.594 69.288 223.818 69.112 224.066 68.96C224.314 68.808 224.57 68.692 224.834 68.612C225.098 68.524 225.354 68.48 225.602 68.48C226.138 68.48 226.602 68.588 226.994 68.804C227.394 69.012 227.702 69.312 227.918 69.704C228.134 70.088 228.242 70.544 228.242 71.072C228.242 71.512 228.11 72.004 227.846 72.548C227.59 73.084 227.242 73.588 226.802 74.06L225.182 75.788L225.05 75.68H227.75Z" fill="#5B588F"/>
<path d="M98.96 58.1C98.48 58.1 98.0533 58.0333 97.68 57.9C97.3067 57.7667 96.95 57.5467 96.61 57.24C96.5367 57.1867 96.48 57.1233 96.44 57.05C96.4067 56.97 96.39 56.89 96.39 56.81C96.39 56.6833 96.4367 56.57 96.53 56.47C96.6233 56.37 96.74 56.32 96.88 56.32C96.9867 56.32 97.0867 56.3567 97.18 56.43C97.4333 56.6633 97.6967 56.84 97.97 56.96C98.25 57.08 98.5767 57.14 98.95 57.14C99.2167 57.14 99.46 57.0967 99.68 57.01C99.9067 56.9233 100.087 56.8067 100.22 56.66C100.353 56.5133 100.42 56.3433 100.42 56.15C100.42 55.91 100.35 55.7133 100.21 55.56C100.077 55.4 99.88 55.27 99.62 55.17C99.3667 55.0633 99.06 54.9733 98.7 54.9C98.3667 54.84 98.0667 54.7567 97.8 54.65C97.54 54.5433 97.3167 54.41 97.13 54.25C96.9433 54.0833 96.8 53.8867 96.7 53.66C96.6 53.4333 96.55 53.17 96.55 52.87C96.55 52.4633 96.6567 52.1133 96.87 51.82C97.0833 51.5267 97.3733 51.3 97.74 51.14C98.1067 50.98 98.52 50.9 98.98 50.9C99.4 50.9 99.7933 50.9667 100.16 51.1C100.527 51.2267 100.823 51.4 101.05 51.62C101.21 51.76 101.29 51.91 101.29 52.07C101.29 52.19 101.24 52.3033 101.14 52.41C101.047 52.51 100.937 52.56 100.81 52.56C100.717 52.56 100.637 52.5333 100.57 52.48C100.463 52.3667 100.32 52.2667 100.14 52.18C99.96 52.0867 99.7667 52.01 99.56 51.95C99.36 51.89 99.1667 51.86 98.98 51.86C98.68 51.86 98.4233 51.9033 98.21 51.99C97.9967 52.07 97.8333 52.1833 97.72 52.33C97.6067 52.47 97.55 52.6367 97.55 52.83C97.55 53.0567 97.6133 53.2433 97.74 53.39C97.8733 53.5367 98.0567 53.6567 98.29 53.75C98.5233 53.8367 98.79 53.9167 99.09 53.99C99.4567 54.07 99.7833 54.16 100.07 54.26C100.363 54.36 100.61 54.49 100.81 54.65C101.01 54.8033 101.163 54.9967 101.27 55.23C101.377 55.4633 101.43 55.7533 101.43 56.1C101.43 56.5 101.317 56.85 101.09 57.15C100.863 57.45 100.563 57.6833 100.19 57.85C99.8233 58.0167 99.4133 58.1 98.96 58.1ZM103.49 57.49C103.49 57.6367 103.443 57.76 103.35 57.86C103.256 57.9533 103.136 58 102.99 58C102.85 58 102.73 57.9533 102.63 57.86C102.536 57.76 102.49 57.6367 102.49 57.49V53.21C102.49 53.0633 102.536 52.9433 102.63 52.85C102.73 52.75 102.85 52.7 102.99 52.7C103.136 52.7 103.256 52.75 103.35 52.85C103.443 52.9433 103.49 53.0633 103.49 53.21V57.49ZM102.98 52.04C102.786 52.04 102.646 52.0067 102.56 51.94C102.473 51.8667 102.43 51.7467 102.43 51.58V51.42C102.43 51.2533 102.476 51.1367 102.57 51.07C102.663 51.0033 102.803 50.97 102.99 50.97C103.19 50.97 103.333 51.0067 103.42 51.08C103.506 51.1467 103.55 51.26 103.55 51.42V51.58C103.55 51.7533 103.503 51.8733 103.41 51.94C103.323 52.0067 103.18 52.04 102.98 52.04ZM108.175 57.08C108.308 57.08 108.418 57.1233 108.505 57.21C108.598 57.2967 108.645 57.4067 108.645 57.54C108.645 57.6667 108.598 57.7767 108.505 57.87C108.418 57.9567 108.308 58 108.175 58H104.945C104.805 58 104.691 57.95 104.605 57.85C104.518 57.7433 104.478 57.64 104.485 57.54C104.491 57.46 104.501 57.39 104.515 57.33C104.535 57.2633 104.578 57.19 104.645 57.11L107.315 53.57V53.69H105.085C104.951 53.69 104.838 53.6467 104.745 53.56C104.658 53.4667 104.615 53.3567 104.615 53.23C104.615 53.0967 104.658 52.9867 104.745 52.9C104.838 52.8133 104.951 52.77 105.085 52.77H108.165C108.291 52.77 108.398 52.82 108.485 52.92C108.578 53.0133 108.618 53.13 108.605 53.27C108.605 53.33 108.595 53.39 108.575 53.45C108.561 53.5033 108.525 53.5667 108.465 53.64L105.835 57.14L105.795 57.08H108.175ZM112.011 58.1C111.458 58.1 110.978 57.9867 110.571 57.76C110.165 57.5267 109.848 57.21 109.621 56.81C109.401 56.4033 109.291 55.94 109.291 55.42C109.291 54.8333 109.408 54.3333 109.641 53.92C109.881 53.5 110.191 53.18 110.571 52.96C110.951 52.7333 111.355 52.62 111.781 52.62C112.108 52.62 112.418 52.6867 112.711 52.82C113.005 52.9467 113.265 53.1267 113.491 53.36C113.725 53.5867 113.908 53.8567 114.041 54.17C114.175 54.4767 114.245 54.8133 114.251 55.18C114.245 55.3133 114.191 55.4233 114.091 55.51C113.991 55.5967 113.875 55.64 113.741 55.64H109.851L109.611 54.79H113.371L113.181 54.97V54.72C113.168 54.4867 113.091 54.2833 112.951 54.11C112.811 53.93 112.638 53.7933 112.431 53.7C112.225 53.6 112.008 53.55 111.781 53.55C111.581 53.55 111.388 53.5833 111.201 53.65C111.021 53.71 110.858 53.81 110.711 53.95C110.571 54.09 110.458 54.2767 110.371 54.51C110.291 54.7367 110.251 55.02 110.251 55.36C110.251 55.7267 110.328 56.0467 110.481 56.32C110.635 56.5933 110.841 56.8067 111.101 56.96C111.361 57.1067 111.648 57.18 111.961 57.18C112.208 57.18 112.411 57.1567 112.571 57.11C112.731 57.0567 112.865 56.9933 112.971 56.92C113.078 56.8467 113.171 56.7767 113.251 56.71C113.351 56.65 113.451 56.62 113.551 56.62C113.671 56.62 113.771 56.6633 113.851 56.75C113.931 56.83 113.971 56.9267 113.971 57.04C113.971 57.1867 113.898 57.32 113.751 57.44C113.571 57.6133 113.321 57.7667 113.001 57.9C112.688 58.0333 112.358 58.1 112.011 58.1Z" fill="#19191F"/>
<path d="M102.648 68.588C102.832 68.588 102.988 68.66 103.116 68.804C103.252 68.948 103.32 69.1 103.32 69.26C103.32 69.412 103.268 69.556 103.164 69.692L100.752 72.872L99.936 71.756L102.06 68.936C102.228 68.704 102.424 68.588 102.648 68.588ZM97.296 68.564C97.528 68.564 97.724 68.668 97.884 68.876L103.164 75.896C103.26 76.024 103.308 76.172 103.308 76.34C103.308 76.564 103.228 76.74 103.068 76.868C102.908 76.996 102.748 77.06 102.588 77.06C102.356 77.06 102.16 76.956 102 76.748L96.72 69.728C96.616 69.6 96.564 69.456 96.564 69.296C96.564 69.088 96.64 68.916 96.792 68.78C96.952 68.636 97.12 68.564 97.296 68.564ZM97.188 77.06C97.012 77.06 96.86 76.996 96.732 76.868C96.604 76.732 96.54 76.584 96.54 76.424C96.54 76.248 96.6 76.084 96.72 75.932L99.156 72.632L99.948 73.796L97.788 76.724C97.628 76.948 97.428 77.06 97.188 77.06ZM110.511 68.588C110.695 68.588 110.851 68.66 110.979 68.804C111.115 68.948 111.183 69.1 111.183 69.26C111.183 69.412 111.131 69.556 111.027 69.692L108.615 72.872L107.799 71.756L109.923 68.936C110.091 68.704 110.287 68.588 110.511 68.588ZM105.159 68.564C105.391 68.564 105.587 68.668 105.747 68.876L111.027 75.896C111.123 76.024 111.171 76.172 111.171 76.34C111.171 76.564 111.091 76.74 110.931 76.868C110.771 76.996 110.611 77.06 110.451 77.06C110.219 77.06 110.023 76.956 109.863 76.748L104.583 69.728C104.479 69.6 104.427 69.456 104.427 69.296C104.427 69.088 104.503 68.916 104.655 68.78C104.815 68.636 104.983 68.564 105.159 68.564ZM105.051 77.06C104.875 77.06 104.723 76.996 104.595 76.868C104.467 76.732 104.403 76.584 104.403 76.424C104.403 76.248 104.463 76.084 104.583 75.932L107.019 72.632L107.811 73.796L105.651 76.724C105.491 76.948 105.291 77.06 105.051 77.06ZM116.746 68.588C116.858 68.588 116.974 68.62 117.094 68.684C117.222 68.74 117.318 68.816 117.382 68.912L120.298 73.4L119.698 73.376L122.686 68.912C122.838 68.696 123.034 68.588 123.274 68.588C123.466 68.588 123.638 68.656 123.79 68.792C123.942 68.928 124.018 69.104 124.018 69.32V76.268C124.018 76.476 123.95 76.652 123.814 76.796C123.678 76.932 123.498 77 123.274 77C123.05 77 122.866 76.932 122.722 76.796C122.586 76.652 122.518 76.476 122.518 76.268V70.616L122.986 70.724L120.538 74.456C120.466 74.544 120.374 74.62 120.262 74.684C120.158 74.748 120.05 74.776 119.938 74.768C119.834 74.776 119.726 74.748 119.614 74.684C119.51 74.62 119.422 74.544 119.35 74.456L117.058 70.832L117.37 70.196V76.268C117.37 76.476 117.306 76.652 117.178 76.796C117.05 76.932 116.882 77 116.674 77C116.474 77 116.31 76.932 116.182 76.796C116.054 76.652 115.99 76.476 115.99 76.268V69.32C115.99 69.12 116.062 68.948 116.206 68.804C116.358 68.66 116.538 68.588 116.746 68.588ZM129.578 68.6C130.346 68.6 130.918 68.78 131.294 69.14C131.67 69.5 131.858 70.032 131.858 70.736C131.858 71.112 131.766 71.444 131.582 71.732C131.398 72.012 131.126 72.232 130.766 72.392C130.406 72.544 129.962 72.62 129.434 72.62L129.482 72.08C129.73 72.08 130.014 72.116 130.334 72.188C130.654 72.252 130.962 72.372 131.258 72.548C131.562 72.716 131.81 72.956 132.002 73.268C132.202 73.572 132.302 73.964 132.302 74.444C132.302 74.972 132.214 75.404 132.038 75.74C131.87 76.076 131.646 76.336 131.366 76.52C131.086 76.704 130.786 76.832 130.466 76.904C130.146 76.968 129.838 77 129.542 77H126.554C126.346 77 126.17 76.932 126.026 76.796C125.89 76.652 125.822 76.476 125.822 76.268V69.332C125.822 69.124 125.89 68.952 126.026 68.816C126.17 68.672 126.346 68.6 126.554 68.6H129.578ZM129.362 70.016H127.226L127.382 69.824V71.996L127.238 71.888H129.398C129.63 71.888 129.838 71.812 130.022 71.66C130.206 71.508 130.298 71.288 130.298 71C130.298 70.656 130.21 70.408 130.034 70.256C129.866 70.096 129.642 70.016 129.362 70.016ZM129.458 73.304H127.274L127.382 73.208V75.74L127.262 75.62H129.542C129.91 75.62 130.202 75.524 130.418 75.332C130.634 75.132 130.742 74.836 130.742 74.444C130.742 74.084 130.67 73.824 130.526 73.664C130.382 73.504 130.21 73.404 130.01 73.364C129.81 73.324 129.626 73.304 129.458 73.304Z" fill="#5B588F"/>
<path d="M28 1.5C28 0.671573 28.6742 -0.00966673 29.4961 0.0936177C31.5653 0.353619 33.5403 1.14981 35.2198 2.41487C37.3005 3.98211 38.8147 6.18385 39.5338 8.68755C40.2528 11.1913 40.1376 13.8609 39.2056 16.2934C38.2736 18.7259 36.5754 20.7891 34.3675 22.1713C32.1596 23.5535 29.5618 24.1798 26.9666 23.9554C24.3713 23.7311 21.9196 22.6684 19.9816 20.9278C18.0436 19.1871 16.7246 16.8632 16.2238 14.3069C15.8196 12.2434 15.9662 10.119 16.6363 8.14421C16.9025 7.35971 17.8098 7.05089 18.555 7.41281C19.3002 7.77473 19.5974 8.67078 19.3642 9.46568C18.9597 10.8439 18.889 12.3064 19.1679 13.7301C19.5434 15.6474 20.5327 17.3904 21.9862 18.6958C23.4397 20.0013 25.2785 20.7983 27.2249 20.9666C29.1713 21.1348 31.1197 20.6651 32.7756 19.6285C34.4316 18.5918 35.7052 17.0444 36.4042 15.2201C37.1032 13.3957 37.1896 11.3934 36.6503 9.51567C36.111 7.63789 34.9754 5.98659 33.4148 4.81115C32.256 3.93826 30.9095 3.363 29.4931 3.12471C28.6762 2.98727 28 2.32843 28 1.5Z" fill="url(#paint0_angular_320_1544)"/>
<path d="M34 9.96004C33.9931 9.8988 33.9796 9.83846 33.96 9.78004V9.72004C33.9279 9.65149 33.8852 9.58848 33.8333 9.53337V9.53337L29.8333 5.53337C29.7782 5.48152 29.7152 5.43876 29.6467 5.40671C29.6268 5.40388 29.6066 5.40388 29.5867 5.40671C29.5189 5.36787 29.4441 5.34294 29.3667 5.33337H26.6667C26.1362 5.33337 25.6275 5.54409 25.2525 5.91916C24.8774 6.29423 24.6667 6.80294 24.6667 7.33337V8.00004H24C23.4696 8.00004 22.9609 8.21075 22.5858 8.58583C22.2107 8.9609 22 9.46961 22 10V16.6667C22 17.1971 22.2107 17.7058 22.5858 18.0809C22.9609 18.456 23.4696 18.6667 24 18.6667H29.3333C29.8638 18.6667 30.3725 18.456 30.7475 18.0809C31.1226 17.7058 31.3333 17.1971 31.3333 16.6667V16H32C32.5304 16 33.0391 15.7893 33.4142 15.4143C33.7893 15.0392 34 14.5305 34 14V10C34 10 34 10 34 9.96004ZM30 7.60671L31.7267 9.33337H30.6667C30.4899 9.33337 30.3203 9.26314 30.1953 9.13811C30.0702 9.01309 30 8.84352 30 8.66671V7.60671ZM30 16.6667C30 16.8435 29.9298 17.0131 29.8047 17.1381C29.6797 17.2631 29.5101 17.3334 29.3333 17.3334H24C23.8232 17.3334 23.6536 17.2631 23.5286 17.1381C23.4036 17.0131 23.3333 16.8435 23.3333 16.6667V10C23.3333 9.82323 23.4036 9.65366 23.5286 9.52864C23.6536 9.40361 23.8232 9.33337 24 9.33337H24.6667V14C24.6667 14.5305 24.8774 15.0392 25.2525 15.4143C25.6275 15.7893 26.1362 16 26.6667 16H30V16.6667ZM32.6667 14C32.6667 14.1769 32.5964 14.3464 32.4714 14.4714C32.3464 14.5965 32.1768 14.6667 32 14.6667H26.6667C26.4899 14.6667 26.3203 14.5965 26.1953 14.4714C26.0702 14.3464 26 14.1769 26 14V7.33337C26 7.15656 26.0702 6.98699 26.1953 6.86197C26.3203 6.73695 26.4899 6.66671 26.6667 6.66671H28.6667V8.66671C28.6667 9.19714 28.8774 9.70585 29.2525 10.0809C29.6275 10.456 30.1362 10.6667 30.6667 10.6667H32.6667V14Z" fill="#19191F"/>
<rect width="256" height="1" transform="matrix(1 0 0 -1 0 35)" fill="#E9E9F4"/>
<rect width="204" height="1" transform="matrix(1 0 0 -1 0 35)" fill="#69CA94"/>
<defs>
<radialGradient id="paint0_angular_320_1544" cx="0" cy="0" r="1" gradientUnits="userSpaceOnUse" gradientTransform="translate(28 12) rotate(-90) scale(12)">
<stop stop-color="#E1E1FB"/>
<stop offset="1" stop-color="#9696D6"/>
</radialGradient>
</defs>
</svg>
