<svg width="54" height="54" viewBox="0 0 54 54" fill="none" xmlns="http://www.w3.org/2000/svg">
<path d="M26.9997 0.991211C20.6677 0.991474 14.5423 3.24485 9.71965 7.34814C4.89699 11.4514 1.69175 17.1369 0.677436 23.3872C-0.336878 29.6375 0.905928 36.0447 4.18348 41.4626C7.46103 46.8804 12.5594 50.9552 18.5665 52.9578C19.8998 53.1912 20.3998 52.3913 20.3998 51.6912C20.3998 51.0579 20.3664 48.9578 20.3664 46.7245C13.6664 47.9578 11.9331 45.0913 11.3997 43.5913C10.8079 42.1324 9.86982 40.8396 8.66641 39.8245C7.73308 39.3245 6.39975 38.0912 8.63305 38.0579C9.48582 38.1505 10.3037 38.4472 11.0174 38.923C11.7311 39.3988 12.3197 40.0396 12.7331 40.7912C13.0978 41.4464 13.5882 42.0232 14.1763 42.4885C14.7643 42.9538 15.4383 43.2986 16.1598 43.5029C16.8813 43.7073 17.636 43.7673 18.3808 43.6795C19.1255 43.5917 19.8455 43.3578 20.4997 42.9912C20.6151 41.6355 21.2193 40.368 22.1997 39.4246C16.2664 38.758 10.0664 36.4578 10.0664 26.258C10.0289 23.6077 11.0069 21.0435 12.7997 19.0913C11.9845 16.7879 12.0799 14.26 13.0664 12.0246C13.0664 12.0246 15.2997 11.3246 20.3997 14.758C24.7632 13.5579 29.3696 13.5579 33.7331 14.758C38.833 11.2913 41.0664 12.0246 41.0664 12.0246C42.0531 14.26 42.1485 16.7879 41.3331 19.0913C43.1313 21.0402 44.1101 23.6066 44.0664 26.258C44.0664 36.4912 37.833 38.758 31.8997 39.4246C32.5361 40.0696 33.0263 40.8441 33.3369 41.6953C33.6475 42.5465 33.7712 43.4547 33.6997 44.358C33.6997 47.9247 33.6664 50.7912 33.6664 51.6913C33.6664 52.3913 34.1664 53.2246 35.4997 52.958C41.4962 50.9389 46.5799 46.8546 49.8435 41.434C53.1071 36.0134 54.3381 29.6094 53.3168 23.3652C52.2954 17.1209 49.0882 11.4429 44.2677 7.34457C39.4471 3.24628 33.327 0.994504 26.9997 0.991211V0.991211Z" fill="#19191F"/>
</svg>
