<svg width="328" height="67" viewBox="0 0 328 67" fill="none" xmlns="http://www.w3.org/2000/svg">
<rect width="328" height="67" rx="10" fill="#19191F" fill-opacity="0.46"/>
<path d="M61.25 16.2C62.1273 16.2 62.8787 16.4193 63.504 16.858C64.1387 17.2873 64.6193 17.8753 64.946 18.622C65.282 19.3593 65.45 20.1853 65.45 21.1C65.45 22.0147 65.282 22.8453 64.946 23.592C64.6193 24.3293 64.1387 24.9173 63.504 25.356C62.8787 25.7853 62.1273 26 61.25 26H57.904C57.6613 26 57.456 25.9207 57.288 25.762C57.1293 25.594 57.05 25.3887 57.05 25.146V17.054C57.05 16.8113 57.1293 16.6107 57.288 16.452C57.456 16.284 57.6613 16.2 57.904 16.2H61.25ZM61.11 24.39C61.95 24.39 62.58 24.082 63 23.466C63.42 22.8407 63.63 22.052 63.63 21.1C63.63 20.148 63.4153 19.364 62.986 18.748C62.566 18.1227 61.9407 17.81 61.11 17.81H58.8V24.39H61.11ZM74.2232 22.262C74.2232 23.0087 74.0552 23.6807 73.7192 24.278C73.3832 24.866 72.9212 25.3233 72.3332 25.65C71.7545 25.9767 71.1152 26.14 70.4152 26.14C69.7059 26.14 69.0619 25.9767 68.4832 25.65C67.9045 25.3233 67.4472 24.866 67.1112 24.278C66.7752 23.6807 66.6072 23.0087 66.6072 22.262C66.6072 21.5153 66.7752 20.848 67.1112 20.26C67.4472 19.6627 67.9045 19.2007 68.4832 18.874C69.0619 18.538 69.7059 18.37 70.4152 18.37C71.1152 18.37 71.7545 18.538 72.3332 18.874C72.9212 19.2007 73.3832 19.6627 73.7192 20.26C74.0552 20.848 74.2232 21.5153 74.2232 22.262ZM72.5432 22.262C72.5432 21.8047 72.4452 21.3987 72.2492 21.044C72.0625 20.68 71.8059 20.4 71.4792 20.204C71.1619 20.008 70.8072 19.91 70.4152 19.91C70.0232 19.91 69.6639 20.008 69.3372 20.204C69.0199 20.4 68.7632 20.68 68.5672 21.044C68.3805 21.3987 68.2872 21.8047 68.2872 22.262C68.2872 22.7193 68.3805 23.1253 68.5672 23.48C68.7632 23.8347 69.0199 24.11 69.3372 24.306C69.6639 24.502 70.0232 24.6 70.4152 24.6C70.8072 24.6 71.1619 24.502 71.4792 24.306C71.8059 24.11 72.0625 23.8347 72.2492 23.48C72.4452 23.1253 72.5432 22.7193 72.5432 22.262ZM79.6308 18.37C80.5828 18.37 81.2408 18.6547 81.6048 19.224C81.9688 19.784 82.1508 20.5633 82.1508 21.562V25.146C82.1508 25.3887 82.0715 25.594 81.9128 25.762C81.7541 25.9207 81.5535 26 81.3108 26C81.0681 26 80.8675 25.9207 80.7088 25.762C80.5501 25.594 80.4708 25.3887 80.4708 25.146V21.562C80.4708 21.0487 80.3635 20.6473 80.1488 20.358C79.9341 20.0593 79.5655 19.91 79.0428 19.91C78.5015 19.91 78.0768 20.0687 77.7688 20.386C77.4608 20.694 77.3068 21.086 77.3068 21.562V25.146C77.3068 25.3887 77.2275 25.594 77.0688 25.762C76.9101 25.9207 76.7095 26 76.4668 26C76.2241 26 76.0235 25.9207 75.8648 25.762C75.7061 25.594 75.6268 25.3887 75.6268 25.146V19.364C75.6268 19.1213 75.7061 18.9207 75.8648 18.762C76.0235 18.594 76.2241 18.51 76.4668 18.51C76.7095 18.51 76.9101 18.594 77.0688 18.762C77.2275 18.9207 77.3068 19.1213 77.3068 19.364V19.602C77.5588 19.266 77.8855 18.9767 78.2868 18.734C78.6975 18.4913 79.1455 18.37 79.6308 18.37ZM86.0946 17.614C86.0946 17.8287 86.0153 18.0993 85.8566 18.426C85.698 18.7527 85.4926 19.0373 85.2406 19.28C84.9886 19.5227 84.7273 19.644 84.4566 19.644C84.2513 19.644 84.088 19.602 83.9666 19.518C83.8453 19.4247 83.7846 19.28 83.7846 19.084C83.7846 18.9347 83.822 18.832 83.8966 18.776C83.9713 18.7107 84.0506 18.664 84.1346 18.636C84.228 18.608 84.2933 18.5847 84.3306 18.566C84.592 18.426 84.7226 18.2393 84.7226 18.006C84.7226 17.9033 84.6713 17.8147 84.5686 17.74C84.4753 17.656 84.3493 17.614 84.1906 17.614C84.032 17.614 83.9013 17.6467 83.7986 17.712C83.6866 17.6653 83.598 17.6047 83.5326 17.53C83.4766 17.4553 83.4486 17.3433 83.4486 17.194C83.4486 17.0073 83.5186 16.8347 83.6586 16.676C83.7986 16.508 83.9713 16.3773 84.1766 16.284C84.382 16.1813 84.5826 16.13 84.7786 16.13C85.1893 16.13 85.5113 16.2607 85.7446 16.522C85.978 16.774 86.0946 17.138 86.0946 17.614ZM91.4341 24.418C91.5648 24.418 91.6814 24.4833 91.7841 24.614C91.8961 24.7353 91.9521 24.8987 91.9521 25.104C91.9521 25.356 91.8121 25.5707 91.5321 25.748C91.2614 25.916 90.9534 26 90.6081 26C90.0294 26 89.5394 25.8787 89.1381 25.636C88.7461 25.384 88.5501 24.8567 88.5501 24.054V20.19H87.9061C87.6821 20.19 87.4954 20.1153 87.3461 19.966C87.1968 19.8167 87.1221 19.63 87.1221 19.406C87.1221 19.1913 87.1968 19.014 87.3461 18.874C87.4954 18.7247 87.6821 18.65 87.9061 18.65H88.5501V17.754C88.5501 17.5113 88.6294 17.3107 88.7881 17.152C88.9561 16.984 89.1614 16.9 89.4041 16.9C89.6374 16.9 89.8334 16.984 89.9921 17.152C90.1508 17.3107 90.2301 17.5113 90.2301 17.754V18.65H91.2241C91.4481 18.65 91.6348 18.7247 91.7841 18.874C91.9334 19.0233 92.0081 19.21 92.0081 19.434C92.0081 19.6487 91.9334 19.8307 91.7841 19.98C91.6348 20.12 91.4481 20.19 91.2241 20.19H90.2301V23.984C90.2301 24.18 90.2814 24.3247 90.3841 24.418C90.4868 24.502 90.6268 24.544 90.8041 24.544C90.8788 24.544 90.9814 24.5253 91.1121 24.488C91.2241 24.4413 91.3314 24.418 91.4341 24.418ZM106.098 18.51C106.322 18.51 106.509 18.594 106.658 18.762C106.817 18.9207 106.896 19.126 106.896 19.378C106.896 19.462 106.878 19.5693 106.84 19.7L104.698 25.468C104.642 25.636 104.54 25.7713 104.39 25.874C104.25 25.9673 104.096 26.014 103.928 26.014L103.816 26C103.499 25.9813 103.261 25.804 103.102 25.468L101.912 22.024L100.778 25.468C100.62 25.804 100.382 25.9813 100.064 26L99.9525 26.014C99.7845 26.014 99.6258 25.9673 99.4765 25.874C99.3365 25.7713 99.2385 25.636 99.1825 25.468L97.0405 19.7C97.0031 19.5973 96.9845 19.49 96.9845 19.378C96.9845 19.1447 97.0591 18.944 97.2085 18.776C97.3671 18.5987 97.5725 18.51 97.8245 18.51C98.0111 18.51 98.1698 18.5567 98.3005 18.65C98.4405 18.734 98.5385 18.8647 98.5945 19.042L100.106 23.144L101.212 20.148C101.362 19.8027 101.618 19.63 101.982 19.63C102.178 19.63 102.328 19.672 102.43 19.756C102.542 19.84 102.636 19.9707 102.71 20.148L103.788 23.074L105.286 19.042C105.342 18.8647 105.44 18.734 105.58 18.65C105.72 18.5567 105.893 18.51 106.098 18.51ZM115.417 22.262C115.417 23.0087 115.249 23.6807 114.913 24.278C114.577 24.866 114.115 25.3233 113.527 25.65C112.948 25.9767 112.309 26.14 111.609 26.14C110.899 26.14 110.255 25.9767 109.677 25.65C109.098 25.3233 108.641 24.866 108.305 24.278C107.969 23.6807 107.801 23.0087 107.801 22.262C107.801 21.5153 107.969 20.848 108.305 20.26C108.641 19.6627 109.098 19.2007 109.677 18.874C110.255 18.538 110.899 18.37 111.609 18.37C112.309 18.37 112.948 18.538 113.527 18.874C114.115 19.2007 114.577 19.6627 114.913 20.26C115.249 20.848 115.417 21.5153 115.417 22.262ZM113.737 22.262C113.737 21.8047 113.639 21.3987 113.443 21.044C113.256 20.68 112.999 20.4 112.673 20.204C112.355 20.008 112.001 19.91 111.609 19.91C111.217 19.91 110.857 20.008 110.531 20.204C110.213 20.4 109.957 20.68 109.761 21.044C109.574 21.3987 109.481 21.8047 109.481 22.262C109.481 22.7193 109.574 23.1253 109.761 23.48C109.957 23.8347 110.213 24.11 110.531 24.306C110.857 24.502 111.217 24.6 111.609 24.6C112.001 24.6 112.355 24.502 112.673 24.306C112.999 24.11 113.256 23.8347 113.443 23.48C113.639 23.1253 113.737 22.7193 113.737 22.262ZM120.712 18.37C120.992 18.37 121.225 18.4493 121.412 18.608C121.608 18.7667 121.706 18.9533 121.706 19.168C121.706 19.4573 121.631 19.6767 121.482 19.826C121.333 19.966 121.155 20.036 120.95 20.036C120.81 20.036 120.651 20.0033 120.474 19.938C120.446 19.9287 120.381 19.91 120.278 19.882C120.185 19.854 120.082 19.84 119.97 19.84C119.727 19.84 119.494 19.9147 119.27 20.064C119.046 20.2133 118.859 20.442 118.71 20.75C118.57 21.0487 118.5 21.408 118.5 21.828V25.146C118.5 25.3887 118.421 25.594 118.262 25.762C118.103 25.9207 117.903 26 117.66 26C117.417 26 117.217 25.9207 117.058 25.762C116.899 25.594 116.82 25.3887 116.82 25.146V19.364C116.82 19.1213 116.899 18.9207 117.058 18.762C117.217 18.594 117.417 18.51 117.66 18.51C117.903 18.51 118.103 18.594 118.262 18.762C118.421 18.9207 118.5 19.1213 118.5 19.364V19.546C118.715 19.1633 119.023 18.874 119.424 18.678C119.825 18.4727 120.255 18.37 120.712 18.37ZM126.782 18.37C127.062 18.37 127.296 18.4493 127.482 18.608C127.678 18.7667 127.776 18.9533 127.776 19.168C127.776 19.4573 127.702 19.6767 127.552 19.826C127.403 19.966 127.226 20.036 127.02 20.036C126.88 20.036 126.722 20.0033 126.544 19.938C126.516 19.9287 126.451 19.91 126.348 19.882C126.255 19.854 126.152 19.84 126.04 19.84C125.798 19.84 125.564 19.9147 125.34 20.064C125.116 20.2133 124.93 20.442 124.78 20.75C124.64 21.0487 124.57 21.408 124.57 21.828V25.146C124.57 25.3887 124.491 25.594 124.332 25.762C124.174 25.9207 123.973 26 123.73 26C123.488 26 123.287 25.9207 123.128 25.762C122.97 25.594 122.89 25.3887 122.89 25.146V19.364C122.89 19.1213 122.97 18.9207 123.128 18.762C123.287 18.594 123.488 18.51 123.73 18.51C123.973 18.51 124.174 18.594 124.332 18.762C124.491 18.9207 124.57 19.1213 124.57 19.364V19.546C124.785 19.1633 125.093 18.874 125.494 18.678C125.896 18.4727 126.325 18.37 126.782 18.37ZM134.519 18.51C134.761 18.51 134.962 18.594 135.121 18.762C135.279 18.9207 135.359 19.1213 135.359 19.364V25.314C135.359 26.5273 135.032 27.4093 134.379 27.96C133.725 28.52 132.853 28.8 131.761 28.8C131.443 28.8 131.117 28.772 130.781 28.716C130.454 28.6693 130.188 28.604 129.983 28.52C129.525 28.324 129.297 28.0533 129.297 27.708C129.297 27.6427 129.311 27.568 129.339 27.484C129.395 27.2787 129.488 27.12 129.619 27.008C129.759 26.9053 129.908 26.854 130.067 26.854C130.16 26.854 130.249 26.868 130.333 26.896C130.398 26.924 130.51 26.9707 130.669 27.036C130.837 27.1013 131.009 27.1527 131.187 27.19C131.373 27.2367 131.565 27.26 131.761 27.26C132.423 27.26 132.909 27.1153 133.217 26.826C133.534 26.546 133.693 26.0607 133.693 25.37V25.23C133.207 25.8367 132.451 26.14 131.425 26.14C130.939 26.14 130.51 26.028 130.137 25.804C129.763 25.5707 129.474 25.2533 129.269 24.852C129.063 24.4413 128.961 23.9747 128.961 23.452V19.364C128.961 19.1213 129.04 18.9207 129.199 18.762C129.357 18.594 129.558 18.51 129.801 18.51C130.043 18.51 130.244 18.594 130.403 18.762C130.561 18.9207 130.641 19.1213 130.641 19.364V22.948C130.641 23.536 130.767 23.9607 131.019 24.222C131.28 24.474 131.658 24.6 132.153 24.6C132.638 24.6 133.011 24.46 133.273 24.18C133.543 23.8907 133.679 23.48 133.679 22.948V19.364C133.679 19.1213 133.758 18.9207 133.917 18.762C134.075 18.594 134.276 18.51 134.519 18.51ZM149.725 18.51C149.949 18.51 150.136 18.594 150.285 18.762C150.444 18.9207 150.523 19.126 150.523 19.378C150.523 19.462 150.505 19.5693 150.467 19.7L148.325 25.468C148.269 25.636 148.167 25.7713 148.017 25.874C147.877 25.9673 147.723 26.014 147.555 26.014L147.443 26C147.126 25.9813 146.888 25.804 146.729 25.468L145.539 22.024L144.405 25.468C144.247 25.804 144.009 25.9813 143.691 26L143.579 26.014C143.411 26.014 143.253 25.9673 143.103 25.874C142.963 25.7713 142.865 25.636 142.809 25.468L140.667 19.7C140.63 19.5973 140.611 19.49 140.611 19.378C140.611 19.1447 140.686 18.944 140.835 18.776C140.994 18.5987 141.199 18.51 141.451 18.51C141.638 18.51 141.797 18.5567 141.927 18.65C142.067 18.734 142.165 18.8647 142.221 19.042L143.733 23.144L144.839 20.148C144.989 19.8027 145.245 19.63 145.609 19.63C145.805 19.63 145.955 19.672 146.057 19.756C146.169 19.84 146.263 19.9707 146.337 20.148L147.415 23.074L148.913 19.042C148.969 18.8647 149.067 18.734 149.207 18.65C149.347 18.5567 149.52 18.51 149.725 18.51ZM158.568 22.08C158.558 22.304 158.47 22.486 158.302 22.626C158.134 22.766 157.938 22.836 157.714 22.836H153.094C153.206 23.3867 153.462 23.8207 153.864 24.138C154.265 24.446 154.718 24.6 155.222 24.6C155.604 24.6 155.903 24.5673 156.118 24.502C156.332 24.4273 156.5 24.3527 156.622 24.278C156.752 24.194 156.841 24.138 156.888 24.11C157.056 24.026 157.214 23.984 157.364 23.984C157.56 23.984 157.728 24.054 157.868 24.194C158.008 24.334 158.078 24.4973 158.078 24.684C158.078 24.936 157.947 25.1647 157.686 25.37C157.424 25.5847 157.074 25.7667 156.636 25.916C156.197 26.0653 155.754 26.14 155.306 26.14C154.522 26.14 153.836 25.9767 153.248 25.65C152.669 25.3233 152.221 24.8753 151.904 24.306C151.586 23.7273 151.428 23.0787 151.428 22.36C151.428 21.5573 151.596 20.8527 151.932 20.246C152.268 19.6393 152.711 19.1773 153.262 18.86C153.812 18.5333 154.4 18.37 155.026 18.37C155.642 18.37 156.22 18.538 156.762 18.874C157.312 19.21 157.751 19.6627 158.078 20.232C158.404 20.8013 158.568 21.4173 158.568 22.08ZM155.026 19.91C153.943 19.91 153.304 20.4187 153.108 21.436H156.776V21.338C156.738 20.946 156.547 20.61 156.202 20.33C155.856 20.05 155.464 19.91 155.026 19.91ZM167.826 18.37C168.75 18.37 169.39 18.6547 169.744 19.224C170.099 19.784 170.276 20.5633 170.276 21.562V25.146C170.276 25.3887 170.197 25.594 170.038 25.762C169.88 25.9207 169.679 26 169.436 26C169.194 26 168.993 25.9207 168.834 25.762C168.676 25.594 168.596 25.3887 168.596 25.146V21.562C168.596 21.0487 168.494 20.6473 168.288 20.358C168.092 20.0593 167.742 19.91 167.238 19.91C166.716 19.91 166.305 20.0687 166.006 20.386C165.717 20.694 165.572 21.086 165.572 21.562V25.146C165.572 25.3887 165.493 25.594 165.334 25.762C165.176 25.9207 164.975 26 164.732 26C164.49 26 164.289 25.9207 164.13 25.762C163.972 25.594 163.892 25.3887 163.892 25.146V16.494C163.892 16.2513 163.972 16.0507 164.13 15.892C164.289 15.724 164.49 15.64 164.732 15.64C164.975 15.64 165.176 15.724 165.334 15.892C165.493 16.0507 165.572 16.2513 165.572 16.494V19.588C165.824 19.252 166.142 18.9673 166.524 18.734C166.916 18.4913 167.35 18.37 167.826 18.37ZM178.158 18.37C178.4 18.37 178.601 18.4493 178.76 18.608C178.918 18.7667 178.998 18.972 178.998 19.224V25.146C178.998 25.3887 178.918 25.594 178.76 25.762C178.601 25.9207 178.4 26 178.158 26C177.915 26 177.714 25.9207 177.556 25.762C177.406 25.6033 177.327 25.4027 177.318 25.16C177.084 25.4307 176.767 25.664 176.366 25.86C175.974 26.0467 175.558 26.14 175.12 26.14C174.476 26.14 173.892 25.9767 173.37 25.65C172.847 25.314 172.432 24.852 172.124 24.264C171.825 23.676 171.676 23.0087 171.676 22.262C171.676 21.5153 171.825 20.848 172.124 20.26C172.422 19.6627 172.828 19.2007 173.342 18.874C173.864 18.538 174.438 18.37 175.064 18.37C175.512 18.37 175.932 18.454 176.324 18.622C176.716 18.7807 177.047 18.986 177.318 19.238V19.224C177.318 18.9813 177.397 18.7807 177.556 18.622C177.714 18.454 177.915 18.37 178.158 18.37ZM175.33 24.6C175.936 24.6 176.431 24.3807 176.814 23.942C177.196 23.494 177.388 22.934 177.388 22.262C177.388 21.59 177.196 21.03 176.814 20.582C176.431 20.134 175.936 19.91 175.33 19.91C174.732 19.91 174.242 20.134 173.86 20.582C173.477 21.03 173.286 21.59 173.286 22.262C173.286 22.934 173.472 23.494 173.846 23.942C174.228 24.3807 174.723 24.6 175.33 24.6ZM186.408 18.524C186.632 18.524 186.819 18.5987 186.968 18.748C187.117 18.888 187.192 19.0653 187.192 19.28C187.192 19.392 187.155 19.532 187.08 19.7L184.462 25.468C184.397 25.6267 184.299 25.7527 184.168 25.846C184.047 25.9393 183.907 25.9907 183.748 26L183.622 26.014C183.463 26.014 183.314 25.9673 183.174 25.874C183.043 25.7713 182.941 25.636 182.866 25.468L180.262 19.7C180.197 19.5507 180.164 19.4013 180.164 19.252C180.164 19.0653 180.243 18.8973 180.402 18.748C180.561 18.5893 180.757 18.51 180.99 18.51C181.167 18.51 181.331 18.5567 181.48 18.65C181.629 18.7433 181.741 18.874 181.816 19.042L183.748 23.466L185.666 19.056C185.741 18.8787 185.843 18.7433 185.974 18.65C186.105 18.5567 186.249 18.5147 186.408 18.524ZM195.167 22.08C195.158 22.304 195.069 22.486 194.901 22.626C194.733 22.766 194.537 22.836 194.313 22.836H189.693C189.805 23.3867 190.062 23.8207 190.463 24.138C190.864 24.446 191.317 24.6 191.821 24.6C192.204 24.6 192.502 24.5673 192.717 24.502C192.932 24.4273 193.1 24.3527 193.221 24.278C193.352 24.194 193.44 24.138 193.487 24.11C193.655 24.026 193.814 23.984 193.963 23.984C194.159 23.984 194.327 24.054 194.467 24.194C194.607 24.334 194.677 24.4973 194.677 24.684C194.677 24.936 194.546 25.1647 194.285 25.37C194.024 25.5847 193.674 25.7667 193.235 25.916C192.796 26.0653 192.353 26.14 191.905 26.14C191.121 26.14 190.435 25.9767 189.847 25.65C189.268 25.3233 188.82 24.8753 188.503 24.306C188.186 23.7273 188.027 23.0787 188.027 22.36C188.027 21.5573 188.195 20.8527 188.531 20.246C188.867 19.6393 189.31 19.1773 189.861 18.86C190.412 18.5333 191 18.37 191.625 18.37C192.241 18.37 192.82 18.538 193.361 18.874C193.912 19.21 194.35 19.6627 194.677 20.232C195.004 20.8013 195.167 21.4173 195.167 22.08ZM191.625 19.91C190.542 19.91 189.903 20.4187 189.707 21.436H193.375V21.338C193.338 20.946 193.146 20.61 192.801 20.33C192.456 20.05 192.064 19.91 191.625 19.91ZM206.694 18.37C206.937 18.37 207.137 18.4493 207.296 18.608C207.455 18.7667 207.534 18.972 207.534 19.224V25.454C207.534 26.5927 207.179 27.4327 206.47 27.974C205.77 28.5247 204.879 28.8 203.796 28.8C203.516 28.8 203.129 28.7533 202.634 28.66C202.149 28.5667 201.803 28.4733 201.598 28.38C201.141 28.184 200.912 27.9133 200.912 27.568C200.912 27.5027 200.926 27.428 200.954 27.344C201.01 27.1387 201.103 26.98 201.234 26.868C201.374 26.7653 201.523 26.714 201.682 26.714C201.775 26.714 201.864 26.728 201.948 26.756C201.985 26.7653 202.214 26.8493 202.634 27.008C203.063 27.176 203.451 27.26 203.796 27.26C204.487 27.26 205 27.12 205.336 26.84C205.681 26.5693 205.854 26.182 205.854 25.678V25.006C205.649 25.2953 205.336 25.5567 204.916 25.79C204.505 26.0233 204.062 26.14 203.586 26.14C202.933 26.14 202.335 25.9767 201.794 25.65C201.262 25.314 200.842 24.852 200.534 24.264C200.226 23.676 200.072 23.0087 200.072 22.262C200.072 21.5153 200.221 20.848 200.52 20.26C200.828 19.6627 201.243 19.2007 201.766 18.874C202.298 18.538 202.886 18.37 203.53 18.37C204.006 18.37 204.449 18.468 204.86 18.664C205.271 18.86 205.602 19.098 205.854 19.378V19.224C205.854 18.9813 205.933 18.7807 206.092 18.622C206.251 18.454 206.451 18.37 206.694 18.37ZM203.796 24.6C204.421 24.6 204.93 24.3807 205.322 23.942C205.723 23.494 205.924 22.934 205.924 22.262C205.924 21.59 205.723 21.03 205.322 20.582C204.93 20.134 204.421 19.91 203.796 19.91C203.171 19.91 202.662 20.134 202.27 20.582C201.878 21.03 201.682 21.59 201.682 22.262C201.682 22.934 201.878 23.494 202.27 23.942C202.662 24.3807 203.171 24.6 203.796 24.6ZM216.274 22.262C216.274 23.0087 216.106 23.6807 215.77 24.278C215.434 24.866 214.972 25.3233 214.384 25.65C213.805 25.9767 213.166 26.14 212.466 26.14C211.757 26.14 211.113 25.9767 210.534 25.65C209.955 25.3233 209.498 24.866 209.162 24.278C208.826 23.6807 208.658 23.0087 208.658 22.262C208.658 21.5153 208.826 20.848 209.162 20.26C209.498 19.6627 209.955 19.2007 210.534 18.874C211.113 18.538 211.757 18.37 212.466 18.37C213.166 18.37 213.805 18.538 214.384 18.874C214.972 19.2007 215.434 19.6627 215.77 20.26C216.106 20.848 216.274 21.5153 216.274 22.262ZM214.594 22.262C214.594 21.8047 214.496 21.3987 214.3 21.044C214.113 20.68 213.857 20.4 213.53 20.204C213.213 20.008 212.858 19.91 212.466 19.91C212.074 19.91 211.715 20.008 211.388 20.204C211.071 20.4 210.814 20.68 210.618 21.044C210.431 21.3987 210.338 21.8047 210.338 22.262C210.338 22.7193 210.431 23.1253 210.618 23.48C210.814 23.8347 211.071 24.11 211.388 24.306C211.715 24.502 212.074 24.6 212.466 24.6C212.858 24.6 213.213 24.502 213.53 24.306C213.857 24.11 214.113 23.8347 214.3 23.48C214.496 23.1253 214.594 22.7193 214.594 22.262ZM221.29 24.418C221.42 24.418 221.537 24.4833 221.64 24.614C221.752 24.7353 221.808 24.8987 221.808 25.104C221.808 25.356 221.668 25.5707 221.388 25.748C221.117 25.916 220.809 26 220.464 26C219.885 26 219.395 25.8787 218.994 25.636C218.602 25.384 218.406 24.8567 218.406 24.054V20.19H217.762C217.538 20.19 217.351 20.1153 217.202 19.966C217.052 19.8167 216.978 19.63 216.978 19.406C216.978 19.1913 217.052 19.014 217.202 18.874C217.351 18.7247 217.538 18.65 217.762 18.65H218.406V17.754C218.406 17.5113 218.485 17.3107 218.644 17.152C218.812 16.984 219.017 16.9 219.26 16.9C219.493 16.9 219.689 16.984 219.848 17.152C220.006 17.3107 220.086 17.5113 220.086 17.754V18.65H221.08C221.304 18.65 221.49 18.7247 221.64 18.874C221.789 19.0233 221.864 19.21 221.864 19.434C221.864 19.6487 221.789 19.8307 221.64 19.98C221.49 20.12 221.304 20.19 221.08 20.19H220.086V23.984C220.086 24.18 220.137 24.3247 220.24 24.418C220.342 24.502 220.482 24.544 220.66 24.544C220.734 24.544 220.837 24.5253 220.968 24.488C221.08 24.4413 221.187 24.418 221.29 24.418ZM232.888 18.51C233.131 18.51 233.331 18.594 233.49 18.762C233.649 18.9207 233.728 19.1213 233.728 19.364V25.314C233.728 26.5273 233.401 27.4093 232.748 27.96C232.095 28.52 231.222 28.8 230.13 28.8C229.813 28.8 229.486 28.772 229.15 28.716C228.823 28.6693 228.557 28.604 228.352 28.52C227.895 28.324 227.666 28.0533 227.666 27.708C227.666 27.6427 227.68 27.568 227.708 27.484C227.764 27.2787 227.857 27.12 227.988 27.008C228.128 26.9053 228.277 26.854 228.436 26.854C228.529 26.854 228.618 26.868 228.702 26.896C228.767 26.924 228.879 26.9707 229.038 27.036C229.206 27.1013 229.379 27.1527 229.556 27.19C229.743 27.2367 229.934 27.26 230.13 27.26C230.793 27.26 231.278 27.1153 231.586 26.826C231.903 26.546 232.062 26.0607 232.062 25.37V25.23C231.577 25.8367 230.821 26.14 229.794 26.14C229.309 26.14 228.879 26.028 228.506 25.804C228.133 25.5707 227.843 25.2533 227.638 24.852C227.433 24.4413 227.33 23.9747 227.33 23.452V19.364C227.33 19.1213 227.409 18.9207 227.568 18.762C227.727 18.594 227.927 18.51 228.17 18.51C228.413 18.51 228.613 18.594 228.772 18.762C228.931 18.9207 229.01 19.1213 229.01 19.364V22.948C229.01 23.536 229.136 23.9607 229.388 24.222C229.649 24.474 230.027 24.6 230.522 24.6C231.007 24.6 231.381 24.46 231.642 24.18C231.913 23.8907 232.048 23.48 232.048 22.948V19.364C232.048 19.1213 232.127 18.9207 232.286 18.762C232.445 18.594 232.645 18.51 232.888 18.51ZM242.674 22.262C242.674 23.0087 242.506 23.6807 242.17 24.278C241.834 24.866 241.372 25.3233 240.784 25.65C240.206 25.9767 239.566 26.14 238.866 26.14C238.157 26.14 237.513 25.9767 236.934 25.65C236.356 25.3233 235.898 24.866 235.562 24.278C235.226 23.6807 235.058 23.0087 235.058 22.262C235.058 21.5153 235.226 20.848 235.562 20.26C235.898 19.6627 236.356 19.2007 236.934 18.874C237.513 18.538 238.157 18.37 238.866 18.37C239.566 18.37 240.206 18.538 240.784 18.874C241.372 19.2007 241.834 19.6627 242.17 20.26C242.506 20.848 242.674 21.5153 242.674 22.262ZM240.994 22.262C240.994 21.8047 240.896 21.3987 240.7 21.044C240.514 20.68 240.257 20.4 239.93 20.204C239.613 20.008 239.258 19.91 238.866 19.91C238.474 19.91 238.115 20.008 237.788 20.204C237.471 20.4 237.214 20.68 237.018 21.044C236.832 21.3987 236.738 21.8047 236.738 22.262C236.738 22.7193 236.832 23.1253 237.018 23.48C237.214 23.8347 237.471 24.11 237.788 24.306C238.115 24.502 238.474 24.6 238.866 24.6C239.258 24.6 239.613 24.502 239.93 24.306C240.257 24.11 240.514 23.8347 240.7 23.48C240.896 23.1253 240.994 22.7193 240.994 22.262ZM249.636 18.51C249.879 18.51 250.079 18.594 250.238 18.762C250.397 18.9207 250.476 19.1213 250.476 19.364V22.92C250.476 23.928 250.196 24.7167 249.636 25.286C249.085 25.8553 248.297 26.14 247.27 26.14C246.243 26.14 245.455 25.8553 244.904 25.286C244.353 24.7167 244.078 23.928 244.078 22.92V19.364C244.078 19.1213 244.157 18.9207 244.316 18.762C244.475 18.594 244.675 18.51 244.918 18.51C245.161 18.51 245.361 18.594 245.52 18.762C245.679 18.9207 245.758 19.1213 245.758 19.364V22.92C245.758 23.4893 245.884 23.914 246.136 24.194C246.388 24.4647 246.766 24.6 247.27 24.6C247.783 24.6 248.166 24.4647 248.418 24.194C248.67 23.914 248.796 23.4893 248.796 22.92V19.364C248.796 19.1213 248.875 18.9207 249.034 18.762C249.193 18.594 249.393 18.51 249.636 18.51ZM256.187 18.37C256.467 18.37 256.7 18.4493 256.887 18.608C257.083 18.7667 257.181 18.9533 257.181 19.168C257.181 19.4573 257.106 19.6767 256.957 19.826C256.807 19.966 256.63 20.036 256.425 20.036C256.285 20.036 256.126 20.0033 255.949 19.938C255.921 19.9287 255.855 19.91 255.753 19.882C255.659 19.854 255.557 19.84 255.445 19.84C255.202 19.84 254.969 19.9147 254.745 20.064C254.521 20.2133 254.334 20.442 254.185 20.75C254.045 21.0487 253.975 21.408 253.975 21.828V25.146C253.975 25.3887 253.895 25.594 253.737 25.762C253.578 25.9207 253.377 26 253.135 26C252.892 26 252.691 25.9207 252.533 25.762C252.374 25.594 252.295 25.3887 252.295 25.146V19.364C252.295 19.1213 252.374 18.9207 252.533 18.762C252.691 18.594 252.892 18.51 253.135 18.51C253.377 18.51 253.578 18.594 253.737 18.762C253.895 18.9207 253.975 19.1213 253.975 19.364V19.546C254.189 19.1633 254.497 18.874 254.899 18.678C255.3 18.4727 255.729 18.37 256.187 18.37ZM266.167 18.37C266.811 18.37 267.394 18.538 267.917 18.874C268.44 19.2007 268.85 19.658 269.149 20.246C269.457 20.834 269.611 21.5013 269.611 22.248C269.611 22.9947 269.462 23.6667 269.163 24.264C268.864 24.852 268.454 25.314 267.931 25.65C267.418 25.9767 266.848 26.14 266.223 26.14C265.775 26.14 265.35 26.0513 264.949 25.874C264.557 25.6873 264.23 25.4633 263.969 25.202V25.286C263.969 25.5287 263.89 25.734 263.731 25.902C263.572 26.0607 263.372 26.14 263.129 26.14C262.886 26.14 262.686 26.0607 262.527 25.902C262.368 25.7433 262.289 25.538 262.289 25.286V16.494C262.289 16.2513 262.368 16.0507 262.527 15.892C262.686 15.724 262.886 15.64 263.129 15.64C263.372 15.64 263.572 15.724 263.731 15.892C263.89 16.0507 263.969 16.2513 263.969 16.494V19.42C264.193 19.14 264.506 18.8973 264.907 18.692C265.308 18.4773 265.728 18.37 266.167 18.37ZM265.957 24.6C266.554 24.6 267.044 24.376 267.427 23.928C267.81 23.48 268.001 22.92 268.001 22.248C268.001 21.576 267.81 21.0207 267.427 20.582C267.054 20.134 266.564 19.91 265.957 19.91C265.35 19.91 264.856 20.134 264.473 20.582C264.09 21.0207 263.899 21.576 263.899 22.248C263.899 22.92 264.09 23.48 264.473 23.928C264.856 24.376 265.35 24.6 265.957 24.6ZM277.074 18.37C277.316 18.37 277.517 18.4493 277.676 18.608C277.834 18.7667 277.914 18.972 277.914 19.224V25.146C277.914 25.3887 277.834 25.594 277.676 25.762C277.517 25.9207 277.316 26 277.074 26C276.831 26 276.63 25.9207 276.472 25.762C276.322 25.6033 276.243 25.4027 276.234 25.16C276 25.4307 275.683 25.664 275.282 25.86C274.89 26.0467 274.474 26.14 274.036 26.14C273.392 26.14 272.808 25.9767 272.286 25.65C271.763 25.314 271.348 24.852 271.04 24.264C270.741 23.676 270.592 23.0087 270.592 22.262C270.592 21.5153 270.741 20.848 271.04 20.26C271.338 19.6627 271.744 19.2007 272.258 18.874C272.78 18.538 273.354 18.37 273.98 18.37C274.428 18.37 274.848 18.454 275.24 18.622C275.632 18.7807 275.963 18.986 276.234 19.238V19.224C276.234 18.9813 276.313 18.7807 276.472 18.622C276.63 18.454 276.831 18.37 277.074 18.37ZM274.246 24.6C274.852 24.6 275.347 24.3807 275.73 23.942C276.112 23.494 276.304 22.934 276.304 22.262C276.304 21.59 276.112 21.03 275.73 20.582C275.347 20.134 274.852 19.91 274.246 19.91C273.648 19.91 273.158 20.134 272.776 20.582C272.393 21.03 272.202 21.59 272.202 22.262C272.202 22.934 272.388 23.494 272.762 23.942C273.144 24.3807 273.639 24.6 274.246 24.6ZM282.996 18.37C283.79 18.37 284.429 18.496 284.914 18.748C285.4 18.9907 285.642 19.3173 285.642 19.728C285.642 19.9333 285.582 20.1153 285.46 20.274C285.339 20.4233 285.18 20.498 284.984 20.498C284.835 20.498 284.714 20.4793 284.62 20.442C284.527 20.3953 284.434 20.3393 284.34 20.274C284.256 20.1993 284.172 20.1387 284.088 20.092C283.995 20.0453 283.855 20.0033 283.668 19.966C283.491 19.9287 283.346 19.91 283.234 19.91C282.534 19.91 281.984 20.1293 281.582 20.568C281.19 20.9973 280.994 21.562 280.994 22.262C280.994 22.934 281.195 23.494 281.596 23.942C281.998 24.3807 282.511 24.6 283.136 24.6C283.594 24.6 283.934 24.544 284.158 24.432C284.214 24.404 284.289 24.3573 284.382 24.292C284.485 24.2173 284.578 24.1613 284.662 24.124C284.746 24.0867 284.849 24.068 284.97 24.068C285.204 24.068 285.386 24.1427 285.516 24.292C285.656 24.4413 285.726 24.6327 285.726 24.866C285.726 25.09 285.596 25.3 285.334 25.496C285.073 25.692 284.728 25.8507 284.298 25.972C283.869 26.084 283.412 26.14 282.926 26.14C282.208 26.14 281.573 25.972 281.022 25.636C280.481 25.3 280.061 24.838 279.762 24.25C279.464 23.6527 279.314 22.99 279.314 22.262C279.314 21.506 279.468 20.834 279.776 20.246C280.094 19.658 280.532 19.2007 281.092 18.874C281.652 18.538 282.287 18.37 282.996 18.37ZM293.169 24.53C293.347 24.7167 293.435 24.9267 293.435 25.16C293.435 25.3933 293.342 25.5893 293.155 25.748C292.978 25.9067 292.787 25.986 292.581 25.986C292.339 25.986 292.133 25.8927 291.965 25.706L289.445 23.046L288.759 23.676V25.146C288.759 25.3887 288.68 25.594 288.521 25.762C288.363 25.9207 288.162 26 287.919 26C287.677 26 287.476 25.9207 287.317 25.762C287.159 25.594 287.079 25.3887 287.079 25.146V16.494C287.079 16.2513 287.159 16.0507 287.317 15.892C287.476 15.724 287.677 15.64 287.919 15.64C288.162 15.64 288.363 15.724 288.521 15.892C288.68 16.0507 288.759 16.2513 288.759 16.494V21.674L291.755 18.776C291.933 18.5987 292.138 18.51 292.371 18.51C292.577 18.51 292.759 18.5987 292.917 18.776C293.085 18.944 293.169 19.1167 293.169 19.294C293.169 19.518 293.057 19.728 292.833 19.924L290.719 21.87L293.169 24.53ZM295.876 22.906C295.559 22.906 295.386 22.7287 295.358 22.374L294.952 17.222C294.933 16.9327 295.008 16.69 295.176 16.494C295.353 16.298 295.582 16.2 295.862 16.2C296.142 16.2 296.371 16.298 296.548 16.494C296.725 16.69 296.8 16.9327 296.772 17.222L296.38 22.374C296.352 22.7287 296.184 22.906 295.876 22.906ZM295.778 26C295.507 26 295.297 25.93 295.148 25.79C295.008 25.6407 294.938 25.4307 294.938 25.16V24.922C294.938 24.6513 295.008 24.446 295.148 24.306C295.297 24.1567 295.507 24.082 295.778 24.082H295.96C296.231 24.082 296.436 24.1567 296.576 24.306C296.725 24.446 296.8 24.6513 296.8 24.922V25.16C296.8 25.4307 296.725 25.6407 296.576 25.79C296.436 25.93 296.231 26 295.96 26H295.778ZM64.134 41.026C64.134 41.2127 64.0827 41.3853 63.98 41.544L61.054 45.73V49.146C61.054 49.3887 60.9747 49.594 60.816 49.762C60.6573 49.9207 60.466 50 60.242 50C60.0087 50 59.808 49.9207 59.64 49.762C59.4813 49.594 59.402 49.3887 59.402 49.146V45.534L56.49 41.67C56.322 41.446 56.238 41.2267 56.238 41.012C56.238 40.7693 56.3313 40.5687 56.518 40.41C56.714 40.242 56.9193 40.158 57.134 40.158C57.3953 40.158 57.624 40.2887 57.82 40.55L60.284 43.952L62.594 40.578C62.79 40.298 63.0233 40.158 63.294 40.158C63.518 40.158 63.714 40.242 63.882 40.41C64.05 40.578 64.134 40.7833 64.134 41.026ZM71.8716 46.262C71.8716 47.0087 71.7036 47.6807 71.3676 48.278C71.0316 48.866 70.5696 49.3233 69.9816 49.65C69.403 49.9767 68.7636 50.14 68.0636 50.14C67.3543 50.14 66.7103 49.9767 66.1316 49.65C65.553 49.3233 65.0956 48.866 64.7596 48.278C64.4236 47.6807 64.2556 47.0087 64.2556 46.262C64.2556 45.5153 64.4236 44.848 64.7596 44.26C65.0956 43.6627 65.553 43.2007 66.1316 42.874C66.7103 42.538 67.3543 42.37 68.0636 42.37C68.7636 42.37 69.403 42.538 69.9816 42.874C70.5696 43.2007 71.0316 43.6627 71.3676 44.26C71.7036 44.848 71.8716 45.5153 71.8716 46.262ZM70.1916 46.262C70.1916 45.8047 70.0936 45.3987 69.8976 45.044C69.711 44.68 69.4543 44.4 69.1276 44.204C68.8103 44.008 68.4556 43.91 68.0636 43.91C67.6716 43.91 67.3123 44.008 66.9856 44.204C66.6683 44.4 66.4116 44.68 66.2156 45.044C66.029 45.3987 65.9356 45.8047 65.9356 46.262C65.9356 46.7193 66.029 47.1253 66.2156 47.48C66.4116 47.8347 66.6683 48.11 66.9856 48.306C67.3123 48.502 67.6716 48.6 68.0636 48.6C68.4556 48.6 68.8103 48.502 69.1276 48.306C69.4543 48.11 69.711 47.8347 69.8976 47.48C70.0936 47.1253 70.1916 46.7193 70.1916 46.262ZM78.8332 42.51C79.0759 42.51 79.2766 42.594 79.4352 42.762C79.5939 42.9207 79.6732 43.1213 79.6732 43.364V46.92C79.6732 47.928 79.3932 48.7167 78.8332 49.286C78.2826 49.8553 77.4939 50.14 76.4672 50.14C75.4406 50.14 74.6519 49.8553 74.1012 49.286C73.5506 48.7167 73.2752 47.928 73.2752 46.92V43.364C73.2752 43.1213 73.3546 42.9207 73.5132 42.762C73.6719 42.594 73.8726 42.51 74.1152 42.51C74.3579 42.51 74.5586 42.594 74.7172 42.762C74.8759 42.9207 74.9552 43.1213 74.9552 43.364V46.92C74.9552 47.4893 75.0812 47.914 75.3332 48.194C75.5852 48.4647 75.9632 48.6 76.4672 48.6C76.9806 48.6 77.3632 48.4647 77.6152 48.194C77.8672 47.914 77.9932 47.4893 77.9932 46.92V43.364C77.9932 43.1213 78.0726 42.9207 78.2312 42.762C78.3899 42.594 78.5906 42.51 78.8332 42.51ZM85.384 42.37C85.664 42.37 85.8974 42.4493 86.084 42.608C86.28 42.7667 86.378 42.9533 86.378 43.168C86.378 43.4573 86.3034 43.6767 86.154 43.826C86.0047 43.966 85.8274 44.036 85.622 44.036C85.482 44.036 85.3234 44.0033 85.146 43.938C85.118 43.9287 85.0527 43.91 84.95 43.882C84.8567 43.854 84.754 43.84 84.642 43.84C84.3994 43.84 84.166 43.9147 83.942 44.064C83.718 44.2133 83.5314 44.442 83.382 44.75C83.242 45.0487 83.172 45.408 83.172 45.828V49.146C83.172 49.3887 83.0927 49.594 82.934 49.762C82.7754 49.9207 82.5747 50 82.332 50C82.0894 50 81.8887 49.9207 81.73 49.762C81.5714 49.594 81.492 49.3887 81.492 49.146V43.364C81.492 43.1213 81.5714 42.9207 81.73 42.762C81.8887 42.594 82.0894 42.51 82.332 42.51C82.5747 42.51 82.7754 42.594 82.934 42.762C83.0927 42.9207 83.172 43.1213 83.172 43.364V43.546C83.3867 43.1633 83.6947 42.874 84.096 42.678C84.4974 42.4727 84.9267 42.37 85.384 42.37ZM94.7482 42.37C95.5415 42.37 96.1808 42.496 96.6662 42.748C97.1515 42.9907 97.3942 43.3173 97.3942 43.728C97.3942 43.9333 97.3335 44.1153 97.2122 44.274C97.0908 44.4233 96.9322 44.498 96.7362 44.498C96.5868 44.498 96.4655 44.4793 96.3722 44.442C96.2788 44.3953 96.1855 44.3393 96.0922 44.274C96.0082 44.1993 95.9242 44.1387 95.8402 44.092C95.7468 44.0453 95.6068 44.0033 95.4202 43.966C95.2428 43.9287 95.0982 43.91 94.9862 43.91C94.2862 43.91 93.7355 44.1293 93.3342 44.568C92.9422 44.9973 92.7462 45.562 92.7462 46.262C92.7462 46.934 92.9468 47.494 93.3482 47.942C93.7495 48.3807 94.2628 48.6 94.8882 48.6C95.3455 48.6 95.6862 48.544 95.9102 48.432C95.9662 48.404 96.0408 48.3573 96.1342 48.292C96.2368 48.2173 96.3302 48.1613 96.4142 48.124C96.4982 48.0867 96.6008 48.068 96.7222 48.068C96.9555 48.068 97.1375 48.1427 97.2682 48.292C97.4082 48.4413 97.4782 48.6327 97.4782 48.866C97.4782 49.09 97.3475 49.3 97.0862 49.496C96.8248 49.692 96.4795 49.8507 96.0502 49.972C95.6208 50.084 95.1635 50.14 94.6782 50.14C93.9595 50.14 93.3248 49.972 92.7742 49.636C92.2328 49.3 91.8128 48.838 91.5142 48.25C91.2155 47.6527 91.0662 46.99 91.0662 46.262C91.0662 45.506 91.2202 44.834 91.5282 44.246C91.8455 43.658 92.2842 43.2007 92.8442 42.874C93.4042 42.538 94.0388 42.37 94.7482 42.37ZM102.583 42.37C102.863 42.37 103.097 42.4493 103.283 42.608C103.479 42.7667 103.577 42.9533 103.577 43.168C103.577 43.4573 103.503 43.6767 103.353 43.826C103.204 43.966 103.027 44.036 102.821 44.036C102.681 44.036 102.523 44.0033 102.345 43.938C102.317 43.9287 102.252 43.91 102.149 43.882C102.056 43.854 101.953 43.84 101.841 43.84C101.599 43.84 101.365 43.9147 101.141 44.064C100.917 44.2133 100.731 44.442 100.581 44.75C100.441 45.0487 100.371 45.408 100.371 45.828V49.146C100.371 49.3887 100.292 49.594 100.133 49.762C99.9746 49.9207 99.7739 50 99.5312 50C99.2886 50 99.0879 49.9207 98.9293 49.762C98.7706 49.594 98.6913 49.3887 98.6913 49.146V43.364C98.6913 43.1213 98.7706 42.9207 98.9293 42.762C99.0879 42.594 99.2886 42.51 99.5312 42.51C99.7739 42.51 99.9746 42.594 100.133 42.762C100.292 42.9207 100.371 43.1213 100.371 43.364V43.546C100.586 43.1633 100.894 42.874 101.295 42.678C101.697 42.4727 102.126 42.37 102.583 42.37ZM111.167 46.08C111.158 46.304 111.069 46.486 110.901 46.626C110.733 46.766 110.537 46.836 110.313 46.836H105.693C105.805 47.3867 106.062 47.8207 106.463 48.138C106.864 48.446 107.317 48.6 107.821 48.6C108.204 48.6 108.502 48.5673 108.717 48.502C108.932 48.4273 109.1 48.3527 109.221 48.278C109.352 48.194 109.44 48.138 109.487 48.11C109.655 48.026 109.814 47.984 109.963 47.984C110.159 47.984 110.327 48.054 110.467 48.194C110.607 48.334 110.677 48.4973 110.677 48.684C110.677 48.936 110.546 49.1647 110.285 49.37C110.024 49.5847 109.674 49.7667 109.235 49.916C108.796 50.0653 108.353 50.14 107.905 50.14C107.121 50.14 106.435 49.9767 105.847 49.65C105.268 49.3233 104.82 48.8753 104.503 48.306C104.186 47.7273 104.027 47.0787 104.027 46.36C104.027 45.5573 104.195 44.8527 104.531 44.246C104.867 43.6393 105.31 43.1773 105.861 42.86C106.412 42.5333 107 42.37 107.625 42.37C108.241 42.37 108.82 42.538 109.361 42.874C109.912 43.21 110.35 43.6627 110.677 44.232C111.004 44.8013 111.167 45.4173 111.167 46.08ZM107.625 43.91C106.542 43.91 105.903 44.4187 105.707 45.436H109.375V45.338C109.338 44.946 109.146 44.61 108.801 44.33C108.456 44.05 108.064 43.91 107.625 43.91ZM118.63 39.64C118.873 39.64 119.074 39.7193 119.232 39.878C119.391 40.0367 119.47 40.242 119.47 40.494V49.146C119.47 49.3887 119.391 49.594 119.232 49.762C119.074 49.9207 118.873 50 118.63 50C118.388 50 118.187 49.9207 118.028 49.762C117.879 49.6033 117.8 49.4027 117.79 49.16C117.557 49.4307 117.24 49.664 116.838 49.86C116.446 50.0467 116.031 50.14 115.592 50.14C114.948 50.14 114.365 49.9767 113.842 49.65C113.32 49.314 112.904 48.852 112.596 48.264C112.298 47.676 112.148 47.0087 112.148 46.262C112.148 45.5153 112.298 44.848 112.596 44.26C112.895 43.6627 113.301 43.2007 113.814 42.874C114.337 42.538 114.911 42.37 115.536 42.37C115.984 42.37 116.404 42.454 116.796 42.622C117.188 42.7807 117.52 42.986 117.79 43.238V40.494C117.79 40.2513 117.87 40.0507 118.028 39.892C118.187 39.724 118.388 39.64 118.63 39.64ZM115.802 48.6C116.409 48.6 116.904 48.3807 117.286 47.942C117.669 47.494 117.86 46.934 117.86 46.262C117.86 45.59 117.669 45.03 117.286 44.582C116.904 44.134 116.409 43.91 115.802 43.91C115.205 43.91 114.715 44.134 114.332 44.582C113.95 45.03 113.758 45.59 113.758 46.262C113.758 46.934 113.945 47.494 114.318 47.942C114.701 48.3807 115.196 48.6 115.802 48.6ZM128.011 46.08C128.002 46.304 127.913 46.486 127.745 46.626C127.577 46.766 127.381 46.836 127.157 46.836H122.537C122.649 47.3867 122.906 47.8207 123.307 48.138C123.708 48.446 124.161 48.6 124.665 48.6C125.048 48.6 125.346 48.5673 125.561 48.502C125.776 48.4273 125.944 48.3527 126.065 48.278C126.196 48.194 126.284 48.138 126.331 48.11C126.499 48.026 126.658 47.984 126.807 47.984C127.003 47.984 127.171 48.054 127.311 48.194C127.451 48.334 127.521 48.4973 127.521 48.684C127.521 48.936 127.39 49.1647 127.129 49.37C126.868 49.5847 126.518 49.7667 126.079 49.916C125.64 50.0653 125.197 50.14 124.749 50.14C123.965 50.14 123.279 49.9767 122.691 49.65C122.112 49.3233 121.664 48.8753 121.347 48.306C121.03 47.7273 120.871 47.0787 120.871 46.36C120.871 45.5573 121.039 44.8527 121.375 44.246C121.711 43.6393 122.154 43.1773 122.705 42.86C123.256 42.5333 123.844 42.37 124.469 42.37C125.085 42.37 125.664 42.538 126.205 42.874C126.756 43.21 127.194 43.6627 127.521 44.232C127.848 44.8013 128.011 45.4173 128.011 46.08ZM124.469 43.91C123.386 43.91 122.747 44.4187 122.551 45.436H126.219V45.338C126.182 44.946 125.99 44.61 125.645 44.33C125.3 44.05 124.908 43.91 124.469 43.91ZM133.416 42.37C134.368 42.37 135.026 42.6547 135.39 43.224C135.754 43.784 135.936 44.5633 135.936 45.562V49.146C135.936 49.3887 135.857 49.594 135.698 49.762C135.539 49.9207 135.339 50 135.096 50C134.853 50 134.653 49.9207 134.494 49.762C134.335 49.594 134.256 49.3887 134.256 49.146V45.562C134.256 45.0487 134.149 44.6473 133.934 44.358C133.719 44.0593 133.351 43.91 132.828 43.91C132.287 43.91 131.862 44.0687 131.554 44.386C131.246 44.694 131.092 45.086 131.092 45.562V49.146C131.092 49.3887 131.013 49.594 130.854 49.762C130.695 49.9207 130.495 50 130.252 50C130.009 50 129.809 49.9207 129.65 49.762C129.491 49.594 129.412 49.3887 129.412 49.146V43.364C129.412 43.1213 129.491 42.9207 129.65 42.762C129.809 42.594 130.009 42.51 130.252 42.51C130.495 42.51 130.695 42.594 130.854 42.762C131.013 42.9207 131.092 43.1213 131.092 43.364V43.602C131.344 43.266 131.671 42.9767 132.072 42.734C132.483 42.4913 132.931 42.37 133.416 42.37ZM141.364 48.418C141.494 48.418 141.611 48.4833 141.714 48.614C141.826 48.7353 141.882 48.8987 141.882 49.104C141.882 49.356 141.742 49.5707 141.462 49.748C141.191 49.916 140.883 50 140.538 50C139.959 50 139.469 49.8787 139.068 49.636C138.676 49.384 138.48 48.8567 138.48 48.054V44.19H137.836C137.612 44.19 137.425 44.1153 137.276 43.966C137.126 43.8167 137.052 43.63 137.052 43.406C137.052 43.1913 137.126 43.014 137.276 42.874C137.425 42.7247 137.612 42.65 137.836 42.65H138.48V41.754C138.48 41.5113 138.559 41.3107 138.718 41.152C138.886 40.984 139.091 40.9 139.334 40.9C139.567 40.9 139.763 40.984 139.922 41.152C140.08 41.3107 140.16 41.5113 140.16 41.754V42.65H141.154C141.378 42.65 141.564 42.7247 141.714 42.874C141.863 43.0233 141.938 43.21 141.938 43.434C141.938 43.6487 141.863 43.8307 141.714 43.98C141.564 44.12 141.378 44.19 141.154 44.19H140.16V47.984C140.16 48.18 140.211 48.3247 140.314 48.418C140.416 48.502 140.556 48.544 140.734 48.544C140.808 48.544 140.911 48.5253 141.042 48.488C141.154 48.4413 141.261 48.418 141.364 48.418ZM145.062 49.146C145.062 49.3887 144.983 49.594 144.824 49.762C144.666 49.9207 144.465 50 144.222 50C143.98 50 143.779 49.9207 143.62 49.762C143.462 49.594 143.382 49.3887 143.382 49.146V43.364C143.382 43.1213 143.462 42.9207 143.62 42.762C143.779 42.594 143.98 42.51 144.222 42.51C144.465 42.51 144.666 42.594 144.824 42.762C144.983 42.9207 145.062 43.1213 145.062 43.364V49.146ZM144.208 41.6C143.891 41.6 143.667 41.5487 143.536 41.446C143.406 41.3433 143.34 41.1613 143.34 40.9V40.634C143.34 40.3727 143.41 40.1907 143.55 40.088C143.69 39.9853 143.914 39.934 144.222 39.934C144.549 39.934 144.778 39.9853 144.908 40.088C145.039 40.1907 145.104 40.3727 145.104 40.634V40.9C145.104 41.1707 145.034 41.3573 144.894 41.46C144.764 41.5533 144.535 41.6 144.208 41.6ZM152.851 42.37C153.094 42.37 153.294 42.4493 153.453 42.608C153.612 42.7667 153.691 42.972 153.691 43.224V49.146C153.691 49.3887 153.612 49.594 153.453 49.762C153.294 49.9207 153.094 50 152.851 50C152.608 50 152.408 49.9207 152.249 49.762C152.1 49.6033 152.02 49.4027 152.011 49.16C151.778 49.4307 151.46 49.664 151.059 49.86C150.667 50.0467 150.252 50.14 149.813 50.14C149.169 50.14 148.586 49.9767 148.063 49.65C147.54 49.314 147.125 48.852 146.817 48.264C146.518 47.676 146.369 47.0087 146.369 46.262C146.369 45.5153 146.518 44.848 146.817 44.26C147.116 43.6627 147.522 43.2007 148.035 42.874C148.558 42.538 149.132 42.37 149.757 42.37C150.205 42.37 150.625 42.454 151.017 42.622C151.409 42.7807 151.74 42.986 152.011 43.238V43.224C152.011 42.9813 152.09 42.7807 152.249 42.622C152.408 42.454 152.608 42.37 152.851 42.37ZM150.023 48.6C150.63 48.6 151.124 48.3807 151.507 47.942C151.89 47.494 152.081 46.934 152.081 46.262C152.081 45.59 151.89 45.03 151.507 44.582C151.124 44.134 150.63 43.91 150.023 43.91C149.426 43.91 148.936 44.134 148.553 44.582C148.17 45.03 147.979 45.59 147.979 46.262C147.979 46.934 148.166 47.494 148.539 47.942C148.922 48.3807 149.416 48.6 150.023 48.6ZM157.332 49.146C157.332 49.3887 157.248 49.594 157.08 49.762C156.921 49.9207 156.72 50 156.478 50C156.244 50 156.048 49.9207 155.89 49.762C155.731 49.594 155.652 49.3887 155.652 49.146V40.494C155.652 40.2513 155.731 40.0507 155.89 39.892C156.058 39.724 156.263 39.64 156.506 39.64C156.739 39.64 156.935 39.724 157.094 39.892C157.252 40.0507 157.332 40.2513 157.332 40.494V49.146ZM158.851 48.838C158.767 48.726 158.725 48.586 158.725 48.418C158.725 48.1753 158.846 47.97 159.089 47.802C159.22 47.718 159.355 47.676 159.495 47.676C159.691 47.676 159.878 47.7647 160.055 47.942C160.335 48.2313 160.624 48.446 160.923 48.586C161.231 48.726 161.6 48.796 162.029 48.796C162.757 48.768 163.121 48.4927 163.121 47.97C163.121 47.6993 162.995 47.494 162.743 47.354C162.5 47.214 162.118 47.074 161.595 46.934C161.054 46.7847 160.61 46.6353 160.265 46.486C159.929 46.3367 159.635 46.1127 159.383 45.814C159.14 45.506 159.019 45.0953 159.019 44.582C159.019 44.134 159.145 43.7467 159.397 43.42C159.658 43.084 159.994 42.8273 160.405 42.65C160.825 42.4633 161.268 42.37 161.735 42.37C162.211 42.37 162.687 42.4587 163.163 42.636C163.639 42.8133 164.012 43.0747 164.283 43.42C164.404 43.5693 164.465 43.7373 164.465 43.924C164.465 44.1387 164.376 44.316 164.199 44.456C164.068 44.5587 163.919 44.61 163.751 44.61C163.546 44.61 163.378 44.5447 163.247 44.414C163.079 44.2087 162.86 44.0453 162.589 43.924C162.328 43.8027 162.029 43.742 161.693 43.742C160.984 43.742 160.629 43.9987 160.629 44.512C160.629 44.7173 160.694 44.8853 160.825 45.016C160.956 45.1373 161.119 45.2353 161.315 45.31C161.52 45.3753 161.805 45.4593 162.169 45.562C162.673 45.702 163.093 45.8467 163.429 45.996C163.765 46.1453 164.05 46.374 164.283 46.682C164.516 46.99 164.633 47.396 164.633 47.9C164.633 48.3573 164.498 48.7587 164.227 49.104C163.956 49.44 163.606 49.6967 163.177 49.874C162.757 50.0513 162.323 50.14 161.875 50.14C161.259 50.14 160.685 50.0373 160.153 49.832C159.621 49.6267 159.187 49.2953 158.851 48.838ZM176.025 42.37C176.267 42.37 176.468 42.4493 176.627 42.608C176.785 42.7667 176.865 42.972 176.865 43.224V49.146C176.865 49.3887 176.785 49.594 176.627 49.762C176.468 49.9207 176.267 50 176.025 50C175.782 50 175.581 49.9207 175.423 49.762C175.273 49.6033 175.194 49.4027 175.185 49.16C174.951 49.4307 174.634 49.664 174.233 49.86C173.841 50.0467 173.425 50.14 172.987 50.14C172.343 50.14 171.759 49.9767 171.237 49.65C170.714 49.314 170.299 48.852 169.991 48.264C169.692 47.676 169.543 47.0087 169.543 46.262C169.543 45.5153 169.692 44.848 169.991 44.26C170.289 43.6627 170.695 43.2007 171.209 42.874C171.731 42.538 172.305 42.37 172.931 42.37C173.379 42.37 173.799 42.454 174.191 42.622C174.583 42.7807 174.914 42.986 175.185 43.238V43.224C175.185 42.9813 175.264 42.7807 175.423 42.622C175.581 42.454 175.782 42.37 176.025 42.37ZM173.197 48.6C173.803 48.6 174.298 48.3807 174.681 47.942C175.063 47.494 175.255 46.934 175.255 46.262C175.255 45.59 175.063 45.03 174.681 44.582C174.298 44.134 173.803 43.91 173.197 43.91C172.599 43.91 172.109 44.134 171.727 44.582C171.344 45.03 171.153 45.59 171.153 46.262C171.153 46.934 171.339 47.494 171.713 47.942C172.095 48.3807 172.59 48.6 173.197 48.6ZM182.577 42.37C182.857 42.37 183.091 42.4493 183.277 42.608C183.473 42.7667 183.571 42.9533 183.571 43.168C183.571 43.4573 183.497 43.6767 183.347 43.826C183.198 43.966 183.021 44.036 182.815 44.036C182.675 44.036 182.517 44.0033 182.339 43.938C182.311 43.9287 182.246 43.91 182.143 43.882C182.05 43.854 181.947 43.84 181.835 43.84C181.593 43.84 181.359 43.9147 181.135 44.064C180.911 44.2133 180.725 44.442 180.575 44.75C180.435 45.0487 180.365 45.408 180.365 45.828V49.146C180.365 49.3887 180.286 49.594 180.127 49.762C179.969 49.9207 179.768 50 179.525 50C179.283 50 179.082 49.9207 178.923 49.762C178.765 49.594 178.685 49.3887 178.685 49.146V43.364C178.685 43.1213 178.765 42.9207 178.923 42.762C179.082 42.594 179.283 42.51 179.525 42.51C179.768 42.51 179.969 42.594 180.127 42.762C180.286 42.9207 180.365 43.1213 180.365 43.364V43.546C180.58 43.1633 180.888 42.874 181.289 42.678C181.691 42.4727 182.12 42.37 182.577 42.37ZM191.161 46.08C191.152 46.304 191.063 46.486 190.895 46.626C190.727 46.766 190.531 46.836 190.307 46.836H185.687C185.799 47.3867 186.056 47.8207 186.457 48.138C186.859 48.446 187.311 48.6 187.815 48.6C188.198 48.6 188.497 48.5673 188.711 48.502C188.926 48.4273 189.094 48.3527 189.215 48.278C189.346 48.194 189.435 48.138 189.481 48.11C189.649 48.026 189.808 47.984 189.957 47.984C190.153 47.984 190.321 48.054 190.461 48.194C190.601 48.334 190.671 48.4973 190.671 48.684C190.671 48.936 190.541 49.1647 190.279 49.37C190.018 49.5847 189.668 49.7667 189.229 49.916C188.791 50.0653 188.347 50.14 187.899 50.14C187.115 50.14 186.429 49.9767 185.841 49.65C185.263 49.3233 184.815 48.8753 184.497 48.306C184.18 47.7273 184.021 47.0787 184.021 46.36C184.021 45.5573 184.189 44.8527 184.525 44.246C184.861 43.6393 185.305 43.1773 185.855 42.86C186.406 42.5333 186.994 42.37 187.619 42.37C188.235 42.37 188.814 42.538 189.355 42.874C189.906 43.21 190.345 43.6627 190.671 44.232C190.998 44.8013 191.161 45.4173 191.161 46.08ZM187.619 43.91C186.537 43.91 185.897 44.4187 185.701 45.436H189.369V45.338C189.332 44.946 189.141 44.61 188.795 44.33C188.45 44.05 188.058 43.91 187.619 43.91ZM203.206 46.08C203.197 46.304 203.108 46.486 202.94 46.626C202.772 46.766 202.576 46.836 202.352 46.836H197.732C197.844 47.3867 198.101 47.8207 198.502 48.138C198.904 48.446 199.356 48.6 199.86 48.6C200.243 48.6 200.542 48.5673 200.756 48.502C200.971 48.4273 201.139 48.3527 201.26 48.278C201.391 48.194 201.48 48.138 201.526 48.11C201.694 48.026 201.853 47.984 202.002 47.984C202.198 47.984 202.366 48.054 202.506 48.194C202.646 48.334 202.716 48.4973 202.716 48.684C202.716 48.936 202.586 49.1647 202.324 49.37C202.063 49.5847 201.713 49.7667 201.274 49.916C200.836 50.0653 200.392 50.14 199.944 50.14C199.16 50.14 198.474 49.9767 197.886 49.65C197.308 49.3233 196.86 48.8753 196.542 48.306C196.225 47.7273 196.066 47.0787 196.066 46.36C196.066 45.5573 196.234 44.8527 196.57 44.246C196.906 43.6393 197.35 43.1773 197.9 42.86C198.451 42.5333 199.039 42.37 199.664 42.37C200.28 42.37 200.859 42.538 201.4 42.874C201.951 43.21 202.39 43.6627 202.716 44.232C203.043 44.8013 203.206 45.4173 203.206 46.08ZM199.664 43.91C198.582 43.91 197.942 44.4187 197.746 45.436H201.414V45.338C201.377 44.946 201.186 44.61 200.84 44.33C200.495 44.05 200.103 43.91 199.664 43.91ZM208.611 42.37C209.563 42.37 210.221 42.6547 210.585 43.224C210.949 43.784 211.131 44.5633 211.131 45.562V49.146C211.131 49.3887 211.052 49.594 210.893 49.762C210.735 49.9207 210.534 50 210.291 50C210.049 50 209.848 49.9207 209.689 49.762C209.531 49.594 209.451 49.3887 209.451 49.146V45.562C209.451 45.0487 209.344 44.6473 209.129 44.358C208.915 44.0593 208.546 43.91 208.023 43.91C207.482 43.91 207.057 44.0687 206.749 44.386C206.441 44.694 206.287 45.086 206.287 45.562V49.146C206.287 49.3887 206.208 49.594 206.049 49.762C205.891 49.9207 205.69 50 205.447 50C205.205 50 205.004 49.9207 204.845 49.762C204.687 49.594 204.607 49.3887 204.607 49.146V43.364C204.607 43.1213 204.687 42.9207 204.845 42.762C205.004 42.594 205.205 42.51 205.447 42.51C205.69 42.51 205.891 42.594 206.049 42.762C206.208 42.9207 206.287 43.1213 206.287 43.364V43.602C206.539 43.266 206.866 42.9767 207.267 42.734C207.678 42.4913 208.126 42.37 208.611 42.37ZM216.209 42.37C217.002 42.37 217.642 42.496 218.127 42.748C218.612 42.9907 218.855 43.3173 218.855 43.728C218.855 43.9333 218.794 44.1153 218.673 44.274C218.552 44.4233 218.393 44.498 218.197 44.498C218.048 44.498 217.926 44.4793 217.833 44.442C217.74 44.3953 217.646 44.3393 217.553 44.274C217.469 44.1993 217.385 44.1387 217.301 44.092C217.208 44.0453 217.068 44.0033 216.881 43.966C216.704 43.9287 216.559 43.91 216.447 43.91C215.747 43.91 215.196 44.1293 214.795 44.568C214.403 44.9973 214.207 45.562 214.207 46.262C214.207 46.934 214.408 47.494 214.809 47.942C215.21 48.3807 215.724 48.6 216.349 48.6C216.806 48.6 217.147 48.544 217.371 48.432C217.427 48.404 217.502 48.3573 217.595 48.292C217.698 48.2173 217.791 48.1613 217.875 48.124C217.959 48.0867 218.062 48.068 218.183 48.068C218.416 48.068 218.598 48.1427 218.729 48.292C218.869 48.4413 218.939 48.6327 218.939 48.866C218.939 49.09 218.808 49.3 218.547 49.496C218.286 49.692 217.94 49.8507 217.511 49.972C217.082 50.084 216.624 50.14 216.139 50.14C215.42 50.14 214.786 49.972 214.235 49.636C213.694 49.3 213.274 48.838 212.975 48.25C212.676 47.6527 212.527 46.99 212.527 46.262C212.527 45.506 212.681 44.834 212.989 44.246C213.306 43.658 213.745 43.2007 214.305 42.874C214.865 42.538 215.5 42.37 216.209 42.37ZM224.044 42.37C224.324 42.37 224.558 42.4493 224.744 42.608C224.94 42.7667 225.038 42.9533 225.038 43.168C225.038 43.4573 224.964 43.6767 224.814 43.826C224.665 43.966 224.488 44.036 224.282 44.036C224.142 44.036 223.984 44.0033 223.806 43.938C223.778 43.9287 223.713 43.91 223.61 43.882C223.517 43.854 223.414 43.84 223.302 43.84C223.06 43.84 222.826 43.9147 222.602 44.064C222.378 44.2133 222.192 44.442 222.042 44.75C221.902 45.0487 221.832 45.408 221.832 45.828V49.146C221.832 49.3887 221.753 49.594 221.594 49.762C221.436 49.9207 221.235 50 220.992 50C220.75 50 220.549 49.9207 220.39 49.762C220.232 49.594 220.152 49.3887 220.152 49.146V43.364C220.152 43.1213 220.232 42.9207 220.39 42.762C220.549 42.594 220.75 42.51 220.992 42.51C221.235 42.51 221.436 42.594 221.594 42.762C221.753 42.9207 221.832 43.1213 221.832 43.364V43.546C222.047 43.1633 222.355 42.874 222.756 42.678C223.158 42.4727 223.587 42.37 224.044 42.37ZM231.781 42.51C232.023 42.51 232.224 42.594 232.382 42.762C232.541 42.9207 232.621 43.1213 232.621 43.364V49.314C232.621 50.5273 232.294 51.4093 231.641 51.96C230.987 52.52 230.115 52.8 229.023 52.8C228.705 52.8 228.379 52.772 228.043 52.716C227.716 52.6693 227.45 52.604 227.245 52.52C226.787 52.324 226.559 52.0533 226.559 51.708C226.559 51.6427 226.573 51.568 226.601 51.484C226.657 51.2787 226.75 51.12 226.881 51.008C227.021 50.9053 227.17 50.854 227.329 50.854C227.422 50.854 227.511 50.868 227.595 50.896C227.66 50.924 227.772 50.9707 227.931 51.036C228.099 51.1013 228.271 51.1527 228.449 51.19C228.635 51.2367 228.827 51.26 229.023 51.26C229.685 51.26 230.171 51.1153 230.479 50.826C230.796 50.546 230.955 50.0607 230.955 49.37V49.23C230.469 49.8367 229.713 50.14 228.687 50.14C228.201 50.14 227.772 50.028 227.399 49.804C227.025 49.5707 226.736 49.2533 226.531 48.852C226.325 48.4413 226.223 47.9747 226.223 47.452V43.364C226.223 43.1213 226.302 42.9207 226.461 42.762C226.619 42.594 226.82 42.51 227.062 42.51C227.305 42.51 227.506 42.594 227.665 42.762C227.823 42.9207 227.903 43.1213 227.903 43.364V46.948C227.903 47.536 228.029 47.9607 228.281 48.222C228.542 48.474 228.92 48.6 229.415 48.6C229.9 48.6 230.273 48.46 230.535 48.18C230.805 47.8907 230.941 47.48 230.941 46.948V43.364C230.941 43.1213 231.02 42.9207 231.179 42.762C231.337 42.594 231.538 42.51 231.781 42.51ZM238.317 42.37C238.961 42.37 239.545 42.538 240.067 42.874C240.59 43.2007 241.001 43.658 241.299 44.246C241.607 44.834 241.761 45.5013 241.761 46.248C241.761 46.9947 241.612 47.6667 241.313 48.264C241.015 48.852 240.604 49.314 240.081 49.65C239.568 49.9767 238.999 50.14 238.373 50.14C237.925 50.14 237.501 50.0513 237.099 49.874C236.707 49.6873 236.381 49.4633 236.119 49.202V51.946C236.119 52.1887 236.04 52.3893 235.881 52.548C235.723 52.716 235.522 52.8 235.279 52.8C235.037 52.8 234.836 52.7207 234.677 52.562C234.519 52.4033 234.439 52.198 234.439 51.946V43.364C234.439 43.1213 234.519 42.9207 234.677 42.762C234.836 42.594 235.037 42.51 235.279 42.51C235.522 42.51 235.723 42.594 235.881 42.762C236.04 42.9207 236.119 43.1213 236.119 43.364V43.42C236.343 43.14 236.656 42.8973 237.057 42.692C237.459 42.4773 237.879 42.37 238.317 42.37ZM238.107 48.6C238.705 48.6 239.195 48.376 239.577 47.928C239.96 47.48 240.151 46.92 240.151 46.248C240.151 45.576 239.96 45.0207 239.577 44.582C239.204 44.134 238.714 43.91 238.107 43.91C237.501 43.91 237.006 44.134 236.623 44.582C236.241 45.0207 236.049 45.576 236.049 46.248C236.049 46.92 236.241 47.48 236.623 47.928C237.006 48.376 237.501 48.6 238.107 48.6ZM246.774 48.418C246.905 48.418 247.021 48.4833 247.124 48.614C247.236 48.7353 247.292 48.8987 247.292 49.104C247.292 49.356 247.152 49.5707 246.872 49.748C246.601 49.916 246.293 50 245.948 50C245.369 50 244.879 49.8787 244.478 49.636C244.086 49.384 243.89 48.8567 243.89 48.054V44.19H243.246C243.022 44.19 242.835 44.1153 242.686 43.966C242.537 43.8167 242.462 43.63 242.462 43.406C242.462 43.1913 242.537 43.014 242.686 42.874C242.835 42.7247 243.022 42.65 243.246 42.65H243.89V41.754C243.89 41.5113 243.969 41.3107 244.128 41.152C244.296 40.984 244.501 40.9 244.744 40.9C244.977 40.9 245.173 40.984 245.332 41.152C245.491 41.3107 245.57 41.5113 245.57 41.754V42.65H246.564C246.788 42.65 246.975 42.7247 247.124 42.874C247.273 43.0233 247.348 43.21 247.348 43.434C247.348 43.6487 247.273 43.8307 247.124 43.98C246.975 44.12 246.788 44.19 246.564 44.19H245.57V47.984C245.57 48.18 245.621 48.3247 245.724 48.418C245.827 48.502 245.967 48.544 246.144 48.544C246.219 48.544 246.321 48.5253 246.452 48.488C246.564 48.4413 246.671 48.418 246.774 48.418ZM255.542 46.08C255.533 46.304 255.444 46.486 255.276 46.626C255.108 46.766 254.912 46.836 254.688 46.836H250.068C250.18 47.3867 250.437 47.8207 250.838 48.138C251.239 48.446 251.692 48.6 252.196 48.6C252.579 48.6 252.877 48.5673 253.092 48.502C253.307 48.4273 253.475 48.3527 253.596 48.278C253.727 48.194 253.815 48.138 253.862 48.11C254.03 48.026 254.189 47.984 254.338 47.984C254.534 47.984 254.702 48.054 254.842 48.194C254.982 48.334 255.052 48.4973 255.052 48.684C255.052 48.936 254.921 49.1647 254.66 49.37C254.399 49.5847 254.049 49.7667 253.61 49.916C253.171 50.0653 252.728 50.14 252.28 50.14C251.496 50.14 250.81 49.9767 250.222 49.65C249.643 49.3233 249.195 48.8753 248.878 48.306C248.561 47.7273 248.402 47.0787 248.402 46.36C248.402 45.5573 248.57 44.8527 248.906 44.246C249.242 43.6393 249.685 43.1773 250.236 42.86C250.787 42.5333 251.375 42.37 252 42.37C252.616 42.37 253.195 42.538 253.736 42.874C254.287 43.21 254.725 43.6627 255.052 44.232C255.379 44.8013 255.542 45.4173 255.542 46.08ZM252 43.91C250.917 43.91 250.278 44.4187 250.082 45.436H253.75V45.338C253.713 44.946 253.521 44.61 253.176 44.33C252.831 44.05 252.439 43.91 252 43.91ZM263.005 39.64C263.248 39.64 263.449 39.7193 263.607 39.878C263.766 40.0367 263.845 40.242 263.845 40.494V49.146C263.845 49.3887 263.766 49.594 263.607 49.762C263.449 49.9207 263.248 50 263.005 50C262.763 50 262.562 49.9207 262.403 49.762C262.254 49.6033 262.175 49.4027 262.165 49.16C261.932 49.4307 261.615 49.664 261.213 49.86C260.821 50.0467 260.406 50.14 259.967 50.14C259.323 50.14 258.74 49.9767 258.217 49.65C257.695 49.314 257.279 48.852 256.971 48.264C256.673 47.676 256.523 47.0087 256.523 46.262C256.523 45.5153 256.673 44.848 256.971 44.26C257.27 43.6627 257.676 43.2007 258.189 42.874C258.712 42.538 259.286 42.37 259.911 42.37C260.359 42.37 260.779 42.454 261.171 42.622C261.563 42.7807 261.895 42.986 262.165 43.238V40.494C262.165 40.2513 262.245 40.0507 262.403 39.892C262.562 39.724 262.763 39.64 263.005 39.64ZM260.177 48.6C260.784 48.6 261.279 48.3807 261.661 47.942C262.044 47.494 262.235 46.934 262.235 46.262C262.235 45.59 262.044 45.03 261.661 44.582C261.279 44.134 260.784 43.91 260.177 43.91C259.58 43.91 259.09 44.134 258.707 44.582C258.325 45.03 258.133 45.59 258.133 46.262C258.133 46.934 258.32 47.494 258.693 47.942C259.076 48.3807 259.571 48.6 260.177 48.6Z" fill="#E9E9F4"/>
<path d="M29 34C28.6955 33.9964 28.3973 34.0862 28.1454 34.2573C27.8936 34.4284 27.7001 34.6725 27.5912 34.9568C27.4823 35.2411 27.4631 35.552 27.5361 35.8476C27.6092 36.1431 27.7711 36.4092 28 36.61V38C28 38.2652 28.1054 38.5196 28.2929 38.7071C28.4804 38.8946 28.7348 39 29 39C29.2652 39 29.5196 38.8946 29.7071 38.7071C29.8946 38.5196 30 38.2652 30 38V36.61C30.2289 36.4092 30.3908 36.1431 30.4639 35.8476C30.5369 35.552 30.5177 35.2411 30.4088 34.9568C30.2999 34.6725 30.1064 34.4284 29.8546 34.2573C29.6027 34.0862 29.3045 33.9964 29 34ZM34 30V28C34 26.6739 33.4732 25.4021 32.5355 24.4645C31.5979 23.5268 30.3261 23 29 23C27.6739 23 26.4021 23.5268 25.4645 24.4645C24.5268 25.4021 24 26.6739 24 28V30C23.2044 30 22.4413 30.3161 21.8787 30.8787C21.3161 31.4413 21 32.2044 21 33V40C21 40.7956 21.3161 41.5587 21.8787 42.1213C22.4413 42.6839 23.2044 43 24 43H34C34.7956 43 35.5587 42.6839 36.1213 42.1213C36.6839 41.5587 37 40.7956 37 40V33C37 32.2044 36.6839 31.4413 36.1213 30.8787C35.5587 30.3161 34.7956 30 34 30ZM26 28C26 27.2044 26.3161 26.4413 26.8787 25.8787C27.4413 25.3161 28.2044 25 29 25C29.7956 25 30.5587 25.3161 31.1213 25.8787C31.6839 26.4413 32 27.2044 32 28V30H26V28ZM35 40C35 40.2652 34.8946 40.5196 34.7071 40.7071C34.5196 40.8946 34.2652 41 34 41H24C23.7348 41 23.4804 40.8946 23.2929 40.7071C23.1054 40.5196 23 40.2652 23 40V33C23 32.7348 23.1054 32.4804 23.2929 32.2929C23.4804 32.1054 23.7348 32 24 32H34C34.2652 32 34.5196 32.1054 34.7071 32.2929C34.8946 32.4804 35 32.7348 35 33V40Z" fill="#69CA94"/>
</svg>
