<svg width="146" height="24" viewBox="0 0 146 24" fill="none" xmlns="http://www.w3.org/2000/svg">
<path d="M12 2.2467C9.62547 2.2468 7.32846 3.09182 5.51996 4.63055C3.71146 6.16929 2.5095 8.30133 2.12913 10.6452C1.74876 12.989 2.21481 15.3918 3.4439 17.4235C4.67298 19.4551 6.58488 20.9832 8.83752 21.7342C9.33752 21.8217 9.52502 21.5217 9.52502 21.2592C9.52502 21.0217 9.51251 20.2342 9.51251 19.3967C7 19.8592 6.35 18.7842 6.15 18.2217C5.92807 17.6747 5.57627 17.1899 5.125 16.8092C4.775 16.6217 4.275 16.1592 5.11249 16.1467C5.43227 16.1814 5.73898 16.2927 6.00663 16.4711C6.27427 16.6495 6.49496 16.8899 6.65 17.1717C6.78677 17.4174 6.97068 17.6337 7.19119 17.8082C7.4117 17.9827 7.66447 18.112 7.93503 18.1886C8.20559 18.2652 8.48861 18.2877 8.76788 18.2548C9.04714 18.2219 9.31717 18.1342 9.56248 17.9967C9.60577 17.4883 9.83234 17.013 10.2 16.6592C7.975 16.4092 5.65 15.5467 5.65 11.7217C5.63594 10.7279 6.00268 9.76631 6.675 9.03423C6.36928 8.17045 6.40505 7.22252 6.775 6.38423C6.775 6.38423 7.61247 6.12172 9.525 7.40923C11.1613 6.95921 12.8887 6.95921 14.525 7.40923C16.4375 6.10923 17.275 6.38423 17.275 6.38423C17.645 7.22251 17.6808 8.17046 17.375 9.03423C18.0493 9.76506 18.4164 10.7275 18.4 11.7217C18.4 15.5592 16.0625 16.4092 13.8375 16.6592C14.0761 16.9011 14.2599 17.1915 14.3764 17.5107C14.4929 17.83 14.5393 18.1705 14.5125 18.5092C14.5125 19.8468 14.5 20.9217 14.5 21.2592C14.5 21.5217 14.6875 21.8342 15.1875 21.7342C17.4362 20.9771 19.3426 19.4455 20.5664 17.4128C21.7903 15.38 22.2519 12.9785 21.8689 10.6369C21.4859 8.29535 20.2832 6.16608 18.4755 4.62922C16.6678 3.09235 14.3727 2.24794 12 2.2467Z" fill="white"/>
<path d="M35.02 10.58C35.572 10.58 36 10.7 36.304 10.94C36.608 11.172 36.82 11.488 36.94 11.888C37.068 12.288 37.132 12.728 37.132 13.208V16.388C37.132 16.564 37.072 16.712 36.952 16.832C36.84 16.944 36.7 17 36.532 17C36.356 17 36.212 16.944 36.1 16.832C35.988 16.712 35.932 16.564 35.932 16.388V13.208C35.932 12.928 35.892 12.672 35.812 12.44C35.74 12.208 35.608 12.024 35.416 11.888C35.232 11.752 34.972 11.684 34.636 11.684C34.324 11.684 34.044 11.752 33.796 11.888C33.556 12.024 33.368 12.208 33.232 12.44C33.104 12.672 33.04 12.928 33.04 13.208V16.388C33.04 16.564 32.98 16.712 32.86 16.832C32.748 16.944 32.608 17 32.44 17C32.264 17 32.12 16.944 32.008 16.832C31.896 16.712 31.84 16.564 31.84 16.388V8.732C31.84 8.556 31.896 8.412 32.008 8.3C32.12 8.18 32.264 8.12 32.44 8.12C32.608 8.12 32.748 8.18 32.86 8.3C32.98 8.412 33.04 8.556 33.04 8.732V12.008L32.824 12.128C32.88 11.952 32.972 11.772 33.1 11.588C33.236 11.404 33.4 11.236 33.592 11.084C33.792 10.932 34.012 10.812 34.252 10.724C34.492 10.628 34.748 10.58 35.02 10.58ZM38.7169 10.76H41.5369C41.6969 10.76 41.8289 10.816 41.9329 10.928C42.0449 11.032 42.1009 11.164 42.1009 11.324C42.1009 11.476 42.0449 11.604 41.9329 11.708C41.8289 11.812 41.6969 11.864 41.5369 11.864H38.7169C38.5569 11.864 38.4209 11.812 38.3089 11.708C38.2049 11.596 38.1529 11.464 38.1529 11.312C38.1529 11.152 38.2049 11.02 38.3089 10.916C38.4209 10.812 38.5569 10.76 38.7169 10.76ZM39.9769 9.2C40.1529 9.2 40.2969 9.26 40.4089 9.38C40.5209 9.492 40.5769 9.636 40.5769 9.812V15.38C40.5769 15.524 40.6009 15.64 40.6489 15.728C40.6969 15.816 40.7609 15.876 40.8409 15.908C40.9289 15.94 41.0169 15.956 41.1049 15.956C41.1929 15.956 41.2689 15.94 41.3329 15.908C41.4049 15.876 41.4889 15.86 41.5849 15.86C41.6809 15.86 41.7689 15.904 41.8489 15.992C41.9289 16.08 41.9689 16.2 41.9689 16.352C41.9689 16.544 41.8649 16.7 41.6569 16.82C41.4489 16.94 41.2249 17 40.9849 17C40.8489 17 40.6889 16.988 40.5049 16.964C40.3209 16.94 40.1409 16.88 39.9649 16.784C39.7969 16.688 39.6569 16.536 39.5449 16.328C39.4329 16.112 39.3769 15.812 39.3769 15.428V9.812C39.3769 9.636 39.4329 9.492 39.5449 9.38C39.6649 9.26 39.8089 9.2 39.9769 9.2ZM43.3458 10.76H46.1658C46.3258 10.76 46.4578 10.816 46.5618 10.928C46.6738 11.032 46.7298 11.164 46.7298 11.324C46.7298 11.476 46.6738 11.604 46.5618 11.708C46.4578 11.812 46.3258 11.864 46.1658 11.864H43.3458C43.1858 11.864 43.0498 11.812 42.9378 11.708C42.8338 11.596 42.7818 11.464 42.7818 11.312C42.7818 11.152 42.8338 11.02 42.9378 10.916C43.0498 10.812 43.1858 10.76 43.3458 10.76ZM44.6058 9.2C44.7818 9.2 44.9258 9.26 45.0378 9.38C45.1498 9.492 45.2058 9.636 45.2058 9.812V15.38C45.2058 15.524 45.2298 15.64 45.2778 15.728C45.3258 15.816 45.3898 15.876 45.4698 15.908C45.5578 15.94 45.6458 15.956 45.7338 15.956C45.8218 15.956 45.8978 15.94 45.9618 15.908C46.0338 15.876 46.1178 15.86 46.2138 15.86C46.3098 15.86 46.3978 15.904 46.4778 15.992C46.5578 16.08 46.5978 16.2 46.5978 16.352C46.5978 16.544 46.4938 16.7 46.2858 16.82C46.0778 16.94 45.8538 17 45.6138 17C45.4778 17 45.3178 16.988 45.1338 16.964C44.9498 16.94 44.7698 16.88 44.5938 16.784C44.4258 16.688 44.2858 16.536 44.1738 16.328C44.0618 16.112 44.0058 15.812 44.0058 15.428V9.812C44.0058 9.636 44.0618 9.492 44.1738 9.38C44.2938 9.26 44.4378 9.2 44.6058 9.2ZM51.2388 10.58C51.7988 10.58 52.2948 10.72 52.7268 11C53.1668 11.28 53.5148 11.664 53.7708 12.152C54.0268 12.632 54.1548 13.192 54.1548 13.832C54.1548 14.472 54.0268 15.04 53.7708 15.536C53.5148 16.024 53.1708 16.408 52.7388 16.688C52.3068 16.968 51.8188 17.108 51.2748 17.108C50.9708 17.108 50.6828 17.06 50.4108 16.964C50.1388 16.868 49.8988 16.744 49.6908 16.592C49.4828 16.432 49.3108 16.264 49.1748 16.088C49.0468 15.912 48.9668 15.748 48.9348 15.596L49.2588 15.44V18.788C49.2588 18.964 49.1988 19.108 49.0788 19.22C48.9668 19.34 48.8268 19.4 48.6588 19.4C48.4828 19.4 48.3388 19.34 48.2268 19.22C48.1148 19.108 48.0588 18.964 48.0588 18.788V11.276C48.0588 11.108 48.1148 10.964 48.2268 10.844C48.3388 10.724 48.4828 10.664 48.6588 10.664C48.8268 10.664 48.9668 10.724 49.0788 10.844C49.1988 10.964 49.2588 11.108 49.2588 11.276V12.104L49.0668 11.996C49.0908 11.844 49.1668 11.688 49.2948 11.528C49.4228 11.36 49.5828 11.204 49.7748 11.06C49.9748 10.916 50.1988 10.8 50.4468 10.712C50.7028 10.624 50.9668 10.58 51.2388 10.58ZM51.1068 11.684C50.7228 11.684 50.3868 11.78 50.0988 11.972C49.8188 12.156 49.5988 12.408 49.4388 12.728C49.2788 13.048 49.1988 13.416 49.1988 13.832C49.1988 14.24 49.2788 14.612 49.4388 14.948C49.5988 15.276 49.8188 15.536 50.0988 15.728C50.3868 15.912 50.7228 16.004 51.1068 16.004C51.4828 16.004 51.8108 15.912 52.0908 15.728C52.3708 15.536 52.5908 15.276 52.7508 14.948C52.9188 14.612 53.0028 14.24 53.0028 13.832C53.0028 13.424 52.9188 13.06 52.7508 12.74C52.5908 12.412 52.3708 12.156 52.0908 11.972C51.8108 11.78 51.4828 11.684 51.1068 11.684ZM55.1399 16.016C55.0679 15.904 55.0359 15.776 55.0439 15.632C55.0519 15.48 55.1359 15.352 55.2959 15.248C55.4079 15.176 55.5239 15.148 55.6439 15.164C55.7719 15.172 55.8919 15.232 56.0039 15.344C56.2279 15.592 56.4759 15.788 56.7479 15.932C57.0279 16.076 57.3639 16.148 57.7559 16.148C57.9159 16.14 58.0799 16.116 58.2479 16.076C58.4159 16.028 58.5599 15.948 58.6799 15.836C58.7999 15.716 58.8599 15.544 58.8599 15.32C58.8599 15.12 58.7959 14.96 58.6679 14.84C58.5399 14.72 58.3719 14.624 58.1639 14.552C57.9559 14.472 57.7319 14.4 57.4919 14.336C57.2359 14.264 56.9759 14.184 56.7119 14.096C56.4559 14.008 56.2239 13.896 56.0159 13.76C55.8079 13.616 55.6359 13.432 55.4999 13.208C55.3719 12.984 55.3079 12.708 55.3079 12.38C55.3079 12.004 55.4119 11.68 55.6199 11.408C55.8359 11.136 56.1119 10.924 56.4479 10.772C56.7919 10.62 57.1639 10.544 57.5639 10.544C57.7959 10.544 58.0399 10.576 58.2959 10.64C58.5519 10.696 58.7999 10.788 59.0399 10.916C59.2799 11.044 59.4879 11.212 59.6639 11.42C59.7439 11.524 59.7879 11.648 59.7959 11.792C59.8119 11.936 59.7479 12.064 59.6039 12.176C59.5079 12.256 59.3919 12.292 59.2559 12.284C59.1199 12.276 59.0079 12.232 58.9199 12.152C58.7679 11.96 58.5719 11.812 58.3319 11.708C58.0919 11.596 57.8199 11.54 57.5159 11.54C57.3639 11.54 57.2039 11.564 57.0359 11.612C56.8759 11.652 56.7399 11.728 56.6279 11.84C56.5159 11.952 56.4599 12.116 56.4599 12.332C56.4599 12.532 56.5239 12.692 56.6519 12.812C56.7879 12.932 56.9639 13.032 57.1799 13.112C57.3959 13.192 57.6319 13.264 57.8879 13.328C58.1359 13.392 58.3799 13.468 58.6199 13.556C58.8679 13.644 59.0879 13.76 59.2799 13.904C59.4799 14.04 59.6399 14.22 59.7599 14.444C59.8879 14.66 59.9519 14.936 59.9519 15.272C59.9519 15.664 59.8359 16 59.6039 16.28C59.3799 16.552 59.0919 16.76 58.7399 16.904C58.3959 17.048 58.0319 17.12 57.6479 17.12C57.1919 17.12 56.7359 17.04 56.2799 16.88C55.8319 16.712 55.4519 16.424 55.1399 16.016ZM61.8063 12.2C61.6063 12.2 61.4503 12.148 61.3383 12.044C61.2343 11.932 61.1823 11.776 61.1823 11.576V11.348C61.1823 11.148 61.2343 10.992 61.3383 10.88C61.4503 10.768 61.6063 10.712 61.8063 10.712H61.9383C62.1383 10.712 62.2903 10.768 62.3943 10.88C62.4983 10.992 62.5503 11.148 62.5503 11.348V11.576C62.5503 11.776 62.4983 11.932 62.3943 12.044C62.2903 12.148 62.1383 12.2 61.9383 12.2H61.8063ZM61.8063 17C61.6063 17 61.4503 16.944 61.3383 16.832C61.2343 16.72 61.1823 16.564 61.1823 16.364V16.148C61.1823 15.94 61.2343 15.784 61.3383 15.68C61.4503 15.568 61.6063 15.512 61.8063 15.512H61.9383C62.1383 15.512 62.2903 15.568 62.3943 15.68C62.4983 15.784 62.5503 15.94 62.5503 16.148V16.364C62.5503 16.564 62.4983 16.72 62.3943 16.832C62.2903 16.944 62.1383 17 61.9383 17H61.8063ZM64.148 18.584C64.028 18.584 63.908 18.536 63.788 18.44C63.668 18.344 63.608 18.224 63.608 18.08C63.608 17.992 63.632 17.908 63.68 17.828L68.66 7.736C68.716 7.624 68.784 7.54 68.864 7.484C68.952 7.428 69.048 7.4 69.152 7.4C69.264 7.4 69.376 7.444 69.488 7.532C69.608 7.62 69.668 7.744 69.668 7.904C69.668 7.992 69.648 8.08 69.608 8.168L64.628 18.26C64.572 18.364 64.504 18.444 64.424 18.5C64.344 18.556 64.252 18.584 64.148 18.584ZM69.6793 18.584C69.5593 18.584 69.4393 18.536 69.3193 18.44C69.1993 18.344 69.1393 18.224 69.1393 18.08C69.1393 17.992 69.1633 17.908 69.2113 17.828L74.1913 7.736C74.2473 7.624 74.3153 7.54 74.3953 7.484C74.4833 7.428 74.5793 7.4 74.6833 7.4C74.7953 7.4 74.9073 7.444 75.0193 7.532C75.1393 7.62 75.1993 7.744 75.1993 7.904C75.1993 7.992 75.1793 8.08 75.1393 8.168L70.1593 18.26C70.1033 18.364 70.0353 18.444 69.9553 18.5C69.8753 18.556 69.7833 18.584 69.6793 18.584ZM78.9641 10.544C79.3081 10.544 79.6241 10.6 79.9121 10.712C80.2001 10.824 80.4481 10.968 80.6561 11.144C80.8721 11.312 81.0401 11.488 81.1601 11.672C81.2801 11.856 81.3401 12.016 81.3401 12.152L81.0641 12.164V11.204C81.0641 11.036 81.1201 10.892 81.2321 10.772C81.3441 10.652 81.4881 10.592 81.6641 10.592C81.8401 10.592 81.9841 10.652 82.0961 10.772C82.2081 10.884 82.2641 11.028 82.2641 11.204V16.496C82.2641 17.176 82.1201 17.728 81.8321 18.152C81.5441 18.584 81.1601 18.9 80.6801 19.1C80.2081 19.3 79.6881 19.4 79.1201 19.4C78.9201 19.4 78.6841 19.372 78.4121 19.316C78.1401 19.268 77.8881 19.208 77.6561 19.136C77.4321 19.064 77.2761 18.992 77.1881 18.92C77.0041 18.824 76.8801 18.712 76.8161 18.584C76.7601 18.456 76.7601 18.328 76.8161 18.2C76.8961 18.024 77.0041 17.916 77.1401 17.876C77.2761 17.836 77.4321 17.848 77.6081 17.912C77.6881 17.936 77.8121 17.98 77.9801 18.044C78.1481 18.108 78.3361 18.164 78.5441 18.212C78.7521 18.268 78.9481 18.296 79.1321 18.296C79.7721 18.296 80.2521 18.148 80.5721 17.852C80.9001 17.556 81.0641 17.152 81.0641 16.64V15.56L81.1961 15.644C81.1721 15.812 81.0961 15.984 80.9681 16.16C80.8481 16.328 80.6881 16.484 80.4881 16.628C80.2881 16.772 80.0561 16.892 79.7921 16.988C79.5361 17.076 79.2721 17.12 79.0001 17.12C78.4321 17.12 77.9241 16.98 77.4761 16.7C77.0281 16.412 76.6721 16.024 76.4081 15.536C76.1441 15.04 76.0121 14.472 76.0121 13.832C76.0121 13.192 76.1441 12.628 76.4081 12.14C76.6721 11.644 77.0241 11.256 77.4641 10.976C77.9121 10.688 78.4121 10.544 78.9641 10.544ZM79.1441 11.648C78.7521 11.648 78.4081 11.744 78.1121 11.936C77.8161 12.128 77.5841 12.388 77.4161 12.716C77.2481 13.044 77.1641 13.416 77.1641 13.832C77.1641 14.248 77.2481 14.62 77.4161 14.948C77.5841 15.276 77.8161 15.536 78.1121 15.728C78.4081 15.92 78.7521 16.016 79.1441 16.016C79.5361 16.016 79.8801 15.924 80.1761 15.74C80.4721 15.548 80.7041 15.288 80.8721 14.96C81.0401 14.624 81.1241 14.248 81.1241 13.832C81.1241 13.416 81.0401 13.044 80.8721 12.716C80.7041 12.38 80.4721 12.12 80.1761 11.936C79.8801 11.744 79.5361 11.648 79.1441 11.648ZM85.0578 16.388C85.0578 16.564 85.0018 16.712 84.8898 16.832C84.7778 16.944 84.6338 17 84.4578 17C84.2898 17 84.1458 16.944 84.0258 16.832C83.9138 16.712 83.8578 16.564 83.8578 16.388V11.252C83.8578 11.076 83.9138 10.932 84.0258 10.82C84.1458 10.7 84.2898 10.64 84.4578 10.64C84.6338 10.64 84.7778 10.7 84.8898 10.82C85.0018 10.932 85.0578 11.076 85.0578 11.252V16.388ZM84.4458 9.848C84.2138 9.848 84.0458 9.808 83.9418 9.728C83.8378 9.64 83.7858 9.496 83.7858 9.296V9.104C83.7858 8.904 83.8418 8.764 83.9538 8.684C84.0658 8.604 84.2338 8.564 84.4578 8.564C84.6978 8.564 84.8698 8.608 84.9738 8.696C85.0778 8.776 85.1298 8.912 85.1298 9.104V9.296C85.1298 9.504 85.0738 9.648 84.9618 9.728C84.8578 9.808 84.6858 9.848 84.4458 9.848ZM86.588 10.76H89.408C89.568 10.76 89.7 10.816 89.804 10.928C89.916 11.032 89.972 11.164 89.972 11.324C89.972 11.476 89.916 11.604 89.804 11.708C89.7 11.812 89.568 11.864 89.408 11.864H86.588C86.428 11.864 86.292 11.812 86.18 11.708C86.076 11.596 86.024 11.464 86.024 11.312C86.024 11.152 86.076 11.02 86.18 10.916C86.292 10.812 86.428 10.76 86.588 10.76ZM87.848 9.2C88.024 9.2 88.168 9.26 88.28 9.38C88.392 9.492 88.448 9.636 88.448 9.812V15.38C88.448 15.524 88.472 15.64 88.52 15.728C88.568 15.816 88.632 15.876 88.712 15.908C88.8 15.94 88.888 15.956 88.976 15.956C89.064 15.956 89.14 15.94 89.204 15.908C89.276 15.876 89.36 15.86 89.456 15.86C89.552 15.86 89.64 15.904 89.72 15.992C89.8 16.08 89.84 16.2 89.84 16.352C89.84 16.544 89.736 16.7 89.528 16.82C89.32 16.94 89.096 17 88.856 17C88.72 17 88.56 16.988 88.376 16.964C88.192 16.94 88.012 16.88 87.836 16.784C87.668 16.688 87.528 16.536 87.416 16.328C87.304 16.112 87.248 15.812 87.248 15.428V9.812C87.248 9.636 87.304 9.492 87.416 9.38C87.536 9.26 87.68 9.2 87.848 9.2ZM94.4809 10.58C95.0329 10.58 95.4609 10.7 95.7649 10.94C96.0689 11.172 96.2809 11.488 96.4009 11.888C96.5289 12.288 96.5929 12.728 96.5929 13.208V16.388C96.5929 16.564 96.5329 16.712 96.4129 16.832C96.3009 16.944 96.1609 17 95.9929 17C95.8169 17 95.6729 16.944 95.5609 16.832C95.4489 16.712 95.3929 16.564 95.3929 16.388V13.208C95.3929 12.928 95.3529 12.672 95.2729 12.44C95.2009 12.208 95.0689 12.024 94.8769 11.888C94.6929 11.752 94.4329 11.684 94.0969 11.684C93.7849 11.684 93.5049 11.752 93.2569 11.888C93.0169 12.024 92.8289 12.208 92.6929 12.44C92.5649 12.672 92.5009 12.928 92.5009 13.208V16.388C92.5009 16.564 92.4409 16.712 92.3209 16.832C92.2089 16.944 92.0689 17 91.9009 17C91.7249 17 91.5809 16.944 91.4689 16.832C91.3569 16.712 91.3009 16.564 91.3009 16.388V8.732C91.3009 8.556 91.3569 8.412 91.4689 8.3C91.5809 8.18 91.7249 8.12 91.9009 8.12C92.0689 8.12 92.2089 8.18 92.3209 8.3C92.4409 8.412 92.5009 8.556 92.5009 8.732V12.008L92.2849 12.128C92.3409 11.952 92.4329 11.772 92.5609 11.588C92.6969 11.404 92.8609 11.236 93.0529 11.084C93.2529 10.932 93.4729 10.812 93.7129 10.724C93.9529 10.628 94.2089 10.58 94.4809 10.58ZM102.966 10.688C103.134 10.688 103.274 10.748 103.386 10.868C103.506 10.98 103.566 11.124 103.566 11.3V14.456C103.566 15.288 103.334 15.94 102.87 16.412C102.406 16.876 101.75 17.108 100.902 17.108C100.062 17.108 99.4099 16.876 98.9459 16.412C98.4899 15.94 98.2619 15.288 98.2619 14.456V11.3C98.2619 11.124 98.3179 10.98 98.4299 10.868C98.5419 10.748 98.6859 10.688 98.8619 10.688C99.0299 10.688 99.1699 10.748 99.2819 10.868C99.4019 10.98 99.4619 11.124 99.4619 11.3V14.456C99.4619 14.976 99.5819 15.364 99.8219 15.62C100.07 15.876 100.43 16.004 100.902 16.004C101.382 16.004 101.746 15.876 101.994 15.62C102.242 15.364 102.366 14.976 102.366 14.456V11.3C102.366 11.124 102.422 10.98 102.534 10.868C102.646 10.748 102.79 10.688 102.966 10.688ZM108.415 10.544C108.975 10.544 109.471 10.684 109.903 10.964C110.343 11.244 110.691 11.632 110.947 12.128C111.203 12.616 111.331 13.18 111.331 13.82C111.331 14.46 111.203 15.028 110.947 15.524C110.691 16.02 110.347 16.412 109.915 16.7C109.483 16.98 108.995 17.12 108.451 17.12C108.147 17.12 107.859 17.072 107.587 16.976C107.315 16.872 107.075 16.744 106.867 16.592C106.659 16.432 106.487 16.264 106.351 16.088C106.223 15.912 106.143 15.748 106.111 15.596L106.435 15.44V16.484C106.435 16.652 106.375 16.796 106.255 16.916C106.143 17.028 106.003 17.084 105.835 17.084C105.659 17.084 105.515 17.028 105.403 16.916C105.291 16.804 105.235 16.66 105.235 16.484V8.732C105.235 8.556 105.291 8.412 105.403 8.3C105.515 8.18 105.659 8.12 105.835 8.12C106.003 8.12 106.143 8.18 106.255 8.3C106.375 8.412 106.435 8.556 106.435 8.732V12.104L106.243 11.996C106.267 11.844 106.343 11.688 106.471 11.528C106.599 11.36 106.759 11.2 106.951 11.048C107.151 10.896 107.375 10.776 107.623 10.688C107.879 10.592 108.143 10.544 108.415 10.544ZM108.283 11.648C107.899 11.648 107.563 11.744 107.275 11.936C106.995 12.128 106.775 12.388 106.615 12.716C106.455 13.036 106.375 13.404 106.375 13.82C106.375 14.236 106.455 14.612 106.615 14.948C106.775 15.276 106.995 15.536 107.275 15.728C107.563 15.92 107.899 16.016 108.283 16.016C108.659 16.016 108.987 15.92 109.267 15.728C109.547 15.536 109.767 15.272 109.927 14.936C110.095 14.6 110.179 14.228 110.179 13.82C110.179 13.404 110.095 13.036 109.927 12.716C109.767 12.388 109.547 12.128 109.267 11.936C108.987 11.744 108.659 11.648 108.283 11.648ZM113.144 16.988C112.944 16.988 112.788 16.932 112.676 16.82C112.572 16.708 112.52 16.552 112.52 16.352V16.136C112.52 15.936 112.572 15.78 112.676 15.668C112.788 15.556 112.944 15.5 113.144 15.5H113.276C113.476 15.5 113.628 15.556 113.732 15.668C113.836 15.78 113.888 15.936 113.888 16.136V16.352C113.888 16.552 113.836 16.708 113.732 16.82C113.628 16.932 113.476 16.988 113.276 16.988H113.144ZM118.191 10.544C118.623 10.544 119.007 10.592 119.343 10.688C119.679 10.776 119.939 10.904 120.123 11.072C120.315 11.232 120.411 11.42 120.411 11.636C120.411 11.772 120.371 11.9 120.291 12.02C120.211 12.132 120.091 12.188 119.931 12.188C119.819 12.188 119.723 12.168 119.643 12.128C119.571 12.088 119.503 12.04 119.439 11.984C119.375 11.928 119.295 11.872 119.199 11.816C119.111 11.768 118.979 11.728 118.803 11.696C118.635 11.664 118.483 11.648 118.347 11.648C117.923 11.648 117.555 11.744 117.243 11.936C116.939 12.128 116.699 12.388 116.523 12.716C116.355 13.044 116.271 13.416 116.271 13.832C116.271 14.248 116.355 14.62 116.523 14.948C116.699 15.276 116.935 15.536 117.231 15.728C117.535 15.92 117.887 16.016 118.287 16.016C118.527 16.016 118.723 16 118.875 15.968C119.027 15.928 119.159 15.88 119.271 15.824C119.391 15.752 119.491 15.68 119.571 15.608C119.659 15.528 119.779 15.488 119.931 15.488C120.107 15.488 120.239 15.544 120.327 15.656C120.423 15.76 120.471 15.892 120.471 16.052C120.471 16.228 120.363 16.4 120.147 16.568C119.939 16.728 119.659 16.86 119.307 16.964C118.955 17.068 118.567 17.12 118.143 17.12C117.519 17.12 116.975 16.976 116.511 16.688C116.055 16.4 115.699 16.008 115.443 15.512C115.195 15.016 115.071 14.456 115.071 13.832C115.071 13.2 115.203 12.64 115.467 12.152C115.731 11.656 116.099 11.264 116.571 10.976C117.043 10.688 117.583 10.544 118.191 10.544ZM127.665 13.844C127.665 14.484 127.525 15.052 127.245 15.548C126.965 16.036 126.585 16.42 126.105 16.7C125.625 16.98 125.085 17.12 124.485 17.12C123.885 17.12 123.345 16.98 122.865 16.7C122.385 16.42 122.001 16.036 121.713 15.548C121.433 15.052 121.293 14.484 121.293 13.844C121.293 13.196 121.433 12.628 121.713 12.14C122.001 11.644 122.385 11.256 122.865 10.976C123.345 10.688 123.885 10.544 124.485 10.544C125.085 10.544 125.625 10.688 126.105 10.976C126.585 11.256 126.965 11.644 127.245 12.14C127.525 12.628 127.665 13.196 127.665 13.844ZM126.465 13.844C126.465 13.404 126.377 13.024 126.201 12.704C126.025 12.376 125.785 12.12 125.481 11.936C125.185 11.744 124.853 11.648 124.485 11.648C124.117 11.648 123.781 11.744 123.477 11.936C123.173 12.12 122.933 12.376 122.757 12.704C122.581 13.024 122.493 13.404 122.493 13.844C122.493 14.268 122.581 14.644 122.757 14.972C122.933 15.3 123.173 15.556 123.477 15.74C123.781 15.924 124.117 16.016 124.485 16.016C124.853 16.016 125.185 15.924 125.481 15.74C125.785 15.556 126.025 15.3 126.201 14.972C126.377 14.644 126.465 14.268 126.465 13.844ZM132.192 10.58C132.784 10.58 133.24 10.728 133.56 11.024C133.88 11.312 134.092 11.704 134.196 12.2L134.004 12.14L134.088 11.948C134.192 11.74 134.348 11.532 134.556 11.324C134.772 11.108 135.028 10.932 135.324 10.796C135.62 10.652 135.936 10.58 136.272 10.58C136.824 10.58 137.252 10.7 137.556 10.94C137.86 11.172 138.072 11.488 138.192 11.888C138.312 12.28 138.372 12.72 138.372 13.208V16.388C138.372 16.564 138.316 16.712 138.204 16.832C138.092 16.944 137.948 17 137.772 17C137.604 17 137.46 16.944 137.34 16.832C137.228 16.712 137.172 16.564 137.172 16.388V13.22C137.172 12.94 137.132 12.684 137.052 12.452C136.98 12.22 136.848 12.036 136.656 11.9C136.472 11.756 136.216 11.684 135.888 11.684C135.576 11.684 135.296 11.756 135.048 11.9C134.808 12.036 134.62 12.22 134.484 12.452C134.348 12.684 134.28 12.94 134.28 13.22V16.388C134.28 16.564 134.224 16.712 134.112 16.832C134 16.944 133.856 17 133.68 17C133.504 17 133.36 16.944 133.248 16.832C133.136 16.712 133.08 16.564 133.08 16.388V13.208C133.08 12.928 133.04 12.672 132.96 12.44C132.888 12.208 132.76 12.024 132.576 11.888C132.392 11.752 132.136 11.684 131.808 11.684C131.496 11.684 131.22 11.752 130.98 11.888C130.74 12.024 130.552 12.208 130.416 12.44C130.288 12.672 130.224 12.928 130.224 13.208V16.388C130.224 16.564 130.164 16.712 130.044 16.832C129.932 16.944 129.792 17 129.624 17C129.448 17 129.304 16.944 129.192 16.832C129.08 16.712 129.024 16.564 129.024 16.388V11.3C129.024 11.124 129.08 10.98 129.192 10.868C129.304 10.748 129.448 10.688 129.624 10.688C129.792 10.688 129.932 10.748 130.044 10.868C130.164 10.98 130.224 11.124 130.224 11.3V12.008L129.996 12.14C130.052 11.964 130.144 11.784 130.272 11.6C130.4 11.416 130.56 11.248 130.752 11.096C130.952 10.944 131.172 10.82 131.412 10.724C131.652 10.628 131.912 10.58 132.192 10.58ZM140.027 18.584C139.907 18.584 139.787 18.536 139.667 18.44C139.547 18.344 139.487 18.224 139.487 18.08C139.487 17.992 139.511 17.908 139.559 17.828L144.539 7.736C144.595 7.624 144.663 7.54 144.743 7.484C144.831 7.428 144.927 7.4 145.031 7.4C145.143 7.4 145.255 7.444 145.367 7.532C145.487 7.62 145.547 7.744 145.547 7.904C145.547 7.992 145.527 8.08 145.487 8.168L140.507 18.26C140.451 18.364 140.383 18.444 140.303 18.5C140.223 18.556 140.131 18.584 140.027 18.584Z" fill="white"/>
</svg>
