<svg width="244" height="48" viewBox="0 0 244 48" fill="none" xmlns="http://www.w3.org/2000/svg">
<path d="M52.2 17.14C51.528 17.14 50.9307 17.056 50.408 16.888C49.8853 16.72 49.3953 16.4353 48.938 16.034C48.686 15.81 48.56 15.5627 48.56 15.292C48.56 15.0773 48.6393 14.8907 48.798 14.732C48.9567 14.564 49.148 14.48 49.372 14.48C49.5493 14.48 49.708 14.536 49.848 14.648C50.2213 14.956 50.5853 15.18 50.94 15.32C51.2947 15.46 51.7147 15.53 52.2 15.53C52.7227 15.53 53.1707 15.4133 53.544 15.18C53.9267 14.9467 54.118 14.6573 54.118 14.312C54.118 13.892 53.9313 13.5653 53.558 13.332C53.1847 13.0893 52.592 12.9073 51.78 12.786C49.736 12.4873 48.714 11.5353 48.714 9.93C48.714 9.342 48.868 8.83333 49.176 8.404C49.484 7.96533 49.904 7.634 50.436 7.41C50.968 7.17667 51.5607 7.06 52.214 7.06C52.802 7.06 53.3527 7.14867 53.866 7.326C54.3887 7.50333 54.8227 7.73667 55.168 8.026C55.4387 8.24067 55.574 8.488 55.574 8.768C55.574 8.98267 55.4947 9.174 55.336 9.342C55.1773 9.50067 54.9907 9.58 54.776 9.58C54.636 9.58 54.51 9.538 54.398 9.454C54.1553 9.258 53.8147 9.08067 53.376 8.922C52.9467 8.754 52.5593 8.67 52.214 8.67C51.626 8.67 51.1687 8.782 50.842 9.006C50.5247 9.22067 50.366 9.50533 50.366 9.86C50.366 10.2613 50.5293 10.5647 50.856 10.77C51.192 10.9753 51.7147 11.1433 52.424 11.274C53.2267 11.414 53.866 11.596 54.342 11.82C54.8273 12.0347 55.1913 12.3333 55.434 12.716C55.6767 13.0893 55.798 13.5887 55.798 14.214C55.798 14.802 55.63 15.32 55.294 15.768C54.9673 16.2067 54.5287 16.5473 53.978 16.79C53.4273 17.0233 52.8347 17.14 52.2 17.14ZM60.5255 9.37C61.3188 9.37 61.9582 9.496 62.4435 9.748C62.9288 9.99067 63.1715 10.3173 63.1715 10.728C63.1715 10.9333 63.1108 11.1153 62.9895 11.274C62.8682 11.4233 62.7095 11.498 62.5135 11.498C62.3642 11.498 62.2428 11.4793 62.1495 11.442C62.0562 11.3953 61.9628 11.3393 61.8695 11.274C61.7855 11.1993 61.7015 11.1387 61.6175 11.092C61.5242 11.0453 61.3842 11.0033 61.1975 10.966C61.0202 10.9287 60.8755 10.91 60.7635 10.91C60.0635 10.91 59.5128 11.1293 59.1115 11.568C58.7195 11.9973 58.5235 12.562 58.5235 13.262C58.5235 13.934 58.7242 14.494 59.1255 14.942C59.5268 15.3807 60.0402 15.6 60.6655 15.6C61.1228 15.6 61.4635 15.544 61.6875 15.432C61.7435 15.404 61.8182 15.3573 61.9115 15.292C62.0142 15.2173 62.1075 15.1613 62.1915 15.124C62.2755 15.0867 62.3782 15.068 62.4995 15.068C62.7328 15.068 62.9148 15.1427 63.0455 15.292C63.1855 15.4413 63.2555 15.6327 63.2555 15.866C63.2555 16.09 63.1248 16.3 62.8635 16.496C62.6022 16.692 62.2568 16.8507 61.8275 16.972C61.3982 17.084 60.9408 17.14 60.4555 17.14C59.7368 17.14 59.1022 16.972 58.5515 16.636C58.0102 16.3 57.5902 15.838 57.2915 15.25C56.9928 14.6527 56.8435 13.99 56.8435 13.262C56.8435 12.506 56.9975 11.834 57.3055 11.246C57.6228 10.658 58.0615 10.2007 58.6215 9.874C59.1815 9.538 59.8162 9.37 60.5255 9.37ZM70.5306 9.37C70.7733 9.37 70.9739 9.44933 71.1326 9.608C71.2913 9.76667 71.3706 9.972 71.3706 10.224V16.146C71.3706 16.3887 71.2913 16.594 71.1326 16.762C70.9739 16.9207 70.7733 17 70.5306 17C70.2879 17 70.0873 16.9207 69.9286 16.762C69.7793 16.6033 69.6999 16.4027 69.6906 16.16C69.4573 16.4307 69.1399 16.664 68.7386 16.86C68.3466 17.0467 67.9313 17.14 67.4926 17.14C66.8486 17.14 66.2653 16.9767 65.7426 16.65C65.2199 16.314 64.8046 15.852 64.4966 15.264C64.1979 14.676 64.0486 14.0087 64.0486 13.262C64.0486 12.5153 64.1979 11.848 64.4966 11.26C64.7953 10.6627 65.2013 10.2007 65.7146 9.874C66.2373 9.538 66.8113 9.37 67.4366 9.37C67.8846 9.37 68.3046 9.454 68.6966 9.622C69.0886 9.78067 69.4199 9.986 69.6906 10.238V10.224C69.6906 9.98133 69.7699 9.78067 69.9286 9.622C70.0873 9.454 70.2879 9.37 70.5306 9.37ZM67.7026 15.6C68.3093 15.6 68.8039 15.3807 69.1866 14.942C69.5693 14.494 69.7606 13.934 69.7606 13.262C69.7606 12.59 69.5693 12.03 69.1866 11.582C68.8039 11.134 68.3093 10.91 67.7026 10.91C67.1053 10.91 66.6153 11.134 66.2326 11.582C65.8499 12.03 65.6586 12.59 65.6586 13.262C65.6586 13.934 65.8453 14.494 66.2186 14.942C66.6013 15.3807 67.0959 15.6 67.7026 15.6ZM77.1953 9.37C78.1473 9.37 78.8053 9.65467 79.1693 10.224C79.5333 10.784 79.7153 11.5633 79.7153 12.562V16.146C79.7153 16.3887 79.6359 16.594 79.4772 16.762C79.3186 16.9207 79.1179 17 78.8753 17C78.6326 17 78.4319 16.9207 78.2733 16.762C78.1146 16.594 78.0353 16.3887 78.0353 16.146V12.562C78.0353 12.0487 77.9279 11.6473 77.7133 11.358C77.4986 11.0593 77.1299 10.91 76.6073 10.91C76.0659 10.91 75.6413 11.0687 75.3333 11.386C75.0253 11.694 74.8713 12.086 74.8713 12.562V16.146C74.8713 16.3887 74.7919 16.594 74.6333 16.762C74.4746 16.9207 74.2739 17 74.0312 17C73.7886 17 73.5879 16.9207 73.4293 16.762C73.2706 16.594 73.1913 16.3887 73.1913 16.146V10.364C73.1913 10.1213 73.2706 9.92067 73.4293 9.762C73.5879 9.594 73.7886 9.51 74.0312 9.51C74.2739 9.51 74.4746 9.594 74.6333 9.762C74.7919 9.92067 74.8713 10.1213 74.8713 10.364V10.602C75.1233 10.266 75.4499 9.97667 75.8513 9.734C76.2619 9.49133 76.7099 9.37 77.1953 9.37ZM92.8189 11.708C93.0616 11.708 93.2623 11.792 93.4209 11.96C93.5796 12.1187 93.6589 12.3193 93.6589 12.562V15.53C93.6589 15.8567 93.5143 16.1087 93.2249 16.286C92.3103 16.8553 91.3069 17.14 90.2149 17.14C89.2909 17.14 88.4369 16.916 87.6529 16.468C86.8689 16.0107 86.2483 15.3993 85.7909 14.634C85.3336 13.8593 85.1049 13.0147 85.1049 12.1C85.1049 11.1853 85.3336 10.3453 85.7909 9.58C86.2483 8.80533 86.8689 8.194 87.6529 7.746C88.4369 7.28867 89.2909 7.06 90.2149 7.06C91.1389 7.06 91.9416 7.24667 92.6229 7.62C92.7629 7.69467 92.8656 7.79267 92.9309 7.914C93.0056 8.03533 93.0429 8.166 93.0429 8.306C93.0429 8.53933 92.9636 8.74467 92.8049 8.922C92.6556 9.09 92.4689 9.174 92.2449 9.174C92.1049 9.174 91.9509 9.13667 91.7829 9.062C91.2789 8.84733 90.7563 8.74 90.2149 8.74C89.6176 8.74 89.0669 8.894 88.5629 9.202C88.0589 9.50067 87.6576 9.90667 87.3589 10.42C87.0696 10.9333 86.9249 11.4933 86.9249 12.1C86.9249 12.7067 87.0696 13.2667 87.3589 13.78C87.6576 14.2933 88.0589 14.704 88.5629 15.012C89.0669 15.3107 89.6176 15.46 90.2149 15.46C90.4763 15.46 90.7563 15.4367 91.0549 15.39C91.3536 15.3433 91.6149 15.2827 91.8389 15.208V13.388H90.5229C90.2803 13.388 90.0749 13.3087 89.9069 13.15C89.7483 12.9913 89.6689 12.7907 89.6689 12.548C89.6689 12.3053 89.7483 12.1047 89.9069 11.946C90.0749 11.7873 90.2803 11.708 90.5229 11.708H92.8189ZM96.785 16.146C96.785 16.3887 96.7056 16.594 96.547 16.762C96.3883 16.9207 96.1876 17 95.945 17C95.7023 17 95.5016 16.9207 95.343 16.762C95.1843 16.594 95.105 16.3887 95.105 16.146V10.364C95.105 10.1213 95.1843 9.92067 95.343 9.762C95.5016 9.594 95.7023 9.51 95.945 9.51C96.1876 9.51 96.3883 9.594 96.547 9.762C96.7056 9.92067 96.785 10.1213 96.785 10.364V16.146ZM95.931 8.6C95.6136 8.6 95.3896 8.54867 95.259 8.446C95.1283 8.34333 95.063 8.16133 95.063 7.9V7.634C95.063 7.37267 95.133 7.19067 95.273 7.088C95.413 6.98533 95.637 6.934 95.945 6.934C96.2716 6.934 96.5003 6.98533 96.631 7.088C96.7616 7.19067 96.827 7.37267 96.827 7.634V7.9C96.827 8.17067 96.757 8.35733 96.617 8.46C96.4863 8.55333 96.2576 8.6 95.931 8.6ZM102.124 15.418C102.254 15.418 102.371 15.4833 102.474 15.614C102.586 15.7353 102.642 15.8987 102.642 16.104C102.642 16.356 102.502 16.5707 102.222 16.748C101.951 16.916 101.643 17 101.298 17C100.719 17 100.229 16.8787 99.8276 16.636C99.4356 16.384 99.2396 15.8567 99.2396 15.054V11.19H98.5956C98.3716 11.19 98.1849 11.1153 98.0356 10.966C97.8862 10.8167 97.8116 10.63 97.8116 10.406C97.8116 10.1913 97.8862 10.014 98.0356 9.874C98.1849 9.72467 98.3716 9.65 98.5956 9.65H99.2396V8.754C99.2396 8.51133 99.3189 8.31067 99.4776 8.152C99.6456 7.984 99.8509 7.9 100.094 7.9C100.327 7.9 100.523 7.984 100.682 8.152C100.84 8.31067 100.92 8.51133 100.92 8.754V9.65H101.914C102.138 9.65 102.324 9.72467 102.474 9.874C102.623 10.0233 102.698 10.21 102.698 10.434C102.698 10.6487 102.623 10.8307 102.474 10.98C102.324 11.12 102.138 11.19 101.914 11.19H100.92V14.984C100.92 15.18 100.971 15.3247 101.074 15.418C101.176 15.502 101.316 15.544 101.494 15.544C101.568 15.544 101.671 15.5253 101.802 15.488C101.914 15.4413 102.021 15.418 102.124 15.418ZM111.478 7.2C111.739 7.2 111.949 7.27933 112.108 7.438C112.267 7.59667 112.346 7.802 112.346 8.054V16.146C112.346 16.3887 112.262 16.594 112.094 16.762C111.926 16.9207 111.711 17 111.45 17C111.217 17 111.016 16.9207 110.848 16.762C110.68 16.594 110.596 16.3887 110.596 16.146V12.884H106.13V16.146C106.13 16.3887 106.041 16.594 105.864 16.762C105.687 16.9207 105.481 17 105.248 17C104.996 17 104.786 16.9207 104.618 16.762C104.459 16.594 104.38 16.3887 104.38 16.146V8.054C104.38 7.81133 104.464 7.61067 104.632 7.452C104.8 7.284 105.015 7.2 105.276 7.2C105.509 7.2 105.71 7.284 105.878 7.452C106.046 7.61067 106.13 7.81133 106.13 8.054V11.274H110.596V8.054C110.596 7.81133 110.685 7.61067 110.862 7.452C111.039 7.284 111.245 7.2 111.478 7.2ZM119.861 9.51C120.103 9.51 120.304 9.594 120.463 9.762C120.621 9.92067 120.701 10.1213 120.701 10.364V13.92C120.701 14.928 120.421 15.7167 119.861 16.286C119.31 16.8553 118.521 17.14 117.495 17.14C116.468 17.14 115.679 16.8553 115.129 16.286C114.578 15.7167 114.303 14.928 114.303 13.92V10.364C114.303 10.1213 114.382 9.92067 114.541 9.762C114.699 9.594 114.9 9.51 115.143 9.51C115.385 9.51 115.586 9.594 115.745 9.762C115.903 9.92067 115.983 10.1213 115.983 10.364V13.92C115.983 14.4893 116.109 14.914 116.361 15.194C116.613 15.4647 116.991 15.6 117.495 15.6C118.008 15.6 118.391 15.4647 118.643 15.194C118.895 14.914 119.021 14.4893 119.021 13.92V10.364C119.021 10.1213 119.1 9.92067 119.259 9.762C119.417 9.594 119.618 9.51 119.861 9.51ZM126.397 9.37C127.041 9.37 127.625 9.538 128.147 9.874C128.67 10.2007 129.081 10.658 129.379 11.246C129.687 11.834 129.841 12.5013 129.841 13.248C129.841 13.9947 129.692 14.6667 129.393 15.264C129.095 15.852 128.684 16.314 128.161 16.65C127.648 16.9767 127.079 17.14 126.453 17.14C126.005 17.14 125.581 17.0513 125.179 16.874C124.787 16.6873 124.461 16.4633 124.199 16.202V16.286C124.199 16.5287 124.12 16.734 123.961 16.902C123.803 17.0607 123.602 17.14 123.359 17.14C123.117 17.14 122.916 17.0607 122.757 16.902C122.599 16.7433 122.519 16.538 122.519 16.286V7.494C122.519 7.25133 122.599 7.05067 122.757 6.892C122.916 6.724 123.117 6.64 123.359 6.64C123.602 6.64 123.803 6.724 123.961 6.892C124.12 7.05067 124.199 7.25133 124.199 7.494V10.42C124.423 10.14 124.736 9.89733 125.137 9.692C125.539 9.47733 125.959 9.37 126.397 9.37ZM126.187 15.6C126.785 15.6 127.275 15.376 127.657 14.928C128.04 14.48 128.231 13.92 128.231 13.248C128.231 12.576 128.04 12.0207 127.657 11.582C127.284 11.134 126.794 10.91 126.187 10.91C125.581 10.91 125.086 11.134 124.703 11.582C124.321 12.0207 124.129 12.576 124.129 13.248C124.129 13.92 124.321 14.48 124.703 14.928C125.086 15.376 125.581 15.6 126.187 15.6ZM56.736 39.628C56.8573 39.7027 56.9507 39.8007 57.016 39.922C57.0907 40.0433 57.128 40.1693 57.128 40.3C57.128 40.468 57.072 40.622 56.96 40.762C56.82 40.93 56.6053 41.014 56.316 41.014C56.092 41.014 55.8867 40.9627 55.7 40.86C55.028 40.4773 54.692 39.698 54.692 38.522C54.692 38.186 54.58 37.92 54.356 37.724C54.1413 37.528 53.8287 37.43 53.418 37.43H50.8V40.146C50.8 40.398 50.73 40.6033 50.59 40.762C50.4593 40.9207 50.282 41 50.058 41C49.7873 41 49.5493 40.9207 49.344 40.762C49.148 40.594 49.05 40.3887 49.05 40.146V32.054C49.05 31.8113 49.1293 31.6107 49.288 31.452C49.456 31.284 49.6613 31.2 49.904 31.2H53.936C54.4213 31.2 54.8787 31.3307 55.308 31.592C55.7373 31.8533 56.078 32.2127 56.33 32.67C56.5913 33.1273 56.722 33.6407 56.722 34.21C56.722 34.6767 56.596 35.134 56.344 35.582C56.092 36.0207 55.7653 36.3707 55.364 36.632C55.952 37.0427 56.274 37.5933 56.33 38.284C56.358 38.4333 56.372 38.578 56.372 38.718C56.4093 39.0073 56.4467 39.2173 56.484 39.348C56.5213 39.4693 56.6053 39.5627 56.736 39.628ZM53.866 35.988C54.034 35.988 54.1973 35.9087 54.356 35.75C54.5147 35.5913 54.6453 35.3813 54.748 35.12C54.8507 34.8493 54.902 34.56 54.902 34.252C54.902 33.9907 54.8507 33.7527 54.748 33.538C54.6453 33.314 54.5147 33.1367 54.356 33.006C54.1973 32.8753 54.034 32.81 53.866 32.81H50.8V35.988H53.866ZM65.173 37.08C65.1636 37.304 65.075 37.486 64.907 37.626C64.739 37.766 64.543 37.836 64.319 37.836H59.699C59.811 38.3867 60.0676 38.8207 60.469 39.138C60.8703 39.446 61.323 39.6 61.827 39.6C62.2096 39.6 62.5083 39.5673 62.723 39.502C62.9376 39.4273 63.1056 39.3527 63.227 39.278C63.3576 39.194 63.4463 39.138 63.493 39.11C63.661 39.026 63.8196 38.984 63.969 38.984C64.165 38.984 64.333 39.054 64.473 39.194C64.613 39.334 64.683 39.4973 64.683 39.684C64.683 39.936 64.5523 40.1647 64.291 40.37C64.0296 40.5847 63.6796 40.7667 63.241 40.916C62.8023 41.0653 62.359 41.14 61.911 41.14C61.127 41.14 60.441 40.9767 59.853 40.65C59.2743 40.3233 58.8263 39.8753 58.509 39.306C58.1916 38.7273 58.033 38.0787 58.033 37.36C58.033 36.5573 58.201 35.8527 58.537 35.246C58.873 34.6393 59.3163 34.1773 59.867 33.86C60.4176 33.5333 61.0056 33.37 61.631 33.37C62.247 33.37 62.8256 33.538 63.367 33.874C63.9176 34.21 64.3563 34.6627 64.683 35.232C65.0096 35.8013 65.173 36.4173 65.173 37.08ZM61.631 34.91C60.5483 34.91 59.909 35.4187 59.713 36.436H63.381V36.338C63.3436 35.946 63.1523 35.61 62.807 35.33C62.4616 35.05 62.0696 34.91 61.631 34.91ZM70.4521 33.37C71.0961 33.37 71.6794 33.538 72.2021 33.874C72.7247 34.2007 73.1354 34.658 73.4341 35.246C73.7421 35.834 73.8961 36.5013 73.8961 37.248C73.8961 37.9947 73.7467 38.6667 73.4481 39.264C73.1494 39.852 72.7387 40.314 72.2161 40.65C71.7027 40.9767 71.1334 41.14 70.5081 41.14C70.0601 41.14 69.6354 41.0513 69.2341 40.874C68.8421 40.6873 68.5154 40.4633 68.2541 40.202V42.946C68.2541 43.1887 68.1747 43.3893 68.0161 43.548C67.8574 43.716 67.6567 43.8 67.4141 43.8C67.1714 43.8 66.9707 43.7207 66.8121 43.562C66.6534 43.4033 66.5741 43.198 66.5741 42.946V34.364C66.5741 34.1213 66.6534 33.9207 66.8121 33.762C66.9707 33.594 67.1714 33.51 67.4141 33.51C67.6567 33.51 67.8574 33.594 68.0161 33.762C68.1747 33.9207 68.2541 34.1213 68.2541 34.364V34.42C68.4781 34.14 68.7907 33.8973 69.1921 33.692C69.5934 33.4773 70.0134 33.37 70.4521 33.37ZM70.2421 39.6C70.8394 39.6 71.3294 39.376 71.7121 38.928C72.0947 38.48 72.2861 37.92 72.2861 37.248C72.2861 36.576 72.0947 36.0207 71.7121 35.582C71.3387 35.134 70.8487 34.91 70.2421 34.91C69.6354 34.91 69.1407 35.134 68.7581 35.582C68.3754 36.0207 68.1841 36.576 68.1841 37.248C68.1841 37.92 68.3754 38.48 68.7581 38.928C69.1407 39.376 69.6354 39.6 70.2421 39.6ZM82.4927 37.262C82.4927 38.0087 82.3247 38.6807 81.9887 39.278C81.6527 39.866 81.1907 40.3233 80.6027 40.65C80.0241 40.9767 79.3847 41.14 78.6847 41.14C77.9754 41.14 77.3314 40.9767 76.7527 40.65C76.1741 40.3233 75.7167 39.866 75.3807 39.278C75.0447 38.6807 74.8767 38.0087 74.8767 37.262C74.8767 36.5153 75.0447 35.848 75.3807 35.26C75.7167 34.6627 76.1741 34.2007 76.7527 33.874C77.3314 33.538 77.9754 33.37 78.6847 33.37C79.3847 33.37 80.0241 33.538 80.6027 33.874C81.1907 34.2007 81.6527 34.6627 81.9887 35.26C82.3247 35.848 82.4927 36.5153 82.4927 37.262ZM80.8127 37.262C80.8127 36.8047 80.7147 36.3987 80.5187 36.044C80.3321 35.68 80.0754 35.4 79.7487 35.204C79.4314 35.008 79.0767 34.91 78.6847 34.91C78.2927 34.91 77.9334 35.008 77.6067 35.204C77.2894 35.4 77.0327 35.68 76.8367 36.044C76.6501 36.3987 76.5567 36.8047 76.5567 37.262C76.5567 37.7193 76.6501 38.1253 76.8367 38.48C77.0327 38.8347 77.2894 39.11 77.6067 39.306C77.9334 39.502 78.2927 39.6 78.6847 39.6C79.0767 39.6 79.4314 39.502 79.7487 39.306C80.0754 39.11 80.3321 38.8347 80.5187 38.48C80.7147 38.1253 80.8127 37.7193 80.8127 37.262ZM83.4623 39.838C83.3783 39.726 83.3363 39.586 83.3363 39.418C83.3363 39.1753 83.4577 38.97 83.7003 38.802C83.831 38.718 83.9663 38.676 84.1063 38.676C84.3023 38.676 84.489 38.7647 84.6663 38.942C84.9463 39.2313 85.2357 39.446 85.5343 39.586C85.8423 39.726 86.211 39.796 86.6403 39.796C87.3683 39.768 87.7323 39.4927 87.7323 38.97C87.7323 38.6993 87.6063 38.494 87.3543 38.354C87.1117 38.214 86.729 38.074 86.2063 37.934C85.665 37.7847 85.2217 37.6353 84.8763 37.486C84.5403 37.3367 84.2463 37.1127 83.9943 36.814C83.7517 36.506 83.6303 36.0953 83.6303 35.582C83.6303 35.134 83.7563 34.7467 84.0083 34.42C84.2697 34.084 84.6057 33.8273 85.0163 33.65C85.4363 33.4633 85.8797 33.37 86.3463 33.37C86.8223 33.37 87.2983 33.4587 87.7743 33.636C88.2503 33.8133 88.6237 34.0747 88.8943 34.42C89.0157 34.5693 89.0763 34.7373 89.0763 34.924C89.0763 35.1387 88.9877 35.316 88.8103 35.456C88.6797 35.5587 88.5303 35.61 88.3623 35.61C88.157 35.61 87.989 35.5447 87.8583 35.414C87.6903 35.2087 87.471 35.0453 87.2003 34.924C86.939 34.8027 86.6403 34.742 86.3043 34.742C85.595 34.742 85.2403 34.9987 85.2403 35.512C85.2403 35.7173 85.3057 35.8853 85.4363 36.016C85.567 36.1373 85.7303 36.2353 85.9263 36.31C86.1317 36.3753 86.4163 36.4593 86.7803 36.562C87.2843 36.702 87.7043 36.8467 88.0403 36.996C88.3763 37.1453 88.661 37.374 88.8943 37.682C89.1277 37.99 89.2443 38.396 89.2443 38.9C89.2443 39.3573 89.109 39.7587 88.8383 40.104C88.5677 40.44 88.2177 40.6967 87.7883 40.874C87.3683 41.0513 86.9343 41.14 86.4863 41.14C85.8703 41.14 85.2963 41.0373 84.7643 40.832C84.2323 40.6267 83.7983 40.2953 83.4623 39.838ZM92.2322 40.146C92.2322 40.3887 92.1529 40.594 91.9942 40.762C91.8356 40.9207 91.6349 41 91.3922 41C91.1496 41 90.9489 40.9207 90.7902 40.762C90.6316 40.594 90.5522 40.3887 90.5522 40.146V34.364C90.5522 34.1213 90.6316 33.9207 90.7902 33.762C90.9489 33.594 91.1496 33.51 91.3922 33.51C91.6349 33.51 91.8356 33.594 91.9942 33.762C92.1529 33.9207 92.2322 34.1213 92.2322 34.364V40.146ZM91.3782 32.6C91.0609 32.6 90.8369 32.5487 90.7062 32.446C90.5756 32.3433 90.5102 32.1613 90.5102 31.9V31.634C90.5102 31.3727 90.5802 31.1907 90.7202 31.088C90.8602 30.9853 91.0842 30.934 91.3922 30.934C91.7189 30.934 91.9476 30.9853 92.0782 31.088C92.2089 31.1907 92.2742 31.3727 92.2742 31.634V31.9C92.2742 32.1707 92.2042 32.3573 92.0642 32.46C91.9336 32.5533 91.7049 32.6 91.3782 32.6ZM97.5708 39.418C97.7015 39.418 97.8182 39.4833 97.9208 39.614C98.0328 39.7353 98.0888 39.8987 98.0888 40.104C98.0888 40.356 97.9488 40.5707 97.6688 40.748C97.3982 40.916 97.0902 41 96.7448 41C96.1662 41 95.6762 40.8787 95.2748 40.636C94.8828 40.384 94.6868 39.8567 94.6868 39.054V35.19H94.0428C93.8188 35.19 93.6322 35.1153 93.4828 34.966C93.3335 34.8167 93.2588 34.63 93.2588 34.406C93.2588 34.1913 93.3335 34.014 93.4828 33.874C93.6322 33.7247 93.8188 33.65 94.0428 33.65H94.6868V32.754C94.6868 32.5113 94.7662 32.3107 94.9248 32.152C95.0928 31.984 95.2982 31.9 95.5408 31.9C95.7742 31.9 95.9702 31.984 96.1288 32.152C96.2875 32.3107 96.3668 32.5113 96.3668 32.754V33.65H97.3608C97.5848 33.65 97.7715 33.7247 97.9208 33.874C98.0702 34.0233 98.1448 34.21 98.1448 34.434C98.1448 34.6487 98.0702 34.8307 97.9208 34.98C97.7715 35.12 97.5848 35.19 97.3608 35.19H96.3668V38.984C96.3668 39.18 96.4182 39.3247 96.5208 39.418C96.6235 39.502 96.7635 39.544 96.9408 39.544C97.0155 39.544 97.1182 39.5253 97.2488 39.488C97.3608 39.4413 97.4682 39.418 97.5708 39.418ZM106.815 37.262C106.815 38.0087 106.647 38.6807 106.311 39.278C105.975 39.866 105.513 40.3233 104.925 40.65C104.346 40.9767 103.707 41.14 103.007 41.14C102.298 41.14 101.654 40.9767 101.075 40.65C100.496 40.3233 100.039 39.866 99.703 39.278C99.367 38.6807 99.199 38.0087 99.199 37.262C99.199 36.5153 99.367 35.848 99.703 35.26C100.039 34.6627 100.496 34.2007 101.075 33.874C101.654 33.538 102.298 33.37 103.007 33.37C103.707 33.37 104.346 33.538 104.925 33.874C105.513 34.2007 105.975 34.6627 106.311 35.26C106.647 35.848 106.815 36.5153 106.815 37.262ZM105.135 37.262C105.135 36.8047 105.037 36.3987 104.841 36.044C104.654 35.68 104.398 35.4 104.071 35.204C103.754 35.008 103.399 34.91 103.007 34.91C102.615 34.91 102.256 35.008 101.929 35.204C101.612 35.4 101.355 35.68 101.159 36.044C100.972 36.3987 100.879 36.8047 100.879 37.262C100.879 37.7193 100.972 38.1253 101.159 38.48C101.355 38.8347 101.612 39.11 101.929 39.306C102.256 39.502 102.615 39.6 103.007 39.6C103.399 39.6 103.754 39.502 104.071 39.306C104.398 39.11 104.654 38.8347 104.841 38.48C105.037 38.1253 105.135 37.7193 105.135 37.262ZM112.111 33.37C112.391 33.37 112.624 33.4493 112.811 33.608C113.007 33.7667 113.105 33.9533 113.105 34.168C113.105 34.4573 113.03 34.6767 112.881 34.826C112.731 34.966 112.554 35.036 112.349 35.036C112.209 35.036 112.05 35.0033 111.873 34.938C111.845 34.9287 111.779 34.91 111.677 34.882C111.583 34.854 111.481 34.84 111.369 34.84C111.126 34.84 110.893 34.9147 110.669 35.064C110.445 35.2133 110.258 35.442 110.109 35.75C109.969 36.0487 109.899 36.408 109.899 36.828V40.146C109.899 40.3887 109.819 40.594 109.661 40.762C109.502 40.9207 109.301 41 109.059 41C108.816 41 108.615 40.9207 108.457 40.762C108.298 40.594 108.219 40.3887 108.219 40.146V34.364C108.219 34.1213 108.298 33.9207 108.457 33.762C108.615 33.594 108.816 33.51 109.059 33.51C109.301 33.51 109.502 33.594 109.661 33.762C109.819 33.9207 109.899 34.1213 109.899 34.364V34.546C110.113 34.1633 110.421 33.874 110.823 33.678C111.224 33.4727 111.653 33.37 112.111 33.37ZM119.847 33.51C120.09 33.51 120.29 33.594 120.449 33.762C120.608 33.9207 120.687 34.1213 120.687 34.364V40.314C120.687 41.5273 120.36 42.4093 119.707 42.96C119.054 43.52 118.181 43.8 117.089 43.8C116.772 43.8 116.445 43.772 116.109 43.716C115.782 43.6693 115.516 43.604 115.311 43.52C114.854 43.324 114.625 43.0533 114.625 42.708C114.625 42.6427 114.639 42.568 114.667 42.484C114.723 42.2787 114.816 42.12 114.947 42.008C115.087 41.9053 115.236 41.854 115.395 41.854C115.488 41.854 115.577 41.868 115.661 41.896C115.726 41.924 115.838 41.9707 115.997 42.036C116.165 42.1013 116.338 42.1527 116.515 42.19C116.702 42.2367 116.893 42.26 117.089 42.26C117.752 42.26 118.237 42.1153 118.545 41.826C118.862 41.546 119.021 41.0607 119.021 40.37V40.23C118.536 40.8367 117.78 41.14 116.753 41.14C116.268 41.14 115.838 41.028 115.465 40.804C115.092 40.5707 114.802 40.2533 114.597 39.852C114.392 39.4413 114.289 38.9747 114.289 38.452V34.364C114.289 34.1213 114.368 33.9207 114.527 33.762C114.686 33.594 114.886 33.51 115.129 33.51C115.372 33.51 115.572 33.594 115.731 33.762C115.89 33.9207 115.969 34.1213 115.969 34.364V37.948C115.969 38.536 116.095 38.9607 116.347 39.222C116.608 39.474 116.986 39.6 117.481 39.6C117.966 39.6 118.34 39.46 118.601 39.18C118.872 38.8907 119.007 38.48 119.007 37.948V34.364C119.007 34.1213 119.086 33.9207 119.245 33.762C119.404 33.594 119.604 33.51 119.847 33.51Z" fill="#19191F"/>
<path d="M18 9.37005C14.4382 9.3702 10.9927 10.6377 8.27996 12.9458C5.56721 15.2539 3.76426 18.452 3.19371 21.9678C2.62316 25.4836 3.32224 29.0877 5.16586 32.1352C7.00948 35.1827 9.87734 37.4748 13.2563 38.6013C14.0063 38.7326 14.2875 38.2826 14.2875 37.8888C14.2875 37.5325 14.2688 36.3513 14.2688 35.095C10.5 35.7888 9.52501 34.1763 9.22501 33.3326C8.89212 32.512 8.36442 31.7848 7.68751 31.2138C7.16251 30.9325 6.41251 30.2388 7.66875 30.2201C8.14843 30.2721 8.60849 30.439 9.00996 30.7067C9.41142 30.9743 9.74246 31.3348 9.97501 31.7575C10.1802 32.1261 10.456 32.4505 10.7868 32.7123C11.1176 32.974 11.4967 33.1679 11.9026 33.2829C12.3084 33.3979 12.7329 33.4316 13.1518 33.3822C13.5707 33.3328 13.9758 33.2012 14.3437 32.995C14.4087 32.2325 14.7485 31.5195 15.3 30.9888C11.9625 30.6138 8.47501 29.32 8.47501 23.5826C8.45393 22.0918 9.00404 20.6495 10.0125 19.5513C9.55393 18.2557 9.60759 16.8338 10.1625 15.5763C10.1625 15.5763 11.4187 15.1826 14.2875 17.1138C16.7419 16.4388 19.3331 16.4388 21.7875 17.1138C24.6562 15.1638 25.9125 15.5763 25.9125 15.5763C26.4675 16.8338 26.5212 18.2557 26.0625 19.5513C27.074 20.6476 27.6246 22.0912 27.6 23.5826C27.6 29.3388 24.0937 30.6138 20.7563 30.9888C21.1142 31.3517 21.3899 31.7873 21.5646 32.2661C21.7393 32.7449 21.809 33.2557 21.7688 33.7638C21.7688 35.7701 21.75 37.3826 21.75 37.8888C21.75 38.2826 22.0312 38.7513 22.7812 38.6013C26.1542 37.4656 29.0139 35.1682 30.8496 32.1191C32.6854 29.07 33.3778 25.4678 32.8033 21.9554C32.2288 18.443 30.4248 15.2491 27.7132 12.9438C25.0017 10.6385 21.5591 9.3719 18 9.37005V9.37005Z" fill="#19191F"/>
<path d="M229.17 19C228.984 19.1874 228.879 19.4408 228.879 19.705C228.879 19.9692 228.984 20.2226 229.17 20.41L232.71 24L229.17 27.54C228.984 27.7274 228.879 27.9808 228.879 28.245C228.879 28.5092 228.984 28.7626 229.17 28.95C229.263 29.0437 229.374 29.1181 229.495 29.1689C229.617 29.2197 229.748 29.2458 229.88 29.2458C230.012 29.2458 230.143 29.2197 230.265 29.1689C230.386 29.1181 230.497 29.0437 230.59 28.95L234.83 24.71C234.924 24.617 234.998 24.5064 235.049 24.3846C235.1 24.2627 235.126 24.132 235.126 24C235.126 23.868 235.1 23.7373 235.049 23.6154C234.998 23.4936 234.924 23.383 234.83 23.29L230.59 19C230.497 18.9063 230.386 18.8319 230.265 18.7811C230.143 18.7303 230.012 18.7042 229.88 18.7042C229.748 18.7042 229.617 18.7303 229.495 18.7811C229.374 18.8319 229.263 18.9063 229.17 19Z" fill="#9591AF"/>
</svg>
