<svg width="105" height="101" viewBox="0 0 105 101" fill="none" xmlns="http://www.w3.org/2000/svg">
<ellipse cx="50.4547" cy="47.7703" rx="43.6364" ry="43.6757" fill="#FFDA44"/>
<path d="M73.687 100.659C73.5771 100.774 73.4629 100.887 73.3473 101H60.162C60.0536 100.89 59.9467 100.777 59.8397 100.659C59.8354 100.655 59.831 100.649 59.8267 100.645C58.3942 99.072 57.4923 96.7859 56.93 94.3752C56.8939 94.2291 56.8621 94.0816 56.8303 93.9326C56.6829 93.2551 56.5629 92.5704 56.4646 91.8915C56.4473 91.774 56.4299 91.6566 56.4154 91.5391C56.2825 90.5637 56.1928 89.604 56.135 88.703C56.1278 88.587 56.1206 88.4738 56.1134 88.3607C56.0075 86.567 56.0065 84.7687 56.1105 82.9749C56.1105 82.9749 56.1278 82.9749 56.1611 82.9763C56.2579 82.9806 56.4906 82.9907 56.8332 83.0107C57.777 83.068 59.5579 83.2113 61.6523 83.5493C61.7664 83.5679 61.8821 83.588 61.9977 83.608C63.7693 83.8981 65.5167 84.3175 67.2259 84.8628C67.3329 84.8986 67.4384 84.9344 67.5453 84.9702L67.5468 84.9774L68.8578 91.4961L69.4013 85.6936C69.8335 85.8869 70.2541 86.0932 70.6574 86.3138C70.7701 86.3754 70.88 86.437 70.9884 86.5C71.9103 87.0177 72.7472 87.6717 73.4702 88.4394C77.7704 93.162 76.8496 97.3832 73.687 100.659Z" fill="#69CA94"/>
<path d="M68.1776 92.3931L68.4062 92.6441C71.0484 95.5745 72.6252 98.2945 73.111 100.768C73.1187 100.804 73.124 100.84 73.1317 100.876L72.9627 100.908L72.7998 100.936C72.304 98.2391 70.458 95.451 68.1541 92.8944C68.0807 92.8113 68.0061 92.7269 67.9291 92.6448C66.9441 91.5711 65.8852 90.541 64.8144 89.5779C64.7322 89.5026 64.6476 89.4272 64.563 89.3519C63.1431 88.0878 61.7145 86.9443 60.4405 85.9803C60.3508 85.9118 60.2598 85.8444 60.1699 85.7782C58.0068 84.1554 56.3284 83.0797 55.9543 82.8439C55.9092 82.8144 55.8837 82.7989 55.8779 82.795L55.9665 82.655L55.9666 82.6526L56.0564 82.5114C56.0622 82.5152 56.148 82.567 56.303 82.6673C56.8853 83.0392 58.4504 84.0629 60.3974 85.5184C60.4849 85.5844 60.5758 85.6518 60.6656 85.7204C61.7003 86.5015 62.832 87.3966 63.9748 88.3764C64.2623 88.6221 64.5426 88.8674 64.8157 89.1123C64.9016 89.1865 64.9862 89.2619 65.0684 89.3372C66.226 90.3782 67.2624 91.3968 68.1776 92.3931Z" fill="#E9E9F4"/>
<path d="M61.7774 83.2714C61.7384 83.3645 61.6964 83.4576 61.653 83.5493C61.3229 84.2573 60.9006 84.9195 60.3969 85.5188C60.3233 85.6048 60.2481 85.6921 60.17 85.7781C59.959 86.0087 59.7345 86.2317 59.4964 86.447C58.5226 87.3207 57.3684 87.9737 56.1141 88.3607C56.0736 88.3736 56.0347 88.3865 55.9941 88.3979C56.0013 88.5111 56.0086 88.6228 56.0158 88.7388C56.0563 88.7274 56.0953 88.7159 56.1358 88.703C57.4666 88.3054 58.6916 87.6194 59.7219 86.6948C59.9739 86.4692 60.2137 86.2306 60.4403 85.9801C60.5183 85.8955 60.5936 85.8082 60.6658 85.7208C61.2044 85.0795 61.6527 84.3688 61.9985 83.608C62.039 83.5164 62.0794 83.4247 62.1185 83.3316C62.0029 83.3115 61.8887 83.2915 61.7774 83.2714Z" fill="#E9E9F4"/>
<path d="M67.2853 84.6093C67.268 84.6938 67.2477 84.7783 67.226 84.8628C66.8342 86.473 65.9996 87.9441 64.8151 89.1127C64.7326 89.1943 64.6488 89.2746 64.5621 89.3519C64.5375 89.3763 64.51 89.402 64.4841 89.4249C63.4065 90.3889 62.112 91.0838 60.7085 91.4515C59.305 91.8193 57.8332 91.8493 56.4156 91.5391C56.3823 91.5334 56.3477 91.5248 56.3145 91.5177C56.3317 91.6351 56.3477 91.754 56.3665 91.8715C56.3997 91.8786 56.4315 91.8858 56.4648 91.8915C57.9183 92.1895 59.4223 92.1439 60.8547 91.7584C62.2871 91.373 63.6078 90.6584 64.7095 89.6728C64.7442 89.6412 64.7804 89.6112 64.8136 89.5782C64.9003 89.498 64.9842 89.4178 65.068 89.3376C66.2803 88.1355 67.1375 86.6277 67.547 84.9774C67.5686 84.8915 67.5889 84.8055 67.6077 84.7196C67.5006 84.6823 67.3937 84.6451 67.2853 84.6093Z" fill="#E9E9F4"/>
<path d="M70.658 86.0717C70.6594 86.1519 70.6594 86.2336 70.658 86.3138C70.6339 88.5775 69.748 90.7487 68.1776 92.3928C68.0967 92.4788 68.0128 92.5619 67.929 92.6449C67.8379 92.7323 67.7469 92.8197 67.6529 92.9028C66.1988 94.2014 64.362 95.0026 62.4135 95.188C60.4649 95.3735 58.5078 94.9334 56.8309 93.9326C56.8022 93.9178 56.7742 93.9016 56.7471 93.8839C56.7818 94.0358 56.8165 94.1847 56.8541 94.3337C56.88 94.348 56.9046 94.3624 56.9306 94.3752C58.6561 95.3287 60.6394 95.7234 62.6026 95.504C64.5657 95.2846 66.4105 94.4622 67.8784 93.152C67.9724 93.0675 68.0663 92.983 68.1545 92.8942C68.2412 92.8125 68.3236 92.7294 68.406 92.6435C69.9985 90.9791 70.9179 88.7925 70.989 86.5C70.9919 86.4226 70.9933 86.3453 70.9933 86.268C70.8835 86.2006 70.7707 86.1362 70.658 86.0717Z" fill="#E9E9F4"/>
<path d="M41.4358 23.7171H16.027C15.8156 23.7169 15.6129 23.6335 15.4633 23.4854C15.3138 23.3372 15.2297 23.1363 15.2295 22.9268V3.80807C15.2297 3.59852 15.3138 3.39763 15.4633 3.24945C15.6128 3.10127 15.8156 3.01792 16.027 3.01767H47.215C47.4264 3.01792 47.6292 3.10127 47.7787 3.24945C47.9282 3.39763 48.0123 3.59852 48.0125 3.80807V17.1998C48.0106 18.9277 47.317 20.5842 46.0841 21.8061C44.8511 23.0279 43.1794 23.7151 41.4358 23.7171Z" fill="#9591AF"/>
<path d="M41.0506 9.47441H22.1928C22.0197 9.47441 21.8536 9.40626 21.7312 9.28495C21.6088 9.16363 21.54 8.9991 21.54 8.82754C21.54 8.65598 21.6088 8.49144 21.7312 8.37013C21.8536 8.24882 22.0197 8.18066 22.1928 8.18066H41.0506C41.2236 8.18092 41.3894 8.24918 41.5116 8.37047C41.6338 8.49175 41.7024 8.65614 41.7024 8.82754C41.7024 8.99893 41.6338 9.16332 41.5116 9.2846C41.3894 9.40589 41.2236 9.47415 41.0506 9.47441Z" fill="white"/>
<path d="M41.0506 13.9306H22.1928C22.0197 13.9306 21.8536 13.8625 21.7312 13.7412C21.6088 13.6199 21.54 13.4553 21.54 13.2838C21.54 13.1122 21.6088 12.9477 21.7312 12.8264C21.8536 12.7051 22.0197 12.6369 22.1928 12.6369H41.0506C41.2238 12.6369 41.3898 12.7051 41.5122 12.8264C41.6346 12.9477 41.7034 13.1122 41.7034 13.2838C41.7034 13.4553 41.6346 13.6199 41.5122 13.7412C41.3898 13.8625 41.2238 13.9306 41.0506 13.9306Z" fill="white"/>
<path d="M41.0506 18.5143H22.1928C22.0197 18.5143 21.8536 18.4461 21.7312 18.3248C21.6088 18.2035 21.54 18.039 21.54 17.8674C21.54 17.6958 21.6088 17.5313 21.7312 17.41C21.8536 17.2887 22.0197 17.2205 22.1928 17.2205H41.0506C41.2238 17.2205 41.3898 17.2887 41.5122 17.41C41.6346 17.5313 41.7034 17.6958 41.7034 17.8674C41.7034 18.039 41.6346 18.2035 41.5122 18.3248C41.3898 18.4461 41.2238 18.5143 41.0506 18.5143Z" fill="white"/>
<path d="M46.9811 7.72583C49.134 7.72583 50.8793 5.99634 50.8793 3.86291C50.8793 1.72949 49.134 0 46.9811 0C44.8283 0 43.083 1.72949 43.083 3.86291C43.083 5.99634 44.8283 7.72583 46.9811 7.72583Z" fill="#6C63FF"/>
<path d="M46.4492 5.87339C46.3819 5.87339 46.3155 5.85786 46.2553 5.82802C46.1951 5.79818 46.1427 5.75485 46.1023 5.70148L45.0389 4.29631C45.0047 4.25116 44.9798 4.19979 44.9657 4.14513C44.9516 4.09047 44.9485 4.03358 44.9565 3.97773C44.9646 3.92187 44.9836 3.86812 45.0127 3.81957C45.0417 3.77102 45.0801 3.7286 45.1256 3.69475C45.1712 3.66089 45.223 3.63626 45.2782 3.62226C45.3333 3.60826 45.3907 3.60516 45.4471 3.61314C45.5035 3.62112 45.5577 3.64003 45.6067 3.66878C45.6557 3.69753 45.6985 3.73556 45.7326 3.7807L46.4284 4.69993L48.2154 2.04374C48.2792 1.94891 48.3784 1.88308 48.4911 1.86073C48.6039 1.83838 48.721 1.86134 48.8167 1.92456C48.9124 1.98777 48.9788 2.08607 49.0014 2.19782C49.0239 2.30957 49.0008 2.42562 48.937 2.52045L46.81 5.68203C46.7715 5.73921 46.7198 5.78642 46.6591 5.81969C46.5984 5.85296 46.5306 5.87133 46.4613 5.87326C46.4572 5.87333 46.4532 5.87339 46.4492 5.87339Z" fill="white"/>
<path d="M32.0578 40.3226H6.64901C4.90536 40.3206 3.23368 39.6333 2.00072 38.4115C0.76777 37.1897 0.0742328 35.5331 0.0722656 33.8052V20.4134C0.0725139 20.2039 0.156627 20.003 0.306153 19.8548C0.455678 19.7066 0.658408 19.6233 0.869869 19.623H32.0578C32.2692 19.6233 32.472 19.7066 32.6215 19.8548C32.771 20.003 32.8551 20.2039 32.8554 20.4134V39.5322C32.8551 39.7417 32.771 39.9426 32.6215 40.0908C32.472 40.239 32.2692 40.3223 32.0578 40.3226Z" fill="white"/>
<path d="M25.8924 26.0798H7.03461C6.86148 26.0798 6.69545 26.0116 6.57303 25.8903C6.45061 25.769 6.38184 25.6045 6.38184 25.4329C6.38184 25.2614 6.45061 25.0968 6.57303 24.9755C6.69545 24.8542 6.86148 24.786 7.03461 24.786H25.8924C26.0656 24.786 26.2316 24.8542 26.354 24.9755C26.4764 25.0968 26.5452 25.2614 26.5452 25.4329C26.5452 25.6045 26.4764 25.769 26.354 25.8903C26.2316 26.0116 26.0656 26.0798 25.8924 26.0798Z" fill="#9591AF"/>
<path d="M25.8924 30.536H7.03461C6.86148 30.536 6.69545 30.4679 6.57303 30.3466C6.45061 30.2252 6.38184 30.0607 6.38184 29.8892C6.38184 29.7176 6.45061 29.5531 6.57303 29.4317C6.69545 29.3104 6.86148 29.2423 7.03461 29.2423H25.8924C26.0656 29.2423 26.2316 29.3104 26.354 29.4317C26.4764 29.5531 26.5452 29.7176 26.5452 29.8892C26.5452 30.0607 26.4764 30.2252 26.354 30.3466C26.2316 30.4679 26.0656 30.536 25.8924 30.536Z" fill="#9591AF"/>
<path d="M25.8924 35.1196H7.03461C6.86148 35.1196 6.69545 35.0515 6.57303 34.9302C6.45061 34.8089 6.38184 34.6443 6.38184 34.4728C6.38184 34.3012 6.45061 34.1367 6.57303 34.0154C6.69545 33.894 6.86148 33.8259 7.03461 33.8259H25.8924C26.0656 33.8259 26.2316 33.894 26.354 34.0154C26.4764 34.1367 26.5452 34.3012 26.5452 34.4728C26.5452 34.6443 26.4764 34.8089 26.354 34.9302C26.2316 35.0515 26.0656 35.1196 25.8924 35.1196Z" fill="#9591AF"/>
<path d="M32.0934 24.4847C34.2463 24.4847 35.9916 22.7552 35.9916 20.6218C35.9916 18.4883 34.2463 16.7589 32.0934 16.7589C29.9406 16.7589 28.1953 18.4883 28.1953 20.6218C28.1953 22.7552 29.9406 24.4847 32.0934 24.4847Z" fill="#CF5250"/>
<path d="M31.5615 22.6322C31.4942 22.6322 31.4278 22.6167 31.3676 22.5868C31.3074 22.557 31.255 22.5137 31.2146 22.4603L30.1512 21.0551C30.117 21.01 30.0921 20.9586 30.078 20.904C30.0639 20.8493 30.0608 20.7924 30.0688 20.7365C30.0769 20.6807 30.0959 20.6269 30.125 20.5784C30.154 20.5298 30.1924 20.4874 30.2379 20.4536C30.2835 20.4197 30.3353 20.3951 30.3905 20.3811C30.4456 20.3671 30.503 20.364 30.5594 20.372C30.6158 20.3799 30.67 20.3989 30.719 20.4276C30.768 20.4564 30.8108 20.4944 30.845 20.5395L31.5407 21.4588L33.3277 18.8026C33.3915 18.7077 33.4907 18.6419 33.6034 18.6196C33.7162 18.5972 33.8333 18.6202 33.929 18.6834C34.0247 18.7466 34.0911 18.8449 34.1137 18.9566C34.1362 19.0684 34.1131 19.1844 34.0493 19.2793L31.9223 22.4409C31.8838 22.498 31.8321 22.5452 31.7714 22.5785C31.7107 22.6118 31.6429 22.6302 31.5736 22.6321C31.5695 22.6322 31.5655 22.6322 31.5615 22.6322Z" fill="white"/>
<path d="M63.7163 58.1432H28.1637C26.42 58.1413 24.7483 57.454 23.5154 56.2322C22.2824 55.0104 21.5889 53.3538 21.5869 51.6259V31.9287C21.5872 31.6586 21.6956 31.3997 21.8884 31.2087C22.0811 31.0177 22.3424 30.9102 22.615 30.9099H63.7163C63.9888 30.9102 64.2501 31.0177 64.4429 31.2087C64.6356 31.3997 64.744 31.6586 64.7443 31.9287V57.1243C64.744 57.3945 64.6356 57.6534 64.4429 57.8444C64.2501 58.0355 63.9888 58.1429 63.7163 58.1432Z" fill="#9591AF"/>
<path d="M55.5922 39.3961H30.7403C30.6272 39.3963 30.5152 39.3743 30.4107 39.3316C30.3062 39.2888 30.2113 39.226 30.1313 39.1468C30.0513 39.0677 29.9878 38.9736 29.9445 38.8701C29.9012 38.7666 29.8789 38.6557 29.8789 38.5436C29.8789 38.4316 29.9012 38.3207 29.9445 38.2172C29.9878 38.1137 30.0513 38.0196 30.1313 37.9405C30.2113 37.8613 30.3062 37.7985 30.4107 37.7557C30.5152 37.713 30.6272 37.691 30.7403 37.6912H55.5922C55.7053 37.691 55.8172 37.713 55.9217 37.7557C56.0262 37.7985 56.1212 37.8613 56.2012 37.9405C56.2812 38.0196 56.3447 38.1137 56.388 38.2172C56.4313 38.3207 56.4536 38.4316 56.4536 38.5436C56.4536 38.6557 56.4313 38.7666 56.388 38.8701C56.3447 38.9736 56.2812 39.0677 56.2012 39.1468C56.1212 39.226 56.0262 39.2888 55.9217 39.3316C55.8172 39.3743 55.7053 39.3963 55.5922 39.3961Z" fill="white"/>
<path d="M55.5922 45.2688H30.7403C30.6272 45.269 30.5152 45.247 30.4107 45.2042C30.3062 45.1615 30.2113 45.0987 30.1313 45.0195C30.0513 44.9403 29.9878 44.8463 29.9445 44.7428C29.9012 44.6393 29.8789 44.5284 29.8789 44.4163C29.8789 44.3043 29.9012 44.1933 29.9445 44.0898C29.9878 43.9863 30.0513 43.8923 30.1313 43.8131C30.2113 43.734 30.3062 43.6712 30.4107 43.6284C30.5152 43.5856 30.6272 43.5637 30.7403 43.5638H55.5922C55.8204 43.5638 56.0392 43.6537 56.2005 43.8135C56.3618 43.9734 56.4525 44.1902 56.4525 44.4163C56.4525 44.6424 56.3618 44.8593 56.2005 45.0191C56.0392 45.179 55.8204 45.2688 55.5922 45.2688Z" fill="white"/>
<path d="M55.5921 51.3093H30.7401C30.512 51.3093 30.2932 51.2195 30.1318 51.0597C29.9705 50.8998 29.8799 50.6829 29.8799 50.4569C29.8799 50.2308 29.9705 50.0139 30.1318 49.8541C30.2932 49.6942 30.512 49.6044 30.7401 49.6044H55.5921C55.7051 49.6042 55.8171 49.6262 55.9216 49.6689C56.0261 49.7117 56.1211 49.7745 56.2011 49.8537C56.2811 49.9328 56.3445 50.0269 56.3878 50.1304C56.4311 50.2339 56.4534 50.3448 56.4534 50.4569C56.4534 50.5689 56.4311 50.6798 56.3878 50.7833C56.3445 50.8868 56.2811 50.9809 56.2011 51.06C56.1211 51.1392 56.0261 51.202 55.9216 51.2448C55.8171 51.2875 55.7051 51.3095 55.5921 51.3093Z" fill="white"/>
<path d="M63.8457 37.3418C66.571 37.3418 68.7803 35.1525 68.7803 32.4519C68.7803 29.7512 66.571 27.5619 63.8457 27.5619C61.1204 27.5619 58.9111 29.7512 58.9111 32.4519C58.9111 35.1525 61.1204 37.3418 63.8457 37.3418Z" fill="#CF5250"/>
<path d="M63.1724 34.9969C63.0872 34.9969 63.0032 34.9772 62.927 34.9395C62.8507 34.9017 62.7845 34.8468 62.7333 34.7793L61.3871 33.0005C61.3439 32.9433 61.3124 32.8783 61.2945 32.8091C61.2766 32.7399 61.2727 32.6679 61.2829 32.5972C61.2931 32.5265 61.3172 32.4585 61.3539 32.397C61.3907 32.3355 61.4393 32.2818 61.4969 32.239C61.5546 32.1961 61.6202 32.165 61.69 32.1472C61.7599 32.1295 61.8325 32.1256 61.9039 32.1357C61.9752 32.1458 62.0439 32.1697 62.1059 32.2061C62.1679 32.2425 62.2221 32.2907 62.2654 32.3478L63.1461 33.5114L65.4082 30.149C65.489 30.0292 65.6146 29.946 65.7572 29.9178C65.8999 29.8897 66.048 29.9188 66.169 29.9987C66.2901 30.0787 66.3741 30.203 66.4027 30.3443C66.4313 30.4856 66.4022 30.6324 66.3217 30.7525L63.6292 34.7546C63.5805 34.827 63.515 34.8868 63.4382 34.9289C63.3613 34.971 63.2755 34.9943 63.1877 34.9967C63.1826 34.9968 63.1775 34.9969 63.1724 34.9969Z" fill="white"/>
<path d="M76.629 97.0961L74.6214 97.7615L71.0762 90.4043L74.0393 89.4223L76.629 97.0961Z" fill="#FFB6B6"/>
<path d="M77.7927 98.8549L71.3192 100.571L71.2918 100.489C71.0668 99.8225 71.1172 99.5382 71.434 98.9089C71.5889 98.599 71.8044 98.3226 72.0678 98.0957C72.3312 97.8689 72.6374 97.696 72.9687 97.5872L72.9689 97.5871L73.8513 96.3062L76.3575 96.4641L76.9226 96.2768L77.7927 98.8549Z" fill="#2F2E41"/>
<path d="M81.5899 98.9667H79.473L78.4658 90.8752L81.5903 90.8753L81.5899 98.9667Z" fill="#FFB6B6"/>
<path d="M82.1296 100.571L75.3037 100.57V100.485C75.3038 99.7815 75.5801 99.55 76.082 99.0528C76.3281 98.8075 76.6209 98.6131 76.9433 98.4808C77.2658 98.3484 77.6115 98.2807 77.9605 98.2817H77.9607L79.2075 97.3443L81.5338 98.2818L82.1297 98.2818L82.1296 100.571Z" fill="#2F2E41"/>
<path d="M65.4784 34.1359C65.522 34.3557 65.6137 34.5633 65.747 34.7442C65.8804 34.925 66.0521 35.0747 66.2501 35.1827C66.4481 35.2907 66.6677 35.3544 66.8932 35.3692C67.1187 35.384 67.3448 35.3496 67.5555 35.2685L69.9994 37.7969L71.9121 36.7L68.4103 33.1774C68.2493 32.8357 67.9674 32.5644 67.618 32.4148C67.2687 32.2653 66.8761 32.248 66.5147 32.3662C66.1533 32.4843 65.8482 32.7297 65.6572 33.0559C65.4662 33.3821 65.4026 33.7663 65.4784 34.1359Z" fill="#FFB6B6"/>
<path d="M81.2948 46.8491L82.3966 45.7196L76.0253 39.8722L69.6129 34.1982L67.8369 36.6851L74.5566 42.9008L81.2948 46.8491Z" fill="white"/>
<path d="M77.3799 85.2228C77.3799 83.8032 77.4083 82.7907 77.4311 81.9771C77.4977 79.596 77.5156 78.9559 76.5961 74.8555L76.36 73.8024L74.9673 77.9425C74.5225 79.2632 74.2952 80.6462 74.2942 82.0385L76.4415 94.8056H72.0528L68.8385 81.0031L68.837 76.7812C68.5538 76.4908 68.3955 76.1027 68.3955 75.6988C68.3955 75.295 68.5538 74.9069 68.837 74.6165L69.9049 68.2913L70.9858 59.7668H82.8249C82.8249 59.7668 84.9143 64.0584 82.8379 68.3155L82.8377 85.2281L81.7649 96.922H78.453L77.3799 85.2228Z" fill="#2F2E41"/>
<path d="M82.1012 60.7986L71.0272 59.8841L70.9697 59.8794L71.8535 44.1155C71.9054 43.1244 72.2564 42.1715 72.8609 41.3802C73.4654 40.5889 74.2957 39.9956 75.2443 39.6772V38.574C75.2446 38.3009 75.3542 38.0392 75.549 37.8461C75.7439 37.653 76.008 37.5444 76.2836 37.5441H77.9016C78.0947 37.5435 78.2842 37.5965 78.4485 37.6971C78.6128 37.7977 78.7454 37.942 78.8311 38.1134L79.6223 39.6815L82.6142 42.0534C84.0919 43.2249 82.9026 54.9701 82.8386 55.5898L83.5622 59.1752C83.602 59.3724 83.5972 59.5759 83.5481 59.7711C83.4991 59.9662 83.407 60.1482 83.2785 60.3039C83.15 60.4596 82.9883 60.5852 82.805 60.6715C82.6217 60.7579 82.4214 60.803 82.2185 60.8035C82.1796 60.8034 82.1405 60.8017 82.1012 60.7986Z" fill="white"/>
<path d="M70.3736 64.9608C70.5486 64.8192 70.6902 64.6412 70.7884 64.4394C70.8865 64.2376 70.9388 64.017 70.9416 63.793C70.9444 63.5691 70.8976 63.3472 70.8045 63.1431C70.7114 62.939 70.5743 62.7576 70.4028 62.6117L71.5015 59.2841L69.6238 58.1293L68.1388 62.85C67.9106 63.1518 67.8019 63.526 67.8335 63.9018C67.8651 64.2776 68.0346 64.6289 68.3101 64.8891C68.5856 65.1493 68.9478 65.3003 69.3281 65.3135C69.7084 65.3267 70.0804 65.2012 70.3736 64.9608Z" fill="#FFB6B6"/>
<path d="M74.236 42.3394L72.7115 41.8358L70.5095 51.5714L68.4814 61.2534L71.5318 61.6982L73.8972 51.4035L74.236 42.3394Z" fill="white"/>
<path d="M75.9007 36.5365C77.9094 36.5365 79.5377 34.9229 79.5377 32.9324C79.5377 30.9418 77.9094 29.3282 75.9007 29.3282C73.892 29.3282 72.2637 30.9418 72.2637 32.9324C72.2637 34.9229 73.892 36.5365 75.9007 36.5365Z" fill="#FFB6B6"/>
<path d="M71.0073 31.1673C71.0408 30.8258 71.1396 30.4936 71.2983 30.1886C71.4684 30.555 71.9987 30.6186 72.3617 30.4362C72.7247 30.2539 72.9679 29.9075 73.2273 29.5968C73.9118 28.7769 74.8532 28.1118 75.92 27.9907C76.9869 27.8695 78.1628 28.4032 78.5659 29.3895C78.7468 29.1406 79.1327 29.1129 79.4057 29.2576C79.6694 29.4223 79.8752 29.664 79.9949 29.9492C80.2634 30.4951 80.4151 31.0902 80.4406 31.6969C80.466 32.3037 80.3646 32.9091 80.1428 33.4753C79.6935 34.6018 78.5842 36.1196 77.4396 36.5447C76.7447 36.8029 76.0429 36.4725 75.3039 36.5447C75.3426 35.7455 75.499 34.7593 75.5377 33.9601C75.5589 33.5224 75.5619 33.0327 75.2603 32.7123C75.1677 32.6252 75.057 32.5594 74.9359 32.5194C74.8149 32.4795 74.6864 32.4663 74.5597 32.481C74.4329 32.4957 74.311 32.5377 74.2025 32.6043C74.0939 32.6708 74.0015 32.7601 73.9317 32.866C73.8943 32.6175 73.8096 32.3783 73.6822 32.1611C73.6167 32.0534 73.5223 31.966 73.4094 31.9087C73.2965 31.8514 73.1697 31.8265 73.0433 31.8368C72.7347 31.8869 72.5441 32.2008 72.2609 32.3323C72.1001 32.3961 71.9234 32.4098 71.7546 32.3714C71.5857 32.333 71.4327 32.2444 71.316 32.1175C71.2027 31.9879 71.1169 31.8369 71.0638 31.6736C71.0108 31.5104 70.9915 31.3382 71.0073 31.1673Z" fill="#2F2E41"/>
<path opacity="0.1" d="M76.371 51.3598L72.0996 59.8255H75.3033L76.371 51.3598Z" fill="black"/>
<path d="M105 100.83C105 100.852 104.995 100.874 104.987 100.895C104.978 100.916 104.965 100.934 104.949 100.95C104.933 100.966 104.914 100.979 104.893 100.987C104.873 100.996 104.85 101 104.828 101H23.2628C23.2172 101 23.1735 100.982 23.1412 100.95C23.1089 100.918 23.0908 100.875 23.0908 100.83C23.0908 100.784 23.1089 100.741 23.1412 100.709C23.1735 100.677 23.2172 100.659 23.2628 100.659H104.828C104.85 100.659 104.873 100.663 104.893 100.672C104.914 100.68 104.933 100.693 104.949 100.709C104.965 100.725 104.978 100.744 104.987 100.764C104.995 100.785 105 100.807 105 100.83Z" fill="#5B588F"/>
</svg>
