<svg width="160" height="96" viewBox="0 0 160 96" fill="none" xmlns="http://www.w3.org/2000/svg">
<path d="M38.8 16.146C38.8 16.3887 38.7113 16.594 38.534 16.762C38.3567 16.9207 38.1513 17 37.918 17C37.666 17 37.456 16.9207 37.288 16.762C37.1293 16.594 37.05 16.3887 37.05 16.146V8.054C37.05 7.81133 37.134 7.61067 37.302 7.452C37.47 7.284 37.6847 7.2 37.946 7.2C38.1793 7.2 38.38 7.284 38.548 7.452C38.716 7.61067 38.8 7.81133 38.8 8.054V16.146ZM47.3455 7.2C47.5975 7.2 47.8028 7.27467 47.9615 7.424C48.1201 7.57333 48.1995 7.76933 48.1995 8.012C48.1995 8.25467 48.1201 8.45067 47.9615 8.6C47.8028 8.74 47.5975 8.81 47.3455 8.81H45.1475V16.146C45.1475 16.3887 45.0588 16.594 44.8815 16.762C44.7041 16.9207 44.4848 17 44.2235 17C43.9621 17 43.7475 16.9207 43.5795 16.762C43.4115 16.594 43.3275 16.3887 43.3275 16.146V8.81H41.1295C40.8775 8.81 40.6721 8.73533 40.5135 8.586C40.3548 8.43667 40.2755 8.24067 40.2755 7.998C40.2755 7.76467 40.3548 7.57333 40.5135 7.424C40.6815 7.27467 40.8868 7.2 41.1295 7.2H47.3455ZM54.097 13.542C53.8543 13.542 53.649 13.4627 53.481 13.304C53.3223 13.1453 53.243 12.9447 53.243 12.702C53.243 12.4687 53.3223 12.2727 53.481 12.114C53.649 11.9553 53.8543 11.876 54.097 11.876H56.533C56.7756 11.876 56.9763 11.96 57.135 12.128C57.303 12.2867 57.387 12.4873 57.387 12.73C57.387 12.9633 57.303 13.1593 57.135 13.318C56.9763 13.4673 56.7756 13.542 56.533 13.542H54.097ZM70.7536 15.908C70.8002 16.0293 70.8236 16.1413 70.8236 16.244C70.8236 16.4867 70.7442 16.6873 70.5856 16.846C70.4269 16.9953 70.2449 17.07 70.0396 17.07C69.8716 17.07 69.7176 17.0187 69.5776 16.916C69.4469 16.8133 69.3442 16.6733 69.2696 16.496L68.5416 14.802H64.3696L63.6416 16.51C63.5762 16.6873 63.4736 16.8273 63.3336 16.93C63.2029 17.0233 63.0582 17.07 62.8996 17.07C62.6569 17.07 62.4702 17.0047 62.3396 16.874C62.2182 16.7433 62.1576 16.566 62.1576 16.342C62.1576 16.258 62.1716 16.1693 62.1996 16.076L65.6856 7.704C65.7602 7.51733 65.8722 7.37267 66.0216 7.27C66.1709 7.16733 66.3389 7.12533 66.5256 7.144C66.6936 7.144 66.8476 7.19533 66.9876 7.298C67.1369 7.39133 67.2442 7.52667 67.3096 7.704L70.7536 15.908ZM67.8556 13.192L66.4416 9.916L65.0556 13.192H67.8556ZM78.8006 7.676C79.09 7.82533 79.2346 8.06333 79.2346 8.39C79.2346 8.586 79.1646 8.77733 79.0246 8.964C78.8753 9.16 78.684 9.258 78.4506 9.258C78.292 9.258 78.1333 9.216 77.9746 9.132C77.5173 8.91733 77.0226 8.81 76.4906 8.81C75.8373 8.81 75.268 8.95 74.7826 9.23C74.2973 9.50067 73.924 9.888 73.6626 10.392C73.4013 10.8867 73.2706 11.456 73.2706 12.1C73.2706 13.2013 73.5646 14.0367 74.1526 14.606C74.75 15.1753 75.5293 15.46 76.4906 15.46C77.06 15.46 77.5546 15.3527 77.9746 15.138C78.1426 15.0633 78.292 15.026 78.4226 15.026C78.6653 15.026 78.8706 15.1287 79.0386 15.334C79.1786 15.5113 79.2486 15.7027 79.2486 15.908C79.2486 16.0573 79.2113 16.1927 79.1366 16.314C79.062 16.4353 78.9546 16.5287 78.8146 16.594C78.0866 16.958 77.312 17.14 76.4906 17.14C75.576 17.14 74.736 16.9487 73.9706 16.566C73.2053 16.174 72.594 15.6 72.1366 14.844C71.6793 14.088 71.4506 13.1733 71.4506 12.1C71.4506 11.148 71.6653 10.294 72.0946 9.538C72.5333 8.782 73.1353 8.194 73.9006 7.774C74.666 7.34467 75.5293 7.13 76.4906 7.13C77.3213 7.13 78.0913 7.312 78.8006 7.676ZM87.158 7.2C87.41 7.2 87.6153 7.27467 87.774 7.424C87.9326 7.57333 88.012 7.76933 88.012 8.012C88.012 8.25467 87.9326 8.45067 87.774 8.6C87.6153 8.74 87.41 8.81 87.158 8.81H84.96V16.146C84.96 16.3887 84.8713 16.594 84.694 16.762C84.5166 16.9207 84.2973 17 84.036 17C83.7746 17 83.56 16.9207 83.392 16.762C83.224 16.594 83.14 16.3887 83.14 16.146V8.81H80.942C80.69 8.81 80.4846 8.73533 80.326 8.586C80.1673 8.43667 80.088 8.24067 80.088 7.998C80.088 7.76467 80.1673 7.57333 80.326 7.424C80.494 7.27467 80.6993 7.2 80.942 7.2H87.158ZM98.6555 15.46C98.8795 15.46 99.0661 15.5347 99.2155 15.684C99.3648 15.8333 99.4395 16.02 99.4395 16.244C99.4395 16.4587 99.3648 16.6407 99.2155 16.79C99.0661 16.93 98.8795 17 98.6555 17H93.8955C93.6528 17 93.4615 16.9253 93.3215 16.776C93.1815 16.6267 93.1115 16.4353 93.1115 16.202C93.1115 15.9687 93.1955 15.7633 93.3635 15.586L96.4155 12.324C96.7608 11.9507 97.0315 11.5773 97.2275 11.204C97.4328 10.8213 97.5355 10.4713 97.5355 10.154C97.5355 9.734 97.3861 9.37 97.0875 9.062C96.7888 8.754 96.4435 8.6 96.0515 8.6C95.7808 8.6 95.5055 8.69333 95.2255 8.88C94.9548 9.05733 94.7075 9.29533 94.4835 9.594C94.3155 9.818 94.1008 9.93 93.8395 9.93C93.6341 9.93 93.4428 9.85067 93.2655 9.692C93.0975 9.53333 93.0135 9.356 93.0135 9.16C93.0135 9.02 93.0601 8.88 93.1535 8.74C93.2468 8.59067 93.3868 8.42267 93.5735 8.236C93.9281 7.88133 94.3388 7.59667 94.8055 7.382C95.2721 7.16733 95.7201 7.06 96.1495 7.06C96.7655 7.06 97.3068 7.19067 97.7735 7.452C98.2401 7.71333 98.5995 8.07267 98.8515 8.53C99.1035 8.98733 99.2295 9.50533 99.2295 10.084C99.2295 10.6533 99.0755 11.2413 98.7675 11.848C98.4688 12.4453 98.0628 13.0193 97.5495 13.57L95.7715 15.46H98.6555ZM104.159 17.14C103.375 17.14 102.699 16.93 102.129 16.51C101.569 16.09 101.145 15.502 100.855 14.746C100.566 13.9807 100.421 13.0987 100.421 12.1C100.421 11.1013 100.566 10.224 100.855 9.468C101.145 8.70267 101.569 8.11 102.129 7.69C102.699 7.27 103.375 7.06 104.159 7.06C104.943 7.06 105.615 7.27 106.175 7.69C106.745 8.11 107.174 8.70267 107.463 9.468C107.753 10.224 107.897 11.1013 107.897 12.1C107.897 13.0987 107.753 13.9807 107.463 14.746C107.174 15.502 106.745 16.09 106.175 16.51C105.615 16.93 104.943 17.14 104.159 17.14ZM104.159 15.46C104.757 15.46 105.223 15.1753 105.559 14.606C105.905 14.0367 106.077 13.2013 106.077 12.1C106.077 10.9987 105.905 10.1633 105.559 9.594C105.223 9.02467 104.757 8.74 104.159 8.74C103.562 8.74 103.091 9.02467 102.745 9.594C102.409 10.1633 102.241 10.9987 102.241 12.1C102.241 13.2013 102.409 14.0367 102.745 14.606C103.091 15.1753 103.562 15.46 104.159 15.46ZM112.759 17.14C111.975 17.14 111.298 16.93 110.729 16.51C110.169 16.09 109.744 15.502 109.455 14.746C109.166 13.9807 109.021 13.0987 109.021 12.1C109.021 11.1013 109.166 10.224 109.455 9.468C109.744 8.70267 110.169 8.11 110.729 7.69C111.298 7.27 111.975 7.06 112.759 7.06C113.543 7.06 114.215 7.27 114.775 7.69C115.344 8.11 115.774 8.70267 116.063 9.468C116.352 10.224 116.497 11.1013 116.497 12.1C116.497 13.0987 116.352 13.9807 116.063 14.746C115.774 15.502 115.344 16.09 114.775 16.51C114.215 16.93 113.543 17.14 112.759 17.14ZM112.759 15.46C113.356 15.46 113.823 15.1753 114.159 14.606C114.504 14.0367 114.677 13.2013 114.677 12.1C114.677 10.9987 114.504 10.1633 114.159 9.594C113.823 9.02467 113.356 8.74 112.759 8.74C112.162 8.74 111.69 9.02467 111.345 9.594C111.009 10.1633 110.841 10.9987 110.841 12.1C110.841 13.2013 111.009 14.0367 111.345 14.606C111.69 15.1753 112.162 15.46 112.759 15.46ZM123.053 11.89C123.491 12.1513 123.832 12.478 124.075 12.87C124.327 13.2527 124.453 13.654 124.453 14.074C124.453 14.606 124.303 15.096 124.005 15.544C123.715 15.992 123.319 16.3467 122.815 16.608C122.32 16.8693 121.774 17 121.177 17C120.579 17 120.029 16.8693 119.525 16.608C119.03 16.3467 118.633 15.992 118.335 15.544C118.045 15.096 117.901 14.606 117.901 14.074C117.901 13.178 118.353 12.45 119.259 11.89C118.932 11.7033 118.661 11.4513 118.447 11.134C118.241 10.8167 118.139 10.4433 118.139 10.014C118.139 9.50067 118.274 9.02933 118.545 8.6C118.815 8.17067 119.179 7.83 119.637 7.578C120.103 7.326 120.617 7.2 121.177 7.2C121.737 7.2 122.245 7.326 122.703 7.578C123.169 7.83 123.533 8.17067 123.795 8.6C124.065 9.02933 124.201 9.50067 124.201 10.014C124.201 10.4807 124.089 10.868 123.865 11.176C123.65 11.4747 123.379 11.7127 123.053 11.89ZM121.177 8.74C120.785 8.74 120.458 8.866 120.197 9.118C119.945 9.36067 119.819 9.66867 119.819 10.042C119.819 10.4247 119.945 10.742 120.197 10.994C120.458 11.2367 120.785 11.358 121.177 11.358C121.559 11.358 121.877 11.232 122.129 10.98C122.39 10.728 122.521 10.4153 122.521 10.042C122.521 9.66867 122.39 9.36067 122.129 9.118C121.877 8.866 121.559 8.74 121.177 8.74ZM121.177 15.46C121.625 15.46 122.003 15.3247 122.311 15.054C122.619 14.774 122.773 14.438 122.773 14.046C122.773 13.6447 122.619 13.3087 122.311 13.038C122.003 12.758 121.625 12.618 121.177 12.618C120.729 12.618 120.351 12.758 120.043 13.038C119.735 13.3087 119.581 13.6447 119.581 14.046C119.581 14.438 119.735 14.774 120.043 15.054C120.351 15.3247 120.729 15.46 121.177 15.46ZM128.329 16.888C128.329 17.1027 128.25 17.3733 128.091 17.7C127.932 18.0267 127.727 18.3113 127.475 18.554C127.223 18.7967 126.962 18.918 126.691 18.918C126.486 18.918 126.322 18.8713 126.201 18.778C126.08 18.694 126.019 18.554 126.019 18.358C126.019 18.2087 126.056 18.1013 126.131 18.036C126.206 17.98 126.285 17.938 126.369 17.91C126.462 17.882 126.528 17.8587 126.565 17.84C126.826 17.7 126.957 17.5133 126.957 17.28C126.957 17.1773 126.906 17.084 126.803 17C126.71 16.9253 126.584 16.888 126.425 16.888C126.266 16.888 126.136 16.9207 126.033 16.986C125.921 16.9393 125.832 16.8787 125.767 16.804C125.711 16.7293 125.683 16.6173 125.683 16.468C125.683 16.2813 125.753 16.1087 125.893 15.95C126.033 15.782 126.206 15.6513 126.411 15.558C126.616 15.4553 126.817 15.404 127.013 15.404C127.424 15.404 127.746 15.5347 127.979 15.796C128.212 16.048 128.329 16.412 128.329 16.888ZM139.37 15.46C139.594 15.46 139.781 15.5347 139.93 15.684C140.08 15.8333 140.154 16.02 140.154 16.244C140.154 16.4587 140.08 16.6407 139.93 16.79C139.781 16.93 139.594 17 139.37 17H134.61C134.368 17 134.176 16.9253 134.036 16.776C133.896 16.6267 133.826 16.4353 133.826 16.202C133.826 15.9687 133.91 15.7633 134.078 15.586L137.13 12.324C137.476 11.9507 137.746 11.5773 137.942 11.204C138.148 10.8213 138.25 10.4713 138.25 10.154C138.25 9.734 138.101 9.37 137.802 9.062C137.504 8.754 137.158 8.6 136.766 8.6C136.496 8.6 136.22 8.69333 135.94 8.88C135.67 9.05733 135.422 9.29533 135.198 9.594C135.03 9.818 134.816 9.93 134.554 9.93C134.349 9.93 134.158 9.85067 133.98 9.692C133.812 9.53333 133.728 9.356 133.728 9.16C133.728 9.02 133.775 8.88 133.868 8.74C133.962 8.59067 134.102 8.42267 134.288 8.236C134.643 7.88133 135.054 7.59667 135.52 7.382C135.987 7.16733 136.435 7.06 136.864 7.06C137.48 7.06 138.022 7.19067 138.488 7.452C138.955 7.71333 139.314 8.07267 139.566 8.53C139.818 8.98733 139.944 9.50533 139.944 10.084C139.944 10.6533 139.79 11.2413 139.482 11.848C139.184 12.4453 138.778 13.0193 138.264 13.57L136.486 15.46H139.37ZM144.874 17.14C144.09 17.14 143.414 16.93 142.844 16.51C142.284 16.09 141.86 15.502 141.57 14.746C141.281 13.9807 141.136 13.0987 141.136 12.1C141.136 11.1013 141.281 10.224 141.57 9.468C141.86 8.70267 142.284 8.11 142.844 7.69C143.414 7.27 144.09 7.06 144.874 7.06C145.658 7.06 146.33 7.27 146.89 7.69C147.46 8.11 147.889 8.70267 148.178 9.468C148.468 10.224 148.612 11.1013 148.612 12.1C148.612 13.0987 148.468 13.9807 148.178 14.746C147.889 15.502 147.46 16.09 146.89 16.51C146.33 16.93 145.658 17.14 144.874 17.14ZM144.874 15.46C145.472 15.46 145.938 15.1753 146.274 14.606C146.62 14.0367 146.792 13.2013 146.792 12.1C146.792 10.9987 146.62 10.1633 146.274 9.594C145.938 9.02467 145.472 8.74 144.874 8.74C144.277 8.74 143.806 9.02467 143.46 9.594C143.124 10.1633 142.956 10.9987 142.956 12.1C142.956 13.2013 143.124 14.0367 143.46 14.606C143.806 15.1753 144.277 15.46 144.874 15.46ZM152.396 7.2C152.629 7.2 152.825 7.284 152.984 7.452C153.142 7.61067 153.222 7.81133 153.222 8.054V16.146C153.222 16.3887 153.133 16.594 152.956 16.762C152.778 16.9207 152.559 17 152.298 17C152.036 17 151.822 16.9207 151.654 16.762C151.486 16.594 151.402 16.3887 151.402 16.146V9.51L150.534 10.042C150.394 10.126 150.244 10.168 150.086 10.168C149.852 10.168 149.652 10.0793 149.484 9.902C149.325 9.72467 149.246 9.52867 149.246 9.314C149.246 9.16467 149.283 9.02467 149.358 8.894C149.442 8.76333 149.549 8.66067 149.68 8.586L151.794 7.326C151.952 7.242 152.153 7.2 152.396 7.2ZM157.495 7.2C157.729 7.2 157.925 7.284 158.083 7.452C158.242 7.61067 158.321 7.81133 158.321 8.054V16.146C158.321 16.3887 158.233 16.594 158.055 16.762C157.878 16.9207 157.659 17 157.397 17C157.136 17 156.921 16.9207 156.753 16.762C156.585 16.594 156.501 16.3887 156.501 16.146V9.51L155.633 10.042C155.493 10.126 155.344 10.168 155.185 10.168C154.952 10.168 154.751 10.0793 154.583 9.902C154.425 9.72467 154.345 9.52867 154.345 9.314C154.345 9.16467 154.383 9.02467 154.457 8.894C154.541 8.76333 154.649 8.66067 154.779 8.586L156.893 7.326C157.052 7.242 157.253 7.2 157.495 7.2ZM44.736 39.628C44.8573 39.7027 44.9507 39.8007 45.016 39.922C45.0907 40.0433 45.128 40.1693 45.128 40.3C45.128 40.468 45.072 40.622 44.96 40.762C44.82 40.93 44.6053 41.014 44.316 41.014C44.092 41.014 43.8867 40.9627 43.7 40.86C43.028 40.4773 42.692 39.698 42.692 38.522C42.692 38.186 42.58 37.92 42.356 37.724C42.1413 37.528 41.8287 37.43 41.418 37.43H38.8V40.146C38.8 40.398 38.73 40.6033 38.59 40.762C38.4593 40.9207 38.282 41 38.058 41C37.7873 41 37.5493 40.9207 37.344 40.762C37.148 40.594 37.05 40.3887 37.05 40.146V32.054C37.05 31.8113 37.1293 31.6107 37.288 31.452C37.456 31.284 37.6613 31.2 37.904 31.2H41.936C42.4213 31.2 42.8787 31.3307 43.308 31.592C43.7373 31.8533 44.078 32.2127 44.33 32.67C44.5913 33.1273 44.722 33.6407 44.722 34.21C44.722 34.6767 44.596 35.134 44.344 35.582C44.092 36.0207 43.7653 36.3707 43.364 36.632C43.952 37.0427 44.274 37.5933 44.33 38.284C44.358 38.4333 44.372 38.578 44.372 38.718C44.4093 39.0073 44.4467 39.2173 44.484 39.348C44.5213 39.4693 44.6053 39.5627 44.736 39.628ZM41.866 35.988C42.034 35.988 42.1973 35.9087 42.356 35.75C42.5147 35.5913 42.6453 35.3813 42.748 35.12C42.8507 34.8493 42.902 34.56 42.902 34.252C42.902 33.9907 42.8507 33.7527 42.748 33.538C42.6453 33.314 42.5147 33.1367 42.356 33.006C42.1973 32.8753 42.034 32.81 41.866 32.81H38.8V35.988H41.866ZM52.5413 35.568C53.036 35.764 53.4373 36.0627 53.7453 36.464C54.0627 36.8653 54.2213 37.3833 54.2213 38.018C54.2213 39.1287 53.904 39.9033 53.2693 40.342C52.6347 40.7807 51.8787 41 51.0013 41H47.5153C47.2727 41 47.0673 40.9207 46.8993 40.762C46.7407 40.594 46.6613 40.3887 46.6613 40.146V32.054C46.6613 31.8113 46.7407 31.6107 46.8993 31.452C47.0673 31.284 47.2727 31.2 47.5153 31.2H51.0433C52.8167 31.2 53.7033 32.0307 53.7033 33.692C53.7033 34.112 53.6007 34.4853 53.3953 34.812C53.1993 35.1293 52.9147 35.3813 52.5413 35.568ZM51.8833 34C51.8833 33.6173 51.7853 33.3327 51.5893 33.146C51.4027 32.95 51.1367 32.852 50.7913 32.852H48.4813V35.036H50.8333C51.1133 35.036 51.356 34.9427 51.5613 34.756C51.776 34.5693 51.8833 34.3173 51.8833 34ZM51.0013 39.39C51.44 39.39 51.7807 39.2733 52.0233 39.04C52.2753 38.8067 52.4013 38.466 52.4013 38.018C52.4013 37.4673 52.2567 37.108 51.9673 36.94C51.678 36.772 51.3233 36.688 50.9033 36.688H48.4813V39.39H51.0013ZM57.5852 40.146C57.5852 40.3887 57.4965 40.594 57.3192 40.762C57.1418 40.9207 56.9365 41 56.7032 41C56.4512 41 56.2412 40.9207 56.0732 40.762C55.9145 40.594 55.8352 40.3887 55.8352 40.146V32.054C55.8352 31.8113 55.9192 31.6107 56.0872 31.452C56.2552 31.284 56.4698 31.2 56.7312 31.2C56.9645 31.2 57.1652 31.284 57.3332 31.452C57.5012 31.6107 57.5852 31.8113 57.5852 32.054V40.146ZM64.1185 37.542C63.8758 37.542 63.6705 37.4627 63.5025 37.304C63.3438 37.1453 63.2645 36.9447 63.2645 36.702C63.2645 36.4687 63.3438 36.2727 63.5025 36.114C63.6705 35.9553 63.8758 35.876 64.1185 35.876H66.5545C66.7971 35.876 66.9978 35.96 67.1565 36.128C67.3245 36.2867 67.4085 36.4873 67.4085 36.73C67.4085 36.9633 67.3245 37.1593 67.1565 37.318C66.9978 37.4673 66.7971 37.542 66.5545 37.542H64.1185ZM77.1351 31.2C77.6111 31.2 78.0637 31.3447 78.4931 31.634C78.9224 31.914 79.2677 32.2967 79.5291 32.782C79.7904 33.258 79.9211 33.7807 79.9211 34.35C79.9211 34.91 79.7904 35.4327 79.5291 35.918C79.2677 36.4033 78.9224 36.7907 78.4931 37.08C78.0637 37.36 77.6111 37.5 77.1351 37.5H74.6991V40.146C74.6991 40.398 74.6244 40.6033 74.4751 40.762C74.3257 40.9207 74.1297 41 73.8871 41C73.6537 41 73.4624 40.9207 73.3131 40.762C73.1637 40.594 73.0891 40.3887 73.0891 40.146V32.054C73.0891 31.8113 73.1684 31.6107 73.3271 31.452C73.4951 31.284 73.7004 31.2 73.9431 31.2H77.1351ZM77.1351 35.904C77.3124 35.904 77.4851 35.8293 77.6531 35.68C77.8304 35.5307 77.9704 35.3393 78.0731 35.106C78.1851 34.8633 78.2411 34.6113 78.2411 34.35C78.2411 34.0887 78.1851 33.8413 78.0731 33.608C77.9704 33.3653 77.8304 33.174 77.6531 33.034C77.4851 32.8847 77.3124 32.81 77.1351 32.81H74.6991V35.904H77.1351ZM87.3783 33.37C87.6209 33.37 87.8216 33.4493 87.9803 33.608C88.1389 33.7667 88.2183 33.972 88.2183 34.224V40.146C88.2183 40.3887 88.1389 40.594 87.9803 40.762C87.8216 40.9207 87.6209 41 87.3783 41C87.1356 41 86.9349 40.9207 86.7763 40.762C86.6269 40.6033 86.5476 40.4027 86.5383 40.16C86.3049 40.4307 85.9876 40.664 85.5863 40.86C85.1943 41.0467 84.7789 41.14 84.3403 41.14C83.6963 41.14 83.1129 40.9767 82.5903 40.65C82.0676 40.314 81.6523 39.852 81.3443 39.264C81.0456 38.676 80.8963 38.0087 80.8963 37.262C80.8963 36.5153 81.0456 35.848 81.3443 35.26C81.6429 34.6627 82.0489 34.2007 82.5623 33.874C83.0849 33.538 83.6589 33.37 84.2843 33.37C84.7323 33.37 85.1523 33.454 85.5443 33.622C85.9363 33.7807 86.2676 33.986 86.5383 34.238V34.224C86.5383 33.9813 86.6176 33.7807 86.7763 33.622C86.9349 33.454 87.1356 33.37 87.3783 33.37ZM84.5503 39.6C85.1569 39.6 85.6516 39.3807 86.0343 38.942C86.4169 38.494 86.6083 37.934 86.6083 37.262C86.6083 36.59 86.4169 36.03 86.0343 35.582C85.6516 35.134 85.1569 34.91 84.5503 34.91C83.9529 34.91 83.4629 35.134 83.0803 35.582C82.6976 36.03 82.5063 36.59 82.5063 37.262C82.5063 37.934 82.6929 38.494 83.0663 38.942C83.4489 39.3807 83.9436 39.6 84.5503 39.6ZM95.4328 33.51C95.6755 33.51 95.8762 33.594 96.0348 33.762C96.1935 33.9207 96.2728 34.1213 96.2728 34.364V40.314C96.2728 41.5273 95.9462 42.4093 95.2928 42.96C94.6395 43.52 93.7668 43.8 92.6748 43.8C92.3575 43.8 92.0308 43.772 91.6948 43.716C91.3682 43.6693 91.1022 43.604 90.8968 43.52C90.4395 43.324 90.2108 43.0533 90.2108 42.708C90.2108 42.6427 90.2248 42.568 90.2528 42.484C90.3088 42.2787 90.4022 42.12 90.5328 42.008C90.6728 41.9053 90.8222 41.854 90.9808 41.854C91.0742 41.854 91.1628 41.868 91.2468 41.896C91.3122 41.924 91.4242 41.9707 91.5828 42.036C91.7508 42.1013 91.9235 42.1527 92.1008 42.19C92.2875 42.2367 92.4788 42.26 92.6748 42.26C93.3375 42.26 93.8228 42.1153 94.1308 41.826C94.4482 41.546 94.6068 41.0607 94.6068 40.37V40.23C94.1215 40.8367 93.3655 41.14 92.3388 41.14C91.8535 41.14 91.4242 41.028 91.0508 40.804C90.6775 40.5707 90.3882 40.2533 90.1828 39.852C89.9775 39.4413 89.8748 38.9747 89.8748 38.452V34.364C89.8748 34.1213 89.9542 33.9207 90.1128 33.762C90.2715 33.594 90.4722 33.51 90.7148 33.51C90.9575 33.51 91.1582 33.594 91.3168 33.762C91.4755 33.9207 91.5548 34.1213 91.5548 34.364V37.948C91.5548 38.536 91.6808 38.9607 91.9328 39.222C92.1942 39.474 92.5722 39.6 93.0668 39.6C93.5522 39.6 93.9255 39.46 94.1868 39.18C94.4575 38.8907 94.5928 38.48 94.5928 37.948V34.364C94.5928 34.1213 94.6722 33.9207 94.8308 33.762C94.9895 33.594 95.1902 33.51 95.4328 33.51ZM106.73 33.37C107.654 33.37 108.293 33.6547 108.648 34.224C109.002 34.784 109.18 35.5633 109.18 36.562V40.146C109.18 40.3887 109.1 40.594 108.942 40.762C108.783 40.9207 108.582 41 108.34 41C108.097 41 107.896 40.9207 107.738 40.762C107.579 40.594 107.5 40.3887 107.5 40.146V36.562C107.5 36.0487 107.397 35.6473 107.192 35.358C106.996 35.0593 106.646 34.91 106.142 34.91C105.619 34.91 105.208 35.0687 104.91 35.386C104.62 35.694 104.476 36.086 104.476 36.562V40.146C104.476 40.3887 104.396 40.594 104.238 40.762C104.079 40.9207 103.878 41 103.636 41C103.393 41 103.192 40.9207 103.034 40.762C102.875 40.594 102.796 40.3887 102.796 40.146V36.562C102.796 36.0487 102.693 35.6473 102.488 35.358C102.292 35.0593 101.942 34.91 101.438 34.91C100.915 34.91 100.504 35.0687 100.206 35.386C99.9163 35.694 99.7716 36.086 99.7716 36.562V40.146C99.7716 40.3887 99.6923 40.594 99.5336 40.762C99.375 40.9207 99.1743 41 98.9316 41C98.689 41 98.4883 40.9207 98.3296 40.762C98.171 40.594 98.0916 40.3887 98.0916 40.146V34.364C98.0916 34.1213 98.171 33.9207 98.3296 33.762C98.4883 33.594 98.689 33.51 98.9316 33.51C99.1743 33.51 99.375 33.594 99.5336 33.762C99.6923 33.9207 99.7716 34.1213 99.7716 34.364V34.588C100.024 34.252 100.341 33.9673 100.724 33.734C101.116 33.4913 101.55 33.37 102.026 33.37C103.202 33.37 103.953 33.8833 104.28 34.91C104.494 34.518 104.816 34.1633 105.246 33.846C105.684 33.5287 106.179 33.37 106.73 33.37ZM117.718 37.08C117.709 37.304 117.62 37.486 117.452 37.626C117.284 37.766 117.088 37.836 116.864 37.836H112.244C112.356 38.3867 112.613 38.8207 113.014 39.138C113.415 39.446 113.868 39.6 114.372 39.6C114.755 39.6 115.053 39.5673 115.268 39.502C115.483 39.4273 115.651 39.3527 115.772 39.278C115.903 39.194 115.991 39.138 116.038 39.11C116.206 39.026 116.365 38.984 116.514 38.984C116.71 38.984 116.878 39.054 117.018 39.194C117.158 39.334 117.228 39.4973 117.228 39.684C117.228 39.936 117.097 40.1647 116.836 40.37C116.575 40.5847 116.225 40.7667 115.786 40.916C115.347 41.0653 114.904 41.14 114.456 41.14C113.672 41.14 112.986 40.9767 112.398 40.65C111.819 40.3233 111.371 39.8753 111.054 39.306C110.737 38.7273 110.578 38.0787 110.578 37.36C110.578 36.5573 110.746 35.8527 111.082 35.246C111.418 34.6393 111.861 34.1773 112.412 33.86C112.963 33.5333 113.551 33.37 114.176 33.37C114.792 33.37 115.371 33.538 115.912 33.874C116.463 34.21 116.901 34.6627 117.228 35.232C117.555 35.8013 117.718 36.4173 117.718 37.08ZM114.176 34.91C113.093 34.91 112.454 35.4187 112.258 36.436H115.926V36.338C115.889 35.946 115.697 35.61 115.352 35.33C115.007 35.05 114.615 34.91 114.176 34.91ZM123.123 33.37C124.075 33.37 124.733 33.6547 125.097 34.224C125.461 34.784 125.643 35.5633 125.643 36.562V40.146C125.643 40.3887 125.564 40.594 125.405 40.762C125.246 40.9207 125.046 41 124.803 41C124.56 41 124.36 40.9207 124.201 40.762C124.042 40.594 123.963 40.3887 123.963 40.146V36.562C123.963 36.0487 123.856 35.6473 123.641 35.358C123.426 35.0593 123.058 34.91 122.535 34.91C121.994 34.91 121.569 35.0687 121.261 35.386C120.953 35.694 120.799 36.086 120.799 36.562V40.146C120.799 40.3887 120.72 40.594 120.561 40.762C120.402 40.9207 120.202 41 119.959 41C119.716 41 119.516 40.9207 119.357 40.762C119.198 40.594 119.119 40.3887 119.119 40.146V34.364C119.119 34.1213 119.198 33.9207 119.357 33.762C119.516 33.594 119.716 33.51 119.959 33.51C120.202 33.51 120.402 33.594 120.561 33.762C120.72 33.9207 120.799 34.1213 120.799 34.364V34.602C121.051 34.266 121.378 33.9767 121.779 33.734C122.19 33.4913 122.638 33.37 123.123 33.37ZM131.071 39.418C131.201 39.418 131.318 39.4833 131.421 39.614C131.533 39.7353 131.589 39.8987 131.589 40.104C131.589 40.356 131.449 40.5707 131.169 40.748C130.898 40.916 130.59 41 130.245 41C129.666 41 129.176 40.8787 128.775 40.636C128.383 40.384 128.187 39.8567 128.187 39.054V35.19H127.543C127.319 35.19 127.132 35.1153 126.983 34.966C126.833 34.8167 126.759 34.63 126.759 34.406C126.759 34.1913 126.833 34.014 126.983 33.874C127.132 33.7247 127.319 33.65 127.543 33.65H128.187V32.754C128.187 32.5113 128.266 32.3107 128.425 32.152C128.593 31.984 128.798 31.9 129.041 31.9C129.274 31.9 129.47 31.984 129.629 32.152C129.787 32.3107 129.867 32.5113 129.867 32.754V33.65H130.861C131.085 33.65 131.271 33.7247 131.421 33.874C131.57 34.0233 131.645 34.21 131.645 34.434C131.645 34.6487 131.57 34.8307 131.421 34.98C131.271 35.12 131.085 35.19 130.861 35.19H129.867V38.984C129.867 39.18 129.918 39.3247 130.021 39.418C130.123 39.502 130.263 39.544 130.441 39.544C130.515 39.544 130.618 39.5253 130.749 39.488C130.861 39.4413 130.968 39.418 131.071 39.418ZM40.2 65.14C39.528 65.14 38.9307 65.056 38.408 64.888C37.8853 64.72 37.3953 64.4353 36.938 64.034C36.686 63.81 36.56 63.5627 36.56 63.292C36.56 63.0773 36.6393 62.8907 36.798 62.732C36.9567 62.564 37.148 62.48 37.372 62.48C37.5493 62.48 37.708 62.536 37.848 62.648C38.2213 62.956 38.5853 63.18 38.94 63.32C39.2947 63.46 39.7147 63.53 40.2 63.53C40.7227 63.53 41.1707 63.4133 41.544 63.18C41.9267 62.9467 42.118 62.6573 42.118 62.312C42.118 61.892 41.9313 61.5653 41.558 61.332C41.1847 61.0893 40.592 60.9073 39.78 60.786C37.736 60.4873 36.714 59.5353 36.714 57.93C36.714 57.342 36.868 56.8333 37.176 56.404C37.484 55.9653 37.904 55.634 38.436 55.41C38.968 55.1767 39.5607 55.06 40.214 55.06C40.802 55.06 41.3527 55.1487 41.866 55.326C42.3887 55.5033 42.8227 55.7367 43.168 56.026C43.4387 56.2407 43.574 56.488 43.574 56.768C43.574 56.9827 43.4947 57.174 43.336 57.342C43.1773 57.5007 42.9907 57.58 42.776 57.58C42.636 57.58 42.51 57.538 42.398 57.454C42.1553 57.258 41.8147 57.0807 41.376 56.922C40.9467 56.754 40.5593 56.67 40.214 56.67C39.626 56.67 39.1687 56.782 38.842 57.006C38.5247 57.2207 38.366 57.5053 38.366 57.86C38.366 58.2613 38.5293 58.5647 38.856 58.77C39.192 58.9753 39.7147 59.1433 40.424 59.274C41.2267 59.414 41.866 59.596 42.342 59.82C42.8273 60.0347 43.1913 60.3333 43.434 60.716C43.6767 61.0893 43.798 61.5887 43.798 62.214C43.798 62.802 43.63 63.32 43.294 63.768C42.9673 64.2067 42.5287 64.5473 41.978 64.79C41.4273 65.0233 40.8347 65.14 40.2 65.14ZM50.8215 57.51C51.0642 57.51 51.2648 57.594 51.4235 57.762C51.5822 57.9207 51.6615 58.1213 51.6615 58.364V64.314C51.6615 65.5273 51.3348 66.4093 50.6815 66.96C50.0282 67.52 49.1555 67.8 48.0635 67.8C47.7462 67.8 47.4195 67.772 47.0835 67.716C46.7568 67.6693 46.4908 67.604 46.2855 67.52C45.8282 67.324 45.5995 67.0533 45.5995 66.708C45.5995 66.6427 45.6135 66.568 45.6415 66.484C45.6975 66.2787 45.7908 66.12 45.9215 66.008C46.0615 65.9053 46.2108 65.854 46.3695 65.854C46.4628 65.854 46.5515 65.868 46.6355 65.896C46.7008 65.924 46.8128 65.9707 46.9715 66.036C47.1395 66.1013 47.3122 66.1527 47.4895 66.19C47.6762 66.2367 47.8675 66.26 48.0635 66.26C48.7262 66.26 49.2115 66.1153 49.5195 65.826C49.8368 65.546 49.9955 65.0607 49.9955 64.37V64.23C49.5102 64.8367 48.7542 65.14 47.7275 65.14C47.2422 65.14 46.8128 65.028 46.4395 64.804C46.0662 64.5707 45.7768 64.2533 45.5715 63.852C45.3662 63.4413 45.2635 62.9747 45.2635 62.452V58.364C45.2635 58.1213 45.3428 57.9207 45.5015 57.762C45.6602 57.594 45.8608 57.51 46.1035 57.51C46.3462 57.51 46.5468 57.594 46.7055 57.762C46.8642 57.9207 46.9435 58.1213 46.9435 58.364V61.948C46.9435 62.536 47.0695 62.9607 47.3215 63.222C47.5828 63.474 47.9608 63.6 48.4555 63.6C48.9408 63.6 49.3142 63.46 49.5755 63.18C49.8462 62.8907 49.9815 62.48 49.9815 61.948V58.364C49.9815 58.1213 50.0608 57.9207 50.2195 57.762C50.3782 57.594 50.5788 57.51 50.8215 57.51ZM52.9096 63.838C52.8256 63.726 52.7836 63.586 52.7836 63.418C52.7836 63.1753 52.9049 62.97 53.1476 62.802C53.2783 62.718 53.4136 62.676 53.5536 62.676C53.7496 62.676 53.9363 62.7647 54.1136 62.942C54.3936 63.2313 54.6829 63.446 54.9816 63.586C55.2896 63.726 55.6583 63.796 56.0876 63.796C56.8156 63.768 57.1796 63.4927 57.1796 62.97C57.1796 62.6993 57.0536 62.494 56.8016 62.354C56.5589 62.214 56.1763 62.074 55.6536 61.934C55.1123 61.7847 54.6689 61.6353 54.3236 61.486C53.9876 61.3367 53.6936 61.1127 53.4416 60.814C53.1989 60.506 53.0776 60.0953 53.0776 59.582C53.0776 59.134 53.2036 58.7467 53.4556 58.42C53.7169 58.084 54.0529 57.8273 54.4636 57.65C54.8836 57.4633 55.3269 57.37 55.7936 57.37C56.2696 57.37 56.7456 57.4587 57.2216 57.636C57.6976 57.8133 58.0709 58.0747 58.3416 58.42C58.4629 58.5693 58.5236 58.7373 58.5236 58.924C58.5236 59.1387 58.4349 59.316 58.2576 59.456C58.1269 59.5587 57.9776 59.61 57.8096 59.61C57.6043 59.61 57.4363 59.5447 57.3056 59.414C57.1376 59.2087 56.9183 59.0453 56.6476 58.924C56.3863 58.8027 56.0876 58.742 55.7516 58.742C55.0423 58.742 54.6876 58.9987 54.6876 59.512C54.6876 59.7173 54.7529 59.8853 54.8836 60.016C55.0143 60.1373 55.1776 60.2353 55.3736 60.31C55.5789 60.3753 55.8636 60.4593 56.2276 60.562C56.7316 60.702 57.1516 60.8467 57.4876 60.996C57.8236 61.1453 58.1083 61.374 58.3416 61.682C58.5749 61.99 58.6916 62.396 58.6916 62.9C58.6916 63.3573 58.5563 63.7587 58.2856 64.104C58.0149 64.44 57.6649 64.6967 57.2356 64.874C56.8156 65.0513 56.3816 65.14 55.9336 65.14C55.3176 65.14 54.7436 65.0373 54.2116 64.832C53.6796 64.6267 53.2456 64.2953 52.9096 63.838ZM63.7095 63.418C63.8402 63.418 63.9568 63.4833 64.0595 63.614C64.1715 63.7353 64.2275 63.8987 64.2275 64.104C64.2275 64.356 64.0875 64.5707 63.8075 64.748C63.5368 64.916 63.2288 65 62.8835 65C62.3048 65 61.8148 64.8787 61.4135 64.636C61.0215 64.384 60.8255 63.8567 60.8255 63.054V59.19H60.1815C59.9575 59.19 59.7708 59.1153 59.6215 58.966C59.4722 58.8167 59.3975 58.63 59.3975 58.406C59.3975 58.1913 59.4722 58.014 59.6215 57.874C59.7708 57.7247 59.9575 57.65 60.1815 57.65H60.8255V56.754C60.8255 56.5113 60.9048 56.3107 61.0635 56.152C61.2315 55.984 61.4368 55.9 61.6795 55.9C61.9128 55.9 62.1088 55.984 62.2675 56.152C62.4262 56.3107 62.5055 56.5113 62.5055 56.754V57.65H63.4995C63.7235 57.65 63.9102 57.7247 64.0595 57.874C64.2088 58.0233 64.2835 58.21 64.2835 58.434C64.2835 58.6487 64.2088 58.8307 64.0595 58.98C63.9102 59.12 63.7235 59.19 63.4995 59.19H62.5055V62.984C62.5055 63.18 62.5568 63.3247 62.6595 63.418C62.7622 63.502 62.9022 63.544 63.0795 63.544C63.1542 63.544 63.2568 63.5253 63.3875 63.488C63.4995 63.4413 63.6068 63.418 63.7095 63.418ZM72.4777 61.08C72.4683 61.304 72.3797 61.486 72.2117 61.626C72.0437 61.766 71.8477 61.836 71.6237 61.836H67.0037C67.1157 62.3867 67.3723 62.8207 67.7737 63.138C68.175 63.446 68.6277 63.6 69.1317 63.6C69.5143 63.6 69.813 63.5673 70.0277 63.502C70.2423 63.4273 70.4103 63.3527 70.5317 63.278C70.6623 63.194 70.751 63.138 70.7977 63.11C70.9657 63.026 71.1243 62.984 71.2737 62.984C71.4697 62.984 71.6377 63.054 71.7777 63.194C71.9177 63.334 71.9877 63.4973 71.9877 63.684C71.9877 63.936 71.857 64.1647 71.5957 64.37C71.3343 64.5847 70.9843 64.7667 70.5457 64.916C70.107 65.0653 69.6637 65.14 69.2157 65.14C68.4317 65.14 67.7457 64.9767 67.1577 64.65C66.579 64.3233 66.131 63.8753 65.8137 63.306C65.4963 62.7273 65.3377 62.0787 65.3377 61.36C65.3377 60.5573 65.5057 59.8527 65.8417 59.246C66.1777 58.6393 66.621 58.1773 67.1717 57.86C67.7223 57.5333 68.3103 57.37 68.9357 57.37C69.5517 57.37 70.1303 57.538 70.6717 57.874C71.2223 58.21 71.661 58.6627 71.9877 59.232C72.3143 59.8013 72.4777 60.4173 72.4777 61.08ZM68.9357 58.91C67.853 58.91 67.2137 59.4187 67.0177 60.436H70.6857V60.338C70.6483 59.946 70.457 59.61 70.1117 59.33C69.7663 59.05 69.3743 58.91 68.9357 58.91ZM82.5168 57.37C83.4408 57.37 84.0801 57.6547 84.4348 58.224C84.7894 58.784 84.9668 59.5633 84.9668 60.562V64.146C84.9668 64.3887 84.8874 64.594 84.7288 64.762C84.5701 64.9207 84.3694 65 84.1268 65C83.8841 65 83.6834 64.9207 83.5248 64.762C83.3661 64.594 83.2868 64.3887 83.2868 64.146V60.562C83.2868 60.0487 83.1841 59.6473 82.9788 59.358C82.7828 59.0593 82.4328 58.91 81.9288 58.91C81.4061 58.91 80.9954 59.0687 80.6968 59.386C80.4074 59.694 80.2628 60.086 80.2628 60.562V64.146C80.2628 64.3887 80.1834 64.594 80.0248 64.762C79.8661 64.9207 79.6654 65 79.4228 65C79.1801 65 78.9794 64.9207 78.8208 64.762C78.6621 64.594 78.5828 64.3887 78.5828 64.146V60.562C78.5828 60.0487 78.4801 59.6473 78.2748 59.358C78.0788 59.0593 77.7288 58.91 77.2248 58.91C76.7021 58.91 76.2914 59.0687 75.9928 59.386C75.7034 59.694 75.5588 60.086 75.5588 60.562V64.146C75.5588 64.3887 75.4794 64.594 75.3208 64.762C75.1621 64.9207 74.9614 65 74.7188 65C74.4761 65 74.2754 64.9207 74.1168 64.762C73.9581 64.594 73.8788 64.3887 73.8788 64.146V58.364C73.8788 58.1213 73.9581 57.9207 74.1168 57.762C74.2754 57.594 74.4761 57.51 74.7188 57.51C74.9614 57.51 75.1621 57.594 75.3208 57.762C75.4794 57.9207 75.5588 58.1213 75.5588 58.364V58.588C75.8108 58.252 76.1281 57.9673 76.5108 57.734C76.9028 57.4913 77.3368 57.37 77.8128 57.37C78.9888 57.37 79.7401 57.8833 80.0668 58.91C80.2814 58.518 80.6034 58.1633 81.0328 57.846C81.4714 57.5287 81.9661 57.37 82.5168 57.37ZM95.0488 55.2C95.9262 55.2 96.6775 55.4193 97.3028 55.858C97.9375 56.2873 98.4182 56.8753 98.7448 57.622C99.0808 58.3593 99.2488 59.1853 99.2488 60.1C99.2488 61.0147 99.0808 61.8453 98.7448 62.592C98.4182 63.3293 97.9375 63.9173 97.3028 64.356C96.6775 64.7853 95.9262 65 95.0488 65H91.7028C91.4602 65 91.2548 64.9207 91.0868 64.762C90.9282 64.594 90.8488 64.3887 90.8488 64.146V56.054C90.8488 55.8113 90.9282 55.6107 91.0868 55.452C91.2548 55.284 91.4602 55.2 91.7028 55.2H95.0488ZM94.9088 63.39C95.7488 63.39 96.3788 63.082 96.7988 62.466C97.2188 61.8407 97.4288 61.052 97.4288 60.1C97.4288 59.148 97.2142 58.364 96.7848 57.748C96.3648 57.1227 95.7395 56.81 94.9088 56.81H92.5988V63.39H94.9088ZM106.779 57.37C107.021 57.37 107.222 57.4493 107.381 57.608C107.539 57.7667 107.619 57.972 107.619 58.224V64.146C107.619 64.3887 107.539 64.594 107.381 64.762C107.222 64.9207 107.021 65 106.779 65C106.536 65 106.335 64.9207 106.177 64.762C106.027 64.6033 105.948 64.4027 105.939 64.16C105.705 64.4307 105.388 64.664 104.987 64.86C104.595 65.0467 104.179 65.14 103.741 65.14C103.097 65.14 102.513 64.9767 101.991 64.65C101.468 64.314 101.053 63.852 100.745 63.264C100.446 62.676 100.297 62.0087 100.297 61.262C100.297 60.5153 100.446 59.848 100.745 59.26C101.043 58.6627 101.449 58.2007 101.963 57.874C102.485 57.538 103.059 57.37 103.685 57.37C104.133 57.37 104.553 57.454 104.945 57.622C105.337 57.7807 105.668 57.986 105.939 58.238V58.224C105.939 57.9813 106.018 57.7807 106.177 57.622C106.335 57.454 106.536 57.37 106.779 57.37ZM103.951 63.6C104.557 63.6 105.052 63.3807 105.435 62.942C105.817 62.494 106.009 61.934 106.009 61.262C106.009 60.59 105.817 60.03 105.435 59.582C105.052 59.134 104.557 58.91 103.951 58.91C103.353 58.91 102.863 59.134 102.481 59.582C102.098 60.03 101.907 60.59 101.907 61.262C101.907 61.934 102.093 62.494 102.467 62.942C102.849 63.3807 103.344 63.6 103.951 63.6ZM113.051 63.418C113.182 63.418 113.299 63.4833 113.401 63.614C113.513 63.7353 113.569 63.8987 113.569 64.104C113.569 64.356 113.429 64.5707 113.149 64.748C112.879 64.916 112.571 65 112.225 65C111.647 65 111.157 64.8787 110.755 64.636C110.363 64.384 110.167 63.8567 110.167 63.054V59.19H109.523C109.299 59.19 109.113 59.1153 108.963 58.966C108.814 58.8167 108.739 58.63 108.739 58.406C108.739 58.1913 108.814 58.014 108.963 57.874C109.113 57.7247 109.299 57.65 109.523 57.65H110.167V56.754C110.167 56.5113 110.247 56.3107 110.405 56.152C110.573 55.984 110.779 55.9 111.021 55.9C111.255 55.9 111.451 55.984 111.609 56.152C111.768 56.3107 111.847 56.5113 111.847 56.754V57.65H112.841C113.065 57.65 113.252 57.7247 113.401 57.874C113.551 58.0233 113.625 58.21 113.625 58.434C113.625 58.6487 113.551 58.8307 113.401 58.98C113.252 59.12 113.065 59.19 112.841 59.19H111.847V62.984C111.847 63.18 111.899 63.3247 112.001 63.418C112.104 63.502 112.244 63.544 112.421 63.544C112.496 63.544 112.599 63.5253 112.729 63.488C112.841 63.4413 112.949 63.418 113.051 63.418ZM121.23 57.37C121.472 57.37 121.673 57.4493 121.832 57.608C121.99 57.7667 122.07 57.972 122.07 58.224V64.146C122.07 64.3887 121.99 64.594 121.832 64.762C121.673 64.9207 121.472 65 121.23 65C120.987 65 120.786 64.9207 120.628 64.762C120.478 64.6033 120.399 64.4027 120.39 64.16C120.156 64.4307 119.839 64.664 119.438 64.86C119.046 65.0467 118.63 65.14 118.192 65.14C117.548 65.14 116.964 64.9767 116.442 64.65C115.919 64.314 115.504 63.852 115.196 63.264C114.897 62.676 114.748 62.0087 114.748 61.262C114.748 60.5153 114.897 59.848 115.196 59.26C115.494 58.6627 115.9 58.2007 116.414 57.874C116.936 57.538 117.51 57.37 118.136 57.37C118.584 57.37 119.004 57.454 119.396 57.622C119.788 57.7807 120.119 57.986 120.39 58.238V58.224C120.39 57.9813 120.469 57.7807 120.628 57.622C120.786 57.454 120.987 57.37 121.23 57.37ZM118.402 63.6C119.008 63.6 119.503 63.3807 119.886 62.942C120.268 62.494 120.46 61.934 120.46 61.262C120.46 60.59 120.268 60.03 119.886 59.582C119.503 59.134 119.008 58.91 118.402 58.91C117.804 58.91 117.314 59.134 116.932 59.582C116.549 60.03 116.358 60.59 116.358 61.262C116.358 61.934 116.544 62.494 116.918 62.942C117.3 63.3807 117.795 63.6 118.402 63.6ZM41.25 79.2C42.1273 79.2 42.8787 79.4193 43.504 79.858C44.1387 80.2873 44.6193 80.8753 44.946 81.622C45.282 82.3593 45.45 83.1853 45.45 84.1C45.45 85.0147 45.282 85.8453 44.946 86.592C44.6193 87.3293 44.1387 87.9173 43.504 88.356C42.8787 88.7853 42.1273 89 41.25 89H37.904C37.6613 89 37.456 88.9207 37.288 88.762C37.1293 88.594 37.05 88.3887 37.05 88.146V80.054C37.05 79.8113 37.1293 79.6107 37.288 79.452C37.456 79.284 37.6613 79.2 37.904 79.2H41.25ZM41.11 87.39C41.95 87.39 42.58 87.082 43 86.466C43.42 85.8407 43.63 85.052 43.63 84.1C43.63 83.148 43.4153 82.364 42.986 81.748C42.566 81.1227 41.9407 80.81 41.11 80.81H38.8V87.39H41.11ZM52.9798 81.37C53.2225 81.37 53.4231 81.4493 53.5818 81.608C53.7405 81.7667 53.8198 81.972 53.8198 82.224V88.146C53.8198 88.3887 53.7405 88.594 53.5818 88.762C53.4231 88.9207 53.2225 89 52.9798 89C52.7371 89 52.5365 88.9207 52.3778 88.762C52.2285 88.6033 52.1491 88.4027 52.1398 88.16C51.9065 88.4307 51.5891 88.664 51.1878 88.86C50.7958 89.0467 50.3805 89.14 49.9418 89.14C49.2978 89.14 48.7145 88.9767 48.1918 88.65C47.6691 88.314 47.2538 87.852 46.9458 87.264C46.6471 86.676 46.4978 86.0087 46.4978 85.262C46.4978 84.5153 46.6471 83.848 46.9458 83.26C47.2445 82.6627 47.6505 82.2007 48.1638 81.874C48.6865 81.538 49.2605 81.37 49.8858 81.37C50.3338 81.37 50.7538 81.454 51.1458 81.622C51.5378 81.7807 51.8691 81.986 52.1398 82.238V82.224C52.1398 81.9813 52.2191 81.7807 52.3778 81.622C52.5365 81.454 52.7371 81.37 52.9798 81.37ZM50.1518 87.6C50.7585 87.6 51.2531 87.3807 51.6358 86.942C52.0185 86.494 52.2098 85.934 52.2098 85.262C52.2098 84.59 52.0185 84.03 51.6358 83.582C51.2531 83.134 50.7585 82.91 50.1518 82.91C49.5545 82.91 49.0645 83.134 48.6818 83.582C48.2991 84.03 48.1078 84.59 48.1078 85.262C48.1078 85.934 48.2945 86.494 48.6678 86.942C49.0505 87.3807 49.5451 87.6 50.1518 87.6ZM59.2525 87.418C59.3831 87.418 59.4998 87.4833 59.6025 87.614C59.7145 87.7353 59.7705 87.8987 59.7705 88.104C59.7705 88.356 59.6305 88.5707 59.3505 88.748C59.0798 88.916 58.7718 89 58.4265 89C57.8478 89 57.3578 88.8787 56.9565 88.636C56.5645 88.384 56.3685 87.8567 56.3685 87.054V83.19H55.7245C55.5005 83.19 55.3138 83.1153 55.1645 82.966C55.0151 82.8167 54.9405 82.63 54.9405 82.406C54.9405 82.1913 55.0151 82.014 55.1645 81.874C55.3138 81.7247 55.5005 81.65 55.7245 81.65H56.3685V80.754C56.3685 80.5113 56.4478 80.3107 56.6065 80.152C56.7745 79.984 56.9798 79.9 57.2225 79.9C57.4558 79.9 57.6518 79.984 57.8105 80.152C57.9691 80.3107 58.0485 80.5113 58.0485 80.754V81.65H59.0425C59.2665 81.65 59.4531 81.7247 59.6025 81.874C59.7518 82.0233 59.8265 82.21 59.8265 82.434C59.8265 82.6487 59.7518 82.8307 59.6025 82.98C59.4531 83.12 59.2665 83.19 59.0425 83.19H58.0485V86.984C58.0485 87.18 58.0998 87.3247 58.2025 87.418C58.3051 87.502 58.4451 87.544 58.6225 87.544C58.6971 87.544 58.7998 87.5253 58.9305 87.488C59.0425 87.4413 59.1498 87.418 59.2525 87.418ZM67.431 81.37C67.6737 81.37 67.8743 81.4493 68.033 81.608C68.1917 81.7667 68.271 81.972 68.271 82.224V88.146C68.271 88.3887 68.1917 88.594 68.033 88.762C67.8743 88.9207 67.6737 89 67.431 89C67.1883 89 66.9877 88.9207 66.829 88.762C66.6797 88.6033 66.6003 88.4027 66.591 88.16C66.3577 88.4307 66.0403 88.664 65.639 88.86C65.247 89.0467 64.8317 89.14 64.393 89.14C63.749 89.14 63.1657 88.9767 62.643 88.65C62.1203 88.314 61.705 87.852 61.397 87.264C61.0983 86.676 60.949 86.0087 60.949 85.262C60.949 84.5153 61.0983 83.848 61.397 83.26C61.6957 82.6627 62.1017 82.2007 62.615 81.874C63.1377 81.538 63.7117 81.37 64.337 81.37C64.785 81.37 65.205 81.454 65.597 81.622C65.989 81.7807 66.3203 81.986 66.591 82.238V82.224C66.591 81.9813 66.6703 81.7807 66.829 81.622C66.9877 81.454 67.1883 81.37 67.431 81.37ZM64.603 87.6C65.2097 87.6 65.7043 87.3807 66.087 86.942C66.4697 86.494 66.661 85.934 66.661 85.262C66.661 84.59 66.4697 84.03 66.087 83.582C65.7043 83.134 65.2097 82.91 64.603 82.91C64.0057 82.91 63.5157 83.134 63.133 83.582C62.7503 84.03 62.559 84.59 62.559 85.262C62.559 85.934 62.7457 86.494 63.119 86.942C63.5017 87.3807 63.9963 87.6 64.603 87.6ZM80.0355 83.568C80.5301 83.764 80.9315 84.0627 81.2395 84.464C81.5568 84.8653 81.7155 85.3833 81.7155 86.018C81.7155 87.1287 81.3981 87.9033 80.7635 88.342C80.1288 88.7807 79.3728 89 78.4955 89H75.0095C74.7668 89 74.5615 88.9207 74.3935 88.762C74.2348 88.594 74.1555 88.3887 74.1555 88.146V80.054C74.1555 79.8113 74.2348 79.6107 74.3935 79.452C74.5615 79.284 74.7668 79.2 75.0095 79.2H78.5375C80.3108 79.2 81.1975 80.0307 81.1975 81.692C81.1975 82.112 81.0948 82.4853 80.8895 82.812C80.6935 83.1293 80.4088 83.3813 80.0355 83.568ZM79.3775 82C79.3775 81.6173 79.2795 81.3327 79.0835 81.146C78.8968 80.95 78.6308 80.852 78.2855 80.852H75.9755V83.036H78.3275C78.6075 83.036 78.8501 82.9427 79.0555 82.756C79.2701 82.5693 79.3775 82.3173 79.3775 82ZM78.4955 87.39C78.9341 87.39 79.2748 87.2733 79.5175 87.04C79.7695 86.8067 79.8955 86.466 79.8955 86.018C79.8955 85.4673 79.7508 85.108 79.4615 84.94C79.1721 84.772 78.8175 84.688 78.3975 84.688H75.9755V87.39H78.4955ZM84.7713 88.146C84.7713 88.3887 84.692 88.594 84.5333 88.762C84.3746 88.9207 84.174 89 83.9313 89C83.6886 89 83.488 88.9207 83.3293 88.762C83.1706 88.594 83.0913 88.3887 83.0913 88.146V82.364C83.0913 82.1213 83.1706 81.9207 83.3293 81.762C83.488 81.594 83.6886 81.51 83.9313 81.51C84.174 81.51 84.3746 81.594 84.5333 81.762C84.692 81.9207 84.7713 82.1213 84.7713 82.364V88.146ZM83.9173 80.6C83.6 80.6 83.376 80.5487 83.2453 80.446C83.1146 80.3433 83.0493 80.1613 83.0493 79.9V79.634C83.0493 79.3727 83.1193 79.1907 83.2593 79.088C83.3993 78.9853 83.6233 78.934 83.9313 78.934C84.258 78.934 84.4866 78.9853 84.6173 79.088C84.748 79.1907 84.8133 79.3727 84.8133 79.634V79.9C84.8133 80.1707 84.7433 80.3573 84.6033 80.46C84.4726 80.5533 84.244 80.6 83.9173 80.6ZM88.3179 88.146C88.3179 88.3887 88.2339 88.594 88.0659 88.762C87.9072 88.9207 87.7066 89 87.4639 89C87.2306 89 87.0346 88.9207 86.8759 88.762C86.7172 88.594 86.6379 88.3887 86.6379 88.146V79.494C86.6379 79.2513 86.7172 79.0507 86.8759 78.892C87.0439 78.724 87.2492 78.64 87.4919 78.64C87.7252 78.64 87.9212 78.724 88.0799 78.892C88.2386 79.0507 88.3179 79.2513 88.3179 79.494V88.146ZM92.0913 88.146C92.0913 88.3887 92.0073 88.594 91.8393 88.762C91.6807 88.9207 91.48 89 91.2373 89C91.004 89 90.808 88.9207 90.6493 88.762C90.4907 88.594 90.4113 88.3887 90.4113 88.146V79.494C90.4113 79.2513 90.4907 79.0507 90.6493 78.892C90.8173 78.724 91.0227 78.64 91.2653 78.64C91.4987 78.64 91.6947 78.724 91.8533 78.892C92.012 79.0507 92.0913 79.2513 92.0913 79.494V88.146ZM103.359 87.46C103.583 87.46 103.769 87.5347 103.919 87.684C104.068 87.8333 104.143 88.02 104.143 88.244C104.143 88.4587 104.068 88.6407 103.919 88.79C103.769 88.93 103.583 89 103.359 89H98.5986C98.3559 89 98.1646 88.9253 98.0246 88.776C97.8846 88.6267 97.8146 88.4353 97.8146 88.202C97.8146 87.9687 97.8986 87.7633 98.0666 87.586L101.119 84.324C101.464 83.9507 101.735 83.5773 101.931 83.204C102.136 82.8213 102.239 82.4713 102.239 82.154C102.239 81.734 102.089 81.37 101.791 81.062C101.492 80.754 101.147 80.6 100.755 80.6C100.484 80.6 100.209 80.6933 99.9286 80.88C99.6579 81.0573 99.4106 81.2953 99.1866 81.594C99.0186 81.818 98.8039 81.93 98.5426 81.93C98.3373 81.93 98.1459 81.8507 97.9686 81.692C97.8006 81.5333 97.7166 81.356 97.7166 81.16C97.7166 81.02 97.7633 80.88 97.8566 80.74C97.9499 80.5907 98.0899 80.4227 98.2766 80.236C98.6313 79.8813 99.0419 79.5967 99.5086 79.382C99.9753 79.1673 100.423 79.06 100.853 79.06C101.469 79.06 102.01 79.1907 102.477 79.452C102.943 79.7133 103.303 80.0727 103.555 80.53C103.807 80.9873 103.933 81.5053 103.933 82.084C103.933 82.6533 103.779 83.2413 103.471 83.848C103.172 84.4453 102.766 85.0193 102.253 85.57L100.475 87.46H103.359ZM108.862 89.14C108.078 89.14 107.402 88.93 106.832 88.51C106.272 88.09 105.848 87.502 105.558 86.746C105.269 85.9807 105.124 85.0987 105.124 84.1C105.124 83.1013 105.269 82.224 105.558 81.468C105.848 80.7027 106.272 80.11 106.832 79.69C107.402 79.27 108.078 79.06 108.862 79.06C109.646 79.06 110.318 79.27 110.878 79.69C111.448 80.11 111.877 80.7027 112.166 81.468C112.456 82.224 112.6 83.1013 112.6 84.1C112.6 85.0987 112.456 85.9807 112.166 86.746C111.877 87.502 111.448 88.09 110.878 88.51C110.318 88.93 109.646 89.14 108.862 89.14ZM108.862 87.46C109.46 87.46 109.926 87.1753 110.262 86.606C110.608 86.0367 110.78 85.2013 110.78 84.1C110.78 82.9987 110.608 82.1633 110.262 81.594C109.926 81.0247 109.46 80.74 108.862 80.74C108.265 80.74 107.794 81.0247 107.448 81.594C107.112 82.1633 106.944 82.9987 106.944 84.1C106.944 85.2013 107.112 86.0367 107.448 86.606C107.794 87.1753 108.265 87.46 108.862 87.46ZM116.384 79.2C116.617 79.2 116.813 79.284 116.972 79.452C117.131 79.6107 117.21 79.8113 117.21 80.054V88.146C117.21 88.3887 117.121 88.594 116.944 88.762C116.767 88.9207 116.547 89 116.286 89C116.025 89 115.81 88.9207 115.642 88.762C115.474 88.594 115.39 88.3887 115.39 88.146V81.51L114.522 82.042C114.382 82.126 114.233 82.168 114.074 82.168C113.841 82.168 113.64 82.0793 113.472 81.902C113.313 81.7247 113.234 81.5287 113.234 81.314C113.234 81.1647 113.271 81.0247 113.346 80.894C113.43 80.7633 113.537 80.6607 113.668 80.586L115.782 79.326C115.941 79.242 116.141 79.2 116.384 79.2ZM122.086 79.018C122.73 79.018 123.304 79.2 123.808 79.564C124.312 79.9187 124.699 80.39 124.97 80.978C125.24 81.5567 125.376 82.1773 125.376 82.84C125.376 83.5213 125.254 84.2727 125.012 85.094C124.778 85.906 124.344 86.676 123.71 87.404C123.084 88.132 122.23 88.65 121.148 88.958C121.036 88.986 120.928 89 120.826 89C120.583 89 120.382 88.9393 120.224 88.818C120.065 88.6873 119.986 88.4867 119.986 88.216C119.986 88.0107 120.051 87.8333 120.182 87.684C120.322 87.5253 120.504 87.4133 120.728 87.348C121.316 87.18 121.857 86.8813 122.352 86.452C122.856 86.0227 123.224 85.5093 123.458 84.912C122.991 85.3133 122.459 85.514 121.862 85.514C121.376 85.514 120.896 85.3693 120.42 85.08C119.953 84.7813 119.57 84.3847 119.272 83.89C118.973 83.386 118.824 82.8447 118.824 82.266C118.824 81.678 118.968 81.1367 119.258 80.642C119.556 80.138 119.953 79.7413 120.448 79.452C120.942 79.1627 121.488 79.018 122.086 79.018ZM122.086 83.974C122.534 83.974 122.907 83.8107 123.206 83.484C123.514 83.1573 123.668 82.7513 123.668 82.266C123.668 81.7807 123.514 81.3747 123.206 81.048C122.907 80.7213 122.534 80.558 122.086 80.558C121.647 80.558 121.274 80.7213 120.966 81.048C120.658 81.3747 120.504 81.7807 120.504 82.266C120.504 82.7513 120.658 83.1573 120.966 83.484C121.274 83.8107 121.647 83.974 122.086 83.974Z" fill="#5B588F"/>
<path d="M12 38C18.6274 38 24 32.6274 24 26C24 19.3726 18.6274 14 12 14C5.37258 14 0 19.3726 0 26C0 32.6274 5.37258 38 12 38Z" fill="#F0F0F0"/>
<path d="M12 14C7.24242 14 3.13167 16.7687 1.19067 20.7826H22.8092C20.8682 16.7687 16.7574 14 12 14Z" fill="#FF9811"/>
<path d="M12 38C16.7574 38 20.8682 35.2314 22.8092 31.2174H1.19067C3.13167 35.2314 7.24242 38 12 38Z" fill="#6DA544"/>
<path d="M11.9999 30.1738C14.3051 30.1738 16.1738 28.3051 16.1738 25.9999C16.1738 23.6948 14.3051 21.826 11.9999 21.826C9.69476 21.826 7.82605 23.6948 7.82605 25.9999C7.82605 28.3051 9.69476 30.1738 11.9999 30.1738Z" fill="#0052B4"/>
<path d="M12 28.6087C13.4408 28.6087 14.6087 27.4408 14.6087 26C14.6087 24.5593 13.4408 23.3914 12 23.3914C10.5593 23.3914 9.39136 24.5593 9.39136 26C9.39136 27.4408 10.5593 28.6087 12 28.6087Z" fill="#F0F0F0"/>
<path d="M12 22.7809L12.8048 24.6061L14.7878 24.3904L13.6095 26L14.7878 27.6095L12.8048 27.3939L12 29.2191L11.1952 27.3939L9.21216 27.6095L10.3904 26L9.21216 24.3904L11.1952 24.6061L12 22.7809Z" fill="#0052B4"/>
</svg>
