<svg width="166" height="72" viewBox="0 0 166 72" fill="none" xmlns="http://www.w3.org/2000/svg">
<path d="M39.8 16.146C39.8 16.3887 39.7113 16.594 39.534 16.762C39.3567 16.9207 39.1513 17 38.918 17C38.666 17 38.456 16.9207 38.288 16.762C38.1293 16.594 38.05 16.3887 38.05 16.146V8.054C38.05 7.81133 38.134 7.61067 38.302 7.452C38.47 7.284 38.6847 7.2 38.946 7.2C39.1793 7.2 39.38 7.284 39.548 7.452C39.716 7.61067 39.8 7.81133 39.8 8.054V16.146ZM45.0555 17.14C44.3835 17.14 43.7861 17.056 43.2635 16.888C42.7408 16.72 42.2508 16.4353 41.7935 16.034C41.5415 15.81 41.4155 15.5627 41.4155 15.292C41.4155 15.0773 41.4948 14.8907 41.6535 14.732C41.8121 14.564 42.0035 14.48 42.2275 14.48C42.4048 14.48 42.5635 14.536 42.7035 14.648C43.0768 14.956 43.4408 15.18 43.7955 15.32C44.1501 15.46 44.5701 15.53 45.0555 15.53C45.5781 15.53 46.0261 15.4133 46.3995 15.18C46.7821 14.9467 46.9735 14.6573 46.9735 14.312C46.9735 13.892 46.7868 13.5653 46.4135 13.332C46.0401 13.0893 45.4475 12.9073 44.6355 12.786C42.5915 12.4873 41.5695 11.5353 41.5695 9.93C41.5695 9.342 41.7235 8.83333 42.0315 8.404C42.3395 7.96533 42.7595 7.634 43.2915 7.41C43.8235 7.17667 44.4161 7.06 45.0695 7.06C45.6575 7.06 46.2081 7.14867 46.7215 7.326C47.2441 7.50333 47.6781 7.73667 48.0235 8.026C48.2941 8.24067 48.4295 8.488 48.4295 8.768C48.4295 8.98267 48.3501 9.174 48.1915 9.342C48.0328 9.50067 47.8461 9.58 47.6315 9.58C47.4915 9.58 47.3655 9.538 47.2535 9.454C47.0108 9.258 46.6701 9.08067 46.2315 8.922C45.8021 8.754 45.4148 8.67 45.0695 8.67C44.4815 8.67 44.0241 8.782 43.6975 9.006C43.3801 9.22067 43.2215 9.50533 43.2215 9.86C43.2215 10.2613 43.3848 10.5647 43.7115 10.77C44.0475 10.9753 44.5701 11.1433 45.2795 11.274C46.0821 11.414 46.7215 11.596 47.1975 11.82C47.6828 12.0347 48.0468 12.3333 48.2895 12.716C48.5321 13.0893 48.6535 13.5887 48.6535 14.214C48.6535 14.802 48.4855 15.32 48.1495 15.768C47.8228 16.2067 47.3841 16.5473 46.8335 16.79C46.2828 17.0233 45.6901 17.14 45.0555 17.14ZM59.275 12.1C59.275 13.024 59.0697 13.8733 58.659 14.648C58.2483 15.4133 57.679 16.02 56.951 16.468C56.2323 16.916 55.4203 17.14 54.515 17.14C53.6097 17.14 52.793 16.916 52.065 16.468C51.3463 16.02 50.7817 15.4133 50.371 14.648C49.9697 13.8733 49.769 13.024 49.769 12.1C49.769 11.176 49.9697 10.3313 50.371 9.566C50.7817 8.79133 51.3463 8.18 52.065 7.732C52.793 7.284 53.6097 7.06 54.515 7.06C55.4203 7.06 56.2323 7.284 56.951 7.732C57.679 8.18 58.2483 8.79133 58.659 9.566C59.0697 10.3313 59.275 11.176 59.275 12.1ZM57.455 12.1C57.455 11.4747 57.329 10.91 57.077 10.406C56.825 9.89267 56.475 9.48667 56.027 9.188C55.579 8.88933 55.075 8.74 54.515 8.74C53.9457 8.74 53.437 8.88933 52.989 9.188C52.5503 9.47733 52.205 9.87867 51.953 10.392C51.7103 10.9053 51.589 11.4747 51.589 12.1C51.589 12.7253 51.7103 13.2947 51.953 13.808C52.205 14.3213 52.5503 14.7273 52.989 15.026C53.437 15.3153 53.9457 15.46 54.515 15.46C55.075 15.46 55.579 15.3107 56.027 15.012C56.475 14.7133 56.825 14.312 57.077 13.808C57.329 13.2947 57.455 12.7253 57.455 12.1ZM70.0559 15.46C70.2799 15.46 70.4665 15.5347 70.6159 15.684C70.7652 15.8333 70.8399 16.02 70.8399 16.244C70.8399 16.4587 70.7652 16.6407 70.6159 16.79C70.4665 16.93 70.2799 17 70.0559 17H65.2959C65.0532 17 64.8619 16.9253 64.7219 16.776C64.5819 16.6267 64.5119 16.4353 64.5119 16.202C64.5119 15.9687 64.5959 15.7633 64.7639 15.586L67.8159 12.324C68.1612 11.9507 68.4319 11.5773 68.6279 11.204C68.8332 10.8213 68.9359 10.4713 68.9359 10.154C68.9359 9.734 68.7865 9.37 68.4879 9.062C68.1892 8.754 67.8439 8.6 67.4519 8.6C67.1812 8.6 66.9059 8.69333 66.6259 8.88C66.3552 9.05733 66.1079 9.29533 65.8839 9.594C65.7159 9.818 65.5012 9.93 65.2399 9.93C65.0345 9.93 64.8432 9.85067 64.6659 9.692C64.4979 9.53333 64.4139 9.356 64.4139 9.16C64.4139 9.02 64.4605 8.88 64.5539 8.74C64.6472 8.59067 64.7872 8.42267 64.9739 8.236C65.3285 7.88133 65.7392 7.59667 66.2059 7.382C66.6725 7.16733 67.1205 7.06 67.5499 7.06C68.1659 7.06 68.7072 7.19067 69.1739 7.452C69.6405 7.71333 69.9999 8.07267 70.2519 8.53C70.5039 8.98733 70.6299 9.50533 70.6299 10.084C70.6299 10.6533 70.4759 11.2413 70.1679 11.848C69.8692 12.4453 69.4632 13.0193 68.9499 13.57L67.1719 15.46H70.0559ZM75.5597 17.14C74.7757 17.14 74.0991 16.93 73.5297 16.51C72.9697 16.09 72.5451 15.502 72.2557 14.746C71.9664 13.9807 71.8217 13.0987 71.8217 12.1C71.8217 11.1013 71.9664 10.224 72.2557 9.468C72.5451 8.70267 72.9697 8.11 73.5297 7.69C74.0991 7.27 74.7757 7.06 75.5597 7.06C76.3437 7.06 77.0157 7.27 77.5757 7.69C78.1451 8.11 78.5744 8.70267 78.8637 9.468C79.1531 10.224 79.2977 11.1013 79.2977 12.1C79.2977 13.0987 79.1531 13.9807 78.8637 14.746C78.5744 15.502 78.1451 16.09 77.5757 16.51C77.0157 16.93 76.3437 17.14 75.5597 17.14ZM75.5597 15.46C76.1571 15.46 76.6237 15.1753 76.9597 14.606C77.3051 14.0367 77.4777 13.2013 77.4777 12.1C77.4777 10.9987 77.3051 10.1633 76.9597 9.594C76.6237 9.02467 76.1571 8.74 75.5597 8.74C74.9624 8.74 74.4911 9.02467 74.1457 9.594C73.8097 10.1633 73.6417 10.9987 73.6417 12.1C73.6417 13.2013 73.8097 14.0367 74.1457 14.606C74.4911 15.1753 74.9624 15.46 75.5597 15.46ZM84.1593 17.14C83.3753 17.14 82.6987 16.93 82.1293 16.51C81.5693 16.09 81.1447 15.502 80.8553 14.746C80.566 13.9807 80.4213 13.0987 80.4213 12.1C80.4213 11.1013 80.566 10.224 80.8553 9.468C81.1447 8.70267 81.5693 8.11 82.1293 7.69C82.6987 7.27 83.3753 7.06 84.1593 7.06C84.9433 7.06 85.6153 7.27 86.1753 7.69C86.7447 8.11 87.174 8.70267 87.4633 9.468C87.7527 10.224 87.8973 11.1013 87.8973 12.1C87.8973 13.0987 87.7527 13.9807 87.4633 14.746C87.174 15.502 86.7447 16.09 86.1753 16.51C85.6153 16.93 84.9433 17.14 84.1593 17.14ZM84.1593 15.46C84.7567 15.46 85.2233 15.1753 85.5593 14.606C85.9047 14.0367 86.0773 13.2013 86.0773 12.1C86.0773 10.9987 85.9047 10.1633 85.5593 9.594C85.2233 9.02467 84.7567 8.74 84.1593 8.74C83.562 8.74 83.0907 9.02467 82.7453 9.594C82.4093 10.1633 82.2413 10.9987 82.2413 12.1C82.2413 13.2013 82.4093 14.0367 82.7453 14.606C83.0907 15.1753 83.562 15.46 84.1593 15.46ZM94.9569 7.2C95.1996 7.2 95.4096 7.27933 95.5869 7.438C95.7736 7.58733 95.8669 7.78333 95.8669 8.026C95.8669 8.14733 95.8389 8.27333 95.7829 8.404L92.1009 16.538C92.0356 16.706 91.9329 16.8367 91.7929 16.93C91.6529 17.0233 91.4989 17.07 91.3309 17.07C91.0976 17.07 90.8923 16.9907 90.7149 16.832C90.5469 16.6733 90.4629 16.482 90.4629 16.258C90.4629 16.1273 90.4909 16.0013 90.5469 15.88L93.8089 8.74H90.0849C89.8609 8.74 89.6743 8.66533 89.5249 8.516C89.3756 8.36667 89.3009 8.18 89.3009 7.956C89.3009 7.74133 89.3756 7.564 89.5249 7.424C89.6743 7.27467 89.8609 7.2 90.0849 7.2H94.9569ZM99.6516 7.2C99.885 7.2 100.081 7.284 100.24 7.452C100.398 7.61067 100.478 7.81133 100.478 8.054V16.146C100.478 16.3887 100.389 16.594 100.212 16.762C100.034 16.9207 99.815 17 99.5536 17C99.2923 17 99.0776 16.9207 98.9096 16.762C98.7416 16.594 98.6576 16.3887 98.6576 16.146V9.51L97.7896 10.042C97.6496 10.126 97.5003 10.168 97.3416 10.168C97.1083 10.168 96.9076 10.0793 96.7396 9.902C96.581 9.72467 96.5016 9.52867 96.5016 9.314C96.5016 9.16467 96.539 9.02467 96.6136 8.894C96.6976 8.76333 96.805 8.66067 96.9356 8.586L99.0496 7.326C99.2083 7.242 99.409 7.2 99.6516 7.2ZM39.8 40.146C39.8 40.3887 39.7113 40.594 39.534 40.762C39.3567 40.9207 39.1513 41 38.918 41C38.666 41 38.456 40.9207 38.288 40.762C38.1293 40.594 38.05 40.3887 38.05 40.146V32.054C38.05 31.8113 38.134 31.6107 38.302 31.452C38.47 31.284 38.6847 31.2 38.946 31.2C39.1793 31.2 39.38 31.284 39.548 31.452C39.716 31.6107 39.8 31.8113 39.8 32.054V40.146ZM45.0555 41.14C44.3835 41.14 43.7861 41.056 43.2635 40.888C42.7408 40.72 42.2508 40.4353 41.7935 40.034C41.5415 39.81 41.4155 39.5627 41.4155 39.292C41.4155 39.0773 41.4948 38.8907 41.6535 38.732C41.8121 38.564 42.0035 38.48 42.2275 38.48C42.4048 38.48 42.5635 38.536 42.7035 38.648C43.0768 38.956 43.4408 39.18 43.7955 39.32C44.1501 39.46 44.5701 39.53 45.0555 39.53C45.5781 39.53 46.0261 39.4133 46.3995 39.18C46.7821 38.9467 46.9735 38.6573 46.9735 38.312C46.9735 37.892 46.7868 37.5653 46.4135 37.332C46.0401 37.0893 45.4475 36.9073 44.6355 36.786C42.5915 36.4873 41.5695 35.5353 41.5695 33.93C41.5695 33.342 41.7235 32.8333 42.0315 32.404C42.3395 31.9653 42.7595 31.634 43.2915 31.41C43.8235 31.1767 44.4161 31.06 45.0695 31.06C45.6575 31.06 46.2081 31.1487 46.7215 31.326C47.2441 31.5033 47.6781 31.7367 48.0235 32.026C48.2941 32.2407 48.4295 32.488 48.4295 32.768C48.4295 32.9827 48.3501 33.174 48.1915 33.342C48.0328 33.5007 47.8461 33.58 47.6315 33.58C47.4915 33.58 47.3655 33.538 47.2535 33.454C47.0108 33.258 46.6701 33.0807 46.2315 32.922C45.8021 32.754 45.4148 32.67 45.0695 32.67C44.4815 32.67 44.0241 32.782 43.6975 33.006C43.3801 33.2207 43.2215 33.5053 43.2215 33.86C43.2215 34.2613 43.3848 34.5647 43.7115 34.77C44.0475 34.9753 44.5701 35.1433 45.2795 35.274C46.0821 35.414 46.7215 35.596 47.1975 35.82C47.6828 36.0347 48.0468 36.3333 48.2895 36.716C48.5321 37.0893 48.6535 37.5887 48.6535 38.214C48.6535 38.802 48.4855 39.32 48.1495 39.768C47.8228 40.2067 47.3841 40.5473 46.8335 40.79C46.2828 41.0233 45.6901 41.14 45.0555 41.14ZM59.275 36.1C59.275 37.024 59.0697 37.8733 58.659 38.648C58.2483 39.4133 57.679 40.02 56.951 40.468C56.2323 40.916 55.4203 41.14 54.515 41.14C53.6097 41.14 52.793 40.916 52.065 40.468C51.3463 40.02 50.7817 39.4133 50.371 38.648C49.9697 37.8733 49.769 37.024 49.769 36.1C49.769 35.176 49.9697 34.3313 50.371 33.566C50.7817 32.7913 51.3463 32.18 52.065 31.732C52.793 31.284 53.6097 31.06 54.515 31.06C55.4203 31.06 56.2323 31.284 56.951 31.732C57.679 32.18 58.2483 32.7913 58.659 33.566C59.0697 34.3313 59.275 35.176 59.275 36.1ZM57.455 36.1C57.455 35.4747 57.329 34.91 57.077 34.406C56.825 33.8927 56.475 33.4867 56.027 33.188C55.579 32.8893 55.075 32.74 54.515 32.74C53.9457 32.74 53.437 32.8893 52.989 33.188C52.5503 33.4773 52.205 33.8787 51.953 34.392C51.7103 34.9053 51.589 35.4747 51.589 36.1C51.589 36.7253 51.7103 37.2947 51.953 37.808C52.205 38.3213 52.5503 38.7273 52.989 39.026C53.437 39.3153 53.9457 39.46 54.515 39.46C55.075 39.46 55.579 39.3107 56.027 39.012C56.475 38.7133 56.825 38.312 57.077 37.808C57.329 37.2947 57.455 36.7253 57.455 36.1ZM70.0559 39.46C70.2799 39.46 70.4665 39.5347 70.6159 39.684C70.7652 39.8333 70.8399 40.02 70.8399 40.244C70.8399 40.4587 70.7652 40.6407 70.6159 40.79C70.4665 40.93 70.2799 41 70.0559 41H65.2959C65.0532 41 64.8619 40.9253 64.7219 40.776C64.5819 40.6267 64.5119 40.4353 64.5119 40.202C64.5119 39.9687 64.5959 39.7633 64.7639 39.586L67.8159 36.324C68.1612 35.9507 68.4319 35.5773 68.6279 35.204C68.8332 34.8213 68.9359 34.4713 68.9359 34.154C68.9359 33.734 68.7865 33.37 68.4879 33.062C68.1892 32.754 67.8439 32.6 67.4519 32.6C67.1812 32.6 66.9059 32.6933 66.6259 32.88C66.3552 33.0573 66.1079 33.2953 65.8839 33.594C65.7159 33.818 65.5012 33.93 65.2399 33.93C65.0345 33.93 64.8432 33.8507 64.6659 33.692C64.4979 33.5333 64.4139 33.356 64.4139 33.16C64.4139 33.02 64.4605 32.88 64.5539 32.74C64.6472 32.5907 64.7872 32.4227 64.9739 32.236C65.3285 31.8813 65.7392 31.5967 66.2059 31.382C66.6725 31.1673 67.1205 31.06 67.5499 31.06C68.1659 31.06 68.7072 31.1907 69.1739 31.452C69.6405 31.7133 69.9999 32.0727 70.2519 32.53C70.5039 32.9873 70.6299 33.5053 70.6299 34.084C70.6299 34.6533 70.4759 35.2413 70.1679 35.848C69.8692 36.4453 69.4632 37.0193 68.9499 37.57L67.1719 39.46H70.0559ZM75.5597 41.14C74.7757 41.14 74.0991 40.93 73.5297 40.51C72.9697 40.09 72.5451 39.502 72.2557 38.746C71.9664 37.9807 71.8217 37.0987 71.8217 36.1C71.8217 35.1013 71.9664 34.224 72.2557 33.468C72.5451 32.7027 72.9697 32.11 73.5297 31.69C74.0991 31.27 74.7757 31.06 75.5597 31.06C76.3437 31.06 77.0157 31.27 77.5757 31.69C78.1451 32.11 78.5744 32.7027 78.8637 33.468C79.1531 34.224 79.2977 35.1013 79.2977 36.1C79.2977 37.0987 79.1531 37.9807 78.8637 38.746C78.5744 39.502 78.1451 40.09 77.5757 40.51C77.0157 40.93 76.3437 41.14 75.5597 41.14ZM75.5597 39.46C76.1571 39.46 76.6237 39.1753 76.9597 38.606C77.3051 38.0367 77.4777 37.2013 77.4777 36.1C77.4777 34.9987 77.3051 34.1633 76.9597 33.594C76.6237 33.0247 76.1571 32.74 75.5597 32.74C74.9624 32.74 74.4911 33.0247 74.1457 33.594C73.8097 34.1633 73.6417 34.9987 73.6417 36.1C73.6417 37.2013 73.8097 38.0367 74.1457 38.606C74.4911 39.1753 74.9624 39.46 75.5597 39.46ZM84.1593 41.14C83.3753 41.14 82.6987 40.93 82.1293 40.51C81.5693 40.09 81.1447 39.502 80.8553 38.746C80.566 37.9807 80.4213 37.0987 80.4213 36.1C80.4213 35.1013 80.566 34.224 80.8553 33.468C81.1447 32.7027 81.5693 32.11 82.1293 31.69C82.6987 31.27 83.3753 31.06 84.1593 31.06C84.9433 31.06 85.6153 31.27 86.1753 31.69C86.7447 32.11 87.174 32.7027 87.4633 33.468C87.7527 34.224 87.8973 35.1013 87.8973 36.1C87.8973 37.0987 87.7527 37.9807 87.4633 38.746C87.174 39.502 86.7447 40.09 86.1753 40.51C85.6153 40.93 84.9433 41.14 84.1593 41.14ZM84.1593 39.46C84.7567 39.46 85.2233 39.1753 85.5593 38.606C85.9047 38.0367 86.0773 37.2013 86.0773 36.1C86.0773 34.9987 85.9047 34.1633 85.5593 33.594C85.2233 33.0247 84.7567 32.74 84.1593 32.74C83.562 32.74 83.0907 33.0247 82.7453 33.594C82.4093 34.1633 82.2413 34.9987 82.2413 36.1C82.2413 37.2013 82.4093 38.0367 82.7453 38.606C83.0907 39.1753 83.562 39.46 84.1593 39.46ZM94.4529 35.89C94.8916 36.1513 95.2323 36.478 95.4749 36.87C95.7269 37.2527 95.8529 37.654 95.8529 38.074C95.8529 38.606 95.7036 39.096 95.4049 39.544C95.1156 39.992 94.7189 40.3467 94.2149 40.608C93.7203 40.8693 93.1743 41 92.5769 41C91.9796 41 91.4289 40.8693 90.9249 40.608C90.4303 40.3467 90.0336 39.992 89.7349 39.544C89.4456 39.096 89.3009 38.606 89.3009 38.074C89.3009 37.178 89.7536 36.45 90.6589 35.89C90.3323 35.7033 90.0616 35.4513 89.8469 35.134C89.6416 34.8167 89.5389 34.4433 89.5389 34.014C89.5389 33.5007 89.6743 33.0293 89.9449 32.6C90.2156 32.1707 90.5796 31.83 91.0369 31.578C91.5036 31.326 92.0169 31.2 92.5769 31.2C93.1369 31.2 93.6456 31.326 94.1029 31.578C94.5696 31.83 94.9336 32.1707 95.1949 32.6C95.4656 33.0293 95.6009 33.5007 95.6009 34.014C95.6009 34.4807 95.4889 34.868 95.2649 35.176C95.0503 35.4747 94.7796 35.7127 94.4529 35.89ZM92.5769 32.74C92.1849 32.74 91.8583 32.866 91.5969 33.118C91.3449 33.3607 91.2189 33.6687 91.2189 34.042C91.2189 34.4247 91.3449 34.742 91.5969 34.994C91.8583 35.2367 92.1849 35.358 92.5769 35.358C92.9596 35.358 93.2769 35.232 93.5289 34.98C93.7903 34.728 93.9209 34.4153 93.9209 34.042C93.9209 33.6687 93.7903 33.3607 93.5289 33.118C93.2769 32.866 92.9596 32.74 92.5769 32.74ZM92.5769 39.46C93.0249 39.46 93.4029 39.3247 93.7109 39.054C94.0189 38.774 94.1729 38.438 94.1729 38.046C94.1729 37.6447 94.0189 37.3087 93.7109 37.038C93.4029 36.758 93.0249 36.618 92.5769 36.618C92.1289 36.618 91.7509 36.758 91.4429 37.038C91.1349 37.3087 90.9809 37.6447 90.9809 38.046C90.9809 38.438 91.1349 38.774 91.4429 39.054C91.7509 39.3247 92.1289 39.46 92.5769 39.46ZM99.9114 31.2C100.145 31.2 100.341 31.284 100.499 31.452C100.658 31.6107 100.737 31.8113 100.737 32.054V40.146C100.737 40.3887 100.649 40.594 100.471 40.762C100.294 40.9207 100.075 41 99.8134 41C99.5521 41 99.3374 40.9207 99.1694 40.762C99.0014 40.594 98.9174 40.3887 98.9174 40.146V33.51L98.0494 34.042C97.9094 34.126 97.7601 34.168 97.6014 34.168C97.3681 34.168 97.1674 34.0793 96.9994 33.902C96.8407 33.7247 96.7614 33.5287 96.7614 33.314C96.7614 33.1647 96.7987 33.0247 96.8734 32.894C96.9574 32.7633 97.0647 32.6607 97.1954 32.586L99.3094 31.326C99.4681 31.242 99.6687 31.2 99.9114 31.2ZM45.148 55.2C45.4093 55.2 45.6193 55.2793 45.778 55.438C45.9367 55.5967 46.016 55.802 46.016 56.054V64.146C46.016 64.3887 45.932 64.594 45.764 64.762C45.596 64.9207 45.3813 65 45.12 65C44.8867 65 44.686 64.9207 44.518 64.762C44.35 64.594 44.266 64.3887 44.266 64.146V60.884H39.8V64.146C39.8 64.3887 39.7113 64.594 39.534 64.762C39.3567 64.9207 39.1513 65 38.918 65C38.666 65 38.456 64.9207 38.288 64.762C38.1293 64.594 38.05 64.3887 38.05 64.146V56.054C38.05 55.8113 38.134 55.6107 38.302 55.452C38.47 55.284 38.6847 55.2 38.946 55.2C39.1793 55.2 39.38 55.284 39.548 55.452C39.716 55.6107 39.8 55.8113 39.8 56.054V59.274H44.266V56.054C44.266 55.8113 44.3547 55.6107 44.532 55.452C44.7093 55.284 44.9147 55.2 45.148 55.2ZM49.8625 64.146C49.8625 64.3887 49.7738 64.594 49.5965 64.762C49.4192 64.9207 49.2138 65 48.9805 65C48.7285 65 48.5185 64.9207 48.3505 64.762C48.1918 64.594 48.1125 64.3887 48.1125 64.146V56.054C48.1125 55.8113 48.1965 55.6107 48.3645 55.452C48.5325 55.284 48.7472 55.2 49.0085 55.2C49.2418 55.2 49.4425 55.284 49.6105 55.452C49.7785 55.6107 49.8625 55.8113 49.8625 56.054V64.146ZM56.014 55.2C56.49 55.2 56.9426 55.3447 57.372 55.634C57.8013 55.914 58.1466 56.2967 58.408 56.782C58.6693 57.258 58.8 57.7807 58.8 58.35C58.8 58.91 58.6693 59.4327 58.408 59.918C58.1466 60.4033 57.8013 60.7907 57.372 61.08C56.9426 61.36 56.49 61.5 56.014 61.5H53.578V64.146C53.578 64.398 53.5033 64.6033 53.354 64.762C53.2046 64.9207 53.0086 65 52.766 65C52.5326 65 52.3413 64.9207 52.192 64.762C52.0426 64.594 51.968 64.3887 51.968 64.146V56.054C51.968 55.8113 52.0473 55.6107 52.206 55.452C52.374 55.284 52.5793 55.2 52.822 55.2H56.014ZM56.014 59.904C56.1913 59.904 56.364 59.8293 56.532 59.68C56.7093 59.5307 56.8493 59.3393 56.952 59.106C57.064 58.8633 57.12 58.6113 57.12 58.35C57.12 58.0887 57.064 57.8413 56.952 57.608C56.8493 57.3653 56.7093 57.174 56.532 57.034C56.364 56.8847 56.1913 56.81 56.014 56.81H53.578V59.904H56.014ZM67.529 63.908C67.5756 64.0293 67.599 64.1413 67.599 64.244C67.599 64.4867 67.5196 64.6873 67.361 64.846C67.2023 64.9953 67.0203 65.07 66.815 65.07C66.647 65.07 66.493 65.0187 66.353 64.916C66.2223 64.8133 66.1196 64.6733 66.045 64.496L65.317 62.802H61.145L60.417 64.51C60.3516 64.6873 60.249 64.8273 60.109 64.93C59.9783 65.0233 59.8336 65.07 59.675 65.07C59.4323 65.07 59.2456 65.0047 59.115 64.874C58.9936 64.7433 58.933 64.566 58.933 64.342C58.933 64.258 58.947 64.1693 58.975 64.076L62.461 55.704C62.5356 55.5173 62.6476 55.3727 62.797 55.27C62.9463 55.1673 63.1143 55.1253 63.301 55.144C63.469 55.144 63.623 55.1953 63.763 55.298C63.9123 55.3913 64.0196 55.5267 64.085 55.704L67.529 63.908ZM64.631 61.192L63.217 57.916L61.831 61.192H64.631ZM76.4704 63.908C76.517 64.0293 76.5404 64.1413 76.5404 64.244C76.5404 64.4867 76.461 64.6873 76.3024 64.846C76.1437 64.9953 75.9617 65.07 75.7564 65.07C75.5884 65.07 75.4344 65.0187 75.2944 64.916C75.1637 64.8133 75.061 64.6733 74.9864 64.496L74.2584 62.802H70.0864L69.3584 64.51C69.293 64.6873 69.1904 64.8273 69.0504 64.93C68.9197 65.0233 68.775 65.07 68.6164 65.07C68.3737 65.07 68.187 65.0047 68.0564 64.874C67.935 64.7433 67.8744 64.566 67.8744 64.342C67.8744 64.258 67.8884 64.1693 67.9164 64.076L71.4024 55.704C71.477 55.5173 71.589 55.3727 71.7384 55.27C71.8877 55.1673 72.0557 55.1253 72.2424 55.144C72.4104 55.144 72.5644 55.1953 72.7044 55.298C72.8537 55.3913 72.961 55.5267 73.0264 55.704L76.4704 63.908ZM73.5724 61.192L72.1584 57.916L70.7724 61.192H73.5724Z" fill="#5B588F"/>
<path d="M119.096 7.2C119.572 7.2 120.025 7.34467 120.454 7.634C120.883 7.914 121.229 8.29667 121.49 8.782C121.751 9.258 121.882 9.78067 121.882 10.35C121.882 10.91 121.751 11.4327 121.49 11.918C121.229 12.4033 120.883 12.7907 120.454 13.08C120.025 13.36 119.572 13.5 119.096 13.5H116.66V16.146C116.66 16.398 116.585 16.6033 116.436 16.762C116.287 16.9207 116.091 17 115.848 17C115.615 17 115.423 16.9207 115.274 16.762C115.125 16.594 115.05 16.3887 115.05 16.146V8.054C115.05 7.81133 115.129 7.61067 115.288 7.452C115.456 7.284 115.661 7.2 115.904 7.2H119.096ZM119.096 11.904C119.273 11.904 119.446 11.8293 119.614 11.68C119.791 11.5307 119.931 11.3393 120.034 11.106C120.146 10.8633 120.202 10.6113 120.202 10.35C120.202 10.0887 120.146 9.84133 120.034 9.608C119.931 9.36533 119.791 9.174 119.614 9.034C119.446 8.88467 119.273 8.81 119.096 8.81H116.66V11.904H119.096ZM130.346 7.676C130.635 7.82533 130.78 8.06333 130.78 8.39C130.78 8.586 130.71 8.77733 130.57 8.964C130.42 9.16 130.229 9.258 129.996 9.258C129.837 9.258 129.678 9.216 129.52 9.132C129.062 8.91733 128.568 8.81 128.036 8.81C127.382 8.81 126.813 8.95 126.328 9.23C125.842 9.50067 125.469 9.888 125.208 10.392C124.946 10.8867 124.816 11.456 124.816 12.1C124.816 13.2013 125.11 14.0367 125.698 14.606C126.295 15.1753 127.074 15.46 128.036 15.46C128.605 15.46 129.1 15.3527 129.52 15.138C129.688 15.0633 129.837 15.026 129.968 15.026C130.21 15.026 130.416 15.1287 130.584 15.334C130.724 15.5113 130.794 15.7027 130.794 15.908C130.794 16.0573 130.756 16.1927 130.682 16.314C130.607 16.4353 130.5 16.5287 130.36 16.594C129.632 16.958 128.857 17.14 128.036 17.14C127.121 17.14 126.281 16.9487 125.516 16.566C124.75 16.174 124.139 15.6 123.682 14.844C123.224 14.088 122.996 13.1733 122.996 12.1C122.996 11.148 123.21 10.294 123.64 9.538C124.078 8.782 124.68 8.194 125.446 7.774C126.211 7.34467 127.074 7.13 128.036 7.13C128.866 7.13 129.636 7.312 130.346 7.676ZM134.013 16.146C134.013 16.3887 133.924 16.594 133.747 16.762C133.57 16.9207 133.364 17 133.131 17C132.879 17 132.669 16.9207 132.501 16.762C132.342 16.594 132.263 16.3887 132.263 16.146V8.054C132.263 7.81133 132.347 7.61067 132.515 7.452C132.683 7.284 132.898 7.2 133.159 7.2C133.392 7.2 133.593 7.284 133.761 7.452C133.929 7.61067 134.013 7.81133 134.013 8.054V16.146ZM144.242 7.2C145.12 7.2 145.871 7.41933 146.496 7.858C147.131 8.28733 147.612 8.87533 147.938 9.622C148.274 10.3593 148.442 11.1853 148.442 12.1C148.442 13.0147 148.274 13.8453 147.938 14.592C147.612 15.3293 147.131 15.9173 146.496 16.356C145.871 16.7853 145.12 17 144.242 17H140.896C140.654 17 140.448 16.9207 140.28 16.762C140.122 16.594 140.042 16.3887 140.042 16.146V8.054C140.042 7.81133 140.122 7.61067 140.28 7.452C140.448 7.284 140.654 7.2 140.896 7.2H144.242ZM144.102 15.39C144.942 15.39 145.572 15.082 145.992 14.466C146.412 13.8407 146.622 13.052 146.622 12.1C146.622 11.148 146.408 10.364 145.978 9.748C145.558 9.12267 144.933 8.81 144.102 8.81H141.792V15.39H144.102ZM153.2 17.14C152.528 17.14 151.931 17.056 151.408 16.888C150.885 16.72 150.395 16.4353 149.938 16.034C149.686 15.81 149.56 15.5627 149.56 15.292C149.56 15.0773 149.639 14.8907 149.798 14.732C149.957 14.564 150.148 14.48 150.372 14.48C150.549 14.48 150.708 14.536 150.848 14.648C151.221 14.956 151.585 15.18 151.94 15.32C152.295 15.46 152.715 15.53 153.2 15.53C153.723 15.53 154.171 15.4133 154.544 15.18C154.927 14.9467 155.118 14.6573 155.118 14.312C155.118 13.892 154.931 13.5653 154.558 13.332C154.185 13.0893 153.592 12.9073 152.78 12.786C150.736 12.4873 149.714 11.5353 149.714 9.93C149.714 9.342 149.868 8.83333 150.176 8.404C150.484 7.96533 150.904 7.634 151.436 7.41C151.968 7.17667 152.561 7.06 153.214 7.06C153.802 7.06 154.353 7.14867 154.866 7.326C155.389 7.50333 155.823 7.73667 156.168 8.026C156.439 8.24067 156.574 8.488 156.574 8.768C156.574 8.98267 156.495 9.174 156.336 9.342C156.177 9.50067 155.991 9.58 155.776 9.58C155.636 9.58 155.51 9.538 155.398 9.454C155.155 9.258 154.815 9.08067 154.376 8.922C153.947 8.754 153.559 8.67 153.214 8.67C152.626 8.67 152.169 8.782 151.842 9.006C151.525 9.22067 151.366 9.50533 151.366 9.86C151.366 10.2613 151.529 10.5647 151.856 10.77C152.192 10.9753 152.715 11.1433 153.424 11.274C154.227 11.414 154.866 11.596 155.342 11.82C155.827 12.0347 156.191 12.3333 156.434 12.716C156.677 13.0893 156.798 13.5887 156.798 14.214C156.798 14.802 156.63 15.32 156.294 15.768C155.967 16.2067 155.529 16.5473 154.978 16.79C154.427 17.0233 153.835 17.14 153.2 17.14ZM161.554 17.14C160.882 17.14 160.284 17.056 159.762 16.888C159.239 16.72 158.749 16.4353 158.292 16.034C158.04 15.81 157.914 15.5627 157.914 15.292C157.914 15.0773 157.993 14.8907 158.152 14.732C158.31 14.564 158.502 14.48 158.726 14.48C158.903 14.48 159.062 14.536 159.202 14.648C159.575 14.956 159.939 15.18 160.294 15.32C160.648 15.46 161.068 15.53 161.554 15.53C162.076 15.53 162.524 15.4133 162.898 15.18C163.28 14.9467 163.472 14.6573 163.472 14.312C163.472 13.892 163.285 13.5653 162.912 13.332C162.538 13.0893 161.946 12.9073 161.134 12.786C159.09 12.4873 158.068 11.5353 158.068 9.93C158.068 9.342 158.222 8.83333 158.53 8.404C158.838 7.96533 159.258 7.634 159.79 7.41C160.322 7.17667 160.914 7.06 161.568 7.06C162.156 7.06 162.706 7.14867 163.22 7.326C163.742 7.50333 164.176 7.73667 164.522 8.026C164.792 8.24067 164.928 8.488 164.928 8.768C164.928 8.98267 164.848 9.174 164.69 9.342C164.531 9.50067 164.344 9.58 164.13 9.58C163.99 9.58 163.864 9.538 163.752 9.454C163.509 9.258 163.168 9.08067 162.73 8.922C162.3 8.754 161.913 8.67 161.568 8.67C160.98 8.67 160.522 8.782 160.196 9.006C159.878 9.22067 159.72 9.50533 159.72 9.86C159.72 10.2613 159.883 10.5647 160.21 10.77C160.546 10.9753 161.068 11.1433 161.778 11.274C162.58 11.414 163.22 11.596 163.696 11.82C164.181 12.0347 164.545 12.3333 164.788 12.716C165.03 13.0893 165.152 13.5887 165.152 14.214C165.152 14.802 164.984 15.32 164.648 15.768C164.321 16.2067 163.882 16.5473 163.332 16.79C162.781 17.0233 162.188 17.14 161.554 17.14ZM118.2 41.14C117.528 41.14 116.931 41.056 116.408 40.888C115.885 40.72 115.395 40.4353 114.938 40.034C114.686 39.81 114.56 39.5627 114.56 39.292C114.56 39.0773 114.639 38.8907 114.798 38.732C114.957 38.564 115.148 38.48 115.372 38.48C115.549 38.48 115.708 38.536 115.848 38.648C116.221 38.956 116.585 39.18 116.94 39.32C117.295 39.46 117.715 39.53 118.2 39.53C118.723 39.53 119.171 39.4133 119.544 39.18C119.927 38.9467 120.118 38.6573 120.118 38.312C120.118 37.892 119.931 37.5653 119.558 37.332C119.185 37.0893 118.592 36.9073 117.78 36.786C115.736 36.4873 114.714 35.5353 114.714 33.93C114.714 33.342 114.868 32.8333 115.176 32.404C115.484 31.9653 115.904 31.634 116.436 31.41C116.968 31.1767 117.561 31.06 118.214 31.06C118.802 31.06 119.353 31.1487 119.866 31.326C120.389 31.5033 120.823 31.7367 121.168 32.026C121.439 32.2407 121.574 32.488 121.574 32.768C121.574 32.9827 121.495 33.174 121.336 33.342C121.177 33.5007 120.991 33.58 120.776 33.58C120.636 33.58 120.51 33.538 120.398 33.454C120.155 33.258 119.815 33.0807 119.376 32.922C118.947 32.754 118.559 32.67 118.214 32.67C117.626 32.67 117.169 32.782 116.842 33.006C116.525 33.2207 116.366 33.5053 116.366 33.86C116.366 34.2613 116.529 34.5647 116.856 34.77C117.192 34.9753 117.715 35.1433 118.424 35.274C119.227 35.414 119.866 35.596 120.342 35.82C120.827 36.0347 121.191 36.3333 121.434 36.716C121.677 37.0893 121.798 37.5887 121.798 38.214C121.798 38.802 121.63 39.32 121.294 39.768C120.967 40.2067 120.529 40.5473 119.978 40.79C119.427 41.0233 118.835 41.14 118.2 41.14ZM132.42 36.1C132.42 37.024 132.214 37.8733 131.804 38.648C131.393 39.4133 130.824 40.02 130.096 40.468C129.377 40.916 128.565 41.14 127.66 41.14C126.754 41.14 125.938 40.916 125.21 40.468C124.491 40.02 123.926 39.4133 123.516 38.648C123.114 37.8733 122.914 37.024 122.914 36.1C122.914 35.176 123.114 34.3313 123.516 33.566C123.926 32.7913 124.491 32.18 125.21 31.732C125.938 31.284 126.754 31.06 127.66 31.06C128.565 31.06 129.377 31.284 130.096 31.732C130.824 32.18 131.393 32.7913 131.804 33.566C132.214 34.3313 132.42 35.176 132.42 36.1ZM130.6 36.1C130.6 35.4747 130.474 34.91 130.222 34.406C129.97 33.8927 129.62 33.4867 129.172 33.188C128.724 32.8893 128.22 32.74 127.66 32.74C127.09 32.74 126.582 32.8893 126.134 33.188C125.695 33.4773 125.35 33.8787 125.098 34.392C124.855 34.9053 124.734 35.4747 124.734 36.1C124.734 36.7253 124.855 37.2947 125.098 37.808C125.35 38.3213 125.695 38.7273 126.134 39.026C126.582 39.3153 127.09 39.46 127.66 39.46C128.22 39.46 128.724 39.3107 129.172 39.012C129.62 38.7133 129.97 38.312 130.222 37.808C130.474 37.2947 130.6 36.7253 130.6 36.1ZM140.887 31.676C141.176 31.8253 141.321 32.0633 141.321 32.39C141.321 32.586 141.251 32.7773 141.111 32.964C140.961 33.16 140.77 33.258 140.537 33.258C140.378 33.258 140.219 33.216 140.061 33.132C139.603 32.9173 139.109 32.81 138.577 32.81C137.923 32.81 137.354 32.95 136.869 33.23C136.383 33.5007 136.01 33.888 135.749 34.392C135.487 34.8867 135.357 35.456 135.357 36.1C135.357 37.2013 135.651 38.0367 136.239 38.606C136.836 39.1753 137.615 39.46 138.577 39.46C139.146 39.46 139.641 39.3527 140.061 39.138C140.229 39.0633 140.378 39.026 140.509 39.026C140.751 39.026 140.957 39.1287 141.125 39.334C141.265 39.5113 141.335 39.7027 141.335 39.908C141.335 40.0573 141.297 40.1927 141.223 40.314C141.148 40.4353 141.041 40.5287 140.901 40.594C140.173 40.958 139.398 41.14 138.577 41.14C137.662 41.14 136.822 40.9487 136.057 40.566C135.291 40.174 134.68 39.6 134.223 38.844C133.765 38.088 133.537 37.1733 133.537 36.1C133.537 35.148 133.751 34.294 134.181 33.538C134.619 32.782 135.221 32.194 135.987 31.774C136.752 31.3447 137.615 31.13 138.577 31.13C139.407 31.13 140.177 31.312 140.887 31.676ZM148.054 39.46C148.278 39.46 148.465 39.5347 148.614 39.684C148.763 39.8333 148.838 40.02 148.838 40.244C148.838 40.4587 148.763 40.6407 148.614 40.79C148.465 40.93 148.278 41 148.054 41H143.294C143.051 41 142.86 40.9253 142.72 40.776C142.58 40.6267 142.51 40.4353 142.51 40.202C142.51 39.9687 142.594 39.7633 142.762 39.586L145.814 36.324C146.159 35.9507 146.43 35.5773 146.626 35.204C146.831 34.8213 146.934 34.4713 146.934 34.154C146.934 33.734 146.785 33.37 146.486 33.062C146.187 32.754 145.842 32.6 145.45 32.6C145.179 32.6 144.904 32.6933 144.624 32.88C144.353 33.0573 144.106 33.2953 143.882 33.594C143.714 33.818 143.499 33.93 143.238 33.93C143.033 33.93 142.841 33.8507 142.664 33.692C142.496 33.5333 142.412 33.356 142.412 33.16C142.412 33.02 142.459 32.88 142.552 32.74C142.645 32.5907 142.785 32.4227 142.972 32.236C143.327 31.8813 143.737 31.5967 144.204 31.382C144.671 31.1673 145.119 31.06 145.548 31.06C146.164 31.06 146.705 31.1907 147.172 31.452C147.639 31.7133 147.998 32.0727 148.25 32.53C148.502 32.9873 148.628 33.5053 148.628 34.084C148.628 34.6533 148.474 35.2413 148.166 35.848C147.867 36.4453 147.461 37.0193 146.948 37.57L145.17 39.46H148.054Z" fill="#5B588F"/>
<mask id="mask0_313_1538" style="mask-type:alpha" maskUnits="userSpaceOnUse" x="0" y="9" width="24" height="24">
<circle cx="12" cy="21" r="12" fill="#C4C4C4"/>
</mask>
<g mask="url(#mask0_313_1538)">
<path d="M20.5373 19.3143C20.7173 19.5831 20.7053 19.9348 20.7416 20.2501C20.7294 20.9181 20.7882 21.7135 20.6688 22.3926C20.6081 22.6744 20.4181 22.9666 20.1187 23.0728C19.6394 23.283 18.9922 23.2243 18.5493 22.9788C18.1771 22.721 18.1306 22.2886 18.0821 21.8782C18.0457 21.0698 17.985 20.2158 18.2137 19.477C18.3936 19.0212 18.8851 18.904 19.3281 18.8687C19.7951 18.8686 20.2501 18.9393 20.5373 19.3143Z" fill="#0057AD"/>
<path d="M14.0069 29.5579L13.9239 29.6286C12.6761 29.8974 11.283 29.9086 10.0347 29.6043L10.1288 29.4993C11.2255 28.7848 12.9351 28.7848 14.0069 29.5579ZM9.78703 29.2891L9.55087 29.476C8.55988 29.2183 7.64067 28.7736 6.79127 28.1652V28.1298C7.07488 27.9539 7.35808 27.767 7.66446 27.6387C8.33643 28.3047 9.03213 28.809 9.78703 29.2891ZM17.261 28.1298C16.6017 28.6563 15.8351 29.0081 15.0564 29.3002L14.5024 29.476C14.4093 29.4285 14.3263 29.3598 14.2435 29.2891L14.2657 29.2537C15.022 28.8089 15.7057 28.2703 16.3528 27.6266C16.6725 27.756 16.9778 27.9308 17.261 28.1298ZM16.001 27.4628C15.6229 27.8954 15.1394 28.2704 14.6905 28.5866C14.4196 28.7504 14.1484 28.9263 13.8653 29.0667L13.3576 28.8444L13.394 28.7625C13.8187 28.1885 14.197 27.6034 14.5267 26.9829L14.5609 26.9587C15.0687 27.0758 15.5521 27.2406 16.001 27.4628ZM9.51607 26.9707C9.85739 27.6145 10.2821 28.2229 10.7068 28.8313C10.541 28.9263 10.3413 28.985 10.1754 29.0778C9.39778 28.6918 8.6545 28.1532 8.03005 27.5094V27.474C8.48965 27.2518 8.97305 27.0879 9.46801 26.9587L9.51607 26.9707ZM14.1728 26.8656L14.1828 26.901C13.8553 27.5326 13.4406 28.141 12.9937 28.715C12.7935 28.7382 12.6054 28.6564 12.4031 28.6443L12.2048 28.622C12.1807 27.9307 12.1685 27.3213 12.2048 26.6311C12.8763 26.6434 13.5478 26.713 14.1728 26.8656ZM11.8494 28.6099C11.6027 28.6685 11.3312 28.6685 11.0951 28.7272C10.6112 28.1532 10.2107 27.5327 9.86895 26.8888L9.92809 26.8413C10.5409 26.7252 11.1779 26.6311 11.8383 26.6311L11.8494 28.6099ZM9.37392 25.9177C9.25564 25.9177 9.12614 25.8934 9.04375 25.9288L9.33851 26.619L9.30363 26.6544C8.77224 26.806 8.2535 26.9941 7.74732 27.2051L7.69926 27.181C7.36909 26.8192 7.05102 26.4209 6.7912 26.0219C6.73355 25.8238 6.49746 25.94 6.36803 25.9178C6.65062 26.4321 7.02729 26.889 7.40553 27.3569C7.0865 27.545 6.7685 27.7562 6.43825 27.9077C5.73093 27.369 5.07011 26.6666 4.57563 25.9289C4.43356 25.9056 4.33947 25.9178 4.19842 25.9289C5.04632 27.2638 6.36803 28.4342 7.74732 29.1244L7.75847 29.1134L7.77112 29.1487C8.70195 29.6046 9.69193 29.933 10.7416 30.0734C14.3607 30.5534 17.8152 28.9962 19.8194 25.9289C19.7142 25.9178 19.5604 25.9178 19.4413 25.9289C18.9477 26.6434 18.3228 27.3346 17.6392 27.8723L17.5218 27.8611C17.2264 27.6742 16.907 27.5206 16.6239 27.3346C17.002 26.8769 17.3681 26.4211 17.6512 25.9178H17.2851C16.9898 26.3503 16.6825 26.8061 16.2941 27.1931C15.7743 26.9829 15.3031 26.795 14.7732 26.6544L14.7147 26.6079C14.7976 26.3734 14.9493 26.151 14.9978 25.9177H14.6803L14.3607 26.5493C13.665 26.3967 12.8985 26.3148 12.1906 26.2683C12.1562 26.1632 12.2048 26.0106 12.1562 25.9177H11.8492C11.826 26.0571 11.8847 26.1632 11.8148 26.2794C11.0832 26.3148 10.3759 26.3967 9.69179 26.5372L9.37392 25.9177ZM1.89896 16.9252L1.16785 16.9374C1.15622 17.5966 1.15622 18.2559 1.16785 18.9151C1.56926 18.9282 1.94648 18.9151 2.33579 18.9505V22.9323L2.32315 23.0951L1.15622 23.1193C1.13243 23.7628 1.13243 24.407 1.15622 25.0506H6.35539V23.1193C5.96607 23.0951 5.53026 23.1303 5.15304 23.0839L5.16467 18.9748L5.18846 18.9394L6.35539 18.9282C6.3681 18.2602 6.37918 17.5467 6.34431 16.9373L1.89896 16.9252ZM21.9309 17.6286C20.3979 16.6453 18.0619 16.5746 16.4844 17.4639C15.6229 17.9085 15.0566 18.7878 14.8807 19.6882C14.5611 21.1758 14.6441 22.9434 15.7745 24.0561C17.0972 25.2264 19.0186 25.4841 20.7275 25.004C20.8082 24.9879 21.0672 24.9222 21.2432 24.8271L21.2938 24.8049C21.8236 24.5827 22.3313 24.2187 22.7074 23.7276C23.5812 22.4401 23.6398 20.5078 23.1079 19.0566C22.8975 18.4947 22.4607 17.9914 21.9309 17.6286ZM11.9324 17.2537C10.635 16.703 8.81983 16.6453 7.64073 17.4993C6.8742 18.0612 6.63811 19.0677 6.83885 19.958C6.99255 20.8009 7.79396 21.4214 8.55994 21.7135C9.61015 22.0885 10.7068 22.3573 11.7666 22.7211C11.8738 22.7676 12.0148 22.8726 11.9926 23.002C11.9926 23.1071 11.8849 23.1658 11.802 23.2122C10.6942 23.5165 9.49187 23.283 8.69046 22.4401C8.59645 22.3229 8.53731 22.1825 8.44227 22.0652L6.85055 22.0774C6.82784 23.0253 6.81513 24.1138 6.85055 25.0506L8.61922 25.0396L8.64301 24.4766C8.84376 24.5715 9.04395 24.6878 9.2447 24.794C10.4708 25.3084 12.0513 25.4246 13.2648 24.794C14.1486 24.3008 14.6219 23.3529 14.4904 22.3352C14.361 21.3398 13.4184 20.4384 12.4638 20.1917L9.61015 19.361L9.39778 19.2549C9.30377 19.173 9.24463 19.0679 9.26733 18.9396C9.4918 18.5535 10.0111 18.6708 10.4004 18.6819C11.2255 18.7991 12.0734 19.0801 12.5568 19.8411C13.0766 19.8411 13.6773 19.8522 14.2435 19.83C14.2658 18.8689 14.2314 18.026 14.2193 17.0539C13.6894 17.0427 13.0402 17.0427 12.5103 17.067C12.4861 17.2074 12.5325 17.4055 12.4738 17.5469L11.9324 17.2537ZM12.8865 13.2729C13.3476 13.858 13.7945 14.4552 14.102 15.099C13.465 15.2516 12.8177 15.3325 12.1564 15.3325C12.1322 14.7129 12.1442 14.0217 12.1564 13.3779C12.3929 13.3426 12.6519 13.3072 12.8865 13.2729ZM11.7796 13.3669C11.815 13.9753 11.7908 14.6777 11.7908 15.3214C11.4601 15.368 11.1663 15.3103 10.8362 15.2861C10.5172 15.2395 10.1162 15.2042 9.79866 15.0991C10.1405 14.4553 10.5409 13.8348 11.0242 13.2608L11.7796 13.3669ZM10.635 13.1445L10.6001 13.2375C10.1516 13.7994 9.79866 14.4088 9.44421 15.006L9.39772 15.0172C8.91439 14.8888 8.44214 14.7362 7.99463 14.5371L8.01842 14.4663C8.66667 13.8468 9.35027 13.3314 10.1051 12.9332C10.2821 13.003 10.458 13.0627 10.635 13.1445ZM15.9403 14.4796L15.9182 14.5139C15.4572 14.7131 14.9859 14.9 14.4781 15.0061C14.1141 14.3846 13.7136 13.7651 13.2646 13.1678C13.4304 13.0738 13.6307 13.003 13.8067 12.9101C14.5732 13.2962 15.3154 13.8469 15.9403 14.4796ZM9.75066 12.7109C9.02003 13.1678 8.30108 13.7064 7.64073 14.3613C7.32266 14.244 7.02743 14.0692 6.74477 13.8691V13.8469C7.48751 13.2961 8.31264 12.8868 9.18535 12.6048L9.29099 12.5361V12.5583C9.385 12.5825 9.45686 12.4764 9.53877 12.5472L9.75066 12.7109ZM17.1782 13.8227L17.1559 13.8692L16.3429 14.327H16.2821C15.6593 13.6943 14.9271 13.1446 14.1828 12.711L14.4093 12.5119C15.3983 12.7696 16.3307 13.2143 17.1782 13.8227ZM13.9361 12.3946V12.4179C12.9107 13.1678 11.2482 13.2375 10.1642 12.5473L9.97567 12.3946C11.2255 12.1016 12.6984 12.0783 13.9361 12.3946ZM12.7226 11.8681C12.4032 11.8327 12.0148 11.8216 11.6725 11.856C11.5431 11.8449 11.3899 11.856 11.2367 11.8681C8.40679 12.0904 5.80136 13.5538 4.17476 16.048C4.29257 16.0359 4.43369 16.0823 4.55143 16.0359C4.83463 15.6387 5.15318 15.2517 5.50653 14.8767C5.81292 14.5836 6.09659 14.3037 6.42677 14.0925C6.73369 14.2917 7.07494 14.4553 7.36922 14.6423C7.00363 15.0991 6.62696 15.5559 6.35546 16.048C6.43839 16.0824 6.59161 16.0713 6.70942 16.048C7.00363 15.6145 7.32266 15.181 7.6994 14.7949C8.207 14.9819 8.70202 15.181 9.22077 15.3214L9.26726 15.368L8.97298 16.0481C9.10242 16.0713 9.18535 16.0592 9.31478 16.0481C9.42144 15.848 9.50336 15.6257 9.62116 15.4276C10.3048 15.5791 11.0242 15.6611 11.7554 15.6853C11.8494 15.7661 11.7796 15.943 11.815 16.0481H12.132C12.1684 15.9299 12.122 15.8016 12.1684 15.6964C12.852 15.661 13.5699 15.5903 14.2314 15.4276L14.29 15.4387L14.6075 16.0481C14.7147 16.0481 14.8562 16.0713 14.9392 16.0239L14.6439 15.3458L14.6681 15.3215C15.2102 15.181 15.7177 14.9708 16.2354 14.7596C16.6016 15.1457 16.9434 15.6035 17.2508 16.0481C17.3803 16.0481 17.5098 16.0592 17.6028 16.0239C17.4585 15.7622 17.2892 15.5151 17.0971 15.2861C16.9434 15.0638 16.7776 14.8657 16.5774 14.6545V14.5959L17.4026 14.1158L17.5219 14.0694C18.2399 14.6191 18.877 15.2861 19.3826 16.0239C19.5242 16.0239 19.6435 16.0713 19.7608 16.0127C18.1812 13.6246 15.5763 12.0905 12.757 11.8681L12.7449 11.8914L12.7226 11.8681ZM-1.14282 9H25.1486V33H-1.14282V9Z" fill="#0057AD"/>
</g>
</svg>
