<svg width="173" height="94" viewBox="0 0 173 94" fill="none" xmlns="http://www.w3.org/2000/svg">
<path d="M0 35H173V78C173 86.8366 165.837 94 157 94H16C7.16344 94 0 86.8366 0 78V35Z" fill="#F9F9FD"/>
<path d="M17.32 50H20.78C20.92 50 21.0367 50.0467 21.13 50.14C21.23 50.2333 21.28 50.35 21.28 50.49C21.28 50.63 21.23 50.7433 21.13 50.83C21.0367 50.9167 20.92 50.96 20.78 50.96H17.76L17.86 50.79V53.03L17.77 52.93H20.33C20.47 52.93 20.5867 52.9767 20.68 53.07C20.78 53.1633 20.83 53.2833 20.83 53.43C20.83 53.57 20.78 53.6833 20.68 53.77C20.5867 53.8567 20.47 53.9 20.33 53.9H17.79L17.86 53.81V56.12L17.79 56.04H20.78C20.92 56.04 21.0367 56.09 21.13 56.19C21.23 56.2833 21.28 56.3933 21.28 56.52C21.28 56.66 21.23 56.7767 21.13 56.87C21.0367 56.9567 20.92 57 20.78 57H17.32C17.18 57 17.06 56.9533 16.96 56.86C16.86 56.76 16.81 56.6367 16.81 56.49V50.51C16.81 50.3633 16.86 50.2433 16.96 50.15C17.06 50.05 17.18 50 17.32 50ZM22.1029 56.18C22.0429 56.0867 22.0162 55.98 22.0229 55.86C22.0296 55.7333 22.0996 55.6267 22.2329 55.54C22.3262 55.48 22.4229 55.4567 22.5229 55.47C22.6296 55.4767 22.7296 55.5267 22.8229 55.62C23.0096 55.8267 23.2162 55.99 23.4429 56.11C23.6762 56.23 23.9562 56.29 24.2829 56.29C24.4162 56.2833 24.5529 56.2633 24.6929 56.23C24.8329 56.19 24.9529 56.1233 25.0529 56.03C25.1529 55.93 25.2029 55.7867 25.2029 55.6C25.2029 55.4333 25.1496 55.3 25.0429 55.2C24.9362 55.1 24.7962 55.02 24.6229 54.96C24.4496 54.8933 24.2629 54.8333 24.0629 54.78C23.8496 54.72 23.6329 54.6533 23.4129 54.58C23.1996 54.5067 23.0062 54.4133 22.8329 54.3C22.6596 54.18 22.5162 54.0267 22.4029 53.84C22.2962 53.6533 22.2429 53.4233 22.2429 53.15C22.2429 52.8367 22.3296 52.5667 22.5029 52.34C22.6829 52.1133 22.9129 51.9367 23.1929 51.81C23.4796 51.6833 23.7896 51.62 24.1229 51.62C24.3162 51.62 24.5196 51.6467 24.7329 51.7C24.9462 51.7467 25.1529 51.8233 25.3529 51.93C25.5529 52.0367 25.7262 52.1767 25.8729 52.35C25.9396 52.4367 25.9762 52.54 25.9829 52.66C25.9962 52.78 25.9429 52.8867 25.8229 52.98C25.7429 53.0467 25.6462 53.0767 25.5329 53.07C25.4196 53.0633 25.3262 53.0267 25.2529 52.96C25.1262 52.8 24.9629 52.6767 24.7629 52.59C24.5629 52.4967 24.3362 52.45 24.0829 52.45C23.9562 52.45 23.8229 52.47 23.6829 52.51C23.5496 52.5433 23.4362 52.6067 23.3429 52.7C23.2496 52.7933 23.2029 52.93 23.2029 53.11C23.2029 53.2767 23.2562 53.41 23.3629 53.51C23.4762 53.61 23.6229 53.6933 23.8029 53.76C23.9829 53.8267 24.1796 53.8867 24.3929 53.94C24.5996 53.9933 24.8029 54.0567 25.0029 54.13C25.2096 54.2033 25.3929 54.3 25.5529 54.42C25.7196 54.5333 25.8529 54.6833 25.9529 54.87C26.0596 55.05 26.1129 55.28 26.1129 55.56C26.1129 55.8867 26.0162 56.1667 25.8229 56.4C25.6362 56.6267 25.3962 56.8 25.1029 56.92C24.8162 57.04 24.5129 57.1 24.1929 57.1C23.8129 57.1 23.4329 57.0333 23.0529 56.9C22.6796 56.76 22.3629 56.52 22.1029 56.18ZM27.1183 51.8H29.4683C29.6016 51.8 29.7116 51.8467 29.7983 51.94C29.8916 52.0267 29.9383 52.1367 29.9383 52.27C29.9383 52.3967 29.8916 52.5033 29.7983 52.59C29.7116 52.6767 29.6016 52.72 29.4683 52.72H27.1183C26.9849 52.72 26.8716 52.6767 26.7783 52.59C26.6916 52.4967 26.6483 52.3867 26.6483 52.26C26.6483 52.1267 26.6916 52.0167 26.7783 51.93C26.8716 51.8433 26.9849 51.8 27.1183 51.8ZM28.1683 50.5C28.3149 50.5 28.4349 50.55 28.5283 50.65C28.6216 50.7433 28.6683 50.8633 28.6683 51.01V55.65C28.6683 55.77 28.6883 55.8667 28.7283 55.94C28.7683 56.0133 28.8216 56.0633 28.8883 56.09C28.9616 56.1167 29.0349 56.13 29.1083 56.13C29.1816 56.13 29.2449 56.1167 29.2983 56.09C29.3583 56.0633 29.4283 56.05 29.5083 56.05C29.5883 56.05 29.6616 56.0867 29.7283 56.16C29.7949 56.2333 29.8283 56.3333 29.8283 56.46C29.8283 56.62 29.7416 56.75 29.5683 56.85C29.3949 56.95 29.2083 57 29.0083 57C28.8949 57 28.7616 56.99 28.6083 56.97C28.4549 56.95 28.3049 56.9 28.1583 56.82C28.0183 56.74 27.9016 56.6133 27.8083 56.44C27.7149 56.26 27.6683 56.01 27.6683 55.69V51.01C27.6683 50.8633 27.7149 50.7433 27.8083 50.65C27.9083 50.55 28.0283 50.5 28.1683 50.5ZM31.9857 56.49C31.9857 56.6367 31.939 56.76 31.8457 56.86C31.7524 56.9533 31.6324 57 31.4857 57C31.3457 57 31.2257 56.9533 31.1257 56.86C31.0324 56.76 30.9857 56.6367 30.9857 56.49V52.21C30.9857 52.0633 31.0324 51.9433 31.1257 51.85C31.2257 51.75 31.3457 51.7 31.4857 51.7C31.6324 51.7 31.7524 51.75 31.8457 51.85C31.939 51.9433 31.9857 52.0633 31.9857 52.21V56.49ZM31.4757 51.04C31.2824 51.04 31.1424 51.0067 31.0557 50.94C30.969 50.8667 30.9257 50.7467 30.9257 50.58V50.42C30.9257 50.2533 30.9724 50.1367 31.0657 50.07C31.159 50.0033 31.299 49.97 31.4857 49.97C31.6857 49.97 31.829 50.0067 31.9157 50.08C32.0024 50.1467 32.0457 50.26 32.0457 50.42V50.58C32.0457 50.7533 31.999 50.8733 31.9057 50.94C31.819 51.0067 31.6757 51.04 31.4757 51.04ZM35.9709 51.65C36.4642 51.65 36.8442 51.7733 37.1109 52.02C37.3775 52.26 37.5542 52.5867 37.6409 53L37.4809 52.95L37.5509 52.79C37.6375 52.6167 37.7675 52.4433 37.9409 52.27C38.1209 52.09 38.3342 51.9433 38.5809 51.83C38.8275 51.71 39.0909 51.65 39.3709 51.65C39.8309 51.65 40.1875 51.75 40.4409 51.95C40.6942 52.1433 40.8709 52.4067 40.9709 52.74C41.0709 53.0667 41.1209 53.4333 41.1209 53.84V56.49C41.1209 56.6367 41.0742 56.76 40.9809 56.86C40.8875 56.9533 40.7675 57 40.6209 57C40.4809 57 40.3609 56.9533 40.2609 56.86C40.1675 56.76 40.1209 56.6367 40.1209 56.49V53.85C40.1209 53.6167 40.0875 53.4033 40.0209 53.21C39.9609 53.0167 39.8509 52.8633 39.6909 52.75C39.5375 52.63 39.3242 52.57 39.0509 52.57C38.7909 52.57 38.5575 52.63 38.3509 52.75C38.1509 52.8633 37.9942 53.0167 37.8809 53.21C37.7675 53.4033 37.7109 53.6167 37.7109 53.85V56.49C37.7109 56.6367 37.6642 56.76 37.5709 56.86C37.4775 56.9533 37.3575 57 37.2109 57C37.0642 57 36.9442 56.9533 36.8509 56.86C36.7575 56.76 36.7109 56.6367 36.7109 56.49V53.84C36.7109 53.6067 36.6775 53.3933 36.6109 53.2C36.5509 53.0067 36.4442 52.8533 36.2909 52.74C36.1375 52.6267 35.9242 52.57 35.6509 52.57C35.3909 52.57 35.1609 52.6267 34.9609 52.74C34.7609 52.8533 34.6042 53.0067 34.4909 53.2C34.3842 53.3933 34.3309 53.6067 34.3309 53.84V56.49C34.3309 56.6367 34.2809 56.76 34.1809 56.86C34.0875 56.9533 33.9709 57 33.8309 57C33.6842 57 33.5642 56.9533 33.4709 56.86C33.3775 56.76 33.3309 56.6367 33.3309 56.49V52.25C33.3309 52.1033 33.3775 51.9833 33.4709 51.89C33.5642 51.79 33.6842 51.74 33.8309 51.74C33.9709 51.74 34.0875 51.79 34.1809 51.89C34.2809 51.9833 34.3309 52.1033 34.3309 52.25V52.84L34.1409 52.95C34.1875 52.8033 34.2642 52.6533 34.3709 52.5C34.4775 52.3467 34.6109 52.2067 34.7709 52.08C34.9375 51.9533 35.1209 51.85 35.3209 51.77C35.5209 51.69 35.7375 51.65 35.9709 51.65ZM46.8303 51.66C46.977 51.66 47.097 51.71 47.1903 51.81C47.2836 51.9033 47.3303 52.0233 47.3303 52.17V56.49C47.3303 56.6367 47.2836 56.76 47.1903 56.86C47.097 56.9533 46.977 57 46.8303 57C46.6903 57 46.5703 56.9533 46.4703 56.86C46.377 56.76 46.3303 56.6367 46.3303 56.49V55.77L46.5403 55.8C46.5403 55.92 46.4903 56.0533 46.3903 56.2C46.297 56.3467 46.167 56.49 46.0003 56.63C45.8336 56.7633 45.637 56.8767 45.4103 56.97C45.1836 57.0567 44.9403 57.1 44.6803 57.1C44.2203 57.1 43.807 56.9833 43.4403 56.75C43.0736 56.51 42.7836 56.1833 42.5703 55.77C42.357 55.3567 42.2503 54.8867 42.2503 54.36C42.2503 53.82 42.357 53.3467 42.5703 52.94C42.7836 52.5267 43.0703 52.2033 43.4303 51.97C43.797 51.7367 44.2036 51.62 44.6503 51.62C44.937 51.62 45.2003 51.6667 45.4403 51.76C45.687 51.8533 45.9003 51.9733 46.0803 52.12C46.2603 52.2667 46.397 52.4233 46.4903 52.59C46.5903 52.75 46.6403 52.9033 46.6403 53.05L46.3303 53.08V52.17C46.3303 52.03 46.377 51.91 46.4703 51.81C46.5703 51.71 46.6903 51.66 46.8303 51.66ZM44.7903 56.18C45.1036 56.18 45.3803 56.1 45.6203 55.94C45.8603 55.78 46.047 55.5633 46.1803 55.29C46.3136 55.01 46.3803 54.7 46.3803 54.36C46.3803 54.0133 46.3136 53.7033 46.1803 53.43C46.047 53.1567 45.8603 52.94 45.6203 52.78C45.3803 52.62 45.1036 52.54 44.7903 52.54C44.4836 52.54 44.2103 52.62 43.9703 52.78C43.737 52.94 43.5503 53.1567 43.4103 53.43C43.277 53.7033 43.2103 54.0133 43.2103 54.36C43.2103 54.7 43.277 55.01 43.4103 55.29C43.5503 55.5633 43.737 55.78 43.9703 55.94C44.2103 56.1 44.4836 56.18 44.7903 56.18ZM48.6613 51.8H51.0113C51.1446 51.8 51.2546 51.8467 51.3413 51.94C51.4346 52.0267 51.4813 52.1367 51.4813 52.27C51.4813 52.3967 51.4346 52.5033 51.3413 52.59C51.2546 52.6767 51.1446 52.72 51.0113 52.72H48.6613C48.5279 52.72 48.4146 52.6767 48.3213 52.59C48.2346 52.4967 48.1913 52.3867 48.1913 52.26C48.1913 52.1267 48.2346 52.0167 48.3213 51.93C48.4146 51.8433 48.5279 51.8 48.6613 51.8ZM49.7113 50.5C49.8579 50.5 49.9779 50.55 50.0713 50.65C50.1646 50.7433 50.2113 50.8633 50.2113 51.01V55.65C50.2113 55.77 50.2313 55.8667 50.2713 55.94C50.3113 56.0133 50.3646 56.0633 50.4313 56.09C50.5046 56.1167 50.5779 56.13 50.6513 56.13C50.7246 56.13 50.7879 56.1167 50.8413 56.09C50.9013 56.0633 50.9713 56.05 51.0513 56.05C51.1313 56.05 51.2046 56.0867 51.2713 56.16C51.3379 56.2333 51.3713 56.3333 51.3713 56.46C51.3713 56.62 51.2846 56.75 51.1113 56.85C50.9379 56.95 50.7513 57 50.5513 57C50.4379 57 50.3046 56.99 50.1513 56.97C49.9979 56.95 49.8479 56.9 49.7013 56.82C49.5613 56.74 49.4446 56.6133 49.3512 56.44C49.2579 56.26 49.2113 56.01 49.2113 55.69V51.01C49.2113 50.8633 49.2579 50.7433 49.3512 50.65C49.4512 50.55 49.5713 50.5 49.7113 50.5ZM54.9898 57.1C54.4365 57.1 53.9565 56.9867 53.5498 56.76C53.1432 56.5267 52.8265 56.21 52.5998 55.81C52.3798 55.4033 52.2698 54.94 52.2698 54.42C52.2698 53.8333 52.3865 53.3333 52.6198 52.92C52.8598 52.5 53.1698 52.18 53.5498 51.96C53.9298 51.7333 54.3332 51.62 54.7598 51.62C55.0865 51.62 55.3965 51.6867 55.6898 51.82C55.9832 51.9467 56.2432 52.1267 56.4698 52.36C56.7032 52.5867 56.8865 52.8567 57.0198 53.17C57.1532 53.4767 57.2232 53.8133 57.2298 54.18C57.2232 54.3133 57.1698 54.4233 57.0698 54.51C56.9698 54.5967 56.8532 54.64 56.7198 54.64H52.8298L52.5898 53.79H56.3498L56.1598 53.97V53.72C56.1465 53.4867 56.0698 53.2833 55.9298 53.11C55.7898 52.93 55.6165 52.7933 55.4098 52.7C55.2032 52.6 54.9865 52.55 54.7598 52.55C54.5598 52.55 54.3665 52.5833 54.1798 52.65C53.9998 52.71 53.8365 52.81 53.6898 52.95C53.5498 53.09 53.4365 53.2767 53.3498 53.51C53.2698 53.7367 53.2298 54.02 53.2298 54.36C53.2298 54.7267 53.3065 55.0467 53.4598 55.32C53.6132 55.5933 53.8198 55.8067 54.0798 55.96C54.3398 56.1067 54.6265 56.18 54.9398 56.18C55.1865 56.18 55.3898 56.1567 55.5498 56.11C55.7098 56.0567 55.8432 55.9933 55.9498 55.92C56.0565 55.8467 56.1498 55.7767 56.2298 55.71C56.3298 55.65 56.4298 55.62 56.5298 55.62C56.6498 55.62 56.7498 55.6633 56.8298 55.75C56.9098 55.83 56.9498 55.9267 56.9498 56.04C56.9498 56.1867 56.8765 56.32 56.7298 56.44C56.5498 56.6133 56.2998 56.7667 55.9798 56.9C55.6665 57.0333 55.3365 57.1 54.9898 57.1ZM62.6702 49.6C62.8168 49.6 62.9368 49.6467 63.0302 49.74C63.1235 49.8333 63.1702 49.9567 63.1702 50.11V56.49C63.1702 56.6367 63.1235 56.76 63.0302 56.86C62.9368 56.9533 62.8168 57 62.6702 57C62.5302 57 62.4102 56.9533 62.3102 56.86C62.2168 56.76 62.1702 56.6367 62.1702 56.49V55.77L62.3802 55.78C62.3802 55.9 62.3302 56.0367 62.2302 56.19C62.1368 56.3367 62.0068 56.48 61.8402 56.62C61.6735 56.76 61.4768 56.8767 61.2502 56.97C61.0235 57.0567 60.7802 57.1 60.5202 57.1C60.0602 57.1 59.6468 56.9833 59.2802 56.75C58.9135 56.51 58.6235 56.1867 58.4102 55.78C58.1968 55.3667 58.0902 54.8933 58.0902 54.36C58.0902 53.8267 58.1968 53.3567 58.4102 52.95C58.6235 52.5367 58.9102 52.2133 59.2702 51.98C59.6368 51.74 60.0435 51.62 60.4902 51.62C60.7702 51.62 61.0302 51.6667 61.2702 51.76C61.5168 51.8533 61.7302 51.9733 61.9102 52.12C62.0902 52.2667 62.2302 52.4233 62.3302 52.59C62.4302 52.75 62.4802 52.9033 62.4802 53.05L62.1702 53.08V50.11C62.1702 49.9633 62.2168 49.8433 62.3102 49.75C62.4102 49.65 62.5302 49.6 62.6702 49.6ZM60.6302 56.18C60.9502 56.18 61.2268 56.1 61.4602 55.94C61.7002 55.78 61.8868 55.5633 62.0202 55.29C62.1535 55.0167 62.2202 54.7067 62.2202 54.36C62.2202 54.0133 62.1535 53.7033 62.0202 53.43C61.8868 53.1567 61.7002 52.94 61.4602 52.78C61.2202 52.62 60.9435 52.54 60.6302 52.54C60.3235 52.54 60.0502 52.62 59.8102 52.78C59.5768 52.94 59.3902 53.1567 59.2502 53.43C59.1168 53.7033 59.0502 54.0133 59.0502 54.36C59.0502 54.7067 59.1168 55.0167 59.2502 55.29C59.3902 55.5633 59.5768 55.78 59.8102 55.94C60.0502 56.1 60.3235 56.18 60.6302 56.18ZM69.6143 57.1C69.1343 57.1 68.7076 57.0333 68.3343 56.9C67.961 56.7667 67.6043 56.5467 67.2643 56.24C67.191 56.1867 67.1343 56.1233 67.0943 56.05C67.061 55.97 67.0443 55.89 67.0443 55.81C67.0443 55.6833 67.091 55.57 67.1843 55.47C67.2776 55.37 67.3943 55.32 67.5343 55.32C67.641 55.32 67.741 55.3567 67.8343 55.43C68.0876 55.6633 68.351 55.84 68.6243 55.96C68.9043 56.08 69.231 56.14 69.6043 56.14C69.871 56.14 70.1143 56.0967 70.3343 56.01C70.561 55.9233 70.741 55.8067 70.8743 55.66C71.0076 55.5133 71.0743 55.3433 71.0743 55.15C71.0743 54.91 71.0043 54.7133 70.8643 54.56C70.731 54.4 70.5343 54.27 70.2743 54.17C70.021 54.0633 69.7143 53.9733 69.3543 53.9C69.021 53.84 68.721 53.7567 68.4543 53.65C68.1943 53.5433 67.971 53.41 67.7843 53.25C67.5976 53.0833 67.4543 52.8867 67.3543 52.66C67.2543 52.4333 67.2043 52.17 67.2043 51.87C67.2043 51.4633 67.311 51.1133 67.5243 50.82C67.7376 50.5267 68.0276 50.3 68.3943 50.14C68.761 49.98 69.1743 49.9 69.6343 49.9C70.0543 49.9 70.4476 49.9667 70.8143 50.1C71.181 50.2267 71.4776 50.4 71.7043 50.62C71.8643 50.76 71.9443 50.91 71.9443 51.07C71.9443 51.19 71.8943 51.3033 71.7943 51.41C71.701 51.51 71.591 51.56 71.4643 51.56C71.371 51.56 71.291 51.5333 71.2243 51.48C71.1176 51.3667 70.9743 51.2667 70.7943 51.18C70.6143 51.0867 70.421 51.01 70.2143 50.95C70.0143 50.89 69.821 50.86 69.6343 50.86C69.3343 50.86 69.0776 50.9033 68.8643 50.99C68.651 51.07 68.4876 51.1833 68.3743 51.33C68.261 51.47 68.2043 51.6367 68.2043 51.83C68.2043 52.0567 68.2676 52.2433 68.3943 52.39C68.5276 52.5367 68.711 52.6567 68.9443 52.75C69.1776 52.8367 69.4443 52.9167 69.7443 52.99C70.111 53.07 70.4376 53.16 70.7243 53.26C71.0176 53.36 71.2643 53.49 71.4643 53.65C71.6643 53.8033 71.8176 53.9967 71.9243 54.23C72.031 54.4633 72.0843 54.7533 72.0843 55.1C72.0843 55.5 71.971 55.85 71.7443 56.15C71.5176 56.45 71.2176 56.6833 70.8443 56.85C70.4776 57.0167 70.0676 57.1 69.6143 57.1ZM75.5339 51.62C75.8939 51.62 76.2139 51.66 76.4939 51.74C76.7739 51.8133 76.9906 51.92 77.1439 52.06C77.3039 52.1933 77.3839 52.35 77.3839 52.53C77.3839 52.6433 77.3506 52.75 77.2839 52.85C77.2172 52.9433 77.1172 52.99 76.9839 52.99C76.8906 52.99 76.8106 52.9733 76.7439 52.94C76.6839 52.9067 76.6272 52.8667 76.5739 52.82C76.5206 52.7733 76.4539 52.7267 76.3739 52.68C76.3006 52.64 76.1906 52.6067 76.0439 52.58C75.9039 52.5533 75.7772 52.54 75.6639 52.54C75.3106 52.54 75.0039 52.62 74.7439 52.78C74.4906 52.94 74.2906 53.1567 74.1439 53.43C74.0039 53.7033 73.9339 54.0133 73.9339 54.36C73.9339 54.7067 74.0039 55.0167 74.1439 55.29C74.2906 55.5633 74.4872 55.78 74.7339 55.94C74.9872 56.1 75.2806 56.18 75.6139 56.18C75.8139 56.18 75.9772 56.1667 76.1039 56.14C76.2306 56.1067 76.3406 56.0667 76.4339 56.02C76.5339 55.96 76.6172 55.9 76.6839 55.84C76.7572 55.7733 76.8572 55.74 76.9839 55.74C77.1306 55.74 77.2406 55.7867 77.3139 55.88C77.3939 55.9667 77.4339 56.0767 77.4339 56.21C77.4339 56.3567 77.3439 56.5 77.1639 56.64C76.9906 56.7733 76.7572 56.8833 76.4639 56.97C76.1706 57.0567 75.8472 57.1 75.4939 57.1C74.9739 57.1 74.5206 56.98 74.1339 56.74C73.7539 56.5 73.4572 56.1733 73.2439 55.76C73.0372 55.3467 72.9339 54.88 72.9339 54.36C72.9339 53.8333 73.0439 53.3667 73.2639 52.96C73.4839 52.5467 73.7906 52.22 74.1839 51.98C74.5772 51.74 75.0272 51.62 75.5339 51.62ZM82.6995 51.66C82.8461 51.66 82.9661 51.71 83.0595 51.81C83.1528 51.9033 83.1995 52.0233 83.1995 52.17V56.49C83.1995 56.6367 83.1528 56.76 83.0595 56.86C82.9661 56.9533 82.8461 57 82.6995 57C82.5595 57 82.4395 56.9533 82.3395 56.86C82.2461 56.76 82.1995 56.6367 82.1995 56.49V55.77L82.4095 55.8C82.4095 55.92 82.3595 56.0533 82.2595 56.2C82.1661 56.3467 82.0361 56.49 81.8695 56.63C81.7028 56.7633 81.5061 56.8767 81.2795 56.97C81.0528 57.0567 80.8095 57.1 80.5495 57.1C80.0895 57.1 79.6761 56.9833 79.3095 56.75C78.9428 56.51 78.6528 56.1833 78.4395 55.77C78.2261 55.3567 78.1195 54.8867 78.1195 54.36C78.1195 53.82 78.2261 53.3467 78.4395 52.94C78.6528 52.5267 78.9395 52.2033 79.2995 51.97C79.6661 51.7367 80.0728 51.62 80.5195 51.62C80.8061 51.62 81.0695 51.6667 81.3095 51.76C81.5561 51.8533 81.7695 51.9733 81.9495 52.12C82.1295 52.2667 82.2661 52.4233 82.3595 52.59C82.4595 52.75 82.5095 52.9033 82.5095 53.05L82.1995 53.08V52.17C82.1995 52.03 82.2461 51.91 82.3395 51.81C82.4395 51.71 82.5595 51.66 82.6995 51.66ZM80.6595 56.18C80.9728 56.18 81.2495 56.1 81.4895 55.94C81.7295 55.78 81.9161 55.5633 82.0495 55.29C82.1828 55.01 82.2495 54.7 82.2495 54.36C82.2495 54.0133 82.1828 53.7033 82.0495 53.43C81.9161 53.1567 81.7295 52.94 81.4895 52.78C81.2495 52.62 80.9728 52.54 80.6595 52.54C80.3528 52.54 80.0795 52.62 79.8395 52.78C79.6061 52.94 79.4195 53.1567 79.2795 53.43C79.1461 53.7033 79.0795 54.0133 79.0795 54.36C79.0795 54.7 79.1461 55.01 79.2795 55.29C79.4195 55.5633 79.6061 55.78 79.8395 55.94C80.0795 56.1 80.3528 56.18 80.6595 56.18ZM87.3104 51.62C87.7837 51.62 88.1504 51.72 88.4104 51.92C88.6704 52.1133 88.8504 52.3767 88.9504 52.71C89.0571 53.0367 89.1104 53.4033 89.1104 53.81V56.49C89.1104 56.6367 89.0604 56.76 88.9604 56.86C88.8671 56.9533 88.7504 57 88.6104 57C88.4637 57 88.3437 56.9533 88.2504 56.86C88.1571 56.76 88.1104 56.6367 88.1104 56.49V53.82C88.1104 53.58 88.0771 53.3667 88.0104 53.18C87.9437 52.9867 87.8271 52.8333 87.6604 52.72C87.5004 52.6 87.2737 52.54 86.9804 52.54C86.7071 52.54 86.4671 52.6 86.2604 52.72C86.0537 52.8333 85.8904 52.9867 85.7704 53.18C85.6571 53.3667 85.6004 53.58 85.6004 53.82V56.49C85.6004 56.6367 85.5504 56.76 85.4504 56.86C85.3571 56.9533 85.2404 57 85.1004 57C84.9537 57 84.8337 56.9533 84.7404 56.86C84.6471 56.76 84.6004 56.6367 84.6004 56.49V52.25C84.6004 52.1033 84.6471 51.9833 84.7404 51.89C84.8337 51.79 84.9537 51.74 85.1004 51.74C85.2404 51.74 85.3571 51.79 85.4504 51.89C85.5504 51.9833 85.6004 52.1033 85.6004 52.25V52.81L85.4204 52.91C85.4671 52.7633 85.5471 52.6167 85.6604 52.47C85.7804 52.3167 85.9237 52.1767 86.0904 52.05C86.2571 51.9167 86.4437 51.8133 86.6504 51.74C86.8571 51.66 87.0771 51.62 87.3104 51.62ZM95.672 57C95.512 57 95.382 56.9533 95.282 56.86C95.1887 56.76 95.142 56.6367 95.142 56.49V50.5H96.212V56.49C96.212 56.6367 96.1587 56.76 96.052 56.86C95.952 56.9533 95.8254 57 95.672 57ZM93.402 50.96C93.262 50.96 93.142 50.9167 93.042 50.83C92.942 50.7367 92.892 50.6167 92.892 50.47C92.892 50.33 92.942 50.2167 93.042 50.13C93.142 50.0433 93.262 50 93.402 50H97.952C98.092 50 98.2087 50.0467 98.302 50.14C98.402 50.2267 98.452 50.34 98.452 50.48C98.452 50.6267 98.402 50.7433 98.302 50.83C98.2087 50.9167 98.092 50.96 97.952 50.96H93.402ZM100.413 56.49C100.413 56.6367 100.367 56.76 100.273 56.86C100.18 56.9533 100.06 57 99.9134 57C99.7734 57 99.6534 56.9533 99.5534 56.86C99.4601 56.76 99.4134 56.6367 99.4134 56.49V52.21C99.4134 52.0633 99.4601 51.9433 99.5534 51.85C99.6534 51.75 99.7734 51.7 99.9134 51.7C100.06 51.7 100.18 51.75 100.273 51.85C100.367 51.9433 100.413 52.0633 100.413 52.21V56.49ZM99.9034 51.04C99.7101 51.04 99.5701 51.0067 99.4834 50.94C99.3968 50.8667 99.3534 50.7467 99.3534 50.58V50.42C99.3534 50.2533 99.4001 50.1367 99.4934 50.07C99.5868 50.0033 99.7268 49.97 99.9134 49.97C100.113 49.97 100.257 50.0067 100.343 50.08C100.43 50.1467 100.473 50.26 100.473 50.42V50.58C100.473 50.7533 100.427 50.8733 100.333 50.94C100.247 51.0067 100.103 51.04 99.9034 51.04ZM104.399 51.65C104.892 51.65 105.272 51.7733 105.539 52.02C105.805 52.26 105.982 52.5867 106.069 53L105.909 52.95L105.979 52.79C106.065 52.6167 106.195 52.4433 106.369 52.27C106.549 52.09 106.762 51.9433 107.009 51.83C107.255 51.71 107.519 51.65 107.799 51.65C108.259 51.65 108.615 51.75 108.869 51.95C109.122 52.1433 109.299 52.4067 109.399 52.74C109.499 53.0667 109.549 53.4333 109.549 53.84V56.49C109.549 56.6367 109.502 56.76 109.409 56.86C109.315 56.9533 109.195 57 109.049 57C108.909 57 108.789 56.9533 108.689 56.86C108.595 56.76 108.549 56.6367 108.549 56.49V53.85C108.549 53.6167 108.515 53.4033 108.449 53.21C108.389 53.0167 108.279 52.8633 108.119 52.75C107.965 52.63 107.752 52.57 107.479 52.57C107.219 52.57 106.985 52.63 106.779 52.75C106.579 52.8633 106.422 53.0167 106.309 53.21C106.195 53.4033 106.139 53.6167 106.139 53.85V56.49C106.139 56.6367 106.092 56.76 105.999 56.86C105.905 56.9533 105.785 57 105.639 57C105.492 57 105.372 56.9533 105.279 56.86C105.185 56.76 105.139 56.6367 105.139 56.49V53.84C105.139 53.6067 105.105 53.3933 105.039 53.2C104.979 53.0067 104.872 52.8533 104.719 52.74C104.565 52.6267 104.352 52.57 104.079 52.57C103.819 52.57 103.589 52.6267 103.389 52.74C103.189 52.8533 103.032 53.0067 102.919 53.2C102.812 53.3933 102.759 53.6067 102.759 53.84V56.49C102.759 56.6367 102.709 56.76 102.609 56.86C102.515 56.9533 102.399 57 102.259 57C102.112 57 101.992 56.9533 101.899 56.86C101.805 56.76 101.759 56.6367 101.759 56.49V52.25C101.759 52.1033 101.805 51.9833 101.899 51.89C101.992 51.79 102.112 51.74 102.259 51.74C102.399 51.74 102.515 51.79 102.609 51.89C102.709 51.9833 102.759 52.1033 102.759 52.25V52.84L102.569 52.95C102.615 52.8033 102.692 52.6533 102.799 52.5C102.905 52.3467 103.039 52.2067 103.199 52.08C103.365 51.9533 103.549 51.85 103.749 51.77C103.949 51.69 104.165 51.65 104.399 51.65ZM113.398 57.1C112.845 57.1 112.365 56.9867 111.958 56.76C111.551 56.5267 111.235 56.21 111.008 55.81C110.788 55.4033 110.678 54.94 110.678 54.42C110.678 53.8333 110.795 53.3333 111.028 52.92C111.268 52.5 111.578 52.18 111.958 51.96C112.338 51.7333 112.741 51.62 113.168 51.62C113.495 51.62 113.805 51.6867 114.098 51.82C114.391 51.9467 114.651 52.1267 114.878 52.36C115.111 52.5867 115.295 52.8567 115.428 53.17C115.561 53.4767 115.631 53.8133 115.638 54.18C115.631 54.3133 115.578 54.4233 115.478 54.51C115.378 54.5967 115.261 54.64 115.128 54.64H111.238L110.998 53.79H114.758L114.568 53.97V53.72C114.555 53.4867 114.478 53.2833 114.338 53.11C114.198 52.93 114.025 52.7933 113.818 52.7C113.611 52.6 113.395 52.55 113.168 52.55C112.968 52.55 112.775 52.5833 112.588 52.65C112.408 52.71 112.245 52.81 112.098 52.95C111.958 53.09 111.845 53.2767 111.758 53.51C111.678 53.7367 111.638 54.02 111.638 54.36C111.638 54.7267 111.715 55.0467 111.868 55.32C112.021 55.5933 112.228 55.8067 112.488 55.96C112.748 56.1067 113.035 56.18 113.348 56.18C113.595 56.18 113.798 56.1567 113.958 56.11C114.118 56.0567 114.251 55.9933 114.358 55.92C114.465 55.8467 114.558 55.7767 114.638 55.71C114.738 55.65 114.838 55.62 114.938 55.62C115.058 55.62 115.158 55.6633 115.238 55.75C115.318 55.83 115.358 55.9267 115.358 56.04C115.358 56.1867 115.285 56.32 115.138 56.44C114.958 56.6133 114.708 56.7667 114.388 56.9C114.075 57.0333 113.745 57.1 113.398 57.1Z" fill="#19191F"/>
<path d="M116.616 17.824C116.784 17.824 116.924 17.88 117.036 17.992C117.156 18.104 117.216 18.244 117.216 18.412C117.216 18.58 117.156 18.72 117.036 18.832C116.924 18.944 116.784 19 116.616 19H112.584C112.408 19 112.26 18.944 112.14 18.832C112.028 18.712 111.972 18.564 111.972 18.388V11.212C111.972 11.036 112.032 10.892 112.152 10.78C112.272 10.66 112.428 10.6 112.62 10.6C112.78 10.6 112.92 10.66 113.04 10.78C113.168 10.892 113.232 11.036 113.232 11.212V18.028L112.98 17.824H116.616ZM121.401 19.12C120.737 19.12 120.161 18.984 119.673 18.712C119.185 18.432 118.805 18.052 118.533 17.572C118.269 17.084 118.137 16.528 118.137 15.904C118.137 15.2 118.277 14.6 118.557 14.104C118.845 13.6 119.217 13.216 119.673 12.952C120.129 12.68 120.613 12.544 121.125 12.544C121.517 12.544 121.889 12.624 122.241 12.784C122.593 12.936 122.905 13.152 123.177 13.432C123.457 13.704 123.677 14.028 123.837 14.404C123.997 14.772 124.081 15.176 124.089 15.616C124.081 15.776 124.017 15.908 123.897 16.012C123.777 16.116 123.637 16.168 123.477 16.168H118.809L118.521 15.148H123.033L122.805 15.364V15.064C122.789 14.784 122.697 14.54 122.529 14.332C122.361 14.116 122.153 13.952 121.905 13.84C121.657 13.72 121.397 13.66 121.125 13.66C120.885 13.66 120.653 13.7 120.429 13.78C120.213 13.852 120.017 13.972 119.841 14.14C119.673 14.308 119.537 14.532 119.433 14.812C119.337 15.084 119.289 15.424 119.289 15.832C119.289 16.272 119.381 16.656 119.565 16.984C119.749 17.312 119.997 17.568 120.309 17.752C120.621 17.928 120.965 18.016 121.341 18.016C121.637 18.016 121.881 17.988 122.073 17.932C122.265 17.868 122.425 17.792 122.553 17.704C122.681 17.616 122.793 17.532 122.889 17.452C123.009 17.38 123.129 17.344 123.249 17.344C123.393 17.344 123.513 17.396 123.609 17.5C123.705 17.596 123.753 17.712 123.753 17.848C123.753 18.024 123.665 18.184 123.489 18.328C123.273 18.536 122.973 18.72 122.589 18.88C122.213 19.04 121.817 19.12 121.401 19.12ZM128.385 10.132C128.537 10.132 128.693 10.152 128.853 10.192C129.013 10.232 129.145 10.3 129.249 10.396C129.361 10.484 129.417 10.608 129.417 10.768C129.417 10.928 129.369 11.06 129.273 11.164C129.177 11.26 129.065 11.308 128.937 11.308C128.857 11.308 128.749 11.292 128.613 11.26C128.477 11.22 128.341 11.2 128.205 11.2C128.021 11.2 127.873 11.244 127.761 11.332C127.649 11.412 127.569 11.516 127.521 11.644C127.473 11.764 127.449 11.884 127.449 12.004V18.388C127.449 18.564 127.389 18.712 127.269 18.832C127.157 18.944 127.017 19 126.849 19C126.673 19 126.529 18.944 126.417 18.832C126.305 18.712 126.249 18.564 126.249 18.388V12.016C126.249 11.464 126.429 11.012 126.789 10.66C127.157 10.308 127.689 10.132 128.385 10.132ZM128.625 12.796C128.785 12.796 128.917 12.848 129.021 12.952C129.125 13.056 129.177 13.188 129.177 13.348C129.177 13.508 129.125 13.64 129.021 13.744C128.917 13.848 128.785 13.9 128.625 13.9H125.517C125.365 13.9 125.233 13.848 125.121 13.744C125.017 13.64 124.965 13.508 124.965 13.348C124.965 13.188 125.017 13.056 125.121 12.952C125.233 12.848 125.365 12.796 125.517 12.796H128.625ZM130.33 12.76H133.15C133.31 12.76 133.442 12.816 133.546 12.928C133.658 13.032 133.714 13.164 133.714 13.324C133.714 13.476 133.658 13.604 133.546 13.708C133.442 13.812 133.31 13.864 133.15 13.864H130.33C130.17 13.864 130.034 13.812 129.922 13.708C129.818 13.596 129.766 13.464 129.766 13.312C129.766 13.152 129.818 13.02 129.922 12.916C130.034 12.812 130.17 12.76 130.33 12.76ZM131.59 11.2C131.766 11.2 131.91 11.26 132.022 11.38C132.134 11.492 132.19 11.636 132.19 11.812V17.38C132.19 17.524 132.214 17.64 132.262 17.728C132.31 17.816 132.374 17.876 132.454 17.908C132.542 17.94 132.63 17.956 132.718 17.956C132.806 17.956 132.882 17.94 132.946 17.908C133.018 17.876 133.102 17.86 133.198 17.86C133.294 17.86 133.382 17.904 133.462 17.992C133.542 18.08 133.582 18.2 133.582 18.352C133.582 18.544 133.478 18.7 133.27 18.82C133.062 18.94 132.838 19 132.598 19C132.462 19 132.302 18.988 132.118 18.964C131.934 18.94 131.754 18.88 131.578 18.784C131.41 18.688 131.27 18.536 131.158 18.328C131.046 18.112 130.99 17.812 130.99 17.428V11.812C130.99 11.636 131.046 11.492 131.158 11.38C131.278 11.26 131.422 11.2 131.59 11.2Z" fill="#9591AF"/>
<path d="M65.972 6.382C66.248 6.382 66.482 6.49 66.674 6.706C66.878 6.922 66.98 7.15 66.98 7.39C66.98 7.618 66.902 7.834 66.746 8.038L63.128 12.808L61.904 11.134L65.09 6.904C65.342 6.556 65.636 6.382 65.972 6.382ZM57.944 6.346C58.292 6.346 58.586 6.502 58.826 6.814L66.746 17.344C66.89 17.536 66.962 17.758 66.962 18.01C66.962 18.346 66.842 18.61 66.602 18.802C66.362 18.994 66.122 19.09 65.882 19.09C65.534 19.09 65.24 18.934 65 18.622L57.08 8.092C56.924 7.9 56.846 7.684 56.846 7.444C56.846 7.132 56.96 6.874 57.188 6.67C57.428 6.454 57.68 6.346 57.944 6.346ZM57.782 19.09C57.518 19.09 57.29 18.994 57.098 18.802C56.906 18.598 56.81 18.376 56.81 18.136C56.81 17.872 56.9 17.626 57.08 17.398L60.734 12.448L61.922 14.194L58.682 18.586C58.442 18.922 58.142 19.09 57.782 19.09ZM79.0678 9.19C80.0278 9.19 80.7358 9.424 81.1918 9.892C81.6478 10.348 81.9478 10.942 82.0918 11.674L81.7858 11.512L81.9298 11.224C82.0738 10.948 82.2958 10.654 82.5958 10.342C82.8958 10.018 83.2558 9.748 83.6758 9.532C84.1078 9.304 84.5878 9.19 85.1158 9.19C85.9798 9.19 86.6338 9.376 87.0778 9.748C87.5338 10.12 87.8458 10.618 88.0138 11.242C88.1818 11.854 88.2658 12.538 88.2658 13.294V17.902C88.2658 18.214 88.1638 18.478 87.9598 18.694C87.7558 18.898 87.4978 19 87.1858 19C86.8738 19 86.6158 18.898 86.4118 18.694C86.2078 18.478 86.1058 18.214 86.1058 17.902V13.294C86.1058 12.898 86.0578 12.544 85.9618 12.232C85.8658 11.908 85.6918 11.65 85.4398 11.458C85.1878 11.266 84.8278 11.17 84.3598 11.17C83.9038 11.17 83.5138 11.266 83.1898 11.458C82.8658 11.65 82.6198 11.908 82.4518 12.232C82.2958 12.544 82.2178 12.898 82.2178 13.294V17.902C82.2178 18.214 82.1158 18.478 81.9118 18.694C81.7078 18.898 81.4498 19 81.1378 19C80.8258 19 80.5678 18.898 80.3638 18.694C80.1598 18.478 80.0578 18.214 80.0578 17.902V13.294C80.0578 12.898 80.0098 12.544 79.9138 12.232C79.8178 11.908 79.6438 11.65 79.3918 11.458C79.1398 11.266 78.7798 11.17 78.3118 11.17C77.8558 11.17 77.4658 11.266 77.1418 11.458C76.8178 11.65 76.5718 11.908 76.4038 12.232C76.2478 12.544 76.1698 12.898 76.1698 13.294V17.902C76.1698 18.214 76.0678 18.478 75.8638 18.694C75.6598 18.898 75.4018 19 75.0898 19C74.7778 19 74.5198 18.898 74.3158 18.694C74.1118 18.478 74.0098 18.214 74.0098 17.902V10.468C74.0098 10.156 74.1118 9.898 74.3158 9.694C74.5198 9.478 74.7778 9.37 75.0898 9.37C75.4018 9.37 75.6598 9.478 75.8638 9.694C76.0678 9.898 76.1698 10.156 76.1698 10.468V11.242L75.8998 11.188C76.0078 10.984 76.1578 10.768 76.3498 10.54C76.5418 10.3 76.7758 10.078 77.0518 9.874C77.3278 9.67 77.6338 9.508 77.9698 9.388C78.3058 9.256 78.6718 9.19 79.0678 9.19ZM92.6376 17.902C92.6376 18.214 92.5356 18.478 92.3316 18.694C92.1276 18.898 91.8696 19 91.5576 19C91.2456 19 90.9876 18.898 90.7836 18.694C90.5796 18.478 90.4776 18.214 90.4776 17.902V10.468C90.4776 10.156 90.5796 9.898 90.7836 9.694C90.9876 9.478 91.2456 9.37 91.5576 9.37C91.8696 9.37 92.1276 9.478 92.3316 9.694C92.5356 9.898 92.6376 10.156 92.6376 10.468V17.902ZM91.5396 8.2C91.1316 8.2 90.8436 8.134 90.6756 8.002C90.5076 7.87 90.4236 7.636 90.4236 7.3V6.958C90.4236 6.61 90.5136 6.376 90.6936 6.256C90.8856 6.124 91.1736 6.058 91.5576 6.058C91.9776 6.058 92.2716 6.124 92.4396 6.256C92.6076 6.388 92.6916 6.622 92.6916 6.958V7.3C92.6916 7.648 92.6016 7.888 92.4216 8.02C92.2416 8.14 91.9476 8.2 91.5396 8.2ZM100.006 9.19C100.894 9.19 101.566 9.376 102.022 9.748C102.49 10.12 102.808 10.618 102.976 11.242C103.156 11.854 103.246 12.538 103.246 13.294V17.902C103.246 18.214 103.144 18.478 102.939 18.694C102.736 18.898 102.478 19 102.166 19C101.854 19 101.596 18.898 101.392 18.694C101.188 18.478 101.086 18.214 101.086 17.902V13.294C101.086 12.898 101.032 12.544 100.924 12.232C100.828 11.908 100.648 11.65 100.384 11.458C100.12 11.266 99.7415 11.17 99.2495 11.17C98.7695 11.17 98.3615 11.266 98.0255 11.458C97.7015 11.65 97.4495 11.908 97.2695 12.232C97.1015 12.544 97.0175 12.898 97.0175 13.294V17.902C97.0175 18.214 96.9155 18.478 96.7115 18.694C96.5075 18.898 96.2495 19 95.9375 19C95.6255 19 95.3675 18.898 95.1635 18.694C94.9595 18.478 94.8575 18.214 94.8575 17.902V10.468C94.8575 10.156 94.9595 9.898 95.1635 9.694C95.3675 9.478 95.6255 9.37 95.9375 9.37C96.2495 9.37 96.5075 9.478 96.7115 9.694C96.9155 9.898 97.0175 10.156 97.0175 10.468V11.242L96.7475 11.188C96.8555 10.984 97.0115 10.768 97.2155 10.54C97.4195 10.3 97.6595 10.078 97.9355 9.874C98.2115 9.67 98.5235 9.508 98.8715 9.388C99.2195 9.256 99.5975 9.19 100.006 9.19Z" fill="#19191F"/>
<path d="M32.2 9.47663L32.8067 8.87663C32.9322 8.75109 33.0027 8.58083 33.0027 8.40329C33.0027 8.22576 32.9322 8.05549 32.8067 7.92996C32.6811 7.80442 32.5109 7.7339 32.3333 7.7339C32.1558 7.7339 31.9855 7.80442 31.86 7.92996L31.26 8.53663C30.3257 7.81386 29.1779 7.42172 27.9967 7.42172C26.8154 7.42172 25.6676 7.81386 24.7333 8.53663L24.1267 7.92329C24.0003 7.79776 23.8291 7.72758 23.651 7.72821C23.4728 7.72883 23.3022 7.80021 23.1767 7.92663C23.0511 8.05305 22.981 8.22416 22.9816 8.40232C22.9822 8.58048 23.0536 8.75109 23.18 8.87663L23.7933 9.48329C23.062 10.415 22.6652 11.5655 22.6667 12.75C22.6645 13.6002 22.8656 14.4387 23.2534 15.1955C23.6411 15.9522 24.2041 16.6053 24.8955 17.1002C25.5869 17.5952 26.3866 17.9177 27.2279 18.0408C28.0692 18.1639 28.9278 18.084 29.732 17.8079C30.5362 17.5318 31.2627 17.0674 31.851 16.4534C32.4392 15.8394 32.8722 15.0937 33.1137 14.2785C33.3552 13.4632 33.3983 12.602 33.2393 11.7667C33.0804 10.9314 32.724 10.1462 32.2 9.47663V9.47663ZM28 16.75C27.2089 16.75 26.4355 16.5154 25.7777 16.0758C25.1199 15.6363 24.6072 15.0116 24.3045 14.2807C24.0017 13.5498 23.9225 12.7455 24.0769 11.9696C24.2312 11.1937 24.6122 10.4809 25.1716 9.92153C25.731 9.36212 26.4437 8.98116 27.2196 8.82682C27.9956 8.67248 28.7998 8.75169 29.5307 9.05444C30.2616 9.35719 30.8864 9.86988 31.3259 10.5277C31.7654 11.1855 32 11.9588 32 12.75C32 13.8108 31.5786 14.8282 30.8284 15.5784C30.0783 16.3285 29.0609 16.75 28 16.75ZM26.6667 6.74996H29.3333C29.5102 6.74996 29.6797 6.67972 29.8047 6.5547C29.9298 6.42967 30 6.2601 30 6.08329C30 5.90648 29.9298 5.73691 29.8047 5.61189C29.6797 5.48686 29.5102 5.41663 29.3333 5.41663H26.6667C26.4899 5.41663 26.3203 5.48686 26.1953 5.61189C26.0702 5.73691 26 5.90648 26 6.08329C26 6.2601 26.0702 6.42967 26.1953 6.5547C26.3203 6.67972 26.4899 6.74996 26.6667 6.74996V6.74996ZM28.6667 10.75C28.6667 10.5731 28.5964 10.4036 28.4714 10.2786C28.3464 10.1535 28.1768 10.0833 28 10.0833C27.8232 10.0833 27.6536 10.1535 27.5286 10.2786C27.4036 10.4036 27.3333 10.5731 27.3333 10.75V12.01C27.1824 12.145 27.076 12.3226 27.0282 12.5195C26.9805 12.7163 26.9936 12.9229 27.0658 13.1121C27.1381 13.3013 27.2661 13.4641 27.4329 13.579C27.5997 13.6938 27.7975 13.7553 28 13.7553C28.2025 13.7553 28.4003 13.6938 28.5671 13.579C28.7339 13.4641 28.8619 13.3013 28.9342 13.1121C29.0064 12.9229 29.0196 12.7163 28.9718 12.5195C28.924 12.3226 28.8176 12.145 28.6667 12.01V10.75Z" fill="#19191F"/>
<path d="M28 1.5C28 0.671573 28.6742 -0.00966673 29.4961 0.0936177C31.5653 0.353619 33.5403 1.14981 35.2198 2.41487C37.3005 3.98211 38.8147 6.18385 39.5338 8.68755C40.2528 11.1913 40.1376 13.8609 39.2056 16.2934C38.2736 18.7259 36.5754 20.7891 34.3675 22.1713C32.1596 23.5535 29.5618 24.1798 26.9666 23.9554C24.3713 23.7311 21.9196 22.6684 19.9816 20.9278C18.0436 19.1871 16.7246 16.8632 16.2238 14.3069C15.8196 12.2434 15.9662 10.119 16.6363 8.14421C16.9025 7.35971 17.8098 7.05089 18.555 7.41281C19.3002 7.77473 19.5974 8.67078 19.3642 9.46568C18.9597 10.8439 18.889 12.3064 19.1679 13.7301C19.5434 15.6474 20.5327 17.3904 21.9862 18.6958C23.4397 20.0013 25.2785 20.7983 27.2249 20.9666C29.1713 21.1348 31.1197 20.6651 32.7756 19.6285C34.4316 18.5918 35.7052 17.0444 36.4042 15.2201C37.1032 13.3957 37.1896 11.3934 36.6503 9.51567C36.111 7.63789 34.9754 5.98659 33.4148 4.81115C32.256 3.93826 30.9095 3.363 29.4931 3.12471C28.6762 2.98727 28 2.32843 28 1.5Z" fill="url(#paint0_angular_320_1543)"/>
<path d="M22.648 68.588C22.832 68.588 22.988 68.66 23.116 68.804C23.252 68.948 23.32 69.1 23.32 69.26C23.32 69.412 23.268 69.556 23.164 69.692L20.752 72.872L19.936 71.756L22.06 68.936C22.228 68.704 22.424 68.588 22.648 68.588ZM17.296 68.564C17.528 68.564 17.724 68.668 17.884 68.876L23.164 75.896C23.26 76.024 23.308 76.172 23.308 76.34C23.308 76.564 23.228 76.74 23.068 76.868C22.908 76.996 22.748 77.06 22.588 77.06C22.356 77.06 22.16 76.956 22 76.748L16.72 69.728C16.616 69.6 16.564 69.456 16.564 69.296C16.564 69.088 16.64 68.916 16.792 68.78C16.952 68.636 17.12 68.564 17.296 68.564ZM17.188 77.06C17.012 77.06 16.86 76.996 16.732 76.868C16.604 76.732 16.54 76.584 16.54 76.424C16.54 76.248 16.6 76.084 16.72 75.932L19.156 72.632L19.948 73.796L17.788 76.724C17.628 76.948 17.428 77.06 17.188 77.06ZM25.4233 72.308C25.1913 72.308 25.0113 72.248 24.8833 72.128C24.7633 72 24.7033 71.82 24.7033 71.588V71.384C24.7033 71.152 24.7633 70.976 24.8833 70.856C25.0113 70.728 25.1913 70.664 25.4233 70.664H25.5793C25.8113 70.664 25.9873 70.728 26.1073 70.856C26.2353 70.976 26.2993 71.152 26.2993 71.384V71.588C26.2993 71.82 26.2353 72 26.1073 72.128C25.9873 72.248 25.8113 72.308 25.5793 72.308H25.4233ZM25.4233 77C25.1913 77 25.0113 76.94 24.8833 76.82C24.7633 76.692 24.7033 76.512 24.7033 76.28V76.076C24.7033 75.844 24.7633 75.668 24.8833 75.548C25.0113 75.42 25.1913 75.356 25.4233 75.356H25.5793C25.8113 75.356 25.9873 75.42 26.1073 75.548C26.2353 75.668 26.2993 75.844 26.2993 76.076V76.28C26.2993 76.512 26.2353 76.692 26.1073 76.82C25.9873 76.94 25.8113 77 25.5793 77H25.4233ZM33.7205 68.6C33.8965 68.6 34.0685 68.664 34.2365 68.792C34.4125 68.92 34.5005 69.092 34.5005 69.308C34.5005 69.46 34.4445 69.612 34.3325 69.764L29.7365 75.668L29.5925 75.62H33.6005C33.8085 75.62 33.9805 75.684 34.1165 75.812C34.2605 75.932 34.3325 76.096 34.3325 76.304C34.3325 76.504 34.2605 76.672 34.1165 76.808C33.9805 76.936 33.8085 77 33.6005 77H28.3325C28.1245 77 27.9445 76.928 27.7925 76.784C27.6405 76.632 27.5645 76.468 27.5645 76.292C27.5645 76.14 27.6205 75.988 27.7325 75.836L32.3405 69.908L32.4485 69.98H28.8125C28.6045 69.98 28.4285 69.916 28.2845 69.788C28.1485 69.66 28.0805 69.492 28.0805 69.284C28.0805 69.076 28.1485 68.912 28.2845 68.792C28.4285 68.664 28.6045 68.6 28.8125 68.6H33.7205ZM41.5018 68.6C41.6778 68.6 41.8498 68.664 42.0178 68.792C42.1938 68.92 42.2818 69.092 42.2818 69.308C42.2818 69.46 42.2258 69.612 42.1138 69.764L37.5178 75.668L37.3738 75.62H41.3818C41.5898 75.62 41.7618 75.684 41.8978 75.812C42.0418 75.932 42.1138 76.096 42.1138 76.304C42.1138 76.504 42.0418 76.672 41.8978 76.808C41.7618 76.936 41.5898 77 41.3818 77H36.1138C35.9058 77 35.7258 76.928 35.5738 76.784C35.4218 76.632 35.3458 76.468 35.3458 76.292C35.3458 76.14 35.4018 75.988 35.5138 75.836L40.1218 69.908L40.2298 69.98H36.5938C36.3858 69.98 36.2098 69.916 36.0658 69.788C35.9298 69.66 35.8618 69.492 35.8618 69.284C35.8618 69.076 35.9298 68.912 36.0658 68.792C36.2098 68.664 36.3858 68.6 36.5938 68.6H41.5018ZM50.2223 70.46C50.8623 70.46 51.3343 70.616 51.6383 70.928C51.9423 71.232 52.1423 71.628 52.2383 72.116L52.0343 72.008L52.1303 71.816C52.2263 71.632 52.3743 71.436 52.5743 71.228C52.7743 71.012 53.0143 70.832 53.2943 70.688C53.5823 70.536 53.9023 70.46 54.2543 70.46C54.8303 70.46 55.2663 70.584 55.5623 70.832C55.8663 71.08 56.0743 71.412 56.1863 71.828C56.2983 72.236 56.3543 72.692 56.3543 73.196V76.268C56.3543 76.476 56.2863 76.652 56.1503 76.796C56.0143 76.932 55.8423 77 55.6343 77C55.4263 77 55.2543 76.932 55.1183 76.796C54.9823 76.652 54.9143 76.476 54.9143 76.268V73.196C54.9143 72.932 54.8823 72.696 54.8183 72.488C54.7543 72.272 54.6383 72.1 54.4703 71.972C54.3023 71.844 54.0623 71.78 53.7503 71.78C53.4463 71.78 53.1863 71.844 52.9703 71.972C52.7543 72.1 52.5903 72.272 52.4783 72.488C52.3743 72.696 52.3223 72.932 52.3223 73.196V76.268C52.3223 76.476 52.2543 76.652 52.1183 76.796C51.9823 76.932 51.8103 77 51.6023 77C51.3943 77 51.2223 76.932 51.0863 76.796C50.9503 76.652 50.8823 76.476 50.8823 76.268V73.196C50.8823 72.932 50.8503 72.696 50.7863 72.488C50.7223 72.272 50.6063 72.1 50.4383 71.972C50.2703 71.844 50.0303 71.78 49.7183 71.78C49.4143 71.78 49.1543 71.844 48.9383 71.972C48.7223 72.1 48.5583 72.272 48.4463 72.488C48.3423 72.696 48.2903 72.932 48.2903 73.196V76.268C48.2903 76.476 48.2223 76.652 48.0863 76.796C47.9503 76.932 47.7783 77 47.5703 77C47.3623 77 47.1903 76.932 47.0543 76.796C46.9183 76.652 46.8503 76.476 46.8503 76.268V71.312C46.8503 71.104 46.9183 70.932 47.0543 70.796C47.1903 70.652 47.3623 70.58 47.5703 70.58C47.7783 70.58 47.9503 70.652 48.0863 70.796C48.2223 70.932 48.2903 71.104 48.2903 71.312V71.828L48.1103 71.792C48.1823 71.656 48.2823 71.512 48.4103 71.36C48.5383 71.2 48.6943 71.052 48.8783 70.916C49.0623 70.78 49.2663 70.672 49.4903 70.592C49.7143 70.504 49.9583 70.46 50.2223 70.46ZM59.2688 76.268C59.2688 76.476 59.2008 76.652 59.0648 76.796C58.9288 76.932 58.7568 77 58.5488 77C58.3408 77 58.1688 76.932 58.0328 76.796C57.8968 76.652 57.8288 76.476 57.8288 76.268V71.312C57.8288 71.104 57.8968 70.932 58.0328 70.796C58.1688 70.652 58.3408 70.58 58.5488 70.58C58.7568 70.58 58.9288 70.652 59.0648 70.796C59.2008 70.932 59.2688 71.104 59.2688 71.312V76.268ZM58.5368 69.8C58.2648 69.8 58.0728 69.756 57.9608 69.668C57.8488 69.58 57.7928 69.424 57.7928 69.2V68.972C57.7928 68.74 57.8528 68.584 57.9728 68.504C58.1008 68.416 58.2928 68.372 58.5488 68.372C58.8288 68.372 59.0248 68.416 59.1368 68.504C59.2488 68.592 59.3048 68.748 59.3048 68.972V69.2C59.3048 69.432 59.2448 69.592 59.1248 69.68C59.0048 69.76 58.8088 69.8 58.5368 69.8ZM64.1808 70.46C64.7728 70.46 65.2208 70.584 65.5248 70.832C65.8368 71.08 66.0488 71.412 66.1608 71.828C66.2808 72.236 66.3408 72.692 66.3408 73.196V76.268C66.3408 76.476 66.2728 76.652 66.1367 76.796C66.0008 76.932 65.8288 77 65.6208 77C65.4128 77 65.2408 76.932 65.1048 76.796C64.9688 76.652 64.9008 76.476 64.9008 76.268V73.196C64.9008 72.932 64.8648 72.696 64.7928 72.488C64.7288 72.272 64.6088 72.1 64.4328 71.972C64.2568 71.844 64.0048 71.78 63.6768 71.78C63.3568 71.78 63.0848 71.844 62.8608 71.972C62.6448 72.1 62.4768 72.272 62.3568 72.488C62.2448 72.696 62.1888 72.932 62.1888 73.196V76.268C62.1888 76.476 62.1208 76.652 61.9848 76.796C61.8488 76.932 61.6768 77 61.4688 77C61.2608 77 61.0888 76.932 60.9528 76.796C60.8168 76.652 60.7488 76.476 60.7488 76.268V71.312C60.7488 71.104 60.8168 70.932 60.9528 70.796C61.0888 70.652 61.2608 70.58 61.4688 70.58C61.6768 70.58 61.8488 70.652 61.9848 70.796C62.1208 70.932 62.1888 71.104 62.1888 71.312V71.828L62.0088 71.792C62.0808 71.656 62.1848 71.512 62.3208 71.36C62.4568 71.2 62.6168 71.052 62.8008 70.916C62.9848 70.78 63.1928 70.672 63.4248 70.592C63.6568 70.504 63.9088 70.46 64.1808 70.46ZM67.5252 76.004C67.4452 75.892 67.4092 75.748 67.4172 75.572C67.4252 75.396 67.5292 75.244 67.7292 75.116C67.8572 75.036 67.9932 75.004 68.1372 75.02C68.2812 75.028 68.4212 75.1 68.5572 75.236C68.7892 75.468 69.0332 75.648 69.2892 75.776C69.5452 75.904 69.8652 75.968 70.2492 75.968C70.3692 75.96 70.5012 75.944 70.6452 75.92C70.7892 75.888 70.9132 75.824 71.0172 75.728C71.1292 75.624 71.1852 75.468 71.1852 75.26C71.1852 75.084 71.1252 74.944 71.0052 74.84C70.8852 74.736 70.7252 74.648 70.5252 74.576C70.3332 74.504 70.1172 74.436 69.8772 74.372C69.6292 74.3 69.3732 74.22 69.1092 74.132C68.8532 74.044 68.6172 73.932 68.4012 73.796C68.1852 73.652 68.0092 73.464 67.8732 73.232C67.7372 73 67.6692 72.708 67.6692 72.356C67.6692 71.956 67.7812 71.616 68.0052 71.336C68.2292 71.056 68.5172 70.84 68.8692 70.688C69.2292 70.536 69.6052 70.46 69.9972 70.46C70.2452 70.46 70.5052 70.492 70.7772 70.556C71.0492 70.612 71.3092 70.708 71.5572 70.844C71.8052 70.972 72.0132 71.144 72.1812 71.36C72.2692 71.48 72.3212 71.624 72.3372 71.792C72.3532 71.96 72.2772 72.112 72.1092 72.248C71.9892 72.344 71.8492 72.388 71.6892 72.38C71.5292 72.364 71.3972 72.308 71.2932 72.212C71.1572 72.036 70.9732 71.896 70.7412 71.792C70.5172 71.688 70.2572 71.636 69.9612 71.636C69.8412 71.636 69.7092 71.652 69.5652 71.684C69.4292 71.708 69.3092 71.768 69.2052 71.864C69.1012 71.952 69.0492 72.096 69.0492 72.296C69.0492 72.48 69.1092 72.628 69.2292 72.74C69.3492 72.844 69.5092 72.932 69.7092 73.004C69.9172 73.068 70.1372 73.132 70.3692 73.196C70.6092 73.26 70.8532 73.336 71.1012 73.424C71.3492 73.512 71.5772 73.628 71.7852 73.772C71.9932 73.916 72.1612 74.104 72.2892 74.336C72.4172 74.56 72.4812 74.848 72.4812 75.2C72.4812 75.608 72.3612 75.956 72.1212 76.244C71.8812 76.532 71.5812 76.752 71.2212 76.904C70.8612 77.048 70.4932 77.12 70.1172 77.12C69.6452 77.12 69.1732 77.04 68.7012 76.88C68.2292 76.712 67.8372 76.42 67.5252 76.004Z" fill="#5B588F"/>
<rect width="173" height="1" transform="matrix(1 0 0 -1 0 35)" fill="#E9E9F4"/>
<rect width="138" height="1" transform="matrix(1 0 0 -1 0 35)" fill="#69CA94"/>
<defs>
<radialGradient id="paint0_angular_320_1543" cx="0" cy="0" r="1" gradientUnits="userSpaceOnUse" gradientTransform="translate(28 12) rotate(-90) scale(12)">
<stop stop-color="#E1E1FB"/>
<stop offset="1" stop-color="#9696D6"/>
</radialGradient>
</defs>
</svg>
