<svg width="180" height="56" viewBox="0 0 180 56" fill="none" xmlns="http://www.w3.org/2000/svg">
<path d="M36.484 6.382C36.652 6.382 36.826 6.43 37.006 6.526C37.198 6.61 37.342 6.724 37.438 6.868L41.812 13.6L40.912 13.564L45.394 6.868C45.622 6.544 45.916 6.382 46.276 6.382C46.564 6.382 46.822 6.484 47.05 6.688C47.278 6.892 47.392 7.156 47.392 7.48V17.902C47.392 18.214 47.29 18.478 47.086 18.694C46.882 18.898 46.612 19 46.276 19C45.94 19 45.664 18.898 45.448 18.694C45.244 18.478 45.142 18.214 45.142 17.902V9.424L45.844 9.586L42.172 15.184C42.064 15.316 41.926 15.43 41.758 15.526C41.602 15.622 41.44 15.664 41.272 15.652C41.116 15.664 40.954 15.622 40.786 15.526C40.63 15.43 40.498 15.316 40.39 15.184L36.952 9.748L37.42 8.794V17.902C37.42 18.214 37.324 18.478 37.132 18.694C36.94 18.898 36.688 19 36.376 19C36.076 19 35.83 18.898 35.638 18.694C35.446 18.478 35.35 18.214 35.35 17.902V7.48C35.35 7.18 35.458 6.922 35.674 6.706C35.902 6.49 36.172 6.382 36.484 6.382ZM59.26 14.194C59.26 15.178 59.038 16.048 58.594 16.804C58.162 17.548 57.574 18.13 56.83 18.55C56.098 18.97 55.276 19.18 54.364 19.18C53.452 19.18 52.624 18.97 51.88 18.55C51.148 18.13 50.56 17.548 50.116 16.804C49.684 16.048 49.468 15.178 49.468 14.194C49.468 13.21 49.684 12.346 50.116 11.602C50.56 10.846 51.148 10.258 51.88 9.838C52.624 9.406 53.452 9.19 54.364 9.19C55.276 9.19 56.098 9.406 56.83 9.838C57.574 10.258 58.162 10.846 58.594 11.602C59.038 12.346 59.26 13.21 59.26 14.194ZM57.1 14.194C57.1 13.582 56.974 13.054 56.722 12.61C56.482 12.154 56.152 11.8 55.732 11.548C55.324 11.296 54.868 11.17 54.364 11.17C53.86 11.17 53.398 11.296 52.978 11.548C52.57 11.8 52.24 12.154 51.988 12.61C51.748 13.054 51.628 13.582 51.628 14.194C51.628 14.794 51.748 15.322 51.988 15.778C52.24 16.222 52.57 16.57 52.978 16.822C53.398 17.074 53.86 17.2 54.364 17.2C54.868 17.2 55.324 17.074 55.732 16.822C56.152 16.57 56.482 16.222 56.722 15.778C56.974 15.322 57.1 14.794 57.1 14.194ZM66.2985 9.19C67.1865 9.19 67.8585 9.376 68.3145 9.748C68.7825 10.12 69.1005 10.618 69.2685 11.242C69.4485 11.854 69.5385 12.538 69.5385 13.294V17.902C69.5385 18.214 69.4365 18.478 69.2325 18.694C69.0285 18.898 68.7705 19 68.4585 19C68.1465 19 67.8885 18.898 67.6845 18.694C67.4805 18.478 67.3785 18.214 67.3785 17.902V13.294C67.3785 12.898 67.3245 12.544 67.2165 12.232C67.1205 11.908 66.9405 11.65 66.6765 11.458C66.4125 11.266 66.0345 11.17 65.5425 11.17C65.0625 11.17 64.6545 11.266 64.3185 11.458C63.9945 11.65 63.7425 11.908 63.5625 12.232C63.3945 12.544 63.3105 12.898 63.3105 13.294V17.902C63.3105 18.214 63.2085 18.478 63.0045 18.694C62.8005 18.898 62.5425 19 62.2305 19C61.9185 19 61.6605 18.898 61.4565 18.694C61.2525 18.478 61.1505 18.214 61.1505 17.902V10.468C61.1505 10.156 61.2525 9.898 61.4565 9.694C61.6605 9.478 61.9185 9.37 62.2305 9.37C62.5425 9.37 62.8005 9.478 63.0045 9.694C63.2085 9.898 63.3105 10.156 63.3105 10.468V11.242L63.0405 11.188C63.1485 10.984 63.3045 10.768 63.5085 10.54C63.7125 10.3 63.9525 10.078 64.2285 9.874C64.5045 9.67 64.8165 9.508 65.1645 9.388C65.5125 9.256 65.8905 9.19 66.2985 9.19ZM73.9071 17.902C73.9071 18.214 73.8051 18.478 73.6011 18.694C73.3971 18.898 73.1391 19 72.8271 19C72.5151 19 72.2571 18.898 72.0531 18.694C71.8491 18.478 71.7471 18.214 71.7471 17.902V10.468C71.7471 10.156 71.8491 9.898 72.0531 9.694C72.2571 9.478 72.5151 9.37 72.8271 9.37C73.1391 9.37 73.3971 9.478 73.6011 9.694C73.8051 9.898 73.9071 10.156 73.9071 10.468V17.902ZM72.8091 8.2C72.4011 8.2 72.1131 8.134 71.9451 8.002C71.7771 7.87 71.6931 7.636 71.6931 7.3V6.958C71.6931 6.61 71.7831 6.376 71.9631 6.256C72.1551 6.124 72.4431 6.058 72.8271 6.058C73.2471 6.058 73.5411 6.124 73.7091 6.256C73.8771 6.388 73.9611 6.622 73.9611 6.958V7.3C73.9611 7.648 73.8711 7.888 73.6911 8.02C73.5111 8.14 73.2171 8.2 72.8091 8.2ZM76.235 9.55H80.501C80.789 9.55 81.029 9.646 81.221 9.838C81.413 10.03 81.509 10.27 81.509 10.558C81.509 10.834 81.413 11.068 81.221 11.26C81.029 11.44 80.789 11.53 80.501 11.53H76.235C75.947 11.53 75.707 11.434 75.515 11.242C75.323 11.05 75.227 10.81 75.227 10.522C75.227 10.246 75.323 10.018 75.515 9.838C75.707 9.646 75.947 9.55 76.235 9.55ZM78.161 7.3C78.473 7.3 78.725 7.408 78.917 7.624C79.121 7.828 79.223 8.086 79.223 8.398V16.408C79.223 16.576 79.253 16.714 79.313 16.822C79.385 16.93 79.475 17.008 79.583 17.056C79.703 17.104 79.829 17.128 79.961 17.128C80.105 17.128 80.237 17.104 80.357 17.056C80.477 16.996 80.615 16.966 80.771 16.966C80.939 16.966 81.089 17.044 81.221 17.2C81.365 17.356 81.437 17.572 81.437 17.848C81.437 18.184 81.251 18.46 80.879 18.676C80.519 18.892 80.129 19 79.709 19C79.457 19 79.175 18.982 78.863 18.946C78.563 18.898 78.275 18.796 77.999 18.64C77.735 18.472 77.513 18.22 77.333 17.884C77.153 17.548 77.063 17.086 77.063 16.498V8.398C77.063 8.086 77.165 7.828 77.369 7.624C77.585 7.408 77.849 7.3 78.161 7.3ZM92.7464 14.194C92.7464 15.178 92.5244 16.048 92.0804 16.804C91.6484 17.548 91.0604 18.13 90.3164 18.55C89.5844 18.97 88.7624 19.18 87.8504 19.18C86.9384 19.18 86.1104 18.97 85.3664 18.55C84.6344 18.13 84.0464 17.548 83.6024 16.804C83.1704 16.048 82.9544 15.178 82.9544 14.194C82.9544 13.21 83.1704 12.346 83.6024 11.602C84.0464 10.846 84.6344 10.258 85.3664 9.838C86.1104 9.406 86.9384 9.19 87.8504 9.19C88.7624 9.19 89.5844 9.406 90.3164 9.838C91.0604 10.258 91.6484 10.846 92.0804 11.602C92.5244 12.346 92.7464 13.21 92.7464 14.194ZM90.5864 14.194C90.5864 13.582 90.4604 13.054 90.2084 12.61C89.9684 12.154 89.6384 11.8 89.2184 11.548C88.8104 11.296 88.3544 11.17 87.8504 11.17C87.3464 11.17 86.8844 11.296 86.4644 11.548C86.0564 11.8 85.7264 12.154 85.4744 12.61C85.2344 13.054 85.1144 13.582 85.1144 14.194C85.1144 14.794 85.2344 15.322 85.4744 15.778C85.7264 16.222 86.0564 16.57 86.4644 16.822C86.8844 17.074 87.3464 17.2 87.8504 17.2C88.3544 17.2 88.8104 17.074 89.2184 16.822C89.6384 16.57 89.9684 16.222 90.2084 15.778C90.4604 15.322 90.5864 14.794 90.5864 14.194ZM95.7168 19C95.4048 19 95.1468 18.898 94.9428 18.694C94.7388 18.478 94.6368 18.214 94.6368 17.902V10.468C94.6368 10.156 94.7388 9.898 94.9428 9.694C95.1468 9.478 95.4048 9.37 95.7168 9.37C96.0288 9.37 96.2868 9.478 96.4908 9.694C96.6948 9.898 96.7968 10.156 96.7968 10.468V12.16L96.6708 10.954C96.8028 10.666 96.9708 10.414 97.1748 10.198C97.3908 9.97 97.6308 9.784 97.8948 9.64C98.1588 9.484 98.4408 9.37 98.7408 9.298C99.0408 9.226 99.3408 9.19 99.6408 9.19C100.001 9.19 100.301 9.292 100.541 9.496C100.793 9.7 100.919 9.94 100.919 10.216C100.919 10.612 100.817 10.9 100.613 11.08C100.409 11.248 100.187 11.332 99.9468 11.332C99.7188 11.332 99.5088 11.29 99.3168 11.206C99.1368 11.122 98.9268 11.08 98.6868 11.08C98.4708 11.08 98.2488 11.134 98.0208 11.242C97.8048 11.338 97.6008 11.494 97.4088 11.71C97.2288 11.926 97.0788 12.196 96.9588 12.52C96.8508 12.832 96.7968 13.204 96.7968 13.636V17.902C96.7968 18.214 96.6948 18.478 96.4908 18.694C96.2868 18.898 96.0288 19 95.7168 19Z" fill="white"/>
<path d="M4.368 51C4.10667 51 3.892 50.9207 3.724 50.762C3.556 50.594 3.472 50.3887 3.472 50.146V42.026H5.292V50.146C5.292 50.3887 5.20333 50.594 5.026 50.762C4.858 50.9207 4.63867 51 4.368 51ZM1.274 42.81C1.03133 42.81 0.826 42.7353 0.658 42.586C0.499333 42.4367 0.42 42.2407 0.42 41.998C0.42 41.7553 0.499333 41.564 0.658 41.424C0.826 41.2747 1.03133 41.2 1.274 41.2H7.49C7.73267 41.2 7.93333 41.2747 8.092 41.424C8.26 41.5733 8.344 41.7693 8.344 42.012C8.344 42.2547 8.26 42.4507 8.092 42.6C7.93333 42.74 7.73267 42.81 7.49 42.81H1.274ZM9.67969 51C9.43702 51 9.23635 50.9207 9.07769 50.762C8.91902 50.594 8.83969 50.3887 8.83969 50.146V44.364C8.83969 44.1213 8.91902 43.9207 9.07769 43.762C9.23635 43.594 9.43702 43.51 9.67969 43.51C9.92235 43.51 10.123 43.594 10.2817 43.762C10.4404 43.9207 10.5197 44.1213 10.5197 44.364V45.68L10.4217 44.742C10.5244 44.518 10.655 44.322 10.8137 44.154C10.9817 43.9767 11.1684 43.832 11.3737 43.72C11.579 43.5987 11.7984 43.51 12.0317 43.454C12.265 43.398 12.4984 43.37 12.7317 43.37C13.0117 43.37 13.245 43.4493 13.4317 43.608C13.6277 43.7667 13.7257 43.9533 13.7257 44.168C13.7257 44.476 13.6464 44.7 13.4877 44.84C13.329 44.9707 13.1564 45.036 12.9697 45.036C12.7924 45.036 12.629 45.0033 12.4797 44.938C12.3397 44.8727 12.1764 44.84 11.9897 44.84C11.8217 44.84 11.649 44.882 11.4717 44.966C11.3037 45.0407 11.145 45.162 10.9957 45.33C10.8557 45.498 10.739 45.708 10.6457 45.96C10.5617 46.2027 10.5197 46.492 10.5197 46.828V50.146C10.5197 50.3887 10.4404 50.594 10.2817 50.762C10.123 50.9207 9.92235 51 9.67969 51ZM20.8779 43.37C21.1206 43.37 21.3213 43.4493 21.4799 43.608C21.6386 43.7667 21.7179 43.972 21.7179 44.224V50.146C21.7179 50.3887 21.6386 50.594 21.4799 50.762C21.3213 50.9207 21.1206 51 20.8779 51C20.6353 51 20.4346 50.9207 20.2759 50.762C20.1173 50.594 20.0379 50.3887 20.0379 50.146V49.46L20.3459 49.586C20.3459 49.7073 20.2806 49.8567 20.1499 50.034C20.0193 50.202 19.8419 50.37 19.6179 50.538C19.3939 50.706 19.1279 50.8507 18.8199 50.972C18.5213 51.084 18.1946 51.14 17.8399 51.14C17.1959 51.14 16.6126 50.9767 16.0899 50.65C15.5673 50.314 15.1519 49.8567 14.8439 49.278C14.5453 48.69 14.3959 48.018 14.3959 47.262C14.3959 46.4967 14.5453 45.8247 14.8439 45.246C15.1519 44.658 15.5626 44.2007 16.0759 43.874C16.5893 43.538 17.1586 43.37 17.7839 43.37C18.1853 43.37 18.5539 43.4307 18.8899 43.552C19.2259 43.6733 19.5153 43.8273 19.7579 44.014C20.0099 44.2007 20.2013 44.392 20.3319 44.588C20.4719 44.7747 20.5419 44.9333 20.5419 45.064L20.0379 45.246V44.224C20.0379 43.9813 20.1173 43.7807 20.2759 43.622C20.4346 43.454 20.6353 43.37 20.8779 43.37ZM18.0499 49.6C18.4606 49.6 18.8199 49.4973 19.1279 49.292C19.4359 49.0867 19.6739 48.8067 19.8419 48.452C20.0193 48.0973 20.1079 47.7007 20.1079 47.262C20.1079 46.814 20.0193 46.4127 19.8419 46.058C19.6739 45.7033 19.4359 45.4233 19.1279 45.218C18.8199 45.0127 18.4606 44.91 18.0499 44.91C17.6486 44.91 17.2939 45.0127 16.9859 45.218C16.6779 45.4233 16.4353 45.7033 16.2579 46.058C16.0899 46.4127 16.0059 46.814 16.0059 47.262C16.0059 47.7007 16.0899 48.0973 16.2579 48.452C16.4353 48.8067 16.6779 49.0867 16.9859 49.292C17.2939 49.4973 17.6486 49.6 18.0499 49.6ZM26.869 43.37C27.401 43.37 27.863 43.426 28.255 43.538C28.6563 43.65 28.9643 43.8087 29.179 44.014C29.403 44.21 29.515 44.448 29.515 44.728C29.515 44.9147 29.459 45.092 29.347 45.26C29.235 45.4187 29.0716 45.498 28.857 45.498C28.7076 45.498 28.5816 45.4793 28.479 45.442C28.3856 45.3953 28.3016 45.3393 28.227 45.274C28.1523 45.2087 28.0636 45.148 27.961 45.092C27.8676 45.036 27.723 44.994 27.527 44.966C27.3403 44.9287 27.2003 44.91 27.107 44.91C26.631 44.91 26.225 45.0127 25.889 45.218C25.5623 45.4233 25.3103 45.7033 25.133 46.058C24.9556 46.4033 24.867 46.8047 24.867 47.262C24.867 47.71 24.9556 48.1113 25.133 48.466C25.3196 48.8113 25.5716 49.0867 25.889 49.292C26.2156 49.4973 26.589 49.6 27.009 49.6C27.2423 49.6 27.443 49.586 27.611 49.558C27.779 49.53 27.919 49.488 28.031 49.432C28.1616 49.3573 28.2783 49.278 28.381 49.194C28.4836 49.11 28.6376 49.068 28.843 49.068C29.0856 49.068 29.2723 49.1473 29.403 49.306C29.5336 49.4553 29.599 49.642 29.599 49.866C29.599 50.0993 29.4683 50.314 29.207 50.51C28.9456 50.6967 28.6003 50.8507 28.171 50.972C27.751 51.084 27.2936 51.14 26.799 51.14C26.0616 51.14 25.4223 50.972 24.881 50.636C24.3396 50.2907 23.9196 49.824 23.621 49.236C23.3316 48.648 23.187 47.99 23.187 47.262C23.187 46.4967 23.341 45.8247 23.649 45.246C23.9663 44.658 24.4003 44.2007 24.951 43.874C25.511 43.538 26.1503 43.37 26.869 43.37ZM31.7904 51C31.5477 51 31.3471 50.9207 31.1884 50.762C31.0297 50.594 30.9504 50.3887 30.9504 50.146V41.494C30.9504 41.2513 31.0297 41.0507 31.1884 40.892C31.3471 40.724 31.5477 40.64 31.7904 40.64C32.0331 40.64 32.2337 40.724 32.3924 40.892C32.5511 41.0507 32.6304 41.2513 32.6304 41.494V50.146C32.6304 50.3887 32.5511 50.594 32.3924 50.762C32.2337 50.9207 32.0331 51 31.7904 51ZM36.2424 43.51C36.4571 43.51 36.6437 43.5987 36.8024 43.776C36.9611 43.9533 37.0404 44.126 37.0404 44.294C37.0404 44.518 36.9284 44.728 36.7044 44.924L32.4904 48.802L32.4204 46.87L35.6264 43.776C35.8037 43.5987 36.0091 43.51 36.2424 43.51ZM36.4524 50.986C36.2097 50.986 36.0044 50.8927 35.8364 50.706L33.2464 47.962L34.5204 46.786L37.0404 49.53C37.2177 49.7167 37.3064 49.9267 37.3064 50.16C37.3064 50.4027 37.2084 50.6033 37.0124 50.762C36.8257 50.9113 36.6391 50.986 36.4524 50.986ZM48.2629 43.51C48.5056 43.51 48.7063 43.594 48.8649 43.762C49.0236 43.9207 49.1029 44.1213 49.1029 44.364V50.314C49.1029 51.1727 48.9396 51.854 48.6129 52.358C48.2956 52.8713 47.8663 53.24 47.3249 53.464C46.7836 53.688 46.1769 53.8 45.5049 53.8C45.2063 53.8 44.8889 53.7767 44.5529 53.73C44.2169 53.6833 43.9416 53.6133 43.7269 53.52C43.4469 53.3987 43.2509 53.2447 43.1389 53.058C43.0363 52.8807 43.0176 52.6893 43.0829 52.484C43.1669 52.2133 43.3023 52.0267 43.4889 51.924C43.6756 51.8307 43.8716 51.8213 44.0769 51.896C44.2263 51.9427 44.4223 52.0127 44.6649 52.106C44.9076 52.2087 45.1876 52.26 45.5049 52.26C45.9343 52.26 46.2889 52.1993 46.5689 52.078C46.8583 51.966 47.0729 51.77 47.2129 51.49C47.3623 51.2193 47.4369 50.846 47.4369 50.37V49.432L47.7309 49.768C47.5723 50.076 47.3716 50.3327 47.1289 50.538C46.8956 50.734 46.6156 50.8833 46.2889 50.986C45.9623 51.0887 45.5889 51.14 45.1689 51.14C44.6743 51.14 44.2403 51.028 43.8669 50.804C43.5029 50.5707 43.2183 50.2533 43.0129 49.852C42.8076 49.4413 42.7049 48.9747 42.7049 48.452V44.364C42.7049 44.1213 42.7843 43.9207 42.9429 43.762C43.1016 43.594 43.3023 43.51 43.5449 43.51C43.7876 43.51 43.9883 43.594 44.1469 43.762C44.3056 43.9207 44.3849 44.1213 44.3849 44.364V47.948C44.3849 48.5547 44.5156 48.984 44.7769 49.236C45.0476 49.4787 45.4209 49.6 45.8969 49.6C46.2236 49.6 46.4989 49.5393 46.7229 49.418C46.9469 49.2873 47.1196 49.1007 47.2409 48.858C47.3623 48.606 47.4229 48.3027 47.4229 47.948V44.364C47.4229 44.1213 47.5023 43.9207 47.6609 43.762C47.8196 43.594 48.0203 43.51 48.2629 43.51ZM58.1194 47.262C58.1194 48.0273 57.9467 48.704 57.6014 49.292C57.2654 49.8707 56.808 50.3233 56.2294 50.65C55.66 50.9767 55.0207 51.14 54.3114 51.14C53.602 51.14 52.958 50.9767 52.3794 50.65C51.81 50.3233 51.3527 49.8707 51.0074 49.292C50.6714 48.704 50.5034 48.0273 50.5034 47.262C50.5034 46.4967 50.6714 45.8247 51.0074 45.246C51.3527 44.658 51.81 44.2007 52.3794 43.874C52.958 43.538 53.602 43.37 54.3114 43.37C55.0207 43.37 55.66 43.538 56.2294 43.874C56.808 44.2007 57.2654 44.658 57.6014 45.246C57.9467 45.8247 58.1194 46.4967 58.1194 47.262ZM56.4394 47.262C56.4394 46.786 56.3414 46.3753 56.1454 46.03C55.9587 45.6753 55.702 45.4 55.3754 45.204C55.058 45.008 54.7034 44.91 54.3114 44.91C53.9194 44.91 53.56 45.008 53.2334 45.204C52.916 45.4 52.6594 45.6753 52.4634 46.03C52.2767 46.3753 52.1834 46.786 52.1834 47.262C52.1834 47.7287 52.2767 48.1393 52.4634 48.494C52.6594 48.8393 52.916 49.11 53.2334 49.306C53.56 49.502 53.9194 49.6 54.3114 49.6C54.7034 49.6 55.058 49.502 55.3754 49.306C55.702 49.11 55.9587 48.8393 56.1454 48.494C56.3414 48.1393 56.4394 47.7287 56.4394 47.262ZM65.1477 43.51C65.3904 43.51 65.591 43.594 65.7497 43.762C65.9084 43.9207 65.9877 44.1213 65.9877 44.364V47.92C65.9877 48.9093 65.7124 49.6933 65.1617 50.272C64.611 50.8507 63.8177 51.14 62.7817 51.14C61.7457 51.14 60.9524 50.8507 60.4017 50.272C59.8604 49.6933 59.5897 48.9093 59.5897 47.92V44.364C59.5897 44.1213 59.669 43.9207 59.8277 43.762C59.9864 43.594 60.187 43.51 60.4297 43.51C60.6724 43.51 60.873 43.594 61.0317 43.762C61.1904 43.9207 61.2697 44.1213 61.2697 44.364V47.92C61.2697 48.4893 61.3957 48.914 61.6477 49.194C61.8997 49.4647 62.2777 49.6 62.7817 49.6C63.295 49.6 63.6777 49.4647 63.9297 49.194C64.1817 48.914 64.3077 48.4893 64.3077 47.92V44.364C64.3077 44.1213 64.387 43.9207 64.5457 43.762C64.7044 43.594 64.905 43.51 65.1477 43.51ZM68.6465 51C68.4038 51 68.2032 50.9207 68.0445 50.762C67.8858 50.594 67.8065 50.3887 67.8065 50.146V44.364C67.8065 44.1213 67.8858 43.9207 68.0445 43.762C68.2032 43.594 68.4038 43.51 68.6465 43.51C68.8892 43.51 69.0898 43.594 69.2485 43.762C69.4072 43.9207 69.4865 44.1213 69.4865 44.364V45.68L69.3885 44.742C69.4912 44.518 69.6218 44.322 69.7805 44.154C69.9485 43.9767 70.1352 43.832 70.3405 43.72C70.5458 43.5987 70.7652 43.51 70.9985 43.454C71.2318 43.398 71.4652 43.37 71.6985 43.37C71.9785 43.37 72.2118 43.4493 72.3985 43.608C72.5945 43.7667 72.6925 43.9533 72.6925 44.168C72.6925 44.476 72.6132 44.7 72.4545 44.84C72.2958 44.9707 72.1232 45.036 71.9365 45.036C71.7592 45.036 71.5958 45.0033 71.4465 44.938C71.3065 44.8727 71.1432 44.84 70.9565 44.84C70.7885 44.84 70.6158 44.882 70.4385 44.966C70.2705 45.0407 70.1118 45.162 69.9625 45.33C69.8225 45.498 69.7058 45.708 69.6125 45.96C69.5285 46.2027 69.4865 46.492 69.4865 46.828V50.146C69.4865 50.3887 69.4072 50.594 69.2485 50.762C69.0898 50.9207 68.8892 51 68.6465 51ZM82.1406 41.2C82.8126 41.2 83.41 41.326 83.9326 41.578C84.4553 41.83 84.894 42.1847 85.2486 42.642C85.6126 43.09 85.8833 43.6127 86.0606 44.21C86.2473 44.798 86.3406 45.428 86.3406 46.1C86.3406 47.0053 86.1773 47.8313 85.8506 48.578C85.524 49.3153 85.048 49.9033 84.4226 50.342C83.8066 50.7807 83.046 51 82.1406 51H78.7946C78.552 51 78.3466 50.9207 78.1786 50.762C78.02 50.594 77.9406 50.3887 77.9406 50.146V42.054C77.9406 41.8113 78.02 41.6107 78.1786 41.452C78.3466 41.284 78.552 41.2 78.7946 41.2H82.1406ZM82.0006 49.39C82.5886 49.39 83.0693 49.2407 83.4426 48.942C83.816 48.634 84.0866 48.2327 84.2546 47.738C84.432 47.234 84.5206 46.688 84.5206 46.1C84.5206 45.6613 84.4693 45.246 84.3666 44.854C84.2733 44.4527 84.124 44.1027 83.9186 43.804C83.7133 43.496 83.452 43.2533 83.1346 43.076C82.8173 42.8987 82.4393 42.81 82.0006 42.81H79.5506L79.6906 42.684V49.544L79.6066 49.39H82.0006ZM93.9404 43.37C94.1831 43.37 94.3838 43.4493 94.5424 43.608C94.7011 43.7667 94.7804 43.972 94.7804 44.224V50.146C94.7804 50.3887 94.7011 50.594 94.5424 50.762C94.3838 50.9207 94.1831 51 93.9404 51C93.6978 51 93.4971 50.9207 93.3384 50.762C93.1798 50.594 93.1004 50.3887 93.1004 50.146V49.46L93.4084 49.586C93.4084 49.7073 93.3431 49.8567 93.2124 50.034C93.0818 50.202 92.9044 50.37 92.6804 50.538C92.4564 50.706 92.1904 50.8507 91.8824 50.972C91.5838 51.084 91.2571 51.14 90.9024 51.14C90.2584 51.14 89.6751 50.9767 89.1524 50.65C88.6298 50.314 88.2144 49.8567 87.9064 49.278C87.6078 48.69 87.4584 48.018 87.4584 47.262C87.4584 46.4967 87.6078 45.8247 87.9064 45.246C88.2144 44.658 88.6251 44.2007 89.1384 43.874C89.6518 43.538 90.2211 43.37 90.8464 43.37C91.2478 43.37 91.6164 43.4307 91.9524 43.552C92.2884 43.6733 92.5778 43.8273 92.8204 44.014C93.0724 44.2007 93.2638 44.392 93.3944 44.588C93.5344 44.7747 93.6044 44.9333 93.6044 45.064L93.1004 45.246V44.224C93.1004 43.9813 93.1798 43.7807 93.3384 43.622C93.4971 43.454 93.6978 43.37 93.9404 43.37ZM91.1124 49.6C91.5231 49.6 91.8824 49.4973 92.1904 49.292C92.4984 49.0867 92.7364 48.8067 92.9044 48.452C93.0818 48.0973 93.1704 47.7007 93.1704 47.262C93.1704 46.814 93.0818 46.4127 92.9044 46.058C92.7364 45.7033 92.4984 45.4233 92.1904 45.218C91.8824 45.0127 91.5231 44.91 91.1124 44.91C90.7111 44.91 90.3564 45.0127 90.0484 45.218C89.7404 45.4233 89.4978 45.7033 89.3204 46.058C89.1524 46.4127 89.0684 46.814 89.0684 47.262C89.0684 47.7007 89.1524 48.0973 89.3204 48.452C89.4978 48.8067 89.7404 49.0867 90.0484 49.292C90.3564 49.4973 90.7111 49.6 91.1124 49.6ZM96.6835 43.65H100.001C100.225 43.65 100.412 43.7247 100.561 43.874C100.711 44.0233 100.785 44.21 100.785 44.434C100.785 44.6487 100.711 44.8307 100.561 44.98C100.412 45.12 100.225 45.19 100.001 45.19H96.6835C96.4595 45.19 96.2728 45.1153 96.1235 44.966C95.9741 44.8167 95.8995 44.63 95.8995 44.406C95.8995 44.1913 95.9741 44.014 96.1235 43.874C96.2728 43.7247 96.4595 43.65 96.6835 43.65ZM98.1815 41.9C98.4241 41.9 98.6201 41.984 98.7695 42.152C98.9281 42.3107 99.0075 42.5113 99.0075 42.754V48.984C99.0075 49.1147 99.0308 49.222 99.0775 49.306C99.1335 49.39 99.2035 49.4507 99.2875 49.488C99.3808 49.5253 99.4788 49.544 99.5815 49.544C99.6935 49.544 99.7961 49.5253 99.8895 49.488C99.9828 49.4413 100.09 49.418 100.211 49.418C100.342 49.418 100.459 49.4787 100.561 49.6C100.673 49.7213 100.729 49.8893 100.729 50.104C100.729 50.3653 100.585 50.58 100.295 50.748C100.015 50.916 99.7121 51 99.3855 51C99.1895 51 98.9701 50.986 98.7275 50.958C98.4941 50.9207 98.2701 50.8413 98.0555 50.72C97.8501 50.5893 97.6775 50.3933 97.5375 50.132C97.3975 49.8707 97.3275 49.5113 97.3275 49.054V42.754C97.3275 42.5113 97.4068 42.3107 97.5655 42.152C97.7335 41.984 97.9388 41.9 98.1815 41.9ZM108.46 43.37C108.703 43.37 108.903 43.4493 109.062 43.608C109.221 43.7667 109.3 43.972 109.3 44.224V50.146C109.3 50.3887 109.221 50.594 109.062 50.762C108.903 50.9207 108.703 51 108.46 51C108.217 51 108.017 50.9207 107.858 50.762C107.699 50.594 107.62 50.3887 107.62 50.146V49.46L107.928 49.586C107.928 49.7073 107.863 49.8567 107.732 50.034C107.601 50.202 107.424 50.37 107.2 50.538C106.976 50.706 106.71 50.8507 106.402 50.972C106.103 51.084 105.777 51.14 105.422 51.14C104.778 51.14 104.195 50.9767 103.672 50.65C103.149 50.314 102.734 49.8567 102.426 49.278C102.127 48.69 101.978 48.018 101.978 47.262C101.978 46.4967 102.127 45.8247 102.426 45.246C102.734 44.658 103.145 44.2007 103.658 43.874C104.171 43.538 104.741 43.37 105.366 43.37C105.767 43.37 106.136 43.4307 106.472 43.552C106.808 43.6733 107.097 43.8273 107.34 44.014C107.592 44.2007 107.783 44.392 107.914 44.588C108.054 44.7747 108.124 44.9333 108.124 45.064L107.62 45.246V44.224C107.62 43.9813 107.699 43.7807 107.858 43.622C108.017 43.454 108.217 43.37 108.46 43.37ZM105.632 49.6C106.043 49.6 106.402 49.4973 106.71 49.292C107.018 49.0867 107.256 48.8067 107.424 48.452C107.601 48.0973 107.69 47.7007 107.69 47.262C107.69 46.814 107.601 46.4127 107.424 46.058C107.256 45.7033 107.018 45.4233 106.71 45.218C106.402 45.0127 106.043 44.91 105.632 44.91C105.231 44.91 104.876 45.0127 104.568 45.218C104.26 45.4233 104.017 45.7033 103.84 46.058C103.672 46.4127 103.588 46.814 103.588 47.262C103.588 47.7007 103.672 48.0973 103.84 48.452C104.017 48.8067 104.26 49.0867 104.568 49.292C104.876 49.4973 105.231 49.6 105.632 49.6Z" fill="white"/>
<path d="M15.29 10.29L12.51 13.07C12.3435 13.0257 12.1722 13.0022 12 13C11.4696 13 10.9609 13.2107 10.5858 13.5858C10.2107 13.9609 10 14.4696 10 15C10.0022 15.1722 10.0257 15.3435 10.07 15.51L9.29 16.29C9.19627 16.383 9.12188 16.4936 9.07111 16.6154C9.02034 16.7373 8.9942 16.868 8.9942 17C8.9942 17.132 9.02034 17.2627 9.07111 17.3846C9.12188 17.5064 9.19627 17.617 9.29 17.71C9.38296 17.8037 9.49356 17.8781 9.61542 17.9289C9.73728 17.9797 9.86799 18.0058 10 18.0058C10.132 18.0058 10.2627 17.9797 10.3846 17.9289C10.5064 17.8781 10.617 17.8037 10.71 17.71L11.49 16.93C11.6565 16.9743 11.8278 16.9978 12 17C12.5304 17 13.0391 16.7893 13.4142 16.4142C13.7893 16.0391 14 15.5304 14 15C13.9978 14.8278 13.9743 14.6565 13.93 14.49L16.71 11.71C16.8983 11.5217 17.0041 11.2663 17.0041 11C17.0041 10.7337 16.8983 10.4783 16.71 10.29C16.5217 10.1017 16.2663 9.99591 16 9.99591C15.7337 9.99591 15.4783 10.1017 15.29 10.29ZM12 4C10.6868 4 9.38642 4.25866 8.17317 4.7612C6.95991 5.26375 5.85752 6.00035 4.92893 6.92893C3.05357 8.8043 2 11.3478 2 14C1.99508 15.9806 2.58372 17.9172 3.69 19.56C3.83852 19.7801 4.06841 19.9322 4.32908 19.9829C4.58976 20.0335 4.85987 19.9785 5.08 19.83C5.30013 19.6815 5.45224 19.4516 5.50288 19.1909C5.55351 18.9302 5.49852 18.6601 5.35 18.44C4.54452 17.2355 4.08128 15.8349 4.00975 14.3877C3.93823 12.9405 4.2611 11.501 4.94389 10.223C5.62667 8.94501 6.64375 7.87643 7.8865 7.13139C9.12925 6.38634 10.551 5.99281 12 5.99281C13.449 5.99281 14.8707 6.38634 16.1135 7.13139C17.3563 7.87643 18.3733 8.94501 19.0561 10.223C19.7389 11.501 20.0618 12.9405 19.9902 14.3877C19.9187 15.8349 19.4555 17.2355 18.65 18.44C18.5763 18.5489 18.5248 18.6714 18.4985 18.8002C18.4722 18.9291 18.4715 19.0619 18.4966 19.191C18.5217 19.3201 18.572 19.443 18.6447 19.5527C18.7173 19.6623 18.8109 19.7566 18.92 19.83C19.0855 19.9412 19.2806 20.0004 19.48 20C19.6438 20.0002 19.8052 19.9603 19.9499 19.8835C20.0946 19.8068 20.2183 19.6957 20.31 19.56C21.4163 17.9172 22.0049 15.9806 22 14C22 11.3478 20.9464 8.8043 19.0711 6.92893C17.1957 5.05357 14.6522 4 12 4Z" fill="white"/>
<path d="M165 6L171 12L165 18" stroke="white" stroke-width="1.68424" stroke-linecap="round" stroke-linejoin="round"/>
</svg>
