<svg width="244" height="48" viewBox="0 0 244 48" fill="none" xmlns="http://www.w3.org/2000/svg">
<path d="M58.066 12.1C58.066 12.8 57.9493 13.4533 57.716 14.06C57.4827 14.6667 57.1513 15.2033 56.722 15.67C56.302 16.1273 55.798 16.4867 55.21 16.748C54.6313 17.0093 53.9967 17.14 53.306 17.14C52.6153 17.14 51.9807 17.0093 51.402 16.748C50.8233 16.4867 50.3193 16.1273 49.89 15.67C49.47 15.2033 49.1433 14.6667 48.91 14.06C48.6767 13.4533 48.56 12.8 48.56 12.1C48.56 11.4 48.6767 10.7467 48.91 10.14C49.1433 9.53333 49.47 9.00133 49.89 8.544C50.3193 8.07733 50.8233 7.71333 51.402 7.452C51.9807 7.19067 52.6153 7.06 53.306 7.06C53.9967 7.06 54.6313 7.19067 55.21 7.452C55.798 7.71333 56.302 8.07733 56.722 8.544C57.1513 9.00133 57.4827 9.53333 57.716 10.14C57.9493 10.7467 58.066 11.4 58.066 12.1ZM56.246 12.1C56.246 11.4747 56.12 10.91 55.868 10.406C55.616 9.89267 55.2707 9.48667 54.832 9.188C54.3933 8.88933 53.8847 8.74 53.306 8.74C52.7273 8.74 52.2187 8.88933 51.78 9.188C51.3413 9.48667 50.996 9.888 50.744 10.392C50.5013 10.896 50.38 11.4653 50.38 12.1C50.38 12.7253 50.5013 13.2947 50.744 13.808C50.996 14.312 51.3413 14.7133 51.78 15.012C52.2187 15.3107 52.7273 15.46 53.306 15.46C53.8847 15.46 54.3933 15.3107 54.832 15.012C55.2707 14.7133 55.616 14.312 55.868 13.808C56.12 13.2947 56.246 12.7253 56.246 12.1ZM59.617 9.65H62.935C63.159 9.65 63.3457 9.72467 63.495 9.874C63.6444 10.0233 63.719 10.21 63.719 10.434C63.719 10.6487 63.6444 10.8307 63.495 10.98C63.3457 11.12 63.159 11.19 62.935 11.19H59.617C59.393 11.19 59.2064 11.1153 59.057 10.966C58.9077 10.8167 58.833 10.63 58.833 10.406C58.833 10.1913 58.9077 10.014 59.057 9.874C59.2064 9.72467 59.393 9.65 59.617 9.65ZM61.115 7.9C61.3577 7.9 61.5537 7.984 61.703 8.152C61.8617 8.31067 61.941 8.51133 61.941 8.754V14.984C61.941 15.1147 61.9644 15.222 62.011 15.306C62.067 15.39 62.137 15.4507 62.221 15.488C62.3144 15.5253 62.4124 15.544 62.515 15.544C62.627 15.544 62.7297 15.5253 62.823 15.488C62.9164 15.4413 63.0237 15.418 63.145 15.418C63.2757 15.418 63.3924 15.4787 63.495 15.6C63.607 15.7213 63.663 15.8893 63.663 16.104C63.663 16.3653 63.5184 16.58 63.229 16.748C62.949 16.916 62.6457 17 62.319 17C62.123 17 61.9037 16.986 61.661 16.958C61.4277 16.9207 61.2037 16.8413 60.989 16.72C60.7837 16.5893 60.611 16.3933 60.471 16.132C60.331 15.8707 60.261 15.5113 60.261 15.054V8.754C60.261 8.51133 60.3404 8.31067 60.499 8.152C60.667 7.984 60.8724 7.9 61.115 7.9ZM69.1956 9.37C69.8676 9.37 70.3762 9.51467 70.7216 9.804C71.0762 10.0933 71.3189 10.4807 71.4496 10.966C71.5802 11.442 71.6456 11.974 71.6456 12.562V16.146C71.6456 16.3887 71.5662 16.594 71.4076 16.762C71.2489 16.9207 71.0482 17 70.8056 17C70.5629 17 70.3622 16.9207 70.2036 16.762C70.0449 16.594 69.9656 16.3887 69.9656 16.146V12.562C69.9656 12.254 69.9282 11.9787 69.8536 11.736C69.7789 11.484 69.6436 11.2833 69.4476 11.134C69.2516 10.9847 68.9716 10.91 68.6076 10.91C68.2529 10.91 67.9496 10.9847 67.6976 11.134C67.4456 11.2833 67.2542 11.484 67.1236 11.736C67.0022 11.9787 66.9416 12.254 66.9416 12.562V16.146C66.9416 16.3887 66.8622 16.594 66.7036 16.762C66.5449 16.9207 66.3442 17 66.1016 17C65.8589 17 65.6582 16.9207 65.4996 16.762C65.3409 16.594 65.2616 16.3887 65.2616 16.146V7.494C65.2616 7.25133 65.3409 7.05067 65.4996 6.892C65.6582 6.724 65.8589 6.64 66.1016 6.64C66.3442 6.64 66.5449 6.724 66.7036 6.892C66.8622 7.05067 66.9416 7.25133 66.9416 7.494V10.966L66.7316 10.924C66.8156 10.7653 66.9322 10.5973 67.0816 10.42C67.2309 10.2333 67.4129 10.0607 67.6276 9.902C67.8422 9.74333 68.0802 9.61733 68.3416 9.524C68.6029 9.42133 68.8876 9.37 69.1956 9.37ZM76.9927 17.14C76.1994 17.14 75.5087 16.9767 74.9207 16.65C74.342 16.314 73.894 15.8613 73.5767 15.292C73.2687 14.7227 73.1147 14.0787 73.1147 13.36C73.1147 12.52 73.2827 11.806 73.6187 11.218C73.964 10.6207 74.412 10.1633 74.9627 9.846C75.5134 9.52867 76.0967 9.37 76.7127 9.37C77.1887 9.37 77.6367 9.468 78.0567 9.664C78.486 9.86 78.864 10.1307 79.1907 10.476C79.5174 10.812 79.774 11.204 79.9607 11.652C80.1567 12.1 80.2547 12.576 80.2547 13.08C80.2454 13.304 80.1567 13.486 79.9887 13.626C79.8207 13.766 79.6247 13.836 79.4007 13.836H74.0527L73.6327 12.436H78.7707L78.4627 12.716V12.338C78.444 12.0673 78.346 11.8247 78.1687 11.61C78.0007 11.3953 77.786 11.2273 77.5247 11.106C77.2727 10.9753 77.002 10.91 76.7127 10.91C76.4327 10.91 76.1714 10.9473 75.9287 11.022C75.686 11.0967 75.476 11.2227 75.2987 11.4C75.1214 11.5773 74.9814 11.8153 74.8787 12.114C74.776 12.4127 74.7247 12.7907 74.7247 13.248C74.7247 13.752 74.8274 14.1813 75.0327 14.536C75.2474 14.8813 75.518 15.1473 75.8447 15.334C76.1807 15.5113 76.5354 15.6 76.9087 15.6C77.254 15.6 77.5294 15.572 77.7347 15.516C77.94 15.46 78.1034 15.3947 78.2247 15.32C78.3554 15.236 78.472 15.166 78.5747 15.11C78.7427 15.026 78.9014 14.984 79.0507 14.984C79.256 14.984 79.424 15.054 79.5547 15.194C79.6947 15.334 79.7647 15.4973 79.7647 15.684C79.7647 15.936 79.634 16.1647 79.3727 16.37C79.13 16.5753 78.7894 16.7573 78.3507 16.916C77.912 17.0653 77.4594 17.14 76.9927 17.14ZM82.5625 17C82.3198 17 82.1192 16.9207 81.9605 16.762C81.8018 16.594 81.7225 16.3887 81.7225 16.146V10.364C81.7225 10.1213 81.8018 9.92067 81.9605 9.762C82.1192 9.594 82.3198 9.51 82.5625 9.51C82.8052 9.51 83.0058 9.594 83.1645 9.762C83.3232 9.92067 83.4025 10.1213 83.4025 10.364V11.68L83.3045 10.742C83.4072 10.518 83.5378 10.322 83.6965 10.154C83.8645 9.97667 84.0512 9.832 84.2565 9.72C84.4618 9.59867 84.6812 9.51 84.9145 9.454C85.1478 9.398 85.3812 9.37 85.6145 9.37C85.8945 9.37 86.1278 9.44933 86.3145 9.608C86.5105 9.76667 86.6085 9.95333 86.6085 10.168C86.6085 10.476 86.5292 10.7 86.3705 10.84C86.2118 10.9707 86.0392 11.036 85.8525 11.036C85.6752 11.036 85.5118 11.0033 85.3625 10.938C85.2225 10.8727 85.0592 10.84 84.8725 10.84C84.7045 10.84 84.5318 10.882 84.3545 10.966C84.1865 11.0407 84.0278 11.162 83.8785 11.33C83.7385 11.498 83.6218 11.708 83.5285 11.96C83.4445 12.2027 83.4025 12.492 83.4025 12.828V16.146C83.4025 16.3887 83.3232 16.594 83.1645 16.762C83.0058 16.9207 82.8052 17 82.5625 17ZM92.7386 17C92.4773 17 92.2626 16.9207 92.0946 16.762C91.936 16.594 91.8566 16.3887 91.8566 16.146V8.054C91.8566 7.81133 91.936 7.61067 92.0946 7.452C92.2626 7.284 92.468 7.2 92.7106 7.2H97.2606C97.5033 7.2 97.704 7.27933 97.8626 7.438C98.0306 7.58733 98.1146 7.78333 98.1146 8.026C98.1146 8.23133 98.0306 8.41333 97.8626 8.572C97.704 8.73067 97.5033 8.81 97.2606 8.81H93.4806L93.6066 8.642V11.456L93.5086 11.274H96.6306C96.8733 11.274 97.074 11.3533 97.2326 11.512C97.4006 11.6613 97.4846 11.8573 97.4846 12.1C97.4846 12.3053 97.4006 12.4873 97.2326 12.646C97.074 12.8047 96.8733 12.884 96.6306 12.884H93.4806L93.6066 12.758V16.146C93.6066 16.3887 93.518 16.594 93.3406 16.762C93.1726 16.9207 92.972 17 92.7386 17ZM101.16 16.146C101.16 16.3887 101.081 16.594 100.922 16.762C100.763 16.9207 100.563 17 100.32 17C100.077 17 99.8766 16.9207 99.718 16.762C99.5593 16.594 99.48 16.3887 99.48 16.146V10.364C99.48 10.1213 99.5593 9.92067 99.718 9.762C99.8766 9.594 100.077 9.51 100.32 9.51C100.563 9.51 100.763 9.594 100.922 9.762C101.081 9.92067 101.16 10.1213 101.16 10.364V16.146ZM100.306 8.6C99.9886 8.6 99.7646 8.54867 99.634 8.446C99.5033 8.34333 99.438 8.16133 99.438 7.9V7.634C99.438 7.36333 99.508 7.18133 99.648 7.088C99.7973 6.98533 100.021 6.934 100.32 6.934C100.647 6.934 100.875 6.98533 101.006 7.088C101.137 7.19067 101.202 7.37267 101.202 7.634V7.9C101.202 8.17067 101.132 8.35733 100.992 8.46C100.852 8.55333 100.623 8.6 100.306 8.6ZM104.707 16.146C104.707 16.3887 104.623 16.594 104.455 16.762C104.296 16.9207 104.095 17 103.853 17C103.619 17 103.423 16.9207 103.265 16.762C103.106 16.594 103.027 16.3887 103.027 16.146V7.494C103.027 7.25133 103.106 7.05067 103.265 6.892C103.433 6.724 103.638 6.64 103.881 6.64C104.123 6.64 104.319 6.724 104.469 6.892C104.627 7.05067 104.707 7.25133 104.707 7.494V16.146ZM110.051 17.14C109.258 17.14 108.567 16.9767 107.979 16.65C107.401 16.314 106.953 15.8613 106.635 15.292C106.327 14.7227 106.173 14.0787 106.173 13.36C106.173 12.52 106.341 11.806 106.677 11.218C107.023 10.6207 107.471 10.1633 108.021 9.846C108.572 9.52867 109.155 9.37 109.771 9.37C110.247 9.37 110.695 9.468 111.115 9.664C111.545 9.86 111.923 10.1307 112.249 10.476C112.576 10.812 112.833 11.204 113.019 11.652C113.215 12.1 113.313 12.576 113.313 13.08C113.304 13.304 113.215 13.486 113.047 13.626C112.879 13.766 112.683 13.836 112.459 13.836H107.111L106.691 12.436H111.829L111.521 12.716V12.338C111.503 12.0673 111.405 11.8247 111.227 11.61C111.059 11.3953 110.845 11.2273 110.583 11.106C110.331 10.9753 110.061 10.91 109.771 10.91C109.491 10.91 109.23 10.9473 108.987 11.022C108.745 11.0967 108.535 11.2227 108.357 11.4C108.18 11.5773 108.04 11.8153 107.937 12.114C107.835 12.4127 107.783 12.7907 107.783 13.248C107.783 13.752 107.886 14.1813 108.091 14.536C108.306 14.8813 108.577 15.1473 108.903 15.334C109.239 15.5113 109.594 15.6 109.967 15.6C110.313 15.6 110.588 15.572 110.793 15.516C110.999 15.46 111.162 15.3947 111.283 15.32C111.414 15.236 111.531 15.166 111.633 15.11C111.801 15.026 111.96 14.984 112.109 14.984C112.315 14.984 112.483 15.054 112.613 15.194C112.753 15.334 112.823 15.4973 112.823 15.684C112.823 15.936 112.693 16.1647 112.431 16.37C112.189 16.5753 111.848 16.7573 111.409 16.916C110.971 17.0653 110.518 17.14 110.051 17.14ZM119.727 17C119.466 17 119.251 16.9207 119.083 16.762C118.924 16.594 118.845 16.3887 118.845 16.146V8.054C118.845 7.81133 118.924 7.61067 119.083 7.452C119.251 7.284 119.456 7.2 119.699 7.2H124.249C124.492 7.2 124.692 7.27933 124.851 7.438C125.019 7.58733 125.103 7.78333 125.103 8.026C125.103 8.23133 125.019 8.41333 124.851 8.572C124.692 8.73067 124.492 8.81 124.249 8.81H120.469L120.595 8.642V11.456L120.497 11.274H123.619C123.862 11.274 124.062 11.3533 124.221 11.512C124.389 11.6613 124.473 11.8573 124.473 12.1C124.473 12.3053 124.389 12.4873 124.221 12.646C124.062 12.8047 123.862 12.884 123.619 12.884H120.469L120.595 12.758V16.146C120.595 16.3887 120.506 16.594 120.329 16.762C120.161 16.9207 119.96 17 119.727 17ZM133.627 13.262C133.627 14.0273 133.455 14.704 133.109 15.292C132.773 15.8707 132.316 16.3233 131.737 16.65C131.168 16.9767 130.529 17.14 129.819 17.14C129.11 17.14 128.466 16.9767 127.887 16.65C127.318 16.3233 126.861 15.8707 126.515 15.292C126.179 14.704 126.011 14.0273 126.011 13.262C126.011 12.4967 126.179 11.8247 126.515 11.246C126.861 10.658 127.318 10.2007 127.887 9.874C128.466 9.538 129.11 9.37 129.819 9.37C130.529 9.37 131.168 9.538 131.737 9.874C132.316 10.2007 132.773 10.658 133.109 11.246C133.455 11.8247 133.627 12.4967 133.627 13.262ZM131.947 13.262C131.947 12.786 131.849 12.3753 131.653 12.03C131.467 11.6753 131.21 11.4 130.883 11.204C130.566 11.008 130.211 10.91 129.819 10.91C129.427 10.91 129.068 11.008 128.741 11.204C128.424 11.4 128.167 11.6753 127.971 12.03C127.785 12.3753 127.691 12.786 127.691 13.262C127.691 13.7287 127.785 14.1393 127.971 14.494C128.167 14.8393 128.424 15.11 128.741 15.306C129.068 15.502 129.427 15.6 129.819 15.6C130.211 15.6 130.566 15.502 130.883 15.306C131.21 15.11 131.467 14.8393 131.653 14.494C131.849 14.1393 131.947 13.7287 131.947 13.262ZM135.938 17C135.695 17 135.494 16.9207 135.336 16.762C135.177 16.594 135.098 16.3887 135.098 16.146V10.364C135.098 10.1213 135.177 9.92067 135.336 9.762C135.494 9.594 135.695 9.51 135.938 9.51C136.18 9.51 136.381 9.594 136.54 9.762C136.698 9.92067 136.778 10.1213 136.778 10.364V11.68L136.68 10.742C136.782 10.518 136.913 10.322 137.072 10.154C137.24 9.97667 137.426 9.832 137.632 9.72C137.837 9.59867 138.056 9.51 138.29 9.454C138.523 9.398 138.756 9.37 138.99 9.37C139.27 9.37 139.503 9.44933 139.69 9.608C139.886 9.76667 139.984 9.95333 139.984 10.168C139.984 10.476 139.904 10.7 139.746 10.84C139.587 10.9707 139.414 11.036 139.228 11.036C139.05 11.036 138.887 11.0033 138.738 10.938C138.598 10.8727 138.434 10.84 138.248 10.84C138.08 10.84 137.907 10.882 137.73 10.966C137.562 11.0407 137.403 11.162 137.254 11.33C137.114 11.498 136.997 11.708 136.904 11.96C136.82 12.2027 136.778 12.492 136.778 12.828V16.146C136.778 16.3887 136.698 16.594 136.54 16.762C136.381 16.9207 136.18 17 135.938 17ZM145.102 9.37C145.848 9.37 146.399 9.552 146.754 9.916C147.108 10.2707 147.342 10.7327 147.454 11.302L147.216 11.176L147.328 10.952C147.44 10.7373 147.612 10.5087 147.846 10.266C148.079 10.014 148.359 9.804 148.686 9.636C149.022 9.45867 149.395 9.37 149.806 9.37C150.478 9.37 150.986 9.51467 151.332 9.804C151.686 10.0933 151.929 10.4807 152.06 10.966C152.19 11.442 152.256 11.974 152.256 12.562V16.146C152.256 16.3887 152.176 16.594 152.018 16.762C151.859 16.9207 151.658 17 151.416 17C151.173 17 150.972 16.9207 150.814 16.762C150.655 16.594 150.576 16.3887 150.576 16.146V12.562C150.576 12.254 150.538 11.9787 150.464 11.736C150.389 11.484 150.254 11.2833 150.058 11.134C149.862 10.9847 149.582 10.91 149.218 10.91C148.863 10.91 148.56 10.9847 148.308 11.134C148.056 11.2833 147.864 11.484 147.734 11.736C147.612 11.9787 147.552 12.254 147.552 12.562V16.146C147.552 16.3887 147.472 16.594 147.314 16.762C147.155 16.9207 146.954 17 146.712 17C146.469 17 146.268 16.9207 146.11 16.762C145.951 16.594 145.872 16.3887 145.872 16.146V12.562C145.872 12.254 145.834 11.9787 145.76 11.736C145.685 11.484 145.55 11.2833 145.354 11.134C145.158 10.9847 144.878 10.91 144.514 10.91C144.159 10.91 143.856 10.9847 143.604 11.134C143.352 11.2833 143.16 11.484 143.03 11.736C142.908 11.9787 142.848 12.254 142.848 12.562V16.146C142.848 16.3887 142.768 16.594 142.61 16.762C142.451 16.9207 142.25 17 142.008 17C141.765 17 141.564 16.9207 141.406 16.762C141.247 16.594 141.168 16.3887 141.168 16.146V10.364C141.168 10.1213 141.247 9.92067 141.406 9.762C141.564 9.594 141.765 9.51 142.008 9.51C142.25 9.51 142.451 9.594 142.61 9.762C142.768 9.92067 142.848 10.1213 142.848 10.364V10.966L142.638 10.924C142.722 10.7653 142.838 10.5973 142.988 10.42C143.137 10.2333 143.319 10.0607 143.534 9.902C143.748 9.74333 143.986 9.61733 144.248 9.524C144.509 9.42133 144.794 9.37 145.102 9.37ZM160.206 9.37C160.449 9.37 160.649 9.44933 160.808 9.608C160.967 9.76667 161.046 9.972 161.046 10.224V16.146C161.046 16.3887 160.967 16.594 160.808 16.762C160.649 16.9207 160.449 17 160.206 17C159.963 17 159.763 16.9207 159.604 16.762C159.445 16.594 159.366 16.3887 159.366 16.146V15.46L159.674 15.586C159.674 15.7073 159.609 15.8567 159.478 16.034C159.347 16.202 159.17 16.37 158.946 16.538C158.722 16.706 158.456 16.8507 158.148 16.972C157.849 17.084 157.523 17.14 157.168 17.14C156.524 17.14 155.941 16.9767 155.418 16.65C154.895 16.314 154.48 15.8567 154.172 15.278C153.873 14.69 153.724 14.018 153.724 13.262C153.724 12.4967 153.873 11.8247 154.172 11.246C154.48 10.658 154.891 10.2007 155.404 9.874C155.917 9.538 156.487 9.37 157.112 9.37C157.513 9.37 157.882 9.43067 158.218 9.552C158.554 9.67333 158.843 9.82733 159.086 10.014C159.338 10.2007 159.529 10.392 159.66 10.588C159.8 10.7747 159.87 10.9333 159.87 11.064L159.366 11.246V10.224C159.366 9.98133 159.445 9.78067 159.604 9.622C159.763 9.454 159.963 9.37 160.206 9.37ZM157.378 15.6C157.789 15.6 158.148 15.4973 158.456 15.292C158.764 15.0867 159.002 14.8067 159.17 14.452C159.347 14.0973 159.436 13.7007 159.436 13.262C159.436 12.814 159.347 12.4127 159.17 12.058C159.002 11.7033 158.764 11.4233 158.456 11.218C158.148 11.0127 157.789 10.91 157.378 10.91C156.977 10.91 156.622 11.0127 156.314 11.218C156.006 11.4233 155.763 11.7033 155.586 12.058C155.418 12.4127 155.334 12.814 155.334 13.262C155.334 13.7007 155.418 14.0973 155.586 14.452C155.763 14.8067 156.006 15.0867 156.314 15.292C156.622 15.4973 156.977 15.6 157.378 15.6ZM162.949 9.65H166.267C166.491 9.65 166.678 9.72467 166.827 9.874C166.976 10.0233 167.051 10.21 167.051 10.434C167.051 10.6487 166.976 10.8307 166.827 10.98C166.678 11.12 166.491 11.19 166.267 11.19H162.949C162.725 11.19 162.538 11.1153 162.389 10.966C162.24 10.8167 162.165 10.63 162.165 10.406C162.165 10.1913 162.24 10.014 162.389 9.874C162.538 9.72467 162.725 9.65 162.949 9.65ZM164.447 7.9C164.69 7.9 164.886 7.984 165.035 8.152C165.194 8.31067 165.273 8.51133 165.273 8.754V14.984C165.273 15.1147 165.296 15.222 165.343 15.306C165.399 15.39 165.469 15.4507 165.553 15.488C165.646 15.5253 165.744 15.544 165.847 15.544C165.959 15.544 166.062 15.5253 166.155 15.488C166.248 15.4413 166.356 15.418 166.477 15.418C166.608 15.418 166.724 15.4787 166.827 15.6C166.939 15.7213 166.995 15.8893 166.995 16.104C166.995 16.3653 166.85 16.58 166.561 16.748C166.281 16.916 165.978 17 165.651 17C165.455 17 165.236 16.986 164.993 16.958C164.76 16.9207 164.536 16.8413 164.321 16.72C164.116 16.5893 163.943 16.3933 163.803 16.132C163.663 15.8707 163.593 15.5113 163.593 15.054V8.754C163.593 8.51133 163.672 8.31067 163.831 8.152C163.999 7.984 164.204 7.9 164.447 7.9ZM168.433 15.838C168.34 15.7073 168.298 15.5393 168.307 15.334C168.316 15.1287 168.438 14.9513 168.671 14.802C168.82 14.7087 168.979 14.6713 169.147 14.69C169.315 14.6993 169.478 14.7833 169.637 14.942C169.908 15.2127 170.192 15.4227 170.491 15.572C170.79 15.7213 171.163 15.796 171.611 15.796C171.751 15.7867 171.905 15.768 172.073 15.74C172.241 15.7027 172.386 15.628 172.507 15.516C172.638 15.3947 172.703 15.2127 172.703 14.97C172.703 14.7647 172.633 14.6013 172.493 14.48C172.353 14.3587 172.166 14.256 171.933 14.172C171.709 14.088 171.457 14.0087 171.177 13.934C170.888 13.85 170.589 13.7567 170.281 13.654C169.982 13.5513 169.707 13.4207 169.455 13.262C169.203 13.094 168.998 12.8747 168.839 12.604C168.68 12.3333 168.601 11.9927 168.601 11.582C168.601 11.1153 168.732 10.7187 168.993 10.392C169.254 10.0653 169.59 9.81333 170.001 9.636C170.421 9.45867 170.86 9.37 171.317 9.37C171.606 9.37 171.91 9.40733 172.227 9.482C172.544 9.54733 172.848 9.65933 173.137 9.818C173.426 9.96733 173.669 10.168 173.865 10.42C173.968 10.56 174.028 10.728 174.047 10.924C174.066 11.12 173.977 11.2973 173.781 11.456C173.641 11.568 173.478 11.6193 173.291 11.61C173.104 11.5913 172.95 11.526 172.829 11.414C172.67 11.2087 172.456 11.0453 172.185 10.924C171.924 10.8027 171.62 10.742 171.275 10.742C171.135 10.742 170.981 10.7607 170.813 10.798C170.654 10.826 170.514 10.896 170.393 11.008C170.272 11.1107 170.211 11.2787 170.211 11.512C170.211 11.7267 170.281 11.8993 170.421 12.03C170.561 12.1513 170.748 12.254 170.981 12.338C171.224 12.4127 171.48 12.4873 171.751 12.562C172.031 12.6367 172.316 12.7253 172.605 12.828C172.894 12.9307 173.16 13.066 173.403 13.234C173.646 13.402 173.842 13.6213 173.991 13.892C174.14 14.1533 174.215 14.4893 174.215 14.9C174.215 15.376 174.075 15.782 173.795 16.118C173.515 16.454 173.165 16.7107 172.745 16.888C172.325 17.056 171.896 17.14 171.457 17.14C170.906 17.14 170.356 17.0467 169.805 16.86C169.254 16.664 168.797 16.3233 168.433 15.838ZM52.088 43.548C51.948 43.548 51.822 43.5107 51.71 43.436C51.0007 42.96 50.3987 42.4047 49.904 41.77C49.4187 41.1447 49.05 40.4587 48.798 39.712C48.546 38.9653 48.42 38.186 48.42 37.374C48.42 36.562 48.546 35.7827 48.798 35.036C49.05 34.2893 49.4187 33.6033 49.904 32.978C50.3987 32.3433 51.0007 31.788 51.71 31.312C51.822 31.2373 51.948 31.2 52.088 31.2C52.312 31.2 52.4847 31.284 52.606 31.452C52.7273 31.62 52.788 31.7787 52.788 31.928C52.788 32.1427 52.69 32.3293 52.494 32.488C51.962 32.908 51.5187 33.3793 51.164 33.902C50.8093 34.4153 50.5433 34.966 50.366 35.554C50.198 36.142 50.114 36.7487 50.114 37.374C50.114 37.9993 50.1933 38.6107 50.352 39.208C50.52 39.8053 50.7813 40.3653 51.136 40.888C51.4907 41.4013 51.9433 41.8587 52.494 42.26C52.69 42.4 52.788 42.5867 52.788 42.82C52.788 42.988 52.718 43.1513 52.578 43.31C52.4473 43.4687 52.284 43.548 52.088 43.548ZM54.6559 40.986C54.3852 40.986 54.1752 40.916 54.0259 40.776C53.8859 40.6267 53.8159 40.4167 53.8159 40.146V39.908C53.8159 39.6373 53.8859 39.432 54.0259 39.292C54.1752 39.1427 54.3852 39.068 54.6559 39.068H54.8379C55.1086 39.068 55.3139 39.1427 55.4539 39.292C55.6032 39.432 55.6779 39.6373 55.6779 39.908V40.146C55.6779 40.4167 55.6032 40.6267 55.4539 40.776C55.3139 40.916 55.1086 40.986 54.8379 40.986H54.6559ZM61.2782 33.37C61.9316 33.37 62.5149 33.538 63.0282 33.874C63.5509 34.2007 63.9616 34.6533 64.2602 35.232C64.5682 35.8107 64.7222 36.4827 64.7222 37.248C64.7222 38.0133 64.5682 38.69 64.2602 39.278C63.9616 39.8567 63.5556 40.314 63.0422 40.65C62.5382 40.9767 61.9689 41.14 61.3342 41.14C60.9609 41.14 60.6109 41.0793 60.2842 40.958C59.9576 40.8367 59.6682 40.6827 59.4162 40.496C59.1736 40.3093 58.9822 40.1227 58.8422 39.936C58.7116 39.74 58.6462 39.5767 58.6462 39.446L59.0802 39.264V42.946C59.0802 43.1887 59.0009 43.3893 58.8422 43.548C58.6836 43.716 58.4829 43.8 58.2402 43.8C57.9976 43.8 57.7969 43.7207 57.6382 43.562C57.4796 43.4033 57.4002 43.198 57.4002 42.946V34.364C57.4002 34.1213 57.4796 33.9207 57.6382 33.762C57.7969 33.594 57.9976 33.51 58.2402 33.51C58.4829 33.51 58.6836 33.594 58.8422 33.762C59.0009 33.9207 59.0802 34.1213 59.0802 34.364V35.05L58.8422 34.924C58.8422 34.8027 58.9076 34.658 59.0382 34.49C59.1689 34.3127 59.3462 34.14 59.5702 33.972C59.7942 33.7947 60.0509 33.65 60.3402 33.538C60.6389 33.426 60.9516 33.37 61.2782 33.37ZM61.0682 34.91C60.6576 34.91 60.2982 35.0127 59.9902 35.218C59.6822 35.4233 59.4396 35.7033 59.2622 36.058C59.0942 36.4033 59.0102 36.8 59.0102 37.248C59.0102 37.6867 59.0942 38.088 59.2622 38.452C59.4396 38.8067 59.6822 39.0867 59.9902 39.292C60.2982 39.4973 60.6576 39.6 61.0682 39.6C61.4789 39.6 61.8336 39.4973 62.1322 39.292C62.4402 39.0867 62.6782 38.8067 62.8462 38.452C63.0236 38.088 63.1122 37.6867 63.1122 37.248C63.1122 36.8 63.0236 36.4033 62.8462 36.058C62.6782 35.7033 62.4402 35.4233 62.1322 35.218C61.8336 35.0127 61.4789 34.91 61.0682 34.91ZM72.3233 30.64C72.5659 30.64 72.7666 30.7193 72.9253 30.878C73.0839 31.0367 73.1633 31.242 73.1633 31.494V40.146C73.1633 40.3887 73.0839 40.594 72.9253 40.762C72.7666 40.9207 72.5659 41 72.3233 41C72.0806 41 71.8799 40.9207 71.7213 40.762C71.5626 40.594 71.4833 40.3887 71.4833 40.146V39.46L71.7913 39.586C71.7913 39.7073 71.7259 39.8567 71.5953 40.034C71.4646 40.202 71.2873 40.37 71.0633 40.538C70.8393 40.706 70.5733 40.8507 70.2653 40.972C69.9666 41.084 69.6399 41.14 69.2853 41.14C68.6413 41.14 68.0579 40.9767 67.5353 40.65C67.0126 40.314 66.5973 39.8567 66.2893 39.278C65.9906 38.69 65.8413 38.018 65.8413 37.262C65.8413 36.4967 65.9906 35.8247 66.2893 35.246C66.5973 34.658 67.0079 34.2007 67.5213 33.874C68.0346 33.538 68.6039 33.37 69.2293 33.37C69.6306 33.37 69.9993 33.4307 70.3353 33.552C70.6713 33.6733 70.9606 33.8273 71.2033 34.014C71.4553 34.2007 71.6466 34.392 71.7773 34.588C71.9173 34.7747 71.9873 34.9333 71.9873 35.064L71.4833 35.246V31.494C71.4833 31.2513 71.5626 31.0507 71.7213 30.892C71.8799 30.724 72.0806 30.64 72.3233 30.64ZM69.4953 39.6C69.9059 39.6 70.2653 39.4973 70.5733 39.292C70.8813 39.0867 71.1193 38.8067 71.2873 38.452C71.4646 38.0973 71.5533 37.7007 71.5533 37.262C71.5533 36.814 71.4646 36.4127 71.2873 36.058C71.1193 35.7033 70.8813 35.4233 70.5733 35.218C70.2653 35.0127 69.9059 34.91 69.4953 34.91C69.0939 34.91 68.7393 35.0127 68.4313 35.218C68.1233 35.4233 67.8806 35.7033 67.7033 36.058C67.5353 36.4127 67.4513 36.814 67.4513 37.262C67.4513 37.7007 67.5353 38.0973 67.7033 38.452C67.8806 38.8067 68.1233 39.0867 68.4313 39.292C68.7393 39.4973 69.0939 39.6 69.4953 39.6ZM78.8323 30.64C79.0376 30.64 79.2383 30.668 79.4343 30.724C79.6303 30.78 79.7936 30.8733 79.9243 31.004C80.0549 31.1253 80.1203 31.2887 80.1203 31.494C80.1203 31.7273 80.0503 31.914 79.9103 32.054C79.7796 32.1847 79.6256 32.25 79.4483 32.25C79.3643 32.25 79.2383 32.2313 79.0703 32.194C78.9023 32.1473 78.7389 32.124 78.5803 32.124C78.3469 32.124 78.1649 32.1753 78.0343 32.278C77.9129 32.3807 77.8289 32.502 77.7823 32.642C77.7356 32.7727 77.7123 32.8893 77.7123 32.992V40.146C77.7123 40.3887 77.6329 40.594 77.4743 40.762C77.3156 40.9207 77.1149 41 76.8723 41C76.6296 41 76.4289 40.9207 76.2703 40.762C76.1116 40.594 76.0323 40.3887 76.0323 40.146V33.006C76.0323 32.3433 76.2656 31.7833 76.7323 31.326C77.1989 30.8687 77.8989 30.64 78.8323 30.64ZM78.9863 33.65C79.2103 33.65 79.3969 33.7247 79.5463 33.874C79.6956 34.014 79.7703 34.196 79.7703 34.42C79.7703 34.644 79.6956 34.8307 79.5463 34.98C79.3969 35.12 79.2103 35.19 78.9863 35.19H75.2763C75.0523 35.19 74.8656 35.12 74.7163 34.98C74.5669 34.8307 74.4923 34.644 74.4923 34.42C74.4923 34.196 74.5669 34.014 74.7163 33.874C74.8656 33.7247 75.0523 33.65 75.2763 33.65H78.9863ZM83.2216 40.888C83.2216 41.196 83.1329 41.504 82.9556 41.812C82.7876 42.1293 82.5636 42.3907 82.2836 42.596C82.0129 42.8107 81.7236 42.918 81.4156 42.918C81.3129 42.918 81.2009 42.876 81.0796 42.792C80.9676 42.708 80.9116 42.5633 80.9116 42.358C80.9116 42.1433 80.9769 42.0127 81.1076 41.966C81.2476 41.9287 81.3643 41.8867 81.4576 41.84C81.5789 41.7747 81.6723 41.6953 81.7376 41.602C81.8123 41.518 81.8496 41.4107 81.8496 41.28C81.8496 41.1773 81.7983 41.084 81.6956 41C81.6023 40.9253 81.4763 40.888 81.3176 40.888C81.2616 40.888 81.1963 40.8973 81.1216 40.916C81.0469 40.9253 80.9816 40.9487 80.9256 40.986C80.8323 40.9393 80.7483 40.8833 80.6736 40.818C80.6083 40.7433 80.5756 40.6267 80.5756 40.468C80.5756 40.1787 80.7063 39.9313 80.9676 39.726C81.2383 39.5113 81.5509 39.404 81.9056 39.404C82.3069 39.404 82.6243 39.5393 82.8576 39.81C83.1003 40.0807 83.2216 40.44 83.2216 40.888ZM89.6149 40.986C89.3442 40.986 89.1342 40.916 88.9849 40.776C88.8449 40.6267 88.7749 40.4167 88.7749 40.146V39.908C88.7749 39.6373 88.8449 39.432 88.9849 39.292C89.1342 39.1427 89.3442 39.068 89.6149 39.068H89.7969C90.0676 39.068 90.2729 39.1427 90.4129 39.292C90.5622 39.432 90.6369 39.6373 90.6369 39.908V40.146C90.6369 40.4167 90.5622 40.6267 90.4129 40.776C90.2729 40.916 90.0676 40.986 89.7969 40.986H89.6149ZM98.4912 30.64C98.7339 30.64 98.9346 30.7193 99.0932 30.878C99.2519 31.0367 99.3312 31.242 99.3312 31.494V40.146C99.3312 40.3887 99.2519 40.594 99.0932 40.762C98.9346 40.9207 98.7339 41 98.4912 41C98.2486 41 98.0479 40.9207 97.8892 40.762C97.7306 40.594 97.6512 40.3887 97.6512 40.146V39.46L97.9592 39.586C97.9592 39.7073 97.8939 39.8567 97.7632 40.034C97.6326 40.202 97.4552 40.37 97.2312 40.538C97.0072 40.706 96.7412 40.8507 96.4332 40.972C96.1346 41.084 95.8079 41.14 95.4532 41.14C94.8092 41.14 94.2259 40.9767 93.7032 40.65C93.1806 40.314 92.7652 39.8567 92.4572 39.278C92.1586 38.69 92.0092 38.018 92.0092 37.262C92.0092 36.4967 92.1586 35.8247 92.4572 35.246C92.7652 34.658 93.1759 34.2007 93.6892 33.874C94.2026 33.538 94.7719 33.37 95.3972 33.37C95.7986 33.37 96.1672 33.4307 96.5032 33.552C96.8392 33.6733 97.1286 33.8273 97.3712 34.014C97.6232 34.2007 97.8146 34.392 97.9452 34.588C98.0852 34.7747 98.1552 34.9333 98.1552 35.064L97.6512 35.246V31.494C97.6512 31.2513 97.7306 31.0507 97.8892 30.892C98.0479 30.724 98.2486 30.64 98.4912 30.64ZM95.6632 39.6C96.0739 39.6 96.4332 39.4973 96.7412 39.292C97.0492 39.0867 97.2872 38.8067 97.4552 38.452C97.6326 38.0973 97.7212 37.7007 97.7212 37.262C97.7212 36.814 97.6326 36.4127 97.4552 36.058C97.2872 35.7033 97.0492 35.4233 96.7412 35.218C96.4332 35.0127 96.0739 34.91 95.6632 34.91C95.2619 34.91 94.9072 35.0127 94.5992 35.218C94.2912 35.4233 94.0486 35.7033 93.8712 36.058C93.7032 36.4127 93.6192 36.814 93.6192 37.262C93.6192 37.7007 93.7032 38.0973 93.8712 38.452C94.0486 38.8067 94.2912 39.0867 94.5992 39.292C94.9072 39.4973 95.2619 39.6 95.6632 39.6ZM108.416 37.262C108.416 38.0273 108.244 38.704 107.898 39.292C107.562 39.8707 107.105 40.3233 106.526 40.65C105.957 40.9767 105.318 41.14 104.608 41.14C103.899 41.14 103.255 40.9767 102.676 40.65C102.107 40.3233 101.65 39.8707 101.304 39.292C100.968 38.704 100.8 38.0273 100.8 37.262C100.8 36.4967 100.968 35.8247 101.304 35.246C101.65 34.658 102.107 34.2007 102.676 33.874C103.255 33.538 103.899 33.37 104.608 33.37C105.318 33.37 105.957 33.538 106.526 33.874C107.105 34.2007 107.562 34.658 107.898 35.246C108.244 35.8247 108.416 36.4967 108.416 37.262ZM106.736 37.262C106.736 36.786 106.638 36.3753 106.442 36.03C106.256 35.6753 105.999 35.4 105.672 35.204C105.355 35.008 105 34.91 104.608 34.91C104.216 34.91 103.857 35.008 103.53 35.204C103.213 35.4 102.956 35.6753 102.76 36.03C102.574 36.3753 102.48 36.786 102.48 37.262C102.48 37.7287 102.574 38.1393 102.76 38.494C102.956 38.8393 103.213 39.11 103.53 39.306C103.857 39.502 104.216 39.6 104.608 39.6C105 39.6 105.355 39.502 105.672 39.306C105.999 39.11 106.256 38.8393 106.442 38.494C106.638 38.1393 106.736 37.7287 106.736 37.262ZM113.219 33.37C113.751 33.37 114.213 33.426 114.605 33.538C115.006 33.65 115.314 33.8087 115.529 34.014C115.753 34.21 115.865 34.448 115.865 34.728C115.865 34.9147 115.809 35.092 115.697 35.26C115.585 35.4187 115.421 35.498 115.207 35.498C115.057 35.498 114.931 35.4793 114.829 35.442C114.735 35.3953 114.651 35.3393 114.577 35.274C114.502 35.2087 114.413 35.148 114.311 35.092C114.217 35.036 114.073 34.994 113.877 34.966C113.69 34.9287 113.55 34.91 113.457 34.91C112.981 34.91 112.575 35.0127 112.239 35.218C111.912 35.4233 111.66 35.7033 111.483 36.058C111.305 36.4033 111.217 36.8047 111.217 37.262C111.217 37.71 111.305 38.1113 111.483 38.466C111.669 38.8113 111.921 39.0867 112.239 39.292C112.565 39.4973 112.939 39.6 113.359 39.6C113.592 39.6 113.793 39.586 113.961 39.558C114.129 39.53 114.269 39.488 114.381 39.432C114.511 39.3573 114.628 39.278 114.731 39.194C114.833 39.11 114.987 39.068 115.193 39.068C115.435 39.068 115.622 39.1473 115.753 39.306C115.883 39.4553 115.949 39.642 115.949 39.866C115.949 40.0993 115.818 40.314 115.557 40.51C115.295 40.6967 114.95 40.8507 114.521 40.972C114.101 41.084 113.643 41.14 113.149 41.14C112.411 41.14 111.772 40.972 111.231 40.636C110.689 40.2907 110.269 39.824 109.971 39.236C109.681 38.648 109.537 37.99 109.537 37.262C109.537 36.4967 109.691 35.8247 109.999 35.246C110.316 34.658 110.75 34.2007 111.301 33.874C111.861 33.538 112.5 33.37 113.219 33.37ZM117.314 33.51C117.585 33.51 117.813 33.6267 118 33.86L122.676 39.67C122.797 39.8193 122.858 39.9873 122.858 40.174C122.858 40.4073 122.769 40.608 122.592 40.776C122.415 40.944 122.219 41.028 122.004 41.028C121.733 41.028 121.505 40.9067 121.318 40.664L116.642 34.854C116.521 34.7047 116.46 34.5367 116.46 34.35C116.46 34.1073 116.544 33.9067 116.712 33.748C116.889 33.5893 117.09 33.51 117.314 33.51ZM117.328 41.014C117.141 41.014 116.955 40.944 116.768 40.804C116.591 40.6547 116.502 40.4773 116.502 40.272C116.502 40.0853 116.572 39.908 116.712 39.74L118.854 37.122L119.694 38.522L118 40.664C117.823 40.8973 117.599 41.014 117.328 41.014ZM121.99 33.51C122.214 33.51 122.401 33.5893 122.55 33.748C122.709 33.8973 122.788 34.07 122.788 34.266C122.788 34.3593 122.774 34.4527 122.746 34.546C122.718 34.6393 122.667 34.728 122.592 34.812L120.478 37.388L119.596 36.17L121.318 33.888C121.505 33.636 121.729 33.51 121.99 33.51ZM130.902 41.14C130.239 41.14 129.642 40.9953 129.11 40.706C128.587 40.4167 128.172 40.0387 127.864 39.572C127.565 39.1053 127.416 38.606 127.416 38.074C127.416 37.6073 127.495 37.1827 127.654 36.8C127.822 36.408 128.069 36.0627 128.396 35.764C128.732 35.4653 129.157 35.2133 129.67 35.008L130.762 36.142C130.109 36.282 129.67 36.4967 129.446 36.786C129.231 37.066 129.124 37.4113 129.124 37.822C129.124 38.102 129.194 38.3773 129.334 38.648C129.474 38.9093 129.703 39.1287 130.02 39.306C130.337 39.474 130.762 39.558 131.294 39.558C131.733 39.558 132.125 39.46 132.47 39.264C132.825 39.0587 133.128 38.7927 133.38 38.466C133.641 38.13 133.851 37.7613 134.01 37.36C134.178 36.9493 134.29 36.534 134.346 36.114C134.365 35.9647 134.421 35.848 134.514 35.764C134.617 35.68 134.785 35.638 135.018 35.638C135.261 35.638 135.452 35.736 135.592 35.932C135.732 36.128 135.783 36.3567 135.746 36.618C135.662 37.178 135.499 37.7287 135.256 38.27C135.023 38.802 134.705 39.2873 134.304 39.726C133.912 40.1553 133.431 40.5007 132.862 40.762C132.302 41.014 131.649 41.14 130.902 41.14ZM135.886 41.028C135.774 41.028 135.676 41.014 135.592 40.986C135.517 40.958 135.457 40.9253 135.41 40.888C134.738 40.3093 134.122 39.7773 133.562 39.292C133.011 38.7973 132.503 38.326 132.036 37.878C131.569 37.43 131.131 36.9727 130.72 36.506C130.393 36.1327 130.095 35.7967 129.824 35.498C129.553 35.1993 129.334 34.91 129.166 34.63C129.007 34.3407 128.928 34.0233 128.928 33.678C128.928 33.2207 129.049 32.796 129.292 32.404C129.544 32.0027 129.899 31.6807 130.356 31.438C130.813 31.186 131.355 31.06 131.98 31.06C132.624 31.06 133.203 31.1673 133.716 31.382C134.239 31.5967 134.589 31.8813 134.766 32.236C134.775 32.2453 134.799 32.306 134.836 32.418C134.873 32.5207 134.892 32.642 134.892 32.782C134.892 32.9593 134.827 33.1133 134.696 33.244C134.565 33.3747 134.388 33.44 134.164 33.44C134.015 33.44 133.898 33.412 133.814 33.356C133.73 33.3 133.665 33.244 133.618 33.188C133.413 32.9173 133.175 32.7307 132.904 32.628C132.643 32.516 132.335 32.46 131.98 32.46C131.56 32.46 131.238 32.572 131.014 32.796C130.799 33.02 130.692 33.286 130.692 33.594C130.692 33.8833 130.795 34.1727 131 34.462C131.205 34.742 131.439 35.008 131.7 35.26C131.971 35.512 132.195 35.736 132.372 35.932C132.661 36.24 132.983 36.5713 133.338 36.926C133.702 37.2713 134.066 37.612 134.43 37.948C134.794 38.2747 135.13 38.5827 135.438 38.872C135.755 39.152 136.012 39.3853 136.208 39.572C136.329 39.684 136.418 39.796 136.474 39.908C136.539 40.02 136.572 40.1553 136.572 40.314C136.572 40.4353 136.516 40.5847 136.404 40.762C136.301 40.9393 136.129 41.028 135.886 41.028ZM142.498 40.986C142.227 40.986 142.017 40.916 141.868 40.776C141.728 40.6267 141.658 40.4167 141.658 40.146V39.908C141.658 39.6373 141.728 39.432 141.868 39.292C142.017 39.1427 142.227 39.068 142.498 39.068H142.68C142.95 39.068 143.156 39.1427 143.296 39.292C143.445 39.432 143.52 39.6373 143.52 39.908V40.146C143.52 40.4167 143.445 40.6267 143.296 40.776C143.156 40.916 142.95 40.986 142.68 40.986H142.498ZM145.396 33.51C145.667 33.51 145.895 33.6267 146.082 33.86L150.758 39.67C150.879 39.8193 150.94 39.9873 150.94 40.174C150.94 40.4073 150.851 40.608 150.674 40.776C150.497 40.944 150.301 41.028 150.086 41.028C149.815 41.028 149.587 40.9067 149.4 40.664L144.724 34.854C144.603 34.7047 144.542 34.5367 144.542 34.35C144.542 34.1073 144.626 33.9067 144.794 33.748C144.971 33.5893 145.172 33.51 145.396 33.51ZM145.41 41.014C145.223 41.014 145.037 40.944 144.85 40.804C144.673 40.6547 144.584 40.4773 144.584 40.272C144.584 40.0853 144.654 39.908 144.794 39.74L146.936 37.122L147.776 38.522L146.082 40.664C145.905 40.8973 145.681 41.014 145.41 41.014ZM150.072 33.51C150.296 33.51 150.483 33.5893 150.632 33.748C150.791 33.8973 150.87 34.07 150.87 34.266C150.87 34.3593 150.856 34.4527 150.828 34.546C150.8 34.6393 150.749 34.728 150.674 34.812L148.56 37.388L147.678 36.17L149.4 33.888C149.587 33.636 149.811 33.51 150.072 33.51ZM153.884 40.146C153.884 40.3887 153.8 40.594 153.632 40.762C153.474 40.9207 153.273 41 153.03 41C152.797 41 152.601 40.9207 152.442 40.762C152.284 40.594 152.204 40.3887 152.204 40.146V31.494C152.204 31.2513 152.284 31.0507 152.442 30.892C152.61 30.724 152.816 30.64 153.058 30.64C153.301 30.64 153.497 30.724 153.646 30.892C153.805 31.0507 153.884 31.2513 153.884 31.494V40.146ZM155.404 39.838C155.31 39.7073 155.268 39.5393 155.278 39.334C155.287 39.1287 155.408 38.9513 155.642 38.802C155.791 38.7087 155.95 38.6713 156.118 38.69C156.286 38.6993 156.449 38.7833 156.608 38.942C156.878 39.2127 157.163 39.4227 157.462 39.572C157.76 39.7213 158.134 39.796 158.582 39.796C158.722 39.7867 158.876 39.768 159.044 39.74C159.212 39.7027 159.356 39.628 159.478 39.516C159.608 39.3947 159.674 39.2127 159.674 38.97C159.674 38.7647 159.604 38.6013 159.464 38.48C159.324 38.3587 159.137 38.256 158.904 38.172C158.68 38.088 158.428 38.0087 158.148 37.934C157.858 37.85 157.56 37.7567 157.252 37.654C156.953 37.5513 156.678 37.4207 156.426 37.262C156.174 37.094 155.968 36.8747 155.81 36.604C155.651 36.3333 155.572 35.9927 155.572 35.582C155.572 35.1153 155.702 34.7187 155.964 34.392C156.225 34.0653 156.561 33.8133 156.972 33.636C157.392 33.4587 157.83 33.37 158.288 33.37C158.577 33.37 158.88 33.4073 159.198 33.482C159.515 33.5473 159.818 33.6593 160.108 33.818C160.397 33.9673 160.64 34.168 160.836 34.42C160.938 34.56 160.999 34.728 161.018 34.924C161.036 35.12 160.948 35.2973 160.752 35.456C160.612 35.568 160.448 35.6193 160.262 35.61C160.075 35.5913 159.921 35.526 159.8 35.414C159.641 35.2087 159.426 35.0453 159.156 34.924C158.894 34.8027 158.591 34.742 158.246 34.742C158.106 34.742 157.952 34.7607 157.784 34.798C157.625 34.826 157.485 34.896 157.364 35.008C157.242 35.1107 157.182 35.2787 157.182 35.512C157.182 35.7267 157.252 35.8993 157.392 36.03C157.532 36.1513 157.718 36.254 157.952 36.338C158.194 36.4127 158.451 36.4873 158.722 36.562C159.002 36.6367 159.286 36.7253 159.576 36.828C159.865 36.9307 160.131 37.066 160.374 37.234C160.616 37.402 160.812 37.6213 160.962 37.892C161.111 38.1533 161.186 38.4893 161.186 38.9C161.186 39.376 161.046 39.782 160.766 40.118C160.486 40.454 160.136 40.7107 159.716 40.888C159.296 41.056 158.866 41.14 158.428 41.14C157.877 41.14 157.326 41.0467 156.776 40.86C156.225 40.664 155.768 40.3233 155.404 39.838ZM162.592 43.548C162.368 43.548 162.195 43.464 162.074 43.296C161.952 43.128 161.892 42.9693 161.892 42.82C161.892 42.596 161.99 42.4093 162.186 42.26C162.727 41.84 163.17 41.3733 163.516 40.86C163.87 40.3373 164.132 39.782 164.3 39.194C164.477 38.606 164.566 37.9993 164.566 37.374C164.566 36.7487 164.482 36.1373 164.314 35.54C164.155 34.9427 163.898 34.3827 163.544 33.86C163.198 33.3373 162.746 32.88 162.186 32.488C161.99 32.348 161.892 32.1613 161.892 31.928C161.892 31.76 161.957 31.5967 162.088 31.438C162.228 31.2793 162.396 31.2 162.592 31.2C162.732 31.2 162.858 31.2373 162.97 31.312C163.688 31.788 164.29 32.3433 164.776 32.978C165.261 33.6033 165.63 34.2893 165.882 35.036C166.134 35.7827 166.26 36.562 166.26 37.374C166.26 38.186 166.134 38.9653 165.882 39.712C165.63 40.4587 165.261 41.1447 164.776 41.77C164.29 42.4047 163.688 42.96 162.97 43.436C162.858 43.5107 162.732 43.548 162.592 43.548Z" fill="#19191F"/>
<path d="M229.17 19C228.984 19.1874 228.879 19.4408 228.879 19.705C228.879 19.9692 228.984 20.2226 229.17 20.41L232.71 24L229.17 27.54C228.984 27.7274 228.879 27.9808 228.879 28.245C228.879 28.5092 228.984 28.7626 229.17 28.95C229.263 29.0437 229.374 29.1181 229.495 29.1689C229.617 29.2197 229.748 29.2458 229.88 29.2458C230.012 29.2458 230.143 29.2197 230.265 29.1689C230.386 29.1181 230.497 29.0437 230.59 28.95L234.83 24.71C234.924 24.617 234.998 24.5064 235.049 24.3846C235.1 24.2627 235.126 24.132 235.126 24C235.126 23.868 235.1 23.7373 235.049 23.6154C234.998 23.4936 234.924 23.383 234.83 23.29L230.59 19C230.497 18.9063 230.386 18.8319 230.265 18.7811C230.143 18.7303 230.012 18.7042 229.88 18.7042C229.748 18.7042 229.617 18.7303 229.495 18.7811C229.374 18.8319 229.263 18.9063 229.17 19Z" fill="#9591AF"/>
<path d="M34.5 20.91C34.4844 20.7722 34.4542 20.6364 34.41 20.505V20.37C34.3379 20.2158 34.2417 20.074 34.125 19.95V19.95L25.125 10.95C25.001 10.8333 24.8592 10.7371 24.705 10.665H24.57C24.4176 10.5776 24.2493 10.5215 24.075 10.5H12C10.8065 10.5 9.66193 10.9741 8.81802 11.818C7.97411 12.6619 7.5 13.8065 7.5 15V16.5H6C4.80653 16.5 3.66193 16.9741 2.81802 17.818C1.97411 18.6619 1.5 19.8065 1.5 21V33C1.5 34.1935 1.97411 35.3381 2.81802 36.182C3.66193 37.0259 4.80653 37.5 6 37.5H24C25.1935 37.5 26.3381 37.0259 27.182 36.182C28.0259 35.3381 28.5 34.1935 28.5 33V31.5H30C31.1935 31.5 32.3381 31.0259 33.182 30.182C34.0259 29.3381 34.5 28.1935 34.5 27V21C34.5 21 34.5 21 34.5 20.91ZM25.5 15.615L29.385 19.5H27C26.6022 19.5 26.2206 19.342 25.9393 19.0607C25.658 18.7794 25.5 18.3978 25.5 18V15.615ZM25.5 33C25.5 33.3978 25.342 33.7794 25.0607 34.0607C24.7794 34.342 24.3978 34.5 24 34.5H6C5.60218 34.5 5.22064 34.342 4.93934 34.0607C4.65804 33.7794 4.5 33.3978 4.5 33V21C4.5 20.6022 4.65804 20.2206 4.93934 19.9393C5.22064 19.658 5.60218 19.5 6 19.5H7.5V27C7.5 28.1935 7.97411 29.3381 8.81802 30.182C9.66193 31.0259 10.8065 31.5 12 31.5H25.5V33ZM31.5 27C31.5 27.3978 31.342 27.7794 31.0607 28.0607C30.7794 28.342 30.3978 28.5 30 28.5H12C11.6022 28.5 11.2206 28.342 10.9393 28.0607C10.658 27.7794 10.5 27.3978 10.5 27V15C10.5 14.6022 10.658 14.2206 10.9393 13.9393C11.2206 13.658 11.6022 13.5 12 13.5H22.5V18C22.5 19.1935 22.9741 20.3381 23.818 21.182C24.6619 22.0259 25.8065 22.5 27 22.5H31.5V27Z" fill="#5B588F"/>
</svg>
