<svg width="180" height="56" viewBox="0 0 180 56" fill="none" xmlns="http://www.w3.org/2000/svg">
<path d="M165 6L171 12L165 18" stroke="white" stroke-width="1.68424" stroke-linecap="round" stroke-linejoin="round"/>
<path d="M40.552 6.4C41.176 6.4 41.758 6.58 42.298 6.94C42.85 7.3 43.294 7.786 43.63 8.398C43.966 9.01 44.134 9.694 44.134 10.45C44.134 11.194 43.966 11.872 43.63 12.484C43.294 13.096 42.85 13.588 42.298 13.96C41.758 14.32 41.176 14.5 40.552 14.5H37.24L37.42 14.176V17.902C37.42 18.214 37.324 18.478 37.132 18.694C36.94 18.898 36.688 19 36.376 19C36.076 19 35.83 18.898 35.638 18.694C35.446 18.478 35.35 18.214 35.35 17.902V7.498C35.35 7.186 35.452 6.928 35.656 6.724C35.872 6.508 36.136 6.4 36.448 6.4H40.552ZM40.552 12.448C40.78 12.448 41.002 12.352 41.218 12.16C41.434 11.968 41.614 11.722 41.758 11.422C41.902 11.11 41.974 10.786 41.974 10.45C41.974 10.102 41.902 9.778 41.758 9.478C41.614 9.178 41.434 8.938 41.218 8.758C41.002 8.566 40.78 8.47 40.552 8.47H37.204L37.42 8.146V12.736L37.222 12.448H40.552ZM47.0957 19C46.7837 19 46.5257 18.898 46.3217 18.694C46.1177 18.478 46.0157 18.214 46.0157 17.902V10.468C46.0157 10.156 46.1177 9.898 46.3217 9.694C46.5257 9.478 46.7837 9.37 47.0957 9.37C47.4077 9.37 47.6657 9.478 47.8697 9.694C48.0737 9.898 48.1757 10.156 48.1757 10.468V12.16L48.0497 10.954C48.1817 10.666 48.3497 10.414 48.5537 10.198C48.7697 9.97 49.0097 9.784 49.2737 9.64C49.5377 9.484 49.8197 9.37 50.1197 9.298C50.4197 9.226 50.7197 9.19 51.0197 9.19C51.3797 9.19 51.6797 9.292 51.9197 9.496C52.1717 9.7 52.2977 9.94 52.2977 10.216C52.2977 10.612 52.1957 10.9 51.9917 11.08C51.7877 11.248 51.5657 11.332 51.3257 11.332C51.0977 11.332 50.8877 11.29 50.6957 11.206C50.5157 11.122 50.3057 11.08 50.0657 11.08C49.8497 11.08 49.6277 11.134 49.3997 11.242C49.1837 11.338 48.9797 11.494 48.7877 11.71C48.6077 11.926 48.4577 12.196 48.3377 12.52C48.2297 12.832 48.1757 13.204 48.1757 13.636V17.902C48.1757 18.214 48.0737 18.478 47.8697 18.694C47.6657 18.898 47.4077 19 47.0957 19ZM57.9521 19.18C56.9321 19.18 56.0441 18.97 55.2881 18.55C54.5441 18.118 53.9681 17.536 53.5601 16.804C53.1641 16.072 52.9661 15.244 52.9661 14.32C52.9661 13.24 53.1821 12.322 53.6141 11.566C54.0581 10.798 54.6341 10.21 55.3421 9.802C56.0501 9.394 56.8001 9.19 57.5921 9.19C58.2041 9.19 58.7801 9.316 59.3201 9.568C59.8721 9.82 60.3581 10.168 60.7781 10.612C61.1981 11.044 61.5281 11.548 61.7681 12.124C62.0201 12.7 62.1461 13.312 62.1461 13.96C62.1341 14.248 62.0201 14.482 61.8041 14.662C61.5881 14.842 61.3361 14.932 61.0481 14.932H54.1721L53.6321 13.132H60.2381L59.8421 13.492V13.006C59.8181 12.658 59.6921 12.346 59.4641 12.07C59.2481 11.794 58.9721 11.578 58.6361 11.422C58.3121 11.254 57.9641 11.17 57.5921 11.17C57.2321 11.17 56.8961 11.218 56.5841 11.314C56.2721 11.41 56.0021 11.572 55.7741 11.8C55.5461 12.028 55.3661 12.334 55.2341 12.718C55.1021 13.102 55.0361 13.588 55.0361 14.176C55.0361 14.824 55.1681 15.376 55.4321 15.832C55.7081 16.276 56.0561 16.618 56.4761 16.858C56.9081 17.086 57.3641 17.2 57.8441 17.2C58.2881 17.2 58.6421 17.164 58.9061 17.092C59.1701 17.02 59.3801 16.936 59.5361 16.84C59.7041 16.732 59.8541 16.642 59.9861 16.57C60.2021 16.462 60.4061 16.408 60.5981 16.408C60.8621 16.408 61.0781 16.498 61.2461 16.678C61.4261 16.858 61.5161 17.068 61.5161 17.308C61.5161 17.632 61.3481 17.926 61.0121 18.19C60.7001 18.454 60.2621 18.688 59.6981 18.892C59.1341 19.084 58.5521 19.18 57.9521 19.18ZM64.3774 9.37C64.6054 9.37 64.8154 9.43 65.0074 9.55C65.1994 9.658 65.3434 9.826 65.4394 10.054L68.0854 16.102L67.6894 16.282L70.3894 10.072C70.5934 9.592 70.9114 9.364 71.3434 9.388C71.6434 9.388 71.8834 9.484 72.0634 9.676C72.2554 9.856 72.3514 10.084 72.3514 10.36C72.3514 10.444 72.3334 10.534 72.2974 10.63C72.2734 10.726 72.2434 10.816 72.2074 10.9L68.8414 18.316C68.6494 18.748 68.3434 18.976 67.9234 19C67.6954 19.036 67.4734 18.994 67.2574 18.874C67.0534 18.754 66.8974 18.568 66.7894 18.316L63.4414 10.9C63.4174 10.84 63.3874 10.762 63.3514 10.666C63.3274 10.57 63.3154 10.456 63.3154 10.324C63.3154 10.108 63.4114 9.898 63.6034 9.694C63.7954 9.478 64.0534 9.37 64.3774 9.37ZM78.5009 19.18C77.4809 19.18 76.5929 18.97 75.8369 18.55C75.0929 18.118 74.5169 17.536 74.1089 16.804C73.7129 16.072 73.5149 15.244 73.5149 14.32C73.5149 13.24 73.7309 12.322 74.1629 11.566C74.6069 10.798 75.1829 10.21 75.8909 9.802C76.5989 9.394 77.3489 9.19 78.1409 9.19C78.7529 9.19 79.3289 9.316 79.8689 9.568C80.4209 9.82 80.9069 10.168 81.3269 10.612C81.7469 11.044 82.0769 11.548 82.3169 12.124C82.5689 12.7 82.6949 13.312 82.6949 13.96C82.6829 14.248 82.5689 14.482 82.3529 14.662C82.1369 14.842 81.8849 14.932 81.5969 14.932H74.7209L74.1809 13.132H80.7869L80.3909 13.492V13.006C80.3669 12.658 80.2409 12.346 80.0129 12.07C79.7969 11.794 79.5209 11.578 79.1849 11.422C78.8609 11.254 78.5129 11.17 78.1409 11.17C77.7809 11.17 77.4449 11.218 77.1329 11.314C76.8209 11.41 76.5509 11.572 76.3229 11.8C76.0949 12.028 75.9149 12.334 75.7829 12.718C75.6509 13.102 75.5849 13.588 75.5849 14.176C75.5849 14.824 75.7169 15.376 75.9809 15.832C76.2569 16.276 76.6049 16.618 77.0249 16.858C77.4569 17.086 77.9129 17.2 78.3929 17.2C78.8369 17.2 79.1909 17.164 79.4549 17.092C79.7189 17.02 79.9289 16.936 80.0849 16.84C80.2529 16.732 80.4029 16.642 80.5349 16.57C80.7509 16.462 80.9549 16.408 81.1469 16.408C81.4109 16.408 81.6269 16.498 81.7949 16.678C81.9749 16.858 82.0649 17.068 82.0649 17.308C82.0649 17.632 81.8969 17.926 81.5609 18.19C81.2489 18.454 80.8109 18.688 80.2469 18.892C79.6829 19.084 79.1009 19.18 78.5009 19.18ZM89.7301 9.19C90.6181 9.19 91.2901 9.376 91.7461 9.748C92.2141 10.12 92.5321 10.618 92.7001 11.242C92.8801 11.854 92.9701 12.538 92.9701 13.294V17.902C92.9701 18.214 92.8681 18.478 92.6641 18.694C92.4601 18.898 92.2021 19 91.8901 19C91.5781 19 91.3201 18.898 91.1161 18.694C90.9121 18.478 90.8101 18.214 90.8101 17.902V13.294C90.8101 12.898 90.7561 12.544 90.6481 12.232C90.5521 11.908 90.3721 11.65 90.1081 11.458C89.8441 11.266 89.4661 11.17 88.9741 11.17C88.4941 11.17 88.0861 11.266 87.7501 11.458C87.4261 11.65 87.1741 11.908 86.9941 12.232C86.8261 12.544 86.7421 12.898 86.7421 13.294V17.902C86.7421 18.214 86.6401 18.478 86.4361 18.694C86.2321 18.898 85.9741 19 85.6621 19C85.3501 19 85.0921 18.898 84.8881 18.694C84.6841 18.478 84.5821 18.214 84.5821 17.902V10.468C84.5821 10.156 84.6841 9.898 84.8881 9.694C85.0921 9.478 85.3501 9.37 85.6621 9.37C85.9741 9.37 86.2321 9.478 86.4361 9.694C86.6401 9.898 86.7421 10.156 86.7421 10.468V11.242L86.4721 11.188C86.5801 10.984 86.7361 10.768 86.9401 10.54C87.1441 10.3 87.3841 10.078 87.6601 9.874C87.9361 9.67 88.2481 9.508 88.5961 9.388C88.9441 9.256 89.3221 9.19 89.7301 9.19ZM95.4128 9.55H99.6788C99.9668 9.55 100.207 9.646 100.399 9.838C100.591 10.03 100.687 10.27 100.687 10.558C100.687 10.834 100.591 11.068 100.399 11.26C100.207 11.44 99.9668 11.53 99.6788 11.53H95.4128C95.1248 11.53 94.8848 11.434 94.6928 11.242C94.5008 11.05 94.4048 10.81 94.4048 10.522C94.4048 10.246 94.5008 10.018 94.6928 9.838C94.8848 9.646 95.1248 9.55 95.4128 9.55ZM97.3388 7.3C97.6508 7.3 97.9028 7.408 98.0948 7.624C98.2988 7.828 98.4008 8.086 98.4008 8.398V16.408C98.4008 16.576 98.4308 16.714 98.4908 16.822C98.5628 16.93 98.6528 17.008 98.7608 17.056C98.8808 17.104 99.0068 17.128 99.1388 17.128C99.2828 17.128 99.4148 17.104 99.5348 17.056C99.6548 16.996 99.7928 16.966 99.9488 16.966C100.117 16.966 100.267 17.044 100.399 17.2C100.543 17.356 100.615 17.572 100.615 17.848C100.615 18.184 100.429 18.46 100.057 18.676C99.6968 18.892 99.3068 19 98.8868 19C98.6348 19 98.3528 18.982 98.0408 18.946C97.7408 18.898 97.4528 18.796 97.1768 18.64C96.9128 18.472 96.6908 18.22 96.5108 17.884C96.3308 17.548 96.2408 17.086 96.2408 16.498V8.398C96.2408 8.086 96.3428 7.828 96.5468 7.624C96.7628 7.408 97.0268 7.3 97.3388 7.3Z" fill="white"/>
<path d="M5.096 41.2C5.58133 41.2 6.034 41.34 6.454 41.62C6.88333 41.9 7.22867 42.278 7.49 42.754C7.75133 43.23 7.882 43.762 7.882 44.35C7.882 44.9287 7.75133 45.456 7.49 45.932C7.22867 46.408 6.88333 46.7907 6.454 47.08C6.034 47.36 5.58133 47.5 5.096 47.5H2.52L2.66 47.248V50.146C2.66 50.3887 2.58533 50.594 2.436 50.762C2.28667 50.9207 2.09067 51 1.848 51C1.61467 51 1.42333 50.9207 1.274 50.762C1.12467 50.594 1.05 50.3887 1.05 50.146V42.054C1.05 41.8113 1.12933 41.6107 1.288 41.452C1.456 41.284 1.66133 41.2 1.904 41.2H5.096ZM5.096 45.904C5.27333 45.904 5.446 45.8293 5.614 45.68C5.782 45.5307 5.922 45.3393 6.034 45.106C6.146 44.8633 6.202 44.6113 6.202 44.35C6.202 44.0793 6.146 43.8273 6.034 43.594C5.922 43.3607 5.782 43.174 5.614 43.034C5.446 42.8847 5.27333 42.81 5.096 42.81H2.492L2.66 42.558V46.128L2.506 45.904H5.096ZM10.1855 51C9.94288 51 9.74221 50.9207 9.58355 50.762C9.42488 50.594 9.34555 50.3887 9.34555 50.146V44.364C9.34555 44.1213 9.42488 43.9207 9.58355 43.762C9.74221 43.594 9.94288 43.51 10.1855 43.51C10.4282 43.51 10.6289 43.594 10.7875 43.762C10.9462 43.9207 11.0255 44.1213 11.0255 44.364V45.68L10.9275 44.742C11.0302 44.518 11.1609 44.322 11.3195 44.154C11.4875 43.9767 11.6742 43.832 11.8795 43.72C12.0849 43.5987 12.3042 43.51 12.5375 43.454C12.7709 43.398 13.0042 43.37 13.2375 43.37C13.5175 43.37 13.7509 43.4493 13.9375 43.608C14.1335 43.7667 14.2315 43.9533 14.2315 44.168C14.2315 44.476 14.1522 44.7 13.9935 44.84C13.8349 44.9707 13.6622 45.036 13.4755 45.036C13.2982 45.036 13.1349 45.0033 12.9855 44.938C12.8455 44.8727 12.6822 44.84 12.4955 44.84C12.3275 44.84 12.1549 44.882 11.9775 44.966C11.8095 45.0407 11.6509 45.162 11.5015 45.33C11.3615 45.498 11.2449 45.708 11.1515 45.96C11.0675 46.2027 11.0255 46.492 11.0255 46.828V50.146C11.0255 50.3887 10.9462 50.594 10.7875 50.762C10.6289 50.9207 10.4282 51 10.1855 51ZM22.3674 47.262C22.3674 48.0273 22.1947 48.704 21.8494 49.292C21.5134 49.8707 21.0561 50.3233 20.4774 50.65C19.9081 50.9767 19.2687 51.14 18.5594 51.14C17.8501 51.14 17.2061 50.9767 16.6274 50.65C16.0581 50.3233 15.6007 49.8707 15.2554 49.292C14.9194 48.704 14.7514 48.0273 14.7514 47.262C14.7514 46.4967 14.9194 45.8247 15.2554 45.246C15.6007 44.658 16.0581 44.2007 16.6274 43.874C17.2061 43.538 17.8501 43.37 18.5594 43.37C19.2687 43.37 19.9081 43.538 20.4774 43.874C21.0561 44.2007 21.5134 44.658 21.8494 45.246C22.1947 45.8247 22.3674 46.4967 22.3674 47.262ZM20.6874 47.262C20.6874 46.786 20.5894 46.3753 20.3934 46.03C20.2067 45.6753 19.9501 45.4 19.6234 45.204C19.3061 45.008 18.9514 44.91 18.5594 44.91C18.1674 44.91 17.8081 45.008 17.4814 45.204C17.1641 45.4 16.9074 45.6753 16.7114 46.03C16.5247 46.3753 16.4314 46.786 16.4314 47.262C16.4314 47.7287 16.5247 48.1393 16.7114 48.494C16.9074 48.8393 17.1641 49.11 17.4814 49.306C17.8081 49.502 18.1674 49.6 18.5594 49.6C18.9514 49.6 19.3061 49.502 19.6234 49.306C19.9501 49.11 20.2067 48.8393 20.3934 48.494C20.5894 48.1393 20.6874 47.7287 20.6874 47.262ZM23.9217 43.65H27.2397C27.4637 43.65 27.6504 43.7247 27.7997 43.874C27.9491 44.0233 28.0237 44.21 28.0237 44.434C28.0237 44.6487 27.9491 44.8307 27.7997 44.98C27.6504 45.12 27.4637 45.19 27.2397 45.19H23.9217C23.6977 45.19 23.5111 45.1153 23.3617 44.966C23.2124 44.8167 23.1377 44.63 23.1377 44.406C23.1377 44.1913 23.2124 44.014 23.3617 43.874C23.5111 43.7247 23.6977 43.65 23.9217 43.65ZM25.4197 41.9C25.6624 41.9 25.8584 41.984 26.0077 42.152C26.1664 42.3107 26.2457 42.5113 26.2457 42.754V48.984C26.2457 49.1147 26.2691 49.222 26.3157 49.306C26.3717 49.39 26.4417 49.4507 26.5257 49.488C26.6191 49.5253 26.7171 49.544 26.8197 49.544C26.9317 49.544 27.0344 49.5253 27.1277 49.488C27.2211 49.4413 27.3284 49.418 27.4497 49.418C27.5804 49.418 27.6971 49.4787 27.7997 49.6C27.9117 49.7213 27.9677 49.8893 27.9677 50.104C27.9677 50.3653 27.8231 50.58 27.5337 50.748C27.2537 50.916 26.9504 51 26.6237 51C26.4277 51 26.2084 50.986 25.9657 50.958C25.7324 50.9207 25.5084 50.8413 25.2937 50.72C25.0884 50.5893 24.9157 50.3933 24.7757 50.132C24.6357 49.8707 24.5657 49.5113 24.5657 49.054V42.754C24.5657 42.5113 24.6451 42.3107 24.8037 42.152C24.9717 41.984 25.1771 41.9 25.4197 41.9ZM33.0259 51.14C32.2326 51.14 31.5419 50.9767 30.9539 50.65C30.3752 50.314 29.9272 49.8613 29.6099 49.292C29.3019 48.7227 29.1479 48.0787 29.1479 47.36C29.1479 46.52 29.3159 45.806 29.6519 45.218C29.9972 44.6207 30.4452 44.1633 30.9959 43.846C31.5466 43.5287 32.1299 43.37 32.7459 43.37C33.2219 43.37 33.6699 43.468 34.0899 43.664C34.5192 43.86 34.8972 44.1307 35.2239 44.476C35.5506 44.812 35.8072 45.204 35.9939 45.652C36.1899 46.1 36.2879 46.576 36.2879 47.08C36.2786 47.304 36.1899 47.486 36.0219 47.626C35.8539 47.766 35.6579 47.836 35.4339 47.836H30.0859L29.6659 46.436H34.8039L34.4959 46.716V46.338C34.4772 46.0673 34.3792 45.8247 34.2019 45.61C34.0339 45.3953 33.8192 45.2273 33.5579 45.106C33.3059 44.9753 33.0352 44.91 32.7459 44.91C32.4659 44.91 32.2046 44.9473 31.9619 45.022C31.7192 45.0967 31.5092 45.2227 31.3319 45.4C31.1546 45.5773 31.0146 45.8153 30.9119 46.114C30.8092 46.4127 30.7579 46.7907 30.7579 47.248C30.7579 47.752 30.8606 48.1813 31.0659 48.536C31.2806 48.8813 31.5512 49.1473 31.8779 49.334C32.2139 49.5113 32.5686 49.6 32.9419 49.6C33.2872 49.6 33.5626 49.572 33.7679 49.516C33.9732 49.46 34.1366 49.3947 34.2579 49.32C34.3886 49.236 34.5052 49.166 34.6079 49.11C34.7759 49.026 34.9346 48.984 35.0839 48.984C35.2892 48.984 35.4572 49.054 35.5879 49.194C35.7279 49.334 35.7979 49.4973 35.7979 49.684C35.7979 49.936 35.6672 50.1647 35.4059 50.37C35.1632 50.5753 34.8226 50.7573 34.3839 50.916C33.9452 51.0653 33.4926 51.14 33.0259 51.14ZM41.0877 43.37C41.6197 43.37 42.0817 43.426 42.4737 43.538C42.875 43.65 43.183 43.8087 43.3977 44.014C43.6217 44.21 43.7337 44.448 43.7337 44.728C43.7337 44.9147 43.6777 45.092 43.5657 45.26C43.4537 45.4187 43.2904 45.498 43.0757 45.498C42.9264 45.498 42.8004 45.4793 42.6977 45.442C42.6044 45.3953 42.5204 45.3393 42.4457 45.274C42.371 45.2087 42.2824 45.148 42.1797 45.092C42.0864 45.036 41.9417 44.994 41.7457 44.966C41.559 44.9287 41.419 44.91 41.3257 44.91C40.8497 44.91 40.4437 45.0127 40.1077 45.218C39.781 45.4233 39.529 45.7033 39.3517 46.058C39.1744 46.4033 39.0857 46.8047 39.0857 47.262C39.0857 47.71 39.1744 48.1113 39.3517 48.466C39.5384 48.8113 39.7904 49.0867 40.1077 49.292C40.4344 49.4973 40.8077 49.6 41.2277 49.6C41.461 49.6 41.6617 49.586 41.8297 49.558C41.9977 49.53 42.1377 49.488 42.2497 49.432C42.3804 49.3573 42.497 49.278 42.5997 49.194C42.7024 49.11 42.8564 49.068 43.0617 49.068C43.3044 49.068 43.491 49.1473 43.6217 49.306C43.7524 49.4553 43.8177 49.642 43.8177 49.866C43.8177 50.0993 43.687 50.314 43.4257 50.51C43.1644 50.6967 42.819 50.8507 42.3897 50.972C41.9697 51.084 41.5124 51.14 41.0177 51.14C40.2804 51.14 39.641 50.972 39.0997 50.636C38.5584 50.2907 38.1384 49.824 37.8397 49.236C37.5504 48.648 37.4057 47.99 37.4057 47.262C37.4057 46.4967 37.5597 45.8247 37.8677 45.246C38.185 44.658 38.619 44.2007 39.1697 43.874C39.7297 43.538 40.369 43.37 41.0877 43.37ZM45.1131 43.65H48.4311C48.6551 43.65 48.8418 43.7247 48.9911 43.874C49.1405 44.0233 49.2151 44.21 49.2151 44.434C49.2151 44.6487 49.1405 44.8307 48.9911 44.98C48.8418 45.12 48.6551 45.19 48.4311 45.19H45.1131C44.8891 45.19 44.7025 45.1153 44.5531 44.966C44.4038 44.8167 44.3291 44.63 44.3291 44.406C44.3291 44.1913 44.4038 44.014 44.5531 43.874C44.7025 43.7247 44.8891 43.65 45.1131 43.65ZM46.6111 41.9C46.8538 41.9 47.0498 41.984 47.1991 42.152C47.3578 42.3107 47.4371 42.5113 47.4371 42.754V48.984C47.4371 49.1147 47.4605 49.222 47.5071 49.306C47.5631 49.39 47.6331 49.4507 47.7171 49.488C47.8105 49.5253 47.9085 49.544 48.0111 49.544C48.1231 49.544 48.2258 49.5253 48.3191 49.488C48.4125 49.4413 48.5198 49.418 48.6411 49.418C48.7718 49.418 48.8885 49.4787 48.9911 49.6C49.1031 49.7213 49.1591 49.8893 49.1591 50.104C49.1591 50.3653 49.0145 50.58 48.7251 50.748C48.4451 50.916 48.1418 51 47.8151 51C47.6191 51 47.3998 50.986 47.1571 50.958C46.9238 50.9207 46.6998 50.8413 46.4851 50.72C46.2798 50.5893 46.1071 50.3933 45.9671 50.132C45.8271 49.8707 45.7571 49.5113 45.7571 49.054V42.754C45.7571 42.5113 45.8365 42.3107 45.9951 42.152C46.1631 41.984 46.3685 41.9 46.6111 41.9ZM60.2395 43.51C60.4822 43.51 60.6828 43.594 60.8415 43.762C61.0002 43.9207 61.0795 44.1213 61.0795 44.364V50.314C61.0795 51.1727 60.9162 51.854 60.5895 52.358C60.2722 52.8713 59.8428 53.24 59.3015 53.464C58.7602 53.688 58.1535 53.8 57.4815 53.8C57.1828 53.8 56.8655 53.7767 56.5295 53.73C56.1935 53.6833 55.9182 53.6133 55.7035 53.52C55.4235 53.3987 55.2275 53.2447 55.1155 53.058C55.0128 52.8807 54.9942 52.6893 55.0595 52.484C55.1435 52.2133 55.2788 52.0267 55.4655 51.924C55.6522 51.8307 55.8482 51.8213 56.0535 51.896C56.2028 51.9427 56.3988 52.0127 56.6415 52.106C56.8842 52.2087 57.1642 52.26 57.4815 52.26C57.9108 52.26 58.2655 52.1993 58.5455 52.078C58.8348 51.966 59.0495 51.77 59.1895 51.49C59.3388 51.2193 59.4135 50.846 59.4135 50.37V49.432L59.7075 49.768C59.5488 50.076 59.3482 50.3327 59.1055 50.538C58.8722 50.734 58.5922 50.8833 58.2655 50.986C57.9388 51.0887 57.5655 51.14 57.1455 51.14C56.6508 51.14 56.2168 51.028 55.8435 50.804C55.4795 50.5707 55.1948 50.2533 54.9895 49.852C54.7842 49.4413 54.6815 48.9747 54.6815 48.452V44.364C54.6815 44.1213 54.7608 43.9207 54.9195 43.762C55.0782 43.594 55.2788 43.51 55.5215 43.51C55.7642 43.51 55.9648 43.594 56.1235 43.762C56.2822 43.9207 56.3615 44.1213 56.3615 44.364V47.948C56.3615 48.5547 56.4922 48.984 56.7535 49.236C57.0242 49.4787 57.3975 49.6 57.8735 49.6C58.2002 49.6 58.4755 49.5393 58.6995 49.418C58.9235 49.2873 59.0962 49.1007 59.2175 48.858C59.3388 48.606 59.3995 48.3027 59.3995 47.948V44.364C59.3995 44.1213 59.4788 43.9207 59.6375 43.762C59.7962 43.594 59.9968 43.51 60.2395 43.51ZM70.0959 47.262C70.0959 48.0273 69.9233 48.704 69.5779 49.292C69.2419 49.8707 68.7846 50.3233 68.2059 50.65C67.6366 50.9767 66.9973 51.14 66.2879 51.14C65.5786 51.14 64.9346 50.9767 64.3559 50.65C63.7866 50.3233 63.3293 49.8707 62.9839 49.292C62.6479 48.704 62.4799 48.0273 62.4799 47.262C62.4799 46.4967 62.6479 45.8247 62.9839 45.246C63.3293 44.658 63.7866 44.2007 64.3559 43.874C64.9346 43.538 65.5786 43.37 66.2879 43.37C66.9973 43.37 67.6366 43.538 68.2059 43.874C68.7846 44.2007 69.2419 44.658 69.5779 45.246C69.9233 45.8247 70.0959 46.4967 70.0959 47.262ZM68.4159 47.262C68.4159 46.786 68.3179 46.3753 68.1219 46.03C67.9353 45.6753 67.6786 45.4 67.3519 45.204C67.0346 45.008 66.6799 44.91 66.2879 44.91C65.8959 44.91 65.5366 45.008 65.2099 45.204C64.8926 45.4 64.6359 45.6753 64.4399 46.03C64.2533 46.3753 64.1599 46.786 64.1599 47.262C64.1599 47.7287 64.2533 48.1393 64.4399 48.494C64.6359 48.8393 64.8926 49.11 65.2099 49.306C65.5366 49.502 65.8959 49.6 66.2879 49.6C66.6799 49.6 67.0346 49.502 67.3519 49.306C67.6786 49.11 67.9353 48.8393 68.1219 48.494C68.3179 48.1393 68.4159 47.7287 68.4159 47.262ZM77.1243 43.51C77.3669 43.51 77.5676 43.594 77.7262 43.762C77.8849 43.9207 77.9643 44.1213 77.9643 44.364V47.92C77.9643 48.9093 77.6889 49.6933 77.1383 50.272C76.5876 50.8507 75.7943 51.14 74.7583 51.14C73.7223 51.14 72.9289 50.8507 72.3783 50.272C71.8369 49.6933 71.5663 48.9093 71.5663 47.92V44.364C71.5663 44.1213 71.6456 43.9207 71.8043 43.762C71.9629 43.594 72.1636 43.51 72.4062 43.51C72.6489 43.51 72.8496 43.594 73.0083 43.762C73.1669 43.9207 73.2463 44.1213 73.2463 44.364V47.92C73.2463 48.4893 73.3723 48.914 73.6243 49.194C73.8763 49.4647 74.2543 49.6 74.7583 49.6C75.2716 49.6 75.6543 49.4647 75.9063 49.194C76.1583 48.914 76.2843 48.4893 76.2843 47.92V44.364C76.2843 44.1213 76.3636 43.9207 76.5223 43.762C76.6809 43.594 76.8816 43.51 77.1243 43.51ZM80.623 51C80.3804 51 80.1797 50.9207 80.021 50.762C79.8624 50.594 79.783 50.3887 79.783 50.146V44.364C79.783 44.1213 79.8624 43.9207 80.021 43.762C80.1797 43.594 80.3804 43.51 80.623 43.51C80.8657 43.51 81.0664 43.594 81.225 43.762C81.3837 43.9207 81.463 44.1213 81.463 44.364V45.68L81.365 44.742C81.4677 44.518 81.5984 44.322 81.757 44.154C81.925 43.9767 82.1117 43.832 82.317 43.72C82.5224 43.5987 82.7417 43.51 82.975 43.454C83.2084 43.398 83.4417 43.37 83.675 43.37C83.955 43.37 84.1884 43.4493 84.375 43.608C84.571 43.7667 84.669 43.9533 84.669 44.168C84.669 44.476 84.5897 44.7 84.431 44.84C84.2724 44.9707 84.0997 45.036 83.913 45.036C83.7357 45.036 83.5724 45.0033 83.423 44.938C83.283 44.8727 83.1197 44.84 82.933 44.84C82.765 44.84 82.5924 44.882 82.415 44.966C82.247 45.0407 82.0884 45.162 81.939 45.33C81.799 45.498 81.6824 45.708 81.589 45.96C81.505 46.2027 81.463 46.492 81.463 46.828V50.146C81.463 50.3887 81.3837 50.594 81.225 50.762C81.0664 50.9207 80.8657 51 80.623 51ZM94.1172 41.2C94.7892 41.2 95.3865 41.326 95.9092 41.578C96.4319 41.83 96.8705 42.1847 97.2252 42.642C97.5892 43.09 97.8599 43.6127 98.0372 44.21C98.2239 44.798 98.3172 45.428 98.3172 46.1C98.3172 47.0053 98.1539 47.8313 97.8272 48.578C97.5005 49.3153 97.0245 49.9033 96.3992 50.342C95.7832 50.7807 95.0225 51 94.1172 51H90.7712C90.5285 51 90.3232 50.9207 90.1552 50.762C89.9965 50.594 89.9172 50.3887 89.9172 50.146V42.054C89.9172 41.8113 89.9965 41.6107 90.1552 41.452C90.3232 41.284 90.5285 41.2 90.7712 41.2H94.1172ZM93.9772 49.39C94.5652 49.39 95.0459 49.2407 95.4192 48.942C95.7925 48.634 96.0632 48.2327 96.2312 47.738C96.4085 47.234 96.4972 46.688 96.4972 46.1C96.4972 45.6613 96.4459 45.246 96.3432 44.854C96.2499 44.4527 96.1005 44.1027 95.8952 43.804C95.6899 43.496 95.4285 43.2533 95.1112 43.076C94.7939 42.8987 94.4159 42.81 93.9772 42.81H91.5272L91.6672 42.684V49.544L91.5832 49.39H93.9772ZM105.917 43.37C106.16 43.37 106.36 43.4493 106.519 43.608C106.678 43.7667 106.757 43.972 106.757 44.224V50.146C106.757 50.3887 106.678 50.594 106.519 50.762C106.36 50.9207 106.16 51 105.917 51C105.674 51 105.474 50.9207 105.315 50.762C105.156 50.594 105.077 50.3887 105.077 50.146V49.46L105.385 49.586C105.385 49.7073 105.32 49.8567 105.189 50.034C105.058 50.202 104.881 50.37 104.657 50.538C104.433 50.706 104.167 50.8507 103.859 50.972C103.56 51.084 103.234 51.14 102.879 51.14C102.235 51.14 101.652 50.9767 101.129 50.65C100.606 50.314 100.191 49.8567 99.883 49.278C99.5843 48.69 99.435 48.018 99.435 47.262C99.435 46.4967 99.5843 45.8247 99.883 45.246C100.191 44.658 100.602 44.2007 101.115 43.874C101.628 43.538 102.198 43.37 102.823 43.37C103.224 43.37 103.593 43.4307 103.929 43.552C104.265 43.6733 104.554 43.8273 104.797 44.014C105.049 44.2007 105.24 44.392 105.371 44.588C105.511 44.7747 105.581 44.9333 105.581 45.064L105.077 45.246V44.224C105.077 43.9813 105.156 43.7807 105.315 43.622C105.474 43.454 105.674 43.37 105.917 43.37ZM103.089 49.6C103.5 49.6 103.859 49.4973 104.167 49.292C104.475 49.0867 104.713 48.8067 104.881 48.452C105.058 48.0973 105.147 47.7007 105.147 47.262C105.147 46.814 105.058 46.4127 104.881 46.058C104.713 45.7033 104.475 45.4233 104.167 45.218C103.859 45.0127 103.5 44.91 103.089 44.91C102.688 44.91 102.333 45.0127 102.025 45.218C101.717 45.4233 101.474 45.7033 101.297 46.058C101.129 46.4127 101.045 46.814 101.045 47.262C101.045 47.7007 101.129 48.0973 101.297 48.452C101.474 48.8067 101.717 49.0867 102.025 49.292C102.333 49.4973 102.688 49.6 103.089 49.6ZM108.66 43.65H111.978C112.202 43.65 112.389 43.7247 112.538 43.874C112.687 44.0233 112.762 44.21 112.762 44.434C112.762 44.6487 112.687 44.8307 112.538 44.98C112.389 45.12 112.202 45.19 111.978 45.19H108.66C108.436 45.19 108.249 45.1153 108.1 44.966C107.951 44.8167 107.876 44.63 107.876 44.406C107.876 44.1913 107.951 44.014 108.1 43.874C108.249 43.7247 108.436 43.65 108.66 43.65ZM110.158 41.9C110.401 41.9 110.597 41.984 110.746 42.152C110.905 42.3107 110.984 42.5113 110.984 42.754V48.984C110.984 49.1147 111.007 49.222 111.054 49.306C111.11 49.39 111.18 49.4507 111.264 49.488C111.357 49.5253 111.455 49.544 111.558 49.544C111.67 49.544 111.773 49.5253 111.866 49.488C111.959 49.4413 112.067 49.418 112.188 49.418C112.319 49.418 112.435 49.4787 112.538 49.6C112.65 49.7213 112.706 49.8893 112.706 50.104C112.706 50.3653 112.561 50.58 112.272 50.748C111.992 50.916 111.689 51 111.362 51C111.166 51 110.947 50.986 110.704 50.958C110.471 50.9207 110.247 50.8413 110.032 50.72C109.827 50.5893 109.654 50.3933 109.514 50.132C109.374 49.8707 109.304 49.5113 109.304 49.054V42.754C109.304 42.5113 109.383 42.3107 109.542 42.152C109.71 41.984 109.915 41.9 110.158 41.9ZM120.437 43.37C120.679 43.37 120.88 43.4493 121.039 43.608C121.197 43.7667 121.277 43.972 121.277 44.224V50.146C121.277 50.3887 121.197 50.594 121.039 50.762C120.88 50.9207 120.679 51 120.437 51C120.194 51 119.993 50.9207 119.835 50.762C119.676 50.594 119.597 50.3887 119.597 50.146V49.46L119.905 49.586C119.905 49.7073 119.839 49.8567 119.709 50.034C119.578 50.202 119.401 50.37 119.177 50.538C118.953 50.706 118.687 50.8507 118.379 50.972C118.08 51.084 117.753 51.14 117.399 51.14C116.755 51.14 116.171 50.9767 115.649 50.65C115.126 50.314 114.711 49.8567 114.403 49.278C114.104 48.69 113.955 48.018 113.955 47.262C113.955 46.4967 114.104 45.8247 114.403 45.246C114.711 44.658 115.121 44.2007 115.635 43.874C116.148 43.538 116.717 43.37 117.343 43.37C117.744 43.37 118.113 43.4307 118.449 43.552C118.785 43.6733 119.074 43.8273 119.317 44.014C119.569 44.2007 119.76 44.392 119.891 44.588C120.031 44.7747 120.101 44.9333 120.101 45.064L119.597 45.246V44.224C119.597 43.9813 119.676 43.7807 119.835 43.622C119.993 43.454 120.194 43.37 120.437 43.37ZM117.609 49.6C118.019 49.6 118.379 49.4973 118.687 49.292C118.995 49.0867 119.233 48.8067 119.401 48.452C119.578 48.0973 119.667 47.7007 119.667 47.262C119.667 46.814 119.578 46.4127 119.401 46.058C119.233 45.7033 118.995 45.4233 118.687 45.218C118.379 45.0127 118.019 44.91 117.609 44.91C117.207 44.91 116.853 45.0127 116.545 45.218C116.237 45.4233 115.994 45.7033 115.817 46.058C115.649 46.4127 115.565 46.814 115.565 47.262C115.565 47.7007 115.649 48.0973 115.817 48.452C115.994 48.8067 116.237 49.0867 116.545 49.292C116.853 49.4973 117.207 49.6 117.609 49.6Z" fill="white"/>
<path d="M19.63 3.65C19.5138 3.55602 19.3781 3.48928 19.2327 3.45467C19.0873 3.42006 18.9361 3.41846 18.79 3.45C17.7214 3.67395 16.6183 3.6768 15.5486 3.45839C14.4789 3.23997 13.4652 2.80492 12.57 2.18C12.4026 2.06388 12.2037 2.00165 12 2.00165C11.7963 2.00165 11.5974 2.06388 11.43 2.18C10.5348 2.80492 9.52107 3.23997 8.45136 3.45839C7.38166 3.6768 6.27856 3.67395 5.21 3.45C5.06394 3.41846 4.91266 3.42006 4.7673 3.45467C4.62193 3.48928 4.48617 3.55602 4.37 3.65C4.25398 3.74412 4.16052 3.86304 4.09649 3.99802C4.03246 4.133 3.99949 4.28061 4 4.43V11.88C3.99911 13.3138 4.34077 14.727 4.99653 16.002C5.65229 17.277 6.60318 18.3768 7.77 19.21L11.42 21.81C11.5894 21.9306 11.7921 21.9954 12 21.9954C12.2079 21.9954 12.4106 21.9306 12.58 21.81L16.23 19.21C17.3968 18.3768 18.3477 17.277 19.0035 16.002C19.6592 14.727 20.0009 13.3138 20 11.88V4.43C20.0005 4.28061 19.9675 4.133 19.9035 3.99802C19.8395 3.86304 19.746 3.74412 19.63 3.65ZM18 11.88C18.0008 12.9948 17.7353 14.0936 17.2256 15.085C16.716 16.0765 15.977 16.9319 15.07 17.58L12 19.77L8.93 17.58C8.02303 16.9319 7.28398 16.0765 6.77435 15.085C6.26471 14.0936 5.99923 12.9948 6 11.88V5.58C8.09643 5.75944 10.196 5.27303 12 4.19C13.804 5.27303 15.9036 5.75944 18 5.58V11.88ZM13.54 9.59L10.85 12.29L9.96 11.39C9.77169 11.2017 9.5163 11.0959 9.25 11.0959C8.9837 11.0959 8.7283 11.2017 8.54 11.39C8.35169 11.5783 8.24591 11.8337 8.24591 12.1C8.24591 12.3663 8.35169 12.6217 8.54 12.81L10.14 14.41C10.233 14.5037 10.3436 14.5781 10.4654 14.6289C10.5873 14.6797 10.718 14.7058 10.85 14.7058C10.982 14.7058 11.1127 14.6797 11.2346 14.6289C11.3564 14.5781 11.467 14.5037 11.56 14.41L15 11C15.1883 10.8117 15.2941 10.5563 15.2941 10.29C15.2941 10.0237 15.1883 9.76831 15 9.58C14.8117 9.3917 14.5563 9.28591 14.29 9.28591C14.0237 9.28591 13.7683 9.3917 13.58 9.58L13.54 9.59Z" fill="white"/>
</svg>
