<svg width="303" height="117" viewBox="0 0 303 117" fill="none" xmlns="http://www.w3.org/2000/svg">
<g filter="url(#filter0_b_289_1500)">
<ellipse cx="151.588" cy="113.129" rx="151.412" ry="3.87132" fill="#E9E9F4" fill-opacity="0.74"/>
</g>
<path d="M43.6561 67.6317C41.5432 74.969 35.3738 80.1052 28.9383 84.4684C28.0397 85.0777 27.1409 85.673 26.2417 86.2543C26.2356 86.257 26.2293 86.2627 26.2232 86.2654C26.1799 86.2932 26.1366 86.3211 26.0963 86.3491C25.9107 86.4688 25.7251 86.5887 25.541 86.707L25.6421 86.7525C25.6421 86.7525 25.7414 86.8053 25.6328 86.761C25.6004 86.7474 25.5666 86.7353 25.5343 86.7217C21.7957 85.2123 17.9907 83.5917 15.1256 80.7642C12.1535 77.828 10.4166 73.2227 12.0259 69.3653C12.2375 68.86 12.5047 68.38 12.8226 67.934C12.9531 67.747 13.0937 67.5681 13.2401 67.3924C14.1278 66.3079 15.2881 65.4795 16.6017 64.9927C17.9152 64.5058 19.3346 64.3779 20.7139 64.6222C22.0932 64.8665 23.3826 65.4741 24.4496 66.3825C25.5165 67.291 26.3224 68.4675 26.7845 69.7911C27.2573 65.3846 23.6275 61.6934 20.1342 58.9699C16.6394 56.2478 12.6684 53.2833 11.9928 48.9012C11.6155 46.4631 12.4624 44.1003 14.0053 42.2035C14.0531 42.1459 14.1008 42.0883 14.15 42.0323C16.0282 39.8231 18.6698 38.4045 21.5472 38.0598C26.906 37.5023 32.1113 40.3417 36.0043 44.0713C42.2701 50.072 46.0581 59.2891 43.6561 67.6317Z" fill="#69CA94"/>
<path d="M33.5823 58.0344C34.6107 59.6361 35.4003 61.3794 35.9262 63.2093C36.3709 64.8447 36.5688 66.5376 36.5134 68.2316C36.3699 71.7176 35.3923 75.1181 33.6626 78.1471C32.3598 80.445 30.772 82.5689 28.937 84.4683C28.0384 85.0776 27.1396 85.6729 26.2404 86.2542C26.2343 86.2569 26.228 86.2626 26.2219 86.2653C26.1786 86.2931 26.1353 86.321 26.095 86.349C25.9094 86.4688 25.7238 86.5886 25.5397 86.707C25.5397 86.707 25.7401 86.8053 25.6315 86.7609C25.5992 86.7474 25.5653 86.7352 25.533 86.7216C25.8681 83.9716 25.5399 81.1813 24.5758 78.5845C23.6117 75.9877 22.0398 73.6601 19.992 71.7966C17.9392 69.9614 15.4822 68.6379 12.8213 67.934C12.9518 67.747 13.0924 67.568 13.2388 67.3923C14.2665 67.6808 15.2667 68.0597 16.2277 68.5245C19.663 70.1759 22.4759 72.8905 24.25 76.2667C25.842 79.3324 26.5272 82.7891 26.2251 86.231C26.3787 86.0917 26.5325 85.9493 26.6817 85.8083C29.5226 83.157 32.0459 80.1137 33.7537 76.6015C35.2352 73.6271 35.9634 70.3338 35.874 67.0114C35.7346 63.3887 34.2927 60.0332 32.2049 57.112C29.9168 53.9956 27.2136 51.2069 24.1706 48.8235C21.104 46.3648 17.7483 44.291 14.1783 42.6483C14.0978 42.6107 14.0348 42.5435 14.0024 42.4607C13.97 42.3779 13.9706 42.2858 14.0041 42.2034C14.0279 42.1295 14.0799 42.068 14.1488 42.0322C14.1842 42.0169 14.2226 42.0098 14.2612 42.0115C14.2997 42.0131 14.3374 42.0234 14.3714 42.0417C14.8122 42.2448 15.2499 42.4507 15.6841 42.6655C19.3005 44.4548 22.6809 46.6869 25.7476 49.3105C28.7098 51.8385 31.4985 54.7267 33.5823 58.0344Z" fill="#69CA94"/>
<path d="M13.1506 86.1089H36.305C36.559 86.1089 36.8101 86.1629 37.0416 86.2675C37.2731 86.372 37.4798 86.5247 37.6479 86.7153C37.816 86.9059 37.9416 87.1301 38.0166 87.373C38.0915 87.6159 38.1139 87.872 38.0824 88.1243L35.1321 111.75C35.0774 112.184 34.8667 112.582 34.5396 112.871C34.2124 113.16 33.7912 113.32 33.3547 113.321H16.1009C15.6645 113.32 15.2432 113.16 14.9161 112.871C14.5889 112.582 14.3782 112.184 14.3235 111.75L11.3732 88.1243C11.3417 87.872 11.3642 87.6159 11.4391 87.373C11.514 87.1301 11.6397 86.9059 11.8077 86.7153C11.9758 86.5247 12.1825 86.372 12.414 86.2675C12.6455 86.1629 12.8966 86.1089 13.1506 86.1089Z" fill="white"/>
<path d="M88.6478 113.503C90.2481 113.503 91.5455 112.204 91.5455 110.602C91.5455 109 90.2481 107.701 88.6478 107.701C87.0474 107.701 85.75 109 85.75 110.602C85.75 112.204 87.0474 113.503 88.6478 113.503Z" fill="#9591AF"/>
<path d="M271.688 113.503C273.288 113.503 274.586 112.204 274.586 110.602C274.586 109 273.288 107.701 271.688 107.701C270.087 107.701 268.79 109 268.79 110.602C268.79 112.204 270.087 113.503 271.688 113.503Z" fill="#9591AF"/>
<path d="M141.771 70.2341H96.3731C94.2604 70.2317 92.2349 69.3905 90.741 67.895C89.247 66.3996 88.4067 64.3721 88.4043 62.2572V31.3167C88.4067 29.2018 89.247 27.1743 90.741 25.6788C92.2349 24.1834 94.2604 23.3422 96.3731 23.3398H141.771C143.884 23.3422 145.91 24.1834 147.404 25.6788C148.897 27.1743 149.738 29.2018 149.74 31.3167V62.2572C149.738 64.3721 148.897 66.3996 147.404 67.8951C145.91 69.3905 143.884 70.2317 141.771 70.2341Z" fill="#9591AF"/>
<path d="M202.867 70.4758H157.469C155.356 70.4734 153.331 69.6322 151.837 68.1368C150.343 66.6413 149.502 64.6138 149.5 62.4989V31.5584C149.502 29.4435 150.343 27.416 151.837 25.9206C153.331 24.4251 155.356 23.5839 157.469 23.5815H202.867C204.98 23.5839 207.005 24.4251 208.499 25.9206C209.993 27.416 210.833 29.4435 210.836 31.5584V62.4989C210.833 64.6138 209.993 66.6413 208.499 68.1368C207.005 69.6322 204.98 70.4734 202.867 70.4758Z" fill="#9591AF"/>
<path d="M263.962 70.7174H218.564C216.451 70.7151 214.425 69.8739 212.931 68.3784C211.437 66.883 210.597 64.8554 210.595 62.7406V31.8001C210.597 29.6852 211.437 27.6577 212.931 26.1622C214.425 24.6668 216.451 23.8256 218.564 23.8232H263.962C266.075 23.8256 268.1 24.6668 269.594 26.1622C271.088 27.6577 271.928 29.6852 271.931 31.8001V62.7406C271.928 64.8555 271.088 66.883 269.594 68.3785C268.1 69.8739 266.075 70.7151 263.962 70.7174Z" fill="#9591AF"/>
<path d="M281.348 68.542H81.4023V110.36H281.348V68.542Z" fill="#9591AF"/>
<path d="M88.6465 110.602H79.9532C75.5592 110.602 71.9844 106.539 71.9844 101.545V57.9062H88.6465V110.602Z" fill="#9591AF"/>
<path d="M280.381 110.602H271.688V51.1379H288.35V100.381C288.35 106.017 284.775 110.602 280.381 110.602Z" fill="#9591AF"/>
<path d="M149.981 77.244H88.6455V64.191C109.091 52.4513 129.536 52.4513 149.981 64.191V77.244Z" fill="#E9E9F4"/>
<path d="M211.076 77.4857H149.74V64.4327C170.186 52.693 190.631 52.693 211.076 64.4327V77.4857Z" fill="#E9E9F4"/>
<path d="M272.172 77.7274H210.836V64.6744C231.281 52.9347 251.727 52.9347 272.172 64.6744V77.7274Z" fill="#E9E9F4"/>
<path d="M76.8137 69.0255C84.6823 69.0255 91.061 62.6403 91.061 54.7638C91.061 46.8874 84.6823 40.5022 76.8137 40.5022C68.9451 40.5022 62.5664 46.8874 62.5664 54.7638C62.5664 62.6403 68.9451 69.0255 76.8137 69.0255Z" fill="#E9E9F4"/>
<path d="M285.452 68.5418C293.321 68.5418 299.7 62.1567 299.7 54.2802C299.7 46.4037 293.321 40.0186 285.452 40.0186C277.584 40.0186 271.205 46.4037 271.205 54.2802C271.205 62.1567 277.584 68.5418 285.452 68.5418Z" fill="#E9E9F4"/>
<path d="M243.485 26.3406C243.518 26.5698 243.533 26.8014 243.53 27.033L260.607 38.8153L265.162 36.6571L269.314 43.1115L261.622 47.7164C261.001 48.0884 260.276 48.2486 259.556 48.173C258.836 48.0973 258.159 47.7899 257.629 47.2969L240.333 31.2283C239.475 31.4701 238.564 31.4446 237.72 31.1552C236.877 30.8658 236.142 30.3263 235.612 29.6083C235.083 28.8904 234.784 28.0281 234.756 27.1361C234.728 26.2442 234.972 25.3648 235.455 24.615C235.939 23.8652 236.639 23.2805 237.462 22.9387C238.286 22.5969 239.194 22.5141 240.066 22.7014C240.937 22.8887 241.731 23.3373 242.342 23.9873C242.953 24.6374 243.351 25.4582 243.485 26.3406V26.3406Z" fill="#FFB8B8"/>
<path d="M260.935 37.8015C261.01 37.5414 261.14 37.3006 261.317 37.0956C261.493 36.8905 261.712 36.726 261.958 36.6133L270.545 32.6747C271.705 31.919 273.117 31.6545 274.471 31.939C275.825 32.2235 277.011 33.034 277.769 34.1926C278.527 35.3512 278.796 36.7635 278.515 38.1198C278.235 39.4761 277.428 40.6658 276.273 41.428L269.174 47.7116C268.971 47.891 268.733 48.0245 268.474 48.103C268.215 48.1816 267.942 48.2034 267.674 48.167C267.406 48.1306 267.149 48.0368 266.921 47.892C266.692 47.7472 266.498 47.5548 266.35 47.3279L261.165 39.3534C261.018 39.1265 260.921 38.8704 260.881 38.6026C260.841 38.3348 260.859 38.0615 260.935 37.8015Z" fill="#69CA94"/>
<path d="M243.269 27.1086L243.183 27.1148L242.948 23.8723C242.874 22.8359 242.204 22.0398 241.452 22.0942L236.473 22.4549C235.722 22.5093 234.339 23.454 234.414 24.4905L234.474 25.3256L235.7 42.2789C235.775 43.3154 237.279 44.0511 238.03 43.9967L243.01 43.636C243.761 43.5816 244.309 42.6972 244.234 41.6608L243.35 29.4229L243.435 29.4166L243.269 27.1086Z" fill="#3F3D56"/>
<path d="M242.66 23.9063L243.944 41.6686C244 42.4427 243.591 43.1031 243.03 43.1437L238.026 43.5061C237.465 43.5468 236.965 42.9522 236.909 42.1782L235.625 24.4159C235.569 23.6419 235.979 22.9815 236.54 22.9408L237.147 22.8968C237.105 23.0549 237.114 23.2222 237.173 23.3747C237.232 23.5273 237.338 23.6572 237.475 23.7458C237.532 23.7735 237.596 23.7859 237.66 23.7818L240.513 23.5751C240.779 23.5555 240.974 23.2414 240.947 22.8735C240.941 22.7887 240.923 22.7051 240.893 22.6254L241.543 22.5784C242.104 22.5378 242.604 23.1323 242.66 23.9063Z" fill="white"/>
<path d="M172.469 64.9213L170.818 60.0621L188.758 51.3777L191.193 58.5499L172.469 64.9213Z" fill="#FFB8B8"/>
<path d="M168.183 67.7622L162.862 52.0936L163.06 52.0262C163.86 51.7539 164.706 51.642 165.549 51.6969C166.393 51.7519 167.217 51.9725 167.975 52.3463C168.733 52.72 169.41 53.2397 169.968 53.8754C170.525 54.5111 170.952 55.2505 171.224 56.0514L171.224 56.0518L174.474 65.6216L168.183 67.7622Z" fill="#2F2E41"/>
<path d="M243.668 68.3894C239.821 68.6057 235.984 67.8017 232.546 66.0586L211.452 51.6936L186.82 60.8237C186.167 61.0463 185.453 61.0123 184.823 60.7285C184.193 60.4448 183.694 59.9324 183.427 59.2948L182.22 56.3881C181.945 55.7343 181.937 54.9984 182.198 54.3388C182.459 53.6793 182.969 53.1487 183.617 52.8612L207.149 42.2828C209.974 41.0174 213.143 40.743 216.144 41.504L248.812 49.8373L257.448 60.1025L257.352 60.2349C253.113 66.0893 248.084 68.0695 243.668 68.3894Z" fill="#2F2E41"/>
<path d="M270.348 25.4946C276.021 25.4946 280.62 20.8911 280.62 15.2123C280.62 9.53349 276.021 4.92993 270.348 4.92993C264.675 4.92993 260.076 9.53349 260.076 15.2123C260.076 20.8911 264.675 25.4946 270.348 25.4946Z" fill="#FFB8B8"/>
<path d="M259.805 64.6792L243.272 52.3637L254.547 44.3427C254.225 43.3038 252.794 37.364 260.618 33.3152C263.095 32.0338 264.879 30.9306 265.922 30.0368C267.401 28.7594 269.295 28.0675 271.249 28.0914C272.48 28.111 273.69 28.4172 274.783 28.9857C275.875 29.5542 276.821 30.3695 277.544 31.3671C278.268 32.3646 278.75 33.517 278.951 34.7331C279.153 35.9491 279.069 37.1955 278.706 38.3735C277.075 43.6821 274.476 50.7163 271.36 54.0804C267.835 57.8811 264.013 61.3939 259.93 64.5853L259.805 64.6792Z" fill="#69CA94"/>
<path d="M175.089 69.2274L173.438 64.3678L191.378 55.6838L193.814 62.8556L175.089 69.2274Z" fill="#FFB8B8"/>
<path d="M170.805 72.0681L165.483 56.3995L165.681 56.3321C166.481 56.0598 167.327 55.9479 168.171 56.0028C169.014 56.0578 169.838 56.2784 170.596 56.6522C171.354 57.026 172.031 57.5456 172.589 58.1813C173.146 58.817 173.573 59.5564 173.845 60.3573L173.845 60.3577L177.095 69.9276L170.805 72.0681Z" fill="#2F2E41"/>
<path d="M246.288 72.6954C242.441 72.9117 238.604 72.1076 235.166 70.3645L214.072 55.9995L189.441 65.1296C188.787 65.3522 188.073 65.3182 187.443 65.0344C186.813 64.7507 186.315 64.2382 186.048 63.6007L184.84 60.694C184.565 60.0402 184.557 59.3043 184.818 58.6448C185.079 57.9852 185.589 57.4546 186.237 57.1671L209.769 46.5887C212.594 45.3233 215.764 45.0489 218.764 45.8099L251.432 54.1432L260.068 64.4084L259.972 64.5408C255.733 70.3952 250.704 72.3755 246.288 72.6954Z" fill="#2F2E41"/>
<path d="M241.548 38.6754C241.676 38.8684 241.789 39.0712 241.885 39.2819L262.358 42.6105L265.55 38.7083L272.063 42.7616L267.082 50.2195C266.68 50.822 266.093 51.2776 265.41 51.5178C264.727 51.7581 263.984 51.7701 263.294 51.5519L240.791 44.4431C240.119 45.0294 239.284 45.3969 238.398 45.4969C237.512 45.5968 236.617 45.4243 235.831 45.0025C235.046 44.5806 234.407 43.9294 234 43.1353C233.594 42.3412 233.438 41.442 233.554 40.5572C233.67 39.6724 234.053 38.844 234.651 38.1821C235.249 37.5203 236.034 37.0563 236.902 36.852C237.77 36.6478 238.679 36.7128 239.509 37.0385C240.339 37.3642 241.05 37.9351 241.548 38.6754Z" fill="#FFB8B8"/>
<path d="M262.22 41.5531C262.176 41.2859 262.191 41.0124 262.263 40.7514C262.335 40.4905 262.462 40.2481 262.636 40.0408L268.712 32.8011C269.436 31.6212 270.599 30.7771 271.945 30.4538C273.29 30.1306 274.709 30.3546 275.889 31.0767C277.07 31.7988 277.917 32.9602 278.243 34.3061C278.57 35.652 278.35 37.0727 277.632 38.2567L273.904 46.9778C273.798 47.2267 273.639 47.4497 273.439 47.6316C273.238 47.8136 273.001 47.9502 272.744 48.0321C272.486 48.1141 272.213 48.1394 271.945 48.1065C271.677 48.0736 271.418 47.9831 271.188 47.8413L263.091 42.8569C262.861 42.7151 262.664 42.5253 262.513 42.3003C262.363 42.0753 262.263 41.8204 262.22 41.5531Z" fill="#69CA94"/>
<path d="M267.6 26.5364C270.585 22.6924 272.24 17.981 272.316 13.113C270.911 14.1581 269.321 14.927 267.63 15.3789C265.835 15.8574 263.862 15.9537 262.171 15.1829C259.792 14.0981 258.385 11.3314 258.655 8.7285C258.925 6.12555 260.722 3.80028 263.062 2.63296C265.457 1.51179 268.189 1.34625 270.702 2.17004C272.031 1.03679 273.659 0.311118 275.389 0.0799078C277.12 -0.151302 278.881 0.121748 280.461 0.866376C284.097 2.65274 286.107 6.78945 286.456 10.8287C286.805 14.868 285.768 18.8841 284.74 22.8057L284.624 23.2488C284.304 24.4697 283.374 26.8122 283.374 26.8122C283.374 26.8122 277.972 25.7451 275.826 25.061C272.716 26.1864 267.6 26.5364 267.6 26.5364Z" fill="#AF823D"/>
<path d="M241.853 27.5218L237.451 27.8406C237.341 27.8486 237.231 27.8123 237.148 27.7397C237.064 27.667 237.012 27.564 237.004 27.4533C236.996 27.3425 237.032 27.2331 237.105 27.1491C237.177 27.0652 237.28 27.0135 237.391 27.0055L241.792 26.6867C241.847 26.6826 241.902 26.6894 241.954 26.7066C242.007 26.7239 242.055 26.7513 242.097 26.7873C242.138 26.8232 242.172 26.8671 242.197 26.9163C242.222 26.9655 242.236 27.0191 242.24 27.074C242.244 27.1289 242.238 27.184 242.22 27.2363C242.203 27.2885 242.175 27.3368 242.139 27.3784C242.103 27.42 242.059 27.4541 242.01 27.4787C241.961 27.5033 241.907 27.518 241.853 27.5218Z" fill="#3F3D56"/>
<path d="M242.003 29.6097L237.602 29.9284C237.547 29.9325 237.492 29.9257 237.439 29.9085C237.387 29.8912 237.339 29.8638 237.297 29.8279C237.256 29.7919 237.222 29.7481 237.197 29.6989C237.172 29.6497 237.157 29.5961 237.153 29.5412C237.149 29.4862 237.156 29.4311 237.174 29.3789C237.191 29.3266 237.219 29.2783 237.255 29.2367C237.291 29.1951 237.334 29.161 237.384 29.1364C237.433 29.1118 237.486 29.0972 237.541 29.0933L241.943 28.7745C242.053 28.7665 242.163 28.8028 242.246 28.8755C242.33 28.9481 242.382 29.0511 242.39 29.1619C242.398 29.2726 242.362 29.382 242.289 29.466C242.217 29.55 242.114 29.6016 242.003 29.6097Z" fill="#3F3D56"/>
<path d="M242.155 31.6975L237.753 32.0163C237.643 32.0241 237.534 31.9877 237.45 31.915C237.366 31.8424 237.315 31.7395 237.307 31.6289C237.299 31.5183 237.335 31.4091 237.407 31.3251C237.48 31.2412 237.582 31.1894 237.693 31.1812L242.094 30.8624C242.205 30.8544 242.314 30.8907 242.398 30.9634C242.482 31.036 242.533 31.139 242.541 31.2498C242.549 31.3605 242.513 31.4699 242.441 31.5539C242.368 31.6378 242.265 31.6895 242.155 31.6975Z" fill="#3F3D56"/>
<defs>
<filter id="filter0_b_289_1500" x="-12.7286" y="96.3529" width="328.632" height="33.5515" filterUnits="userSpaceOnUse" color-interpolation-filters="sRGB">
<feFlood flood-opacity="0" result="BackgroundImageFix"/>
<feGaussianBlur in="BackgroundImage" stdDeviation="6.45221"/>
<feComposite in2="SourceAlpha" operator="in" result="effect1_backgroundBlur_289_1500"/>
<feBlend mode="normal" in="SourceGraphic" in2="effect1_backgroundBlur_289_1500" result="shape"/>
</filter>
</defs>
</svg>
