<svg width="599" height="117" viewBox="0 0 599 117" fill="none" xmlns="http://www.w3.org/2000/svg">
<path d="M5.92 24.2C4.96 24.2 4.10667 24.0667 3.36 23.8C2.61333 23.5333 1.9 23.0933 1.22 22.48C1.07333 22.3733 0.96 22.2467 0.88 22.1C0.813333 21.94 0.78 21.78 0.78 21.62C0.78 21.3667 0.873333 21.14 1.06 20.94C1.24667 20.74 1.48 20.64 1.76 20.64C1.97333 20.64 2.17333 20.7133 2.36 20.86C2.86667 21.3267 3.39333 21.68 3.94 21.92C4.5 22.16 5.15333 22.28 5.9 22.28C6.43333 22.28 6.92 22.1933 7.36 22.02C7.81333 21.8467 8.17333 21.6133 8.44 21.32C8.70667 21.0267 8.84 20.6867 8.84 20.3C8.84 19.82 8.7 19.4267 8.42 19.12C8.15333 18.8 7.76 18.54 7.24 18.34C6.73333 18.1267 6.12 17.9467 5.4 17.8C4.73333 17.68 4.13333 17.5133 3.6 17.3C3.08 17.0867 2.63333 16.82 2.26 16.5C1.88667 16.1667 1.6 15.7733 1.4 15.32C1.2 14.8667 1.1 14.34 1.1 13.74C1.1 12.9267 1.31333 12.2267 1.74 11.64C2.16667 11.0533 2.74667 10.6 3.48 10.28C4.21333 9.96 5.04 9.8 5.96 9.8C6.8 9.8 7.58667 9.93333 8.32 10.2C9.05333 10.4533 9.64667 10.8 10.1 11.24C10.42 11.52 10.58 11.82 10.58 12.14C10.58 12.38 10.48 12.6067 10.28 12.82C10.0933 13.02 9.87333 13.12 9.62 13.12C9.43333 13.12 9.27333 13.0667 9.14 12.96C8.92667 12.7333 8.64 12.5333 8.28 12.36C7.92 12.1733 7.53333 12.02 7.12 11.9C6.72 11.78 6.33333 11.72 5.96 11.72C5.36 11.72 4.84667 11.8067 4.42 11.98C3.99333 12.14 3.66667 12.3667 3.44 12.66C3.21333 12.94 3.1 13.2733 3.1 13.66C3.1 14.1133 3.22667 14.4867 3.48 14.78C3.74667 15.0733 4.11333 15.3133 4.58 15.5C5.04667 15.6733 5.58 15.8333 6.18 15.98C6.91333 16.14 7.56667 16.32 8.14 16.52C8.72667 16.72 9.22 16.98 9.62 17.3C10.02 17.6067 10.3267 17.9933 10.54 18.46C10.7533 18.9267 10.86 19.5067 10.86 20.2C10.86 21 10.6333 21.7 10.18 22.3C9.72667 22.9 9.12667 23.3667 8.38 23.7C7.64667 24.0333 6.82667 24.2 5.92 24.2ZM14.9792 22.98C14.9792 23.2733 14.8859 23.52 14.6992 23.72C14.5126 23.9067 14.2726 24 13.9792 24C13.6992 24 13.4592 23.9067 13.2592 23.72C13.0726 23.52 12.9792 23.2733 12.9792 22.98V14.42C12.9792 14.1267 13.0726 13.8867 13.2592 13.7C13.4592 13.5 13.6992 13.4 13.9792 13.4C14.2726 13.4 14.5126 13.5 14.6992 13.7C14.8859 13.8867 14.9792 14.1267 14.9792 14.42V22.98ZM13.9592 12.08C13.5726 12.08 13.2926 12.0133 13.1192 11.88C12.9459 11.7333 12.8592 11.4933 12.8592 11.16V10.84C12.8592 10.5067 12.9526 10.2733 13.1392 10.14C13.3259 10.0067 13.6059 9.94 13.9792 9.94C14.3792 9.94 14.6659 10.0133 14.8392 10.16C15.0126 10.2933 15.0992 10.52 15.0992 10.84V11.16C15.0992 11.5067 15.0059 11.7467 14.8192 11.88C14.6459 12.0133 14.3592 12.08 13.9592 12.08ZM17.5295 13.6H22.2295C22.4962 13.6 22.7162 13.6933 22.8895 13.88C23.0762 14.0533 23.1695 14.2733 23.1695 14.54C23.1695 14.7933 23.0762 15.0067 22.8895 15.18C22.7162 15.3533 22.4962 15.44 22.2295 15.44H17.5295C17.2629 15.44 17.0362 15.3533 16.8495 15.18C16.6762 14.9933 16.5895 14.7733 16.5895 14.52C16.5895 14.2533 16.6762 14.0333 16.8495 13.86C17.0362 13.6867 17.2629 13.6 17.5295 13.6ZM19.6295 11C19.9229 11 20.1629 11.1 20.3495 11.3C20.5362 11.4867 20.6295 11.7267 20.6295 12.02V21.3C20.6295 21.54 20.6695 21.7333 20.7495 21.88C20.8295 22.0267 20.9362 22.1267 21.0695 22.18C21.2162 22.2333 21.3629 22.26 21.5095 22.26C21.6562 22.26 21.7829 22.2333 21.8895 22.18C22.0095 22.1267 22.1495 22.1 22.3095 22.1C22.4695 22.1 22.6162 22.1733 22.7495 22.32C22.8829 22.4667 22.9495 22.6667 22.9495 22.92C22.9495 23.24 22.7762 23.5 22.4295 23.7C22.0829 23.9 21.7095 24 21.3095 24C21.0829 24 20.8162 23.98 20.5095 23.94C20.2029 23.9 19.9029 23.8 19.6095 23.64C19.3295 23.48 19.0962 23.2267 18.9095 22.88C18.7229 22.52 18.6295 22.02 18.6295 21.38V12.02C18.6295 11.7267 18.7229 11.4867 18.9095 11.3C19.1095 11.1 19.3495 11 19.6295 11ZM36.3708 13.24C37.3174 13.24 38.0508 13.44 38.5708 13.84C39.0908 14.2267 39.4508 14.7533 39.6508 15.42C39.8641 16.0733 39.9708 16.8067 39.9708 17.62V22.98C39.9708 23.2733 39.8708 23.52 39.6708 23.72C39.4841 23.9067 39.2508 24 38.9708 24C38.6774 24 38.4374 23.9067 38.2508 23.72C38.0641 23.52 37.9708 23.2733 37.9708 22.98V17.64C37.9708 17.16 37.9041 16.7333 37.7708 16.36C37.6374 15.9733 37.4041 15.6667 37.0708 15.44C36.7508 15.2 36.2974 15.08 35.7108 15.08C35.1641 15.08 34.6841 15.2 34.2708 15.44C33.8574 15.6667 33.5308 15.9733 33.2908 16.36C33.0641 16.7333 32.9508 17.16 32.9508 17.64V22.98C32.9508 23.2733 32.8508 23.52 32.6508 23.72C32.4641 23.9067 32.2308 24 31.9508 24C31.6574 24 31.4174 23.9067 31.2308 23.72C31.0441 23.52 30.9508 23.2733 30.9508 22.98V14.5C30.9508 14.2067 31.0441 13.9667 31.2308 13.78C31.4174 13.58 31.6574 13.48 31.9508 13.48C32.2308 13.48 32.4641 13.58 32.6508 13.78C32.8508 13.9667 32.9508 14.2067 32.9508 14.5V15.62L32.5908 15.82C32.6841 15.5267 32.8441 15.2333 33.0708 14.94C33.3108 14.6333 33.5974 14.3533 33.9308 14.1C34.2641 13.8333 34.6374 13.6267 35.0508 13.48C35.4641 13.32 35.9041 13.24 36.3708 13.24ZM49.7341 24C49.4141 24 49.1341 23.9067 48.8941 23.72C48.6541 23.52 48.5341 23.2733 48.5341 22.98V11.02C48.5341 10.7267 48.6341 10.4867 48.8341 10.3C49.0341 10.1 49.2741 10 49.5541 10H55.1941C55.9141 10 56.5741 10.18 57.1741 10.54C57.7741 10.8867 58.2541 11.3733 58.6141 12C58.9874 12.6133 59.1741 13.32 59.1741 14.12C59.1741 14.6533 59.0674 15.1667 58.8541 15.66C58.6407 16.14 58.3541 16.5667 57.9941 16.94C57.6341 17.3133 57.2274 17.5933 56.7741 17.78L56.5541 17.4C56.9674 17.5467 57.3274 17.76 57.6341 18.04C57.9407 18.3067 58.1807 18.6267 58.3541 19C58.5407 19.36 58.6407 19.7733 58.6541 20.24C58.6941 20.6533 58.7274 21 58.7541 21.28C58.7941 21.5467 58.8474 21.7667 58.9141 21.94C58.9807 22.1133 59.1007 22.2467 59.2741 22.34C59.5141 22.4733 59.6607 22.6733 59.7141 22.94C59.7807 23.2067 59.7274 23.4467 59.5541 23.66C59.4341 23.82 59.2807 23.9267 59.0941 23.98C58.9207 24.02 58.7407 24.0267 58.5541 24C58.3674 23.96 58.2074 23.9067 58.0741 23.84C57.8607 23.7067 57.6407 23.52 57.4141 23.28C57.2007 23.0267 57.0274 22.68 56.8941 22.24C56.7607 21.8 56.6941 21.22 56.6941 20.5C56.6941 20.1667 56.6407 19.88 56.5341 19.64C56.4274 19.4 56.2807 19.2067 56.0941 19.06C55.9074 18.9 55.6874 18.7867 55.4341 18.72C55.1807 18.64 54.9007 18.6 54.5941 18.6H50.3541L50.6341 18.2V22.98C50.6341 23.2733 50.5541 23.52 50.3941 23.72C50.2341 23.9067 50.0141 24 49.7341 24ZM50.3741 16.86H55.1541C55.4607 16.8467 55.7541 16.7267 56.0341 16.5C56.3274 16.26 56.5607 15.94 56.7341 15.54C56.9207 15.14 57.0141 14.6867 57.0141 14.18C57.0141 13.54 56.8207 13.0067 56.4341 12.58C56.0607 12.14 55.6141 11.92 55.0941 11.92H50.4141L50.6341 11.4V17.28L50.3741 16.86ZM66.7297 24.2C65.623 24.2 64.663 23.9733 63.8497 23.52C63.0364 23.0533 62.403 22.42 61.9497 21.62C61.5097 20.8067 61.2897 19.88 61.2897 18.84C61.2897 17.6667 61.523 16.6667 61.9897 15.84C62.4697 15 63.0897 14.36 63.8497 13.92C64.6097 13.4667 65.4164 13.24 66.2697 13.24C66.923 13.24 67.543 13.3733 68.1297 13.64C68.7164 13.8933 69.2364 14.2533 69.6897 14.72C70.1564 15.1733 70.523 15.7133 70.7897 16.34C71.0564 16.9533 71.1964 17.6267 71.2097 18.36C71.1964 18.6267 71.0897 18.8467 70.8897 19.02C70.6897 19.1933 70.4564 19.28 70.1897 19.28H62.4097L61.9297 17.58H69.4497L69.0697 17.94V17.44C69.043 16.9733 68.8897 16.5667 68.6097 16.22C68.3297 15.86 67.983 15.5867 67.5697 15.4C67.1564 15.2 66.723 15.1 66.2697 15.1C65.8697 15.1 65.483 15.1667 65.1097 15.3C64.7497 15.42 64.423 15.62 64.1297 15.9C63.8497 16.18 63.623 16.5533 63.4497 17.02C63.2897 17.4733 63.2097 18.04 63.2097 18.72C63.2097 19.4533 63.363 20.0933 63.6697 20.64C63.9764 21.1867 64.3897 21.6133 64.9097 21.92C65.4297 22.2133 66.003 22.36 66.6297 22.36C67.123 22.36 67.5297 22.3133 67.8497 22.22C68.1697 22.1133 68.4364 21.9867 68.6497 21.84C68.863 21.6933 69.0497 21.5533 69.2097 21.42C69.4097 21.3 69.6097 21.24 69.8097 21.24C70.0497 21.24 70.2497 21.3267 70.4097 21.5C70.5697 21.66 70.6497 21.8533 70.6497 22.08C70.6497 22.3733 70.503 22.64 70.2097 22.88C69.8497 23.2267 69.3497 23.5333 68.7097 23.8C68.083 24.0667 67.423 24.2 66.7297 24.2ZM75.6303 22.98C75.6303 23.2733 75.5303 23.52 75.3303 23.72C75.1436 23.9067 74.9103 24 74.6303 24C74.3503 24 74.1103 23.9067 73.9103 23.72C73.7236 23.52 73.6303 23.2733 73.6303 22.98V10.22C73.6303 9.92667 73.7303 9.68667 73.9303 9.5C74.1303 9.3 74.3703 9.2 74.6503 9.2C74.9436 9.2 75.177 9.3 75.3503 9.5C75.537 9.68667 75.6303 9.92667 75.6303 10.22V22.98ZM87.227 13.32C87.5204 13.32 87.7604 13.42 87.947 13.62C88.1337 13.8067 88.227 14.0467 88.227 14.34V22.98C88.227 23.2733 88.1337 23.52 87.947 23.72C87.7604 23.9067 87.5204 24 87.227 24C86.947 24 86.707 23.9067 86.507 23.72C86.3204 23.52 86.227 23.2733 86.227 22.98V21.54L86.647 21.6C86.647 21.84 86.547 22.1067 86.347 22.4C86.1604 22.6933 85.9004 22.98 85.567 23.26C85.2337 23.5267 84.8404 23.7533 84.387 23.94C83.9337 24.1133 83.447 24.2 82.927 24.2C82.007 24.2 81.1804 23.9667 80.447 23.5C79.7137 23.02 79.1337 22.3667 78.707 21.54C78.2804 20.7133 78.067 19.7733 78.067 18.72C78.067 17.64 78.2804 16.6933 78.707 15.88C79.1337 15.0533 79.707 14.4067 80.427 13.94C81.1604 13.4733 81.9737 13.24 82.867 13.24C83.4404 13.24 83.967 13.3333 84.447 13.52C84.9404 13.7067 85.367 13.9467 85.727 14.24C86.087 14.5333 86.3604 14.8467 86.547 15.18C86.747 15.5 86.847 15.8067 86.847 16.1L86.227 16.16V14.34C86.227 14.06 86.3204 13.82 86.507 13.62C86.707 13.42 86.947 13.32 87.227 13.32ZM83.147 22.36C83.7737 22.36 84.327 22.2 84.807 21.88C85.287 21.56 85.6604 21.1267 85.927 20.58C86.1937 20.02 86.327 19.4 86.327 18.72C86.327 18.0267 86.1937 17.4067 85.927 16.86C85.6604 16.3133 85.287 15.88 84.807 15.56C84.327 15.24 83.7737 15.08 83.147 15.08C82.5337 15.08 81.987 15.24 81.507 15.56C81.0404 15.88 80.667 16.3133 80.387 16.86C80.1204 17.4067 79.987 18.0267 79.987 18.72C79.987 19.4 80.1204 20.02 80.387 20.58C80.667 21.1267 81.0404 21.56 81.507 21.88C81.987 22.2 82.5337 22.36 83.147 22.36ZM91.0689 13.42C91.4022 13.42 91.6756 13.56 91.8889 13.84L98.7089 22.44C98.8556 22.6133 98.9289 22.8133 98.9289 23.04C98.9289 23.3067 98.8222 23.54 98.6089 23.74C98.3956 23.94 98.1622 24.04 97.9089 24.04C97.5889 24.04 97.3156 23.9 97.0889 23.62L90.2689 15.02C90.1222 14.8467 90.0489 14.6467 90.0489 14.42C90.0489 14.14 90.1489 13.9067 90.3489 13.72C90.5622 13.52 90.8022 13.42 91.0689 13.42ZM91.0889 24.04C90.8622 24.04 90.6422 23.9533 90.4289 23.78C90.2156 23.6067 90.1089 23.3933 90.1089 23.14C90.1089 22.9133 90.1889 22.7067 90.3489 22.52L93.5289 18.58L94.5489 20.22L91.8889 23.62C91.6756 23.9 91.4089 24.04 91.0889 24.04ZM97.8889 13.42C98.1689 13.42 98.3956 13.5133 98.5689 13.7C98.7556 13.8733 98.8489 14.08 98.8489 14.32C98.8489 14.4267 98.8289 14.54 98.7889 14.66C98.7622 14.7667 98.7022 14.8667 98.6089 14.96L95.4689 18.9L94.4289 17.42L97.0889 13.88C97.3156 13.5733 97.5822 13.42 97.8889 13.42ZM103.315 23.94C103.315 24.3533 103.195 24.7667 102.955 25.18C102.715 25.5933 102.415 25.9333 102.055 26.2C101.695 26.48 101.315 26.62 100.915 26.62C100.782 26.62 100.642 26.5667 100.495 26.46C100.362 26.3667 100.295 26.1867 100.295 25.92C100.295 25.6533 100.375 25.4933 100.535 25.44C100.709 25.4 100.875 25.34 101.035 25.26C101.222 25.1667 101.369 25.0467 101.475 24.9C101.582 24.7667 101.635 24.6067 101.635 24.42C101.635 24.26 101.569 24.1267 101.435 24.02C101.315 23.9133 101.155 23.86 100.955 23.86C100.875 23.86 100.782 23.8733 100.675 23.9C100.582 23.9133 100.495 23.9467 100.415 24C100.295 23.9333 100.195 23.8533 100.115 23.76C100.035 23.6667 99.9955 23.5267 99.9955 23.34C100.009 22.9933 100.175 22.6933 100.495 22.44C100.829 22.1733 101.209 22.04 101.635 22.04C102.142 22.04 102.549 22.22 102.855 22.58C103.162 22.94 103.315 23.3933 103.315 23.94ZM123.543 13.38C123.796 13.38 124.016 13.48 124.203 13.68C124.403 13.8667 124.503 14.1133 124.503 14.42C124.503 14.4867 124.496 14.5533 124.483 14.62C124.469 14.6867 124.449 14.7467 124.423 14.8L121.363 23.36C121.283 23.5867 121.143 23.76 120.943 23.88C120.743 23.9867 120.536 24.0267 120.323 24C119.936 23.9733 119.649 23.76 119.463 23.36L117.203 17.36L117.663 17.4L115.583 23.36C115.396 23.76 115.109 23.9733 114.723 24C114.523 24.0267 114.316 23.9867 114.103 23.88C113.903 23.76 113.763 23.5867 113.683 23.36L110.603 14.8C110.549 14.68 110.523 14.5533 110.523 14.42C110.523 14.14 110.609 13.9 110.783 13.7C110.969 13.4867 111.216 13.38 111.523 13.38C111.736 13.38 111.923 13.4333 112.083 13.54C112.256 13.6467 112.376 13.8067 112.443 14.02L115.003 21.24L114.543 21.2L116.623 15.74C116.796 15.3267 117.103 15.12 117.543 15.12C117.783 15.12 117.969 15.1733 118.103 15.28C118.236 15.3867 118.343 15.54 118.423 15.74L120.543 21.22L120.003 21.28L122.583 14.02C122.716 13.5933 123.036 13.38 123.543 13.38ZM131.837 13.3C132.757 13.3 133.47 13.5 133.977 13.9C134.483 14.2867 134.837 14.8133 135.037 15.48C135.25 16.1467 135.357 16.88 135.357 17.68V22.98C135.357 23.2733 135.257 23.52 135.057 23.72C134.87 23.9067 134.637 24 134.357 24C134.063 24 133.823 23.9067 133.637 23.72C133.45 23.52 133.357 23.2733 133.357 22.98V17.68C133.357 17.2133 133.29 16.7867 133.157 16.4C133.037 16.0133 132.817 15.7067 132.497 15.48C132.19 15.2533 131.757 15.14 131.197 15.14C130.677 15.14 130.21 15.2533 129.797 15.48C129.397 15.7067 129.083 16.0133 128.857 16.4C128.643 16.7867 128.537 17.2133 128.537 17.68V22.98C128.537 23.2733 128.437 23.52 128.237 23.72C128.05 23.9067 127.817 24 127.537 24C127.243 24 127.003 23.9067 126.817 23.72C126.63 23.52 126.537 23.2733 126.537 22.98V10.22C126.537 9.92667 126.63 9.68667 126.817 9.5C127.003 9.3 127.243 9.2 127.537 9.2C127.817 9.2 128.05 9.3 128.237 9.5C128.437 9.68667 128.537 9.92667 128.537 10.22V15.68L128.177 15.88C128.27 15.5867 128.423 15.2867 128.637 14.98C128.863 14.6733 129.137 14.3933 129.457 14.14C129.79 13.8867 130.157 13.6867 130.557 13.54C130.957 13.38 131.383 13.3 131.837 13.3ZM140.018 22.98C140.018 23.2733 139.925 23.52 139.738 23.72C139.552 23.9067 139.312 24 139.018 24C138.738 24 138.498 23.9067 138.298 23.72C138.112 23.52 138.018 23.2733 138.018 22.98V14.42C138.018 14.1267 138.112 13.8867 138.298 13.7C138.498 13.5 138.738 13.4 139.018 13.4C139.312 13.4 139.552 13.5 139.738 13.7C139.925 13.8867 140.018 14.1267 140.018 14.42V22.98ZM138.998 12.08C138.612 12.08 138.332 12.0133 138.158 11.88C137.985 11.7333 137.898 11.4933 137.898 11.16V10.84C137.898 10.5067 137.992 10.2733 138.178 10.14C138.365 10.0067 138.645 9.94 139.018 9.94C139.418 9.94 139.705 10.0133 139.878 10.16C140.052 10.2933 140.138 10.52 140.138 10.84V11.16C140.138 11.5067 140.045 11.7467 139.858 11.88C139.685 12.0133 139.398 12.08 138.998 12.08ZM144.869 22.98C144.869 23.2733 144.769 23.52 144.569 23.72C144.382 23.9067 144.149 24 143.869 24C143.589 24 143.349 23.9067 143.149 23.72C142.962 23.52 142.869 23.2733 142.869 22.98V10.22C142.869 9.92667 142.969 9.68667 143.169 9.5C143.369 9.3 143.609 9.2 143.889 9.2C144.182 9.2 144.415 9.3 144.589 9.5C144.775 9.68667 144.869 9.92667 144.869 10.22V22.98ZM152.55 24.2C151.443 24.2 150.483 23.9733 149.67 23.52C148.857 23.0533 148.223 22.42 147.77 21.62C147.33 20.8067 147.11 19.88 147.11 18.84C147.11 17.6667 147.343 16.6667 147.81 15.84C148.29 15 148.91 14.36 149.67 13.92C150.43 13.4667 151.237 13.24 152.09 13.24C152.743 13.24 153.363 13.3733 153.95 13.64C154.537 13.8933 155.057 14.2533 155.51 14.72C155.977 15.1733 156.343 15.7133 156.61 16.34C156.877 16.9533 157.017 17.6267 157.03 18.36C157.017 18.6267 156.91 18.8467 156.71 19.02C156.51 19.1933 156.277 19.28 156.01 19.28H148.23L147.75 17.58H155.27L154.89 17.94V17.44C154.863 16.9733 154.71 16.5667 154.43 16.22C154.15 15.86 153.803 15.5867 153.39 15.4C152.977 15.2 152.543 15.1 152.09 15.1C151.69 15.1 151.303 15.1667 150.93 15.3C150.57 15.42 150.243 15.62 149.95 15.9C149.67 16.18 149.443 16.5533 149.27 17.02C149.11 17.4733 149.03 18.04 149.03 18.72C149.03 19.4533 149.183 20.0933 149.49 20.64C149.797 21.1867 150.21 21.6133 150.73 21.92C151.25 22.2133 151.823 22.36 152.45 22.36C152.943 22.36 153.35 22.3133 153.67 22.22C153.99 22.1133 154.257 21.9867 154.47 21.84C154.683 21.6933 154.87 21.5533 155.03 21.42C155.23 21.3 155.43 21.24 155.63 21.24C155.87 21.24 156.07 21.3267 156.23 21.5C156.39 21.66 156.47 21.8533 156.47 22.08C156.47 22.3733 156.323 22.64 156.03 22.88C155.67 23.2267 155.17 23.5333 154.53 23.8C153.903 24.0667 153.243 24.2 152.55 24.2ZM177.117 13.38C177.37 13.38 177.59 13.48 177.777 13.68C177.977 13.8667 178.077 14.1133 178.077 14.42C178.077 14.4867 178.07 14.5533 178.057 14.62C178.044 14.6867 178.024 14.7467 177.997 14.8L174.937 23.36C174.857 23.5867 174.717 23.76 174.517 23.88C174.317 23.9867 174.11 24.0267 173.897 24C173.51 23.9733 173.224 23.76 173.037 23.36L170.777 17.36L171.237 17.4L169.157 23.36C168.97 23.76 168.684 23.9733 168.297 24C168.097 24.0267 167.89 23.9867 167.677 23.88C167.477 23.76 167.337 23.5867 167.257 23.36L164.177 14.8C164.124 14.68 164.097 14.5533 164.097 14.42C164.097 14.14 164.184 13.9 164.357 13.7C164.544 13.4867 164.79 13.38 165.097 13.38C165.31 13.38 165.497 13.4333 165.657 13.54C165.83 13.6467 165.95 13.8067 166.017 14.02L168.577 21.24L168.117 21.2L170.197 15.74C170.37 15.3267 170.677 15.12 171.117 15.12C171.357 15.12 171.544 15.1733 171.677 15.28C171.81 15.3867 171.917 15.54 171.997 15.74L174.117 21.22L173.577 21.28L176.157 14.02C176.29 13.5933 176.61 13.38 177.117 13.38ZM185.011 24.2C183.904 24.2 182.944 23.9733 182.131 23.52C181.318 23.0533 180.684 22.42 180.231 21.62C179.791 20.8067 179.571 19.88 179.571 18.84C179.571 17.6667 179.804 16.6667 180.271 15.84C180.751 15 181.371 14.36 182.131 13.92C182.891 13.4667 183.698 13.24 184.551 13.24C185.204 13.24 185.824 13.3733 186.411 13.64C186.998 13.8933 187.518 14.2533 187.971 14.72C188.438 15.1733 188.804 15.7133 189.071 16.34C189.338 16.9533 189.478 17.6267 189.491 18.36C189.478 18.6267 189.371 18.8467 189.171 19.02C188.971 19.1933 188.738 19.28 188.471 19.28H180.691L180.211 17.58H187.731L187.351 17.94V17.44C187.324 16.9733 187.171 16.5667 186.891 16.22C186.611 15.86 186.264 15.5867 185.851 15.4C185.438 15.2 185.004 15.1 184.551 15.1C184.151 15.1 183.764 15.1667 183.391 15.3C183.031 15.42 182.704 15.62 182.411 15.9C182.131 16.18 181.904 16.5533 181.731 17.02C181.571 17.4733 181.491 18.04 181.491 18.72C181.491 19.4533 181.644 20.0933 181.951 20.64C182.258 21.1867 182.671 21.6133 183.191 21.92C183.711 22.2133 184.284 22.36 184.911 22.36C185.404 22.36 185.811 22.3133 186.131 22.22C186.451 22.1133 186.718 21.9867 186.931 21.84C187.144 21.6933 187.331 21.5533 187.491 21.42C187.691 21.3 187.891 21.24 188.091 21.24C188.331 21.24 188.531 21.3267 188.691 21.5C188.851 21.66 188.931 21.8533 188.931 22.08C188.931 22.3733 188.784 22.64 188.491 22.88C188.131 23.2267 187.631 23.5333 186.991 23.8C186.364 24.0667 185.704 24.2 185.011 24.2ZM205.938 13.32C206.231 13.32 206.471 13.42 206.658 13.62C206.845 13.8067 206.938 14.0467 206.938 14.34V22.98C206.938 23.2733 206.845 23.52 206.658 23.72C206.471 23.9067 206.231 24 205.938 24C205.658 24 205.418 23.9067 205.218 23.72C205.031 23.52 204.938 23.2733 204.938 22.98V21.54L205.358 21.6C205.358 21.84 205.258 22.1067 205.058 22.4C204.871 22.6933 204.611 22.98 204.278 23.26C203.945 23.5267 203.551 23.7533 203.098 23.94C202.645 24.1133 202.158 24.2 201.638 24.2C200.718 24.2 199.891 23.9667 199.158 23.5C198.425 23.02 197.845 22.3667 197.418 21.54C196.991 20.7133 196.778 19.7733 196.778 18.72C196.778 17.64 196.991 16.6933 197.418 15.88C197.845 15.0533 198.418 14.4067 199.138 13.94C199.871 13.4733 200.685 13.24 201.578 13.24C202.151 13.24 202.678 13.3333 203.158 13.52C203.651 13.7067 204.078 13.9467 204.438 14.24C204.798 14.5333 205.071 14.8467 205.258 15.18C205.458 15.5 205.558 15.8067 205.558 16.1L204.938 16.16V14.34C204.938 14.06 205.031 13.82 205.218 13.62C205.418 13.42 205.658 13.32 205.938 13.32ZM201.858 22.36C202.485 22.36 203.038 22.2 203.518 21.88C203.998 21.56 204.371 21.1267 204.638 20.58C204.905 20.02 205.038 19.4 205.038 18.72C205.038 18.0267 204.905 17.4067 204.638 16.86C204.371 16.3133 203.998 15.88 203.518 15.56C203.038 15.24 202.485 15.08 201.858 15.08C201.245 15.08 200.698 15.24 200.218 15.56C199.751 15.88 199.378 16.3133 199.098 16.86C198.831 17.4067 198.698 18.0267 198.698 18.72C198.698 19.4 198.831 20.02 199.098 20.58C199.378 21.1267 199.751 21.56 200.218 21.88C200.698 22.2 201.245 22.36 201.858 22.36ZM210.74 24C210.447 24 210.207 23.9067 210.02 23.72C209.833 23.52 209.74 23.2733 209.74 22.98V14.5C209.74 14.2067 209.833 13.9667 210.02 13.78C210.207 13.58 210.447 13.48 210.74 13.48C211.02 13.48 211.253 13.58 211.44 13.78C211.64 13.9667 211.74 14.2067 211.74 14.5V16.74L211.54 15.88C211.647 15.5067 211.807 15.16 212.02 14.84C212.247 14.52 212.513 14.24 212.82 14C213.127 13.76 213.467 13.5733 213.84 13.44C214.227 13.3067 214.627 13.24 215.04 13.24C215.387 13.24 215.687 13.3333 215.94 13.52C216.193 13.7067 216.32 13.94 216.32 14.22C216.32 14.58 216.227 14.8467 216.04 15.02C215.853 15.18 215.647 15.26 215.42 15.26C215.22 15.26 215.027 15.22 214.84 15.14C214.653 15.0467 214.433 15 214.18 15C213.9 15 213.613 15.0733 213.32 15.22C213.027 15.3667 212.76 15.5867 212.52 15.88C212.28 16.16 212.087 16.4933 211.94 16.88C211.807 17.2667 211.74 17.7 211.74 18.18V22.98C211.74 23.2733 211.64 23.52 211.44 23.72C211.253 23.9067 211.02 24 210.74 24ZM222.55 24.2C221.443 24.2 220.483 23.9733 219.67 23.52C218.857 23.0533 218.223 22.42 217.77 21.62C217.33 20.8067 217.11 19.88 217.11 18.84C217.11 17.6667 217.343 16.6667 217.81 15.84C218.29 15 218.91 14.36 219.67 13.92C220.43 13.4667 221.237 13.24 222.09 13.24C222.743 13.24 223.363 13.3733 223.95 13.64C224.537 13.8933 225.057 14.2533 225.51 14.72C225.977 15.1733 226.343 15.7133 226.61 16.34C226.877 16.9533 227.017 17.6267 227.03 18.36C227.017 18.6267 226.91 18.8467 226.71 19.02C226.51 19.1933 226.277 19.28 226.01 19.28H218.23L217.75 17.58H225.27L224.89 17.94V17.44C224.863 16.9733 224.71 16.5667 224.43 16.22C224.15 15.86 223.803 15.5867 223.39 15.4C222.977 15.2 222.543 15.1 222.09 15.1C221.69 15.1 221.303 15.1667 220.93 15.3C220.57 15.42 220.243 15.62 219.95 15.9C219.67 16.18 219.443 16.5533 219.27 17.02C219.11 17.4733 219.03 18.04 219.03 18.72C219.03 19.4533 219.183 20.0933 219.49 20.64C219.797 21.1867 220.21 21.6133 220.73 21.92C221.25 22.2133 221.823 22.36 222.45 22.36C222.943 22.36 223.35 22.3133 223.67 22.22C223.99 22.1133 224.257 21.9867 224.47 21.84C224.683 21.6933 224.87 21.5533 225.03 21.42C225.23 21.3 225.43 21.24 225.63 21.24C225.87 21.24 226.07 21.3267 226.23 21.5C226.39 21.66 226.47 21.8533 226.47 22.08C226.47 22.3733 226.323 22.64 226.03 22.88C225.67 23.2267 225.17 23.5333 224.53 23.8C223.903 24.0667 223.243 24.2 222.55 24.2ZM0.78 47.36C0.66 47.1733 0.606667 46.96 0.62 46.72C0.633333 46.4667 0.773333 46.2533 1.04 46.08C1.22667 45.96 1.42 45.9133 1.62 45.94C1.83333 45.9533 2.03333 46.0533 2.22 46.24C2.59333 46.6533 3.00667 46.98 3.46 47.22C3.92667 47.46 4.48667 47.58 5.14 47.58C5.40667 47.5667 5.68 47.5267 5.96 47.46C6.24 47.38 6.48 47.2467 6.68 47.06C6.88 46.86 6.98 46.5733 6.98 46.2C6.98 45.8667 6.87333 45.6 6.66 45.4C6.44667 45.2 6.16667 45.04 5.82 44.92C5.47333 44.7867 5.1 44.6667 4.7 44.56C4.27333 44.44 3.84 44.3067 3.4 44.16C2.97333 44.0133 2.58667 43.8267 2.24 43.6C1.89333 43.36 1.60667 43.0533 1.38 42.68C1.16667 42.3067 1.06 41.8467 1.06 41.3C1.06 40.6733 1.23333 40.1333 1.58 39.68C1.94 39.2267 2.4 38.8733 2.96 38.62C3.53333 38.3667 4.15333 38.24 4.82 38.24C5.20667 38.24 5.61333 38.2933 6.04 38.4C6.46667 38.4933 6.88 38.6467 7.28 38.86C7.68 39.0733 8.02667 39.3533 8.32 39.7C8.45333 39.8733 8.52667 40.08 8.54 40.32C8.56667 40.56 8.46 40.7733 8.22 40.96C8.06 41.0933 7.86667 41.1533 7.64 41.14C7.41333 41.1267 7.22667 41.0533 7.08 40.92C6.82667 40.6 6.5 40.3533 6.1 40.18C5.7 39.9933 5.24667 39.9 4.74 39.9C4.48667 39.9 4.22 39.94 3.94 40.02C3.67333 40.0867 3.44667 40.2133 3.26 40.4C3.07333 40.5867 2.98 40.86 2.98 41.22C2.98 41.5533 3.08667 41.82 3.3 42.02C3.52667 42.22 3.82 42.3867 4.18 42.52C4.54 42.6533 4.93333 42.7733 5.36 42.88C5.77333 42.9867 6.18 43.1133 6.58 43.26C6.99333 43.4067 7.36 43.6 7.68 43.84C8.01333 44.0667 8.28 44.3667 8.48 44.74C8.69333 45.1 8.8 45.56 8.8 46.12C8.8 46.7733 8.60667 47.3333 8.22 47.8C7.84667 48.2533 7.36667 48.6 6.78 48.84C6.20667 49.08 5.6 49.2 4.96 49.2C4.2 49.2 3.44 49.0667 2.68 48.8C1.93333 48.52 1.3 48.04 0.78 47.36ZM15.6108 38.24C16.3308 38.24 16.9708 38.32 17.5308 38.48C18.0908 38.6267 18.5241 38.84 18.8308 39.12C19.1508 39.3867 19.3108 39.7 19.3108 40.06C19.3108 40.2867 19.2441 40.5 19.1108 40.7C18.9774 40.8867 18.7774 40.98 18.5108 40.98C18.3241 40.98 18.1641 40.9467 18.0308 40.88C17.9108 40.8133 17.7974 40.7333 17.6908 40.64C17.5841 40.5467 17.4508 40.4533 17.2908 40.36C17.1441 40.28 16.9241 40.2133 16.6308 40.16C16.3508 40.1067 16.0974 40.08 15.8708 40.08C15.1641 40.08 14.5508 40.24 14.0308 40.56C13.5241 40.88 13.1241 41.3133 12.8308 41.86C12.5508 42.4067 12.4108 43.0267 12.4108 43.72C12.4108 44.4133 12.5508 45.0333 12.8308 45.58C13.1241 46.1267 13.5174 46.56 14.0108 46.88C14.5174 47.2 15.1041 47.36 15.7708 47.36C16.1708 47.36 16.4974 47.3333 16.7508 47.28C17.0041 47.2133 17.2241 47.1333 17.4108 47.04C17.6108 46.92 17.7774 46.8 17.9108 46.68C18.0574 46.5467 18.2574 46.48 18.5108 46.48C18.8041 46.48 19.0241 46.5733 19.1708 46.76C19.3308 46.9333 19.4108 47.1533 19.4108 47.42C19.4108 47.7133 19.2308 48 18.8708 48.28C18.5241 48.5467 18.0574 48.7667 17.4708 48.94C16.8841 49.1133 16.2374 49.2 15.5308 49.2C14.4908 49.2 13.5841 48.96 12.8108 48.48C12.0508 48 11.4574 47.3467 11.0308 46.52C10.6174 45.6933 10.4108 44.76 10.4108 43.72C10.4108 42.6667 10.6308 41.7333 11.0708 40.92C11.5108 40.0933 12.1241 39.44 12.9108 38.96C13.6974 38.48 14.5974 38.24 15.6108 38.24ZM29.9419 38.32C30.2352 38.32 30.4752 38.42 30.6619 38.62C30.8485 38.8067 30.9419 39.0467 30.9419 39.34V47.98C30.9419 48.2733 30.8485 48.52 30.6619 48.72C30.4752 48.9067 30.2352 49 29.9419 49C29.6619 49 29.4219 48.9067 29.2219 48.72C29.0352 48.52 28.9419 48.2733 28.9419 47.98V46.54L29.3619 46.6C29.3619 46.84 29.2619 47.1067 29.0619 47.4C28.8752 47.6933 28.6152 47.98 28.2819 48.26C27.9485 48.5267 27.5552 48.7533 27.1019 48.94C26.6485 49.1133 26.1619 49.2 25.6419 49.2C24.7219 49.2 23.8952 48.9667 23.1619 48.5C22.4285 48.02 21.8485 47.3667 21.4219 46.54C20.9952 45.7133 20.7819 44.7733 20.7819 43.72C20.7819 42.64 20.9952 41.6933 21.4219 40.88C21.8485 40.0533 22.4219 39.4067 23.1419 38.94C23.8752 38.4733 24.6885 38.24 25.5819 38.24C26.1552 38.24 26.6819 38.3333 27.1619 38.52C27.6552 38.7067 28.0819 38.9467 28.4419 39.24C28.8019 39.5333 29.0752 39.8467 29.2619 40.18C29.4619 40.5 29.5619 40.8067 29.5619 41.1L28.9419 41.16V39.34C28.9419 39.06 29.0352 38.82 29.2219 38.62C29.4219 38.42 29.6619 38.32 29.9419 38.32ZM25.8619 47.36C26.4885 47.36 27.0419 47.2 27.5219 46.88C28.0019 46.56 28.3752 46.1267 28.6419 45.58C28.9085 45.02 29.0419 44.4 29.0419 43.72C29.0419 43.0267 28.9085 42.4067 28.6419 41.86C28.3752 41.3133 28.0019 40.88 27.5219 40.56C27.0419 40.24 26.4885 40.08 25.8619 40.08C25.2485 40.08 24.7019 40.24 24.2219 40.56C23.7552 40.88 23.3819 41.3133 23.1019 41.86C22.8352 42.4067 22.7019 43.0267 22.7019 43.72C22.7019 44.4 22.8352 45.02 23.1019 45.58C23.3819 46.1267 23.7552 46.56 24.2219 46.88C24.7019 47.2 25.2485 47.36 25.8619 47.36ZM39.1638 38.24C40.1104 38.24 40.8438 38.44 41.3638 38.84C41.8838 39.2267 42.2438 39.7533 42.4437 40.42C42.6571 41.0733 42.7638 41.8067 42.7638 42.62V47.98C42.7638 48.2733 42.6638 48.52 42.4638 48.72C42.2771 48.9067 42.0438 49 41.7638 49C41.4704 49 41.2304 48.9067 41.0438 48.72C40.8571 48.52 40.7638 48.2733 40.7638 47.98V42.64C40.7638 42.16 40.6971 41.7333 40.5638 41.36C40.4304 40.9733 40.1971 40.6667 39.8638 40.44C39.5438 40.2 39.0904 40.08 38.5038 40.08C37.9571 40.08 37.4771 40.2 37.0638 40.44C36.6504 40.6667 36.3238 40.9733 36.0838 41.36C35.8571 41.7333 35.7438 42.16 35.7438 42.64V47.98C35.7438 48.2733 35.6438 48.52 35.4438 48.72C35.2571 48.9067 35.0238 49 34.7438 49C34.4504 49 34.2104 48.9067 34.0238 48.72C33.8371 48.52 33.7438 48.2733 33.7438 47.98V39.5C33.7438 39.2067 33.8371 38.9667 34.0238 38.78C34.2104 38.58 34.4504 38.48 34.7438 38.48C35.0238 38.48 35.2571 38.58 35.4438 38.78C35.6438 38.9667 35.7438 39.2067 35.7438 39.5V40.62L35.3838 40.82C35.4771 40.5267 35.6371 40.2333 35.8638 39.94C36.1038 39.6333 36.3904 39.3533 36.7238 39.1C37.0571 38.8333 37.4304 38.6267 37.8438 38.48C38.2571 38.32 38.6971 38.24 39.1638 38.24ZM50.9606 38.24C51.9073 38.24 52.6406 38.44 53.1606 38.84C53.6806 39.2267 54.0406 39.7533 54.2406 40.42C54.454 41.0733 54.5606 41.8067 54.5606 42.62V47.98C54.5606 48.2733 54.4606 48.52 54.2606 48.72C54.074 48.9067 53.8406 49 53.5606 49C53.2673 49 53.0273 48.9067 52.8406 48.72C52.654 48.52 52.5606 48.2733 52.5606 47.98V42.64C52.5606 42.16 52.494 41.7333 52.3606 41.36C52.2273 40.9733 51.994 40.6667 51.6606 40.44C51.3406 40.2 50.8873 40.08 50.3006 40.08C49.754 40.08 49.274 40.2 48.8606 40.44C48.4473 40.6667 48.1206 40.9733 47.8806 41.36C47.654 41.7333 47.5406 42.16 47.5406 42.64V47.98C47.5406 48.2733 47.4406 48.52 47.2406 48.72C47.054 48.9067 46.8206 49 46.5406 49C46.2473 49 46.0073 48.9067 45.8206 48.72C45.634 48.52 45.5406 48.2733 45.5406 47.98V39.5C45.5406 39.2067 45.634 38.9667 45.8206 38.78C46.0073 38.58 46.2473 38.48 46.5406 38.48C46.8206 38.48 47.054 38.58 47.2406 38.78C47.4406 38.9667 47.5406 39.2067 47.5406 39.5V40.62L47.1806 40.82C47.274 40.5267 47.434 40.2333 47.6606 39.94C47.9006 39.6333 48.1873 39.3533 48.5206 39.1C48.854 38.8333 49.2273 38.6267 49.6406 38.48C50.054 38.32 50.494 38.24 50.9606 38.24ZM59.2175 47.98C59.2175 48.2733 59.1242 48.52 58.9375 48.72C58.7508 48.9067 58.5108 49 58.2175 49C57.9375 49 57.6975 48.9067 57.4975 48.72C57.3108 48.52 57.2175 48.2733 57.2175 47.98V39.42C57.2175 39.1267 57.3108 38.8867 57.4975 38.7C57.6975 38.5 57.9375 38.4 58.2175 38.4C58.5108 38.4 58.7508 38.5 58.9375 38.7C59.1242 38.8867 59.2175 39.1267 59.2175 39.42V47.98ZM58.1975 37.08C57.8108 37.08 57.5308 37.0133 57.3575 36.88C57.1842 36.7333 57.0975 36.4933 57.0975 36.16V35.84C57.0975 35.5067 57.1908 35.2733 57.3775 35.14C57.5642 35.0067 57.8442 34.94 58.2175 34.94C58.6175 34.94 58.9042 35.0133 59.0775 35.16C59.2508 35.2933 59.3375 35.52 59.3375 35.84V36.16C59.3375 36.5067 59.2442 36.7467 59.0575 36.88C58.8842 37.0133 58.5975 37.08 58.1975 37.08ZM67.3278 38.24C68.2745 38.24 69.0078 38.44 69.5278 38.84C70.0478 39.2267 70.4078 39.7533 70.6078 40.42C70.8211 41.0733 70.9278 41.8067 70.9278 42.62V47.98C70.9278 48.2733 70.8278 48.52 70.6278 48.72C70.4411 48.9067 70.2078 49 69.9278 49C69.6345 49 69.3945 48.9067 69.2078 48.72C69.0211 48.52 68.9278 48.2733 68.9278 47.98V42.64C68.9278 42.16 68.8611 41.7333 68.7278 41.36C68.5945 40.9733 68.3611 40.6667 68.0278 40.44C67.7078 40.2 67.2545 40.08 66.6678 40.08C66.1211 40.08 65.6411 40.2 65.2278 40.44C64.8145 40.6667 64.4878 40.9733 64.2478 41.36C64.0211 41.7333 63.9078 42.16 63.9078 42.64V47.98C63.9078 48.2733 63.8078 48.52 63.6078 48.72C63.4211 48.9067 63.1878 49 62.9078 49C62.6145 49 62.3745 48.9067 62.1878 48.72C62.0011 48.52 61.9078 48.2733 61.9078 47.98V39.5C61.9078 39.2067 62.0011 38.9667 62.1878 38.78C62.3745 38.58 62.6145 38.48 62.9078 38.48C63.1878 38.48 63.4211 38.58 63.6078 38.78C63.8078 38.9667 63.9078 39.2067 63.9078 39.5V40.62L63.5478 40.82C63.6411 40.5267 63.8011 40.2333 64.0278 39.94C64.2678 39.6333 64.5545 39.3533 64.8878 39.1C65.2211 38.8333 65.5945 38.6267 66.0078 38.48C66.4211 38.32 66.8611 38.24 67.3278 38.24ZM78.0847 38.24C78.658 38.24 79.1847 38.3333 79.6647 38.52C80.1447 38.7067 80.558 38.9467 80.9047 39.24C81.2647 39.52 81.5447 39.8133 81.7447 40.12C81.9447 40.4267 82.0447 40.6933 82.0447 40.92L81.5847 40.94V39.34C81.5847 39.06 81.678 38.82 81.8647 38.62C82.0514 38.42 82.2914 38.32 82.5847 38.32C82.878 38.32 83.118 38.42 83.3047 38.62C83.4914 38.8067 83.5847 39.0467 83.5847 39.34V48.16C83.5847 49.2933 83.3447 50.2133 82.8647 50.92C82.3847 51.64 81.7447 52.1667 80.9447 52.5C80.158 52.8333 79.2914 53 78.3447 53C78.0114 53 77.618 52.9533 77.1647 52.86C76.7114 52.78 76.2914 52.68 75.9047 52.56C75.5314 52.44 75.2714 52.32 75.1247 52.2C74.818 52.04 74.6114 51.8533 74.5047 51.64C74.4114 51.4267 74.4114 51.2133 74.5047 51C74.638 50.7067 74.818 50.5267 75.0447 50.46C75.2714 50.3933 75.5314 50.4133 75.8247 50.52C75.958 50.56 76.1647 50.6333 76.4447 50.74C76.7247 50.8467 77.038 50.94 77.3847 51.02C77.7314 51.1133 78.058 51.16 78.3647 51.16C79.4314 51.16 80.2314 50.9133 80.7647 50.42C81.3114 49.9267 81.5847 49.2533 81.5847 48.4V46.6L81.8047 46.74C81.7647 47.02 81.638 47.3067 81.4247 47.6C81.2247 47.88 80.958 48.14 80.6247 48.38C80.2914 48.62 79.9047 48.82 79.4647 48.98C79.038 49.1267 78.598 49.2 78.1447 49.2C77.198 49.2 76.3514 48.9667 75.6047 48.5C74.858 48.02 74.2647 47.3733 73.8247 46.56C73.3847 45.7333 73.1647 44.7867 73.1647 43.72C73.1647 42.6533 73.3847 41.7133 73.8247 40.9C74.2647 40.0733 74.8514 39.4267 75.5847 38.96C76.3314 38.48 77.1647 38.24 78.0847 38.24ZM78.3847 40.08C77.7314 40.08 77.158 40.24 76.6647 40.56C76.1714 40.88 75.7847 41.3133 75.5047 41.86C75.2247 42.4067 75.0847 43.0267 75.0847 43.72C75.0847 44.4133 75.2247 45.0333 75.5047 45.58C75.7847 46.1267 76.1714 46.56 76.6647 46.88C77.158 47.2 77.7314 47.36 78.3847 47.36C79.038 47.36 79.6114 47.2067 80.1047 46.9C80.598 46.58 80.9847 46.1467 81.2647 45.6C81.5447 45.04 81.6847 44.4133 81.6847 43.72C81.6847 43.0267 81.5447 42.4067 81.2647 41.86C80.9847 41.3 80.598 40.8667 80.1047 40.56C79.6114 40.24 79.038 40.08 78.3847 40.08ZM99.7473 38.4C100.041 38.4 100.281 38.5 100.467 38.7C100.654 38.8867 100.747 39.1267 100.747 39.42V48.02C100.747 49.1933 100.521 50.1467 100.067 50.88C99.6273 51.6133 99.0273 52.1467 98.2673 52.48C97.5207 52.8267 96.674 53 95.7273 53C95.2473 53 94.7673 52.9533 94.2873 52.86C93.8073 52.78 93.414 52.66 93.1073 52.5C92.7873 52.3533 92.5607 52.1733 92.4273 51.96C92.294 51.7467 92.274 51.5133 92.3673 51.26C92.4607 50.94 92.6207 50.72 92.8473 50.6C93.074 50.4933 93.3073 50.4867 93.5473 50.58C93.774 50.6733 94.074 50.7933 94.4473 50.94C94.8207 51.0867 95.2473 51.16 95.7273 51.16C96.3807 51.16 96.934 51.0533 97.3873 50.84C97.8407 50.6267 98.1807 50.2933 98.4073 49.84C98.6473 49.3867 98.7673 48.8 98.7673 48.08V46.7L99.0873 47.18C98.874 47.62 98.594 47.9867 98.2473 48.28C97.9007 48.5733 97.4873 48.8 97.0073 48.96C96.5407 49.12 96.0207 49.2 95.4473 49.2C94.714 49.2 94.0807 49.04 93.5473 48.72C93.0273 48.3867 92.6273 47.9333 92.3473 47.36C92.0673 46.7733 91.9273 46.1067 91.9273 45.36V39.42C91.9273 39.1267 92.0207 38.8867 92.2073 38.7C92.394 38.5 92.634 38.4 92.9273 38.4C93.2073 38.4 93.4407 38.5 93.6273 38.7C93.8273 38.8867 93.9273 39.1267 93.9273 39.42V44.82C93.9273 45.7 94.1207 46.3467 94.5073 46.76C94.894 47.16 95.4673 47.36 96.2273 47.36C96.734 47.36 97.174 47.2533 97.5473 47.04C97.9207 46.8267 98.214 46.5333 98.4273 46.16C98.6407 45.7733 98.7473 45.3267 98.7473 44.82V39.42C98.7473 39.1267 98.8407 38.8867 99.0273 38.7C99.2273 38.5 99.4673 38.4 99.7473 38.4ZM113.531 43.74C113.531 44.8067 113.297 45.7533 112.831 46.58C112.364 47.3933 111.731 48.0333 110.931 48.5C110.131 48.9667 109.231 49.2 108.231 49.2C107.231 49.2 106.331 48.9667 105.531 48.5C104.731 48.0333 104.091 47.3933 103.611 46.58C103.144 45.7533 102.911 44.8067 102.911 43.74C102.911 42.66 103.144 41.7133 103.611 40.9C104.091 40.0733 104.731 39.4267 105.531 38.96C106.331 38.48 107.231 38.24 108.231 38.24C109.231 38.24 110.131 38.48 110.931 38.96C111.731 39.4267 112.364 40.0733 112.831 40.9C113.297 41.7133 113.531 42.66 113.531 43.74ZM111.531 43.74C111.531 43.0067 111.384 42.3733 111.091 41.84C110.797 41.2933 110.397 40.8667 109.891 40.56C109.397 40.24 108.844 40.08 108.231 40.08C107.617 40.08 107.057 40.24 106.551 40.56C106.044 40.8667 105.644 41.2933 105.351 41.84C105.057 42.3733 104.911 43.0067 104.911 43.74C104.911 44.4467 105.057 45.0733 105.351 45.62C105.644 46.1667 106.044 46.5933 106.551 46.9C107.057 47.2067 107.617 47.36 108.231 47.36C108.844 47.36 109.397 47.2067 109.891 46.9C110.397 46.5933 110.797 46.1667 111.091 45.62C111.384 45.0733 111.531 44.4467 111.531 43.74ZM123.635 38.48C123.915 38.48 124.148 38.58 124.335 38.78C124.535 38.9667 124.635 39.2067 124.635 39.5V44.76C124.635 46.1467 124.248 47.2333 123.475 48.02C122.701 48.7933 121.608 49.18 120.195 49.18C118.795 49.18 117.708 48.7933 116.935 48.02C116.175 47.2333 115.795 46.1467 115.795 44.76V39.5C115.795 39.2067 115.888 38.9667 116.075 38.78C116.261 38.58 116.501 38.48 116.795 38.48C117.075 38.48 117.308 38.58 117.495 38.78C117.695 38.9667 117.795 39.2067 117.795 39.5V44.76C117.795 45.6267 117.995 46.2733 118.395 46.7C118.808 47.1267 119.408 47.34 120.195 47.34C120.995 47.34 121.601 47.1267 122.015 46.7C122.428 46.2733 122.635 45.6267 122.635 44.76V39.5C122.635 39.2067 122.728 38.9667 122.915 38.78C123.101 38.58 123.341 38.48 123.635 38.48ZM128.416 49C128.122 49 127.882 48.9067 127.696 48.72C127.509 48.52 127.416 48.2733 127.416 47.98V39.5C127.416 39.2067 127.509 38.9667 127.696 38.78C127.882 38.58 128.122 38.48 128.416 38.48C128.696 38.48 128.929 38.58 129.116 38.78C129.316 38.9667 129.416 39.2067 129.416 39.5V41.74L129.216 40.88C129.322 40.5067 129.482 40.16 129.696 39.84C129.922 39.52 130.189 39.24 130.496 39C130.802 38.76 131.142 38.5733 131.516 38.44C131.902 38.3067 132.302 38.24 132.716 38.24C133.062 38.24 133.362 38.3333 133.616 38.52C133.869 38.7067 133.996 38.94 133.996 39.22C133.996 39.58 133.902 39.8467 133.716 40.02C133.529 40.18 133.322 40.26 133.096 40.26C132.896 40.26 132.702 40.22 132.516 40.14C132.329 40.0467 132.109 40 131.856 40C131.576 40 131.289 40.0733 130.996 40.22C130.702 40.3667 130.436 40.5867 130.196 40.88C129.956 41.16 129.762 41.4933 129.616 41.88C129.482 42.2667 129.416 42.7 129.416 43.18V47.98C129.416 48.2733 129.316 48.52 129.116 48.72C128.929 48.9067 128.696 49 128.416 49ZM146.241 34.22C146.495 34.22 146.755 34.2533 147.021 34.32C147.288 34.3867 147.508 34.5 147.681 34.66C147.868 34.8067 147.961 35.0133 147.961 35.28C147.961 35.5467 147.881 35.7667 147.721 35.94C147.561 36.1 147.375 36.18 147.161 36.18C147.028 36.18 146.848 36.1533 146.621 36.1C146.395 36.0333 146.168 36 145.941 36C145.635 36 145.388 36.0733 145.201 36.22C145.015 36.3533 144.881 36.5267 144.801 36.74C144.721 36.94 144.681 37.14 144.681 37.34V47.98C144.681 48.2733 144.581 48.52 144.381 48.72C144.195 48.9067 143.961 49 143.681 49C143.388 49 143.148 48.9067 142.961 48.72C142.775 48.52 142.681 48.2733 142.681 47.98V37.36C142.681 36.44 142.981 35.6867 143.581 35.1C144.195 34.5133 145.081 34.22 146.241 34.22ZM146.641 38.66C146.908 38.66 147.128 38.7467 147.301 38.92C147.475 39.0933 147.561 39.3133 147.561 39.58C147.561 39.8467 147.475 40.0667 147.301 40.24C147.128 40.4133 146.908 40.5 146.641 40.5H141.461C141.208 40.5 140.988 40.4133 140.801 40.24C140.628 40.0667 140.541 39.8467 140.541 39.58C140.541 39.3133 140.628 39.0933 140.801 38.92C140.988 38.7467 141.208 38.66 141.461 38.66H146.641ZM151.441 47.98C151.441 48.2733 151.348 48.52 151.161 48.72C150.975 48.9067 150.735 49 150.441 49C150.161 49 149.921 48.9067 149.721 48.72C149.535 48.52 149.441 48.2733 149.441 47.98V39.42C149.441 39.1267 149.535 38.8867 149.721 38.7C149.921 38.5 150.161 38.4 150.441 38.4C150.735 38.4 150.975 38.5 151.161 38.7C151.348 38.8867 151.441 39.1267 151.441 39.42V47.98ZM150.441 37.08C150.055 37.08 149.775 37.0133 149.601 36.88C149.428 36.7333 149.341 36.4933 149.341 36.16V35.84C149.341 35.5067 149.435 35.2733 149.621 35.14C149.808 35.0067 150.088 34.94 150.461 34.94C150.861 34.94 151.148 35.0133 151.321 35.16C151.495 35.2933 151.581 35.52 151.581 35.84V36.16C151.581 36.5067 151.488 36.7467 151.301 36.88C151.128 37.0133 150.841 37.08 150.441 37.08ZM156.294 47.98C156.294 48.2733 156.194 48.52 155.994 48.72C155.808 48.9067 155.574 49 155.294 49C155.014 49 154.774 48.9067 154.574 48.72C154.388 48.52 154.294 48.2733 154.294 47.98V35.22C154.294 34.9267 154.394 34.6867 154.594 34.5C154.794 34.3 155.034 34.2 155.314 34.2C155.608 34.2 155.841 34.3 156.014 34.5C156.201 34.6867 156.294 34.9267 156.294 35.22V47.98ZM163.976 49.2C162.869 49.2 161.909 48.9733 161.096 48.52C160.282 48.0533 159.649 47.42 159.196 46.62C158.756 45.8067 158.536 44.88 158.536 43.84C158.536 42.6667 158.769 41.6667 159.236 40.84C159.716 40 160.336 39.36 161.096 38.92C161.856 38.4667 162.662 38.24 163.516 38.24C164.169 38.24 164.789 38.3733 165.376 38.64C165.962 38.8933 166.482 39.2533 166.936 39.72C167.402 40.1733 167.769 40.7133 168.036 41.34C168.302 41.9533 168.442 42.6267 168.456 43.36C168.442 43.6267 168.336 43.8467 168.136 44.02C167.936 44.1933 167.702 44.28 167.436 44.28H159.656L159.176 42.58H166.696L166.316 42.94V42.44C166.289 41.9733 166.136 41.5667 165.856 41.22C165.576 40.86 165.229 40.5867 164.816 40.4C164.402 40.2 163.969 40.1 163.516 40.1C163.116 40.1 162.729 40.1667 162.356 40.3C161.996 40.42 161.669 40.62 161.376 40.9C161.096 41.18 160.869 41.5533 160.696 42.02C160.536 42.4733 160.456 43.04 160.456 43.72C160.456 44.4533 160.609 45.0933 160.916 45.64C161.222 46.1867 161.636 46.6133 162.156 46.92C162.676 47.2133 163.249 47.36 163.876 47.36C164.369 47.36 164.776 47.3133 165.096 47.22C165.416 47.1133 165.682 46.9867 165.896 46.84C166.109 46.6933 166.296 46.5533 166.456 46.42C166.656 46.3 166.856 46.24 167.056 46.24C167.296 46.24 167.496 46.3267 167.656 46.5C167.816 46.66 167.896 46.8533 167.896 47.08C167.896 47.3733 167.749 47.64 167.456 47.88C167.096 48.2267 166.596 48.5333 165.956 48.8C165.329 49.0667 164.669 49.2 163.976 49.2ZM170.096 47.36C169.976 47.1733 169.923 46.96 169.936 46.72C169.95 46.4667 170.09 46.2533 170.356 46.08C170.543 45.96 170.736 45.9133 170.936 45.94C171.15 45.9533 171.35 46.0533 171.536 46.24C171.91 46.6533 172.323 46.98 172.776 47.22C173.243 47.46 173.803 47.58 174.456 47.58C174.723 47.5667 174.996 47.5267 175.276 47.46C175.556 47.38 175.796 47.2467 175.996 47.06C176.196 46.86 176.296 46.5733 176.296 46.2C176.296 45.8667 176.19 45.6 175.976 45.4C175.763 45.2 175.483 45.04 175.136 44.92C174.79 44.7867 174.416 44.6667 174.016 44.56C173.59 44.44 173.156 44.3067 172.716 44.16C172.29 44.0133 171.903 43.8267 171.556 43.6C171.21 43.36 170.923 43.0533 170.696 42.68C170.483 42.3067 170.376 41.8467 170.376 41.3C170.376 40.6733 170.55 40.1333 170.896 39.68C171.256 39.2267 171.716 38.8733 172.276 38.62C172.85 38.3667 173.47 38.24 174.136 38.24C174.523 38.24 174.93 38.2933 175.356 38.4C175.783 38.4933 176.196 38.6467 176.596 38.86C176.996 39.0733 177.343 39.3533 177.636 39.7C177.77 39.8733 177.843 40.08 177.856 40.32C177.883 40.56 177.776 40.7733 177.536 40.96C177.376 41.0933 177.183 41.1533 176.956 41.14C176.73 41.1267 176.543 41.0533 176.396 40.92C176.143 40.6 175.816 40.3533 175.416 40.18C175.016 39.9933 174.563 39.9 174.056 39.9C173.803 39.9 173.536 39.94 173.256 40.02C172.99 40.0867 172.763 40.2133 172.576 40.4C172.39 40.5867 172.296 40.86 172.296 41.22C172.296 41.5533 172.403 41.82 172.616 42.02C172.843 42.22 173.136 42.3867 173.496 42.52C173.856 42.6533 174.25 42.7733 174.676 42.88C175.09 42.9867 175.496 43.1133 175.896 43.26C176.31 43.4067 176.676 43.6 176.996 43.84C177.33 44.0667 177.596 44.3667 177.796 44.74C178.01 45.1 178.116 45.56 178.116 46.12C178.116 46.7733 177.923 47.3333 177.536 47.8C177.163 48.2533 176.683 48.6 176.096 48.84C175.523 49.08 174.916 49.2 174.276 49.2C173.516 49.2 172.756 49.0667 171.996 48.8C171.25 48.52 170.616 48.04 170.096 47.36Z" fill="white"/>
<path d="M10.122 83.392C10.318 83.392 10.5 83.4713 10.668 83.63C10.836 83.798 10.92 83.9893 10.92 84.204C10.92 84.4187 10.822 84.6193 10.626 84.806C10.4393 85.002 10.1967 85.1747 9.898 85.324C9.59933 85.4733 9.28667 85.59 8.96 85.674C8.64267 85.758 8.35333 85.8 8.092 85.8C7.51333 85.8 7.05133 85.744 6.706 85.632C6.36067 85.5293 6.076 85.408 5.852 85.268C5.628 85.1373 5.418 85.016 5.222 84.904C5.026 84.8013 4.788 84.75 4.508 84.75C4.33067 84.75 4.186 84.778 4.074 84.834C3.97133 84.8993 3.85467 84.96 3.724 85.016C3.60267 85.0813 3.43 85.114 3.206 85.114C2.97267 85.114 2.77667 85.0253 2.618 84.848C2.45933 84.6707 2.38 84.4793 2.38 84.274C2.38 83.91 2.54333 83.6673 2.87 83.546L5.768 82.468L7.028 82.776L4.312 83.784L5.11 83.322C5.43667 83.322 5.72133 83.3687 5.964 83.462C6.216 83.5647 6.454 83.6767 6.678 83.798C6.902 83.9193 7.13067 84.0267 7.364 84.12C7.60667 84.2227 7.882 84.274 8.19 84.274C8.442 84.274 8.652 84.232 8.82 84.148C8.99733 84.064 9.15133 83.9707 9.282 83.868C9.44067 83.7467 9.58067 83.6347 9.702 83.532C9.83267 83.4387 9.97267 83.392 10.122 83.392ZM10.066 78.1C10.066 78.8 9.94933 79.4533 9.716 80.06C9.48267 80.6667 9.15133 81.2033 8.722 81.67C8.302 82.1273 7.798 82.4867 7.21 82.748C6.63133 83.0093 5.99667 83.14 5.306 83.14C4.61533 83.14 3.98067 83.0093 3.402 82.748C2.82333 82.4867 2.31933 82.1273 1.89 81.67C1.47 81.2033 1.14333 80.6667 0.91 80.06C0.676667 79.4533 0.56 78.8 0.56 78.1C0.56 77.4 0.676667 76.7467 0.91 76.14C1.14333 75.5333 1.47 75.0013 1.89 74.544C2.31933 74.0773 2.82333 73.7133 3.402 73.452C3.98067 73.1907 4.61533 73.06 5.306 73.06C5.99667 73.06 6.63133 73.1907 7.21 73.452C7.798 73.7133 8.302 74.0773 8.722 74.544C9.15133 75.0013 9.48267 75.5333 9.716 76.14C9.94933 76.7467 10.066 77.4 10.066 78.1ZM8.246 78.1C8.246 77.4747 8.12 76.91 7.868 76.406C7.616 75.8927 7.27067 75.4867 6.832 75.188C6.39333 74.8893 5.88467 74.74 5.306 74.74C4.72733 74.74 4.21867 74.8893 3.78 75.188C3.34133 75.4867 2.996 75.888 2.744 76.392C2.50133 76.896 2.38 77.4653 2.38 78.1C2.38 78.7253 2.50133 79.2947 2.744 79.808C2.996 80.312 3.34133 80.7133 3.78 81.012C4.21867 81.3107 4.72733 81.46 5.306 81.46C5.88467 81.46 6.39333 81.3107 6.832 81.012C7.27067 80.7133 7.616 80.312 7.868 79.808C8.12 79.2947 8.246 78.7253 8.246 78.1ZM17.0364 75.51C17.279 75.51 17.4797 75.594 17.6384 75.762C17.797 75.9207 17.8764 76.1213 17.8764 76.364V79.92C17.8764 80.9093 17.601 81.6933 17.0504 82.272C16.4997 82.8507 15.7064 83.14 14.6704 83.14C13.6344 83.14 12.841 82.8507 12.2904 82.272C11.749 81.6933 11.4784 80.9093 11.4784 79.92V76.364C11.4784 76.1213 11.5577 75.9207 11.7164 75.762C11.875 75.594 12.0757 75.51 12.3184 75.51C12.561 75.51 12.7617 75.594 12.9204 75.762C13.079 75.9207 13.1584 76.1213 13.1584 76.364V79.92C13.1584 80.4893 13.2844 80.914 13.5364 81.194C13.7884 81.4647 14.1664 81.6 14.6704 81.6C15.1837 81.6 15.5664 81.4647 15.8184 81.194C16.0704 80.914 16.1964 80.4893 16.1964 79.92V76.364C16.1964 76.1213 16.2757 75.9207 16.4344 75.762C16.593 75.594 16.7937 75.51 17.0364 75.51ZM21.2772 82.146C21.2772 82.3887 21.1978 82.594 21.0392 82.762C20.8805 82.9207 20.6798 83 20.4372 83C20.1945 83 19.9938 82.9207 19.8352 82.762C19.6765 82.594 19.5972 82.3887 19.5972 82.146V76.364C19.5972 76.1213 19.6765 75.9207 19.8352 75.762C19.9938 75.594 20.1945 75.51 20.4372 75.51C20.6798 75.51 20.8805 75.594 21.0392 75.762C21.1978 75.9207 21.2772 76.1213 21.2772 76.364V82.146ZM20.4232 74.6C20.1058 74.6 19.8818 74.5487 19.7512 74.446C19.6205 74.3433 19.5552 74.1613 19.5552 73.9V73.634C19.5552 73.3633 19.6252 73.1813 19.7652 73.088C19.9145 72.9853 20.1385 72.934 20.4372 72.934C20.7638 72.934 20.9925 72.9853 21.1232 73.088C21.2538 73.1907 21.3192 73.3727 21.3192 73.634V73.9C21.3192 74.1707 21.2492 74.3573 21.1092 74.46C20.9692 74.5533 20.7405 74.6 20.4232 74.6ZM26.3358 75.37C26.8678 75.37 27.3298 75.426 27.7218 75.538C28.1231 75.65 28.4311 75.8087 28.6458 76.014C28.8698 76.21 28.9818 76.448 28.9818 76.728C28.9818 76.9147 28.9258 77.092 28.8138 77.26C28.7018 77.4187 28.5384 77.498 28.3238 77.498C28.1744 77.498 28.0484 77.4793 27.9458 77.442C27.8524 77.3953 27.7684 77.3393 27.6938 77.274C27.6191 77.2087 27.5304 77.148 27.4278 77.092C27.3344 77.036 27.1898 76.994 26.9938 76.966C26.8071 76.9287 26.6671 76.91 26.5738 76.91C26.0978 76.91 25.6918 77.0127 25.3558 77.218C25.0291 77.4233 24.7771 77.7033 24.5998 78.058C24.4224 78.4033 24.3338 78.8047 24.3338 79.262C24.3338 79.71 24.4224 80.1113 24.5998 80.466C24.7864 80.8113 25.0384 81.0867 25.3558 81.292C25.6824 81.4973 26.0558 81.6 26.4758 81.6C26.7091 81.6 26.9098 81.586 27.0778 81.558C27.2458 81.53 27.3858 81.488 27.4978 81.432C27.6284 81.3573 27.7451 81.278 27.8478 81.194C27.9504 81.11 28.1044 81.068 28.3098 81.068C28.5524 81.068 28.7391 81.1473 28.8698 81.306C29.0004 81.4553 29.0658 81.642 29.0658 81.866C29.0658 82.0993 28.9351 82.314 28.6738 82.51C28.4124 82.6967 28.0671 82.8507 27.6378 82.972C27.2178 83.084 26.7604 83.14 26.2658 83.14C25.5284 83.14 24.8891 82.972 24.3478 82.636C23.8064 82.2907 23.3864 81.824 23.0878 81.236C22.7984 80.648 22.6538 79.99 22.6538 79.262C22.6538 78.4967 22.8078 77.8247 23.1158 77.246C23.4331 76.658 23.8671 76.2007 24.4178 75.874C24.9778 75.538 25.6171 75.37 26.3358 75.37ZM31.2572 83C31.0145 83 30.8139 82.9207 30.6552 82.762C30.4965 82.594 30.4172 82.3887 30.4172 82.146V73.494C30.4172 73.2513 30.4965 73.0507 30.6552 72.892C30.8139 72.724 31.0145 72.64 31.2572 72.64C31.4999 72.64 31.7005 72.724 31.8592 72.892C32.0179 73.0507 32.0972 73.2513 32.0972 73.494V82.146C32.0972 82.3887 32.0179 82.594 31.8592 82.762C31.7005 82.9207 31.4999 83 31.2572 83ZM35.7092 75.51C35.9239 75.51 36.1105 75.5987 36.2692 75.776C36.4279 75.9533 36.5072 76.126 36.5072 76.294C36.5072 76.518 36.3952 76.728 36.1712 76.924L31.9572 80.802L31.8872 78.87L35.0932 75.776C35.2705 75.5987 35.4759 75.51 35.7092 75.51ZM35.9192 82.986C35.6765 82.986 35.4712 82.8927 35.3032 82.706L32.7132 79.962L33.9872 78.786L36.5072 81.53C36.6845 81.7167 36.7732 81.9267 36.7732 82.16C36.7732 82.4027 36.6752 82.6033 36.4792 82.762C36.2925 82.9113 36.1059 82.986 35.9192 82.986ZM45.4617 83.14C44.8084 83.14 44.2204 83.0607 43.6977 82.902C43.1751 82.734 42.6757 82.4447 42.1997 82.034C42.0784 81.9313 41.9851 81.8147 41.9197 81.684C41.8544 81.5533 41.8217 81.4227 41.8217 81.292C41.8217 81.0773 41.8964 80.8907 42.0457 80.732C42.2044 80.564 42.4004 80.48 42.6337 80.48C42.8111 80.48 42.9697 80.536 43.1097 80.648C43.4644 80.9373 43.8144 81.1567 44.1597 81.306C44.5144 81.4553 44.9484 81.53 45.4617 81.53C45.8071 81.53 46.1244 81.4787 46.4137 81.376C46.7031 81.264 46.9364 81.1193 47.1137 80.942C47.2911 80.7553 47.3797 80.5453 47.3797 80.312C47.3797 80.032 47.2957 79.794 47.1277 79.598C46.9597 79.402 46.7031 79.2387 46.3577 79.108C46.0124 78.968 45.5737 78.8607 45.0417 78.786C44.5377 78.7113 44.0944 78.5993 43.7117 78.45C43.3291 78.2913 43.0071 78.0953 42.7457 77.862C42.4937 77.6193 42.3024 77.3393 42.1717 77.022C42.0411 76.6953 41.9757 76.3313 41.9757 75.93C41.9757 75.3233 42.1297 74.8053 42.4377 74.376C42.7551 73.9467 43.1797 73.62 43.7117 73.396C44.2437 73.172 44.8317 73.06 45.4757 73.06C46.0824 73.06 46.6424 73.1533 47.1557 73.34C47.6784 73.5173 48.1031 73.746 48.4297 74.026C48.7004 74.2407 48.8357 74.488 48.8357 74.768C48.8357 74.9733 48.7564 75.16 48.5977 75.328C48.4391 75.496 48.2524 75.58 48.0377 75.58C47.8977 75.58 47.7717 75.538 47.6597 75.454C47.5104 75.3233 47.3097 75.202 47.0577 75.09C46.8057 74.9687 46.5397 74.8707 46.2597 74.796C45.9797 74.712 45.7184 74.67 45.4757 74.67C45.0744 74.67 44.7337 74.7213 44.4537 74.824C44.1831 74.9267 43.9777 75.0667 43.8377 75.244C43.6977 75.4213 43.6277 75.6267 43.6277 75.86C43.6277 76.14 43.7071 76.3733 43.8657 76.56C44.0337 76.7373 44.2717 76.882 44.5797 76.994C44.8877 77.0967 45.2564 77.19 45.6857 77.274C46.2457 77.3767 46.7357 77.498 47.1557 77.638C47.5851 77.778 47.9397 77.96 48.2197 78.184C48.4997 78.3987 48.7097 78.674 48.8497 79.01C48.9897 79.3367 49.0597 79.738 49.0597 80.214C49.0597 80.8207 48.8917 81.3433 48.5557 81.782C48.2197 82.2207 47.7764 82.5567 47.2257 82.79C46.6844 83.0233 46.0964 83.14 45.4617 83.14ZM53.8572 75.37C54.3892 75.37 54.8512 75.426 55.2432 75.538C55.6446 75.65 55.9526 75.8087 56.1672 76.014C56.3912 76.21 56.5032 76.448 56.5032 76.728C56.5032 76.9147 56.4472 77.092 56.3352 77.26C56.2232 77.4187 56.0599 77.498 55.8452 77.498C55.6959 77.498 55.5699 77.4793 55.4672 77.442C55.3739 77.3953 55.2899 77.3393 55.2152 77.274C55.1406 77.2087 55.0519 77.148 54.9492 77.092C54.8559 77.036 54.7112 76.994 54.5152 76.966C54.3286 76.9287 54.1886 76.91 54.0952 76.91C53.6192 76.91 53.2132 77.0127 52.8772 77.218C52.5506 77.4233 52.2986 77.7033 52.1212 78.058C51.9439 78.4033 51.8552 78.8047 51.8552 79.262C51.8552 79.71 51.9439 80.1113 52.1212 80.466C52.3079 80.8113 52.5599 81.0867 52.8772 81.292C53.2039 81.4973 53.5772 81.6 53.9972 81.6C54.2306 81.6 54.4312 81.586 54.5992 81.558C54.7672 81.53 54.9072 81.488 55.0192 81.432C55.1499 81.3573 55.2666 81.278 55.3692 81.194C55.4719 81.11 55.6259 81.068 55.8312 81.068C56.0739 81.068 56.2606 81.1473 56.3912 81.306C56.5219 81.4553 56.5872 81.642 56.5872 81.866C56.5872 82.0993 56.4566 82.314 56.1952 82.51C55.9339 82.6967 55.5886 82.8507 55.1592 82.972C54.7392 83.084 54.2819 83.14 53.7872 83.14C53.0499 83.14 52.4106 82.972 51.8692 82.636C51.3279 82.2907 50.9079 81.824 50.6092 81.236C50.3199 80.648 50.1752 79.99 50.1752 79.262C50.1752 78.4967 50.3292 77.8247 50.6372 77.246C50.9546 76.658 51.3886 76.2007 51.9392 75.874C52.4992 75.538 53.1386 75.37 53.8572 75.37ZM63.9307 75.37C64.1733 75.37 64.374 75.4493 64.5327 75.608C64.6913 75.7667 64.7707 75.972 64.7707 76.224V82.146C64.7707 82.3887 64.6913 82.594 64.5327 82.762C64.374 82.9207 64.1733 83 63.9307 83C63.688 83 63.4873 82.9207 63.3287 82.762C63.17 82.594 63.0907 82.3887 63.0907 82.146V81.46L63.3987 81.586C63.3987 81.7073 63.3333 81.8567 63.2027 82.034C63.072 82.202 62.8947 82.37 62.6707 82.538C62.4467 82.706 62.1807 82.8507 61.8727 82.972C61.574 83.084 61.2473 83.14 60.8927 83.14C60.2487 83.14 59.6653 82.9767 59.1427 82.65C58.62 82.314 58.2047 81.8567 57.8967 81.278C57.598 80.69 57.4487 80.018 57.4487 79.262C57.4487 78.4967 57.598 77.8247 57.8967 77.246C58.2047 76.658 58.6153 76.2007 59.1287 75.874C59.642 75.538 60.2113 75.37 60.8367 75.37C61.238 75.37 61.6067 75.4307 61.9427 75.552C62.2787 75.6733 62.568 75.8273 62.8107 76.014C63.0627 76.2007 63.254 76.392 63.3847 76.588C63.5247 76.7747 63.5947 76.9333 63.5947 77.064L63.0907 77.246V76.224C63.0907 75.9813 63.17 75.7807 63.3287 75.622C63.4873 75.454 63.688 75.37 63.9307 75.37ZM61.1027 81.6C61.5133 81.6 61.8727 81.4973 62.1807 81.292C62.4887 81.0867 62.7267 80.8067 62.8947 80.452C63.072 80.0973 63.1607 79.7007 63.1607 79.262C63.1607 78.814 63.072 78.4127 62.8947 78.058C62.7267 77.7033 62.4887 77.4233 62.1807 77.218C61.8727 77.0127 61.5133 76.91 61.1027 76.91C60.7013 76.91 60.3467 77.0127 60.0387 77.218C59.7307 77.4233 59.488 77.7033 59.3107 78.058C59.1427 78.4127 59.0587 78.814 59.0587 79.262C59.0587 79.7007 59.1427 80.0973 59.3107 80.452C59.488 80.8067 59.7307 81.0867 60.0387 81.292C60.3467 81.4973 60.7013 81.6 61.1027 81.6ZM70.5937 75.37C71.2844 75.37 71.807 75.5147 72.1617 75.804C72.5257 76.0933 72.773 76.4807 72.9037 76.966C73.0437 77.442 73.1137 77.974 73.1137 78.562V82.146C73.1137 82.3887 73.0344 82.594 72.8757 82.762C72.717 82.9207 72.5164 83 72.2737 83C72.031 83 71.8304 82.9207 71.6717 82.762C71.513 82.594 71.4337 82.3887 71.4337 82.146V78.562C71.4337 78.254 71.3917 77.9787 71.3077 77.736C71.233 77.484 71.093 77.2833 70.8877 77.134C70.6824 76.9847 70.3884 76.91 70.0057 76.91C69.6324 76.91 69.315 76.9847 69.0537 77.134C68.8017 77.2833 68.6057 77.484 68.4657 77.736C68.335 77.9787 68.2697 78.254 68.2697 78.562V82.146C68.2697 82.3887 68.1904 82.594 68.0317 82.762C67.873 82.9207 67.6724 83 67.4297 83C67.187 83 66.9864 82.9207 66.8277 82.762C66.669 82.594 66.5897 82.3887 66.5897 82.146V76.364C66.5897 76.1213 66.669 75.9207 66.8277 75.762C66.9864 75.594 67.187 75.51 67.4297 75.51C67.6724 75.51 67.873 75.594 68.0317 75.762C68.1904 75.9207 68.2697 76.1213 68.2697 76.364V76.966L68.0597 76.924C68.1437 76.7653 68.265 76.5973 68.4237 76.42C68.5824 76.2333 68.769 76.0607 68.9837 75.902C69.1984 75.7433 69.441 75.6173 69.7117 75.524C69.9824 75.4213 70.2764 75.37 70.5937 75.37ZM80.7434 82.146C80.7434 82.3887 80.6547 82.594 80.4774 82.762C80.3 82.9207 80.0947 83 79.8614 83C79.6 83 79.39 82.9207 79.2314 82.762C79.0727 82.594 78.9934 82.3887 78.9934 82.146V74.054C78.9934 73.8113 79.0774 73.6107 79.2454 73.452C79.4134 73.284 79.628 73.2 79.8894 73.2C80.1134 73.2 80.3094 73.284 80.4774 73.452C80.6547 73.6107 80.7434 73.8113 80.7434 74.054V82.146ZM86.7128 75.37C87.4035 75.37 87.9262 75.5147 88.2808 75.804C88.6448 76.0933 88.8922 76.4807 89.0228 76.966C89.1628 77.442 89.2328 77.974 89.2328 78.562V82.146C89.2328 82.3887 89.1535 82.594 88.9948 82.762C88.8362 82.9207 88.6355 83 88.3928 83C88.1502 83 87.9495 82.9207 87.7908 82.762C87.6322 82.594 87.5528 82.3887 87.5528 82.146V78.562C87.5528 78.254 87.5108 77.9787 87.4268 77.736C87.3522 77.484 87.2122 77.2833 87.0068 77.134C86.8015 76.9847 86.5075 76.91 86.1248 76.91C85.7515 76.91 85.4342 76.9847 85.1728 77.134C84.9208 77.2833 84.7248 77.484 84.5848 77.736C84.4542 77.9787 84.3888 78.254 84.3888 78.562V82.146C84.3888 82.3887 84.3095 82.594 84.1508 82.762C83.9922 82.9207 83.7915 83 83.5488 83C83.3062 83 83.1055 82.9207 82.9468 82.762C82.7882 82.594 82.7088 82.3887 82.7088 82.146V76.364C82.7088 76.1213 82.7882 75.9207 82.9468 75.762C83.1055 75.594 83.3062 75.51 83.5488 75.51C83.7915 75.51 83.9922 75.594 84.1508 75.762C84.3095 75.9207 84.3888 76.1213 84.3888 76.364V76.966L84.1788 76.924C84.2628 76.7653 84.3842 76.5973 84.5428 76.42C84.7015 76.2333 84.8882 76.0607 85.1028 75.902C85.3175 75.7433 85.5602 75.6173 85.8308 75.524C86.1015 75.4213 86.3955 75.37 86.7128 75.37ZM92.6307 82.146C92.6307 82.3887 92.5513 82.594 92.3927 82.762C92.234 82.9207 92.0333 83 91.7907 83C91.548 83 91.3473 82.9207 91.1887 82.762C91.03 82.594 90.9507 82.3887 90.9507 82.146V76.364C90.9507 76.1213 91.03 75.9207 91.1887 75.762C91.3473 75.594 91.548 75.51 91.7907 75.51C92.0333 75.51 92.234 75.594 92.3927 75.762C92.5513 75.9207 92.6307 76.1213 92.6307 76.364V82.146ZM91.7767 74.6C91.4593 74.6 91.2353 74.5487 91.1047 74.446C90.974 74.3433 90.9087 74.1613 90.9087 73.9V73.634C90.9087 73.3633 90.9787 73.1813 91.1187 73.088C91.268 72.9853 91.492 72.934 91.7907 72.934C92.1173 72.934 92.346 72.9853 92.4767 73.088C92.6073 73.1907 92.6727 73.3727 92.6727 73.634V73.9C92.6727 74.1707 92.6027 74.3573 92.4627 74.46C92.3227 74.5533 92.094 74.6 91.7767 74.6ZM94.4413 75.65H97.7593C97.9833 75.65 98.1699 75.7247 98.3193 75.874C98.4686 76.0233 98.5433 76.21 98.5433 76.434C98.5433 76.6487 98.4686 76.8307 98.3193 76.98C98.1699 77.12 97.9833 77.19 97.7593 77.19H94.4413C94.2173 77.19 94.0306 77.1153 93.8813 76.966C93.7319 76.8167 93.6573 76.63 93.6573 76.406C93.6573 76.1913 93.7319 76.014 93.8813 75.874C94.0306 75.7247 94.2173 75.65 94.4413 75.65ZM95.9393 73.9C96.1819 73.9 96.3779 73.984 96.5273 74.152C96.6859 74.3107 96.7653 74.5113 96.7653 74.754V80.984C96.7653 81.1147 96.7886 81.222 96.8353 81.306C96.8913 81.39 96.9613 81.4507 97.0453 81.488C97.1386 81.5253 97.2366 81.544 97.3393 81.544C97.4513 81.544 97.5539 81.5253 97.6473 81.488C97.7406 81.4413 97.8479 81.418 97.9693 81.418C98.0999 81.418 98.2166 81.4787 98.3193 81.6C98.4313 81.7213 98.4873 81.8893 98.4873 82.104C98.4873 82.3653 98.3426 82.58 98.0533 82.748C97.7733 82.916 97.4699 83 97.1433 83C96.9473 83 96.7279 82.986 96.4853 82.958C96.2519 82.9207 96.0279 82.8413 95.8133 82.72C95.6079 82.5893 95.4353 82.3933 95.2953 82.132C95.1553 81.8707 95.0853 81.5113 95.0853 81.054V74.754C95.0853 74.5113 95.1646 74.3107 95.3233 74.152C95.4913 73.984 95.6966 73.9 95.9393 73.9ZM101.668 82.146C101.668 82.3887 101.588 82.594 101.43 82.762C101.271 82.9207 101.07 83 100.828 83C100.585 83 100.384 82.9207 100.226 82.762C100.067 82.594 99.9878 82.3887 99.9878 82.146V76.364C99.9878 76.1213 100.067 75.9207 100.226 75.762C100.384 75.594 100.585 75.51 100.828 75.51C101.07 75.51 101.271 75.594 101.43 75.762C101.588 75.9207 101.668 76.1213 101.668 76.364V82.146ZM100.814 74.6C100.496 74.6 100.272 74.5487 100.142 74.446C100.011 74.3433 99.9458 74.1613 99.9458 73.9V73.634C99.9458 73.3633 100.016 73.1813 100.156 73.088C100.305 72.9853 100.529 72.934 100.828 72.934C101.154 72.934 101.383 72.9853 101.514 73.088C101.644 73.1907 101.71 73.3727 101.71 73.634V73.9C101.71 74.1707 101.64 74.3573 101.5 74.46C101.36 74.5533 101.131 74.6 100.814 74.6ZM109.526 75.37C109.769 75.37 109.97 75.4493 110.128 75.608C110.287 75.7667 110.366 75.972 110.366 76.224V82.146C110.366 82.3887 110.287 82.594 110.128 82.762C109.97 82.9207 109.769 83 109.526 83C109.284 83 109.083 82.9207 108.924 82.762C108.766 82.594 108.686 82.3887 108.686 82.146V81.46L108.994 81.586C108.994 81.7073 108.929 81.8567 108.798 82.034C108.668 82.202 108.49 82.37 108.266 82.538C108.042 82.706 107.776 82.8507 107.468 82.972C107.17 83.084 106.843 83.14 106.488 83.14C105.844 83.14 105.261 82.9767 104.738 82.65C104.216 82.314 103.8 81.8567 103.492 81.278C103.194 80.69 103.044 80.018 103.044 79.262C103.044 78.4967 103.194 77.8247 103.492 77.246C103.8 76.658 104.211 76.2007 104.724 75.874C105.238 75.538 105.807 75.37 106.432 75.37C106.834 75.37 107.202 75.4307 107.538 75.552C107.874 75.6733 108.164 75.8273 108.406 76.014C108.658 76.2007 108.85 76.392 108.98 76.588C109.12 76.7747 109.19 76.9333 109.19 77.064L108.686 77.246V76.224C108.686 75.9813 108.766 75.7807 108.924 75.622C109.083 75.454 109.284 75.37 109.526 75.37ZM106.698 81.6C107.109 81.6 107.468 81.4973 107.776 81.292C108.084 81.0867 108.322 80.8067 108.49 80.452C108.668 80.0973 108.756 79.7007 108.756 79.262C108.756 78.814 108.668 78.4127 108.49 78.058C108.322 77.7033 108.084 77.4233 107.776 77.218C107.468 77.0127 107.109 76.91 106.698 76.91C106.297 76.91 105.942 77.0127 105.634 77.218C105.326 77.4233 105.084 77.7033 104.906 78.058C104.738 78.4127 104.654 78.814 104.654 79.262C104.654 79.7007 104.738 80.0973 104.906 80.452C105.084 80.8067 105.326 81.0867 105.634 81.292C105.942 81.4973 106.297 81.6 106.698 81.6ZM112.269 75.65H115.587C115.811 75.65 115.998 75.7247 116.147 75.874C116.297 76.0233 116.371 76.21 116.371 76.434C116.371 76.6487 116.297 76.8307 116.147 76.98C115.998 77.12 115.811 77.19 115.587 77.19H112.269C112.045 77.19 111.859 77.1153 111.709 76.966C111.56 76.8167 111.485 76.63 111.485 76.406C111.485 76.1913 111.56 76.014 111.709 75.874C111.859 75.7247 112.045 75.65 112.269 75.65ZM113.767 73.9C114.01 73.9 114.206 73.984 114.355 74.152C114.514 74.3107 114.593 74.5113 114.593 74.754V80.984C114.593 81.1147 114.617 81.222 114.663 81.306C114.719 81.39 114.789 81.4507 114.873 81.488C114.967 81.5253 115.065 81.544 115.167 81.544C115.279 81.544 115.382 81.5253 115.475 81.488C115.569 81.4413 115.676 81.418 115.797 81.418C115.928 81.418 116.045 81.4787 116.147 81.6C116.259 81.7213 116.315 81.8893 116.315 82.104C116.315 82.3653 116.171 82.58 115.881 82.748C115.601 82.916 115.298 83 114.971 83C114.775 83 114.556 82.986 114.313 82.958C114.08 82.9207 113.856 82.8413 113.641 82.72C113.436 82.5893 113.263 82.3933 113.123 82.132C112.983 81.8707 112.913 81.5113 112.913 81.054V74.754C112.913 74.5113 112.993 74.3107 113.151 74.152C113.319 73.984 113.525 73.9 113.767 73.9ZM121.374 83.14C120.58 83.14 119.89 82.9767 119.302 82.65C118.723 82.314 118.275 81.8613 117.958 81.292C117.65 80.7227 117.496 80.0787 117.496 79.36C117.496 78.52 117.664 77.806 118 77.218C118.345 76.6207 118.793 76.1633 119.344 75.846C119.894 75.5287 120.478 75.37 121.094 75.37C121.57 75.37 122.018 75.468 122.438 75.664C122.867 75.86 123.245 76.1307 123.572 76.476C123.898 76.812 124.155 77.204 124.342 77.652C124.538 78.1 124.636 78.576 124.636 79.08C124.626 79.304 124.538 79.486 124.37 79.626C124.202 79.766 124.006 79.836 123.782 79.836H118.434L118.014 78.436H123.152L122.844 78.716V78.338C122.825 78.0673 122.727 77.8247 122.55 77.61C122.382 77.3953 122.167 77.2273 121.906 77.106C121.654 76.9753 121.383 76.91 121.094 76.91C120.814 76.91 120.552 76.9473 120.31 77.022C120.067 77.0967 119.857 77.2227 119.68 77.4C119.502 77.5773 119.362 77.8153 119.26 78.114C119.157 78.4127 119.106 78.7907 119.106 79.248C119.106 79.752 119.208 80.1813 119.414 80.536C119.628 80.8813 119.899 81.1473 120.226 81.334C120.562 81.5113 120.916 81.6 121.29 81.6C121.635 81.6 121.91 81.572 122.116 81.516C122.321 81.46 122.484 81.3947 122.606 81.32C122.736 81.236 122.853 81.166 122.956 81.11C123.124 81.026 123.282 80.984 123.432 80.984C123.637 80.984 123.805 81.054 123.936 81.194C124.076 81.334 124.146 81.4973 124.146 81.684C124.146 81.936 124.015 82.1647 123.754 82.37C123.511 82.5753 123.17 82.7573 122.732 82.916C122.293 83.0653 121.84 83.14 121.374 83.14ZM132.235 72.64C132.478 72.64 132.679 72.7193 132.837 72.878C132.996 73.0367 133.075 73.242 133.075 73.494V82.146C133.075 82.3887 132.996 82.594 132.837 82.762C132.679 82.9207 132.478 83 132.235 83C131.993 83 131.792 82.9207 131.633 82.762C131.475 82.594 131.395 82.3887 131.395 82.146V81.46L131.703 81.586C131.703 81.7073 131.638 81.8567 131.507 82.034C131.377 82.202 131.199 82.37 130.975 82.538C130.751 82.706 130.485 82.8507 130.177 82.972C129.879 83.084 129.552 83.14 129.197 83.14C128.553 83.14 127.97 82.9767 127.447 82.65C126.925 82.314 126.509 81.8567 126.201 81.278C125.903 80.69 125.753 80.018 125.753 79.262C125.753 78.4967 125.903 77.8247 126.201 77.246C126.509 76.658 126.92 76.2007 127.433 75.874C127.947 75.538 128.516 75.37 129.141 75.37C129.543 75.37 129.911 75.4307 130.247 75.552C130.583 75.6733 130.873 75.8273 131.115 76.014C131.367 76.2007 131.559 76.392 131.689 76.588C131.829 76.7747 131.899 76.9333 131.899 77.064L131.395 77.246V73.494C131.395 73.2513 131.475 73.0507 131.633 72.892C131.792 72.724 131.993 72.64 132.235 72.64ZM129.407 81.6C129.818 81.6 130.177 81.4973 130.485 81.292C130.793 81.0867 131.031 80.8067 131.199 80.452C131.377 80.0973 131.465 79.7007 131.465 79.262C131.465 78.814 131.377 78.4127 131.199 78.058C131.031 77.7033 130.793 77.4233 130.485 77.218C130.177 77.0127 129.818 76.91 129.407 76.91C129.006 76.91 128.651 77.0127 128.343 77.218C128.035 77.4233 127.793 77.7033 127.615 78.058C127.447 78.4127 127.363 78.814 127.363 79.262C127.363 79.7007 127.447 80.0973 127.615 80.452C127.793 80.8067 128.035 81.0867 128.343 81.292C128.651 81.4973 129.006 81.6 129.407 81.6Z" fill="#E9E9F4"/>
<g filter="url(#filter0_b_320_1542)">
<ellipse cx="447.588" cy="113.129" rx="151.412" ry="3.87132" fill="#E9E9F4" fill-opacity="0.74"/>
</g>
<path d="M339.657 67.6317C337.544 74.969 331.374 80.1052 324.939 84.4684C324.04 85.0777 323.141 85.673 322.242 86.2543C322.236 86.257 322.23 86.2627 322.224 86.2654C322.18 86.2932 322.137 86.3211 322.097 86.3491C321.911 86.4688 321.725 86.5887 321.541 86.707L321.643 86.7525C321.643 86.7525 321.742 86.8053 321.633 86.761C321.601 86.7474 321.567 86.7353 321.535 86.7217C317.796 85.2123 313.991 83.5917 311.126 80.7642C308.154 77.828 306.417 73.2227 308.026 69.3653C308.238 68.86 308.505 68.38 308.823 67.934C308.954 67.747 309.094 67.5681 309.241 67.3924C310.128 66.3079 311.289 65.4795 312.602 64.9927C313.916 64.5058 315.335 64.3779 316.714 64.6222C318.094 64.8665 319.383 65.4741 320.45 66.3825C321.517 67.291 322.323 68.4675 322.785 69.7911C323.258 65.3846 319.628 61.6934 316.135 58.9699C312.64 56.2478 308.669 53.2833 307.993 48.9012C307.616 46.4631 308.463 44.1003 310.006 42.2035C310.054 42.1459 310.101 42.0883 310.15 42.0323C312.029 39.8231 314.67 38.4045 317.548 38.0598C322.906 37.5023 328.112 40.3417 332.005 44.0713C338.271 50.072 342.059 59.2891 339.657 67.6317Z" fill="#69CA94"/>
<path d="M329.583 58.0345C330.611 59.6363 331.401 61.3795 331.927 63.2094C332.371 64.8449 332.569 66.5377 332.514 68.2318C332.371 71.7177 331.393 75.1182 329.663 78.1472C328.36 80.4452 326.773 82.5691 324.938 84.4684C324.039 85.0778 323.14 85.6731 322.241 86.2544C322.235 86.257 322.229 86.2627 322.222 86.2654C322.179 86.2933 322.136 86.3211 322.096 86.3492C321.91 86.4689 321.724 86.5887 321.54 86.7071C321.54 86.7071 321.741 86.8054 321.632 86.761C321.6 86.7475 321.566 86.7353 321.534 86.7217C321.869 83.9718 321.54 81.1815 320.576 78.5846C319.612 75.9878 318.04 73.6602 315.993 71.7967C313.94 69.9616 311.483 68.6381 308.822 67.9341C308.952 67.7471 309.093 67.5681 309.239 67.3925C310.267 67.6809 311.267 68.0598 312.228 68.5246C315.664 70.176 318.477 72.8906 320.251 76.2668C321.843 79.3325 322.528 82.7892 322.226 86.2311C322.379 86.0918 322.533 85.9494 322.682 85.8084C325.523 83.1571 328.047 80.1138 329.754 76.6016C331.236 73.6273 331.964 70.3339 331.875 67.0115C331.735 63.3889 330.293 60.0333 328.206 57.1122C325.917 53.9957 323.214 51.207 320.171 48.8237C317.105 46.365 313.749 44.2911 310.179 42.6484C310.098 42.6108 310.035 42.5436 310.003 42.4608C309.971 42.378 309.971 42.2859 310.005 42.2036C310.028 42.1296 310.08 42.0681 310.149 42.0323C310.185 42.017 310.223 42.0099 310.262 42.0116C310.3 42.0132 310.338 42.0235 310.372 42.0418C310.813 42.2449 311.25 42.4508 311.685 42.6656C315.301 44.4549 318.682 46.687 321.748 49.3106C324.71 51.8386 327.499 54.7269 329.583 58.0345Z" fill="#69CA94"/>
<path d="M309.151 86.1089H332.306C332.56 86.1089 332.811 86.1629 333.042 86.2675C333.274 86.372 333.48 86.5247 333.649 86.7153C333.817 86.9059 333.942 87.1301 334.017 87.373C334.092 87.6159 334.115 87.872 334.083 88.1243L331.133 111.75C331.078 112.184 330.867 112.582 330.54 112.871C330.213 113.16 329.792 113.32 329.355 113.321H312.102C311.665 113.32 311.244 113.16 310.917 112.871C310.59 112.582 310.379 112.184 310.324 111.75L307.374 88.1243C307.342 87.872 307.365 87.6159 307.44 87.373C307.515 87.1301 307.64 86.9059 307.808 86.7153C307.976 86.5247 308.183 86.372 308.415 86.2675C308.646 86.1629 308.897 86.1089 309.151 86.1089Z" fill="white"/>
<path d="M384.648 113.502C386.248 113.502 387.546 112.204 387.546 110.602C387.546 109 386.248 107.701 384.648 107.701C383.048 107.701 381.75 109 381.75 110.602C381.75 112.204 383.048 113.502 384.648 113.502Z" fill="#9591AF"/>
<path d="M567.689 113.502C569.289 113.502 570.586 112.204 570.586 110.602C570.586 109 569.289 107.701 567.689 107.701C566.088 107.701 564.791 109 564.791 110.602C564.791 112.204 566.088 113.502 567.689 113.502Z" fill="#9591AF"/>
<path d="M437.772 70.2341H392.374C390.261 70.2317 388.236 69.3905 386.742 67.895C385.248 66.3996 384.407 64.3721 384.405 62.2572V31.3167C384.407 29.2018 385.248 27.1743 386.742 25.6788C388.236 24.1834 390.261 23.3422 392.374 23.3398H437.772C439.885 23.3422 441.91 24.1834 443.404 25.6788C444.898 27.1743 445.739 29.2018 445.741 31.3167V62.2572C445.739 64.3721 444.898 66.3996 443.404 67.8951C441.91 69.3905 439.885 70.2317 437.772 70.2341Z" fill="#9591AF"/>
<path d="M498.867 70.4756H453.469C451.356 70.4733 449.331 69.6321 447.837 68.1366C446.343 66.6412 445.503 64.6136 445.5 62.4988V31.5583C445.503 29.4434 446.343 27.4159 447.837 25.9204C449.331 24.425 451.356 23.5838 453.469 23.5814H498.867C500.98 23.5838 503.006 24.425 504.499 25.9204C505.993 27.4159 506.834 29.4434 506.836 31.5583V62.4988C506.834 64.6137 505.993 66.6412 504.499 68.1366C503.006 69.6321 500.98 70.4733 498.867 70.4756Z" fill="#9591AF"/>
<path d="M559.962 70.7174H514.564C512.452 70.7151 510.426 69.8739 508.932 68.3784C507.438 66.883 506.598 64.8554 506.595 62.7406V31.8001C506.598 29.6852 507.438 27.6577 508.932 26.1622C510.426 24.6668 512.452 23.8256 514.564 23.8232H559.962C562.075 23.8256 564.101 24.6668 565.595 26.1622C567.089 27.6577 567.929 29.6852 567.931 31.8001V62.7406C567.929 64.8555 567.089 66.883 565.595 68.3785C564.101 69.8739 562.075 70.7151 559.962 70.7174Z" fill="#9591AF"/>
<path d="M577.348 68.542H377.403V110.36H577.348V68.542Z" fill="#9591AF"/>
<path d="M384.647 110.602H375.954C371.56 110.602 367.985 106.539 367.985 101.545V57.9061H384.647V110.602Z" fill="#9591AF"/>
<path d="M576.382 110.602H567.688V51.1379H584.351V100.381C584.351 106.017 580.776 110.602 576.382 110.602Z" fill="#9591AF"/>
<path d="M445.982 77.244H384.646V64.191C405.091 52.4513 425.536 52.4513 445.982 64.191V77.244Z" fill="#E9E9F4"/>
<path d="M507.077 77.4857H445.741V64.4327C466.187 52.693 486.632 52.693 507.077 64.4327V77.4857Z" fill="#E9E9F4"/>
<path d="M568.172 77.7274H506.837V64.6744C527.282 52.9347 547.727 52.9347 568.172 64.6744V77.7274Z" fill="#E9E9F4"/>
<path d="M372.814 69.0255C380.683 69.0255 387.061 62.6403 387.061 54.7638C387.061 46.8874 380.683 40.5022 372.814 40.5022C364.946 40.5022 358.567 46.8874 358.567 54.7638C358.567 62.6403 364.946 69.0255 372.814 69.0255Z" fill="#E9E9F4"/>
<path d="M581.454 68.542C589.322 68.542 595.701 62.1568 595.701 54.2803C595.701 46.4038 589.322 40.0187 581.454 40.0187C573.585 40.0187 567.206 46.4038 567.206 54.2803C567.206 62.1568 573.585 68.542 581.454 68.542Z" fill="#E9E9F4"/>
<path d="M539.485 26.3406C539.518 26.5698 539.533 26.8014 539.53 27.033L556.608 38.8153L561.162 36.6571L565.314 43.1115L557.623 47.7164C557.001 48.0884 556.276 48.2486 555.556 48.173C554.836 48.0973 554.16 47.7899 553.629 47.2969L536.334 31.2283C535.475 31.4701 534.564 31.4446 533.721 31.1552C532.877 30.8658 532.142 30.3263 531.613 29.6083C531.083 28.8904 530.784 28.0281 530.756 27.1361C530.728 26.2442 530.972 25.3648 531.456 24.615C531.939 23.8652 532.639 23.2805 533.463 22.9387C534.286 22.5969 535.194 22.5141 536.066 22.7014C536.938 22.8887 537.732 23.3373 538.342 23.9873C538.953 24.6374 539.352 25.4582 539.485 26.3406V26.3406Z" fill="#FFB8B8"/>
<path d="M556.936 37.8015C557.011 37.5414 557.141 37.3006 557.318 37.0956C557.494 36.8905 557.713 36.726 557.959 36.6133L566.546 32.6747C567.706 31.919 569.117 31.6545 570.472 31.939C571.826 32.2235 573.012 33.034 573.77 34.1926C574.528 35.3512 574.797 36.7635 574.516 38.1198C574.236 39.4761 573.429 40.6658 572.274 41.428L565.175 47.7116C564.972 47.891 564.734 48.0245 564.475 48.103C564.216 48.1816 563.943 48.2034 563.675 48.167C563.407 48.1306 563.15 48.0368 562.922 47.892C562.693 47.7472 562.499 47.5548 562.351 47.3279L557.166 39.3534C557.018 39.1265 556.921 38.8704 556.882 38.6026C556.842 38.3348 556.86 38.0615 556.936 37.8015Z" fill="#69CA94"/>
<path d="M539.269 27.1086L539.184 27.1148L538.949 23.8723C538.874 22.8359 538.204 22.0398 537.453 22.0942L532.474 22.4549C531.722 22.5093 530.34 23.454 530.415 24.4905L530.475 25.3256L531.701 42.2789C531.776 43.3154 533.28 44.0511 534.031 43.9967L539.01 43.636C539.762 43.5816 540.31 42.6972 540.235 41.6608L539.35 29.4229L539.436 29.4166L539.269 27.1086Z" fill="#3F3D56"/>
<path d="M538.661 23.9063L539.945 41.6686C540.001 42.4427 539.592 43.1031 539.03 43.1437L534.027 43.5061C533.466 43.5468 532.966 42.9522 532.91 42.1782L531.626 24.4159C531.57 23.6419 531.979 22.9815 532.541 22.9408L533.148 22.8968C533.105 23.0549 533.115 23.2222 533.174 23.3747C533.232 23.5273 533.338 23.6572 533.476 23.7458C533.533 23.7735 533.597 23.7859 533.661 23.7818L536.513 23.5751C536.78 23.5555 536.975 23.2414 536.948 22.8735C536.942 22.7887 536.924 22.7051 536.894 22.6254L537.544 22.5784C538.105 22.5378 538.605 23.1323 538.661 23.9063Z" fill="white"/>
<path d="M468.469 64.9213L466.819 60.0621L484.758 51.3777L487.194 58.5499L468.469 64.9213Z" fill="#FFB8B8"/>
<path d="M464.184 67.7621L458.863 52.0934L459.061 52.0261C459.861 51.7538 460.707 51.6419 461.551 51.6968C462.394 51.7517 463.218 51.9724 463.976 52.3461C464.734 52.7199 465.411 53.2395 465.969 53.8753C466.526 54.511 466.953 55.2504 467.225 56.0513L467.225 56.0517L470.475 65.6215L464.184 67.7621Z" fill="#2F2E41"/>
<path d="M539.669 68.3894C535.821 68.6057 531.985 67.8017 528.547 66.0586L507.453 51.6936L482.821 60.8237C482.167 61.0463 481.454 61.0123 480.824 60.7285C480.194 60.4448 479.695 59.9324 479.428 59.2948L478.221 56.3881C477.946 55.7343 477.938 54.9984 478.199 54.3388C478.46 53.6793 478.97 53.1487 479.618 52.8612L503.15 42.2828C505.975 41.0174 509.144 40.743 512.145 41.504L544.813 49.8373L553.448 60.1025L553.352 60.2349C549.113 66.0893 544.085 68.0695 539.669 68.3894Z" fill="#2F2E41"/>
<path d="M566.349 25.4948C572.022 25.4948 576.621 20.8912 576.621 15.2124C576.621 9.53362 572.022 4.93005 566.349 4.93005C560.676 4.93005 556.077 9.53362 556.077 15.2124C556.077 20.8912 560.676 25.4948 566.349 25.4948Z" fill="#FFB8B8"/>
<path d="M555.805 64.6793L539.273 52.3639L550.547 44.3428C550.225 43.3039 548.794 37.3642 556.618 33.3153C559.095 32.0339 560.879 30.9308 561.922 30.0369C563.401 28.7595 565.296 28.0676 567.249 28.0915C568.48 28.1111 569.69 28.4173 570.783 28.9858C571.876 29.5543 572.821 30.3696 573.545 31.3672C574.268 32.3647 574.75 33.5171 574.951 34.7332C575.153 35.9493 575.069 37.1956 574.707 38.3736C573.075 43.6822 570.476 50.7164 567.36 54.0805C563.836 57.8812 560.013 61.394 555.93 64.5854L555.805 64.6793Z" fill="#69CA94"/>
<path d="M471.09 69.2274L469.439 64.3678L487.379 55.6838L489.815 62.8556L471.09 69.2274Z" fill="#FFB8B8"/>
<path d="M466.805 72.068L461.484 56.3994L461.682 56.332C462.482 56.0597 463.328 55.9478 464.171 56.0027C465.014 56.0576 465.838 56.2783 466.596 56.6521C467.355 57.0259 468.032 57.5454 468.589 58.1812C469.147 58.8169 469.574 59.5563 469.846 60.3572L469.846 60.3576L473.096 69.9275L466.805 72.068Z" fill="#2F2E41"/>
<path d="M542.289 72.6954C538.442 72.9117 534.605 72.1076 531.168 70.3645L510.073 55.9995L485.442 65.1296C484.788 65.3522 484.074 65.3182 483.444 65.0344C482.814 64.7507 482.316 64.2382 482.049 63.6007L480.841 60.694C480.566 60.0402 480.558 59.3043 480.819 58.6448C481.081 57.9852 481.59 57.4546 482.238 57.1671L505.77 46.5887C508.596 45.3233 511.765 45.0489 514.765 45.8099L547.434 54.1432L556.069 64.4084L555.973 64.5408C551.734 70.3952 546.705 72.3755 542.289 72.6954Z" fill="#2F2E41"/>
<path d="M537.549 38.6752C537.677 38.8683 537.789 39.0711 537.885 39.2818L558.358 42.6104L561.551 38.7082L568.064 42.7615L563.083 50.2194C562.68 50.8219 562.093 51.2775 561.41 51.5177C560.727 51.758 559.985 51.7699 559.294 51.5518L536.791 44.443C536.119 45.0293 535.285 45.3968 534.399 45.4967C533.513 45.5967 532.618 45.4242 531.832 45.0024C531.046 44.5805 530.408 43.9292 530.001 43.1352C529.594 42.3411 529.438 41.4418 529.555 40.5571C529.671 39.6723 530.053 38.8438 530.651 38.182C531.249 37.5201 532.034 37.0562 532.902 36.8519C533.77 36.6476 534.68 36.7127 535.51 37.0384C536.34 37.3641 537.051 37.935 537.549 38.6752Z" fill="#FFB8B8"/>
<path d="M558.221 41.553C558.177 41.2858 558.192 41.0123 558.264 40.7513C558.336 40.4903 558.463 40.248 558.637 40.0407L564.713 32.801C565.437 31.6211 566.6 30.7769 567.945 30.4537C569.291 30.1304 570.71 30.3544 571.89 31.0766C573.071 31.7987 573.918 32.9601 574.244 34.306C574.571 35.6519 574.351 37.0726 573.633 38.2566L569.905 46.9777C569.799 47.2266 569.64 47.4496 569.44 47.6315C569.239 47.8134 569.002 47.9501 568.745 48.032C568.487 48.114 568.214 48.1393 567.946 48.1064C567.678 48.0735 567.419 47.983 567.189 47.8412L559.092 42.8567C558.862 42.715 558.665 42.5251 558.514 42.3001C558.364 42.0751 558.264 41.8203 558.221 41.553Z" fill="#69CA94"/>
<path d="M563.602 26.5364C566.586 22.6924 568.241 17.981 568.317 13.113C566.912 14.1581 565.322 14.927 563.631 15.3789C561.836 15.8574 559.863 15.9537 558.172 15.1829C555.793 14.0981 554.386 11.3314 554.656 8.7285C554.926 6.12555 556.723 3.80028 559.063 2.63296C561.458 1.51179 564.19 1.34625 566.703 2.17004C568.032 1.03679 569.66 0.311118 571.39 0.0799078C573.121 -0.151302 574.882 0.121748 576.462 0.866376C580.098 2.65274 582.109 6.78945 582.457 10.8287C582.806 14.868 581.769 18.8841 580.741 22.8057L580.625 23.2488C580.305 24.4697 579.375 26.8122 579.375 26.8122C579.375 26.8122 573.973 25.7451 571.827 25.061C568.717 26.1864 563.602 26.5364 563.602 26.5364Z" fill="#AF823D"/>
<path d="M537.854 27.5218L533.453 27.8406C533.342 27.8486 533.233 27.8123 533.149 27.7397C533.065 27.667 533.013 27.564 533.005 27.4533C532.997 27.3425 533.033 27.2331 533.106 27.1491C533.179 27.0652 533.282 27.0135 533.392 27.0055L537.793 26.6867C537.848 26.6826 537.903 26.6894 537.956 26.7066C538.008 26.7239 538.056 26.7513 538.098 26.7873C538.139 26.8232 538.174 26.8671 538.198 26.9163C538.223 26.9655 538.238 27.0191 538.242 27.074C538.246 27.1289 538.239 27.184 538.221 27.2363C538.204 27.2885 538.177 27.3368 538.14 27.3784C538.104 27.42 538.061 27.4541 538.011 27.4787C537.962 27.5033 537.909 27.518 537.854 27.5218Z" fill="#3F3D56"/>
<path d="M538.004 29.6097L533.603 29.9284C533.548 29.9325 533.493 29.9257 533.44 29.9085C533.388 29.8912 533.34 29.8638 533.298 29.8279C533.257 29.7919 533.222 29.7481 533.198 29.6989C533.173 29.6497 533.158 29.5961 533.154 29.5412C533.15 29.4862 533.157 29.4311 533.175 29.3789C533.192 29.3266 533.219 29.2783 533.255 29.2367C533.291 29.1951 533.335 29.161 533.385 29.1364C533.434 29.1118 533.487 29.0972 533.542 29.0933L537.943 28.7745C538.054 28.7665 538.163 28.8028 538.247 28.8755C538.331 28.9481 538.383 29.0511 538.391 29.1619C538.399 29.2726 538.362 29.382 538.29 29.466C538.217 29.55 538.114 29.6016 538.004 29.6097Z" fill="#3F3D56"/>
<path d="M538.155 31.6975L533.754 32.0163C533.643 32.0241 533.534 31.9877 533.45 31.915C533.367 31.8424 533.315 31.7395 533.307 31.6289C533.299 31.5183 533.335 31.4091 533.408 31.3251C533.48 31.2412 533.583 31.1894 533.693 31.1812L538.095 30.8624C538.205 30.8544 538.315 30.8907 538.398 30.9634C538.482 31.036 538.534 31.139 538.542 31.2498C538.55 31.3605 538.514 31.4699 538.441 31.5539C538.369 31.6378 538.266 31.6895 538.155 31.6975Z" fill="#3F3D56"/>
<defs>
<filter id="filter0_b_320_1542" x="283.272" y="96.3529" width="328.632" height="33.5515" filterUnits="userSpaceOnUse" color-interpolation-filters="sRGB">
<feFlood flood-opacity="0" result="BackgroundImageFix"/>
<feGaussianBlur in="BackgroundImage" stdDeviation="6.45221"/>
<feComposite in2="SourceAlpha" operator="in" result="effect1_backgroundBlur_320_1542"/>
<feBlend mode="normal" in="SourceGraphic" in2="effect1_backgroundBlur_320_1542" result="shape"/>
</filter>
</defs>
</svg>
