<svg width="130" height="48" viewBox="0 0 130 48" fill="none" xmlns="http://www.w3.org/2000/svg">
<path d="M41.096 7.2C41.572 7.2 42.0247 7.34467 42.454 7.634C42.8833 7.914 43.2287 8.29667 43.49 8.782C43.7513 9.258 43.882 9.78067 43.882 10.35C43.882 10.91 43.7513 11.4327 43.49 11.918C43.2287 12.4033 42.8833 12.7907 42.454 13.08C42.0247 13.36 41.572 13.5 41.096 13.5H38.66V16.146C38.66 16.398 38.5853 16.6033 38.436 16.762C38.2867 16.9207 38.0907 17 37.848 17C37.6147 17 37.4233 16.9207 37.274 16.762C37.1247 16.594 37.05 16.3887 37.05 16.146V8.054C37.05 7.81133 37.1293 7.61067 37.288 7.452C37.456 7.284 37.6613 7.2 37.904 7.2H41.096ZM41.096 11.904C41.2733 11.904 41.446 11.8293 41.614 11.68C41.7913 11.5307 41.9313 11.3393 42.034 11.106C42.146 10.8633 42.202 10.6113 42.202 10.35C42.202 10.0887 42.146 9.84133 42.034 9.608C41.9313 9.36533 41.7913 9.174 41.614 9.034C41.446 8.88467 41.2733 8.81 41.096 8.81H38.66V11.904H41.096ZM54.5015 12.1C54.5015 13.024 54.2962 13.8733 53.8855 14.648C53.4749 15.4133 52.9055 16.02 52.1775 16.468C51.4589 16.916 50.6469 17.14 49.7415 17.14C48.8362 17.14 48.0195 16.916 47.2915 16.468C46.5729 16.02 46.0082 15.4133 45.5975 14.648C45.1962 13.8733 44.9955 13.024 44.9955 12.1C44.9955 11.176 45.1962 10.3313 45.5975 9.566C46.0082 8.79133 46.5729 8.18 47.2915 7.732C48.0195 7.284 48.8362 7.06 49.7415 7.06C50.6469 7.06 51.4589 7.284 52.1775 7.732C52.9055 8.18 53.4749 8.79133 53.8855 9.566C54.2962 10.3313 54.5015 11.176 54.5015 12.1ZM52.6815 12.1C52.6815 11.4747 52.5555 10.91 52.3035 10.406C52.0515 9.89267 51.7015 9.48667 51.2535 9.188C50.8055 8.88933 50.3015 8.74 49.7415 8.74C49.1722 8.74 48.6635 8.88933 48.2155 9.188C47.7769 9.47733 47.4315 9.87867 47.1795 10.392C46.9369 10.9053 46.8155 11.4747 46.8155 12.1C46.8155 12.7253 46.9369 13.2947 47.1795 13.808C47.4315 14.3213 47.7769 14.7273 48.2155 15.026C48.6635 15.3153 49.1722 15.46 49.7415 15.46C50.3015 15.46 50.8055 15.3107 51.2535 15.012C51.7015 14.7133 52.0515 14.312 52.3035 13.808C52.5555 13.2947 52.6815 12.7253 52.6815 12.1ZM60.1546 7.2C60.6306 7.2 61.0833 7.34467 61.5126 7.634C61.9419 7.914 62.2873 8.29667 62.5486 8.782C62.8099 9.258 62.9406 9.78067 62.9406 10.35C62.9406 10.91 62.8099 11.4327 62.5486 11.918C62.2873 12.4033 61.9419 12.7907 61.5126 13.08C61.0833 13.36 60.6306 13.5 60.1546 13.5H57.7186V16.146C57.7186 16.398 57.6439 16.6033 57.4946 16.762C57.3453 16.9207 57.1493 17 56.9066 17C56.6733 17 56.4819 16.9207 56.3326 16.762C56.1833 16.594 56.1086 16.3887 56.1086 16.146V8.054C56.1086 7.81133 56.1879 7.61067 56.3466 7.452C56.5146 7.284 56.7199 7.2 56.9626 7.2H60.1546ZM60.1546 11.904C60.3319 11.904 60.5046 11.8293 60.6726 11.68C60.8499 11.5307 60.9899 11.3393 61.0926 11.106C61.2046 10.8633 61.2606 10.6113 61.2606 10.35C61.2606 10.0887 61.2046 9.84133 61.0926 9.608C60.9899 9.36533 60.8499 9.174 60.6726 9.034C60.5046 8.88467 60.3319 8.81 60.1546 8.81H57.7186V11.904H60.1546ZM66.2941 16.146C66.2941 16.3887 66.2055 16.594 66.0281 16.762C65.8508 16.9207 65.6455 17 65.4121 17C65.1601 17 64.9501 16.9207 64.7821 16.762C64.6235 16.594 64.5441 16.3887 64.5441 16.146V8.054C64.5441 7.81133 64.6281 7.61067 64.7961 7.452C64.9641 7.284 65.1788 7.2 65.4401 7.2C65.6735 7.2 65.8741 7.284 66.0421 7.452C66.2101 7.61067 66.2941 7.81133 66.2941 8.054V16.146ZM76.0856 15.908C76.1323 16.0293 76.1556 16.1413 76.1556 16.244C76.1556 16.4867 76.0763 16.6873 75.9176 16.846C75.7589 16.9953 75.5769 17.07 75.3716 17.07C75.2036 17.07 75.0496 17.0187 74.9096 16.916C74.7789 16.8133 74.6763 16.6733 74.6016 16.496L73.8736 14.802H69.7016L68.9736 16.51C68.9083 16.6873 68.8056 16.8273 68.6656 16.93C68.5349 17.0233 68.3903 17.07 68.2316 17.07C67.9889 17.07 67.8023 17.0047 67.6716 16.874C67.5503 16.7433 67.4896 16.566 67.4896 16.342C67.4896 16.258 67.5036 16.1693 67.5316 16.076L71.0176 7.704C71.0923 7.51733 71.2043 7.37267 71.3536 7.27C71.5029 7.16733 71.6709 7.12533 71.8576 7.144C72.0256 7.144 72.1796 7.19533 72.3196 7.298C72.4689 7.39133 72.5763 7.52667 72.6416 7.704L76.0856 15.908ZM73.1876 13.192L71.7736 9.916L70.3876 13.192H73.1876ZM40.088 43.548C39.948 43.548 39.822 43.5107 39.71 43.436C38.646 42.7267 37.8293 41.8493 37.26 40.804C36.7 39.7493 36.42 38.606 36.42 37.374C36.42 36.142 36.7 35.0033 37.26 33.958C37.8293 32.9033 38.646 32.0213 39.71 31.312C39.822 31.2373 39.948 31.2 40.088 31.2C40.2933 31.2 40.4613 31.2793 40.592 31.438C40.7227 31.5967 40.788 31.76 40.788 31.928C40.788 32.1427 40.69 32.3293 40.494 32.488C39.7007 33.104 39.1033 33.832 38.702 34.672C38.31 35.512 38.114 36.4127 38.114 37.374C38.114 38.354 38.31 39.2733 38.702 40.132C39.094 40.9813 39.6913 41.6907 40.494 42.26C40.69 42.4 40.788 42.5867 40.788 42.82C40.788 42.9973 40.718 43.1607 40.578 43.31C40.438 43.4687 40.2747 43.548 40.088 43.548ZM45.2039 41.14C44.5319 41.14 43.9346 41.056 43.4119 40.888C42.8892 40.72 42.3992 40.4353 41.9419 40.034C41.6899 39.81 41.5639 39.5627 41.5639 39.292C41.5639 39.0773 41.6432 38.8907 41.8019 38.732C41.9606 38.564 42.1519 38.48 42.3759 38.48C42.5532 38.48 42.7119 38.536 42.8519 38.648C43.2252 38.956 43.5892 39.18 43.9439 39.32C44.2986 39.46 44.7186 39.53 45.2039 39.53C45.7266 39.53 46.1746 39.4133 46.5479 39.18C46.9306 38.9467 47.1219 38.6573 47.1219 38.312C47.1219 37.892 46.9352 37.5653 46.5619 37.332C46.1886 37.0893 45.5959 36.9073 44.7839 36.786C42.7399 36.4873 41.7179 35.5353 41.7179 33.93C41.7179 33.342 41.8719 32.8333 42.1799 32.404C42.4879 31.9653 42.9079 31.634 43.4399 31.41C43.9719 31.1767 44.5646 31.06 45.2179 31.06C45.8059 31.06 46.3566 31.1487 46.8699 31.326C47.3926 31.5033 47.8266 31.7367 48.1719 32.026C48.4426 32.2407 48.5779 32.488 48.5779 32.768C48.5779 32.9827 48.4986 33.174 48.3399 33.342C48.1812 33.5007 47.9946 33.58 47.7799 33.58C47.6399 33.58 47.5139 33.538 47.4019 33.454C47.1592 33.258 46.8186 33.0807 46.3799 32.922C45.9506 32.754 45.5632 32.67 45.2179 32.67C44.6299 32.67 44.1726 32.782 43.8459 33.006C43.5286 33.2207 43.3699 33.5053 43.3699 33.86C43.3699 34.2613 43.5332 34.5647 43.8599 34.77C44.1959 34.9753 44.7186 35.1433 45.4279 35.274C46.2306 35.414 46.8699 35.596 47.3459 35.82C47.8312 36.0347 48.1952 36.3333 48.4379 36.716C48.6806 37.0893 48.8019 37.5887 48.8019 38.214C48.8019 38.802 48.6339 39.32 48.2979 39.768C47.9712 40.2067 47.5326 40.5473 46.9819 40.79C46.4312 41.0233 45.8386 41.14 45.2039 41.14ZM57.4634 37.262C57.4634 38.0087 57.2954 38.6807 56.9594 39.278C56.6234 39.866 56.1614 40.3233 55.5734 40.65C54.9948 40.9767 54.3554 41.14 53.6554 41.14C52.9461 41.14 52.3021 40.9767 51.7234 40.65C51.1448 40.3233 50.6874 39.866 50.3514 39.278C50.0154 38.6807 49.8474 38.0087 49.8474 37.262C49.8474 36.5153 50.0154 35.848 50.3514 35.26C50.6874 34.6627 51.1448 34.2007 51.7234 33.874C52.3021 33.538 52.9461 33.37 53.6554 33.37C54.3554 33.37 54.9948 33.538 55.5734 33.874C56.1614 34.2007 56.6234 34.6627 56.9594 35.26C57.2954 35.848 57.4634 36.5153 57.4634 37.262ZM55.7834 37.262C55.7834 36.8047 55.6854 36.3987 55.4894 36.044C55.3028 35.68 55.0461 35.4 54.7194 35.204C54.4021 35.008 54.0474 34.91 53.6554 34.91C53.2634 34.91 52.9041 35.008 52.5774 35.204C52.2601 35.4 52.0034 35.68 51.8074 36.044C51.6208 36.3987 51.5274 36.8047 51.5274 37.262C51.5274 37.7193 51.6208 38.1253 51.8074 38.48C52.0034 38.8347 52.2601 39.11 52.5774 39.306C52.9041 39.502 53.2634 39.6 53.6554 39.6C54.0474 39.6 54.4021 39.502 54.7194 39.306C55.0461 39.11 55.3028 38.8347 55.4894 38.48C55.6854 38.1253 55.7834 37.7193 55.7834 37.262ZM64.425 33.51C64.6677 33.51 64.8684 33.594 65.027 33.762C65.1857 33.9207 65.265 34.1213 65.265 34.364V37.92C65.265 38.928 64.985 39.7167 64.425 40.286C63.8744 40.8553 63.0857 41.14 62.059 41.14C61.0324 41.14 60.2437 40.8553 59.693 40.286C59.1424 39.7167 58.867 38.928 58.867 37.92V34.364C58.867 34.1213 58.9464 33.9207 59.105 33.762C59.2637 33.594 59.4644 33.51 59.707 33.51C59.9497 33.51 60.1504 33.594 60.309 33.762C60.4677 33.9207 60.547 34.1213 60.547 34.364V37.92C60.547 38.4893 60.673 38.914 60.925 39.194C61.177 39.4647 61.555 39.6 62.059 39.6C62.5724 39.6 62.955 39.4647 63.207 39.194C63.459 38.914 63.585 38.4893 63.585 37.92V34.364C63.585 34.1213 63.6644 33.9207 63.823 33.762C63.9817 33.594 64.1824 33.51 64.425 33.51ZM70.6958 39.418C70.8265 39.418 70.9432 39.4833 71.0458 39.614C71.1578 39.7353 71.2138 39.8987 71.2138 40.104C71.2138 40.356 71.0738 40.5707 70.7938 40.748C70.5232 40.916 70.2152 41 69.8698 41C69.2912 41 68.8012 40.8787 68.3998 40.636C68.0078 40.384 67.8118 39.8567 67.8118 39.054V35.19H67.1678C66.9438 35.19 66.7572 35.1153 66.6078 34.966C66.4585 34.8167 66.3838 34.63 66.3838 34.406C66.3838 34.1913 66.4585 34.014 66.6078 33.874C66.7572 33.7247 66.9438 33.65 67.1678 33.65H67.8118V32.754C67.8118 32.5113 67.8912 32.3107 68.0498 32.152C68.2178 31.984 68.4232 31.9 68.6658 31.9C68.8992 31.9 69.0952 31.984 69.2538 32.152C69.4125 32.3107 69.4918 32.5113 69.4918 32.754V33.65H70.4858C70.7098 33.65 70.8965 33.7247 71.0458 33.874C71.1952 34.0233 71.2698 34.21 71.2698 34.434C71.2698 34.6487 71.1952 34.8307 71.0458 34.98C70.8965 35.12 70.7098 35.19 70.4858 35.19H69.4918V38.984C69.4918 39.18 69.5432 39.3247 69.6458 39.418C69.7485 39.502 69.8885 39.544 70.0658 39.544C70.1405 39.544 70.2432 39.5253 70.3738 39.488C70.4858 39.4413 70.5932 39.418 70.6958 39.418ZM76.7463 33.37C77.6703 33.37 78.3097 33.6547 78.6643 34.224C79.019 34.784 79.1963 35.5633 79.1963 36.562V40.146C79.1963 40.3887 79.117 40.594 78.9583 40.762C78.7997 40.9207 78.599 41 78.3563 41C78.1137 41 77.913 40.9207 77.7543 40.762C77.5957 40.594 77.5163 40.3887 77.5163 40.146V36.562C77.5163 36.0487 77.4137 35.6473 77.2083 35.358C77.0123 35.0593 76.6623 34.91 76.1583 34.91C75.6357 34.91 75.225 35.0687 74.9263 35.386C74.637 35.694 74.4923 36.086 74.4923 36.562V40.146C74.4923 40.3887 74.413 40.594 74.2543 40.762C74.0957 40.9207 73.895 41 73.6523 41C73.4097 41 73.209 40.9207 73.0503 40.762C72.8917 40.594 72.8123 40.3887 72.8123 40.146V31.494C72.8123 31.2513 72.8917 31.0507 73.0503 30.892C73.209 30.724 73.4097 30.64 73.6523 30.64C73.895 30.64 74.0957 30.724 74.2543 30.892C74.413 31.0507 74.4923 31.2513 74.4923 31.494V34.588C74.7443 34.252 75.0617 33.9673 75.4443 33.734C75.8363 33.4913 76.2703 33.37 76.7463 33.37ZM92.7653 39.908C92.812 40.0293 92.8353 40.1413 92.8353 40.244C92.8353 40.4867 92.756 40.6873 92.5973 40.846C92.4386 40.9953 92.2566 41.07 92.0513 41.07C91.8833 41.07 91.7293 41.0187 91.5893 40.916C91.4586 40.8133 91.356 40.6733 91.2813 40.496L90.5533 38.802H86.3813L85.6533 40.51C85.588 40.6873 85.4853 40.8273 85.3453 40.93C85.2146 41.0233 85.07 41.07 84.9113 41.07C84.6686 41.07 84.482 41.0047 84.3513 40.874C84.23 40.7433 84.1693 40.566 84.1693 40.342C84.1693 40.258 84.1833 40.1693 84.2113 40.076L87.6973 31.704C87.772 31.5173 87.884 31.3727 88.0333 31.27C88.1826 31.1673 88.3506 31.1253 88.5373 31.144C88.7053 31.144 88.8593 31.1953 88.9993 31.298C89.1486 31.3913 89.256 31.5267 89.3213 31.704L92.7653 39.908ZM89.8673 37.192L88.4533 33.916L87.0673 37.192H89.8673ZM97.4787 32.124C97.1614 32.124 96.9374 32.2173 96.8067 32.404C96.676 32.5813 96.6107 32.7773 96.6107 32.992V33.65H97.8847C98.1087 33.65 98.2954 33.7247 98.4447 33.874C98.594 34.014 98.6687 34.196 98.6687 34.42C98.6687 34.644 98.594 34.8307 98.4447 34.98C98.2954 35.12 98.1087 35.19 97.8847 35.19H96.6107V40.146C96.6107 40.3887 96.5314 40.594 96.3727 40.762C96.214 40.9207 96.0134 41 95.7707 41C95.528 41 95.3274 40.9207 95.1687 40.762C95.01 40.594 94.9307 40.3887 94.9307 40.146V35.19H94.1747C93.9507 35.19 93.764 35.12 93.6147 34.98C93.4654 34.8307 93.3907 34.644 93.3907 34.42C93.3907 34.196 93.4654 34.014 93.6147 33.874C93.764 33.7247 93.9507 33.65 94.1747 33.65H94.9307V33.006C94.9307 32.306 95.1687 31.7367 95.6447 31.298C96.13 30.8593 96.8254 30.64 97.7307 30.64C98.076 30.64 98.3747 30.71 98.6267 30.85C98.888 30.99 99.0187 31.2047 99.0187 31.494C99.0187 31.718 98.9534 31.9 98.8227 32.04C98.692 32.18 98.5334 32.25 98.3467 32.25C98.3 32.25 98.2487 32.2453 98.1927 32.236C98.146 32.2267 98.0947 32.2173 98.0387 32.208C97.8147 32.152 97.628 32.124 97.4787 32.124ZM103.611 33.37C103.891 33.37 104.124 33.4493 104.311 33.608C104.507 33.7667 104.605 33.9533 104.605 34.168C104.605 34.4573 104.53 34.6767 104.381 34.826C104.231 34.966 104.054 35.036 103.849 35.036C103.709 35.036 103.55 35.0033 103.373 34.938C103.345 34.9287 103.279 34.91 103.177 34.882C103.083 34.854 102.981 34.84 102.869 34.84C102.626 34.84 102.393 34.9147 102.169 35.064C101.945 35.2133 101.758 35.442 101.609 35.75C101.469 36.0487 101.399 36.408 101.399 36.828V40.146C101.399 40.3887 101.319 40.594 101.161 40.762C101.002 40.9207 100.801 41 100.559 41C100.316 41 100.115 40.9207 99.9566 40.762C99.7979 40.594 99.7186 40.3887 99.7186 40.146V34.364C99.7186 34.1213 99.7979 33.9207 99.9566 33.762C100.115 33.594 100.316 33.51 100.559 33.51C100.801 33.51 101.002 33.594 101.161 33.762C101.319 33.9207 101.399 34.1213 101.399 34.364V34.546C101.613 34.1633 101.921 33.874 102.323 33.678C102.724 33.4727 103.153 33.37 103.611 33.37ZM107.371 40.146C107.371 40.3887 107.292 40.594 107.133 40.762C106.974 40.9207 106.774 41 106.531 41C106.288 41 106.088 40.9207 105.929 40.762C105.77 40.594 105.691 40.3887 105.691 40.146V34.364C105.691 34.1213 105.77 33.9207 105.929 33.762C106.088 33.594 106.288 33.51 106.531 33.51C106.774 33.51 106.974 33.594 107.133 33.762C107.292 33.9207 107.371 34.1213 107.371 34.364V40.146ZM106.517 32.6C106.2 32.6 105.976 32.5487 105.845 32.446C105.714 32.3433 105.649 32.1613 105.649 31.9V31.634C105.649 31.3727 105.719 31.1907 105.859 31.088C105.999 30.9853 106.223 30.934 106.531 30.934C106.858 30.934 107.086 30.9853 107.217 31.088C107.348 31.1907 107.413 31.3727 107.413 31.634V31.9C107.413 32.1707 107.343 32.3573 107.203 32.46C107.072 32.5533 106.844 32.6 106.517 32.6ZM112.36 33.37C113.153 33.37 113.792 33.496 114.278 33.748C114.763 33.9907 115.006 34.3173 115.006 34.728C115.006 34.9333 114.945 35.1153 114.824 35.274C114.702 35.4233 114.544 35.498 114.348 35.498C114.198 35.498 114.077 35.4793 113.984 35.442C113.89 35.3953 113.797 35.3393 113.704 35.274C113.62 35.1993 113.536 35.1387 113.452 35.092C113.358 35.0453 113.218 35.0033 113.032 34.966C112.854 34.9287 112.71 34.91 112.598 34.91C111.898 34.91 111.347 35.1293 110.946 35.568C110.554 35.9973 110.358 36.562 110.358 37.262C110.358 37.934 110.558 38.494 110.96 38.942C111.361 39.3807 111.874 39.6 112.5 39.6C112.957 39.6 113.298 39.544 113.522 39.432C113.578 39.404 113.652 39.3573 113.746 39.292C113.848 39.2173 113.942 39.1613 114.026 39.124C114.11 39.0867 114.212 39.068 114.334 39.068C114.567 39.068 114.749 39.1427 114.88 39.292C115.02 39.4413 115.09 39.6327 115.09 39.866C115.09 40.09 114.959 40.3 114.698 40.496C114.436 40.692 114.091 40.8507 113.662 40.972C113.232 41.084 112.775 41.14 112.29 41.14C111.571 41.14 110.936 40.972 110.386 40.636C109.844 40.3 109.424 39.838 109.126 39.25C108.827 38.6527 108.678 37.99 108.678 37.262C108.678 36.506 108.832 35.834 109.14 35.246C109.457 34.658 109.896 34.2007 110.456 33.874C111.016 33.538 111.65 33.37 112.36 33.37ZM122.365 33.37C122.607 33.37 122.808 33.4493 122.967 33.608C123.125 33.7667 123.205 33.972 123.205 34.224V40.146C123.205 40.3887 123.125 40.594 122.967 40.762C122.808 40.9207 122.607 41 122.365 41C122.122 41 121.921 40.9207 121.763 40.762C121.613 40.6033 121.534 40.4027 121.525 40.16C121.291 40.4307 120.974 40.664 120.573 40.86C120.181 41.0467 119.765 41.14 119.327 41.14C118.683 41.14 118.099 40.9767 117.577 40.65C117.054 40.314 116.639 39.852 116.331 39.264C116.032 38.676 115.883 38.0087 115.883 37.262C115.883 36.5153 116.032 35.848 116.331 35.26C116.629 34.6627 117.035 34.2007 117.549 33.874C118.071 33.538 118.645 33.37 119.271 33.37C119.719 33.37 120.139 33.454 120.531 33.622C120.923 33.7807 121.254 33.986 121.525 34.238V34.224C121.525 33.9813 121.604 33.7807 121.763 33.622C121.921 33.454 122.122 33.37 122.365 33.37ZM119.537 39.6C120.143 39.6 120.638 39.3807 121.021 38.942C121.403 38.494 121.595 37.934 121.595 37.262C121.595 36.59 121.403 36.03 121.021 35.582C120.638 35.134 120.143 34.91 119.537 34.91C118.939 34.91 118.449 35.134 118.067 35.582C117.684 36.03 117.493 36.59 117.493 37.262C117.493 37.934 117.679 38.494 118.053 38.942C118.435 39.3807 118.93 39.6 119.537 39.6ZM125.025 43.548C124.82 43.548 124.652 43.4687 124.521 43.31C124.391 43.1513 124.325 42.988 124.325 42.82C124.325 42.6053 124.423 42.4187 124.619 42.26C125.413 41.644 126.005 40.916 126.397 40.076C126.799 39.236 126.999 38.3353 126.999 37.374C126.999 36.394 126.803 35.4793 126.411 34.63C126.019 33.7713 125.422 33.0573 124.619 32.488C124.423 32.348 124.325 32.1613 124.325 31.928C124.325 31.7507 124.395 31.5873 124.535 31.438C124.675 31.2793 124.839 31.2 125.025 31.2C125.165 31.2 125.291 31.2373 125.403 31.312C126.467 32.0213 127.279 32.9033 127.839 33.958C128.409 35.0033 128.693 36.142 128.693 37.374C128.693 38.606 128.409 39.7493 127.839 40.804C127.279 41.8493 126.467 42.7267 125.403 43.436C125.291 43.5107 125.165 43.548 125.025 43.548Z" fill="#5B588F"/>
<g clip-path="url(#clip0_313_1536)">
<path d="M12 36C18.6274 36 24 30.6274 24 24C24 17.3726 18.6274 12 12 12C5.37258 12 0 17.3726 0 24C0 30.6274 5.37258 36 12 36Z" fill="#F0F0F0"/>
<path d="M3.51471 32.4853C-1.17157 27.7989 -1.17157 20.201 3.51471 15.5146C3.51438 15.5152 10.4348 24 10.4348 24L3.51471 32.4853Z" fill="black"/>
<path d="M10.4347 24L1.5915 18.024C1.31733 18.5006 1.07555 18.9981 0.867798 19.5129L5.34478 24L0.867938 28.4874C1.0755 29.0019 1.31705 29.499 1.59103 29.9753L10.4347 24Z" fill="#FFDA44"/>
<path d="M23.8984 22.4348H10.4345L3.51458 15.5149C2.76889 16.2606 2.12103 17.1039 1.59153 18.0241L7.55586 24L1.59106 29.9752C2.12056 30.8956 2.76871 31.7392 3.51458 32.4851L10.4345 25.5652H23.8984C23.9651 25.0529 24 24.5305 24 24C24 23.4695 23.9651 22.9472 23.8984 22.4348Z" fill="#6DA544"/>
<path d="M4.69397 33.5193C6.71752 35.0747 9.2505 36 12 36C17.5443 36 22.2096 32.2397 23.5866 27.1305H11.0828L4.69397 33.5193Z" fill="#0052B4"/>
<path d="M23.5866 20.8695C22.2096 15.7604 17.5443 12 12 12C9.2505 12 6.71752 12.9254 4.69397 14.4808L11.0828 20.8695H23.5866Z" fill="#D80027"/>
</g>
<defs>
<clipPath id="clip0_313_1536">
<rect width="24" height="24" fill="white" transform="translate(0 12)"/>
</clipPath>
</defs>
</svg>
