<svg width="171" height="48" viewBox="0 0 171 48" fill="none" xmlns="http://www.w3.org/2000/svg">
<path d="M38.8 8.81V11.274H41.824C42.0667 11.274 42.2673 11.3533 42.426 11.512C42.594 11.6613 42.678 11.8573 42.678 12.1C42.678 12.3053 42.594 12.4873 42.426 12.646C42.2673 12.8047 42.0667 12.884 41.824 12.884H38.8V16.146C38.8 16.3887 38.7113 16.594 38.534 16.762C38.366 16.9207 38.1653 17 37.932 17C37.6707 17 37.456 16.9207 37.288 16.762C37.1293 16.6033 37.05 16.398 37.05 16.146V8.054C37.05 7.81133 37.1293 7.61067 37.288 7.452C37.456 7.284 37.6613 7.2 37.904 7.2H42.454C42.6967 7.2 42.8973 7.27933 43.056 7.438C43.224 7.58733 43.308 7.78333 43.308 8.026C43.308 8.23133 43.224 8.41333 43.056 8.572C42.8973 8.73067 42.6967 8.81 42.454 8.81H38.8ZM51.2863 13.08C51.2769 13.304 51.1883 13.486 51.0203 13.626C50.8523 13.766 50.6563 13.836 50.4323 13.836H45.8123C45.9243 14.3867 46.1809 14.8207 46.5823 15.138C46.9836 15.446 47.4363 15.6 47.9403 15.6C48.3229 15.6 48.6216 15.5673 48.8363 15.502C49.0509 15.4273 49.2189 15.3527 49.3403 15.278C49.4709 15.194 49.5596 15.138 49.6063 15.11C49.7743 15.026 49.9329 14.984 50.0823 14.984C50.2783 14.984 50.4463 15.054 50.5863 15.194C50.7263 15.334 50.7963 15.4973 50.7963 15.684C50.7963 15.936 50.6656 16.1647 50.4043 16.37C50.1429 16.5847 49.7929 16.7667 49.3543 16.916C48.9156 17.0653 48.4723 17.14 48.0243 17.14C47.2403 17.14 46.5543 16.9767 45.9663 16.65C45.3876 16.3233 44.9396 15.8753 44.6223 15.306C44.3049 14.7273 44.1463 14.0787 44.1463 13.36C44.1463 12.5573 44.3143 11.8527 44.6503 11.246C44.9863 10.6393 45.4296 10.1773 45.9803 9.86C46.5309 9.53333 47.1189 9.37 47.7443 9.37C48.3603 9.37 48.9389 9.538 49.4803 9.874C50.0309 10.21 50.4696 10.6627 50.7963 11.232C51.1229 11.8013 51.2863 12.4173 51.2863 13.08ZM47.7443 10.91C46.6616 10.91 46.0223 11.4187 45.8263 12.436H49.4943V12.338C49.4569 11.946 49.2656 11.61 48.9203 11.33C48.5749 11.05 48.1829 10.91 47.7443 10.91ZM58.7493 6.64C58.992 6.64 59.1927 6.71933 59.3513 6.878C59.51 7.03667 59.5893 7.242 59.5893 7.494V16.146C59.5893 16.3887 59.51 16.594 59.3513 16.762C59.1927 16.9207 58.992 17 58.7493 17C58.5067 17 58.306 16.9207 58.1473 16.762C57.998 16.6033 57.9187 16.4027 57.9093 16.16C57.676 16.4307 57.3587 16.664 56.9573 16.86C56.5653 17.0467 56.15 17.14 55.7113 17.14C55.0673 17.14 54.484 16.9767 53.9613 16.65C53.4387 16.314 53.0233 15.852 52.7153 15.264C52.4167 14.676 52.2673 14.0087 52.2673 13.262C52.2673 12.5153 52.4167 11.848 52.7153 11.26C53.014 10.6627 53.42 10.2007 53.9333 9.874C54.456 9.538 55.03 9.37 55.6553 9.37C56.1033 9.37 56.5233 9.454 56.9153 9.622C57.3073 9.78067 57.6387 9.986 57.9093 10.238V7.494C57.9093 7.25133 57.9887 7.05067 58.1473 6.892C58.306 6.724 58.5067 6.64 58.7493 6.64ZM55.9213 15.6C56.528 15.6 57.0227 15.3807 57.4053 14.942C57.788 14.494 57.9793 13.934 57.9793 13.262C57.9793 12.59 57.788 12.03 57.4053 11.582C57.0227 11.134 56.528 10.91 55.9213 10.91C55.324 10.91 54.834 11.134 54.4513 11.582C54.0687 12.03 53.8773 12.59 53.8773 13.262C53.8773 13.934 54.064 14.494 54.4373 14.942C54.82 15.3807 55.3147 15.6 55.9213 15.6ZM68.13 13.08C68.1207 13.304 68.032 13.486 67.864 13.626C67.696 13.766 67.5 13.836 67.276 13.836H62.656C62.768 14.3867 63.0247 14.8207 63.426 15.138C63.8273 15.446 64.28 15.6 64.784 15.6C65.1667 15.6 65.4653 15.5673 65.68 15.502C65.8947 15.4273 66.0627 15.3527 66.184 15.278C66.3147 15.194 66.4033 15.138 66.45 15.11C66.618 15.026 66.7767 14.984 66.926 14.984C67.122 14.984 67.29 15.054 67.43 15.194C67.57 15.334 67.64 15.4973 67.64 15.684C67.64 15.936 67.5093 16.1647 67.248 16.37C66.9867 16.5847 66.6367 16.7667 66.198 16.916C65.7593 17.0653 65.316 17.14 64.868 17.14C64.084 17.14 63.398 16.9767 62.81 16.65C62.2313 16.3233 61.7833 15.8753 61.466 15.306C61.1487 14.7273 60.99 14.0787 60.99 13.36C60.99 12.5573 61.158 11.8527 61.494 11.246C61.83 10.6393 62.2733 10.1773 62.824 9.86C63.3747 9.53333 63.9627 9.37 64.588 9.37C65.204 9.37 65.7827 9.538 66.324 9.874C66.8747 10.21 67.3133 10.6627 67.64 11.232C67.9667 11.8013 68.13 12.4173 68.13 13.08ZM64.588 10.91C63.5053 10.91 62.866 11.4187 62.67 12.436H66.338V12.338C66.3007 11.946 66.1093 11.61 65.764 11.33C65.4187 11.05 65.0267 10.91 64.588 10.91ZM73.4231 9.37C73.7031 9.37 73.9364 9.44933 74.1231 9.608C74.3191 9.76667 74.4171 9.95333 74.4171 10.168C74.4171 10.4573 74.3424 10.6767 74.1931 10.826C74.0438 10.966 73.8664 11.036 73.6611 11.036C73.5211 11.036 73.3624 11.0033 73.1851 10.938C73.1571 10.9287 73.0918 10.91 72.9891 10.882C72.8958 10.854 72.7931 10.84 72.6811 10.84C72.4384 10.84 72.2051 10.9147 71.9811 11.064C71.7571 11.2133 71.5704 11.442 71.4211 11.75C71.2811 12.0487 71.2111 12.408 71.2111 12.828V16.146C71.2111 16.3887 71.1318 16.594 70.9731 16.762C70.8144 16.9207 70.6138 17 70.3711 17C70.1284 17 69.9278 16.9207 69.7691 16.762C69.6104 16.594 69.5311 16.3887 69.5311 16.146V10.364C69.5311 10.1213 69.6104 9.92067 69.7691 9.762C69.9278 9.594 70.1284 9.51 70.3711 9.51C70.6138 9.51 70.8144 9.594 70.9731 9.762C71.1318 9.92067 71.2111 10.1213 71.2111 10.364V10.546C71.4258 10.1633 71.7338 9.874 72.1351 9.678C72.5364 9.47267 72.9658 9.37 73.4231 9.37ZM81.4993 9.37C81.742 9.37 81.9427 9.44933 82.1013 9.608C82.26 9.76667 82.3393 9.972 82.3393 10.224V16.146C82.3393 16.3887 82.26 16.594 82.1013 16.762C81.9427 16.9207 81.742 17 81.4993 17C81.2567 17 81.056 16.9207 80.8973 16.762C80.748 16.6033 80.6687 16.4027 80.6593 16.16C80.426 16.4307 80.1087 16.664 79.7073 16.86C79.3153 17.0467 78.9 17.14 78.4613 17.14C77.8173 17.14 77.234 16.9767 76.7113 16.65C76.1887 16.314 75.7733 15.852 75.4653 15.264C75.1667 14.676 75.0173 14.0087 75.0173 13.262C75.0173 12.5153 75.1667 11.848 75.4653 11.26C75.764 10.6627 76.17 10.2007 76.6833 9.874C77.206 9.538 77.78 9.37 78.4053 9.37C78.8533 9.37 79.2733 9.454 79.6653 9.622C80.0573 9.78067 80.3887 9.986 80.6593 10.238V10.224C80.6593 9.98133 80.7387 9.78067 80.8973 9.622C81.056 9.454 81.2567 9.37 81.4993 9.37ZM78.6713 15.6C79.278 15.6 79.7727 15.3807 80.1553 14.942C80.538 14.494 80.7293 13.934 80.7293 13.262C80.7293 12.59 80.538 12.03 80.1553 11.582C79.7727 11.134 79.278 10.91 78.6713 10.91C78.074 10.91 77.584 11.134 77.2013 11.582C76.8187 12.03 76.6273 12.59 76.6273 13.262C76.6273 13.934 76.814 14.494 77.1873 14.942C77.57 15.3807 78.0647 15.6 78.6713 15.6ZM85.98 16.146C85.98 16.3887 85.896 16.594 85.728 16.762C85.5693 16.9207 85.3687 17 85.126 17C84.8927 17 84.6967 16.9207 84.538 16.762C84.3793 16.594 84.3 16.3887 84.3 16.146V7.494C84.3 7.25133 84.3793 7.05067 84.538 6.892C84.706 6.724 84.9113 6.64 85.154 6.64C85.3873 6.64 85.5833 6.724 85.742 6.892C85.9007 7.05067 85.98 7.25133 85.98 7.494V16.146ZM99.6833 15.908C99.7299 16.0293 99.7533 16.1413 99.7533 16.244C99.7533 16.4867 99.6739 16.6873 99.5153 16.846C99.3566 16.9953 99.1746 17.07 98.9693 17.07C98.8013 17.07 98.6473 17.0187 98.5073 16.916C98.3766 16.8133 98.2739 16.6733 98.1993 16.496L97.4713 14.802H93.2993L92.5713 16.51C92.5059 16.6873 92.4033 16.8273 92.2633 16.93C92.1326 17.0233 91.9879 17.07 91.8293 17.07C91.5866 17.07 91.3999 17.0047 91.2693 16.874C91.1479 16.7433 91.0873 16.566 91.0873 16.342C91.0873 16.258 91.1013 16.1693 91.1293 16.076L94.6153 7.704C94.6899 7.51733 94.8019 7.37267 94.9513 7.27C95.1006 7.16733 95.2686 7.12533 95.4553 7.144C95.6233 7.144 95.7773 7.19533 95.9173 7.298C96.0666 7.39133 96.1739 7.52667 96.2393 7.704L99.6833 15.908ZM96.7853 13.192L95.3713 9.916L93.9853 13.192H96.7853ZM104.061 9.37C104.854 9.37 105.493 9.496 105.979 9.748C106.464 9.99067 106.707 10.3173 106.707 10.728C106.707 10.9333 106.646 11.1153 106.525 11.274C106.403 11.4233 106.245 11.498 106.049 11.498C105.899 11.498 105.778 11.4793 105.685 11.442C105.591 11.3953 105.498 11.3393 105.405 11.274C105.321 11.1993 105.237 11.1387 105.153 11.092C105.059 11.0453 104.919 11.0033 104.733 10.966C104.555 10.9287 104.411 10.91 104.299 10.91C103.599 10.91 103.048 11.1293 102.647 11.568C102.255 11.9973 102.059 12.562 102.059 13.262C102.059 13.934 102.259 14.494 102.661 14.942C103.062 15.3807 103.575 15.6 104.201 15.6C104.658 15.6 104.999 15.544 105.223 15.432C105.279 15.404 105.353 15.3573 105.447 15.292C105.549 15.2173 105.643 15.1613 105.727 15.124C105.811 15.0867 105.913 15.068 106.035 15.068C106.268 15.068 106.45 15.1427 106.581 15.292C106.721 15.4413 106.791 15.6327 106.791 15.866C106.791 16.09 106.66 16.3 106.399 16.496C106.137 16.692 105.792 16.8507 105.363 16.972C104.933 17.084 104.476 17.14 103.991 17.14C103.272 17.14 102.637 16.972 102.087 16.636C101.545 16.3 101.125 15.838 100.827 15.25C100.528 14.6527 100.379 13.99 100.379 13.262C100.379 12.506 100.533 11.834 100.841 11.246C101.158 10.658 101.597 10.2007 102.157 9.874C102.717 9.538 103.351 9.37 104.061 9.37ZM111.616 15.418C111.746 15.418 111.863 15.4833 111.966 15.614C112.078 15.7353 112.134 15.8987 112.134 16.104C112.134 16.356 111.994 16.5707 111.714 16.748C111.443 16.916 111.135 17 110.79 17C110.211 17 109.721 16.8787 109.32 16.636C108.928 16.384 108.732 15.8567 108.732 15.054V11.19H108.088C107.864 11.19 107.677 11.1153 107.528 10.966C107.378 10.8167 107.304 10.63 107.304 10.406C107.304 10.1913 107.378 10.014 107.528 9.874C107.677 9.72467 107.864 9.65 108.088 9.65H108.732V8.754C108.732 8.51133 108.811 8.31067 108.97 8.152C109.138 7.984 109.343 7.9 109.586 7.9C109.819 7.9 110.015 7.984 110.174 8.152C110.332 8.31067 110.412 8.51133 110.412 8.754V9.65H111.406C111.63 9.65 111.816 9.72467 111.966 9.874C112.115 10.0233 112.19 10.21 112.19 10.434C112.19 10.6487 112.115 10.8307 111.966 10.98C111.816 11.12 111.63 11.19 111.406 11.19H110.412V14.984C110.412 15.18 110.463 15.3247 110.566 15.418C110.668 15.502 110.808 15.544 110.986 15.544C111.06 15.544 111.163 15.5253 111.294 15.488C111.406 15.4413 111.513 15.418 111.616 15.418ZM124.852 13.262C124.852 14.0087 124.684 14.6807 124.348 15.278C124.012 15.866 123.55 16.3233 122.962 16.65C122.383 16.9767 121.744 17.14 121.044 17.14C120.335 17.14 119.691 16.9767 119.112 16.65C118.533 16.3233 118.076 15.866 117.74 15.278C117.404 14.6807 117.236 14.0087 117.236 13.262C117.236 12.5153 117.404 11.848 117.74 11.26C118.076 10.6627 118.533 10.2007 119.112 9.874C119.691 9.538 120.335 9.37 121.044 9.37C121.744 9.37 122.383 9.538 122.962 9.874C123.55 10.2007 124.012 10.6627 124.348 11.26C124.684 11.848 124.852 12.5153 124.852 13.262ZM123.172 13.262C123.172 12.8047 123.074 12.3987 122.878 12.044C122.691 11.68 122.435 11.4 122.108 11.204C121.791 11.008 121.436 10.91 121.044 10.91C120.652 10.91 120.293 11.008 119.966 11.204C119.649 11.4 119.392 11.68 119.196 12.044C119.009 12.3987 118.916 12.8047 118.916 13.262C118.916 13.7193 119.009 14.1253 119.196 14.48C119.392 14.8347 119.649 15.11 119.966 15.306C120.293 15.502 120.652 15.6 121.044 15.6C121.436 15.6 121.791 15.502 122.108 15.306C122.435 15.11 122.691 14.8347 122.878 14.48C123.074 14.1253 123.172 13.7193 123.172 13.262ZM130.26 9.37C131.212 9.37 131.87 9.65467 132.234 10.224C132.598 10.784 132.78 11.5633 132.78 12.562V16.146C132.78 16.3887 132.7 16.594 132.542 16.762C132.383 16.9207 132.182 17 131.94 17C131.697 17 131.496 16.9207 131.338 16.762C131.179 16.594 131.1 16.3887 131.1 16.146V12.562C131.1 12.0487 130.992 11.6473 130.778 11.358C130.563 11.0593 130.194 10.91 129.672 10.91C129.13 10.91 128.706 11.0687 128.398 11.386C128.09 11.694 127.936 12.086 127.936 12.562V16.146C127.936 16.3887 127.856 16.594 127.698 16.762C127.539 16.9207 127.338 17 127.096 17C126.853 17 126.652 16.9207 126.494 16.762C126.335 16.594 126.256 16.3887 126.256 16.146V10.364C126.256 10.1213 126.335 9.92067 126.494 9.762C126.652 9.594 126.853 9.51 127.096 9.51C127.338 9.51 127.539 9.594 127.698 9.762C127.856 9.92067 127.936 10.1213 127.936 10.364V10.602C128.188 10.266 128.514 9.97667 128.916 9.734C129.326 9.49133 129.774 9.37 130.26 9.37ZM142.859 7.2C143.737 7.2 144.488 7.41933 145.113 7.858C145.748 8.28733 146.229 8.87533 146.555 9.622C146.891 10.3593 147.059 11.1853 147.059 12.1C147.059 13.0147 146.891 13.8453 146.555 14.592C146.229 15.3293 145.748 15.9173 145.113 16.356C144.488 16.7853 143.737 17 142.859 17H139.513C139.271 17 139.065 16.9207 138.897 16.762C138.739 16.594 138.659 16.3887 138.659 16.146V8.054C138.659 7.81133 138.739 7.61067 138.897 7.452C139.065 7.284 139.271 7.2 139.513 7.2H142.859ZM142.719 15.39C143.559 15.39 144.189 15.082 144.609 14.466C145.029 13.8407 145.239 13.052 145.239 12.1C145.239 11.148 145.025 10.364 144.595 9.748C144.175 9.12267 143.55 8.81 142.719 8.81H140.409V15.39H142.719ZM154.589 9.37C154.832 9.37 155.033 9.44933 155.191 9.608C155.35 9.76667 155.429 9.972 155.429 10.224V16.146C155.429 16.3887 155.35 16.594 155.191 16.762C155.033 16.9207 154.832 17 154.589 17C154.347 17 154.146 16.9207 153.987 16.762C153.838 16.6033 153.759 16.4027 153.749 16.16C153.516 16.4307 153.199 16.664 152.797 16.86C152.405 17.0467 151.99 17.14 151.551 17.14C150.907 17.14 150.324 16.9767 149.801 16.65C149.279 16.314 148.863 15.852 148.555 15.264C148.257 14.676 148.107 14.0087 148.107 13.262C148.107 12.5153 148.257 11.848 148.555 11.26C148.854 10.6627 149.26 10.2007 149.773 9.874C150.296 9.538 150.87 9.37 151.495 9.37C151.943 9.37 152.363 9.454 152.755 9.622C153.147 9.78067 153.479 9.986 153.749 10.238V10.224C153.749 9.98133 153.829 9.78067 153.987 9.622C154.146 9.454 154.347 9.37 154.589 9.37ZM151.761 15.6C152.368 15.6 152.863 15.3807 153.245 14.942C153.628 14.494 153.819 13.934 153.819 13.262C153.819 12.59 153.628 12.03 153.245 11.582C152.863 11.134 152.368 10.91 151.761 10.91C151.164 10.91 150.674 11.134 150.291 11.582C149.909 12.03 149.717 12.59 149.717 13.262C149.717 13.934 149.904 14.494 150.277 14.942C150.66 15.3807 151.155 15.6 151.761 15.6ZM160.862 15.418C160.993 15.418 161.109 15.4833 161.212 15.614C161.324 15.7353 161.38 15.8987 161.38 16.104C161.38 16.356 161.24 16.5707 160.96 16.748C160.689 16.916 160.381 17 160.036 17C159.457 17 158.967 16.8787 158.566 16.636C158.174 16.384 157.978 15.8567 157.978 15.054V11.19H157.334C157.11 11.19 156.923 11.1153 156.774 10.966C156.625 10.8167 156.55 10.63 156.55 10.406C156.55 10.1913 156.625 10.014 156.774 9.874C156.923 9.72467 157.11 9.65 157.334 9.65H157.978V8.754C157.978 8.51133 158.057 8.31067 158.216 8.152C158.384 7.984 158.589 7.9 158.832 7.9C159.065 7.9 159.261 7.984 159.42 8.152C159.579 8.31067 159.658 8.51133 159.658 8.754V9.65H160.652C160.876 9.65 161.063 9.72467 161.212 9.874C161.361 10.0233 161.436 10.21 161.436 10.434C161.436 10.6487 161.361 10.8307 161.212 10.98C161.063 11.12 160.876 11.19 160.652 11.19H159.658V14.984C159.658 15.18 159.709 15.3247 159.812 15.418C159.915 15.502 160.055 15.544 160.232 15.544C160.307 15.544 160.409 15.5253 160.54 15.488C160.652 15.4413 160.759 15.418 160.862 15.418ZM169.04 9.37C169.283 9.37 169.484 9.44933 169.642 9.608C169.801 9.76667 169.88 9.972 169.88 10.224V16.146C169.88 16.3887 169.801 16.594 169.642 16.762C169.484 16.9207 169.283 17 169.04 17C168.798 17 168.597 16.9207 168.438 16.762C168.289 16.6033 168.21 16.4027 168.2 16.16C167.967 16.4307 167.65 16.664 167.248 16.86C166.856 17.0467 166.441 17.14 166.002 17.14C165.358 17.14 164.775 16.9767 164.252 16.65C163.73 16.314 163.314 15.852 163.006 15.264C162.708 14.676 162.558 14.0087 162.558 13.262C162.558 12.5153 162.708 11.848 163.006 11.26C163.305 10.6627 163.711 10.2007 164.224 9.874C164.747 9.538 165.321 9.37 165.946 9.37C166.394 9.37 166.814 9.454 167.206 9.622C167.598 9.78067 167.93 9.986 168.2 10.238V10.224C168.2 9.98133 168.28 9.78067 168.438 9.622C168.597 9.454 168.798 9.37 169.04 9.37ZM166.212 15.6C166.819 15.6 167.314 15.3807 167.696 14.942C168.079 14.494 168.27 13.934 168.27 13.262C168.27 12.59 168.079 12.03 167.696 11.582C167.314 11.134 166.819 10.91 166.212 10.91C165.615 10.91 165.125 11.134 164.742 11.582C164.36 12.03 164.168 12.59 164.168 13.262C164.168 13.934 164.355 14.494 164.728 14.942C165.111 15.3807 165.606 15.6 166.212 15.6ZM40.088 43.548C39.948 43.548 39.822 43.5107 39.71 43.436C38.646 42.7267 37.8293 41.8493 37.26 40.804C36.7 39.7493 36.42 38.606 36.42 37.374C36.42 36.142 36.7 35.0033 37.26 33.958C37.8293 32.9033 38.646 32.0213 39.71 31.312C39.822 31.2373 39.948 31.2 40.088 31.2C40.2933 31.2 40.4613 31.2793 40.592 31.438C40.7227 31.5967 40.788 31.76 40.788 31.928C40.788 32.1427 40.69 32.3293 40.494 32.488C39.7007 33.104 39.1033 33.832 38.702 34.672C38.31 35.512 38.114 36.4127 38.114 37.374C38.114 38.354 38.31 39.2733 38.702 40.132C39.094 40.9813 39.6913 41.6907 40.494 42.26C40.69 42.4 40.788 42.5867 40.788 42.82C40.788 42.9973 40.718 43.1607 40.578 43.31C40.438 43.4687 40.2747 43.548 40.088 43.548ZM45.2039 41.14C44.5319 41.14 43.9346 41.056 43.4119 40.888C42.8892 40.72 42.3992 40.4353 41.9419 40.034C41.6899 39.81 41.5639 39.5627 41.5639 39.292C41.5639 39.0773 41.6432 38.8907 41.8019 38.732C41.9606 38.564 42.1519 38.48 42.3759 38.48C42.5532 38.48 42.7119 38.536 42.8519 38.648C43.2252 38.956 43.5892 39.18 43.9439 39.32C44.2986 39.46 44.7186 39.53 45.2039 39.53C45.7266 39.53 46.1746 39.4133 46.5479 39.18C46.9306 38.9467 47.1219 38.6573 47.1219 38.312C47.1219 37.892 46.9352 37.5653 46.5619 37.332C46.1886 37.0893 45.5959 36.9073 44.7839 36.786C42.7399 36.4873 41.7179 35.5353 41.7179 33.93C41.7179 33.342 41.8719 32.8333 42.1799 32.404C42.4879 31.9653 42.9079 31.634 43.4399 31.41C43.9719 31.1767 44.5646 31.06 45.2179 31.06C45.8059 31.06 46.3566 31.1487 46.8699 31.326C47.3926 31.5033 47.8266 31.7367 48.1719 32.026C48.4426 32.2407 48.5779 32.488 48.5779 32.768C48.5779 32.9827 48.4986 33.174 48.3399 33.342C48.1812 33.5007 47.9946 33.58 47.7799 33.58C47.6399 33.58 47.5139 33.538 47.4019 33.454C47.1592 33.258 46.8186 33.0807 46.3799 32.922C45.9506 32.754 45.5632 32.67 45.2179 32.67C44.6299 32.67 44.1726 32.782 43.8459 33.006C43.5286 33.2207 43.3699 33.5053 43.3699 33.86C43.3699 34.2613 43.5332 34.5647 43.8599 34.77C44.1959 34.9753 44.7186 35.1433 45.4279 35.274C46.2306 35.414 46.8699 35.596 47.3459 35.82C47.8312 36.0347 48.1952 36.3333 48.4379 36.716C48.6806 37.0893 48.8019 37.5887 48.8019 38.214C48.8019 38.802 48.6339 39.32 48.2979 39.768C47.9712 40.2067 47.5326 40.5473 46.9819 40.79C46.4312 41.0233 45.8386 41.14 45.2039 41.14ZM58.8914 33.51C59.1154 33.51 59.3021 33.594 59.4514 33.762C59.6101 33.9207 59.6894 34.126 59.6894 34.378C59.6894 34.462 59.6708 34.5693 59.6334 34.7L57.4914 40.468C57.4354 40.636 57.3328 40.7713 57.1834 40.874C57.0434 40.9673 56.8894 41.014 56.7214 41.014L56.6094 41C56.2921 40.9813 56.0541 40.804 55.8954 40.468L54.7054 37.024L53.5714 40.468C53.4128 40.804 53.1748 40.9813 52.8574 41L52.7454 41.014C52.5774 41.014 52.4188 40.9673 52.2694 40.874C52.1294 40.7713 52.0314 40.636 51.9754 40.468L49.8334 34.7C49.7961 34.5973 49.7774 34.49 49.7774 34.378C49.7774 34.1447 49.8521 33.944 50.0014 33.776C50.1601 33.5987 50.3654 33.51 50.6174 33.51C50.8041 33.51 50.9628 33.5567 51.0934 33.65C51.2334 33.734 51.3314 33.8647 51.3874 34.042L52.8994 38.144L54.0054 35.148C54.1548 34.8027 54.4114 34.63 54.7754 34.63C54.9714 34.63 55.1208 34.672 55.2234 34.756C55.3354 34.84 55.4288 34.9707 55.5034 35.148L56.5814 38.074L58.0794 34.042C58.1354 33.8647 58.2334 33.734 58.3734 33.65C58.5134 33.5567 58.6861 33.51 58.8914 33.51ZM62.5955 40.146C62.5955 40.3887 62.5162 40.594 62.3575 40.762C62.1988 40.9207 61.9982 41 61.7555 41C61.5128 41 61.3122 40.9207 61.1535 40.762C60.9948 40.594 60.9155 40.3887 60.9155 40.146V34.364C60.9155 34.1213 60.9948 33.9207 61.1535 33.762C61.3122 33.594 61.5128 33.51 61.7555 33.51C61.9982 33.51 62.1988 33.594 62.3575 33.762C62.5162 33.9207 62.5955 34.1213 62.5955 34.364V40.146ZM61.7415 32.6C61.4242 32.6 61.2002 32.5487 61.0695 32.446C60.9388 32.3433 60.8735 32.1613 60.8735 31.9V31.634C60.8735 31.3727 60.9435 31.1907 61.0835 31.088C61.2235 30.9853 61.4475 30.934 61.7555 30.934C62.0822 30.934 62.3108 30.9853 62.4415 31.088C62.5722 31.1907 62.6375 31.3727 62.6375 31.634V31.9C62.6375 32.1707 62.5675 32.3573 62.4275 32.46C62.2968 32.5533 62.0682 32.6 61.7415 32.6ZM67.9341 39.418C68.0648 39.418 68.1814 39.4833 68.2841 39.614C68.3961 39.7353 68.4521 39.8987 68.4521 40.104C68.4521 40.356 68.3121 40.5707 68.0321 40.748C67.7614 40.916 67.4534 41 67.1081 41C66.5294 41 66.0394 40.8787 65.6381 40.636C65.2461 40.384 65.0501 39.8567 65.0501 39.054V35.19H64.4061C64.1821 35.19 63.9954 35.1153 63.8461 34.966C63.6968 34.8167 63.6221 34.63 63.6221 34.406C63.6221 34.1913 63.6968 34.014 63.8461 33.874C63.9954 33.7247 64.1821 33.65 64.4061 33.65H65.0501V32.754C65.0501 32.5113 65.1294 32.3107 65.2881 32.152C65.4561 31.984 65.6614 31.9 65.9041 31.9C66.1374 31.9 66.3334 31.984 66.4921 32.152C66.6508 32.3107 66.7301 32.5113 66.7301 32.754V33.65H67.7241C67.9481 33.65 68.1348 33.7247 68.2841 33.874C68.4334 34.0233 68.5081 34.21 68.5081 34.434C68.5081 34.6487 68.4334 34.8307 68.2841 34.98C68.1348 35.12 67.9481 35.19 67.7241 35.19H66.7301V38.984C66.7301 39.18 66.7814 39.3247 66.8841 39.418C66.9868 39.502 67.1268 39.544 67.3041 39.544C67.3788 39.544 67.4814 39.5253 67.6121 39.488C67.7241 39.4413 67.8314 39.418 67.9341 39.418ZM73.2443 33.37C74.0376 33.37 74.6769 33.496 75.1623 33.748C75.6476 33.9907 75.8903 34.3173 75.8903 34.728C75.8903 34.9333 75.8296 35.1153 75.7083 35.274C75.5869 35.4233 75.4283 35.498 75.2323 35.498C75.0829 35.498 74.9616 35.4793 74.8683 35.442C74.7749 35.3953 74.6816 35.3393 74.5883 35.274C74.5043 35.1993 74.4203 35.1387 74.3363 35.092C74.2429 35.0453 74.1029 35.0033 73.9163 34.966C73.7389 34.9287 73.5943 34.91 73.4823 34.91C72.7823 34.91 72.2316 35.1293 71.8303 35.568C71.4383 35.9973 71.2423 36.562 71.2423 37.262C71.2423 37.934 71.4429 38.494 71.8443 38.942C72.2456 39.3807 72.7589 39.6 73.3843 39.6C73.8416 39.6 74.1823 39.544 74.4063 39.432C74.4623 39.404 74.5369 39.3573 74.6303 39.292C74.7329 39.2173 74.8263 39.1613 74.9103 39.124C74.9943 39.0867 75.0969 39.068 75.2183 39.068C75.4516 39.068 75.6336 39.1427 75.7643 39.292C75.9043 39.4413 75.9743 39.6327 75.9743 39.866C75.9743 40.09 75.8436 40.3 75.5823 40.496C75.3209 40.692 74.9756 40.8507 74.5463 40.972C74.1169 41.084 73.6596 41.14 73.1743 41.14C72.4556 41.14 71.8209 40.972 71.2703 40.636C70.7289 40.3 70.3089 39.838 70.0103 39.25C69.7116 38.6527 69.5623 37.99 69.5623 37.262C69.5623 36.506 69.7163 35.834 70.0243 35.246C70.3416 34.658 70.7803 34.2007 71.3403 33.874C71.9003 33.538 72.5349 33.37 73.2443 33.37ZM81.1213 33.37C82.0453 33.37 82.6847 33.6547 83.0393 34.224C83.394 34.784 83.5713 35.5633 83.5713 36.562V40.146C83.5713 40.3887 83.492 40.594 83.3333 40.762C83.1747 40.9207 82.974 41 82.7313 41C82.4887 41 82.288 40.9207 82.1293 40.762C81.9707 40.594 81.8913 40.3887 81.8913 40.146V36.562C81.8913 36.0487 81.7887 35.6473 81.5833 35.358C81.3873 35.0593 81.0373 34.91 80.5333 34.91C80.0107 34.91 79.6 35.0687 79.3013 35.386C79.012 35.694 78.8673 36.086 78.8673 36.562V40.146C78.8673 40.3887 78.788 40.594 78.6293 40.762C78.4707 40.9207 78.27 41 78.0273 41C77.7847 41 77.584 40.9207 77.4253 40.762C77.2667 40.594 77.1873 40.3887 77.1873 40.146V31.494C77.1873 31.2513 77.2667 31.0507 77.4253 30.892C77.584 30.724 77.7847 30.64 78.0273 30.64C78.27 30.64 78.4707 30.724 78.6293 30.892C78.788 31.0507 78.8673 31.2513 78.8673 31.494V34.588C79.1193 34.252 79.4367 33.9673 79.8193 33.734C80.2113 33.4913 80.6453 33.37 81.1213 33.37ZM90.1645 39.46C90.3885 39.46 90.5751 39.5347 90.7245 39.684C90.8738 39.824 90.9485 40.006 90.9485 40.23C90.9485 40.4447 90.8738 40.6267 90.7245 40.776C90.5751 40.9253 90.3885 41 90.1645 41H85.6565C85.4418 41 85.2598 40.9253 85.1105 40.776C84.9705 40.6173 84.9005 40.4493 84.9005 40.272C84.9005 40.1133 84.9191 39.9827 84.9565 39.88C84.9938 39.768 85.0638 39.642 85.1665 39.502L88.4985 35.19H85.7825C85.5585 35.19 85.3718 35.1153 85.2225 34.966C85.0731 34.8167 84.9985 34.63 84.9985 34.406C84.9985 34.1913 85.0731 34.014 85.2225 33.874C85.3718 33.7247 85.5585 33.65 85.7825 33.65H90.0945C90.2998 33.65 90.4725 33.7247 90.6125 33.874C90.7618 34.014 90.8365 34.1913 90.8365 34.406C90.8365 34.546 90.8225 34.6673 90.7945 34.77C90.7665 34.8633 90.7011 34.9753 90.5985 35.106L87.2385 39.46H90.1645ZM98.755 37.08C98.7457 37.304 98.657 37.486 98.489 37.626C98.321 37.766 98.125 37.836 97.901 37.836H93.281C93.393 38.3867 93.6497 38.8207 94.051 39.138C94.4523 39.446 94.905 39.6 95.409 39.6C95.7917 39.6 96.0903 39.5673 96.305 39.502C96.5197 39.4273 96.6877 39.3527 96.809 39.278C96.9397 39.194 97.0283 39.138 97.075 39.11C97.243 39.026 97.4017 38.984 97.551 38.984C97.747 38.984 97.915 39.054 98.055 39.194C98.195 39.334 98.265 39.4973 98.265 39.684C98.265 39.936 98.1343 40.1647 97.873 40.37C97.6117 40.5847 97.2617 40.7667 96.823 40.916C96.3843 41.0653 95.941 41.14 95.493 41.14C94.709 41.14 94.023 40.9767 93.435 40.65C92.8563 40.3233 92.4083 39.8753 92.091 39.306C91.7737 38.7273 91.615 38.0787 91.615 37.36C91.615 36.5573 91.783 35.8527 92.119 35.246C92.455 34.6393 92.8983 34.1773 93.449 33.86C93.9997 33.5333 94.5877 33.37 95.213 33.37C95.829 33.37 96.4077 33.538 96.949 33.874C97.4997 34.21 97.9383 34.6627 98.265 35.232C98.5917 35.8013 98.755 36.4173 98.755 37.08ZM95.213 34.91C94.1303 34.91 93.491 35.4187 93.295 36.436H96.963V36.338C96.9257 35.946 96.7343 35.61 96.389 35.33C96.0437 35.05 95.6517 34.91 95.213 34.91ZM104.048 33.37C104.328 33.37 104.561 33.4493 104.748 33.608C104.944 33.7667 105.042 33.9533 105.042 34.168C105.042 34.4573 104.967 34.6767 104.818 34.826C104.669 34.966 104.491 35.036 104.286 35.036C104.146 35.036 103.987 35.0033 103.81 34.938C103.782 34.9287 103.717 34.91 103.614 34.882C103.521 34.854 103.418 34.84 103.306 34.84C103.063 34.84 102.83 34.9147 102.606 35.064C102.382 35.2133 102.195 35.442 102.046 35.75C101.906 36.0487 101.836 36.408 101.836 36.828V40.146C101.836 40.3887 101.757 40.594 101.598 40.762C101.439 40.9207 101.239 41 100.996 41C100.753 41 100.553 40.9207 100.394 40.762C100.235 40.594 100.156 40.3887 100.156 40.146V34.364C100.156 34.1213 100.235 33.9207 100.394 33.762C100.553 33.594 100.753 33.51 100.996 33.51C101.239 33.51 101.439 33.594 101.598 33.762C101.757 33.9207 101.836 34.1213 101.836 34.364V34.546C102.051 34.1633 102.359 33.874 102.76 33.678C103.161 33.4727 103.591 33.37 104.048 33.37ZM108.046 40.146C108.046 40.3887 107.962 40.594 107.794 40.762C107.636 40.9207 107.435 41 107.192 41C106.959 41 106.763 40.9207 106.604 40.762C106.446 40.594 106.366 40.3887 106.366 40.146V31.494C106.366 31.2513 106.446 31.0507 106.604 30.892C106.772 30.724 106.978 30.64 107.22 30.64C107.454 30.64 107.65 30.724 107.808 30.892C107.967 31.0507 108.046 31.2513 108.046 31.494V40.146ZM116.062 33.37C116.305 33.37 116.505 33.4493 116.664 33.608C116.823 33.7667 116.902 33.972 116.902 34.224V40.146C116.902 40.3887 116.823 40.594 116.664 40.762C116.505 40.9207 116.305 41 116.062 41C115.819 41 115.619 40.9207 115.46 40.762C115.311 40.6033 115.231 40.4027 115.222 40.16C114.989 40.4307 114.671 40.664 114.27 40.86C113.878 41.0467 113.463 41.14 113.024 41.14C112.38 41.14 111.797 40.9767 111.274 40.65C110.751 40.314 110.336 39.852 110.028 39.264C109.729 38.676 109.58 38.0087 109.58 37.262C109.58 36.5153 109.729 35.848 110.028 35.26C110.327 34.6627 110.733 34.2007 111.246 33.874C111.769 33.538 112.343 33.37 112.968 33.37C113.416 33.37 113.836 33.454 114.228 33.622C114.62 33.7807 114.951 33.986 115.222 34.238V34.224C115.222 33.9813 115.301 33.7807 115.46 33.622C115.619 33.454 115.819 33.37 116.062 33.37ZM113.234 39.6C113.841 39.6 114.335 39.3807 114.718 38.942C115.101 38.494 115.292 37.934 115.292 37.262C115.292 36.59 115.101 36.03 114.718 35.582C114.335 35.134 113.841 34.91 113.234 34.91C112.637 34.91 112.147 35.134 111.764 35.582C111.381 36.03 111.19 36.59 111.19 37.262C111.19 37.934 111.377 38.494 111.75 38.942C112.133 39.3807 112.627 39.6 113.234 39.6ZM122.727 33.37C123.679 33.37 124.337 33.6547 124.701 34.224C125.065 34.784 125.247 35.5633 125.247 36.562V40.146C125.247 40.3887 125.167 40.594 125.008 40.762C124.85 40.9207 124.649 41 124.407 41C124.164 41 123.963 40.9207 123.805 40.762C123.646 40.594 123.567 40.3887 123.567 40.146V36.562C123.567 36.0487 123.459 35.6473 123.245 35.358C123.03 35.0593 122.661 34.91 122.139 34.91C121.597 34.91 121.173 35.0687 120.865 35.386C120.557 35.694 120.403 36.086 120.403 36.562V40.146C120.403 40.3887 120.323 40.594 120.165 40.762C120.006 40.9207 119.805 41 119.562 41C119.32 41 119.119 40.9207 118.961 40.762C118.802 40.594 118.723 40.3887 118.723 40.146V34.364C118.723 34.1213 118.802 33.9207 118.961 33.762C119.119 33.594 119.32 33.51 119.562 33.51C119.805 33.51 120.006 33.594 120.165 33.762C120.323 33.9207 120.403 34.1213 120.403 34.364V34.602C120.655 34.266 120.981 33.9767 121.383 33.734C121.793 33.4913 122.241 33.37 122.727 33.37ZM133.124 30.64C133.367 30.64 133.568 30.7193 133.726 30.878C133.885 31.0367 133.964 31.242 133.964 31.494V40.146C133.964 40.3887 133.885 40.594 133.726 40.762C133.568 40.9207 133.367 41 133.124 41C132.882 41 132.681 40.9207 132.522 40.762C132.373 40.6033 132.294 40.4027 132.284 40.16C132.051 40.4307 131.734 40.664 131.332 40.86C130.94 41.0467 130.525 41.14 130.086 41.14C129.442 41.14 128.859 40.9767 128.336 40.65C127.814 40.314 127.398 39.852 127.09 39.264C126.792 38.676 126.642 38.0087 126.642 37.262C126.642 36.5153 126.792 35.848 127.09 35.26C127.389 34.6627 127.795 34.2007 128.308 33.874C128.831 33.538 129.405 33.37 130.03 33.37C130.478 33.37 130.898 33.454 131.29 33.622C131.682 33.7807 132.014 33.986 132.284 34.238V31.494C132.284 31.2513 132.364 31.0507 132.522 30.892C132.681 30.724 132.882 30.64 133.124 30.64ZM130.296 39.6C130.903 39.6 131.398 39.3807 131.78 38.942C132.163 38.494 132.354 37.934 132.354 37.262C132.354 36.59 132.163 36.03 131.78 35.582C131.398 35.134 130.903 34.91 130.296 34.91C129.699 34.91 129.209 35.134 128.826 35.582C128.444 36.03 128.252 36.59 128.252 37.262C128.252 37.934 128.439 38.494 128.812 38.942C129.195 39.3807 129.69 39.6 130.296 39.6ZM135.785 43.548C135.58 43.548 135.412 43.4687 135.281 43.31C135.15 43.1513 135.085 42.988 135.085 42.82C135.085 42.6053 135.183 42.4187 135.379 42.26C136.172 41.644 136.765 40.916 137.157 40.076C137.558 39.236 137.759 38.3353 137.759 37.374C137.759 36.394 137.563 35.4793 137.171 34.63C136.779 33.7713 136.182 33.0573 135.379 32.488C135.183 32.348 135.085 32.1613 135.085 31.928C135.085 31.7507 135.155 31.5873 135.295 31.438C135.435 31.2793 135.598 31.2 135.785 31.2C135.925 31.2 136.051 31.2373 136.163 31.312C137.227 32.0213 138.039 32.9033 138.599 33.958C139.168 35.0033 139.453 36.142 139.453 37.374C139.453 38.606 139.168 39.7493 138.599 40.804C138.039 41.8493 137.227 42.7267 136.163 43.436C136.051 43.5107 135.925 43.548 135.785 43.548Z" fill="#5B588F"/>
<path d="M12 36C18.6274 36 24 30.6274 24 24C24 17.3726 18.6274 12 12 12C5.37258 12 0 17.3726 0 24C0 30.6274 5.37258 36 12 36Z" fill="#D80027"/>
<path d="M18.2609 21.9131H14.087V17.7391H9.91303V21.9131H5.73914V26.087H9.91303V30.2609H14.087V26.087H18.2609V21.9131Z" fill="#F0F0F0"/>
</svg>
