<svg width="250" height="230" viewBox="0 0 250 230" fill="none" xmlns="http://www.w3.org/2000/svg">
<path d="M71.368 17C71.1067 17 70.892 16.9207 70.724 16.762C70.556 16.594 70.472 16.3887 70.472 16.146V8.026H72.292V16.146C72.292 16.3887 72.2033 16.594 72.026 16.762C71.858 16.9207 71.6387 17 71.368 17ZM68.274 8.81C68.0313 8.81 67.826 8.73533 67.658 8.586C67.4993 8.43667 67.42 8.24067 67.42 7.998C67.42 7.75533 67.4993 7.564 67.658 7.424C67.826 7.27467 68.0313 7.2 68.274 7.2H74.49C74.7327 7.2 74.9333 7.27467 75.092 7.424C75.26 7.57333 75.344 7.76933 75.344 8.012C75.344 8.25467 75.26 8.45067 75.092 8.6C74.9333 8.74 74.7327 8.81 74.49 8.81H68.274ZM82.258 13.262C82.258 14.0273 82.0854 14.704 81.74 15.292C81.404 15.8707 80.9467 16.3233 80.368 16.65C79.7987 16.9767 79.1594 17.14 78.45 17.14C77.7407 17.14 77.0967 16.9767 76.518 16.65C75.9487 16.3233 75.4914 15.8707 75.146 15.292C74.81 14.704 74.642 14.0273 74.642 13.262C74.642 12.4967 74.81 11.8247 75.146 11.246C75.4914 10.658 75.9487 10.2007 76.518 9.874C77.0967 9.538 77.7407 9.37 78.45 9.37C79.1594 9.37 79.7987 9.538 80.368 9.874C80.9467 10.2007 81.404 10.658 81.74 11.246C82.0854 11.8247 82.258 12.4967 82.258 13.262ZM80.578 13.262C80.578 12.786 80.48 12.3753 80.284 12.03C80.0974 11.6753 79.8407 11.4 79.514 11.204C79.1967 11.008 78.842 10.91 78.45 10.91C78.058 10.91 77.6987 11.008 77.372 11.204C77.0547 11.4 76.798 11.6753 76.602 12.03C76.4154 12.3753 76.322 12.786 76.322 13.262C76.322 13.7287 76.4154 14.1393 76.602 14.494C76.798 14.8393 77.0547 15.11 77.372 15.306C77.6987 15.502 78.058 15.6 78.45 15.6C78.842 15.6 79.1967 15.502 79.514 15.306C79.8407 15.11 80.0974 14.8393 80.284 14.494C80.48 14.1393 80.578 13.7287 80.578 13.262ZM87.6064 9.37C88.2597 9.37 88.843 9.538 89.3564 9.874C89.879 10.2007 90.2897 10.6533 90.5884 11.232C90.8964 11.8107 91.0504 12.4827 91.0504 13.248C91.0504 14.0133 90.8964 14.69 90.5884 15.278C90.2897 15.8567 89.8837 16.314 89.3704 16.65C88.8664 16.9767 88.297 17.14 87.6624 17.14C87.289 17.14 86.939 17.0793 86.6124 16.958C86.2857 16.8367 85.9964 16.6827 85.7444 16.496C85.5017 16.3093 85.3104 16.1227 85.1704 15.936C85.0397 15.74 84.9744 15.5767 84.9744 15.446L85.4084 15.264V18.946C85.4084 19.1887 85.329 19.3893 85.1704 19.548C85.0117 19.716 84.811 19.8 84.5684 19.8C84.3257 19.8 84.125 19.7207 83.9664 19.562C83.8077 19.4033 83.7284 19.198 83.7284 18.946V10.364C83.7284 10.1213 83.8077 9.92067 83.9664 9.762C84.125 9.594 84.3257 9.51 84.5684 9.51C84.811 9.51 85.0117 9.594 85.1704 9.762C85.329 9.92067 85.4084 10.1213 85.4084 10.364V11.05L85.1704 10.924C85.1704 10.8027 85.2357 10.658 85.3664 10.49C85.497 10.3127 85.6744 10.14 85.8984 9.972C86.1224 9.79467 86.379 9.65 86.6684 9.538C86.967 9.426 87.2797 9.37 87.6064 9.37ZM87.3964 10.91C86.9857 10.91 86.6264 11.0127 86.3184 11.218C86.0104 11.4233 85.7677 11.7033 85.5904 12.058C85.4224 12.4033 85.3384 12.8 85.3384 13.248C85.3384 13.6867 85.4224 14.088 85.5904 14.452C85.7677 14.8067 86.0104 15.0867 86.3184 15.292C86.6264 15.4973 86.9857 15.6 87.3964 15.6C87.807 15.6 88.1617 15.4973 88.4604 15.292C88.7684 15.0867 89.0064 14.8067 89.1744 14.452C89.3517 14.088 89.4404 13.6867 89.4404 13.248C89.4404 12.8 89.3517 12.4033 89.1744 12.058C89.0064 11.7033 88.7684 11.4233 88.4604 11.218C88.1617 11.0127 87.807 10.91 87.3964 10.91ZM100.783 7.2C101.455 7.2 102.053 7.326 102.575 7.578C103.098 7.83 103.537 8.18467 103.891 8.642C104.255 9.09 104.526 9.61267 104.703 10.21C104.89 10.798 104.983 11.428 104.983 12.1C104.983 13.0053 104.82 13.8313 104.493 14.578C104.167 15.3153 103.691 15.9033 103.065 16.342C102.449 16.7807 101.689 17 100.783 17H97.4372C97.1945 17 96.9892 16.9207 96.8212 16.762C96.6625 16.594 96.5832 16.3887 96.5832 16.146V8.054C96.5832 7.81133 96.6625 7.61067 96.8212 7.452C96.9892 7.284 97.1945 7.2 97.4372 7.2H100.783ZM100.643 15.39C101.231 15.39 101.712 15.2407 102.085 14.942C102.459 14.634 102.729 14.2327 102.897 13.738C103.075 13.234 103.163 12.688 103.163 12.1C103.163 11.6613 103.112 11.246 103.009 10.854C102.916 10.4527 102.767 10.1027 102.561 9.804C102.356 9.496 102.095 9.25333 101.777 9.076C101.46 8.89867 101.082 8.81 100.643 8.81H98.1932L98.3332 8.684V15.544L98.2492 15.39H100.643ZM112.583 9.37C112.826 9.37 113.026 9.44933 113.185 9.608C113.344 9.76667 113.423 9.972 113.423 10.224V16.146C113.423 16.3887 113.344 16.594 113.185 16.762C113.026 16.9207 112.826 17 112.583 17C112.34 17 112.14 16.9207 111.981 16.762C111.822 16.594 111.743 16.3887 111.743 16.146V15.46L112.051 15.586C112.051 15.7073 111.986 15.8567 111.855 16.034C111.724 16.202 111.547 16.37 111.323 16.538C111.099 16.706 110.833 16.8507 110.525 16.972C110.226 17.084 109.9 17.14 109.545 17.14C108.901 17.14 108.318 16.9767 107.795 16.65C107.272 16.314 106.857 15.8567 106.549 15.278C106.25 14.69 106.101 14.018 106.101 13.262C106.101 12.4967 106.25 11.8247 106.549 11.246C106.857 10.658 107.268 10.2007 107.781 9.874C108.294 9.538 108.864 9.37 109.489 9.37C109.89 9.37 110.259 9.43067 110.595 9.552C110.931 9.67333 111.22 9.82733 111.463 10.014C111.715 10.2007 111.906 10.392 112.037 10.588C112.177 10.7747 112.247 10.9333 112.247 11.064L111.743 11.246V10.224C111.743 9.98133 111.822 9.78067 111.981 9.622C112.14 9.454 112.34 9.37 112.583 9.37ZM109.755 15.6C110.166 15.6 110.525 15.4973 110.833 15.292C111.141 15.0867 111.379 14.8067 111.547 14.452C111.724 14.0973 111.813 13.7007 111.813 13.262C111.813 12.814 111.724 12.4127 111.547 12.058C111.379 11.7033 111.141 11.4233 110.833 11.218C110.525 11.0127 110.166 10.91 109.755 10.91C109.354 10.91 108.999 11.0127 108.691 11.218C108.383 11.4233 108.14 11.7033 107.963 12.058C107.795 12.4127 107.711 12.814 107.711 13.262C107.711 13.7007 107.795 14.0973 107.963 14.452C108.14 14.8067 108.383 15.0867 108.691 15.292C108.999 15.4973 109.354 15.6 109.755 15.6ZM115.326 9.65H118.644C118.868 9.65 119.055 9.72467 119.204 9.874C119.353 10.0233 119.428 10.21 119.428 10.434C119.428 10.6487 119.353 10.8307 119.204 10.98C119.055 11.12 118.868 11.19 118.644 11.19H115.326C115.102 11.19 114.915 11.1153 114.766 10.966C114.617 10.8167 114.542 10.63 114.542 10.406C114.542 10.1913 114.617 10.014 114.766 9.874C114.915 9.72467 115.102 9.65 115.326 9.65ZM116.824 7.9C117.067 7.9 117.263 7.984 117.412 8.152C117.571 8.31067 117.65 8.51133 117.65 8.754V14.984C117.65 15.1147 117.673 15.222 117.72 15.306C117.776 15.39 117.846 15.4507 117.93 15.488C118.023 15.5253 118.121 15.544 118.224 15.544C118.336 15.544 118.439 15.5253 118.532 15.488C118.625 15.4413 118.733 15.418 118.854 15.418C118.985 15.418 119.101 15.4787 119.204 15.6C119.316 15.7213 119.372 15.8893 119.372 16.104C119.372 16.3653 119.227 16.58 118.938 16.748C118.658 16.916 118.355 17 118.028 17C117.832 17 117.613 16.986 117.37 16.958C117.137 16.9207 116.913 16.8413 116.698 16.72C116.493 16.5893 116.32 16.3933 116.18 16.132C116.04 15.8707 115.97 15.5113 115.97 15.054V8.754C115.97 8.51133 116.049 8.31067 116.208 8.152C116.376 7.984 116.581 7.9 116.824 7.9ZM127.103 9.37C127.345 9.37 127.546 9.44933 127.705 9.608C127.863 9.76667 127.943 9.972 127.943 10.224V16.146C127.943 16.3887 127.863 16.594 127.705 16.762C127.546 16.9207 127.345 17 127.103 17C126.86 17 126.659 16.9207 126.501 16.762C126.342 16.594 126.263 16.3887 126.263 16.146V15.46L126.571 15.586C126.571 15.7073 126.505 15.8567 126.375 16.034C126.244 16.202 126.067 16.37 125.843 16.538C125.619 16.706 125.353 16.8507 125.045 16.972C124.746 17.084 124.419 17.14 124.065 17.14C123.421 17.14 122.837 16.9767 122.315 16.65C121.792 16.314 121.377 15.8567 121.069 15.278C120.77 14.69 120.621 14.018 120.621 13.262C120.621 12.4967 120.77 11.8247 121.069 11.246C121.377 10.658 121.787 10.2007 122.301 9.874C122.814 9.538 123.383 9.37 124.009 9.37C124.41 9.37 124.779 9.43067 125.115 9.552C125.451 9.67333 125.74 9.82733 125.983 10.014C126.235 10.2007 126.426 10.392 126.557 10.588C126.697 10.7747 126.767 10.9333 126.767 11.064L126.263 11.246V10.224C126.263 9.98133 126.342 9.78067 126.501 9.622C126.659 9.454 126.86 9.37 127.103 9.37ZM124.275 15.6C124.685 15.6 125.045 15.4973 125.353 15.292C125.661 15.0867 125.899 14.8067 126.067 14.452C126.244 14.0973 126.333 13.7007 126.333 13.262C126.333 12.814 126.244 12.4127 126.067 12.058C125.899 11.7033 125.661 11.4233 125.353 11.218C125.045 11.0127 124.685 10.91 124.275 10.91C123.873 10.91 123.519 11.0127 123.211 11.218C122.903 11.4233 122.66 11.7033 122.483 12.058C122.315 12.4127 122.231 12.814 122.231 13.262C122.231 13.7007 122.315 14.0973 122.483 14.452C122.66 14.8067 122.903 15.0867 123.211 15.292C123.519 15.4973 123.873 15.6 124.275 15.6ZM133.64 9.37C134.293 9.37 134.876 9.538 135.39 9.874C135.912 10.2007 136.323 10.6533 136.622 11.232C136.93 11.8107 137.084 12.4827 137.084 13.248C137.084 14.0133 136.93 14.69 136.622 15.278C136.323 15.8567 135.917 16.314 135.404 16.65C134.9 16.9767 134.33 17.14 133.696 17.14C133.322 17.14 132.972 17.0793 132.646 16.958C132.319 16.8367 132.03 16.6827 131.778 16.496C131.535 16.3093 131.344 16.1227 131.204 15.936C131.073 15.74 131.008 15.5767 131.008 15.446L131.442 15.264V18.946C131.442 19.1887 131.362 19.3893 131.204 19.548C131.045 19.716 130.844 19.8 130.602 19.8C130.359 19.8 130.158 19.7207 130 19.562C129.841 19.4033 129.762 19.198 129.762 18.946V10.364C129.762 10.1213 129.841 9.92067 130 9.762C130.158 9.594 130.359 9.51 130.602 9.51C130.844 9.51 131.045 9.594 131.204 9.762C131.362 9.92067 131.442 10.1213 131.442 10.364V11.05L131.204 10.924C131.204 10.8027 131.269 10.658 131.4 10.49C131.53 10.3127 131.708 10.14 131.932 9.972C132.156 9.79467 132.412 9.65 132.702 9.538C133 9.426 133.313 9.37 133.64 9.37ZM133.43 10.91C133.019 10.91 132.66 11.0127 132.352 11.218C132.044 11.4233 131.801 11.7033 131.624 12.058C131.456 12.4033 131.372 12.8 131.372 13.248C131.372 13.6867 131.456 14.088 131.624 14.452C131.801 14.8067 132.044 15.0867 132.352 15.292C132.66 15.4973 133.019 15.6 133.43 15.6C133.84 15.6 134.195 15.4973 134.494 15.292C134.802 15.0867 135.04 14.8067 135.208 14.452C135.385 14.088 135.474 13.6867 135.474 13.248C135.474 12.8 135.385 12.4033 135.208 12.058C135.04 11.7033 134.802 11.4233 134.494 11.218C134.195 11.0127 133.84 10.91 133.43 10.91ZM145.819 13.262C145.819 14.0273 145.646 14.704 145.301 15.292C144.965 15.8707 144.507 16.3233 143.929 16.65C143.359 16.9767 142.72 17.14 142.011 17.14C141.301 17.14 140.657 16.9767 140.079 16.65C139.509 16.3233 139.052 15.8707 138.707 15.292C138.371 14.704 138.203 14.0273 138.203 13.262C138.203 12.4967 138.371 11.8247 138.707 11.246C139.052 10.658 139.509 10.2007 140.079 9.874C140.657 9.538 141.301 9.37 142.011 9.37C142.72 9.37 143.359 9.538 143.929 9.874C144.507 10.2007 144.965 10.658 145.301 11.246C145.646 11.8247 145.819 12.4967 145.819 13.262ZM144.139 13.262C144.139 12.786 144.041 12.3753 143.845 12.03C143.658 11.6753 143.401 11.4 143.075 11.204C142.757 11.008 142.403 10.91 142.011 10.91C141.619 10.91 141.259 11.008 140.933 11.204C140.615 11.4 140.359 11.6753 140.163 12.03C139.976 12.3753 139.883 12.786 139.883 13.262C139.883 13.7287 139.976 14.1393 140.163 14.494C140.359 14.8393 140.615 15.11 140.933 15.306C141.259 15.502 141.619 15.6 142.011 15.6C142.403 15.6 142.757 15.502 143.075 15.306C143.401 15.11 143.658 14.8393 143.845 14.494C144.041 14.1393 144.139 13.7287 144.139 13.262ZM148.871 16.146C148.871 16.3887 148.792 16.594 148.633 16.762C148.474 16.9207 148.274 17 148.031 17C147.788 17 147.588 16.9207 147.429 16.762C147.27 16.594 147.191 16.3887 147.191 16.146V10.364C147.191 10.1213 147.27 9.92067 147.429 9.762C147.588 9.594 147.788 9.51 148.031 9.51C148.274 9.51 148.474 9.594 148.633 9.762C148.792 9.92067 148.871 10.1213 148.871 10.364V16.146ZM148.017 8.6C147.7 8.6 147.476 8.54867 147.345 8.446C147.214 8.34333 147.149 8.16133 147.149 7.9V7.634C147.149 7.36333 147.219 7.18133 147.359 7.088C147.508 6.98533 147.732 6.934 148.031 6.934C148.358 6.934 148.586 6.98533 148.717 7.088C148.848 7.19067 148.913 7.37267 148.913 7.634V7.9C148.913 8.17067 148.843 8.35733 148.703 8.46C148.563 8.55333 148.334 8.6 148.017 8.6ZM154.602 9.37C155.292 9.37 155.815 9.51467 156.17 9.804C156.534 10.0933 156.781 10.4807 156.912 10.966C157.052 11.442 157.122 11.974 157.122 12.562V16.146C157.122 16.3887 157.042 16.594 156.883 16.762C156.725 16.9207 156.524 17 156.282 17C156.039 17 155.838 16.9207 155.68 16.762C155.521 16.594 155.442 16.3887 155.442 16.146V12.562C155.442 12.254 155.4 11.9787 155.316 11.736C155.241 11.484 155.101 11.2833 154.896 11.134C154.69 10.9847 154.396 10.91 154.014 10.91C153.64 10.91 153.323 10.9847 153.062 11.134C152.81 11.2833 152.614 11.484 152.474 11.736C152.343 11.9787 152.278 12.254 152.278 12.562V16.146C152.278 16.3887 152.198 16.594 152.04 16.762C151.881 16.9207 151.68 17 151.438 17C151.195 17 150.994 16.9207 150.836 16.762C150.677 16.594 150.598 16.3887 150.598 16.146V10.364C150.598 10.1213 150.677 9.92067 150.836 9.762C150.994 9.594 151.195 9.51 151.438 9.51C151.68 9.51 151.881 9.594 152.04 9.762C152.198 9.92067 152.278 10.1213 152.278 10.364V10.966L152.068 10.924C152.152 10.7653 152.273 10.5973 152.432 10.42C152.59 10.2333 152.777 10.0607 152.992 9.902C153.206 9.74333 153.449 9.61733 153.72 9.524C153.99 9.42133 154.284 9.37 154.602 9.37ZM159.021 9.65H162.339C162.563 9.65 162.75 9.72467 162.899 9.874C163.049 10.0233 163.123 10.21 163.123 10.434C163.123 10.6487 163.049 10.8307 162.899 10.98C162.75 11.12 162.563 11.19 162.339 11.19H159.021C158.797 11.19 158.611 11.1153 158.461 10.966C158.312 10.8167 158.237 10.63 158.237 10.406C158.237 10.1913 158.312 10.014 158.461 9.874C158.611 9.72467 158.797 9.65 159.021 9.65ZM160.519 7.9C160.762 7.9 160.958 7.984 161.107 8.152C161.266 8.31067 161.345 8.51133 161.345 8.754V14.984C161.345 15.1147 161.369 15.222 161.415 15.306C161.471 15.39 161.541 15.4507 161.625 15.488C161.719 15.5253 161.817 15.544 161.919 15.544C162.031 15.544 162.134 15.5253 162.227 15.488C162.321 15.4413 162.428 15.418 162.549 15.418C162.68 15.418 162.797 15.4787 162.899 15.6C163.011 15.7213 163.067 15.8893 163.067 16.104C163.067 16.3653 162.923 16.58 162.633 16.748C162.353 16.916 162.05 17 161.723 17C161.527 17 161.308 16.986 161.065 16.958C160.832 16.9207 160.608 16.8413 160.393 16.72C160.188 16.5893 160.015 16.3933 159.875 16.132C159.735 15.8707 159.665 15.5113 159.665 15.054V8.754C159.665 8.51133 159.745 8.31067 159.903 8.152C160.071 7.984 160.277 7.9 160.519 7.9ZM164.505 15.838C164.412 15.7073 164.37 15.5393 164.379 15.334C164.389 15.1287 164.51 14.9513 164.743 14.802C164.893 14.7087 165.051 14.6713 165.219 14.69C165.387 14.6993 165.551 14.7833 165.709 14.942C165.98 15.2127 166.265 15.4227 166.563 15.572C166.862 15.7213 167.235 15.796 167.683 15.796C167.823 15.7867 167.977 15.768 168.145 15.74C168.313 15.7027 168.458 15.628 168.579 15.516C168.71 15.3947 168.775 15.2127 168.775 14.97C168.775 14.7647 168.705 14.6013 168.565 14.48C168.425 14.3587 168.239 14.256 168.005 14.172C167.781 14.088 167.529 14.0087 167.249 13.934C166.96 13.85 166.661 13.7567 166.353 13.654C166.055 13.5513 165.779 13.4207 165.527 13.262C165.275 13.094 165.07 12.8747 164.911 12.604C164.753 12.3333 164.673 11.9927 164.673 11.582C164.673 11.1153 164.804 10.7187 165.065 10.392C165.327 10.0653 165.663 9.81333 166.073 9.636C166.493 9.45867 166.932 9.37 167.389 9.37C167.679 9.37 167.982 9.40733 168.299 9.482C168.617 9.54733 168.92 9.65933 169.209 9.818C169.499 9.96733 169.741 10.168 169.937 10.42C170.04 10.56 170.101 10.728 170.119 10.924C170.138 11.12 170.049 11.2973 169.853 11.456C169.713 11.568 169.55 11.6193 169.363 11.61C169.177 11.5913 169.023 11.526 168.901 11.414C168.743 11.2087 168.528 11.0453 168.257 10.924C167.996 10.8027 167.693 10.742 167.347 10.742C167.207 10.742 167.053 10.7607 166.885 10.798C166.727 10.826 166.587 10.896 166.465 11.008C166.344 11.1107 166.283 11.2787 166.283 11.512C166.283 11.7267 166.353 11.8993 166.493 12.03C166.633 12.1513 166.82 12.254 167.053 12.338C167.296 12.4127 167.553 12.4873 167.823 12.562C168.103 12.6367 168.388 12.7253 168.677 12.828C168.967 12.9307 169.233 13.066 169.475 13.234C169.718 13.402 169.914 13.6213 170.063 13.892C170.213 14.1533 170.287 14.4893 170.287 14.9C170.287 15.376 170.147 15.782 169.867 16.118C169.587 16.454 169.237 16.7107 168.817 16.888C168.397 17.056 167.968 17.14 167.529 17.14C166.979 17.14 166.428 17.0467 165.877 16.86C165.327 16.664 164.869 16.3233 164.505 15.838Z" fill="#19191F"/>
<path d="M41 13H37C36.7348 13 36.4804 13.1054 36.2929 13.2929C36.1054 13.4804 36 13.7348 36 14V22C36 22.2652 36.1054 22.5196 36.2929 22.7071C36.4804 22.8946 36.7348 23 37 23H41C41.2652 23 41.5196 22.8946 41.7071 22.7071C41.8946 22.5196 42 22.2652 42 22V14C42 13.7348 41.8946 13.4804 41.7071 13.2929C41.5196 13.1054 41.2652 13 41 13ZM40 21H38V15H40V21ZM57 9H53C52.7348 9 52.4804 9.10536 52.2929 9.29289C52.1054 9.48043 52 9.73478 52 10V22C52 22.2652 52.1054 22.5196 52.2929 22.7071C52.4804 22.8946 52.7348 23 53 23H57C57.2652 23 57.5196 22.8946 57.7071 22.7071C57.8946 22.5196 58 22.2652 58 22V10C58 9.73478 57.8946 9.48043 57.7071 9.29289C57.5196 9.10536 57.2652 9 57 9ZM56 21H54V11H56V21ZM49 1H45C44.7348 1 44.4804 1.10536 44.2929 1.29289C44.1054 1.48043 44 1.73478 44 2V22C44 22.2652 44.1054 22.5196 44.2929 22.7071C44.4804 22.8946 44.7348 23 45 23H49C49.2652 23 49.5196 22.8946 49.7071 22.7071C49.8946 22.5196 50 22.2652 50 22V2C50 1.73478 49.8946 1.48043 49.7071 1.29289C49.5196 1.10536 49.2652 1 49 1ZM48 21H46V3H48V21Z" fill="#7465F1"/>
<rect opacity="0.5" y="44" width="248" height="25" rx="12.5" fill="#E9E9F4"/>
<rect y="44" width="63" height="25" rx="12.5" fill="#5B588F"/>
<path d="M15.32 54.57L13.16 59.65C13.1133 59.7767 13.04 59.8767 12.94 59.95C12.8467 60.0167 12.7433 60.05 12.63 60.05C12.45 60.05 12.3167 60 12.23 59.9C12.1433 59.8 12.1 59.6767 12.1 59.53C12.1 59.47 12.11 59.4067 12.13 59.34L14.62 53.36C14.6733 53.2267 14.7533 53.1233 14.86 53.05C14.9733 52.9767 15.0933 52.9467 15.22 52.96C15.34 52.96 15.45 52.9967 15.55 53.07C15.6567 53.1367 15.7333 53.2333 15.78 53.36L18.24 59.22C18.2733 59.3067 18.29 59.3867 18.29 59.46C18.29 59.64 18.23 59.7833 18.11 59.89C17.9967 59.9967 17.87 60.05 17.73 60.05C17.61 60.05 17.5 60.0133 17.4 59.94C17.3067 59.8667 17.2333 59.7667 17.18 59.64L15.03 54.63L15.32 54.57ZM13.47 58.43L14.02 57.28H16.72L16.91 58.43H13.47ZM20.3367 59.39C20.3367 59.5633 20.2767 59.71 20.1567 59.83C20.0434 59.9433 19.9001 60 19.7267 60C19.5601 60 19.4201 59.9433 19.3067 59.83C19.1934 59.71 19.1367 59.5633 19.1367 59.39V53.21C19.1367 53.0367 19.1934 52.8933 19.3067 52.78C19.4267 52.66 19.5734 52.6 19.7467 52.6C19.9201 52.6 20.0601 52.66 20.1667 52.78C20.2801 52.8933 20.3367 53.0367 20.3367 53.21V59.39ZM23.032 59.39C23.032 59.5633 22.972 59.71 22.852 59.83C22.7387 59.9433 22.5954 60 22.422 60C22.2554 60 22.1154 59.9433 22.002 59.83C21.8887 59.71 21.832 59.5633 21.832 59.39V53.21C21.832 53.0367 21.8887 52.8933 22.002 52.78C22.122 52.66 22.2687 52.6 22.442 52.6C22.6154 52.6 22.7554 52.66 22.862 52.78C22.9754 52.8933 23.032 53.0367 23.032 53.21V59.39ZM29.7001 60C29.5134 60 29.3601 59.9433 29.2401 59.83C29.1201 59.71 29.0601 59.5633 29.0601 59.39V53.59H30.3601V59.39C30.3601 59.5633 30.2967 59.71 30.1701 59.83C30.0501 59.9433 29.8934 60 29.7001 60ZM27.4901 54.15C27.3167 54.15 27.1701 54.0967 27.0501 53.99C26.9367 53.8833 26.8801 53.7433 26.8801 53.57C26.8801 53.3967 26.9367 53.26 27.0501 53.16C27.1701 53.0533 27.3167 53 27.4901 53H31.9301C32.1034 53 32.2467 53.0533 32.3601 53.16C32.4801 53.2667 32.5401 53.4067 32.5401 53.58C32.5401 53.7533 32.4801 53.8933 32.3601 54C32.2467 54.1 32.1034 54.15 31.9301 54.15H27.4901ZM34.6198 59.39C34.6198 59.5633 34.5632 59.71 34.4498 59.83C34.3365 59.9433 34.1932 60 34.0198 60C33.8465 60 33.7032 59.9433 33.5898 59.83C33.4765 59.71 33.4198 59.5633 33.4198 59.39V55.26C33.4198 55.0867 33.4765 54.9433 33.5898 54.83C33.7032 54.71 33.8465 54.65 34.0198 54.65C34.1932 54.65 34.3365 54.71 34.4498 54.83C34.5632 54.9433 34.6198 55.0867 34.6198 55.26V59.39ZM34.0098 54C33.7832 54 33.6232 53.9633 33.5298 53.89C33.4365 53.8167 33.3898 53.6867 33.3898 53.5V53.31C33.3898 53.1167 33.4398 52.9867 33.5398 52.92C33.6465 52.8467 33.8065 52.81 34.0198 52.81C34.2532 52.81 34.4165 52.8467 34.5098 52.92C34.6032 52.9933 34.6498 53.1233 34.6498 53.31V53.5C34.6498 53.6933 34.5998 53.8267 34.4998 53.9C34.3998 53.9667 34.2365 54 34.0098 54ZM38.6631 54.55C39.1965 54.55 39.5898 54.68 39.8431 54.94C40.0965 55.1933 40.2631 55.5233 40.3431 55.93L40.1731 55.84L40.2531 55.68C40.3331 55.5267 40.4565 55.3633 40.6231 55.19C40.7898 55.01 40.9898 54.86 41.2231 54.74C41.4631 54.6133 41.7298 54.55 42.0231 54.55C42.5031 54.55 42.8665 54.6533 43.1131 54.86C43.3665 55.0667 43.5398 55.3433 43.6331 55.69C43.7265 56.03 43.7731 56.41 43.7731 56.83V59.39C43.7731 59.5633 43.7165 59.71 43.6031 59.83C43.4898 59.9433 43.3465 60 43.1731 60C42.9998 60 42.8565 59.9433 42.7431 59.83C42.6298 59.71 42.5731 59.5633 42.5731 59.39V56.83C42.5731 56.61 42.5465 56.4133 42.4931 56.24C42.4398 56.06 42.3431 55.9167 42.2031 55.81C42.0631 55.7033 41.8631 55.65 41.6031 55.65C41.3498 55.65 41.1331 55.7033 40.9531 55.81C40.7731 55.9167 40.6365 56.06 40.5431 56.24C40.4565 56.4133 40.4131 56.61 40.4131 56.83V59.39C40.4131 59.5633 40.3565 59.71 40.2431 59.83C40.1298 59.9433 39.9865 60 39.8131 60C39.6398 60 39.4965 59.9433 39.3831 59.83C39.2698 59.71 39.2131 59.5633 39.2131 59.39V56.83C39.2131 56.61 39.1865 56.4133 39.1331 56.24C39.0798 56.06 38.9831 55.9167 38.8431 55.81C38.7031 55.7033 38.5031 55.65 38.2431 55.65C37.9898 55.65 37.7731 55.7033 37.5931 55.81C37.4131 55.9167 37.2765 56.06 37.1831 56.24C37.0965 56.4133 37.0531 56.61 37.0531 56.83V59.39C37.0531 59.5633 36.9965 59.71 36.8831 59.83C36.7698 59.9433 36.6265 60 36.4531 60C36.2798 60 36.1365 59.9433 36.0231 59.83C35.9098 59.71 35.8531 59.5633 35.8531 59.39V55.26C35.8531 55.0867 35.9098 54.9433 36.0231 54.83C36.1365 54.71 36.2798 54.65 36.4531 54.65C36.6265 54.65 36.7698 54.71 36.8831 54.83C36.9965 54.9433 37.0531 55.0867 37.0531 55.26V55.69L36.9031 55.66C36.9631 55.5467 37.0465 55.4267 37.1531 55.3C37.2598 55.1667 37.3898 55.0433 37.5431 54.93C37.6965 54.8167 37.8665 54.7267 38.0531 54.66C38.2398 54.5867 38.4431 54.55 38.6631 54.55ZM47.5919 60.1C47.0252 60.1 46.5319 59.9833 46.1119 59.75C45.6985 59.51 45.3785 59.1867 45.1519 58.78C44.9319 58.3733 44.8219 57.9133 44.8219 57.4C44.8219 56.8 44.9419 56.29 45.1819 55.87C45.4285 55.4433 45.7485 55.1167 46.1419 54.89C46.5352 54.6633 46.9519 54.55 47.3919 54.55C47.7319 54.55 48.0519 54.62 48.3519 54.76C48.6585 54.9 48.9285 55.0933 49.1619 55.34C49.3952 55.58 49.5785 55.86 49.7119 56.18C49.8519 56.5 49.9219 56.84 49.9219 57.2C49.9152 57.36 49.8519 57.49 49.7319 57.59C49.6119 57.69 49.4719 57.74 49.3119 57.74H45.4919L45.1919 56.74H48.8619L48.6419 56.94V56.67C48.6285 56.4767 48.5585 56.3033 48.4319 56.15C48.3119 55.9967 48.1585 55.8767 47.9719 55.79C47.7919 55.6967 47.5985 55.65 47.3919 55.65C47.1919 55.65 47.0052 55.6767 46.8319 55.73C46.6585 55.7833 46.5085 55.8733 46.3819 56C46.2552 56.1267 46.1552 56.2967 46.0819 56.51C46.0085 56.7233 45.9719 56.9933 45.9719 57.32C45.9719 57.68 46.0452 57.9867 46.1919 58.24C46.3452 58.4867 46.5385 58.6767 46.7719 58.81C47.0119 58.9367 47.2652 59 47.5319 59C47.7785 59 47.9752 58.98 48.1219 58.94C48.2685 58.9 48.3852 58.8533 48.4719 58.8C48.5652 58.74 48.6485 58.69 48.7219 58.65C48.8419 58.59 48.9552 58.56 49.0619 58.56C49.2085 58.56 49.3285 58.61 49.4219 58.71C49.5219 58.81 49.5719 58.9267 49.5719 59.06C49.5719 59.24 49.4785 59.4033 49.2919 59.55C49.1185 59.6967 48.8752 59.8267 48.5619 59.94C48.2485 60.0467 47.9252 60.1 47.5919 60.1Z" fill="white"/>
<path d="M80.65 54.34C80.8233 54.4267 80.9233 54.5633 80.95 54.75C80.9833 54.9367 80.9367 55.1067 80.81 55.26C80.7233 55.38 80.61 55.4467 80.47 55.46C80.3367 55.4733 80.2 55.4467 80.06 55.38C79.9 55.3067 79.73 55.25 79.55 55.21C79.3767 55.17 79.1933 55.15 79 55.15C78.64 55.15 78.3167 55.2067 78.03 55.32C77.75 55.4333 77.51 55.5967 77.31 55.81C77.11 56.0167 76.9567 56.2633 76.85 56.55C76.75 56.8367 76.7 57.1533 76.7 57.5C76.7 57.9067 76.7567 58.26 76.87 58.56C76.99 58.86 77.1533 59.11 77.36 59.31C77.5667 59.51 77.81 59.66 78.09 59.76C78.37 59.8533 78.6733 59.9 79 59.9C79.18 59.9 79.36 59.8833 79.54 59.85C79.72 59.8167 79.8933 59.7567 80.06 59.67C80.2 59.6033 80.3367 59.58 80.47 59.6C80.61 59.62 80.7267 59.69 80.82 59.81C80.9533 59.9767 81 60.15 80.96 60.33C80.9267 60.5033 80.8267 60.63 80.66 60.71C80.4867 60.7967 80.3067 60.87 80.12 60.93C79.94 60.9833 79.7567 61.0233 79.57 61.05C79.3833 61.0833 79.1933 61.1 79 61.1C78.52 61.1 78.0633 61.0233 77.63 60.87C77.2033 60.7167 76.82 60.49 76.48 60.19C76.1467 59.89 75.8833 59.5167 75.69 59.07C75.4967 58.6167 75.4 58.0933 75.4 57.5C75.4 56.9867 75.4867 56.5133 75.66 56.08C75.84 55.6467 76.09 55.2733 76.41 54.96C76.7367 54.64 77.12 54.3933 77.56 54.22C78 54.04 78.48 53.95 79 53.95C79.2933 53.95 79.58 53.9833 79.86 54.05C80.14 54.1167 80.4033 54.2133 80.65 54.34ZM86.9195 54.34C87.0929 54.4267 87.1929 54.5633 87.2195 54.75C87.2529 54.9367 87.2062 55.1067 87.0795 55.26C86.9929 55.38 86.8795 55.4467 86.7395 55.46C86.6062 55.4733 86.4695 55.4467 86.3295 55.38C86.1695 55.3067 85.9995 55.25 85.8195 55.21C85.6462 55.17 85.4629 55.15 85.2695 55.15C84.9095 55.15 84.5862 55.2067 84.2995 55.32C84.0195 55.4333 83.7795 55.5967 83.5795 55.81C83.3795 56.0167 83.2262 56.2633 83.1195 56.55C83.0195 56.8367 82.9695 57.1533 82.9695 57.5C82.9695 57.9067 83.0262 58.26 83.1395 58.56C83.2595 58.86 83.4229 59.11 83.6295 59.31C83.8362 59.51 84.0795 59.66 84.3595 59.76C84.6395 59.8533 84.9429 59.9 85.2695 59.9C85.4495 59.9 85.6295 59.8833 85.8095 59.85C85.9895 59.8167 86.1629 59.7567 86.3295 59.67C86.4695 59.6033 86.6062 59.58 86.7395 59.6C86.8795 59.62 86.9962 59.69 87.0895 59.81C87.2229 59.9767 87.2695 60.15 87.2295 60.33C87.1962 60.5033 87.0962 60.63 86.9295 60.71C86.7562 60.7967 86.5762 60.87 86.3895 60.93C86.2095 60.9833 86.0262 61.0233 85.8395 61.05C85.6529 61.0833 85.4629 61.1 85.2695 61.1C84.7895 61.1 84.3329 61.0233 83.8995 60.87C83.4729 60.7167 83.0895 60.49 82.7495 60.19C82.4162 59.89 82.1529 59.5167 81.9595 59.07C81.7662 58.6167 81.6695 58.0933 81.6695 57.5C81.6695 56.9867 81.7562 56.5133 81.9295 56.08C82.1095 55.6467 82.3595 55.2733 82.6795 54.96C83.0062 54.64 83.3895 54.3933 83.8295 54.22C84.2695 54.04 84.7495 53.95 85.2695 53.95C85.5629 53.95 85.8495 53.9833 86.1295 54.05C86.4095 54.1167 86.6729 54.2133 86.9195 54.34ZM91.1791 54C91.5257 54 91.8491 54.1 92.1491 54.3C92.4557 54.5 92.7024 54.77 92.8891 55.11C93.0757 55.45 93.1691 55.83 93.1691 56.25C93.1691 56.6633 93.0757 57.04 92.8891 57.38C92.7024 57.72 92.4557 57.9933 92.1491 58.2C91.8491 58.4 91.5257 58.5 91.1791 58.5H89.3391L89.4391 58.32V60.39C89.4391 60.5633 89.3857 60.71 89.2791 60.83C89.1724 60.9433 89.0324 61 88.8591 61C88.6924 61 88.5557 60.9433 88.4491 60.83C88.3424 60.71 88.2891 60.5633 88.2891 60.39V54.61C88.2891 54.4367 88.3457 54.2933 88.4591 54.18C88.5791 54.06 88.7257 54 88.8991 54H91.1791ZM91.1791 57.36C91.3057 57.36 91.4291 57.3067 91.5491 57.2C91.6691 57.0933 91.7691 56.9567 91.8491 56.79C91.9291 56.6167 91.9691 56.4367 91.9691 56.25C91.9691 56.0567 91.9291 55.8767 91.8491 55.71C91.7691 55.5433 91.6691 55.41 91.5491 55.31C91.4291 55.2033 91.3057 55.15 91.1791 55.15H89.3191L89.4391 54.97V57.52L89.3291 57.36H91.1791ZM96.4841 55.57L94.3241 60.65C94.2774 60.7767 94.2041 60.8767 94.1041 60.95C94.0107 61.0167 93.9074 61.05 93.7941 61.05C93.6141 61.05 93.4807 61 93.3941 60.9C93.3074 60.8 93.2641 60.6767 93.2641 60.53C93.2641 60.47 93.2741 60.4067 93.2941 60.34L95.7841 54.36C95.8374 54.2267 95.9174 54.1233 96.0241 54.05C96.1374 53.9767 96.2574 53.9467 96.3841 53.96C96.5041 53.96 96.6141 53.9967 96.7141 54.07C96.8207 54.1367 96.8974 54.2333 96.9441 54.36L99.4041 60.22C99.4374 60.3067 99.4541 60.3867 99.4541 60.46C99.4541 60.64 99.3941 60.7833 99.2741 60.89C99.1607 60.9967 99.0341 61.05 98.8941 61.05C98.7741 61.05 98.6641 61.0133 98.5641 60.94C98.4707 60.8667 98.3974 60.7667 98.3441 60.64L96.1941 55.63L96.4841 55.57ZM94.6341 59.43L95.1841 58.28H97.8841L98.0741 59.43H94.6341Z" fill="#5B588F"/>
<path d="M116.05 61.1C115.543 61.1 115.07 61.0067 114.63 60.82C114.19 60.6333 113.803 60.3767 113.47 60.05C113.137 59.7167 112.873 59.3333 112.68 58.9C112.493 58.4667 112.4 58 112.4 57.5C112.4 57 112.493 56.5333 112.68 56.1C112.873 55.6667 113.137 55.2867 113.47 54.96C113.803 54.6267 114.19 54.3667 114.63 54.18C115.07 53.9933 115.543 53.9 116.05 53.9C116.363 53.9 116.667 53.9333 116.96 54C117.253 54.0667 117.523 54.1667 117.77 54.3C117.87 54.3533 117.943 54.4267 117.99 54.52C118.043 54.6067 118.07 54.6967 118.07 54.79C118.07 54.95 118.017 55.0933 117.91 55.22C117.803 55.3467 117.667 55.41 117.5 55.41C117.447 55.41 117.39 55.4033 117.33 55.39C117.277 55.3767 117.223 55.3567 117.17 55.33C117.003 55.2567 116.827 55.2 116.64 55.16C116.453 55.12 116.257 55.1 116.05 55.1C115.617 55.1 115.22 55.21 114.86 55.43C114.507 55.6433 114.223 55.9333 114.01 56.3C113.803 56.66 113.7 57.06 113.7 57.5C113.7 57.9333 113.803 58.3333 114.01 58.7C114.223 59.0667 114.507 59.36 114.86 59.58C115.22 59.7933 115.617 59.9 116.05 59.9C116.25 59.9 116.47 59.88 116.71 59.84C116.95 59.8 117.147 59.7467 117.3 59.68L117.21 59.98V58.27L117.38 58.42H116.27C116.097 58.42 115.95 58.3633 115.83 58.25C115.717 58.1367 115.66 57.9933 115.66 57.82C115.66 57.6467 115.717 57.5033 115.83 57.39C115.95 57.2767 116.097 57.22 116.27 57.22H117.91C118.083 57.22 118.227 57.28 118.34 57.4C118.453 57.5133 118.51 57.6567 118.51 57.83V59.95C118.51 60.0833 118.477 60.1933 118.41 60.28C118.35 60.3667 118.28 60.4367 118.2 60.49C117.893 60.6767 117.557 60.8267 117.19 60.94C116.83 61.0467 116.45 61.1 116.05 61.1ZM122.713 54C123.193 54 123.62 54.09 123.993 54.27C124.366 54.45 124.68 54.7033 124.933 55.03C125.193 55.35 125.386 55.7233 125.513 56.15C125.646 56.57 125.713 57.02 125.713 57.5C125.713 58.1467 125.596 58.7367 125.363 59.27C125.13 59.7967 124.79 60.2167 124.343 60.53C123.903 60.8433 123.36 61 122.713 61H120.323C120.15 61 120.003 60.9433 119.883 60.83C119.77 60.71 119.713 60.5633 119.713 60.39V54.61C119.713 54.4367 119.77 54.2933 119.883 54.18C120.003 54.06 120.15 54 120.323 54H122.713ZM122.613 59.85C123.033 59.85 123.376 59.7433 123.643 59.53C123.91 59.31 124.103 59.0233 124.223 58.67C124.35 58.31 124.413 57.92 124.413 57.5C124.413 57.1867 124.376 56.89 124.303 56.61C124.236 56.3233 124.13 56.0733 123.983 55.86C123.836 55.64 123.65 55.4667 123.423 55.34C123.196 55.2133 122.926 55.15 122.613 55.15H120.863L120.963 55.06V59.96L120.903 59.85H122.613ZM129.751 54C130.098 54 130.421 54.1 130.721 54.3C131.028 54.5 131.275 54.77 131.461 55.11C131.648 55.45 131.741 55.83 131.741 56.25C131.741 56.6633 131.648 57.04 131.461 57.38C131.275 57.72 131.028 57.9933 130.721 58.2C130.421 58.4 130.098 58.5 129.751 58.5H127.911L128.011 58.32V60.39C128.011 60.5633 127.958 60.71 127.851 60.83C127.745 60.9433 127.605 61 127.431 61C127.265 61 127.128 60.9433 127.021 60.83C126.915 60.71 126.861 60.5633 126.861 60.39V54.61C126.861 54.4367 126.918 54.2933 127.031 54.18C127.151 54.06 127.298 54 127.471 54H129.751ZM129.751 57.36C129.878 57.36 130.001 57.3067 130.121 57.2C130.241 57.0933 130.341 56.9567 130.421 56.79C130.501 56.6167 130.541 56.4367 130.541 56.25C130.541 56.0567 130.501 55.8767 130.421 55.71C130.341 55.5433 130.241 55.41 130.121 55.31C130.001 55.2033 129.878 55.15 129.751 55.15H127.891L128.011 54.97V57.52L127.901 57.36H129.751ZM133.607 61C133.42 61 133.253 60.9433 133.107 60.83C132.96 60.71 132.887 60.5633 132.887 60.39V54.61C132.887 54.4367 132.943 54.2933 133.057 54.18C133.177 54.06 133.323 54 133.497 54H136.377C136.723 54 137.047 54.0933 137.347 54.28C137.653 54.46 137.9 54.7133 138.087 55.04C138.273 55.36 138.367 55.73 138.367 56.15C138.367 56.4033 138.313 56.65 138.207 56.89C138.107 57.13 137.967 57.3467 137.787 57.54C137.613 57.7333 137.417 57.8833 137.197 57.99L137.207 57.76C137.393 57.86 137.547 57.98 137.667 58.12C137.793 58.2533 137.89 58.4 137.957 58.56C138.03 58.7133 138.073 58.88 138.087 59.06C138.113 59.2267 138.13 59.3733 138.137 59.5C138.15 59.6267 138.17 59.7333 138.197 59.82C138.23 59.9067 138.29 59.9733 138.377 60.02C138.523 60.1067 138.613 60.2333 138.647 60.4C138.687 60.56 138.65 60.7033 138.537 60.83C138.463 60.9167 138.37 60.9733 138.257 61C138.143 61.02 138.03 61.02 137.917 61C137.803 60.9733 137.71 60.94 137.637 60.9C137.523 60.8333 137.41 60.7367 137.297 60.61C137.183 60.4767 137.09 60.3 137.017 60.08C136.95 59.86 136.917 59.5767 136.917 59.23C136.917 59.1167 136.897 59.0133 136.857 58.92C136.817 58.82 136.76 58.7367 136.687 58.67C136.613 58.5967 136.52 58.5433 136.407 58.51C136.293 58.47 136.16 58.45 136.007 58.45H133.987L134.137 58.22V60.39C134.137 60.5633 134.09 60.71 133.997 60.83C133.903 60.9433 133.773 61 133.607 61ZM133.997 57.42H136.327C136.447 57.42 136.563 57.3667 136.677 57.26C136.79 57.1467 136.883 56.9967 136.957 56.81C137.03 56.6167 137.067 56.4067 137.067 56.18C137.067 55.8867 136.987 55.6433 136.827 55.45C136.673 55.25 136.507 55.15 136.327 55.15H134.017L134.137 54.83V57.66L133.997 57.42Z" fill="#5B588F"/>
<path d="M156.61 59.83C156.783 59.83 156.927 59.8867 157.04 60C157.16 60.1067 157.22 60.2467 157.22 60.42C157.22 60.5867 157.16 60.7267 157.04 60.84C156.927 60.9467 156.783 61 156.61 61H153.36C153.187 61 153.04 60.9433 152.92 60.83C152.807 60.71 152.75 60.5633 152.75 60.39V54.61C152.75 54.4367 152.81 54.2933 152.93 54.18C153.05 54.06 153.203 54 153.39 54C153.55 54 153.69 54.06 153.81 54.18C153.937 54.2933 154 54.4367 154 54.61V60L153.78 59.83H156.61ZM161.568 61.1C161.061 61.1 160.588 61.0067 160.148 60.82C159.708 60.6333 159.321 60.3767 158.988 60.05C158.654 59.7167 158.391 59.3333 158.198 58.9C158.011 58.4667 157.918 58 157.918 57.5C157.918 57 158.011 56.5333 158.198 56.1C158.391 55.6667 158.654 55.2867 158.988 54.96C159.321 54.6267 159.708 54.3667 160.148 54.18C160.588 53.9933 161.061 53.9 161.568 53.9C161.881 53.9 162.184 53.9333 162.478 54C162.771 54.0667 163.041 54.1667 163.288 54.3C163.388 54.3533 163.461 54.4267 163.508 54.52C163.561 54.6067 163.588 54.6967 163.588 54.79C163.588 54.95 163.534 55.0933 163.428 55.22C163.321 55.3467 163.184 55.41 163.018 55.41C162.964 55.41 162.908 55.4033 162.848 55.39C162.794 55.3767 162.741 55.3567 162.688 55.33C162.521 55.2567 162.344 55.2 162.158 55.16C161.971 55.12 161.774 55.1 161.568 55.1C161.134 55.1 160.738 55.21 160.378 55.43C160.024 55.6433 159.741 55.9333 159.528 56.3C159.321 56.66 159.218 57.06 159.218 57.5C159.218 57.9333 159.321 58.3333 159.528 58.7C159.741 59.0667 160.024 59.36 160.378 59.58C160.738 59.7933 161.134 59.9 161.568 59.9C161.768 59.9 161.988 59.88 162.228 59.84C162.468 59.8 162.664 59.7467 162.818 59.68L162.728 59.98V58.27L162.898 58.42H161.788C161.614 58.42 161.468 58.3633 161.348 58.25C161.234 58.1367 161.178 57.9933 161.178 57.82C161.178 57.6467 161.234 57.5033 161.348 57.39C161.468 57.2767 161.614 57.22 161.788 57.22H163.428C163.601 57.22 163.744 57.28 163.858 57.4C163.971 57.5133 164.028 57.6567 164.028 57.83V59.95C164.028 60.0833 163.994 60.1933 163.928 60.28C163.868 60.3667 163.798 60.4367 163.718 60.49C163.411 60.6767 163.074 60.8267 162.708 60.94C162.348 61.0467 161.968 61.1 161.568 61.1ZM168.12 54C168.467 54 168.79 54.1 169.09 54.3C169.397 54.5 169.644 54.77 169.83 55.11C170.017 55.45 170.11 55.83 170.11 56.25C170.11 56.6633 170.017 57.04 169.83 57.38C169.644 57.72 169.397 57.9933 169.09 58.2C168.79 58.4 168.467 58.5 168.12 58.5H166.28L166.38 58.32V60.39C166.38 60.5633 166.327 60.71 166.22 60.83C166.114 60.9433 165.974 61 165.8 61C165.634 61 165.497 60.9433 165.39 60.83C165.284 60.71 165.23 60.5633 165.23 60.39V54.61C165.23 54.4367 165.287 54.2933 165.4 54.18C165.52 54.06 165.667 54 165.84 54H168.12ZM168.12 57.36C168.247 57.36 168.37 57.3067 168.49 57.2C168.61 57.0933 168.71 56.9567 168.79 56.79C168.87 56.6167 168.91 56.4367 168.91 56.25C168.91 56.0567 168.87 55.8767 168.79 55.71C168.71 55.5433 168.61 55.41 168.49 55.31C168.37 55.2033 168.247 55.15 168.12 55.15H166.26L166.38 54.97V57.52L166.27 57.36H168.12ZM174.256 54C174.736 54 175.163 54.09 175.536 54.27C175.909 54.45 176.223 54.7033 176.476 55.03C176.736 55.35 176.929 55.7233 177.056 56.15C177.189 56.57 177.256 57.02 177.256 57.5C177.256 58.1467 177.139 58.7367 176.906 59.27C176.673 59.7967 176.333 60.2167 175.886 60.53C175.446 60.8433 174.903 61 174.256 61H171.866C171.693 61 171.546 60.9433 171.426 60.83C171.313 60.71 171.256 60.5633 171.256 60.39V54.61C171.256 54.4367 171.313 54.2933 171.426 54.18C171.546 54.06 171.693 54 171.866 54H174.256ZM174.156 59.85C174.576 59.85 174.919 59.7433 175.186 59.53C175.453 59.31 175.646 59.0233 175.766 58.67C175.893 58.31 175.956 57.92 175.956 57.5C175.956 57.1867 175.919 56.89 175.846 56.61C175.779 56.3233 175.673 56.0733 175.526 55.86C175.379 55.64 175.193 55.4667 174.966 55.34C174.739 55.2133 174.469 55.15 174.156 55.15H172.406L172.506 55.06V59.96L172.446 59.85H174.156Z" fill="#5B588F"/>
<path d="M193.64 54C193.987 54 194.31 54.1 194.61 54.3C194.917 54.5 195.163 54.77 195.35 55.11C195.537 55.45 195.63 55.83 195.63 56.25C195.63 56.6633 195.537 57.04 195.35 57.38C195.163 57.72 194.917 57.9933 194.61 58.2C194.31 58.4 193.987 58.5 193.64 58.5H191.8L191.9 58.32V60.39C191.9 60.5633 191.847 60.71 191.74 60.83C191.633 60.9433 191.493 61 191.32 61C191.153 61 191.017 60.9433 190.91 60.83C190.803 60.71 190.75 60.5633 190.75 60.39V54.61C190.75 54.4367 190.807 54.2933 190.92 54.18C191.04 54.06 191.187 54 191.36 54H193.64ZM193.64 57.36C193.767 57.36 193.89 57.3067 194.01 57.2C194.13 57.0933 194.23 56.9567 194.31 56.79C194.39 56.6167 194.43 56.4367 194.43 56.25C194.43 56.0567 194.39 55.8767 194.31 55.71C194.23 55.5433 194.13 55.41 194.01 55.31C193.89 55.2033 193.767 55.15 193.64 55.15H191.78L191.9 54.97V57.52L191.79 57.36H193.64ZM198.025 60.39C198.025 60.5633 197.962 60.71 197.835 60.83C197.709 60.9433 197.562 61 197.395 61C197.209 61 197.059 60.9433 196.945 60.83C196.832 60.71 196.775 60.5633 196.775 60.39V54.61C196.775 54.4367 196.835 54.2933 196.955 54.18C197.075 54.06 197.229 54 197.415 54C197.575 54 197.715 54.06 197.835 54.18C197.962 54.2933 198.025 54.4367 198.025 54.61V60.39ZM202.419 54C202.766 54 203.089 54.1 203.389 54.3C203.696 54.5 203.943 54.77 204.129 55.11C204.316 55.45 204.409 55.83 204.409 56.25C204.409 56.6633 204.316 57.04 204.129 57.38C203.943 57.72 203.696 57.9933 203.389 58.2C203.089 58.4 202.766 58.5 202.419 58.5H200.579L200.679 58.32V60.39C200.679 60.5633 200.626 60.71 200.519 60.83C200.413 60.9433 200.273 61 200.099 61C199.933 61 199.796 60.9433 199.689 60.83C199.583 60.71 199.529 60.5633 199.529 60.39V54.61C199.529 54.4367 199.586 54.2933 199.699 54.18C199.819 54.06 199.966 54 200.139 54H202.419ZM202.419 57.36C202.546 57.36 202.669 57.3067 202.789 57.2C202.909 57.0933 203.009 56.9567 203.089 56.79C203.169 56.6167 203.209 56.4367 203.209 56.25C203.209 56.0567 203.169 55.8767 203.089 55.71C203.009 55.5433 202.909 55.41 202.789 55.31C202.669 55.2033 202.546 55.15 202.419 55.15H200.559L200.679 54.97V57.52L200.569 57.36H202.419ZM206.165 54H209.515C209.688 54 209.831 54.0567 209.945 54.17C210.065 54.2767 210.125 54.4167 210.125 54.59C210.125 54.7567 210.065 54.8933 209.945 55C209.831 55.1 209.688 55.15 209.515 55.15H206.715L206.805 54.98V56.93L206.725 56.85H209.065C209.238 56.85 209.381 56.9067 209.495 57.02C209.615 57.1267 209.675 57.2667 209.675 57.44C209.675 57.6067 209.615 57.7433 209.495 57.85C209.381 57.95 209.238 58 209.065 58H206.755L206.805 57.92V59.94L206.725 59.85H209.515C209.688 59.85 209.831 59.91 209.945 60.03C210.065 60.1433 210.125 60.2767 210.125 60.43C210.125 60.5967 210.065 60.7333 209.945 60.84C209.831 60.9467 209.688 61 209.515 61H206.165C205.991 61 205.845 60.9433 205.725 60.83C205.611 60.71 205.555 60.5633 205.555 60.39V54.61C205.555 54.4367 205.611 54.2933 205.725 54.18C205.845 54.06 205.991 54 206.165 54ZM214.277 54C214.757 54 215.184 54.09 215.557 54.27C215.931 54.45 216.244 54.7033 216.497 55.03C216.757 55.35 216.951 55.7233 217.077 56.15C217.211 56.57 217.277 57.02 217.277 57.5C217.277 58.1467 217.161 58.7367 216.927 59.27C216.694 59.7967 216.354 60.2167 215.907 60.53C215.467 60.8433 214.924 61 214.277 61H211.887C211.714 61 211.567 60.9433 211.447 60.83C211.334 60.71 211.277 60.5633 211.277 60.39V54.61C211.277 54.4367 211.334 54.2933 211.447 54.18C211.567 54.06 211.714 54 211.887 54H214.277ZM214.177 59.85C214.597 59.85 214.941 59.7433 215.207 59.53C215.474 59.31 215.667 59.0233 215.787 58.67C215.914 58.31 215.977 57.92 215.977 57.5C215.977 57.1867 215.941 56.89 215.867 56.61C215.801 56.3233 215.694 56.0733 215.547 55.86C215.401 55.64 215.214 55.4667 214.987 55.34C214.761 55.2133 214.491 55.15 214.177 55.15H212.427L212.527 55.06V59.96L212.467 59.85H214.177ZM220.947 55.57L218.787 60.65C218.74 60.7767 218.667 60.8767 218.567 60.95C218.474 61.0167 218.37 61.05 218.257 61.05C218.077 61.05 217.944 61 217.857 60.9C217.77 60.8 217.727 60.6767 217.727 60.53C217.727 60.47 217.737 60.4067 217.757 60.34L220.247 54.36C220.3 54.2267 220.38 54.1233 220.487 54.05C220.6 53.9767 220.72 53.9467 220.847 53.96C220.967 53.96 221.077 53.9967 221.177 54.07C221.284 54.1367 221.36 54.2333 221.407 54.36L223.867 60.22C223.9 60.3067 223.917 60.3867 223.917 60.46C223.917 60.64 223.857 60.7833 223.737 60.89C223.624 60.9967 223.497 61.05 223.357 61.05C223.237 61.05 223.127 61.0133 223.027 60.94C222.934 60.8667 222.86 60.7667 222.807 60.64L220.657 55.63L220.947 55.57ZM219.097 59.43L219.647 58.28H222.347L222.537 59.43H219.097Z" fill="#5B588F"/>
<rect y="230" width="137" height="26" rx="2" transform="rotate(-90 0 230)" fill="#5B588F"/>
<path d="M11.34 216.35C11.4267 216.177 11.5633 216.077 11.75 216.05C11.9367 216.017 12.1067 216.063 12.26 216.19C12.38 216.277 12.4467 216.39 12.46 216.53C12.4733 216.663 12.4467 216.8 12.38 216.94C12.3067 217.1 12.25 217.27 12.21 217.45C12.17 217.623 12.15 217.807 12.15 218C12.15 218.36 12.2067 218.683 12.32 218.97C12.4333 219.25 12.5967 219.49 12.81 219.69C13.0167 219.89 13.2633 220.043 13.55 220.15C13.8367 220.25 14.1533 220.3 14.5 220.3C14.9067 220.3 15.26 220.243 15.56 220.13C15.86 220.01 16.11 219.847 16.31 219.64C16.51 219.433 16.66 219.19 16.76 218.91C16.8533 218.63 16.9 218.327 16.9 218C16.9 217.82 16.8833 217.64 16.85 217.46C16.8167 217.28 16.7567 217.107 16.67 216.94C16.6033 216.8 16.58 216.663 16.6 216.53C16.62 216.39 16.69 216.273 16.81 216.18C16.9767 216.047 17.15 216 17.33 216.04C17.5033 216.073 17.63 216.173 17.71 216.34C17.7967 216.513 17.87 216.693 17.93 216.88C17.9833 217.06 18.0233 217.243 18.05 217.43C18.0833 217.617 18.1 217.807 18.1 218C18.1 218.48 18.0233 218.937 17.87 219.37C17.7167 219.797 17.49 220.18 17.19 220.52C16.89 220.853 16.5167 221.117 16.07 221.31C15.6167 221.503 15.0933 221.6 14.5 221.6C13.9867 221.6 13.5133 221.513 13.08 221.34C12.6467 221.16 12.2733 220.91 11.96 220.59C11.64 220.263 11.3933 219.88 11.22 219.44C11.04 219 10.95 218.52 10.95 218C10.95 217.707 10.9833 217.42 11.05 217.14C11.1167 216.86 11.2133 216.597 11.34 216.35ZM18 212.26C18 212.447 17.9433 212.614 17.83 212.76C17.71 212.907 17.5633 212.98 17.39 212.98H11.61C11.4367 212.98 11.2933 212.924 11.18 212.81C11.06 212.69 11 212.544 11 212.37V209.49C11 209.144 11.0933 208.82 11.28 208.52C11.46 208.214 11.7133 207.967 12.04 207.78C12.36 207.594 12.73 207.5 13.15 207.5C13.4033 207.5 13.65 207.554 13.89 207.66C14.13 207.76 14.3467 207.9 14.54 208.08C14.7333 208.254 14.8833 208.45 14.99 208.67L14.76 208.66C14.86 208.474 14.98 208.32 15.12 208.2C15.2533 208.074 15.4 207.977 15.56 207.91C15.7133 207.837 15.88 207.794 16.06 207.78C16.2267 207.754 16.3733 207.737 16.5 207.73C16.6267 207.717 16.7333 207.697 16.82 207.67C16.9067 207.637 16.9733 207.577 17.02 207.49C17.1067 207.344 17.2333 207.254 17.4 207.22C17.56 207.18 17.7033 207.217 17.83 207.33C17.9167 207.404 17.9733 207.497 18 207.61C18.02 207.724 18.02 207.837 18 207.95C17.9733 208.064 17.94 208.157 17.9 208.23C17.8333 208.344 17.7367 208.457 17.61 208.57C17.4767 208.684 17.3 208.777 17.08 208.85C16.86 208.917 16.5767 208.95 16.23 208.95C16.1167 208.95 16.0133 208.97 15.92 209.01C15.82 209.05 15.7367 209.107 15.67 209.18C15.5967 209.254 15.5433 209.347 15.51 209.46C15.47 209.574 15.45 209.707 15.45 209.86V211.88L15.22 211.73H17.39C17.5633 211.73 17.71 211.777 17.83 211.87C17.9433 211.964 18 212.094 18 212.26ZM14.42 211.87V209.54C14.42 209.42 14.3667 209.304 14.26 209.19C14.1467 209.077 13.9967 208.984 13.81 208.91C13.6167 208.837 13.4067 208.8 13.18 208.8C12.8867 208.8 12.6433 208.88 12.45 209.04C12.25 209.194 12.15 209.36 12.15 209.54V211.85L11.83 211.73H14.66L14.42 211.87ZM11 203.505L11 200.155C11 199.982 11.0567 199.839 11.17 199.725C11.2767 199.605 11.4167 199.545 11.59 199.545C11.7567 199.545 11.8933 199.605 12 199.725C12.1 199.839 12.15 199.982 12.15 200.155V202.955L11.98 202.865H13.93L13.85 202.945V200.605C13.85 200.432 13.9067 200.289 14.02 200.175C14.1267 200.055 14.2667 199.995 14.44 199.995C14.6067 199.995 14.7433 200.055 14.85 200.175C14.95 200.289 15 200.432 15 200.605V202.915L14.92 202.865H16.94L16.85 202.945V200.155C16.85 199.982 16.91 199.839 17.03 199.725C17.1433 199.605 17.2767 199.545 17.43 199.545C17.5967 199.545 17.7333 199.605 17.84 199.725C17.9467 199.839 18 199.982 18 200.155V203.505C18 203.679 17.9433 203.825 17.83 203.945C17.71 204.059 17.5633 204.115 17.39 204.115H11.61C11.4367 204.115 11.2933 204.059 11.18 203.945C11.06 203.825 11 203.679 11 203.505ZM11 193.393C11 192.913 11.09 192.486 11.27 192.113C11.45 191.739 11.7033 191.426 12.03 191.173C12.35 190.913 12.7233 190.719 13.15 190.593C13.57 190.459 14.02 190.393 14.5 190.393C15.1467 190.393 15.7367 190.509 16.27 190.743C16.7967 190.976 17.2167 191.316 17.53 191.763C17.8433 192.203 18 192.746 18 193.393V195.783C18 195.956 17.9433 196.103 17.83 196.223C17.71 196.336 17.5633 196.393 17.39 196.393H11.61C11.4367 196.393 11.2933 196.336 11.18 196.223C11.06 196.103 11 195.956 11 195.783V193.393ZM16.85 193.493C16.85 193.073 16.7433 192.729 16.53 192.463C16.31 192.196 16.0233 192.003 15.67 191.883C15.31 191.756 14.92 191.693 14.5 191.693C14.1867 191.693 13.89 191.729 13.61 191.803C13.3233 191.869 13.0733 191.976 12.86 192.123C12.64 192.269 12.4667 192.456 12.34 192.683C12.2133 192.909 12.15 193.179 12.15 193.493V195.243L12.06 195.143H16.96L16.85 195.203V193.493ZM17.39 185.994C17.5633 185.994 17.71 186.057 17.83 186.184C17.9433 186.311 18 186.457 18 186.624C18 186.811 17.9433 186.961 17.83 187.074C17.71 187.187 17.5633 187.244 17.39 187.244H11.61C11.4367 187.244 11.2933 187.184 11.18 187.064C11.06 186.944 11 186.791 11 186.604C11 186.444 11.06 186.304 11.18 186.184C11.2933 186.057 11.4367 185.994 11.61 185.994H17.39ZM18 180.12C18 180.307 17.9433 180.46 17.83 180.58C17.71 180.7 17.5633 180.76 17.39 180.76H11.59V179.46H17.39C17.5633 179.46 17.71 179.524 17.83 179.65C17.9433 179.77 18 179.927 18 180.12ZM12.15 182.33C12.15 182.504 12.0967 182.65 11.99 182.77C11.8833 182.884 11.7433 182.94 11.57 182.94C11.3967 182.94 11.26 182.884 11.16 182.77C11.0533 182.65 11 182.504 11 182.33L11 177.89C11 177.717 11.0533 177.574 11.16 177.46C11.2667 177.34 11.4067 177.28 11.58 177.28C11.7533 177.28 11.8933 177.34 12 177.46C12.1 177.574 12.15 177.717 12.15 177.89V182.33ZM11.34 164.528C11.4267 164.354 11.5633 164.254 11.75 164.228C11.9367 164.194 12.1067 164.241 12.26 164.368C12.38 164.454 12.4467 164.568 12.46 164.708C12.4733 164.841 12.4467 164.978 12.38 165.118C12.3067 165.278 12.25 165.448 12.21 165.628C12.17 165.801 12.15 165.984 12.15 166.178C12.15 166.538 12.2067 166.861 12.32 167.148C12.4333 167.428 12.5967 167.668 12.81 167.868C13.0167 168.068 13.2633 168.221 13.55 168.328C13.8367 168.428 14.1533 168.478 14.5 168.478C14.9067 168.478 15.26 168.421 15.56 168.308C15.86 168.188 16.11 168.024 16.31 167.818C16.51 167.611 16.66 167.368 16.76 167.088C16.8533 166.808 16.9 166.504 16.9 166.178C16.9 165.998 16.8833 165.818 16.85 165.638C16.8167 165.458 16.7567 165.284 16.67 165.118C16.6033 164.978 16.58 164.841 16.6 164.708C16.62 164.568 16.69 164.451 16.81 164.358C16.9767 164.224 17.15 164.178 17.33 164.218C17.5033 164.251 17.63 164.351 17.71 164.518C17.7967 164.691 17.87 164.871 17.93 165.058C17.9833 165.238 18.0233 165.421 18.05 165.608C18.0833 165.794 18.1 165.984 18.1 166.178C18.1 166.658 18.0233 167.114 17.87 167.548C17.7167 167.974 17.49 168.358 17.19 168.698C16.89 169.031 16.5167 169.294 16.07 169.488C15.6167 169.681 15.0933 169.778 14.5 169.778C13.9867 169.778 13.5133 169.691 13.08 169.518C12.6467 169.338 12.2733 169.088 11.96 168.768C11.64 168.441 11.3933 168.058 11.22 167.618C11.04 167.178 10.95 166.698 10.95 166.178C10.95 165.884 10.9833 165.598 11.05 165.318C11.1167 165.038 11.2133 164.774 11.34 164.528ZM12.57 158.588L17.65 160.748C17.7767 160.795 17.8767 160.868 17.95 160.968C18.0167 161.062 18.05 161.165 18.05 161.278C18.05 161.458 18 161.592 17.9 161.678C17.8 161.765 17.6767 161.808 17.53 161.808C17.47 161.808 17.4067 161.798 17.34 161.778L11.36 159.288C11.2267 159.235 11.1233 159.155 11.05 159.048C10.9767 158.935 10.9467 158.815 10.96 158.688C10.96 158.568 10.9967 158.458 11.07 158.358C11.1367 158.252 11.2333 158.175 11.36 158.128L17.22 155.668C17.3067 155.635 17.3867 155.618 17.46 155.618C17.64 155.618 17.7833 155.678 17.89 155.798C17.9967 155.912 18.05 156.038 18.05 156.178C18.05 156.298 18.0133 156.408 17.94 156.508C17.8667 156.602 17.7667 156.675 17.64 156.728L12.63 158.878L12.57 158.588ZM16.43 160.438L15.28 159.888V157.188L16.43 156.998V160.438ZM18 152.051C18 152.238 17.9433 152.405 17.83 152.551C17.71 152.698 17.5633 152.771 17.39 152.771H11.61C11.4367 152.771 11.2933 152.715 11.18 152.601C11.06 152.481 11 152.335 11 152.161V149.281C11 148.935 11.0933 148.611 11.28 148.311C11.46 148.005 11.7133 147.758 12.04 147.571C12.36 147.385 12.73 147.291 13.15 147.291C13.4033 147.291 13.65 147.345 13.89 147.451C14.13 147.551 14.3467 147.691 14.54 147.871C14.7333 148.045 14.8833 148.241 14.99 148.461L14.76 148.451C14.86 148.265 14.98 148.111 15.12 147.991C15.2533 147.865 15.4 147.768 15.56 147.701C15.7133 147.628 15.88 147.585 16.06 147.571C16.2267 147.545 16.3733 147.528 16.5 147.521C16.6267 147.508 16.7333 147.488 16.82 147.461C16.9067 147.428 16.9733 147.368 17.02 147.281C17.1067 147.135 17.2333 147.045 17.4 147.011C17.56 146.971 17.7033 147.008 17.83 147.121C17.9167 147.195 17.9733 147.288 18 147.401C18.02 147.515 18.02 147.628 18 147.741C17.9733 147.855 17.94 147.948 17.9 148.021C17.8333 148.135 17.7367 148.248 17.61 148.361C17.4767 148.475 17.3 148.568 17.08 148.641C16.86 148.708 16.5767 148.741 16.23 148.741C16.1167 148.741 16.0133 148.761 15.92 148.801C15.82 148.841 15.7367 148.898 15.67 148.971C15.5967 149.045 15.5433 149.138 15.51 149.251C15.47 149.365 15.45 149.498 15.45 149.651V151.671L15.22 151.521H17.39C17.5633 151.521 17.71 151.568 17.83 151.661C17.9433 151.755 18 151.885 18 152.051ZM14.42 151.661V149.331C14.42 149.211 14.3667 149.095 14.26 148.981C14.1467 148.868 13.9967 148.775 13.81 148.701C13.6167 148.628 13.4067 148.591 13.18 148.591C12.8867 148.591 12.6433 148.671 12.45 148.831C12.25 148.985 12.15 149.151 12.15 149.331V151.641L11.83 151.521H14.66L14.42 151.661ZM11 140.906C11 140.426 11.09 140 11.27 139.626C11.45 139.253 11.7033 138.94 12.03 138.686C12.35 138.426 12.7233 138.233 13.15 138.106C13.57 137.973 14.02 137.906 14.5 137.906C15.1467 137.906 15.7367 138.023 16.27 138.256C16.7967 138.49 17.2167 138.83 17.53 139.276C17.8433 139.716 18 140.26 18 140.906L18 143.296C18 143.47 17.9433 143.616 17.83 143.736C17.71 143.85 17.5633 143.906 17.39 143.906H11.61C11.4367 143.906 11.2933 143.85 11.18 143.736C11.06 143.616 11 143.47 11 143.296V140.906ZM16.85 141.006C16.85 140.586 16.7433 140.243 16.53 139.976C16.31 139.71 16.0233 139.516 15.67 139.396C15.31 139.27 14.92 139.206 14.5 139.206C14.1867 139.206 13.89 139.243 13.61 139.316C13.3233 139.383 13.0733 139.49 12.86 139.636C12.64 139.783 12.4667 139.97 12.34 140.196C12.2133 140.423 12.15 140.693 12.15 141.006V142.756L12.06 142.656H16.96L16.85 142.716V141.006Z" fill="white"/>
<rect x="56" y="230" width="122" height="26" rx="2" transform="rotate(-90 56 230)" fill="#5B588F"/>
<path d="M67.57 217.966L72.65 220.126C72.7767 220.173 72.8767 220.246 72.95 220.346C73.0167 220.439 73.05 220.543 73.05 220.656C73.05 220.836 73 220.969 72.9 221.056C72.8 221.143 72.6767 221.186 72.53 221.186C72.47 221.186 72.4067 221.176 72.34 221.156L66.36 218.666C66.2267 218.613 66.1233 218.533 66.05 218.426C65.9767 218.313 65.9467 218.193 65.96 218.066C65.96 217.946 65.9967 217.836 66.07 217.736C66.1367 217.629 66.2333 217.553 66.36 217.506L72.22 215.046C72.3067 215.013 72.3867 214.996 72.46 214.996C72.64 214.996 72.7833 215.056 72.89 215.176C72.9967 215.289 73.05 215.416 73.05 215.556C73.05 215.676 73.0133 215.786 72.94 215.886C72.8667 215.979 72.7667 216.053 72.64 216.106L67.63 218.256L67.57 217.966ZM71.43 219.816L70.28 219.266V216.566L71.43 216.376V219.816ZM66 209.149C66 208.669 66.09 208.243 66.27 207.869C66.45 207.496 66.7033 207.183 67.03 206.929C67.35 206.669 67.7233 206.476 68.15 206.349C68.57 206.216 69.02 206.149 69.5 206.149C70.1467 206.149 70.7367 206.266 71.27 206.499C71.7967 206.733 72.2167 207.073 72.53 207.519C72.8433 207.959 73 208.503 73 209.149V211.539C73 211.713 72.9433 211.859 72.83 211.979C72.71 212.093 72.5633 212.149 72.39 212.149H66.61C66.4367 212.149 66.2933 212.093 66.18 211.979C66.06 211.859 66 211.713 66 211.539V209.149ZM71.85 209.249C71.85 208.829 71.7433 208.486 71.53 208.219C71.31 207.953 71.0233 207.759 70.67 207.639C70.31 207.513 69.92 207.449 69.5 207.449C69.1867 207.449 68.89 207.486 68.61 207.559C68.3233 207.626 68.0733 207.733 67.86 207.879C67.64 208.026 67.4667 208.213 67.34 208.439C67.2133 208.666 67.15 208.936 67.15 209.249V210.999L67.06 210.899H71.96L71.85 210.959V209.249ZM66 200.001C66 199.521 66.09 199.094 66.27 198.721C66.45 198.347 66.7033 198.034 67.03 197.781C67.35 197.521 67.7233 197.327 68.15 197.201C68.57 197.067 69.02 197.001 69.5 197.001C70.1467 197.001 70.7367 197.117 71.27 197.351C71.7967 197.584 72.2167 197.924 72.53 198.371C72.8433 198.811 73 199.354 73 200.001V202.391C73 202.564 72.9433 202.711 72.83 202.831C72.71 202.944 72.5633 203.001 72.39 203.001H66.61C66.4367 203.001 66.2933 202.944 66.18 202.831C66.06 202.711 66 202.564 66 202.391V200.001ZM71.85 200.101C71.85 199.681 71.7433 199.337 71.53 199.071C71.31 198.804 71.0233 198.611 70.67 198.491C70.31 198.364 69.92 198.301 69.5 198.301C69.1867 198.301 68.89 198.337 68.61 198.411C68.3233 198.477 68.0733 198.584 67.86 198.731C67.64 198.877 67.4667 199.064 67.34 199.291C67.2133 199.517 67.15 199.787 67.15 200.101V201.851L67.06 201.751H71.96L71.85 201.811V200.101ZM73 193.132C73 193.319 72.9433 193.486 72.83 193.632C72.71 193.779 72.5633 193.852 72.39 193.852H66.61C66.4367 193.852 66.2933 193.796 66.18 193.682C66.06 193.562 66 193.416 66 193.242V190.362C66 190.016 66.0933 189.692 66.28 189.392C66.46 189.086 66.7133 188.839 67.04 188.652C67.36 188.466 67.73 188.372 68.15 188.372C68.4033 188.372 68.65 188.426 68.89 188.532C69.13 188.632 69.3467 188.772 69.54 188.952C69.7333 189.126 69.8833 189.322 69.99 189.542L69.76 189.532C69.86 189.346 69.98 189.192 70.12 189.072C70.2533 188.946 70.4 188.849 70.56 188.782C70.7133 188.709 70.88 188.666 71.06 188.652C71.2267 188.626 71.3733 188.609 71.5 188.602C71.6267 188.589 71.7333 188.569 71.82 188.542C71.9067 188.509 71.9733 188.449 72.02 188.362C72.1067 188.216 72.2333 188.126 72.4 188.092C72.56 188.052 72.7033 188.089 72.83 188.202C72.9167 188.276 72.9733 188.369 73 188.482C73.02 188.596 73.02 188.709 73 188.822C72.9733 188.936 72.94 189.029 72.9 189.102C72.8333 189.216 72.7367 189.329 72.61 189.442C72.4767 189.556 72.3 189.649 72.08 189.722C71.86 189.789 71.5767 189.822 71.23 189.822C71.1167 189.822 71.0133 189.842 70.92 189.882C70.82 189.922 70.7367 189.979 70.67 190.052C70.5967 190.126 70.5433 190.219 70.51 190.332C70.47 190.446 70.45 190.579 70.45 190.732V192.752L70.22 192.602H72.39C72.5633 192.602 72.71 192.649 72.83 192.742C72.9433 192.836 73 192.966 73 193.132ZM69.42 192.742V190.412C69.42 190.292 69.3667 190.176 69.26 190.062C69.1467 189.949 68.9967 189.856 68.81 189.782C68.6167 189.709 68.4067 189.672 68.18 189.672C67.8867 189.672 67.6433 189.752 67.45 189.912C67.25 190.066 67.15 190.232 67.15 190.412V192.722L66.83 192.602H69.66L69.42 192.742ZM66 184.377V181.027C66 180.854 66.0567 180.71 66.17 180.597C66.2767 180.477 66.4167 180.417 66.59 180.417C66.7567 180.417 66.8933 180.477 67 180.597C67.1 180.71 67.15 180.854 67.15 181.027V183.827L66.98 183.737H68.93L68.85 183.817V181.477C68.85 181.304 68.9067 181.16 69.02 181.047C69.1267 180.927 69.2667 180.867 69.44 180.867C69.6067 180.867 69.7433 180.927 69.85 181.047C69.95 181.16 70 181.304 70 181.477V183.787L69.92 183.737H71.94L71.85 183.817V181.027C71.85 180.854 71.91 180.71 72.03 180.597C72.1433 180.477 72.2767 180.417 72.43 180.417C72.5967 180.417 72.7333 180.477 72.84 180.597C72.9467 180.71 73 180.854 73 181.027V184.377C73 184.55 72.9433 184.697 72.83 184.817C72.71 184.93 72.5633 184.987 72.39 184.987H66.61C66.4367 184.987 66.2933 184.93 66.18 184.817C66.06 184.697 66 184.55 66 184.377ZM73.1 175.014C73.1 175.481 73.0433 175.901 72.93 176.274C72.81 176.648 72.6033 177.004 72.31 177.344C72.2367 177.431 72.1533 177.498 72.06 177.544C71.9667 177.591 71.8733 177.614 71.78 177.614C71.6267 177.614 71.4933 177.561 71.38 177.454C71.26 177.341 71.2 177.201 71.2 177.034C71.2 176.908 71.24 176.794 71.32 176.694C71.5267 176.441 71.6833 176.191 71.79 175.944C71.8967 175.691 71.95 175.381 71.95 175.014C71.95 174.768 71.9133 174.541 71.84 174.334C71.76 174.128 71.6567 173.961 71.53 173.834C71.3967 173.708 71.2467 173.644 71.08 173.644C70.88 173.644 70.71 173.704 70.57 173.824C70.43 173.944 70.3133 174.128 70.22 174.374C70.12 174.621 70.0433 174.934 69.99 175.314C69.9367 175.674 69.8567 175.991 69.75 176.264C69.6367 176.538 69.4967 176.768 69.33 176.954C69.1567 177.134 68.9567 177.271 68.73 177.364C68.4967 177.458 68.2367 177.504 67.95 177.504C67.5167 177.504 67.1467 177.394 66.84 177.174C66.5333 176.948 66.3 176.644 66.14 176.264C65.98 175.884 65.9 175.464 65.9 175.004C65.9 174.571 65.9667 174.171 66.1 173.804C66.2267 173.431 66.39 173.128 66.59 172.894C66.7433 172.701 66.92 172.604 67.12 172.604C67.2667 172.604 67.4 172.661 67.52 172.774C67.64 172.888 67.7 173.021 67.7 173.174C67.7 173.274 67.67 173.364 67.61 173.444C67.5167 173.551 67.43 173.694 67.35 173.874C67.2633 174.054 67.1933 174.244 67.14 174.444C67.08 174.644 67.05 174.831 67.05 175.004C67.05 175.291 67.0867 175.534 67.16 175.734C67.2333 175.928 67.3333 176.074 67.46 176.174C67.5867 176.274 67.7333 176.324 67.9 176.324C68.1 176.324 68.2667 176.268 68.4 176.154C68.5267 176.034 68.63 175.864 68.71 175.644C68.7833 175.424 68.85 175.161 68.91 174.854C68.9833 174.454 69.07 174.104 69.17 173.804C69.27 173.498 69.4 173.244 69.56 173.044C69.7133 172.844 69.91 172.694 70.15 172.594C70.3833 172.494 70.67 172.444 71.01 172.444C71.4433 172.444 71.8167 172.564 72.13 172.804C72.4433 173.044 72.6833 173.361 72.85 173.754C73.0167 174.141 73.1 174.561 73.1 175.014ZM73.1 167.048C73.1 167.514 73.0433 167.934 72.93 168.308C72.81 168.681 72.6033 169.038 72.31 169.378C72.2367 169.464 72.1533 169.531 72.06 169.578C71.9667 169.624 71.8733 169.648 71.78 169.648C71.6267 169.648 71.4933 169.594 71.38 169.488C71.26 169.374 71.2 169.234 71.2 169.068C71.2 168.941 71.24 168.828 71.32 168.728C71.5267 168.474 71.6833 168.224 71.79 167.978C71.8967 167.724 71.95 167.414 71.95 167.048C71.95 166.801 71.9133 166.574 71.84 166.368C71.76 166.161 71.6567 165.994 71.53 165.868C71.3967 165.741 71.2467 165.678 71.08 165.678C70.88 165.678 70.71 165.738 70.57 165.858C70.43 165.978 70.3133 166.161 70.22 166.408C70.12 166.654 70.0433 166.968 69.99 167.348C69.9367 167.708 69.8567 168.024 69.75 168.298C69.6367 168.571 69.4967 168.801 69.33 168.988C69.1567 169.168 68.9567 169.304 68.73 169.398C68.4967 169.491 68.2367 169.538 67.95 169.538C67.5167 169.538 67.1467 169.428 66.84 169.208C66.5333 168.981 66.3 168.678 66.14 168.298C65.98 167.918 65.9 167.498 65.9 167.038C65.9 166.604 65.9667 166.204 66.1 165.838C66.2267 165.464 66.39 165.161 66.59 164.928C66.7433 164.734 66.92 164.638 67.12 164.638C67.2667 164.638 67.4 164.694 67.52 164.808C67.64 164.921 67.7 165.054 67.7 165.208C67.7 165.308 67.67 165.398 67.61 165.478C67.5167 165.584 67.43 165.728 67.35 165.908C67.2633 166.088 67.1933 166.278 67.14 166.478C67.08 166.678 67.05 166.864 67.05 167.038C67.05 167.324 67.0867 167.568 67.16 167.768C67.2333 167.961 67.3333 168.108 67.46 168.208C67.5867 168.308 67.7333 168.358 67.9 168.358C68.1 168.358 68.2667 168.301 68.4 168.188C68.5267 168.068 68.63 167.898 68.71 167.678C68.7833 167.458 68.85 167.194 68.91 166.888C68.9833 166.488 69.07 166.138 69.17 165.838C69.27 165.531 69.4 165.278 69.56 165.078C69.7133 164.878 69.91 164.728 70.15 164.628C70.3833 164.528 70.67 164.478 71.01 164.478C71.4433 164.478 71.8167 164.598 72.13 164.838C72.4433 165.078 72.6833 165.394 72.85 165.788C73.0167 166.174 73.1 166.594 73.1 167.048Z" fill="white"/>
<rect x="112" y="230" width="103" height="26" rx="2" transform="rotate(-90 112 230)" fill="#5B588F"/>
<path d="M127.83 218.033C127.83 217.859 127.887 217.716 128 217.603C128.107 217.483 128.247 217.423 128.42 217.423C128.587 217.423 128.727 217.483 128.84 217.603C128.947 217.716 129 217.859 129 218.033V221.283C129 221.456 128.943 221.603 128.83 221.723C128.71 221.836 128.563 221.893 128.39 221.893H122.61C122.437 221.893 122.293 221.833 122.18 221.713C122.06 221.593 122 221.439 122 221.253C122 221.093 122.06 220.953 122.18 220.833C122.293 220.706 122.437 220.643 122.61 220.643H128L127.83 220.863V218.033ZM128.39 213.027C128.563 213.027 128.71 213.091 128.83 213.217C128.943 213.344 129 213.491 129 213.657C129 213.844 128.943 213.994 128.83 214.107C128.71 214.221 128.563 214.277 128.39 214.277H122.61C122.437 214.277 122.293 214.217 122.18 214.097C122.06 213.977 122 213.824 122 213.637C122 213.477 122.06 213.337 122.18 213.217C122.293 213.091 122.437 213.027 122.61 213.027H128.39ZM129.1 207.273C129.1 207.74 129.043 208.16 128.93 208.533C128.81 208.907 128.603 209.263 128.31 209.603C128.237 209.69 128.153 209.757 128.06 209.803C127.967 209.85 127.873 209.873 127.78 209.873C127.627 209.873 127.493 209.82 127.38 209.713C127.26 209.6 127.2 209.46 127.2 209.293C127.2 209.167 127.24 209.053 127.32 208.953C127.527 208.7 127.683 208.45 127.79 208.203C127.897 207.95 127.95 207.64 127.95 207.273C127.95 207.027 127.913 206.8 127.84 206.593C127.76 206.387 127.657 206.22 127.53 206.093C127.397 205.967 127.247 205.903 127.08 205.903C126.88 205.903 126.71 205.963 126.57 206.083C126.43 206.203 126.313 206.387 126.22 206.633C126.12 206.88 126.043 207.193 125.99 207.573C125.937 207.933 125.857 208.25 125.75 208.523C125.637 208.797 125.497 209.027 125.33 209.213C125.157 209.393 124.957 209.53 124.73 209.623C124.497 209.717 124.237 209.763 123.95 209.763C123.517 209.763 123.147 209.653 122.84 209.433C122.533 209.207 122.3 208.903 122.14 208.523C121.98 208.143 121.9 207.723 121.9 207.263C121.9 206.83 121.967 206.43 122.1 206.063C122.227 205.69 122.39 205.387 122.59 205.153C122.743 204.96 122.92 204.863 123.12 204.863C123.267 204.863 123.4 204.92 123.52 205.033C123.64 205.147 123.7 205.28 123.7 205.433C123.7 205.533 123.67 205.623 123.61 205.703C123.517 205.81 123.43 205.953 123.35 206.133C123.263 206.313 123.193 206.503 123.14 206.703C123.08 206.903 123.05 207.09 123.05 207.263C123.05 207.55 123.087 207.793 123.16 207.993C123.233 208.187 123.333 208.333 123.46 208.433C123.587 208.533 123.733 208.583 123.9 208.583C124.1 208.583 124.267 208.527 124.4 208.413C124.527 208.293 124.63 208.123 124.71 207.903C124.783 207.683 124.85 207.42 124.91 207.113C124.983 206.713 125.07 206.363 125.17 206.063C125.27 205.757 125.4 205.503 125.56 205.303C125.713 205.103 125.91 204.953 126.15 204.853C126.383 204.753 126.67 204.703 127.01 204.703C127.443 204.703 127.817 204.823 128.13 205.063C128.443 205.303 128.683 205.62 128.85 206.013C129.017 206.4 129.1 206.82 129.1 207.273ZM122 200.947V197.597C122 197.423 122.057 197.28 122.17 197.167C122.277 197.047 122.417 196.987 122.59 196.987C122.757 196.987 122.893 197.047 123 197.167C123.1 197.28 123.15 197.423 123.15 197.597V200.397L122.98 200.307H124.93L124.85 200.387V198.047C124.85 197.873 124.907 197.73 125.02 197.617C125.127 197.497 125.267 197.437 125.44 197.437C125.607 197.437 125.743 197.497 125.85 197.617C125.95 197.73 126 197.873 126 198.047V200.357L125.92 200.307H127.94L127.85 200.387V197.597C127.85 197.423 127.91 197.28 128.03 197.167C128.143 197.047 128.277 196.987 128.43 196.987C128.597 196.987 128.733 197.047 128.84 197.167C128.947 197.28 129 197.423 129 197.597V200.947C129 201.12 128.943 201.267 128.83 201.387C128.71 201.5 128.563 201.557 128.39 201.557H122.61C122.437 201.557 122.293 201.5 122.18 201.387C122.06 201.267 122 201.12 122 200.947ZM122 188.524C122 188.364 122.053 188.234 122.16 188.134C122.267 188.034 122.4 187.984 122.56 187.984H128.39C128.563 187.984 128.71 188.044 128.83 188.164C128.943 188.277 129 188.421 129 188.594C129 188.681 128.987 188.771 128.96 188.864C128.927 188.951 128.883 189.017 128.83 189.064L123.84 192.994L123.68 192.734H128.44C128.6 192.734 128.733 192.787 128.84 192.894C128.947 192.994 129 193.127 129 193.294C129 193.454 128.947 193.584 128.84 193.684C128.733 193.784 128.6 193.834 128.44 193.834H122.61C122.437 193.834 122.293 193.777 122.18 193.664C122.06 193.544 122 193.397 122 193.224C122 193.131 122.02 193.034 122.06 192.934C122.093 192.834 122.147 192.761 122.22 192.714L127.08 188.904L127.2 189.074H122.56C122.4 189.074 122.267 189.024 122.16 188.924C122.053 188.824 122 188.691 122 188.524ZM122.34 179.58C122.427 179.407 122.563 179.307 122.75 179.28C122.937 179.247 123.107 179.294 123.26 179.42C123.38 179.507 123.447 179.62 123.46 179.76C123.473 179.894 123.447 180.03 123.38 180.17C123.307 180.33 123.25 180.5 123.21 180.68C123.17 180.854 123.15 181.037 123.15 181.23C123.15 181.59 123.207 181.914 123.32 182.2C123.433 182.48 123.597 182.72 123.81 182.92C124.017 183.12 124.263 183.274 124.55 183.38C124.837 183.48 125.153 183.53 125.5 183.53C125.907 183.53 126.26 183.474 126.56 183.36C126.86 183.24 127.11 183.077 127.31 182.87C127.51 182.664 127.66 182.42 127.76 182.14C127.853 181.86 127.9 181.557 127.9 181.23C127.9 181.05 127.883 180.87 127.85 180.69C127.817 180.51 127.757 180.337 127.67 180.17C127.603 180.03 127.58 179.894 127.6 179.76C127.62 179.62 127.69 179.504 127.81 179.41C127.977 179.277 128.15 179.23 128.33 179.27C128.503 179.304 128.63 179.404 128.71 179.57C128.797 179.744 128.87 179.924 128.93 180.11C128.983 180.29 129.023 180.474 129.05 180.66C129.083 180.847 129.1 181.037 129.1 181.23C129.1 181.71 129.023 182.167 128.87 182.6C128.717 183.027 128.49 183.41 128.19 183.75C127.89 184.084 127.517 184.347 127.07 184.54C126.617 184.734 126.093 184.83 125.5 184.83C124.987 184.83 124.513 184.744 124.08 184.57C123.647 184.39 123.273 184.14 122.96 183.82C122.64 183.494 122.393 183.11 122.22 182.67C122.04 182.23 121.95 181.75 121.95 181.23C121.95 180.937 121.983 180.65 122.05 180.37C122.117 180.09 122.213 179.827 122.34 179.58ZM122 175.601V172.251C122 172.078 122.057 171.934 122.17 171.821C122.277 171.701 122.417 171.641 122.59 171.641C122.757 171.641 122.893 171.701 123 171.821C123.1 171.934 123.15 172.078 123.15 172.251V175.051L122.98 174.961H124.93L124.85 175.041V172.701C124.85 172.528 124.907 172.384 125.02 172.271C125.127 172.151 125.267 172.091 125.44 172.091C125.607 172.091 125.743 172.151 125.85 172.271C125.95 172.384 126 172.528 126 172.701V175.011L125.92 174.961H127.94L127.85 175.041V172.251C127.85 172.078 127.91 171.934 128.03 171.821C128.143 171.701 128.277 171.641 128.43 171.641C128.597 171.641 128.733 171.701 128.84 171.821C128.947 171.934 129 172.078 129 172.251V175.601C129 175.774 128.943 175.921 128.83 176.041C128.71 176.154 128.563 176.211 128.39 176.211H122.61C122.437 176.211 122.293 176.154 122.18 176.041C122.06 175.921 122 175.774 122 175.601Z" fill="white"/>
<rect x="168" y="230" width="78.0001" height="26" rx="2" transform="rotate(-90 168 230)" fill="#5B588F"/>
<path d="M179.57 221.109L184.65 223.269C184.777 223.316 184.877 223.389 184.95 223.489C185.017 223.582 185.05 223.686 185.05 223.799C185.05 223.979 185 224.112 184.9 224.199C184.8 224.286 184.677 224.329 184.53 224.329C184.47 224.329 184.407 224.319 184.34 224.299L178.36 221.809C178.227 221.756 178.123 221.676 178.05 221.569C177.977 221.456 177.947 221.336 177.96 221.209C177.96 221.089 177.997 220.979 178.07 220.879C178.137 220.772 178.233 220.696 178.36 220.649L184.22 218.189C184.307 218.156 184.387 218.139 184.46 218.139C184.64 218.139 184.783 218.199 184.89 218.319C184.997 218.432 185.05 218.559 185.05 218.699C185.05 218.819 185.013 218.929 184.94 219.029C184.867 219.122 184.767 219.196 184.64 219.249L179.63 221.399L179.57 221.109ZM183.43 222.959L182.28 222.409V219.709L183.43 219.519V222.959ZM177.97 207.647C177.97 207.494 178.03 207.347 178.15 207.207C178.263 207.067 178.42 206.997 178.62 206.997C178.68 206.997 178.747 207.007 178.82 207.027L184.62 208.997C184.74 209.037 184.833 209.11 184.9 209.217C184.96 209.317 184.993 209.424 185 209.537C185 209.65 184.967 209.764 184.9 209.877C184.833 209.984 184.737 210.067 184.61 210.127L181.25 211.607L181.31 211.517L184.61 212.977C184.737 213.037 184.833 213.124 184.9 213.237C184.967 213.344 185 213.454 185 213.567C184.993 213.674 184.96 213.78 184.9 213.887C184.833 213.994 184.74 214.067 184.62 214.107L178.82 216.077C178.747 216.097 178.68 216.107 178.62 216.107C178.42 216.107 178.263 216.037 178.15 215.897C178.03 215.75 177.97 215.6 177.97 215.447C177.97 215.32 178.003 215.204 178.07 215.097C178.137 214.984 178.233 214.907 178.36 214.867L183.18 213.277L183.17 213.497L179.76 212.077C179.64 212.024 179.547 211.947 179.48 211.847C179.407 211.747 179.373 211.634 179.38 211.507C179.373 211.38 179.407 211.267 179.48 211.167C179.547 211.067 179.64 210.994 179.76 210.947L183.02 209.647L183.12 209.807L178.36 208.237C178.233 208.197 178.137 208.12 178.07 208.007C178.003 207.894 177.97 207.774 177.97 207.647ZM185.1 201.931C185.1 202.398 185.043 202.818 184.93 203.191C184.81 203.564 184.603 203.921 184.31 204.261C184.237 204.348 184.153 204.414 184.06 204.461C183.967 204.508 183.873 204.531 183.78 204.531C183.627 204.531 183.493 204.478 183.38 204.371C183.26 204.258 183.2 204.118 183.2 203.951C183.2 203.824 183.24 203.711 183.32 203.611C183.527 203.358 183.683 203.108 183.79 202.861C183.897 202.608 183.95 202.298 183.95 201.931C183.95 201.684 183.913 201.458 183.84 201.251C183.76 201.044 183.657 200.878 183.53 200.751C183.397 200.624 183.247 200.561 183.08 200.561C182.88 200.561 182.71 200.621 182.57 200.741C182.43 200.861 182.313 201.044 182.22 201.291C182.12 201.538 182.043 201.851 181.99 202.231C181.937 202.591 181.857 202.908 181.75 203.181C181.637 203.454 181.497 203.684 181.33 203.871C181.157 204.051 180.957 204.188 180.73 204.281C180.497 204.374 180.237 204.421 179.95 204.421C179.517 204.421 179.147 204.311 178.84 204.091C178.533 203.864 178.3 203.561 178.14 203.181C177.98 202.801 177.9 202.381 177.9 201.921C177.9 201.488 177.967 201.088 178.1 200.721C178.227 200.348 178.39 200.044 178.59 199.811C178.743 199.618 178.92 199.521 179.12 199.521C179.267 199.521 179.4 199.578 179.52 199.691C179.64 199.804 179.7 199.938 179.7 200.091C179.7 200.191 179.67 200.281 179.61 200.361C179.517 200.468 179.43 200.611 179.35 200.791C179.263 200.971 179.193 201.161 179.14 201.361C179.08 201.561 179.05 201.748 179.05 201.921C179.05 202.208 179.087 202.451 179.16 202.651C179.233 202.844 179.333 202.991 179.46 203.091C179.587 203.191 179.733 203.241 179.9 203.241C180.1 203.241 180.267 203.184 180.4 203.071C180.527 202.951 180.63 202.781 180.71 202.561C180.783 202.341 180.85 202.078 180.91 201.771C180.983 201.371 181.07 201.021 181.17 200.721C181.27 200.414 181.4 200.161 181.56 199.961C181.713 199.761 181.91 199.611 182.15 199.511C182.383 199.411 182.67 199.361 183.01 199.361C183.443 199.361 183.817 199.481 184.13 199.721C184.443 199.961 184.683 200.278 184.85 200.671C185.017 201.058 185.1 201.478 185.1 201.931ZM185 186.591C185 186.778 184.923 186.928 184.77 187.041L181.73 189.351L180.8 188.441L183.96 186.051C184.087 185.958 184.223 185.911 184.37 185.911C184.557 185.911 184.71 185.981 184.83 186.121C184.943 186.261 185 186.418 185 186.591ZM177.95 186.471C177.95 186.311 178.017 186.181 178.15 186.081C178.277 185.975 178.407 185.921 178.54 185.921C178.68 185.921 178.81 185.981 178.93 186.101L182.94 190.291L181.51 190.341L178.18 186.961C178.027 186.808 177.95 186.645 177.95 186.471ZM185 190.791C185 190.978 184.943 191.128 184.83 191.241C184.71 191.355 184.563 191.411 184.39 191.411H178.61C178.437 191.411 178.293 191.351 178.18 191.231C178.06 191.111 178 190.958 178 190.771C178 190.585 178.06 190.438 178.18 190.331C178.293 190.218 178.437 190.161 178.61 190.161H184.39C184.563 190.161 184.71 190.218 184.83 190.331C184.943 190.445 185 190.598 185 190.791ZM178 182.249V178.899C178 178.725 178.057 178.582 178.17 178.469C178.277 178.349 178.417 178.289 178.59 178.289C178.757 178.289 178.893 178.349 179 178.469C179.1 178.582 179.15 178.725 179.15 178.899V181.699L178.98 181.609H180.93L180.85 181.689V179.349C180.85 179.175 180.907 179.032 181.02 178.919C181.127 178.799 181.267 178.739 181.44 178.739C181.607 178.739 181.743 178.799 181.85 178.919C181.95 179.032 182 179.175 182 179.349V181.659L181.92 181.609H183.94L183.85 181.689V178.899C183.85 178.725 183.91 178.582 184.03 178.469C184.143 178.349 184.277 178.289 184.43 178.289C184.597 178.289 184.733 178.349 184.84 178.469C184.947 178.582 185 178.725 185 178.899V182.249C185 182.422 184.943 182.569 184.83 182.689C184.71 182.802 184.563 182.859 184.39 182.859H178.61C178.437 182.859 178.293 182.802 178.18 182.689C178.06 182.569 178 182.422 178 182.249ZM177.97 170.676C177.97 170.523 178.03 170.386 178.15 170.266C178.263 170.139 178.41 170.076 178.59 170.076C178.65 170.076 178.713 170.086 178.78 170.106C178.84 170.119 178.9 170.146 178.96 170.186L182.21 172.456L181.52 172.276H184.39C184.563 172.276 184.71 172.336 184.83 172.456C184.943 172.569 185 172.703 185 172.856C185 173.023 184.943 173.166 184.83 173.286C184.71 173.399 184.563 173.456 184.39 173.456H181.6L181.92 173.376L179.05 175.536C178.963 175.603 178.88 175.649 178.8 175.676C178.72 175.703 178.647 175.716 178.58 175.716C178.4 175.716 178.253 175.646 178.14 175.506C178.027 175.366 177.97 175.223 177.97 175.076C177.97 174.889 178.063 174.726 178.25 174.586L180.9 172.666L180.86 172.946L178.27 171.176C178.07 171.036 177.97 170.869 177.97 170.676Z" fill="white"/>
<rect x="224" y="230" width="115" height="26" rx="2" transform="rotate(-90 224 230)" fill="#5B588F"/>
<path d="M234.34 217.563C234.427 217.39 234.563 217.29 234.75 217.263C234.937 217.23 235.107 217.277 235.26 217.403C235.38 217.49 235.447 217.603 235.46 217.743C235.473 217.877 235.447 218.013 235.38 218.153C235.307 218.313 235.25 218.483 235.21 218.663C235.17 218.837 235.15 219.02 235.15 219.213C235.15 219.573 235.207 219.897 235.32 220.183C235.433 220.463 235.597 220.703 235.81 220.903C236.017 221.103 236.263 221.257 236.55 221.363C236.837 221.463 237.153 221.513 237.5 221.513C237.907 221.513 238.26 221.457 238.56 221.343C238.86 221.223 239.11 221.06 239.31 220.853C239.51 220.647 239.66 220.403 239.76 220.123C239.853 219.843 239.9 219.54 239.9 219.213C239.9 219.033 239.883 218.853 239.85 218.673C239.817 218.493 239.757 218.32 239.67 218.153C239.603 218.013 239.58 217.877 239.6 217.743C239.62 217.603 239.69 217.487 239.81 217.393C239.977 217.26 240.15 217.213 240.33 217.253C240.503 217.287 240.63 217.387 240.71 217.553C240.797 217.727 240.87 217.907 240.93 218.093C240.983 218.273 241.023 218.457 241.05 218.643C241.083 218.83 241.1 219.02 241.1 219.213C241.1 219.693 241.023 220.15 240.87 220.583C240.717 221.01 240.49 221.393 240.19 221.733C239.89 222.067 239.517 222.33 239.07 222.523C238.617 222.717 238.093 222.813 237.5 222.813C236.987 222.813 236.513 222.727 236.08 222.553C235.647 222.373 235.273 222.123 234.96 221.803C234.64 221.477 234.393 221.093 234.22 220.653C234.04 220.213 233.95 219.733 233.95 219.213C233.95 218.92 233.983 218.633 234.05 218.353C234.117 218.073 234.213 217.81 234.34 217.563ZM241 213.474C241 213.661 240.943 213.827 240.83 213.974C240.71 214.121 240.563 214.194 240.39 214.194H234.61C234.437 214.194 234.293 214.137 234.18 214.024C234.06 213.904 234 213.757 234 213.584V210.704C234 210.357 234.093 210.034 234.28 209.734C234.46 209.427 234.713 209.181 235.04 208.994C235.36 208.807 235.73 208.714 236.15 208.714C236.403 208.714 236.65 208.767 236.89 208.874C237.13 208.974 237.347 209.114 237.54 209.294C237.733 209.467 237.883 209.664 237.99 209.884L237.76 209.874C237.86 209.687 237.98 209.534 238.12 209.414C238.253 209.287 238.4 209.191 238.56 209.124C238.713 209.051 238.88 209.007 239.06 208.994C239.227 208.967 239.373 208.951 239.5 208.944C239.627 208.931 239.733 208.911 239.82 208.884C239.907 208.851 239.973 208.791 240.02 208.704C240.107 208.557 240.233 208.467 240.4 208.434C240.56 208.394 240.703 208.431 240.83 208.544C240.917 208.617 240.973 208.711 241 208.824C241.02 208.937 241.02 209.051 241 209.164C240.973 209.277 240.94 209.371 240.9 209.444C240.833 209.557 240.737 209.671 240.61 209.784C240.477 209.897 240.3 209.991 240.08 210.064C239.86 210.131 239.577 210.164 239.23 210.164C239.117 210.164 239.013 210.184 238.92 210.224C238.82 210.264 238.737 210.321 238.67 210.394C238.597 210.467 238.543 210.561 238.51 210.674C238.47 210.787 238.45 210.921 238.45 211.074V213.094L238.22 212.944H240.39C240.563 212.944 240.71 212.991 240.83 213.084C240.943 213.177 241 213.307 241 213.474ZM237.42 213.084V210.754C237.42 210.634 237.367 210.517 237.26 210.404C237.147 210.291 236.997 210.197 236.81 210.124C236.617 210.051 236.407 210.014 236.18 210.014C235.887 210.014 235.643 210.094 235.45 210.254C235.25 210.407 235.15 210.574 235.15 210.754V213.064L234.83 212.944H237.66L237.42 213.084ZM234 204.719V201.369C234 201.195 234.057 201.052 234.17 200.939C234.277 200.819 234.417 200.759 234.59 200.759C234.757 200.759 234.893 200.819 235 200.939C235.1 201.052 235.15 201.195 235.15 201.369V204.169L234.98 204.079H236.93L236.85 204.159V201.819C236.85 201.645 236.907 201.502 237.02 201.389C237.127 201.269 237.267 201.209 237.44 201.209C237.607 201.209 237.743 201.269 237.85 201.389C237.95 201.502 238 201.645 238 201.819V204.129L237.92 204.079H239.94L239.85 204.159V201.369C239.85 201.195 239.91 201.052 240.03 200.939C240.143 200.819 240.277 200.759 240.43 200.759C240.597 200.759 240.733 200.819 240.84 200.939C240.947 201.052 241 201.195 241 201.369V204.719C241 204.892 240.943 205.039 240.83 205.159C240.71 205.272 240.563 205.329 240.39 205.329H234.61C234.437 205.329 234.293 205.272 234.18 205.159C234.06 205.039 234 204.892 234 204.719ZM234 194.606C234 194.126 234.09 193.699 234.27 193.326C234.45 192.953 234.703 192.639 235.03 192.386C235.35 192.126 235.723 191.933 236.15 191.806C236.57 191.673 237.02 191.606 237.5 191.606C238.147 191.606 238.737 191.723 239.27 191.956C239.797 192.189 240.217 192.529 240.53 192.976C240.843 193.416 241 193.959 241 194.606V196.996C241 197.169 240.943 197.316 240.83 197.436C240.71 197.549 240.563 197.606 240.39 197.606H234.61C234.437 197.606 234.293 197.549 234.18 197.436C234.06 197.316 234 197.169 234 196.996V194.606ZM239.85 194.706C239.85 194.286 239.743 193.943 239.53 193.676C239.31 193.409 239.023 193.216 238.67 193.096C238.31 192.969 237.92 192.906 237.5 192.906C237.187 192.906 236.89 192.943 236.61 193.016C236.323 193.083 236.073 193.189 235.86 193.336C235.64 193.483 235.467 193.669 235.34 193.896C235.213 194.123 235.15 194.393 235.15 194.706V196.456L235.06 196.356H239.96L239.85 196.416V194.706ZM240.39 187.208C240.563 187.208 240.71 187.271 240.83 187.398C240.943 187.524 241 187.671 241 187.838C241 188.024 240.943 188.174 240.83 188.288C240.71 188.401 240.563 188.458 240.39 188.458H234.61C234.437 188.458 234.293 188.398 234.18 188.278C234.06 188.158 234 188.004 234 187.818C234 187.658 234.06 187.518 234.18 187.398C234.293 187.271 234.437 187.208 234.61 187.208H240.39ZM241 181.334C241 181.52 240.943 181.674 240.83 181.794C240.71 181.914 240.563 181.974 240.39 181.974H234.59V180.674H240.39C240.563 180.674 240.71 180.737 240.83 180.864C240.943 180.984 241 181.14 241 181.334ZM235.15 183.544C235.15 183.717 235.097 183.864 234.99 183.984C234.883 184.097 234.743 184.154 234.57 184.154C234.397 184.154 234.26 184.097 234.16 183.984C234.053 183.864 234 183.717 234 183.544V179.104C234 178.93 234.053 178.787 234.16 178.674C234.267 178.554 234.407 178.494 234.58 178.494C234.753 178.494 234.893 178.554 235 178.674C235.1 178.787 235.15 178.93 235.15 179.104V183.544ZM234.34 165.741C234.427 165.568 234.563 165.468 234.75 165.441C234.937 165.408 235.107 165.454 235.26 165.581C235.38 165.668 235.447 165.781 235.46 165.921C235.473 166.054 235.447 166.191 235.38 166.331C235.307 166.491 235.25 166.661 235.21 166.841C235.17 167.014 235.15 167.198 235.15 167.391C235.15 167.751 235.207 168.074 235.32 168.361C235.433 168.641 235.597 168.881 235.81 169.081C236.017 169.281 236.263 169.434 236.55 169.541C236.837 169.641 237.153 169.691 237.5 169.691C237.907 169.691 238.26 169.634 238.56 169.521C238.86 169.401 239.11 169.238 239.31 169.031C239.51 168.824 239.66 168.581 239.76 168.301C239.853 168.021 239.9 167.718 239.9 167.391C239.9 167.211 239.883 167.031 239.85 166.851C239.817 166.671 239.757 166.498 239.67 166.331C239.603 166.191 239.58 166.054 239.6 165.921C239.62 165.781 239.69 165.664 239.81 165.571C239.977 165.438 240.15 165.391 240.33 165.431C240.503 165.464 240.63 165.564 240.71 165.731C240.797 165.904 240.87 166.084 240.93 166.271C240.983 166.451 241.023 166.634 241.05 166.821C241.083 167.008 241.1 167.198 241.1 167.391C241.1 167.871 241.023 168.328 240.87 168.761C240.717 169.188 240.49 169.571 240.19 169.911C239.89 170.244 239.517 170.508 239.07 170.701C238.617 170.894 238.093 170.991 237.5 170.991C236.987 170.991 236.513 170.904 236.08 170.731C235.647 170.551 235.273 170.301 234.96 169.981C234.64 169.654 234.393 169.271 234.22 168.831C234.04 168.391 233.95 167.911 233.95 167.391C233.95 167.098 233.983 166.811 234.05 166.531C234.117 166.251 234.213 165.988 234.34 165.741ZM235.57 159.802L240.65 161.962C240.777 162.008 240.877 162.082 240.95 162.182C241.017 162.275 241.05 162.378 241.05 162.492C241.05 162.672 241 162.805 240.9 162.892C240.8 162.978 240.677 163.022 240.53 163.022C240.47 163.022 240.407 163.012 240.34 162.992L234.36 160.502C234.227 160.448 234.123 160.368 234.05 160.262C233.977 160.148 233.947 160.028 233.96 159.902C233.96 159.782 233.997 159.672 234.07 159.572C234.137 159.465 234.233 159.388 234.36 159.342L240.22 156.882C240.307 156.848 240.387 156.832 240.46 156.832C240.64 156.832 240.783 156.892 240.89 157.012C240.997 157.125 241.05 157.252 241.05 157.392C241.05 157.512 241.013 157.622 240.94 157.722C240.867 157.815 240.767 157.888 240.64 157.942L235.63 160.092L235.57 159.802ZM239.43 161.652L238.28 161.102V158.402L239.43 158.212V161.652ZM241 153.265C241 153.452 240.943 153.618 240.83 153.765C240.71 153.912 240.563 153.985 240.39 153.985H234.61C234.437 153.985 234.293 153.928 234.18 153.815C234.06 153.695 234 153.548 234 153.375V150.495C234 150.148 234.093 149.825 234.28 149.525C234.46 149.218 234.713 148.972 235.04 148.785C235.36 148.598 235.73 148.505 236.15 148.505C236.403 148.505 236.65 148.558 236.89 148.665C237.13 148.765 237.347 148.905 237.54 149.085C237.733 149.258 237.883 149.455 237.99 149.675L237.76 149.665C237.86 149.478 237.98 149.325 238.12 149.205C238.253 149.078 238.4 148.982 238.56 148.915C238.713 148.842 238.88 148.798 239.06 148.785C239.227 148.758 239.373 148.742 239.5 148.735C239.627 148.722 239.733 148.702 239.82 148.675C239.907 148.642 239.973 148.582 240.02 148.495C240.107 148.348 240.233 148.258 240.4 148.225C240.56 148.185 240.703 148.222 240.83 148.335C240.917 148.408 240.973 148.502 241 148.615C241.02 148.728 241.02 148.842 241 148.955C240.973 149.068 240.94 149.162 240.9 149.235C240.833 149.348 240.737 149.462 240.61 149.575C240.477 149.688 240.3 149.782 240.08 149.855C239.86 149.922 239.577 149.955 239.23 149.955C239.117 149.955 239.013 149.975 238.92 150.015C238.82 150.055 238.737 150.112 238.67 150.185C238.597 150.258 238.543 150.352 238.51 150.465C238.47 150.578 238.45 150.712 238.45 150.865V152.885L238.22 152.735H240.39C240.563 152.735 240.71 152.782 240.83 152.875C240.943 152.968 241 153.098 241 153.265ZM237.42 152.875V150.545C237.42 150.425 237.367 150.308 237.26 150.195C237.147 150.082 236.997 149.988 236.81 149.915C236.617 149.842 236.407 149.805 236.18 149.805C235.887 149.805 235.643 149.885 235.45 150.045C235.25 150.198 235.15 150.365 235.15 150.545V152.855L234.83 152.735H237.66L237.42 152.875ZM234 142.12C234 141.64 234.09 141.213 234.27 140.84C234.45 140.466 234.703 140.153 235.03 139.9C235.35 139.64 235.723 139.446 236.15 139.32C236.57 139.186 237.02 139.12 237.5 139.12C238.147 139.12 238.737 139.236 239.27 139.47C239.797 139.703 240.217 140.043 240.53 140.49C240.843 140.93 241 141.473 241 142.12V144.51C241 144.683 240.943 144.83 240.83 144.95C240.71 145.063 240.563 145.12 240.39 145.12H234.61C234.437 145.12 234.293 145.063 234.18 144.95C234.06 144.83 234 144.683 234 144.51V142.12ZM239.85 142.22C239.85 141.8 239.743 141.456 239.53 141.19C239.31 140.923 239.023 140.73 238.67 140.61C238.31 140.483 237.92 140.42 237.5 140.42C237.187 140.42 236.89 140.456 236.61 140.53C236.323 140.596 236.073 140.703 235.86 140.85C235.64 140.996 235.467 141.183 235.34 141.41C235.213 141.636 235.15 141.906 235.15 142.22V143.97L235.06 143.87H239.96L239.85 143.93V142.22Z" fill="white"/>
</svg>
