<svg width="330" height="320" viewBox="0 0 330 320" fill="none" xmlns="http://www.w3.org/2000/svg">
<path d="M1.52588e-05 267L6.69136e-06 71L109 71C117.837 71 125 78.1634 125 87L125 251C125 259.837 117.837 267 109 267L1.52588e-05 267Z" fill="#F9F9FD"/>
<path d="M58.96 99.1C58.48 99.1 58.0533 99.0333 57.68 98.9C57.3067 98.7667 56.95 98.5467 56.61 98.24C56.5367 98.1867 56.48 98.1233 56.44 98.05C56.4067 97.97 56.39 97.89 56.39 97.81C56.39 97.6833 56.4367 97.57 56.53 97.47C56.6233 97.37 56.74 97.32 56.88 97.32C56.9867 97.32 57.0867 97.3567 57.18 97.43C57.4333 97.6633 57.6967 97.84 57.97 97.96C58.25 98.08 58.5767 98.14 58.95 98.14C59.2167 98.14 59.46 98.0967 59.68 98.01C59.9067 97.9233 60.0867 97.8067 60.22 97.66C60.3533 97.5133 60.42 97.3433 60.42 97.15C60.42 96.91 60.35 96.7133 60.21 96.56C60.0767 96.4 59.88 96.27 59.62 96.17C59.3667 96.0633 59.06 95.9733 58.7 95.9C58.3667 95.84 58.0667 95.7567 57.8 95.65C57.54 95.5433 57.3167 95.41 57.13 95.25C56.9433 95.0833 56.8 94.8867 56.7 94.66C56.6 94.4333 56.55 94.17 56.55 93.87C56.55 93.4633 56.6567 93.1133 56.87 92.82C57.0833 92.5267 57.3733 92.3 57.74 92.14C58.1067 91.98 58.52 91.9 58.98 91.9C59.4 91.9 59.7933 91.9667 60.16 92.1C60.5267 92.2267 60.8233 92.4 61.05 92.62C61.21 92.76 61.29 92.91 61.29 93.07C61.29 93.19 61.24 93.3033 61.14 93.41C61.0467 93.51 60.9367 93.56 60.81 93.56C60.7167 93.56 60.6367 93.5333 60.57 93.48C60.4633 93.3667 60.32 93.2667 60.14 93.18C59.96 93.0867 59.7667 93.01 59.56 92.95C59.36 92.89 59.1667 92.86 58.98 92.86C58.68 92.86 58.4233 92.9033 58.21 92.99C57.9967 93.07 57.8333 93.1833 57.72 93.33C57.6067 93.47 57.55 93.6367 57.55 93.83C57.55 94.0567 57.6133 94.2433 57.74 94.39C57.8733 94.5367 58.0567 94.6567 58.29 94.75C58.5233 94.8367 58.79 94.9167 59.09 94.99C59.4567 95.07 59.7833 95.16 60.07 95.26C60.3633 95.36 60.61 95.49 60.81 95.65C61.01 95.8033 61.1633 95.9967 61.27 96.23C61.3767 96.4633 61.43 96.7533 61.43 97.1C61.43 97.5 61.3167 97.85 61.09 98.15C60.8633 98.45 60.5633 98.6833 60.19 98.85C59.8233 99.0167 59.4133 99.1 58.96 99.1ZM66.4696 93.74C66.6096 93.74 66.7263 93.79 66.8196 93.89C66.9196 93.9833 66.9696 94.1033 66.9696 94.25V96.88C66.9696 97.5733 66.7763 98.1167 66.3896 98.51C66.0029 98.8967 65.4563 99.09 64.7496 99.09C64.0496 99.09 63.5063 98.8967 63.1196 98.51C62.7396 98.1167 62.5496 97.5733 62.5496 96.88V94.25C62.5496 94.1033 62.5963 93.9833 62.6896 93.89C62.7829 93.79 62.9029 93.74 63.0496 93.74C63.1896 93.74 63.3063 93.79 63.3996 93.89C63.4996 93.9833 63.5496 94.1033 63.5496 94.25V96.88C63.5496 97.3133 63.6496 97.6367 63.8496 97.85C64.0563 98.0633 64.3563 98.17 64.7496 98.17C65.1496 98.17 65.4529 98.0633 65.6596 97.85C65.8663 97.6367 65.9696 97.3133 65.9696 96.88V94.25C65.9696 94.1033 66.0163 93.9833 66.1096 93.89C66.2029 93.79 66.3229 93.74 66.4696 93.74ZM71.0102 93.62C71.4768 93.62 71.8902 93.7367 72.2502 93.97C72.6168 94.2033 72.9068 94.5267 73.1202 94.94C73.3335 95.3467 73.4402 95.8167 73.4402 96.35C73.4402 96.8833 73.3335 97.3567 73.1202 97.77C72.9068 98.1833 72.6202 98.51 72.2602 98.75C71.9002 98.9833 71.4935 99.1 71.0402 99.1C70.7868 99.1 70.5468 99.06 70.3202 98.98C70.0935 98.8933 69.8935 98.7867 69.7202 98.66C69.5468 98.5267 69.4035 98.3867 69.2902 98.24C69.1835 98.0933 69.1168 97.9567 69.0902 97.83L69.3602 97.7V98.57C69.3602 98.71 69.3102 98.83 69.2102 98.93C69.1168 99.0233 69.0002 99.07 68.8602 99.07C68.7135 99.07 68.5935 99.0233 68.5002 98.93C68.4068 98.8367 68.3602 98.7167 68.3602 98.57V92.11C68.3602 91.9633 68.4068 91.8433 68.5002 91.75C68.5935 91.65 68.7135 91.6 68.8602 91.6C69.0002 91.6 69.1168 91.65 69.2102 91.75C69.3102 91.8433 69.3602 91.9633 69.3602 92.11V94.92L69.2002 94.83C69.2202 94.7033 69.2835 94.5733 69.3902 94.44C69.4968 94.3 69.6302 94.1667 69.7902 94.04C69.9568 93.9133 70.1435 93.8133 70.3502 93.74C70.5635 93.66 70.7835 93.62 71.0102 93.62ZM70.9002 94.54C70.5802 94.54 70.3002 94.62 70.0602 94.78C69.8268 94.94 69.6435 95.1567 69.5102 95.43C69.3768 95.6967 69.3102 96.0033 69.3102 96.35C69.3102 96.6967 69.3768 97.01 69.5102 97.29C69.6435 97.5633 69.8268 97.78 70.0602 97.94C70.3002 98.1 70.5802 98.18 70.9002 98.18C71.2135 98.18 71.4868 98.1 71.7202 97.94C71.9535 97.78 72.1368 97.56 72.2702 97.28C72.4102 97 72.4802 96.69 72.4802 96.35C72.4802 96.0033 72.4102 95.6967 72.2702 95.43C72.1368 95.1567 71.9535 94.94 71.7202 94.78C71.4868 94.62 71.2135 94.54 70.9002 94.54ZM75.7111 99.22C75.7111 99.58 75.6378 99.89 75.4911 100.15C75.3444 100.41 75.1511 100.61 74.9111 100.75C74.6711 100.89 74.4144 100.96 74.1411 100.96C74.0011 100.96 73.8878 100.913 73.8011 100.82C73.7144 100.733 73.6711 100.627 73.6711 100.5V100.41C73.6711 100.29 73.7144 100.193 73.8011 100.12C73.8811 100.047 73.9811 99.99 74.1011 99.95C74.2544 99.9033 74.3744 99.8333 74.4611 99.74C74.5544 99.6533 74.6178 99.54 74.6511 99.4C74.6911 99.2667 74.7111 99.12 74.7111 98.96V94.24C74.7111 94.1 74.7578 93.9833 74.8511 93.89C74.9444 93.79 75.0644 93.74 75.2111 93.74C75.3578 93.74 75.4778 93.79 75.5711 93.89C75.6644 93.9833 75.7111 94.1 75.7111 94.24V99.22ZM75.1911 93.04C74.9978 93.04 74.8578 93.0067 74.7711 92.94C74.6844 92.8667 74.6411 92.7467 74.6411 92.58V92.42C74.6411 92.2533 74.6878 92.1367 74.7811 92.07C74.8744 92.0033 75.0144 91.97 75.2011 91.97C75.4011 91.97 75.5444 92.0067 75.6311 92.08C75.7178 92.1467 75.7611 92.26 75.7611 92.42V92.58C75.7611 92.7533 75.7144 92.8733 75.6211 92.94C75.5344 93.0067 75.3911 93.04 75.1911 93.04ZM79.7555 99.1C79.2021 99.1 78.7221 98.9867 78.3155 98.76C77.9088 98.5267 77.5921 98.21 77.3655 97.81C77.1455 97.4033 77.0355 96.94 77.0355 96.42C77.0355 95.8333 77.1521 95.3333 77.3855 94.92C77.6255 94.5 77.9355 94.18 78.3155 93.96C78.6955 93.7333 79.0988 93.62 79.5255 93.62C79.8521 93.62 80.1621 93.6867 80.4555 93.82C80.7488 93.9467 81.0088 94.1267 81.2355 94.36C81.4688 94.5867 81.6521 94.8567 81.7855 95.17C81.9188 95.4767 81.9888 95.8133 81.9955 96.18C81.9888 96.3133 81.9355 96.4233 81.8355 96.51C81.7355 96.5967 81.6188 96.64 81.4855 96.64H77.5955L77.3555 95.79H81.1155L80.9255 95.97V95.72C80.9121 95.4867 80.8355 95.2833 80.6955 95.11C80.5555 94.93 80.3821 94.7933 80.1755 94.7C79.9688 94.6 79.7521 94.55 79.5255 94.55C79.3255 94.55 79.1321 94.5833 78.9455 94.65C78.7655 94.71 78.6021 94.81 78.4555 94.95C78.3155 95.09 78.2021 95.2767 78.1155 95.51C78.0355 95.7367 77.9955 96.02 77.9955 96.36C77.9955 96.7267 78.0721 97.0467 78.2255 97.32C78.3788 97.5933 78.5855 97.8067 78.8455 97.96C79.1055 98.1067 79.3921 98.18 79.7055 98.18C79.9521 98.18 80.1555 98.1567 80.3155 98.11C80.4755 98.0567 80.6088 97.9933 80.7155 97.92C80.8221 97.8467 80.9155 97.7767 80.9955 97.71C81.0955 97.65 81.1955 97.62 81.2955 97.62C81.4155 97.62 81.5155 97.6633 81.5955 97.75C81.6755 97.83 81.7155 97.9267 81.7155 98.04C81.7155 98.1867 81.6421 98.32 81.4955 98.44C81.3155 98.6133 81.0655 98.7667 80.7455 98.9C80.4321 99.0333 80.1021 99.1 79.7555 99.1ZM85.4558 93.62C85.8158 93.62 86.1358 93.66 86.4158 93.74C86.6958 93.8133 86.9124 93.92 87.0658 94.06C87.2258 94.1933 87.3058 94.35 87.3058 94.53C87.3058 94.6433 87.2724 94.75 87.2058 94.85C87.1391 94.9433 87.0391 94.99 86.9058 94.99C86.8124 94.99 86.7324 94.9733 86.6658 94.94C86.6058 94.9067 86.5491 94.8667 86.4958 94.82C86.4424 94.7733 86.3758 94.7267 86.2958 94.68C86.2224 94.64 86.1124 94.6067 85.9658 94.58C85.8258 94.5533 85.6991 94.54 85.5858 94.54C85.2324 94.54 84.9258 94.62 84.6658 94.78C84.4124 94.94 84.2124 95.1567 84.0658 95.43C83.9258 95.7033 83.8558 96.0133 83.8558 96.36C83.8558 96.7067 83.9258 97.0167 84.0658 97.29C84.2124 97.5633 84.4091 97.78 84.6558 97.94C84.9091 98.1 85.2024 98.18 85.5358 98.18C85.7358 98.18 85.8991 98.1667 86.0258 98.14C86.1524 98.1067 86.2624 98.0667 86.3558 98.02C86.4558 97.96 86.5391 97.9 86.6058 97.84C86.6791 97.7733 86.7791 97.74 86.9058 97.74C87.0524 97.74 87.1624 97.7867 87.2358 97.88C87.3158 97.9667 87.3558 98.0767 87.3558 98.21C87.3558 98.3567 87.2658 98.5 87.0858 98.64C86.9124 98.7733 86.6791 98.8833 86.3858 98.97C86.0924 99.0567 85.7691 99.1 85.4158 99.1C84.8958 99.1 84.4424 98.98 84.0558 98.74C83.6758 98.5 83.3791 98.1733 83.1658 97.76C82.9591 97.3467 82.8558 96.88 82.8558 96.36C82.8558 95.8333 82.9658 95.3667 83.1858 94.96C83.4058 94.5467 83.7124 94.22 84.1058 93.98C84.4991 93.74 84.9491 93.62 85.4558 93.62ZM88.2413 93.8H90.5913C90.7247 93.8 90.8347 93.8467 90.9213 93.94C91.0147 94.0267 91.0613 94.1367 91.0613 94.27C91.0613 94.3967 91.0147 94.5033 90.9213 94.59C90.8347 94.6767 90.7247 94.72 90.5913 94.72H88.2413C88.108 94.72 87.9947 94.6767 87.9013 94.59C87.8147 94.4967 87.7713 94.3867 87.7713 94.26C87.7713 94.1267 87.8147 94.0167 87.9013 93.93C87.9947 93.8433 88.108 93.8 88.2413 93.8ZM89.2913 92.5C89.438 92.5 89.558 92.55 89.6513 92.65C89.7447 92.7433 89.7913 92.8633 89.7913 93.01V97.65C89.7913 97.77 89.8113 97.8667 89.8513 97.94C89.8913 98.0133 89.9447 98.0633 90.0113 98.09C90.0847 98.1167 90.158 98.13 90.2313 98.13C90.3047 98.13 90.368 98.1167 90.4213 98.09C90.4813 98.0633 90.5513 98.05 90.6313 98.05C90.7113 98.05 90.7847 98.0867 90.8513 98.16C90.918 98.2333 90.9513 98.3333 90.9513 98.46C90.9513 98.62 90.8647 98.75 90.6913 98.85C90.518 98.95 90.3313 99 90.1313 99C90.018 99 89.8847 98.99 89.7313 98.97C89.578 98.95 89.428 98.9 89.2813 98.82C89.1413 98.74 89.0247 98.6133 88.9313 98.44C88.838 98.26 88.7913 98.01 88.7913 97.69V93.01C88.7913 92.8633 88.838 92.7433 88.9313 92.65C89.0313 92.55 89.1513 92.5 89.2913 92.5ZM96.592 99C96.4386 99 96.312 98.9533 96.212 98.86C96.112 98.76 96.062 98.6367 96.062 98.49V93.13L96.192 93.31L95.262 93.96C95.182 94.0267 95.0853 94.06 94.972 94.06C94.8386 94.06 94.7186 94.01 94.612 93.91C94.512 93.8033 94.462 93.68 94.462 93.54C94.462 93.3667 94.5486 93.2233 94.722 93.11L96.242 92.1C96.302 92.06 96.3653 92.0333 96.432 92.02C96.5053 92.0067 96.572 92 96.632 92C96.7853 92 96.9086 92.05 97.002 92.15C97.0953 92.2433 97.142 92.3633 97.142 92.51V98.49C97.142 98.6367 97.0886 98.76 96.982 98.86C96.882 98.9533 96.752 99 96.592 99Z" fill="#19191F"/>
<path d="M58.96 143.1C58.48 143.1 58.0533 143.033 57.68 142.9C57.3067 142.767 56.95 142.547 56.61 142.24C56.5367 142.187 56.48 142.123 56.44 142.05C56.4067 141.97 56.39 141.89 56.39 141.81C56.39 141.683 56.4367 141.57 56.53 141.47C56.6233 141.37 56.74 141.32 56.88 141.32C56.9867 141.32 57.0867 141.357 57.18 141.43C57.4333 141.663 57.6967 141.84 57.97 141.96C58.25 142.08 58.5767 142.14 58.95 142.14C59.2167 142.14 59.46 142.097 59.68 142.01C59.9067 141.923 60.0867 141.807 60.22 141.66C60.3533 141.513 60.42 141.343 60.42 141.15C60.42 140.91 60.35 140.713 60.21 140.56C60.0767 140.4 59.88 140.27 59.62 140.17C59.3667 140.063 59.06 139.973 58.7 139.9C58.3667 139.84 58.0667 139.757 57.8 139.65C57.54 139.543 57.3167 139.41 57.13 139.25C56.9433 139.083 56.8 138.887 56.7 138.66C56.6 138.433 56.55 138.17 56.55 137.87C56.55 137.463 56.6567 137.113 56.87 136.82C57.0833 136.527 57.3733 136.3 57.74 136.14C58.1067 135.98 58.52 135.9 58.98 135.9C59.4 135.9 59.7933 135.967 60.16 136.1C60.5267 136.227 60.8233 136.4 61.05 136.62C61.21 136.76 61.29 136.91 61.29 137.07C61.29 137.19 61.24 137.303 61.14 137.41C61.0467 137.51 60.9367 137.56 60.81 137.56C60.7167 137.56 60.6367 137.533 60.57 137.48C60.4633 137.367 60.32 137.267 60.14 137.18C59.96 137.087 59.7667 137.01 59.56 136.95C59.36 136.89 59.1667 136.86 58.98 136.86C58.68 136.86 58.4233 136.903 58.21 136.99C57.9967 137.07 57.8333 137.183 57.72 137.33C57.6067 137.47 57.55 137.637 57.55 137.83C57.55 138.057 57.6133 138.243 57.74 138.39C57.8733 138.537 58.0567 138.657 58.29 138.75C58.5233 138.837 58.79 138.917 59.09 138.99C59.4567 139.07 59.7833 139.16 60.07 139.26C60.3633 139.36 60.61 139.49 60.81 139.65C61.01 139.803 61.1633 139.997 61.27 140.23C61.3767 140.463 61.43 140.753 61.43 141.1C61.43 141.5 61.3167 141.85 61.09 142.15C60.8633 142.45 60.5633 142.683 60.19 142.85C59.8233 143.017 59.4133 143.1 58.96 143.1ZM66.4696 137.74C66.6096 137.74 66.7263 137.79 66.8196 137.89C66.9196 137.983 66.9696 138.103 66.9696 138.25V140.88C66.9696 141.573 66.7763 142.117 66.3896 142.51C66.0029 142.897 65.4563 143.09 64.7496 143.09C64.0496 143.09 63.5063 142.897 63.1196 142.51C62.7396 142.117 62.5496 141.573 62.5496 140.88V138.25C62.5496 138.103 62.5963 137.983 62.6896 137.89C62.7829 137.79 62.9029 137.74 63.0496 137.74C63.1896 137.74 63.3063 137.79 63.3996 137.89C63.4996 137.983 63.5496 138.103 63.5496 138.25V140.88C63.5496 141.313 63.6496 141.637 63.8496 141.85C64.0563 142.063 64.3563 142.17 64.7496 142.17C65.1496 142.17 65.4529 142.063 65.6596 141.85C65.8663 141.637 65.9696 141.313 65.9696 140.88V138.25C65.9696 138.103 66.0163 137.983 66.1096 137.89C66.2029 137.79 66.3229 137.74 66.4696 137.74ZM71.0102 137.62C71.4768 137.62 71.8902 137.737 72.2502 137.97C72.6168 138.203 72.9068 138.527 73.1202 138.94C73.3335 139.347 73.4402 139.817 73.4402 140.35C73.4402 140.883 73.3335 141.357 73.1202 141.77C72.9068 142.183 72.6202 142.51 72.2602 142.75C71.9002 142.983 71.4935 143.1 71.0402 143.1C70.7868 143.1 70.5468 143.06 70.3202 142.98C70.0935 142.893 69.8935 142.787 69.7202 142.66C69.5468 142.527 69.4035 142.387 69.2902 142.24C69.1835 142.093 69.1168 141.957 69.0902 141.83L69.3602 141.7V142.57C69.3602 142.71 69.3102 142.83 69.2102 142.93C69.1168 143.023 69.0002 143.07 68.8602 143.07C68.7135 143.07 68.5935 143.023 68.5002 142.93C68.4068 142.837 68.3602 142.717 68.3602 142.57V136.11C68.3602 135.963 68.4068 135.843 68.5002 135.75C68.5935 135.65 68.7135 135.6 68.8602 135.6C69.0002 135.6 69.1168 135.65 69.2102 135.75C69.3102 135.843 69.3602 135.963 69.3602 136.11V138.92L69.2002 138.83C69.2202 138.703 69.2835 138.573 69.3902 138.44C69.4968 138.3 69.6302 138.167 69.7902 138.04C69.9568 137.913 70.1435 137.813 70.3502 137.74C70.5635 137.66 70.7835 137.62 71.0102 137.62ZM70.9002 138.54C70.5802 138.54 70.3002 138.62 70.0602 138.78C69.8268 138.94 69.6435 139.157 69.5102 139.43C69.3768 139.697 69.3102 140.003 69.3102 140.35C69.3102 140.697 69.3768 141.01 69.5102 141.29C69.6435 141.563 69.8268 141.78 70.0602 141.94C70.3002 142.1 70.5802 142.18 70.9002 142.18C71.2135 142.18 71.4868 142.1 71.7202 141.94C71.9535 141.78 72.1368 141.56 72.2702 141.28C72.4102 141 72.4802 140.69 72.4802 140.35C72.4802 140.003 72.4102 139.697 72.2702 139.43C72.1368 139.157 71.9535 138.94 71.7202 138.78C71.4868 138.62 71.2135 138.54 70.9002 138.54ZM75.7111 143.22C75.7111 143.58 75.6378 143.89 75.4911 144.15C75.3444 144.41 75.1511 144.61 74.9111 144.75C74.6711 144.89 74.4144 144.96 74.1411 144.96C74.0011 144.96 73.8878 144.913 73.8011 144.82C73.7144 144.733 73.6711 144.627 73.6711 144.5V144.41C73.6711 144.29 73.7144 144.193 73.8011 144.12C73.8811 144.047 73.9811 143.99 74.1011 143.95C74.2544 143.903 74.3744 143.833 74.4611 143.74C74.5544 143.653 74.6178 143.54 74.6511 143.4C74.6911 143.267 74.7111 143.12 74.7111 142.96V138.24C74.7111 138.1 74.7578 137.983 74.8511 137.89C74.9444 137.79 75.0644 137.74 75.2111 137.74C75.3578 137.74 75.4778 137.79 75.5711 137.89C75.6644 137.983 75.7111 138.1 75.7111 138.24V143.22ZM75.1911 137.04C74.9978 137.04 74.8578 137.007 74.7711 136.94C74.6844 136.867 74.6411 136.747 74.6411 136.58V136.42C74.6411 136.253 74.6878 136.137 74.7811 136.07C74.8744 136.003 75.0144 135.97 75.2011 135.97C75.4011 135.97 75.5444 136.007 75.6311 136.08C75.7178 136.147 75.7611 136.26 75.7611 136.42V136.58C75.7611 136.753 75.7144 136.873 75.6211 136.94C75.5344 137.007 75.3911 137.04 75.1911 137.04ZM79.7555 143.1C79.2021 143.1 78.7221 142.987 78.3155 142.76C77.9088 142.527 77.5921 142.21 77.3655 141.81C77.1455 141.403 77.0355 140.94 77.0355 140.42C77.0355 139.833 77.1521 139.333 77.3855 138.92C77.6255 138.5 77.9355 138.18 78.3155 137.96C78.6955 137.733 79.0988 137.62 79.5255 137.62C79.8521 137.62 80.1621 137.687 80.4555 137.82C80.7488 137.947 81.0088 138.127 81.2355 138.36C81.4688 138.587 81.6521 138.857 81.7855 139.17C81.9188 139.477 81.9888 139.813 81.9955 140.18C81.9888 140.313 81.9355 140.423 81.8355 140.51C81.7355 140.597 81.6188 140.64 81.4855 140.64H77.5955L77.3555 139.79H81.1155L80.9255 139.97V139.72C80.9121 139.487 80.8355 139.283 80.6955 139.11C80.5555 138.93 80.3821 138.793 80.1755 138.7C79.9688 138.6 79.7521 138.55 79.5255 138.55C79.3255 138.55 79.1321 138.583 78.9455 138.65C78.7655 138.71 78.6021 138.81 78.4555 138.95C78.3155 139.09 78.2021 139.277 78.1155 139.51C78.0355 139.737 77.9955 140.02 77.9955 140.36C77.9955 140.727 78.0721 141.047 78.2255 141.32C78.3788 141.593 78.5855 141.807 78.8455 141.96C79.1055 142.107 79.3921 142.18 79.7055 142.18C79.9521 142.18 80.1555 142.157 80.3155 142.11C80.4755 142.057 80.6088 141.993 80.7155 141.92C80.8221 141.847 80.9155 141.777 80.9955 141.71C81.0955 141.65 81.1955 141.62 81.2955 141.62C81.4155 141.62 81.5155 141.663 81.5955 141.75C81.6755 141.83 81.7155 141.927 81.7155 142.04C81.7155 142.187 81.6421 142.32 81.4955 142.44C81.3155 142.613 81.0655 142.767 80.7455 142.9C80.4321 143.033 80.1021 143.1 79.7555 143.1ZM85.4558 137.62C85.8158 137.62 86.1358 137.66 86.4158 137.74C86.6958 137.813 86.9124 137.92 87.0658 138.06C87.2258 138.193 87.3058 138.35 87.3058 138.53C87.3058 138.643 87.2724 138.75 87.2058 138.85C87.1391 138.943 87.0391 138.99 86.9058 138.99C86.8124 138.99 86.7324 138.973 86.6658 138.94C86.6058 138.907 86.5491 138.867 86.4958 138.82C86.4424 138.773 86.3758 138.727 86.2958 138.68C86.2224 138.64 86.1124 138.607 85.9658 138.58C85.8258 138.553 85.6991 138.54 85.5858 138.54C85.2324 138.54 84.9258 138.62 84.6658 138.78C84.4124 138.94 84.2124 139.157 84.0658 139.43C83.9258 139.703 83.8558 140.013 83.8558 140.36C83.8558 140.707 83.9258 141.017 84.0658 141.29C84.2124 141.563 84.4091 141.78 84.6558 141.94C84.9091 142.1 85.2024 142.18 85.5358 142.18C85.7358 142.18 85.8991 142.167 86.0258 142.14C86.1524 142.107 86.2624 142.067 86.3558 142.02C86.4558 141.96 86.5391 141.9 86.6058 141.84C86.6791 141.773 86.7791 141.74 86.9058 141.74C87.0524 141.74 87.1624 141.787 87.2358 141.88C87.3158 141.967 87.3558 142.077 87.3558 142.21C87.3558 142.357 87.2658 142.5 87.0858 142.64C86.9124 142.773 86.6791 142.883 86.3858 142.97C86.0924 143.057 85.7691 143.1 85.4158 143.1C84.8958 143.1 84.4424 142.98 84.0558 142.74C83.6758 142.5 83.3791 142.173 83.1658 141.76C82.9591 141.347 82.8558 140.88 82.8558 140.36C82.8558 139.833 82.9658 139.367 83.1858 138.96C83.4058 138.547 83.7124 138.22 84.1058 137.98C84.4991 137.74 84.9491 137.62 85.4558 137.62ZM88.2413 137.8H90.5913C90.7247 137.8 90.8347 137.847 90.9213 137.94C91.0147 138.027 91.0613 138.137 91.0613 138.27C91.0613 138.397 91.0147 138.503 90.9213 138.59C90.8347 138.677 90.7247 138.72 90.5913 138.72H88.2413C88.108 138.72 87.9947 138.677 87.9013 138.59C87.8147 138.497 87.7713 138.387 87.7713 138.26C87.7713 138.127 87.8147 138.017 87.9013 137.93C87.9947 137.843 88.108 137.8 88.2413 137.8ZM89.2913 136.5C89.438 136.5 89.558 136.55 89.6513 136.65C89.7447 136.743 89.7913 136.863 89.7913 137.01V141.65C89.7913 141.77 89.8113 141.867 89.8513 141.94C89.8913 142.013 89.9447 142.063 90.0113 142.09C90.0847 142.117 90.158 142.13 90.2313 142.13C90.3047 142.13 90.368 142.117 90.4213 142.09C90.4813 142.063 90.5513 142.05 90.6313 142.05C90.7113 142.05 90.7847 142.087 90.8513 142.16C90.918 142.233 90.9513 142.333 90.9513 142.46C90.9513 142.62 90.8647 142.75 90.6913 142.85C90.518 142.95 90.3313 143 90.1313 143C90.018 143 89.8847 142.99 89.7313 142.97C89.578 142.95 89.428 142.9 89.2813 142.82C89.1413 142.74 89.0247 142.613 88.9313 142.44C88.838 142.26 88.7913 142.01 88.7913 141.69V137.01C88.7913 136.863 88.838 136.743 88.9313 136.65C89.0313 136.55 89.1513 136.5 89.2913 136.5ZM98.882 142.07C99.0153 142.07 99.1253 142.117 99.212 142.21C99.3053 142.297 99.352 142.407 99.352 142.54C99.352 142.673 99.3053 142.783 99.212 142.87C99.1253 142.957 99.0153 143 98.882 143H95.372C95.2253 143 95.1086 142.957 95.022 142.87C94.9353 142.783 94.892 142.667 94.892 142.52C94.892 142.387 94.9386 142.267 95.032 142.16L97.262 139.75C97.5486 139.443 97.7686 139.14 97.922 138.84C98.082 138.54 98.162 138.277 98.162 138.05C98.162 137.683 98.052 137.387 97.832 137.16C97.612 136.933 97.322 136.82 96.962 136.82C96.8086 136.82 96.652 136.857 96.492 136.93C96.3386 136.997 96.192 137.09 96.052 137.21C95.9186 137.323 95.802 137.457 95.702 137.61C95.6353 137.703 95.5686 137.763 95.502 137.79C95.4353 137.817 95.372 137.83 95.312 137.83C95.1853 137.83 95.0686 137.787 94.962 137.7C94.862 137.607 94.812 137.5 94.812 137.38C94.812 137.287 94.842 137.197 94.902 137.11C94.962 137.023 95.0386 136.933 95.132 136.84C95.2786 136.66 95.4553 136.5 95.662 136.36C95.8753 136.213 96.0986 136.1 96.332 136.02C96.5653 135.94 96.7953 135.9 97.022 135.9C97.462 135.9 97.842 135.987 98.162 136.16C98.4886 136.333 98.7386 136.577 98.912 136.89C99.092 137.203 99.182 137.573 99.182 138C99.182 138.36 99.072 138.76 98.852 139.2C98.6386 139.633 98.3386 140.06 97.952 140.48L96.402 142.17L96.292 142.07H98.882Z" fill="#19191F"/>
<path d="M58.96 187.1C58.48 187.1 58.0533 187.033 57.68 186.9C57.3067 186.767 56.95 186.547 56.61 186.24C56.5367 186.187 56.48 186.123 56.44 186.05C56.4067 185.97 56.39 185.89 56.39 185.81C56.39 185.683 56.4367 185.57 56.53 185.47C56.6233 185.37 56.74 185.32 56.88 185.32C56.9867 185.32 57.0867 185.357 57.18 185.43C57.4333 185.663 57.6967 185.84 57.97 185.96C58.25 186.08 58.5767 186.14 58.95 186.14C59.2167 186.14 59.46 186.097 59.68 186.01C59.9067 185.923 60.0867 185.807 60.22 185.66C60.3533 185.513 60.42 185.343 60.42 185.15C60.42 184.91 60.35 184.713 60.21 184.56C60.0767 184.4 59.88 184.27 59.62 184.17C59.3667 184.063 59.06 183.973 58.7 183.9C58.3667 183.84 58.0667 183.757 57.8 183.65C57.54 183.543 57.3167 183.41 57.13 183.25C56.9433 183.083 56.8 182.887 56.7 182.66C56.6 182.433 56.55 182.17 56.55 181.87C56.55 181.463 56.6567 181.113 56.87 180.82C57.0833 180.527 57.3733 180.3 57.74 180.14C58.1067 179.98 58.52 179.9 58.98 179.9C59.4 179.9 59.7933 179.967 60.16 180.1C60.5267 180.227 60.8233 180.4 61.05 180.62C61.21 180.76 61.29 180.91 61.29 181.07C61.29 181.19 61.24 181.303 61.14 181.41C61.0467 181.51 60.9367 181.56 60.81 181.56C60.7167 181.56 60.6367 181.533 60.57 181.48C60.4633 181.367 60.32 181.267 60.14 181.18C59.96 181.087 59.7667 181.01 59.56 180.95C59.36 180.89 59.1667 180.86 58.98 180.86C58.68 180.86 58.4233 180.903 58.21 180.99C57.9967 181.07 57.8333 181.183 57.72 181.33C57.6067 181.47 57.55 181.637 57.55 181.83C57.55 182.057 57.6133 182.243 57.74 182.39C57.8733 182.537 58.0567 182.657 58.29 182.75C58.5233 182.837 58.79 182.917 59.09 182.99C59.4567 183.07 59.7833 183.16 60.07 183.26C60.3633 183.36 60.61 183.49 60.81 183.65C61.01 183.803 61.1633 183.997 61.27 184.23C61.3767 184.463 61.43 184.753 61.43 185.1C61.43 185.5 61.3167 185.85 61.09 186.15C60.8633 186.45 60.5633 186.683 60.19 186.85C59.8233 187.017 59.4133 187.1 58.96 187.1ZM66.4696 181.74C66.6096 181.74 66.7263 181.79 66.8196 181.89C66.9196 181.983 66.9696 182.103 66.9696 182.25V184.88C66.9696 185.573 66.7763 186.117 66.3896 186.51C66.0029 186.897 65.4563 187.09 64.7496 187.09C64.0496 187.09 63.5063 186.897 63.1196 186.51C62.7396 186.117 62.5496 185.573 62.5496 184.88V182.25C62.5496 182.103 62.5963 181.983 62.6896 181.89C62.7829 181.79 62.9029 181.74 63.0496 181.74C63.1896 181.74 63.3063 181.79 63.3996 181.89C63.4996 181.983 63.5496 182.103 63.5496 182.25V184.88C63.5496 185.313 63.6496 185.637 63.8496 185.85C64.0563 186.063 64.3563 186.17 64.7496 186.17C65.1496 186.17 65.4529 186.063 65.6596 185.85C65.8663 185.637 65.9696 185.313 65.9696 184.88V182.25C65.9696 182.103 66.0163 181.983 66.1096 181.89C66.2029 181.79 66.3229 181.74 66.4696 181.74ZM71.0102 181.62C71.4768 181.62 71.8902 181.737 72.2502 181.97C72.6168 182.203 72.9068 182.527 73.1202 182.94C73.3335 183.347 73.4402 183.817 73.4402 184.35C73.4402 184.883 73.3335 185.357 73.1202 185.77C72.9068 186.183 72.6202 186.51 72.2602 186.75C71.9002 186.983 71.4935 187.1 71.0402 187.1C70.7868 187.1 70.5468 187.06 70.3202 186.98C70.0935 186.893 69.8935 186.787 69.7202 186.66C69.5468 186.527 69.4035 186.387 69.2902 186.24C69.1835 186.093 69.1168 185.957 69.0902 185.83L69.3602 185.7V186.57C69.3602 186.71 69.3102 186.83 69.2102 186.93C69.1168 187.023 69.0002 187.07 68.8602 187.07C68.7135 187.07 68.5935 187.023 68.5002 186.93C68.4068 186.837 68.3602 186.717 68.3602 186.57V180.11C68.3602 179.963 68.4068 179.843 68.5002 179.75C68.5935 179.65 68.7135 179.6 68.8602 179.6C69.0002 179.6 69.1168 179.65 69.2102 179.75C69.3102 179.843 69.3602 179.963 69.3602 180.11V182.92L69.2002 182.83C69.2202 182.703 69.2835 182.573 69.3902 182.44C69.4968 182.3 69.6302 182.167 69.7902 182.04C69.9568 181.913 70.1435 181.813 70.3502 181.74C70.5635 181.66 70.7835 181.62 71.0102 181.62ZM70.9002 182.54C70.5802 182.54 70.3002 182.62 70.0602 182.78C69.8268 182.94 69.6435 183.157 69.5102 183.43C69.3768 183.697 69.3102 184.003 69.3102 184.35C69.3102 184.697 69.3768 185.01 69.5102 185.29C69.6435 185.563 69.8268 185.78 70.0602 185.94C70.3002 186.1 70.5802 186.18 70.9002 186.18C71.2135 186.18 71.4868 186.1 71.7202 185.94C71.9535 185.78 72.1368 185.56 72.2702 185.28C72.4102 185 72.4802 184.69 72.4802 184.35C72.4802 184.003 72.4102 183.697 72.2702 183.43C72.1368 183.157 71.9535 182.94 71.7202 182.78C71.4868 182.62 71.2135 182.54 70.9002 182.54ZM75.7111 187.22C75.7111 187.58 75.6378 187.89 75.4911 188.15C75.3444 188.41 75.1511 188.61 74.9111 188.75C74.6711 188.89 74.4144 188.96 74.1411 188.96C74.0011 188.96 73.8878 188.913 73.8011 188.82C73.7144 188.733 73.6711 188.627 73.6711 188.5V188.41C73.6711 188.29 73.7144 188.193 73.8011 188.12C73.8811 188.047 73.9811 187.99 74.1011 187.95C74.2544 187.903 74.3744 187.833 74.4611 187.74C74.5544 187.653 74.6178 187.54 74.6511 187.4C74.6911 187.267 74.7111 187.12 74.7111 186.96V182.24C74.7111 182.1 74.7578 181.983 74.8511 181.89C74.9444 181.79 75.0644 181.74 75.2111 181.74C75.3578 181.74 75.4778 181.79 75.5711 181.89C75.6644 181.983 75.7111 182.1 75.7111 182.24V187.22ZM75.1911 181.04C74.9978 181.04 74.8578 181.007 74.7711 180.94C74.6844 180.867 74.6411 180.747 74.6411 180.58V180.42C74.6411 180.253 74.6878 180.137 74.7811 180.07C74.8744 180.003 75.0144 179.97 75.2011 179.97C75.4011 179.97 75.5444 180.007 75.6311 180.08C75.7178 180.147 75.7611 180.26 75.7611 180.42V180.58C75.7611 180.753 75.7144 180.873 75.6211 180.94C75.5344 181.007 75.3911 181.04 75.1911 181.04ZM79.7555 187.1C79.2021 187.1 78.7221 186.987 78.3155 186.76C77.9088 186.527 77.5921 186.21 77.3655 185.81C77.1455 185.403 77.0355 184.94 77.0355 184.42C77.0355 183.833 77.1521 183.333 77.3855 182.92C77.6255 182.5 77.9355 182.18 78.3155 181.96C78.6955 181.733 79.0988 181.62 79.5255 181.62C79.8521 181.62 80.1621 181.687 80.4555 181.82C80.7488 181.947 81.0088 182.127 81.2355 182.36C81.4688 182.587 81.6521 182.857 81.7855 183.17C81.9188 183.477 81.9888 183.813 81.9955 184.18C81.9888 184.313 81.9355 184.423 81.8355 184.51C81.7355 184.597 81.6188 184.64 81.4855 184.64H77.5955L77.3555 183.79H81.1155L80.9255 183.97V183.72C80.9121 183.487 80.8355 183.283 80.6955 183.11C80.5555 182.93 80.3821 182.793 80.1755 182.7C79.9688 182.6 79.7521 182.55 79.5255 182.55C79.3255 182.55 79.1321 182.583 78.9455 182.65C78.7655 182.71 78.6021 182.81 78.4555 182.95C78.3155 183.09 78.2021 183.277 78.1155 183.51C78.0355 183.737 77.9955 184.02 77.9955 184.36C77.9955 184.727 78.0721 185.047 78.2255 185.32C78.3788 185.593 78.5855 185.807 78.8455 185.96C79.1055 186.107 79.3921 186.18 79.7055 186.18C79.9521 186.18 80.1555 186.157 80.3155 186.11C80.4755 186.057 80.6088 185.993 80.7155 185.92C80.8221 185.847 80.9155 185.777 80.9955 185.71C81.0955 185.65 81.1955 185.62 81.2955 185.62C81.4155 185.62 81.5155 185.663 81.5955 185.75C81.6755 185.83 81.7155 185.927 81.7155 186.04C81.7155 186.187 81.6421 186.32 81.4955 186.44C81.3155 186.613 81.0655 186.767 80.7455 186.9C80.4321 187.033 80.1021 187.1 79.7555 187.1ZM85.4558 181.62C85.8158 181.62 86.1358 181.66 86.4158 181.74C86.6958 181.813 86.9124 181.92 87.0658 182.06C87.2258 182.193 87.3058 182.35 87.3058 182.53C87.3058 182.643 87.2724 182.75 87.2058 182.85C87.1391 182.943 87.0391 182.99 86.9058 182.99C86.8124 182.99 86.7324 182.973 86.6658 182.94C86.6058 182.907 86.5491 182.867 86.4958 182.82C86.4424 182.773 86.3758 182.727 86.2958 182.68C86.2224 182.64 86.1124 182.607 85.9658 182.58C85.8258 182.553 85.6991 182.54 85.5858 182.54C85.2324 182.54 84.9258 182.62 84.6658 182.78C84.4124 182.94 84.2124 183.157 84.0658 183.43C83.9258 183.703 83.8558 184.013 83.8558 184.36C83.8558 184.707 83.9258 185.017 84.0658 185.29C84.2124 185.563 84.4091 185.78 84.6558 185.94C84.9091 186.1 85.2024 186.18 85.5358 186.18C85.7358 186.18 85.8991 186.167 86.0258 186.14C86.1524 186.107 86.2624 186.067 86.3558 186.02C86.4558 185.96 86.5391 185.9 86.6058 185.84C86.6791 185.773 86.7791 185.74 86.9058 185.74C87.0524 185.74 87.1624 185.787 87.2358 185.88C87.3158 185.967 87.3558 186.077 87.3558 186.21C87.3558 186.357 87.2658 186.5 87.0858 186.64C86.9124 186.773 86.6791 186.883 86.3858 186.97C86.0924 187.057 85.7691 187.1 85.4158 187.1C84.8958 187.1 84.4424 186.98 84.0558 186.74C83.6758 186.5 83.3791 186.173 83.1658 185.76C82.9591 185.347 82.8558 184.88 82.8558 184.36C82.8558 183.833 82.9658 183.367 83.1858 182.96C83.4058 182.547 83.7124 182.22 84.1058 181.98C84.4991 181.74 84.9491 181.62 85.4558 181.62ZM88.2413 181.8H90.5913C90.7247 181.8 90.8347 181.847 90.9213 181.94C91.0147 182.027 91.0613 182.137 91.0613 182.27C91.0613 182.397 91.0147 182.503 90.9213 182.59C90.8347 182.677 90.7247 182.72 90.5913 182.72H88.2413C88.108 182.72 87.9947 182.677 87.9013 182.59C87.8147 182.497 87.7713 182.387 87.7713 182.26C87.7713 182.127 87.8147 182.017 87.9013 181.93C87.9947 181.843 88.108 181.8 88.2413 181.8ZM89.2913 180.5C89.438 180.5 89.558 180.55 89.6513 180.65C89.7447 180.743 89.7913 180.863 89.7913 181.01V185.65C89.7913 185.77 89.8113 185.867 89.8513 185.94C89.8913 186.013 89.9447 186.063 90.0113 186.09C90.0847 186.117 90.158 186.13 90.2313 186.13C90.3047 186.13 90.368 186.117 90.4213 186.09C90.4813 186.063 90.5513 186.05 90.6313 186.05C90.7113 186.05 90.7847 186.087 90.8513 186.16C90.918 186.233 90.9513 186.333 90.9513 186.46C90.9513 186.62 90.8647 186.75 90.6913 186.85C90.518 186.95 90.3313 187 90.1313 187C90.018 187 89.8847 186.99 89.7313 186.97C89.578 186.95 89.428 186.9 89.2813 186.82C89.1413 186.74 89.0247 186.613 88.9313 186.44C88.838 186.26 88.7913 186.01 88.7913 185.69V181.01C88.7913 180.863 88.838 180.743 88.9313 180.65C89.0313 180.55 89.1513 180.5 89.2913 180.5ZM95.292 185.72C95.3453 185.72 95.402 185.73 95.462 185.75C95.522 185.763 95.5886 185.797 95.662 185.85C95.782 185.957 95.9253 186.047 96.092 186.12C96.2653 186.187 96.462 186.22 96.682 186.22C96.9286 186.22 97.1586 186.163 97.372 186.05C97.5853 185.93 97.7586 185.763 97.892 185.55C98.0253 185.337 98.092 185.083 98.092 184.79C98.092 184.49 98.0286 184.247 97.902 184.06C97.7753 183.867 97.612 183.723 97.412 183.63C97.212 183.53 97.002 183.48 96.782 183.48C96.6553 183.48 96.5486 183.493 96.462 183.52C96.3753 183.54 96.292 183.563 96.212 183.59C96.132 183.61 96.0453 183.62 95.952 183.62C95.8253 183.62 95.7253 183.577 95.652 183.49C95.5786 183.397 95.542 183.287 95.542 183.16C95.542 183.08 95.5586 183.01 95.592 182.95C95.6253 182.89 95.672 182.823 95.732 182.75L97.582 180.77L97.802 180.97H95.152C95.0186 180.97 94.9053 180.927 94.812 180.84C94.7253 180.747 94.682 180.633 94.682 180.5C94.682 180.373 94.7253 180.267 94.812 180.18C94.9053 180.093 95.0186 180.05 95.152 180.05H98.312C98.4853 180.05 98.612 180.1 98.692 180.2C98.7786 180.3 98.822 180.417 98.822 180.55C98.822 180.623 98.802 180.693 98.762 180.76C98.7286 180.827 98.6853 180.89 98.632 180.95L96.772 182.95L96.522 182.68C96.5753 182.653 96.6653 182.627 96.792 182.6C96.9186 182.573 97.022 182.56 97.102 182.56C97.482 182.56 97.822 182.657 98.122 182.85C98.4286 183.043 98.6653 183.303 98.832 183.63C99.0053 183.95 99.092 184.313 99.092 184.72C99.092 185.207 98.982 185.63 98.762 185.99C98.542 186.343 98.2353 186.617 97.842 186.81C97.4553 187.003 97.0086 187.1 96.502 187.1C96.2486 187.1 95.9953 187.067 95.742 187C95.4953 186.927 95.282 186.823 95.102 186.69C94.9886 186.623 94.912 186.553 94.872 186.48C94.832 186.4 94.812 186.323 94.812 186.25C94.812 186.123 94.8553 186.003 94.942 185.89C95.0353 185.777 95.152 185.72 95.292 185.72Z" fill="#19191F"/>
<path d="M58.96 231.1C58.48 231.1 58.0533 231.033 57.68 230.9C57.3067 230.767 56.95 230.547 56.61 230.24C56.5367 230.187 56.48 230.123 56.44 230.05C56.4067 229.97 56.39 229.89 56.39 229.81C56.39 229.683 56.4367 229.57 56.53 229.47C56.6233 229.37 56.74 229.32 56.88 229.32C56.9867 229.32 57.0867 229.357 57.18 229.43C57.4333 229.663 57.6967 229.84 57.97 229.96C58.25 230.08 58.5767 230.14 58.95 230.14C59.2167 230.14 59.46 230.097 59.68 230.01C59.9067 229.923 60.0867 229.807 60.22 229.66C60.3533 229.513 60.42 229.343 60.42 229.15C60.42 228.91 60.35 228.713 60.21 228.56C60.0767 228.4 59.88 228.27 59.62 228.17C59.3667 228.063 59.06 227.973 58.7 227.9C58.3667 227.84 58.0667 227.757 57.8 227.65C57.54 227.543 57.3167 227.41 57.13 227.25C56.9433 227.083 56.8 226.887 56.7 226.66C56.6 226.433 56.55 226.17 56.55 225.87C56.55 225.463 56.6567 225.113 56.87 224.82C57.0833 224.527 57.3733 224.3 57.74 224.14C58.1067 223.98 58.52 223.9 58.98 223.9C59.4 223.9 59.7933 223.967 60.16 224.1C60.5267 224.227 60.8233 224.4 61.05 224.62C61.21 224.76 61.29 224.91 61.29 225.07C61.29 225.19 61.24 225.303 61.14 225.41C61.0467 225.51 60.9367 225.56 60.81 225.56C60.7167 225.56 60.6367 225.533 60.57 225.48C60.4633 225.367 60.32 225.267 60.14 225.18C59.96 225.087 59.7667 225.01 59.56 224.95C59.36 224.89 59.1667 224.86 58.98 224.86C58.68 224.86 58.4233 224.903 58.21 224.99C57.9967 225.07 57.8333 225.183 57.72 225.33C57.6067 225.47 57.55 225.637 57.55 225.83C57.55 226.057 57.6133 226.243 57.74 226.39C57.8733 226.537 58.0567 226.657 58.29 226.75C58.5233 226.837 58.79 226.917 59.09 226.99C59.4567 227.07 59.7833 227.16 60.07 227.26C60.3633 227.36 60.61 227.49 60.81 227.65C61.01 227.803 61.1633 227.997 61.27 228.23C61.3767 228.463 61.43 228.753 61.43 229.1C61.43 229.5 61.3167 229.85 61.09 230.15C60.8633 230.45 60.5633 230.683 60.19 230.85C59.8233 231.017 59.4133 231.1 58.96 231.1ZM66.4696 225.74C66.6096 225.74 66.7263 225.79 66.8196 225.89C66.9196 225.983 66.9696 226.103 66.9696 226.25V228.88C66.9696 229.573 66.7763 230.117 66.3896 230.51C66.0029 230.897 65.4563 231.09 64.7496 231.09C64.0496 231.09 63.5063 230.897 63.1196 230.51C62.7396 230.117 62.5496 229.573 62.5496 228.88V226.25C62.5496 226.103 62.5963 225.983 62.6896 225.89C62.7829 225.79 62.9029 225.74 63.0496 225.74C63.1896 225.74 63.3063 225.79 63.3996 225.89C63.4996 225.983 63.5496 226.103 63.5496 226.25V228.88C63.5496 229.313 63.6496 229.637 63.8496 229.85C64.0563 230.063 64.3563 230.17 64.7496 230.17C65.1496 230.17 65.4529 230.063 65.6596 229.85C65.8663 229.637 65.9696 229.313 65.9696 228.88V226.25C65.9696 226.103 66.0163 225.983 66.1096 225.89C66.2029 225.79 66.3229 225.74 66.4696 225.74ZM71.0102 225.62C71.4768 225.62 71.8902 225.737 72.2502 225.97C72.6168 226.203 72.9068 226.527 73.1202 226.94C73.3335 227.347 73.4402 227.817 73.4402 228.35C73.4402 228.883 73.3335 229.357 73.1202 229.77C72.9068 230.183 72.6202 230.51 72.2602 230.75C71.9002 230.983 71.4935 231.1 71.0402 231.1C70.7868 231.1 70.5468 231.06 70.3202 230.98C70.0935 230.893 69.8935 230.787 69.7202 230.66C69.5468 230.527 69.4035 230.387 69.2902 230.24C69.1835 230.093 69.1168 229.957 69.0902 229.83L69.3602 229.7V230.57C69.3602 230.71 69.3102 230.83 69.2102 230.93C69.1168 231.023 69.0002 231.07 68.8602 231.07C68.7135 231.07 68.5935 231.023 68.5002 230.93C68.4068 230.837 68.3602 230.717 68.3602 230.57V224.11C68.3602 223.963 68.4068 223.843 68.5002 223.75C68.5935 223.65 68.7135 223.6 68.8602 223.6C69.0002 223.6 69.1168 223.65 69.2102 223.75C69.3102 223.843 69.3602 223.963 69.3602 224.11V226.92L69.2002 226.83C69.2202 226.703 69.2835 226.573 69.3902 226.44C69.4968 226.3 69.6302 226.167 69.7902 226.04C69.9568 225.913 70.1435 225.813 70.3502 225.74C70.5635 225.66 70.7835 225.62 71.0102 225.62ZM70.9002 226.54C70.5802 226.54 70.3002 226.62 70.0602 226.78C69.8268 226.94 69.6435 227.157 69.5102 227.43C69.3768 227.697 69.3102 228.003 69.3102 228.35C69.3102 228.697 69.3768 229.01 69.5102 229.29C69.6435 229.563 69.8268 229.78 70.0602 229.94C70.3002 230.1 70.5802 230.18 70.9002 230.18C71.2135 230.18 71.4868 230.1 71.7202 229.94C71.9535 229.78 72.1368 229.56 72.2702 229.28C72.4102 229 72.4802 228.69 72.4802 228.35C72.4802 228.003 72.4102 227.697 72.2702 227.43C72.1368 227.157 71.9535 226.94 71.7202 226.78C71.4868 226.62 71.2135 226.54 70.9002 226.54ZM75.7111 231.22C75.7111 231.58 75.6378 231.89 75.4911 232.15C75.3444 232.41 75.1511 232.61 74.9111 232.75C74.6711 232.89 74.4144 232.96 74.1411 232.96C74.0011 232.96 73.8878 232.913 73.8011 232.82C73.7144 232.733 73.6711 232.627 73.6711 232.5V232.41C73.6711 232.29 73.7144 232.193 73.8011 232.12C73.8811 232.047 73.9811 231.99 74.1011 231.95C74.2544 231.903 74.3744 231.833 74.4611 231.74C74.5544 231.653 74.6178 231.54 74.6511 231.4C74.6911 231.267 74.7111 231.12 74.7111 230.96V226.24C74.7111 226.1 74.7578 225.983 74.8511 225.89C74.9444 225.79 75.0644 225.74 75.2111 225.74C75.3578 225.74 75.4778 225.79 75.5711 225.89C75.6644 225.983 75.7111 226.1 75.7111 226.24V231.22ZM75.1911 225.04C74.9978 225.04 74.8578 225.007 74.7711 224.94C74.6844 224.867 74.6411 224.747 74.6411 224.58V224.42C74.6411 224.253 74.6878 224.137 74.7811 224.07C74.8744 224.003 75.0144 223.97 75.2011 223.97C75.4011 223.97 75.5444 224.007 75.6311 224.08C75.7178 224.147 75.7611 224.26 75.7611 224.42V224.58C75.7611 224.753 75.7144 224.873 75.6211 224.94C75.5344 225.007 75.3911 225.04 75.1911 225.04ZM79.7555 231.1C79.2021 231.1 78.7221 230.987 78.3155 230.76C77.9088 230.527 77.5921 230.21 77.3655 229.81C77.1455 229.403 77.0355 228.94 77.0355 228.42C77.0355 227.833 77.1521 227.333 77.3855 226.92C77.6255 226.5 77.9355 226.18 78.3155 225.96C78.6955 225.733 79.0988 225.62 79.5255 225.62C79.8521 225.62 80.1621 225.687 80.4555 225.82C80.7488 225.947 81.0088 226.127 81.2355 226.36C81.4688 226.587 81.6521 226.857 81.7855 227.17C81.9188 227.477 81.9888 227.813 81.9955 228.18C81.9888 228.313 81.9355 228.423 81.8355 228.51C81.7355 228.597 81.6188 228.64 81.4855 228.64H77.5955L77.3555 227.79H81.1155L80.9255 227.97V227.72C80.9121 227.487 80.8355 227.283 80.6955 227.11C80.5555 226.93 80.3821 226.793 80.1755 226.7C79.9688 226.6 79.7521 226.55 79.5255 226.55C79.3255 226.55 79.1321 226.583 78.9455 226.65C78.7655 226.71 78.6021 226.81 78.4555 226.95C78.3155 227.09 78.2021 227.277 78.1155 227.51C78.0355 227.737 77.9955 228.02 77.9955 228.36C77.9955 228.727 78.0721 229.047 78.2255 229.32C78.3788 229.593 78.5855 229.807 78.8455 229.96C79.1055 230.107 79.3921 230.18 79.7055 230.18C79.9521 230.18 80.1555 230.157 80.3155 230.11C80.4755 230.057 80.6088 229.993 80.7155 229.92C80.8221 229.847 80.9155 229.777 80.9955 229.71C81.0955 229.65 81.1955 229.62 81.2955 229.62C81.4155 229.62 81.5155 229.663 81.5955 229.75C81.6755 229.83 81.7155 229.927 81.7155 230.04C81.7155 230.187 81.6421 230.32 81.4955 230.44C81.3155 230.613 81.0655 230.767 80.7455 230.9C80.4321 231.033 80.1021 231.1 79.7555 231.1ZM85.4558 225.62C85.8158 225.62 86.1358 225.66 86.4158 225.74C86.6958 225.813 86.9124 225.92 87.0658 226.06C87.2258 226.193 87.3058 226.35 87.3058 226.53C87.3058 226.643 87.2724 226.75 87.2058 226.85C87.1391 226.943 87.0391 226.99 86.9058 226.99C86.8124 226.99 86.7324 226.973 86.6658 226.94C86.6058 226.907 86.5491 226.867 86.4958 226.82C86.4424 226.773 86.3758 226.727 86.2958 226.68C86.2224 226.64 86.1124 226.607 85.9658 226.58C85.8258 226.553 85.6991 226.54 85.5858 226.54C85.2324 226.54 84.9258 226.62 84.6658 226.78C84.4124 226.94 84.2124 227.157 84.0658 227.43C83.9258 227.703 83.8558 228.013 83.8558 228.36C83.8558 228.707 83.9258 229.017 84.0658 229.29C84.2124 229.563 84.4091 229.78 84.6558 229.94C84.9091 230.1 85.2024 230.18 85.5358 230.18C85.7358 230.18 85.8991 230.167 86.0258 230.14C86.1524 230.107 86.2624 230.067 86.3558 230.02C86.4558 229.96 86.5391 229.9 86.6058 229.84C86.6791 229.773 86.7791 229.74 86.9058 229.74C87.0524 229.74 87.1624 229.787 87.2358 229.88C87.3158 229.967 87.3558 230.077 87.3558 230.21C87.3558 230.357 87.2658 230.5 87.0858 230.64C86.9124 230.773 86.6791 230.883 86.3858 230.97C86.0924 231.057 85.7691 231.1 85.4158 231.1C84.8958 231.1 84.4424 230.98 84.0558 230.74C83.6758 230.5 83.3791 230.173 83.1658 229.76C82.9591 229.347 82.8558 228.88 82.8558 228.36C82.8558 227.833 82.9658 227.367 83.1858 226.96C83.4058 226.547 83.7124 226.22 84.1058 225.98C84.4991 225.74 84.9491 225.62 85.4558 225.62ZM88.2413 225.8H90.5913C90.7247 225.8 90.8347 225.847 90.9213 225.94C91.0147 226.027 91.0613 226.137 91.0613 226.27C91.0613 226.397 91.0147 226.503 90.9213 226.59C90.8347 226.677 90.7247 226.72 90.5913 226.72H88.2413C88.108 226.72 87.9947 226.677 87.9013 226.59C87.8147 226.497 87.7713 226.387 87.7713 226.26C87.7713 226.127 87.8147 226.017 87.9013 225.93C87.9947 225.843 88.108 225.8 88.2413 225.8ZM89.2913 224.5C89.438 224.5 89.558 224.55 89.6513 224.65C89.7447 224.743 89.7913 224.863 89.7913 225.01V229.65C89.7913 229.77 89.8113 229.867 89.8513 229.94C89.8913 230.013 89.9447 230.063 90.0113 230.09C90.0847 230.117 90.158 230.13 90.2313 230.13C90.3047 230.13 90.368 230.117 90.4213 230.09C90.4813 230.063 90.5513 230.05 90.6313 230.05C90.7113 230.05 90.7847 230.087 90.8513 230.16C90.918 230.233 90.9513 230.333 90.9513 230.46C90.9513 230.62 90.8647 230.75 90.6913 230.85C90.518 230.95 90.3313 231 90.1313 231C90.018 231 89.8847 230.99 89.7313 230.97C89.578 230.95 89.428 230.9 89.2813 230.82C89.1413 230.74 89.0247 230.613 88.9313 230.44C88.838 230.26 88.7913 230.01 88.7913 229.69V225.01C88.7913 224.863 88.838 224.743 88.9313 224.65C89.0313 224.55 89.1513 224.5 89.2913 224.5ZM98.072 231C97.932 231 97.8153 230.953 97.722 230.86C97.6286 230.76 97.582 230.637 97.582 230.49V225.4L97.762 225.46L95.602 228.22L95.552 228.09H99.192C99.3253 228.09 99.4353 228.137 99.522 228.23C99.6153 228.317 99.662 228.427 99.662 228.56C99.662 228.687 99.6153 228.793 99.522 228.88C99.4353 228.967 99.3253 229.01 99.192 229.01H94.862C94.742 229.01 94.6286 228.963 94.522 228.87C94.4153 228.77 94.362 228.653 94.362 228.52C94.362 228.393 94.4053 228.28 94.492 228.18L97.672 224.2C97.7186 224.133 97.7786 224.083 97.852 224.05C97.9253 224.017 98.002 224 98.082 224C98.2286 224 98.3486 224.05 98.442 224.15C98.5353 224.243 98.582 224.363 98.582 224.51V230.49C98.582 230.637 98.532 230.76 98.432 230.86C98.332 230.953 98.212 231 98.072 231Z" fill="#19191F"/>
<path d="M62.648 109.588C62.832 109.588 62.988 109.66 63.116 109.804C63.252 109.948 63.32 110.1 63.32 110.26C63.32 110.412 63.268 110.556 63.164 110.692L60.752 113.872L59.936 112.756L62.06 109.936C62.228 109.704 62.424 109.588 62.648 109.588ZM57.296 109.564C57.528 109.564 57.724 109.668 57.884 109.876L63.164 116.896C63.26 117.024 63.308 117.172 63.308 117.34C63.308 117.564 63.228 117.74 63.068 117.868C62.908 117.996 62.748 118.06 62.588 118.06C62.356 118.06 62.16 117.956 62 117.748L56.72 110.728C56.616 110.6 56.564 110.456 56.564 110.296C56.564 110.088 56.64 109.916 56.792 109.78C56.952 109.636 57.12 109.564 57.296 109.564ZM57.188 118.06C57.012 118.06 56.86 117.996 56.732 117.868C56.604 117.732 56.54 117.584 56.54 117.424C56.54 117.248 56.6 117.084 56.72 116.932L59.156 113.632L59.948 114.796L57.788 117.724C57.628 117.948 57.428 118.06 57.188 118.06ZM70.5113 109.588C70.6953 109.588 70.8513 109.66 70.9793 109.804C71.1153 109.948 71.1833 110.1 71.1833 110.26C71.1833 110.412 71.1313 110.556 71.0273 110.692L68.6153 113.872L67.7993 112.756L69.9233 109.936C70.0913 109.704 70.2873 109.588 70.5113 109.588ZM65.1593 109.564C65.3913 109.564 65.5873 109.668 65.7473 109.876L71.0273 116.896C71.1233 117.024 71.1713 117.172 71.1713 117.34C71.1713 117.564 71.0913 117.74 70.9313 117.868C70.7713 117.996 70.6113 118.06 70.4513 118.06C70.2193 118.06 70.0233 117.956 69.8633 117.748L64.5833 110.728C64.4793 110.6 64.4273 110.456 64.4273 110.296C64.4273 110.088 64.5033 109.916 64.6553 109.78C64.8153 109.636 64.9833 109.564 65.1593 109.564ZM65.0513 118.06C64.8753 118.06 64.7233 117.996 64.5953 117.868C64.4673 117.732 64.4033 117.584 64.4033 117.424C64.4033 117.248 64.4633 117.084 64.5833 116.932L67.0193 113.632L67.8113 114.796L65.6513 117.724C65.4913 117.948 65.2913 118.06 65.0513 118.06ZM74.0546 114.16C73.6706 114.16 73.3306 114.056 73.0346 113.848C72.7386 113.64 72.5066 113.36 72.3386 113.008C72.1706 112.656 72.0866 112.264 72.0866 111.832C72.0866 111.392 72.1706 110.996 72.3386 110.644C72.5066 110.292 72.7386 110.012 73.0346 109.804C73.3306 109.596 73.6706 109.492 74.0546 109.492C74.4466 109.492 74.7866 109.596 75.0746 109.804C75.3706 110.012 75.5986 110.292 75.7586 110.644C75.9266 110.996 76.0106 111.392 76.0106 111.832C76.0106 112.264 75.9226 112.656 75.7466 113.008C75.5706 113.36 75.3346 113.64 75.0386 113.848C74.7506 114.056 74.4226 114.16 74.0546 114.16ZM74.0546 113.092C74.2946 113.092 74.4786 112.972 74.6066 112.732C74.7426 112.492 74.8106 112.192 74.8106 111.832C74.8106 111.472 74.7466 111.172 74.6186 110.932C74.4906 110.692 74.3026 110.572 74.0546 110.572C73.8146 110.572 73.6266 110.692 73.4906 110.932C73.3546 111.172 73.2866 111.472 73.2866 111.832C73.2866 112.192 73.3506 112.492 73.4786 112.732C73.6146 112.972 73.8066 113.092 74.0546 113.092ZM79.2026 118.12C78.8346 118.12 78.5026 118.016 78.2066 117.808C77.9106 117.6 77.6746 117.32 77.4986 116.968C77.3226 116.616 77.2346 116.224 77.2346 115.792C77.2346 115.352 77.3186 114.956 77.4866 114.604C77.6546 114.252 77.8866 113.972 78.1826 113.764C78.4786 113.556 78.8186 113.452 79.2026 113.452C79.5946 113.452 79.9346 113.556 80.2226 113.764C80.5186 113.972 80.7466 114.252 80.9066 114.604C81.0746 114.956 81.1586 115.352 81.1586 115.792C81.1586 116.224 81.0706 116.616 80.8946 116.968C80.7186 117.32 80.4826 117.6 80.1866 117.808C79.8986 118.016 79.5706 118.12 79.2026 118.12ZM79.2026 117.052C79.4426 117.052 79.6266 116.932 79.7546 116.692C79.8906 116.452 79.9586 116.152 79.9586 115.792C79.9586 115.432 79.8946 115.132 79.7666 114.892C79.6386 114.652 79.4506 114.532 79.2026 114.532C78.9626 114.532 78.7746 114.652 78.6386 114.892C78.5026 115.132 78.4346 115.432 78.4346 115.792C78.4346 116.152 78.4986 116.452 78.6266 116.692C78.7626 116.932 78.9546 117.052 79.2026 117.052ZM74.1986 118.024C74.0706 118.024 73.9346 117.972 73.7906 117.868C73.6466 117.756 73.5746 117.612 73.5746 117.436C73.5746 117.332 73.6146 117.212 73.6946 117.076L78.4706 109.864C78.6146 109.672 78.7786 109.576 78.9626 109.576C79.0986 109.576 79.2346 109.628 79.3706 109.732C79.5146 109.836 79.5866 109.98 79.5866 110.164C79.5866 110.268 79.5466 110.388 79.4666 110.524L74.6906 117.736C74.5466 117.928 74.3826 118.024 74.1986 118.024Z" fill="#5B588F"/>
<path d="M62.648 153.588C62.832 153.588 62.988 153.66 63.116 153.804C63.252 153.948 63.32 154.1 63.32 154.26C63.32 154.412 63.268 154.556 63.164 154.692L60.752 157.872L59.936 156.756L62.06 153.936C62.228 153.704 62.424 153.588 62.648 153.588ZM57.296 153.564C57.528 153.564 57.724 153.668 57.884 153.876L63.164 160.896C63.26 161.024 63.308 161.172 63.308 161.34C63.308 161.564 63.228 161.74 63.068 161.868C62.908 161.996 62.748 162.06 62.588 162.06C62.356 162.06 62.16 161.956 62 161.748L56.72 154.728C56.616 154.6 56.564 154.456 56.564 154.296C56.564 154.088 56.64 153.916 56.792 153.78C56.952 153.636 57.12 153.564 57.296 153.564ZM57.188 162.06C57.012 162.06 56.86 161.996 56.732 161.868C56.604 161.732 56.54 161.584 56.54 161.424C56.54 161.248 56.6 161.084 56.72 160.932L59.156 157.632L59.948 158.796L57.788 161.724C57.628 161.948 57.428 162.06 57.188 162.06ZM70.5113 153.588C70.6953 153.588 70.8513 153.66 70.9793 153.804C71.1153 153.948 71.1833 154.1 71.1833 154.26C71.1833 154.412 71.1313 154.556 71.0273 154.692L68.6153 157.872L67.7993 156.756L69.9233 153.936C70.0913 153.704 70.2873 153.588 70.5113 153.588ZM65.1593 153.564C65.3913 153.564 65.5873 153.668 65.7473 153.876L71.0273 160.896C71.1233 161.024 71.1713 161.172 71.1713 161.34C71.1713 161.564 71.0913 161.74 70.9313 161.868C70.7713 161.996 70.6113 162.06 70.4513 162.06C70.2193 162.06 70.0233 161.956 69.8633 161.748L64.5833 154.728C64.4793 154.6 64.4273 154.456 64.4273 154.296C64.4273 154.088 64.5033 153.916 64.6553 153.78C64.8153 153.636 64.9833 153.564 65.1593 153.564ZM65.0513 162.06C64.8753 162.06 64.7233 161.996 64.5953 161.868C64.4673 161.732 64.4033 161.584 64.4033 161.424C64.4033 161.248 64.4633 161.084 64.5833 160.932L67.0193 157.632L67.8113 158.796L65.6513 161.724C65.4913 161.948 65.2913 162.06 65.0513 162.06ZM74.0546 158.16C73.6706 158.16 73.3306 158.056 73.0346 157.848C72.7386 157.64 72.5066 157.36 72.3386 157.008C72.1706 156.656 72.0866 156.264 72.0866 155.832C72.0866 155.392 72.1706 154.996 72.3386 154.644C72.5066 154.292 72.7386 154.012 73.0346 153.804C73.3306 153.596 73.6706 153.492 74.0546 153.492C74.4466 153.492 74.7866 153.596 75.0746 153.804C75.3706 154.012 75.5986 154.292 75.7586 154.644C75.9266 154.996 76.0106 155.392 76.0106 155.832C76.0106 156.264 75.9226 156.656 75.7466 157.008C75.5706 157.36 75.3346 157.64 75.0386 157.848C74.7506 158.056 74.4226 158.16 74.0546 158.16ZM74.0546 157.092C74.2946 157.092 74.4786 156.972 74.6066 156.732C74.7426 156.492 74.8106 156.192 74.8106 155.832C74.8106 155.472 74.7466 155.172 74.6186 154.932C74.4906 154.692 74.3026 154.572 74.0546 154.572C73.8146 154.572 73.6266 154.692 73.4906 154.932C73.3546 155.172 73.2866 155.472 73.2866 155.832C73.2866 156.192 73.3506 156.492 73.4786 156.732C73.6146 156.972 73.8066 157.092 74.0546 157.092ZM79.2026 162.12C78.8346 162.12 78.5026 162.016 78.2066 161.808C77.9106 161.6 77.6746 161.32 77.4986 160.968C77.3226 160.616 77.2346 160.224 77.2346 159.792C77.2346 159.352 77.3186 158.956 77.4866 158.604C77.6546 158.252 77.8866 157.972 78.1826 157.764C78.4786 157.556 78.8186 157.452 79.2026 157.452C79.5946 157.452 79.9346 157.556 80.2226 157.764C80.5186 157.972 80.7466 158.252 80.9066 158.604C81.0746 158.956 81.1586 159.352 81.1586 159.792C81.1586 160.224 81.0706 160.616 80.8946 160.968C80.7186 161.32 80.4826 161.6 80.1866 161.808C79.8986 162.016 79.5706 162.12 79.2026 162.12ZM79.2026 161.052C79.4426 161.052 79.6266 160.932 79.7546 160.692C79.8906 160.452 79.9586 160.152 79.9586 159.792C79.9586 159.432 79.8946 159.132 79.7666 158.892C79.6386 158.652 79.4506 158.532 79.2026 158.532C78.9626 158.532 78.7746 158.652 78.6386 158.892C78.5026 159.132 78.4346 159.432 78.4346 159.792C78.4346 160.152 78.4986 160.452 78.6266 160.692C78.7626 160.932 78.9546 161.052 79.2026 161.052ZM74.1986 162.024C74.0706 162.024 73.9346 161.972 73.7906 161.868C73.6466 161.756 73.5746 161.612 73.5746 161.436C73.5746 161.332 73.6146 161.212 73.6946 161.076L78.4706 153.864C78.6146 153.672 78.7786 153.576 78.9626 153.576C79.0986 153.576 79.2346 153.628 79.3706 153.732C79.5146 153.836 79.5866 153.98 79.5866 154.164C79.5866 154.268 79.5466 154.388 79.4666 154.524L74.6906 161.736C74.5466 161.928 74.3826 162.024 74.1986 162.024Z" fill="#5B588F"/>
<path d="M62.648 197.588C62.832 197.588 62.988 197.66 63.116 197.804C63.252 197.948 63.32 198.1 63.32 198.26C63.32 198.412 63.268 198.556 63.164 198.692L60.752 201.872L59.936 200.756L62.06 197.936C62.228 197.704 62.424 197.588 62.648 197.588ZM57.296 197.564C57.528 197.564 57.724 197.668 57.884 197.876L63.164 204.896C63.26 205.024 63.308 205.172 63.308 205.34C63.308 205.564 63.228 205.74 63.068 205.868C62.908 205.996 62.748 206.06 62.588 206.06C62.356 206.06 62.16 205.956 62 205.748L56.72 198.728C56.616 198.6 56.564 198.456 56.564 198.296C56.564 198.088 56.64 197.916 56.792 197.78C56.952 197.636 57.12 197.564 57.296 197.564ZM57.188 206.06C57.012 206.06 56.86 205.996 56.732 205.868C56.604 205.732 56.54 205.584 56.54 205.424C56.54 205.248 56.6 205.084 56.72 204.932L59.156 201.632L59.948 202.796L57.788 205.724C57.628 205.948 57.428 206.06 57.188 206.06ZM70.5113 197.588C70.6953 197.588 70.8513 197.66 70.9793 197.804C71.1153 197.948 71.1833 198.1 71.1833 198.26C71.1833 198.412 71.1313 198.556 71.0273 198.692L68.6153 201.872L67.7993 200.756L69.9233 197.936C70.0913 197.704 70.2873 197.588 70.5113 197.588ZM65.1593 197.564C65.3913 197.564 65.5873 197.668 65.7473 197.876L71.0273 204.896C71.1233 205.024 71.1713 205.172 71.1713 205.34C71.1713 205.564 71.0913 205.74 70.9313 205.868C70.7713 205.996 70.6113 206.06 70.4513 206.06C70.2193 206.06 70.0233 205.956 69.8633 205.748L64.5833 198.728C64.4793 198.6 64.4273 198.456 64.4273 198.296C64.4273 198.088 64.5033 197.916 64.6553 197.78C64.8153 197.636 64.9833 197.564 65.1593 197.564ZM65.0513 206.06C64.8753 206.06 64.7233 205.996 64.5953 205.868C64.4673 205.732 64.4033 205.584 64.4033 205.424C64.4033 205.248 64.4633 205.084 64.5833 204.932L67.0193 201.632L67.8113 202.796L65.6513 205.724C65.4913 205.948 65.2913 206.06 65.0513 206.06ZM74.0546 202.16C73.6706 202.16 73.3306 202.056 73.0346 201.848C72.7386 201.64 72.5066 201.36 72.3386 201.008C72.1706 200.656 72.0866 200.264 72.0866 199.832C72.0866 199.392 72.1706 198.996 72.3386 198.644C72.5066 198.292 72.7386 198.012 73.0346 197.804C73.3306 197.596 73.6706 197.492 74.0546 197.492C74.4466 197.492 74.7866 197.596 75.0746 197.804C75.3706 198.012 75.5986 198.292 75.7586 198.644C75.9266 198.996 76.0106 199.392 76.0106 199.832C76.0106 200.264 75.9226 200.656 75.7466 201.008C75.5706 201.36 75.3346 201.64 75.0386 201.848C74.7506 202.056 74.4226 202.16 74.0546 202.16ZM74.0546 201.092C74.2946 201.092 74.4786 200.972 74.6066 200.732C74.7426 200.492 74.8106 200.192 74.8106 199.832C74.8106 199.472 74.7466 199.172 74.6186 198.932C74.4906 198.692 74.3026 198.572 74.0546 198.572C73.8146 198.572 73.6266 198.692 73.4906 198.932C73.3546 199.172 73.2866 199.472 73.2866 199.832C73.2866 200.192 73.3506 200.492 73.4786 200.732C73.6146 200.972 73.8066 201.092 74.0546 201.092ZM79.2026 206.12C78.8346 206.12 78.5026 206.016 78.2066 205.808C77.9106 205.6 77.6746 205.32 77.4986 204.968C77.3226 204.616 77.2346 204.224 77.2346 203.792C77.2346 203.352 77.3186 202.956 77.4866 202.604C77.6546 202.252 77.8866 201.972 78.1826 201.764C78.4786 201.556 78.8186 201.452 79.2026 201.452C79.5946 201.452 79.9346 201.556 80.2226 201.764C80.5186 201.972 80.7466 202.252 80.9066 202.604C81.0746 202.956 81.1586 203.352 81.1586 203.792C81.1586 204.224 81.0706 204.616 80.8946 204.968C80.7186 205.32 80.4826 205.6 80.1866 205.808C79.8986 206.016 79.5706 206.12 79.2026 206.12ZM79.2026 205.052C79.4426 205.052 79.6266 204.932 79.7546 204.692C79.8906 204.452 79.9586 204.152 79.9586 203.792C79.9586 203.432 79.8946 203.132 79.7666 202.892C79.6386 202.652 79.4506 202.532 79.2026 202.532C78.9626 202.532 78.7746 202.652 78.6386 202.892C78.5026 203.132 78.4346 203.432 78.4346 203.792C78.4346 204.152 78.4986 204.452 78.6266 204.692C78.7626 204.932 78.9546 205.052 79.2026 205.052ZM74.1986 206.024C74.0706 206.024 73.9346 205.972 73.7906 205.868C73.6466 205.756 73.5746 205.612 73.5746 205.436C73.5746 205.332 73.6146 205.212 73.6946 205.076L78.4706 197.864C78.6146 197.672 78.7786 197.576 78.9626 197.576C79.0986 197.576 79.2346 197.628 79.3706 197.732C79.5146 197.836 79.5866 197.98 79.5866 198.164C79.5866 198.268 79.5466 198.388 79.4666 198.524L74.6906 205.736C74.5466 205.928 74.3826 206.024 74.1986 206.024Z" fill="#5B588F"/>
<path d="M62.648 241.588C62.832 241.588 62.988 241.66 63.116 241.804C63.252 241.948 63.32 242.1 63.32 242.26C63.32 242.412 63.268 242.556 63.164 242.692L60.752 245.872L59.936 244.756L62.06 241.936C62.228 241.704 62.424 241.588 62.648 241.588ZM57.296 241.564C57.528 241.564 57.724 241.668 57.884 241.876L63.164 248.896C63.26 249.024 63.308 249.172 63.308 249.34C63.308 249.564 63.228 249.74 63.068 249.868C62.908 249.996 62.748 250.06 62.588 250.06C62.356 250.06 62.16 249.956 62 249.748L56.72 242.728C56.616 242.6 56.564 242.456 56.564 242.296C56.564 242.088 56.64 241.916 56.792 241.78C56.952 241.636 57.12 241.564 57.296 241.564ZM57.188 250.06C57.012 250.06 56.86 249.996 56.732 249.868C56.604 249.732 56.54 249.584 56.54 249.424C56.54 249.248 56.6 249.084 56.72 248.932L59.156 245.632L59.948 246.796L57.788 249.724C57.628 249.948 57.428 250.06 57.188 250.06ZM70.5113 241.588C70.6953 241.588 70.8513 241.66 70.9793 241.804C71.1153 241.948 71.1833 242.1 71.1833 242.26C71.1833 242.412 71.1313 242.556 71.0273 242.692L68.6153 245.872L67.7993 244.756L69.9233 241.936C70.0913 241.704 70.2873 241.588 70.5113 241.588ZM65.1593 241.564C65.3913 241.564 65.5873 241.668 65.7473 241.876L71.0273 248.896C71.1233 249.024 71.1713 249.172 71.1713 249.34C71.1713 249.564 71.0913 249.74 70.9313 249.868C70.7713 249.996 70.6113 250.06 70.4513 250.06C70.2193 250.06 70.0233 249.956 69.8633 249.748L64.5833 242.728C64.4793 242.6 64.4273 242.456 64.4273 242.296C64.4273 242.088 64.5033 241.916 64.6553 241.78C64.8153 241.636 64.9833 241.564 65.1593 241.564ZM65.0513 250.06C64.8753 250.06 64.7233 249.996 64.5953 249.868C64.4673 249.732 64.4033 249.584 64.4033 249.424C64.4033 249.248 64.4633 249.084 64.5833 248.932L67.0193 245.632L67.8113 246.796L65.6513 249.724C65.4913 249.948 65.2913 250.06 65.0513 250.06ZM74.0546 246.16C73.6706 246.16 73.3306 246.056 73.0346 245.848C72.7386 245.64 72.5066 245.36 72.3386 245.008C72.1706 244.656 72.0866 244.264 72.0866 243.832C72.0866 243.392 72.1706 242.996 72.3386 242.644C72.5066 242.292 72.7386 242.012 73.0346 241.804C73.3306 241.596 73.6706 241.492 74.0546 241.492C74.4466 241.492 74.7866 241.596 75.0746 241.804C75.3706 242.012 75.5986 242.292 75.7586 242.644C75.9266 242.996 76.0106 243.392 76.0106 243.832C76.0106 244.264 75.9226 244.656 75.7466 245.008C75.5706 245.36 75.3346 245.64 75.0386 245.848C74.7506 246.056 74.4226 246.16 74.0546 246.16ZM74.0546 245.092C74.2946 245.092 74.4786 244.972 74.6066 244.732C74.7426 244.492 74.8106 244.192 74.8106 243.832C74.8106 243.472 74.7466 243.172 74.6186 242.932C74.4906 242.692 74.3026 242.572 74.0546 242.572C73.8146 242.572 73.6266 242.692 73.4906 242.932C73.3546 243.172 73.2866 243.472 73.2866 243.832C73.2866 244.192 73.3506 244.492 73.4786 244.732C73.6146 244.972 73.8066 245.092 74.0546 245.092ZM79.2026 250.12C78.8346 250.12 78.5026 250.016 78.2066 249.808C77.9106 249.6 77.6746 249.32 77.4986 248.968C77.3226 248.616 77.2346 248.224 77.2346 247.792C77.2346 247.352 77.3186 246.956 77.4866 246.604C77.6546 246.252 77.8866 245.972 78.1826 245.764C78.4786 245.556 78.8186 245.452 79.2026 245.452C79.5946 245.452 79.9346 245.556 80.2226 245.764C80.5186 245.972 80.7466 246.252 80.9066 246.604C81.0746 246.956 81.1586 247.352 81.1586 247.792C81.1586 248.224 81.0706 248.616 80.8946 248.968C80.7186 249.32 80.4826 249.6 80.1866 249.808C79.8986 250.016 79.5706 250.12 79.2026 250.12ZM79.2026 249.052C79.4426 249.052 79.6266 248.932 79.7546 248.692C79.8906 248.452 79.9586 248.152 79.9586 247.792C79.9586 247.432 79.8946 247.132 79.7666 246.892C79.6386 246.652 79.4506 246.532 79.2026 246.532C78.9626 246.532 78.7746 246.652 78.6386 246.892C78.5026 247.132 78.4346 247.432 78.4346 247.792C78.4346 248.152 78.4986 248.452 78.6266 248.692C78.7626 248.932 78.9546 249.052 79.2026 249.052ZM74.1986 250.024C74.0706 250.024 73.9346 249.972 73.7906 249.868C73.6466 249.756 73.5746 249.612 73.5746 249.436C73.5746 249.332 73.6146 249.212 73.6946 249.076L78.4706 241.864C78.6146 241.672 78.7786 241.576 78.9626 241.576C79.0986 241.576 79.2346 241.628 79.3706 241.732C79.5146 241.836 79.5866 241.98 79.5866 242.164C79.5866 242.268 79.5466 242.388 79.4666 242.524L74.6906 249.736C74.5466 249.928 74.3826 250.024 74.1986 250.024Z" fill="#5B588F"/>
<g filter="url(#filter0_d_337_1534)">
<path fill-rule="evenodd" clip-rule="evenodd" d="M295.999 89.0058C282.07 80.9381 265.893 76.3201 248.637 76.3201C196.371 76.3201 154 118.691 154 170.958C154 223.224 196.371 265.595 248.637 265.595C265.893 265.595 282.07 260.977 295.999 252.909V216.971C284.001 229.319 267.215 236.99 248.637 236.99C212.168 236.99 182.604 207.426 182.604 170.957C182.604 134.488 212.168 104.924 248.637 104.924C267.215 104.924 284.001 112.596 295.999 124.944V89.0058Z" fill="url(#paint0_angular_337_1534)"/>
</g>
<path d="M62.368 17C62.1067 17 61.892 16.9207 61.724 16.762C61.556 16.594 61.472 16.3887 61.472 16.146V8.026H63.292V16.146C63.292 16.3887 63.2033 16.594 63.026 16.762C62.858 16.9207 62.6387 17 62.368 17ZM59.274 8.81C59.0313 8.81 58.826 8.73533 58.658 8.586C58.4993 8.43667 58.42 8.24067 58.42 7.998C58.42 7.75533 58.4993 7.564 58.658 7.424C58.826 7.27467 59.0313 7.2 59.274 7.2H65.49C65.7327 7.2 65.9333 7.27467 66.092 7.424C66.26 7.57333 66.344 7.76933 66.344 8.012C66.344 8.25467 66.26 8.45067 66.092 8.6C65.9333 8.74 65.7327 8.81 65.49 8.81H59.274ZM73.258 13.262C73.258 14.0273 73.0854 14.704 72.74 15.292C72.404 15.8707 71.9467 16.3233 71.368 16.65C70.7987 16.9767 70.1594 17.14 69.45 17.14C68.7407 17.14 68.0967 16.9767 67.518 16.65C66.9487 16.3233 66.4914 15.8707 66.146 15.292C65.81 14.704 65.642 14.0273 65.642 13.262C65.642 12.4967 65.81 11.8247 66.146 11.246C66.4914 10.658 66.9487 10.2007 67.518 9.874C68.0967 9.538 68.7407 9.37 69.45 9.37C70.1594 9.37 70.7987 9.538 71.368 9.874C71.9467 10.2007 72.404 10.658 72.74 11.246C73.0854 11.8247 73.258 12.4967 73.258 13.262ZM71.578 13.262C71.578 12.786 71.48 12.3753 71.284 12.03C71.0974 11.6753 70.8407 11.4 70.514 11.204C70.1967 11.008 69.842 10.91 69.45 10.91C69.058 10.91 68.6987 11.008 68.372 11.204C68.0547 11.4 67.798 11.6753 67.602 12.03C67.4154 12.3753 67.322 12.786 67.322 13.262C67.322 13.7287 67.4154 14.1393 67.602 14.494C67.798 14.8393 68.0547 15.11 68.372 15.306C68.6987 15.502 69.058 15.6 69.45 15.6C69.842 15.6 70.1967 15.502 70.514 15.306C70.8407 15.11 71.0974 14.8393 71.284 14.494C71.48 14.1393 71.578 13.7287 71.578 13.262ZM78.6064 9.37C79.2597 9.37 79.843 9.538 80.3564 9.874C80.879 10.2007 81.2897 10.6533 81.5884 11.232C81.8964 11.8107 82.0504 12.4827 82.0504 13.248C82.0504 14.0133 81.8964 14.69 81.5884 15.278C81.2897 15.8567 80.8837 16.314 80.3704 16.65C79.8664 16.9767 79.297 17.14 78.6624 17.14C78.289 17.14 77.939 17.0793 77.6124 16.958C77.2857 16.8367 76.9964 16.6827 76.7444 16.496C76.5017 16.3093 76.3104 16.1227 76.1704 15.936C76.0397 15.74 75.9744 15.5767 75.9744 15.446L76.4084 15.264V18.946C76.4084 19.1887 76.329 19.3893 76.1704 19.548C76.0117 19.716 75.811 19.8 75.5684 19.8C75.3257 19.8 75.125 19.7207 74.9664 19.562C74.8077 19.4033 74.7284 19.198 74.7284 18.946V10.364C74.7284 10.1213 74.8077 9.92067 74.9664 9.762C75.125 9.594 75.3257 9.51 75.5684 9.51C75.811 9.51 76.0117 9.594 76.1704 9.762C76.329 9.92067 76.4084 10.1213 76.4084 10.364V11.05L76.1704 10.924C76.1704 10.8027 76.2357 10.658 76.3664 10.49C76.497 10.3127 76.6744 10.14 76.8984 9.972C77.1224 9.79467 77.379 9.65 77.6684 9.538C77.967 9.426 78.2797 9.37 78.6064 9.37ZM78.3964 10.91C77.9857 10.91 77.6264 11.0127 77.3184 11.218C77.0104 11.4233 76.7677 11.7033 76.5904 12.058C76.4224 12.4033 76.3384 12.8 76.3384 13.248C76.3384 13.6867 76.4224 14.088 76.5904 14.452C76.7677 14.8067 77.0104 15.0867 77.3184 15.292C77.6264 15.4973 77.9857 15.6 78.3964 15.6C78.807 15.6 79.1617 15.4973 79.4604 15.292C79.7684 15.0867 80.0064 14.8067 80.1744 14.452C80.3517 14.088 80.4404 13.6867 80.4404 13.248C80.4404 12.8 80.3517 12.4033 80.1744 12.058C80.0064 11.7033 79.7684 11.4233 79.4604 11.218C79.1617 11.0127 78.807 10.91 78.3964 10.91ZM91.7832 7.2C92.4552 7.2 93.0525 7.326 93.5752 7.578C94.0979 7.83 94.5365 8.18467 94.8912 8.642C95.2552 9.09 95.5259 9.61267 95.7032 10.21C95.8899 10.798 95.9832 11.428 95.9832 12.1C95.9832 13.0053 95.8199 13.8313 95.4932 14.578C95.1665 15.3153 94.6905 15.9033 94.0652 16.342C93.4492 16.7807 92.6885 17 91.7832 17H88.4372C88.1945 17 87.9892 16.9207 87.8212 16.762C87.6625 16.594 87.5832 16.3887 87.5832 16.146V8.054C87.5832 7.81133 87.6625 7.61067 87.8212 7.452C87.9892 7.284 88.1945 7.2 88.4372 7.2H91.7832ZM91.6432 15.39C92.2312 15.39 92.7119 15.2407 93.0852 14.942C93.4585 14.634 93.7292 14.2327 93.8972 13.738C94.0745 13.234 94.1632 12.688 94.1632 12.1C94.1632 11.6613 94.1119 11.246 94.0092 10.854C93.9159 10.4527 93.7665 10.1027 93.5612 9.804C93.3559 9.496 93.0945 9.25333 92.7772 9.076C92.4599 8.89867 92.0819 8.81 91.6432 8.81H89.1932L89.3332 8.684V15.544L89.2492 15.39H91.6432ZM103.583 9.37C103.826 9.37 104.026 9.44933 104.185 9.608C104.344 9.76667 104.423 9.972 104.423 10.224V16.146C104.423 16.3887 104.344 16.594 104.185 16.762C104.026 16.9207 103.826 17 103.583 17C103.34 17 103.14 16.9207 102.981 16.762C102.822 16.594 102.743 16.3887 102.743 16.146V15.46L103.051 15.586C103.051 15.7073 102.986 15.8567 102.855 16.034C102.724 16.202 102.547 16.37 102.323 16.538C102.099 16.706 101.833 16.8507 101.525 16.972C101.226 17.084 100.9 17.14 100.545 17.14C99.901 17.14 99.3177 16.9767 98.795 16.65C98.2723 16.314 97.857 15.8567 97.549 15.278C97.2503 14.69 97.101 14.018 97.101 13.262C97.101 12.4967 97.2503 11.8247 97.549 11.246C97.857 10.658 98.2677 10.2007 98.781 9.874C99.2943 9.538 99.8637 9.37 100.489 9.37C100.89 9.37 101.259 9.43067 101.595 9.552C101.931 9.67333 102.22 9.82733 102.463 10.014C102.715 10.2007 102.906 10.392 103.037 10.588C103.177 10.7747 103.247 10.9333 103.247 11.064L102.743 11.246V10.224C102.743 9.98133 102.822 9.78067 102.981 9.622C103.14 9.454 103.34 9.37 103.583 9.37ZM100.755 15.6C101.166 15.6 101.525 15.4973 101.833 15.292C102.141 15.0867 102.379 14.8067 102.547 14.452C102.724 14.0973 102.813 13.7007 102.813 13.262C102.813 12.814 102.724 12.4127 102.547 12.058C102.379 11.7033 102.141 11.4233 101.833 11.218C101.525 11.0127 101.166 10.91 100.755 10.91C100.354 10.91 99.999 11.0127 99.691 11.218C99.383 11.4233 99.1403 11.7033 98.963 12.058C98.795 12.4127 98.711 12.814 98.711 13.262C98.711 13.7007 98.795 14.0973 98.963 14.452C99.1403 14.8067 99.383 15.0867 99.691 15.292C99.999 15.4973 100.354 15.6 100.755 15.6ZM106.326 9.65H109.644C109.868 9.65 110.055 9.72467 110.204 9.874C110.353 10.0233 110.428 10.21 110.428 10.434C110.428 10.6487 110.353 10.8307 110.204 10.98C110.055 11.12 109.868 11.19 109.644 11.19H106.326C106.102 11.19 105.915 11.1153 105.766 10.966C105.617 10.8167 105.542 10.63 105.542 10.406C105.542 10.1913 105.617 10.014 105.766 9.874C105.915 9.72467 106.102 9.65 106.326 9.65ZM107.824 7.9C108.067 7.9 108.263 7.984 108.412 8.152C108.571 8.31067 108.65 8.51133 108.65 8.754V14.984C108.65 15.1147 108.673 15.222 108.72 15.306C108.776 15.39 108.846 15.4507 108.93 15.488C109.023 15.5253 109.121 15.544 109.224 15.544C109.336 15.544 109.439 15.5253 109.532 15.488C109.625 15.4413 109.733 15.418 109.854 15.418C109.985 15.418 110.101 15.4787 110.204 15.6C110.316 15.7213 110.372 15.8893 110.372 16.104C110.372 16.3653 110.227 16.58 109.938 16.748C109.658 16.916 109.355 17 109.028 17C108.832 17 108.613 16.986 108.37 16.958C108.137 16.9207 107.913 16.8413 107.698 16.72C107.493 16.5893 107.32 16.3933 107.18 16.132C107.04 15.8707 106.97 15.5113 106.97 15.054V8.754C106.97 8.51133 107.049 8.31067 107.208 8.152C107.376 7.984 107.581 7.9 107.824 7.9ZM118.103 9.37C118.345 9.37 118.546 9.44933 118.705 9.608C118.863 9.76667 118.943 9.972 118.943 10.224V16.146C118.943 16.3887 118.863 16.594 118.705 16.762C118.546 16.9207 118.345 17 118.103 17C117.86 17 117.659 16.9207 117.501 16.762C117.342 16.594 117.263 16.3887 117.263 16.146V15.46L117.571 15.586C117.571 15.7073 117.505 15.8567 117.375 16.034C117.244 16.202 117.067 16.37 116.843 16.538C116.619 16.706 116.353 16.8507 116.045 16.972C115.746 17.084 115.419 17.14 115.065 17.14C114.421 17.14 113.837 16.9767 113.315 16.65C112.792 16.314 112.377 15.8567 112.069 15.278C111.77 14.69 111.621 14.018 111.621 13.262C111.621 12.4967 111.77 11.8247 112.069 11.246C112.377 10.658 112.787 10.2007 113.301 9.874C113.814 9.538 114.383 9.37 115.009 9.37C115.41 9.37 115.779 9.43067 116.115 9.552C116.451 9.67333 116.74 9.82733 116.983 10.014C117.235 10.2007 117.426 10.392 117.557 10.588C117.697 10.7747 117.767 10.9333 117.767 11.064L117.263 11.246V10.224C117.263 9.98133 117.342 9.78067 117.501 9.622C117.659 9.454 117.86 9.37 118.103 9.37ZM115.275 15.6C115.685 15.6 116.045 15.4973 116.353 15.292C116.661 15.0867 116.899 14.8067 117.067 14.452C117.244 14.0973 117.333 13.7007 117.333 13.262C117.333 12.814 117.244 12.4127 117.067 12.058C116.899 11.7033 116.661 11.4233 116.353 11.218C116.045 11.0127 115.685 10.91 115.275 10.91C114.873 10.91 114.519 11.0127 114.211 11.218C113.903 11.4233 113.66 11.7033 113.483 12.058C113.315 12.4127 113.231 12.814 113.231 13.262C113.231 13.7007 113.315 14.0973 113.483 14.452C113.66 14.8067 113.903 15.0867 114.211 15.292C114.519 15.4973 114.873 15.6 115.275 15.6ZM124.64 9.37C125.293 9.37 125.876 9.538 126.39 9.874C126.912 10.2007 127.323 10.6533 127.622 11.232C127.93 11.8107 128.084 12.4827 128.084 13.248C128.084 14.0133 127.93 14.69 127.622 15.278C127.323 15.8567 126.917 16.314 126.404 16.65C125.9 16.9767 125.33 17.14 124.696 17.14C124.322 17.14 123.972 17.0793 123.646 16.958C123.319 16.8367 123.03 16.6827 122.778 16.496C122.535 16.3093 122.344 16.1227 122.204 15.936C122.073 15.74 122.008 15.5767 122.008 15.446L122.442 15.264V18.946C122.442 19.1887 122.362 19.3893 122.204 19.548C122.045 19.716 121.844 19.8 121.602 19.8C121.359 19.8 121.158 19.7207 121 19.562C120.841 19.4033 120.762 19.198 120.762 18.946V10.364C120.762 10.1213 120.841 9.92067 121 9.762C121.158 9.594 121.359 9.51 121.602 9.51C121.844 9.51 122.045 9.594 122.204 9.762C122.362 9.92067 122.442 10.1213 122.442 10.364V11.05L122.204 10.924C122.204 10.8027 122.269 10.658 122.4 10.49C122.53 10.3127 122.708 10.14 122.932 9.972C123.156 9.79467 123.412 9.65 123.702 9.538C124 9.426 124.313 9.37 124.64 9.37ZM124.43 10.91C124.019 10.91 123.66 11.0127 123.352 11.218C123.044 11.4233 122.801 11.7033 122.624 12.058C122.456 12.4033 122.372 12.8 122.372 13.248C122.372 13.6867 122.456 14.088 122.624 14.452C122.801 14.8067 123.044 15.0867 123.352 15.292C123.66 15.4973 124.019 15.6 124.43 15.6C124.84 15.6 125.195 15.4973 125.494 15.292C125.802 15.0867 126.04 14.8067 126.208 14.452C126.385 14.088 126.474 13.6867 126.474 13.248C126.474 12.8 126.385 12.4033 126.208 12.058C126.04 11.7033 125.802 11.4233 125.494 11.218C125.195 11.0127 124.84 10.91 124.43 10.91ZM136.819 13.262C136.819 14.0273 136.646 14.704 136.301 15.292C135.965 15.8707 135.507 16.3233 134.929 16.65C134.359 16.9767 133.72 17.14 133.011 17.14C132.301 17.14 131.657 16.9767 131.079 16.65C130.509 16.3233 130.052 15.8707 129.707 15.292C129.371 14.704 129.203 14.0273 129.203 13.262C129.203 12.4967 129.371 11.8247 129.707 11.246C130.052 10.658 130.509 10.2007 131.079 9.874C131.657 9.538 132.301 9.37 133.011 9.37C133.72 9.37 134.359 9.538 134.929 9.874C135.507 10.2007 135.965 10.658 136.301 11.246C136.646 11.8247 136.819 12.4967 136.819 13.262ZM135.139 13.262C135.139 12.786 135.041 12.3753 134.845 12.03C134.658 11.6753 134.401 11.4 134.075 11.204C133.757 11.008 133.403 10.91 133.011 10.91C132.619 10.91 132.259 11.008 131.933 11.204C131.615 11.4 131.359 11.6753 131.163 12.03C130.976 12.3753 130.883 12.786 130.883 13.262C130.883 13.7287 130.976 14.1393 131.163 14.494C131.359 14.8393 131.615 15.11 131.933 15.306C132.259 15.502 132.619 15.6 133.011 15.6C133.403 15.6 133.757 15.502 134.075 15.306C134.401 15.11 134.658 14.8393 134.845 14.494C135.041 14.1393 135.139 13.7287 135.139 13.262ZM139.871 16.146C139.871 16.3887 139.792 16.594 139.633 16.762C139.474 16.9207 139.274 17 139.031 17C138.788 17 138.588 16.9207 138.429 16.762C138.27 16.594 138.191 16.3887 138.191 16.146V10.364C138.191 10.1213 138.27 9.92067 138.429 9.762C138.588 9.594 138.788 9.51 139.031 9.51C139.274 9.51 139.474 9.594 139.633 9.762C139.792 9.92067 139.871 10.1213 139.871 10.364V16.146ZM139.017 8.6C138.7 8.6 138.476 8.54867 138.345 8.446C138.214 8.34333 138.149 8.16133 138.149 7.9V7.634C138.149 7.36333 138.219 7.18133 138.359 7.088C138.508 6.98533 138.732 6.934 139.031 6.934C139.358 6.934 139.586 6.98533 139.717 7.088C139.848 7.19067 139.913 7.37267 139.913 7.634V7.9C139.913 8.17067 139.843 8.35733 139.703 8.46C139.563 8.55333 139.334 8.6 139.017 8.6ZM145.602 9.37C146.292 9.37 146.815 9.51467 147.17 9.804C147.534 10.0933 147.781 10.4807 147.912 10.966C148.052 11.442 148.122 11.974 148.122 12.562V16.146C148.122 16.3887 148.042 16.594 147.883 16.762C147.725 16.9207 147.524 17 147.282 17C147.039 17 146.838 16.9207 146.68 16.762C146.521 16.594 146.442 16.3887 146.442 16.146V12.562C146.442 12.254 146.4 11.9787 146.316 11.736C146.241 11.484 146.101 11.2833 145.896 11.134C145.69 10.9847 145.396 10.91 145.014 10.91C144.64 10.91 144.323 10.9847 144.062 11.134C143.81 11.2833 143.614 11.484 143.474 11.736C143.343 11.9787 143.278 12.254 143.278 12.562V16.146C143.278 16.3887 143.198 16.594 143.04 16.762C142.881 16.9207 142.68 17 142.438 17C142.195 17 141.994 16.9207 141.836 16.762C141.677 16.594 141.598 16.3887 141.598 16.146V10.364C141.598 10.1213 141.677 9.92067 141.836 9.762C141.994 9.594 142.195 9.51 142.438 9.51C142.68 9.51 142.881 9.594 143.04 9.762C143.198 9.92067 143.278 10.1213 143.278 10.364V10.966L143.068 10.924C143.152 10.7653 143.273 10.5973 143.432 10.42C143.59 10.2333 143.777 10.0607 143.992 9.902C144.206 9.74333 144.449 9.61733 144.72 9.524C144.99 9.42133 145.284 9.37 145.602 9.37ZM150.021 9.65H153.339C153.563 9.65 153.75 9.72467 153.899 9.874C154.049 10.0233 154.123 10.21 154.123 10.434C154.123 10.6487 154.049 10.8307 153.899 10.98C153.75 11.12 153.563 11.19 153.339 11.19H150.021C149.797 11.19 149.611 11.1153 149.461 10.966C149.312 10.8167 149.237 10.63 149.237 10.406C149.237 10.1913 149.312 10.014 149.461 9.874C149.611 9.72467 149.797 9.65 150.021 9.65ZM151.519 7.9C151.762 7.9 151.958 7.984 152.107 8.152C152.266 8.31067 152.345 8.51133 152.345 8.754V14.984C152.345 15.1147 152.369 15.222 152.415 15.306C152.471 15.39 152.541 15.4507 152.625 15.488C152.719 15.5253 152.817 15.544 152.919 15.544C153.031 15.544 153.134 15.5253 153.227 15.488C153.321 15.4413 153.428 15.418 153.549 15.418C153.68 15.418 153.797 15.4787 153.899 15.6C154.011 15.7213 154.067 15.8893 154.067 16.104C154.067 16.3653 153.923 16.58 153.633 16.748C153.353 16.916 153.05 17 152.723 17C152.527 17 152.308 16.986 152.065 16.958C151.832 16.9207 151.608 16.8413 151.393 16.72C151.188 16.5893 151.015 16.3933 150.875 16.132C150.735 15.8707 150.665 15.5113 150.665 15.054V8.754C150.665 8.51133 150.745 8.31067 150.903 8.152C151.071 7.984 151.277 7.9 151.519 7.9ZM155.505 15.838C155.412 15.7073 155.37 15.5393 155.379 15.334C155.389 15.1287 155.51 14.9513 155.743 14.802C155.893 14.7087 156.051 14.6713 156.219 14.69C156.387 14.6993 156.551 14.7833 156.709 14.942C156.98 15.2127 157.265 15.4227 157.563 15.572C157.862 15.7213 158.235 15.796 158.683 15.796C158.823 15.7867 158.977 15.768 159.145 15.74C159.313 15.7027 159.458 15.628 159.579 15.516C159.71 15.3947 159.775 15.2127 159.775 14.97C159.775 14.7647 159.705 14.6013 159.565 14.48C159.425 14.3587 159.239 14.256 159.005 14.172C158.781 14.088 158.529 14.0087 158.249 13.934C157.96 13.85 157.661 13.7567 157.353 13.654C157.055 13.5513 156.779 13.4207 156.527 13.262C156.275 13.094 156.07 12.8747 155.911 12.604C155.753 12.3333 155.673 11.9927 155.673 11.582C155.673 11.1153 155.804 10.7187 156.065 10.392C156.327 10.0653 156.663 9.81333 157.073 9.636C157.493 9.45867 157.932 9.37 158.389 9.37C158.679 9.37 158.982 9.40733 159.299 9.482C159.617 9.54733 159.92 9.65933 160.209 9.818C160.499 9.96733 160.741 10.168 160.937 10.42C161.04 10.56 161.101 10.728 161.119 10.924C161.138 11.12 161.049 11.2973 160.853 11.456C160.713 11.568 160.55 11.6193 160.363 11.61C160.177 11.5913 160.023 11.526 159.901 11.414C159.743 11.2087 159.528 11.0453 159.257 10.924C158.996 10.8027 158.693 10.742 158.347 10.742C158.207 10.742 158.053 10.7607 157.885 10.798C157.727 10.826 157.587 10.896 157.465 11.008C157.344 11.1107 157.283 11.2787 157.283 11.512C157.283 11.7267 157.353 11.8993 157.493 12.03C157.633 12.1513 157.82 12.254 158.053 12.338C158.296 12.4127 158.553 12.4873 158.823 12.562C159.103 12.6367 159.388 12.7253 159.677 12.828C159.967 12.9307 160.233 13.066 160.475 13.234C160.718 13.402 160.914 13.6213 161.063 13.892C161.213 14.1533 161.287 14.4893 161.287 14.9C161.287 15.376 161.147 15.782 160.867 16.118C160.587 16.454 160.237 16.7107 159.817 16.888C159.397 17.056 158.968 17.14 158.529 17.14C157.979 17.14 157.428 17.0467 156.877 16.86C156.327 16.664 155.869 16.3233 155.505 15.838Z" fill="#19191F"/>
<path d="M36 2.00004C34.4679 1.99727 32.9556 2.34658 31.5799 3.02101C30.2042 3.69544 29.0019 4.67696 28.0658 5.8898C27.1296 7.10264 26.4847 8.51438 26.1807 10.016C25.8767 11.5177 25.9219 13.0691 26.3126 14.5506C26.7034 16.032 27.4294 17.4038 28.4344 18.5602C29.4395 19.7166 30.6969 20.6265 32.1095 21.2198C33.5221 21.8131 35.0521 22.0739 36.5814 21.982C38.1108 21.8902 39.5986 21.4481 40.93 20.69H41H41.05C42.9753 19.5941 44.4821 17.8898 45.3339 15.8448C46.1858 13.7997 46.3345 11.5297 45.7566 9.39107C45.1788 7.25241 43.9071 5.36618 42.1412 4.02845C40.3753 2.69073 38.2152 1.97727 36 2.00004ZM37 4.07004C38.76 4.29323 40.3959 5.09514 41.6504 6.34963C42.9049 7.60412 43.7068 9.24002 43.93 11H37V4.07004ZM36 20C33.9745 19.9862 32.0297 19.2046 30.5579 17.8129C29.0862 16.4212 28.1972 14.523 28.0703 12.5014C27.9434 10.4799 28.5881 8.48543 29.8742 6.9206C31.1603 5.35577 32.9921 4.33705 35 4.07004V12C35.0039 12.1198 35.0276 12.238 35.07 12.35V12.43V12.5L39.07 19.37C38.0997 19.7853 37.0554 19.9996 36 20ZM40.83 18.36L37.73 13H43.93C43.7954 14.0546 43.4519 15.0718 42.9196 15.9921C42.3873 16.9124 41.6769 17.7174 40.83 18.36Z" fill="#7465F1"/>
<circle opacity="0.5" cx="36" cy="144" r="12" fill="#F4BF6E"/>
<path d="M42.8167 142.492C42.2173 142.383 41.6091 142.33 41 142.333C40.65 142.333 40.3083 142.333 39.9667 142.4C39.5413 141.832 38.9984 141.363 38.375 141.025C38.9105 140.44 39.2077 139.676 39.2083 138.883C39.2083 138.03 38.8694 137.212 38.2662 136.609C37.663 136.006 36.8448 135.667 35.9917 135.667C35.1386 135.667 34.3204 136.006 33.7171 136.609C33.1139 137.212 32.775 138.03 32.775 138.883C32.7756 139.676 33.0729 140.44 33.6083 141.025C32.9887 141.365 32.4466 141.831 32.0167 142.392C31.6917 142.333 31.35 142.333 31 142.333C30.3904 142.336 29.7822 142.394 29.1833 142.508C28.9892 142.544 28.814 142.647 28.6888 142.8C28.5637 142.952 28.4968 143.144 28.5 143.342V150.217C28.4998 150.339 28.5266 150.46 28.5784 150.571C28.6303 150.682 28.7059 150.78 28.8 150.858C28.8935 150.937 29.0032 150.995 29.1212 151.026C29.2393 151.058 29.363 151.063 29.4833 151.042C29.982 150.933 30.4898 150.872 31 150.858C32.6142 150.857 34.1935 151.329 35.5417 152.217V152.217L35.65 152.258C35.7605 152.306 35.8795 152.332 36 152.333C36.0795 152.332 36.1584 152.318 36.2333 152.292H36.2917L36.4 152.25C37.761 151.34 39.3625 150.855 41 150.858C41.5091 150.861 42.0169 150.911 42.5167 151.008C42.637 151.03 42.7607 151.025 42.8788 150.993C42.9969 150.961 43.1065 150.904 43.2 150.825C43.2941 150.747 43.3697 150.649 43.4216 150.538C43.4734 150.427 43.5002 150.306 43.5 150.183V143.308C43.4993 143.114 43.4306 142.926 43.3058 142.777C43.181 142.628 43.008 142.527 42.8167 142.492V142.492ZM36 137.333C36.3904 137.362 36.7554 137.537 37.0219 137.824C37.2883 138.111 37.4364 138.488 37.4364 138.879C37.4364 139.271 37.2883 139.648 37.0219 139.934C36.7554 140.221 36.3904 140.396 36 140.425V140.425C35.6096 140.396 35.2446 140.221 34.9781 139.934C34.7117 139.648 34.5636 139.271 34.5636 138.879C34.5636 138.488 34.7117 138.111 34.9781 137.824C35.2446 137.537 35.6096 137.362 36 137.333V137.333ZM35.1667 150.108C33.8606 149.505 32.4389 149.192 31 149.192C30.725 149.192 30.45 149.192 30.1667 149.233V144C30.8655 143.922 31.5715 143.936 32.2667 144.042H32.3583C33.3513 144.224 34.3029 144.586 35.1667 145.108V150.108ZM36 143.667C35.6294 143.453 35.2453 143.264 34.85 143.1H34.8C34.525 142.992 34.25 142.883 33.9667 142.8C34.5453 142.34 35.2606 142.085 36 142.075V142.075C36.7375 142.08 37.4526 142.329 38.0333 142.783C37.3259 143.004 36.6442 143.3 36 143.667V143.667ZM41.8333 149.233C40.1222 149.061 38.3962 149.349 36.8333 150.067V145.067C37.6987 144.557 38.6508 144.213 39.6417 144.05H39.8083C40.4783 143.946 41.159 143.929 41.8333 144V149.233Z" fill="#D68E22"/>
<circle opacity="0.5" cx="36" cy="238" r="12" fill="#F9A8D1"/>
<path d="M45.1667 237.333C44.8333 236.333 43.8333 235.667 42.8333 235.667C41.4167 235.667 40.3333 236.75 40.3333 238.167C40.3333 239.25 41 240.167 42 240.5V241.917C42 244 40.3333 245.667 38.25 245.667C36.1667 245.667 34.5 244 34.5 241.917V241.417C36.9167 241 38.6667 238.917 38.6667 236.5V231.5C38.6667 231 38.3333 230.667 37.8333 230.667H36.1667C35.6667 230.667 35.3333 231 35.3333 231.5C35.3333 232 35.6667 232.333 36.1667 232.333H37V236.5C37 238.333 35.5 239.833 33.6667 239.833C31.8333 239.833 30.3333 238.333 30.3333 236.5V232.333H31.1667C31.6667 232.333 32 232 32 231.5C32 231 31.6667 230.667 31.1667 230.667H29.5C29 230.667 28.6667 231 28.6667 231.5V236.5C28.6667 238.917 30.4167 241 32.8333 241.417V241.917C32.8333 244.917 35.25 247.333 38.25 247.333C41.25 247.333 43.6667 244.917 43.6667 241.917V240.5C45 240.083 45.6667 238.667 45.1667 237.333Z" fill="#EF5DA8"/>
<circle opacity="0.5" cx="36" cy="97" r="12" fill="#FAA7A6"/>
<path d="M34.0917 92.2416C34.0142 92.1635 33.922 92.1015 33.8205 92.0592C33.7189 92.0169 33.61 91.9951 33.5 91.9951C33.39 91.9951 33.2811 92.0169 33.1795 92.0592C33.078 92.1015 32.9858 92.1635 32.9083 92.2416L28.7417 96.4083C28.6636 96.4858 28.6016 96.5779 28.5593 96.6795C28.5169 96.781 28.4952 96.8899 28.4952 96.9999C28.4952 97.11 28.5169 97.2189 28.5593 97.3204C28.6016 97.422 28.6636 97.5141 28.7417 97.5916L32.9083 101.758C32.9858 101.836 33.078 101.898 33.1795 101.941C33.2811 101.983 33.39 102.005 33.5 102.005C33.61 102.005 33.7189 101.983 33.8205 101.941C33.922 101.898 34.0142 101.836 34.0917 101.758C34.1698 101.681 34.2318 101.589 34.2741 101.487C34.3164 101.386 34.3382 101.277 34.3382 101.167C34.3382 101.057 34.3164 100.948 34.2741 100.846C34.2318 100.745 34.1698 100.652 34.0917 100.575L30.5083 96.9999L34.0917 93.4249C34.1698 93.3475 34.2318 93.2553 34.2741 93.1538C34.3164 93.0522 34.3382 92.9433 34.3382 92.8333C34.3382 92.7233 34.3164 92.6144 34.2741 92.5128C34.2318 92.4113 34.1698 92.3191 34.0917 92.2416ZM43.2583 96.4083L39.0917 92.2416C39.014 92.1639 38.9217 92.1023 38.8202 92.0602C38.7187 92.0182 38.6099 91.9965 38.5 91.9965C38.2781 91.9965 38.0652 92.0847 37.9083 92.2416C37.8306 92.3193 37.769 92.4116 37.7269 92.5131C37.6849 92.6146 37.6633 92.7234 37.6633 92.8333C37.6633 93.0552 37.7514 93.268 37.9083 93.4249L41.4917 96.9999L37.9083 100.575C37.8302 100.652 37.7682 100.745 37.7259 100.846C37.6836 100.948 37.6618 101.057 37.6618 101.167C37.6618 101.277 37.6836 101.386 37.7259 101.487C37.7682 101.589 37.8302 101.681 37.9083 101.758C37.9858 101.836 38.078 101.898 38.1795 101.941C38.2811 101.983 38.39 102.005 38.5 102.005C38.61 102.005 38.7189 101.983 38.8205 101.941C38.922 101.898 39.0142 101.836 39.0917 101.758L43.2583 97.5916C43.3364 97.5141 43.3984 97.422 43.4407 97.3204C43.483 97.2189 43.5048 97.11 43.5048 96.9999C43.5048 96.8899 43.483 96.781 43.4407 96.6795C43.3984 96.5779 43.3364 96.4858 43.2583 96.4083Z" fill="#CF5250"/>
<circle opacity="0.5" cx="36" cy="191" r="12" fill="#ADF3CC"/>
<path d="M33.9167 189.75H36C36.221 189.75 36.433 189.662 36.5893 189.506C36.7455 189.35 36.8333 189.138 36.8333 188.917C36.8333 188.696 36.7455 188.484 36.5893 188.327C36.433 188.171 36.221 188.083 36 188.083H35.1667V187.667C35.1667 187.446 35.0789 187.234 34.9226 187.077C34.7663 186.921 34.5543 186.833 34.3333 186.833C34.1123 186.833 33.9004 186.921 33.7441 187.077C33.5878 187.234 33.5 187.446 33.5 187.667V188.125C32.9937 188.228 32.5436 188.515 32.2372 188.931C31.9308 189.347 31.7899 189.862 31.8418 190.376C31.8937 190.89 32.1348 191.366 32.5182 191.713C32.9016 192.059 33.4 192.25 33.9167 192.25H34.75C34.8605 192.25 34.9665 192.294 35.0446 192.372C35.1228 192.45 35.1667 192.556 35.1667 192.667C35.1667 192.777 35.1228 192.883 35.0446 192.961C34.9665 193.039 34.8605 193.083 34.75 193.083H32.6667C32.4456 193.083 32.2337 193.171 32.0774 193.327C31.9211 193.484 31.8333 193.696 31.8333 193.917C31.8333 194.138 31.9211 194.35 32.0774 194.506C32.2337 194.662 32.4456 194.75 32.6667 194.75H33.5V195.167C33.5 195.388 33.5878 195.6 33.7441 195.756C33.9004 195.912 34.1123 196 34.3333 196C34.5543 196 34.7663 195.912 34.9226 195.756C35.0789 195.6 35.1667 195.388 35.1667 195.167V194.708C35.673 194.605 36.123 194.318 36.4294 193.902C36.7359 193.486 36.8768 192.971 36.8249 192.457C36.773 191.943 36.5319 191.467 36.1485 191.121C35.7651 190.774 35.2666 190.583 34.75 190.583H33.9167C33.8062 190.583 33.7002 190.539 33.622 190.461C33.5439 190.383 33.5 190.277 33.5 190.167C33.5 190.056 33.5439 189.95 33.622 189.872C33.7002 189.794 33.8062 189.75 33.9167 189.75ZM43.5 191H41V183.5C41.0006 183.353 40.9623 183.209 40.8892 183.081C40.816 182.954 40.7105 182.848 40.5833 182.775C40.4566 182.702 40.3129 182.663 40.1667 182.663C40.0204 182.663 39.8767 182.702 39.75 182.775L37.25 184.208L34.75 182.775C34.6233 182.702 34.4796 182.663 34.3333 182.663C34.187 182.663 34.0433 182.702 33.9167 182.775L31.4167 184.208L28.9167 182.775C28.79 182.702 28.6463 182.663 28.5 182.663C28.3537 182.663 28.21 182.702 28.0833 182.775C27.9562 182.848 27.8506 182.954 27.7775 183.081C27.7043 183.209 27.6661 183.353 27.6667 183.5V196.833C27.6667 197.496 27.9301 198.132 28.3989 198.601C28.8677 199.07 29.5036 199.333 30.1667 199.333H41.8333C42.4964 199.333 43.1323 199.07 43.6011 198.601C44.0699 198.132 44.3333 197.496 44.3333 196.833V191.833C44.3333 191.612 44.2455 191.4 44.0893 191.244C43.933 191.088 43.721 191 43.5 191ZM30.1667 197.667C29.9456 197.667 29.7337 197.579 29.5774 197.423C29.4211 197.266 29.3333 197.054 29.3333 196.833V184.942L31 185.892C31.1286 185.959 31.2716 185.994 31.4167 185.994C31.5618 185.994 31.7047 185.959 31.8333 185.892L34.3333 184.458L36.8333 185.892C36.9619 185.959 37.1049 185.994 37.25 185.994C37.3951 185.994 37.538 185.959 37.6667 185.892L39.3333 184.942V196.833C39.3356 197.118 39.3863 197.399 39.4833 197.667H30.1667ZM42.6667 196.833C42.6667 197.054 42.5789 197.266 42.4226 197.423C42.2663 197.579 42.0543 197.667 41.8333 197.667C41.6123 197.667 41.4004 197.579 41.2441 197.423C41.0878 197.266 41 197.054 41 196.833V192.667H42.6667V196.833Z" fill="#69CA94"/>
<defs>
<filter id="filter0_d_337_1534" x="120.315" y="62.8461" width="209.369" height="256.645" filterUnits="userSpaceOnUse" color-interpolation-filters="sRGB">
<feFlood flood-opacity="0" result="BackgroundImageFix"/>
<feColorMatrix in="SourceAlpha" type="matrix" values="0 0 0 0 0 0 0 0 0 0 0 0 0 0 0 0 0 0 127 0" result="hardAlpha"/>
<feMorphology radius="6.73698" operator="erode" in="SourceAlpha" result="effect1_dropShadow_337_1534"/>
<feOffset dy="20.2109"/>
<feGaussianBlur stdDeviation="20.2109"/>
<feComposite in2="hardAlpha" operator="out"/>
<feColorMatrix type="matrix" values="0 0 0 0 0.152941 0 0 0 0 0.221961 0 0 0 0 0.466667 0 0 0 0.16 0"/>
<feBlend mode="normal" in2="BackgroundImageFix" result="effect1_dropShadow_337_1534"/>
<feBlend mode="normal" in="SourceGraphic" in2="effect1_dropShadow_337_1534" result="shape"/>
</filter>
<radialGradient id="paint0_angular_337_1534" cx="0" cy="0" r="1" gradientUnits="userSpaceOnUse" gradientTransform="translate(295.696 160.225) rotate(-90) scale(94.6375)">
<stop stop-color="#CF5250"/>
<stop offset="0.09375" stop-color="#69CA94"/>
<stop offset="0.5625" stop-color="#69CA94"/>
<stop offset="0.682292" stop-color="#D68E22"/>
<stop offset="0.833333" stop-color="#EF5DA8"/>
<stop offset="0.927083" stop-color="#CF5250"/>
</radialGradient>
</defs>
</svg>
