<svg width="244" height="36" viewBox="0 0 244 36" fill="none" xmlns="http://www.w3.org/2000/svg">
<path d="M52.2 14.14C51.528 14.14 50.9307 14.056 50.408 13.888C49.8853 13.72 49.3953 13.4353 48.938 13.034C48.686 12.81 48.56 12.5627 48.56 12.292C48.56 12.0773 48.6393 11.8907 48.798 11.732C48.9567 11.564 49.148 11.48 49.372 11.48C49.5493 11.48 49.708 11.536 49.848 11.648C50.2213 11.956 50.5853 12.18 50.94 12.32C51.2947 12.46 51.7147 12.53 52.2 12.53C52.7227 12.53 53.1707 12.4133 53.544 12.18C53.9267 11.9467 54.118 11.6573 54.118 11.312C54.118 10.892 53.9313 10.5653 53.558 10.332C53.1847 10.0893 52.592 9.90733 51.78 9.786C49.736 9.48733 48.714 8.53533 48.714 6.93C48.714 6.342 48.868 5.83333 49.176 5.404C49.484 4.96533 49.904 4.634 50.436 4.41C50.968 4.17667 51.5607 4.06 52.214 4.06C52.802 4.06 53.3527 4.14867 53.866 4.326C54.3887 4.50333 54.8227 4.73667 55.168 5.026C55.4387 5.24067 55.574 5.488 55.574 5.768C55.574 5.98267 55.4947 6.174 55.336 6.342C55.1773 6.50067 54.9907 6.58 54.776 6.58C54.636 6.58 54.51 6.538 54.398 6.454C54.1553 6.258 53.8147 6.08067 53.376 5.922C52.9467 5.754 52.5593 5.67 52.214 5.67C51.626 5.67 51.1687 5.782 50.842 6.006C50.5247 6.22067 50.366 6.50533 50.366 6.86C50.366 7.26133 50.5293 7.56467 50.856 7.77C51.192 7.97533 51.7147 8.14333 52.424 8.274C53.2267 8.414 53.866 8.596 54.342 8.82C54.8273 9.03467 55.1913 9.33333 55.434 9.716C55.6767 10.0893 55.798 10.5887 55.798 11.214C55.798 11.802 55.63 12.32 55.294 12.768C54.9673 13.2067 54.5287 13.5473 53.978 13.79C53.4273 14.0233 52.8347 14.14 52.2 14.14ZM60.5255 6.37C61.3188 6.37 61.9582 6.496 62.4435 6.748C62.9288 6.99067 63.1715 7.31733 63.1715 7.728C63.1715 7.93333 63.1108 8.11533 62.9895 8.274C62.8682 8.42333 62.7095 8.498 62.5135 8.498C62.3642 8.498 62.2428 8.47933 62.1495 8.442C62.0562 8.39533 61.9628 8.33933 61.8695 8.274C61.7855 8.19933 61.7015 8.13867 61.6175 8.092C61.5242 8.04533 61.3842 8.00333 61.1975 7.966C61.0202 7.92867 60.8755 7.91 60.7635 7.91C60.0635 7.91 59.5128 8.12933 59.1115 8.568C58.7195 8.99733 58.5235 9.562 58.5235 10.262C58.5235 10.934 58.7242 11.494 59.1255 11.942C59.5268 12.3807 60.0402 12.6 60.6655 12.6C61.1228 12.6 61.4635 12.544 61.6875 12.432C61.7435 12.404 61.8182 12.3573 61.9115 12.292C62.0142 12.2173 62.1075 12.1613 62.1915 12.124C62.2755 12.0867 62.3782 12.068 62.4995 12.068C62.7328 12.068 62.9148 12.1427 63.0455 12.292C63.1855 12.4413 63.2555 12.6327 63.2555 12.866C63.2555 13.09 63.1248 13.3 62.8635 13.496C62.6022 13.692 62.2568 13.8507 61.8275 13.972C61.3982 14.084 60.9408 14.14 60.4555 14.14C59.7368 14.14 59.1022 13.972 58.5515 13.636C58.0102 13.3 57.5902 12.838 57.2915 12.25C56.9928 11.6527 56.8435 10.99 56.8435 10.262C56.8435 9.506 56.9975 8.834 57.3055 8.246C57.6228 7.658 58.0615 7.20067 58.6215 6.874C59.1815 6.538 59.8162 6.37 60.5255 6.37ZM70.5306 6.37C70.7733 6.37 70.9739 6.44933 71.1326 6.608C71.2913 6.76667 71.3706 6.972 71.3706 7.224V13.146C71.3706 13.3887 71.2913 13.594 71.1326 13.762C70.9739 13.9207 70.7733 14 70.5306 14C70.2879 14 70.0873 13.9207 69.9286 13.762C69.7793 13.6033 69.6999 13.4027 69.6906 13.16C69.4573 13.4307 69.1399 13.664 68.7386 13.86C68.3466 14.0467 67.9313 14.14 67.4926 14.14C66.8486 14.14 66.2653 13.9767 65.7426 13.65C65.2199 13.314 64.8046 12.852 64.4966 12.264C64.1979 11.676 64.0486 11.0087 64.0486 10.262C64.0486 9.51533 64.1979 8.848 64.4966 8.26C64.7953 7.66267 65.2013 7.20067 65.7146 6.874C66.2373 6.538 66.8113 6.37 67.4366 6.37C67.8846 6.37 68.3046 6.454 68.6966 6.622C69.0886 6.78067 69.4199 6.986 69.6906 7.238V7.224C69.6906 6.98133 69.7699 6.78067 69.9286 6.622C70.0873 6.454 70.2879 6.37 70.5306 6.37ZM67.7026 12.6C68.3093 12.6 68.8039 12.3807 69.1866 11.942C69.5693 11.494 69.7606 10.934 69.7606 10.262C69.7606 9.59 69.5693 9.03 69.1866 8.582C68.8039 8.134 68.3093 7.91 67.7026 7.91C67.1053 7.91 66.6153 8.134 66.2326 8.582C65.8499 9.03 65.6586 9.59 65.6586 10.262C65.6586 10.934 65.8453 11.494 66.2186 11.942C66.6013 12.3807 67.0959 12.6 67.7026 12.6ZM77.1953 6.37C78.1473 6.37 78.8053 6.65467 79.1693 7.224C79.5333 7.784 79.7153 8.56333 79.7153 9.562V13.146C79.7153 13.3887 79.6359 13.594 79.4772 13.762C79.3186 13.9207 79.1179 14 78.8753 14C78.6326 14 78.4319 13.9207 78.2733 13.762C78.1146 13.594 78.0353 13.3887 78.0353 13.146V9.562C78.0353 9.04867 77.9279 8.64733 77.7133 8.358C77.4986 8.05933 77.1299 7.91 76.6073 7.91C76.0659 7.91 75.6413 8.06867 75.3333 8.386C75.0253 8.694 74.8713 9.086 74.8713 9.562V13.146C74.8713 13.3887 74.7919 13.594 74.6333 13.762C74.4746 13.9207 74.2739 14 74.0312 14C73.7886 14 73.5879 13.9207 73.4293 13.762C73.2706 13.594 73.1913 13.3887 73.1913 13.146V7.364C73.1913 7.12133 73.2706 6.92067 73.4293 6.762C73.5879 6.594 73.7886 6.51 74.0312 6.51C74.2739 6.51 74.4746 6.594 74.6333 6.762C74.7919 6.92067 74.8713 7.12133 74.8713 7.364V7.602C75.1233 7.266 75.4499 6.97667 75.8513 6.734C76.2619 6.49133 76.7099 6.37 77.1953 6.37ZM92.0349 4.2C92.2869 4.2 92.4923 4.27467 92.6509 4.424C92.8096 4.57333 92.8889 4.76933 92.8889 5.012C92.8889 5.25467 92.8096 5.45067 92.6509 5.6C92.4923 5.74 92.2869 5.81 92.0349 5.81H89.8369V13.146C89.8369 13.3887 89.7483 13.594 89.5709 13.762C89.3936 13.9207 89.1743 14 88.9129 14C88.6516 14 88.4369 13.9207 88.2689 13.762C88.1009 13.594 88.0169 13.3887 88.0169 13.146V5.81H85.8189C85.5669 5.81 85.3616 5.73533 85.2029 5.586C85.0443 5.43667 84.9649 5.24067 84.9649 4.998C84.9649 4.76467 85.0443 4.57333 85.2029 4.424C85.3709 4.27467 85.5763 4.2 85.8189 4.2H92.0349ZM99.257 10.08C99.2476 10.304 99.159 10.486 98.991 10.626C98.823 10.766 98.627 10.836 98.403 10.836H93.783C93.895 11.3867 94.1516 11.8207 94.553 12.138C94.9543 12.446 95.407 12.6 95.911 12.6C96.2936 12.6 96.5923 12.5673 96.807 12.502C97.0216 12.4273 97.1896 12.3527 97.311 12.278C97.4416 12.194 97.5303 12.138 97.577 12.11C97.745 12.026 97.9036 11.984 98.053 11.984C98.249 11.984 98.417 12.054 98.557 12.194C98.697 12.334 98.767 12.4973 98.767 12.684C98.767 12.936 98.6363 13.1647 98.375 13.37C98.1136 13.5847 97.7636 13.7667 97.325 13.916C96.8863 14.0653 96.443 14.14 95.995 14.14C95.211 14.14 94.525 13.9767 93.937 13.65C93.3583 13.3233 92.9103 12.8753 92.593 12.306C92.2756 11.7273 92.117 11.0787 92.117 10.36C92.117 9.55733 92.285 8.85267 92.621 8.246C92.957 7.63933 93.4003 7.17733 93.951 6.86C94.5016 6.53333 95.0896 6.37 95.715 6.37C96.331 6.37 96.9096 6.538 97.451 6.874C98.0016 7.21 98.4403 7.66267 98.767 8.232C99.0936 8.80133 99.257 9.41733 99.257 10.08ZM95.715 7.91C94.6323 7.91 93.993 8.41867 93.797 9.436H97.465V9.338C97.4276 8.946 97.2363 8.61 96.891 8.33C96.5456 8.05 96.1536 7.91 95.715 7.91ZM106.174 12.67C106.295 12.8193 106.356 12.9873 106.356 13.174C106.356 13.4073 106.267 13.608 106.09 13.776C105.913 13.944 105.717 14.028 105.502 14.028C105.231 14.028 105.003 13.9067 104.816 13.664L103.136 11.578L101.498 13.664C101.414 13.776 101.311 13.8647 101.19 13.93C101.078 13.986 100.957 14.014 100.826 14.014C100.63 14.014 100.443 13.9393 100.266 13.79C100.089 13.6407 100 13.468 100 13.272C100 13.0853 100.07 12.908 100.21 12.74L102.156 10.36L100.14 7.854C100.019 7.70467 99.958 7.53667 99.958 7.35C99.958 7.11667 100.042 6.92067 100.21 6.762C100.387 6.594 100.588 6.51 100.812 6.51C101.083 6.51 101.311 6.62667 101.498 6.86L103.22 9.002L104.816 6.888C104.993 6.636 105.217 6.51 105.488 6.51C105.712 6.51 105.899 6.58933 106.048 6.748C106.207 6.89733 106.286 7.07 106.286 7.266C106.286 7.47133 106.221 7.65333 106.09 7.812L104.158 10.164L106.174 12.67ZM111.79 12.418C111.92 12.418 112.037 12.4833 112.14 12.614C112.252 12.7353 112.308 12.8987 112.308 13.104C112.308 13.356 112.168 13.5707 111.888 13.748C111.617 13.916 111.309 14 110.964 14C110.385 14 109.895 13.8787 109.494 13.636C109.102 13.384 108.906 12.8567 108.906 12.054V8.19H108.262C108.038 8.19 107.851 8.11533 107.702 7.966C107.552 7.81667 107.478 7.63 107.478 7.406C107.478 7.19133 107.552 7.014 107.702 6.874C107.851 6.72467 108.038 6.65 108.262 6.65H108.906V5.754C108.906 5.51133 108.985 5.31067 109.144 5.152C109.312 4.984 109.517 4.9 109.76 4.9C109.993 4.9 110.189 4.984 110.348 5.152C110.506 5.31067 110.586 5.51133 110.586 5.754V6.65H111.58C111.804 6.65 111.99 6.72467 112.14 6.874C112.289 7.02333 112.364 7.21 112.364 7.434C112.364 7.64867 112.289 7.83067 112.14 7.98C111.99 8.12 111.804 8.19 111.58 8.19H110.586V11.984C110.586 12.18 110.637 12.3247 110.74 12.418C110.842 12.502 110.982 12.544 111.16 12.544C111.234 12.544 111.337 12.5253 111.468 12.488C111.58 12.4413 111.687 12.418 111.79 12.418ZM119.72 5.81V8.274H122.744C122.987 8.274 123.187 8.35333 123.346 8.512C123.514 8.66133 123.598 8.85733 123.598 9.1C123.598 9.30533 123.514 9.48733 123.346 9.646C123.187 9.80467 122.987 9.884 122.744 9.884H119.72V13.146C119.72 13.3887 119.631 13.594 119.454 13.762C119.286 13.9207 119.085 14 118.852 14C118.591 14 118.376 13.9207 118.208 13.762C118.049 13.6033 117.97 13.398 117.97 13.146V5.054C117.97 4.81133 118.049 4.61067 118.208 4.452C118.376 4.284 118.581 4.2 118.824 4.2H123.374C123.617 4.2 123.817 4.27933 123.976 4.438C124.144 4.58733 124.228 4.78333 124.228 5.026C124.228 5.23133 124.144 5.41333 123.976 5.572C123.817 5.73067 123.617 5.81 123.374 5.81H119.72ZM127.273 13.146C127.273 13.3887 127.194 13.594 127.035 13.762C126.877 13.9207 126.676 14 126.433 14C126.191 14 125.99 13.9207 125.831 13.762C125.673 13.594 125.593 13.3887 125.593 13.146V7.364C125.593 7.12133 125.673 6.92067 125.831 6.762C125.99 6.594 126.191 6.51 126.433 6.51C126.676 6.51 126.877 6.594 127.035 6.762C127.194 6.92067 127.273 7.12133 127.273 7.364V13.146ZM126.419 5.6C126.102 5.6 125.878 5.54867 125.747 5.446C125.617 5.34333 125.551 5.16133 125.551 4.9V4.634C125.551 4.37267 125.621 4.19067 125.761 4.088C125.901 3.98533 126.125 3.934 126.433 3.934C126.76 3.934 126.989 3.98533 127.119 4.088C127.25 4.19067 127.315 4.37267 127.315 4.634V4.9C127.315 5.17067 127.245 5.35733 127.105 5.46C126.975 5.55333 126.746 5.6 126.419 5.6ZM130.82 13.146C130.82 13.3887 130.736 13.594 130.568 13.762C130.409 13.9207 130.209 14 129.966 14C129.733 14 129.537 13.9207 129.378 13.762C129.219 13.594 129.14 13.3887 129.14 13.146V4.494C129.14 4.25133 129.219 4.05067 129.378 3.892C129.546 3.724 129.751 3.64 129.994 3.64C130.227 3.64 130.423 3.724 130.582 3.892C130.741 4.05067 130.82 4.25133 130.82 4.494V13.146ZM139.357 10.08C139.347 10.304 139.259 10.486 139.091 10.626C138.923 10.766 138.727 10.836 138.503 10.836H133.883C133.995 11.3867 134.251 11.8207 134.653 12.138C135.054 12.446 135.507 12.6 136.011 12.6C136.393 12.6 136.692 12.5673 136.907 12.502C137.121 12.4273 137.289 12.3527 137.411 12.278C137.541 12.194 137.63 12.138 137.677 12.11C137.845 12.026 138.003 11.984 138.153 11.984C138.349 11.984 138.517 12.054 138.657 12.194C138.797 12.334 138.867 12.4973 138.867 12.684C138.867 12.936 138.736 13.1647 138.475 13.37C138.213 13.5847 137.863 13.7667 137.425 13.916C136.986 14.0653 136.543 14.14 136.095 14.14C135.311 14.14 134.625 13.9767 134.037 13.65C133.458 13.3233 133.01 12.8753 132.693 12.306C132.375 11.7273 132.217 11.0787 132.217 10.36C132.217 9.55733 132.385 8.85267 132.721 8.246C133.057 7.63933 133.5 7.17733 134.051 6.86C134.601 6.53333 135.189 6.37 135.815 6.37C136.431 6.37 137.009 6.538 137.551 6.874C138.101 7.21 138.54 7.66267 138.867 8.232C139.193 8.80133 139.357 9.41733 139.357 10.08ZM135.815 7.91C134.732 7.91 134.093 8.41867 133.897 9.436H137.565V9.338C137.527 8.946 137.336 8.61 136.991 8.33C136.645 8.05 136.253 7.91 135.815 7.91ZM50.8 23.81V26.274H53.824C54.0667 26.274 54.2673 26.3533 54.426 26.512C54.594 26.6613 54.678 26.8573 54.678 27.1C54.678 27.3053 54.594 27.4873 54.426 27.646C54.2673 27.8047 54.0667 27.884 53.824 27.884H50.8V31.146C50.8 31.3887 50.7113 31.594 50.534 31.762C50.366 31.9207 50.1653 32 49.932 32C49.6707 32 49.456 31.9207 49.288 31.762C49.1293 31.6033 49.05 31.398 49.05 31.146V23.054C49.05 22.8113 49.1293 22.6107 49.288 22.452C49.456 22.284 49.6613 22.2 49.904 22.2H54.454C54.6967 22.2 54.8973 22.2793 55.056 22.438C55.224 22.5873 55.308 22.7833 55.308 23.026C55.308 23.2313 55.224 23.4133 55.056 23.572C54.8973 23.7307 54.6967 23.81 54.454 23.81H50.8ZM63.7623 28.262C63.7623 29.0087 63.5943 29.6807 63.2583 30.278C62.9223 30.866 62.4603 31.3233 61.8723 31.65C61.2936 31.9767 60.6543 32.14 59.9543 32.14C59.2449 32.14 58.6009 31.9767 58.0223 31.65C57.4436 31.3233 56.9863 30.866 56.6503 30.278C56.3143 29.6807 56.1463 29.0087 56.1463 28.262C56.1463 27.5153 56.3143 26.848 56.6503 26.26C56.9863 25.6627 57.4436 25.2007 58.0223 24.874C58.6009 24.538 59.2449 24.37 59.9543 24.37C60.6543 24.37 61.2936 24.538 61.8723 24.874C62.4603 25.2007 62.9223 25.6627 63.2583 26.26C63.5943 26.848 63.7623 27.5153 63.7623 28.262ZM62.0823 28.262C62.0823 27.8047 61.9843 27.3987 61.7883 27.044C61.6016 26.68 61.3449 26.4 61.0183 26.204C60.7009 26.008 60.3463 25.91 59.9543 25.91C59.5623 25.91 59.2029 26.008 58.8763 26.204C58.5589 26.4 58.3023 26.68 58.1063 27.044C57.9196 27.3987 57.8263 27.8047 57.8263 28.262C57.8263 28.7193 57.9196 29.1253 58.1063 29.48C58.3023 29.8347 58.5589 30.11 58.8763 30.306C59.2029 30.502 59.5623 30.6 59.9543 30.6C60.3463 30.6 60.7009 30.502 61.0183 30.306C61.3449 30.11 61.6016 29.8347 61.7883 29.48C61.9843 29.1253 62.0823 28.7193 62.0823 28.262ZM69.0579 24.37C69.3379 24.37 69.5712 24.4493 69.7579 24.608C69.9539 24.7667 70.0519 24.9533 70.0519 25.168C70.0519 25.4573 69.9772 25.6767 69.8279 25.826C69.6785 25.966 69.5012 26.036 69.2959 26.036C69.1559 26.036 68.9972 26.0033 68.8199 25.938C68.7919 25.9287 68.7265 25.91 68.6239 25.882C68.5305 25.854 68.4279 25.84 68.3159 25.84C68.0732 25.84 67.8399 25.9147 67.6159 26.064C67.3919 26.2133 67.2052 26.442 67.0559 26.75C66.9159 27.0487 66.8459 27.408 66.8459 27.828V31.146C66.8459 31.3887 66.7665 31.594 66.6079 31.762C66.4492 31.9207 66.2485 32 66.0059 32C65.7632 32 65.5625 31.9207 65.4039 31.762C65.2452 31.594 65.1659 31.3887 65.1659 31.146V25.364C65.1659 25.1213 65.2452 24.9207 65.4039 24.762C65.5625 24.594 65.7632 24.51 66.0059 24.51C66.2485 24.51 66.4492 24.594 66.6079 24.762C66.7665 24.9207 66.8459 25.1213 66.8459 25.364V25.546C67.0605 25.1633 67.3685 24.874 67.7699 24.678C68.1712 24.4727 68.6005 24.37 69.0579 24.37ZM79.8742 24.37C80.7982 24.37 81.4375 24.6547 81.7922 25.224C82.1468 25.784 82.3242 26.5633 82.3242 27.562V31.146C82.3242 31.3887 82.2448 31.594 82.0862 31.762C81.9275 31.9207 81.7268 32 81.4842 32C81.2415 32 81.0408 31.9207 80.8822 31.762C80.7235 31.594 80.6442 31.3887 80.6442 31.146V27.562C80.6442 27.0487 80.5415 26.6473 80.3362 26.358C80.1402 26.0593 79.7902 25.91 79.2862 25.91C78.7635 25.91 78.3528 26.0687 78.0542 26.386C77.7648 26.694 77.6202 27.086 77.6202 27.562V31.146C77.6202 31.3887 77.5408 31.594 77.3822 31.762C77.2235 31.9207 77.0228 32 76.7802 32C76.5375 32 76.3368 31.9207 76.1782 31.762C76.0195 31.594 75.9402 31.3887 75.9402 31.146V27.562C75.9402 27.0487 75.8375 26.6473 75.6322 26.358C75.4362 26.0593 75.0862 25.91 74.5822 25.91C74.0595 25.91 73.6488 26.0687 73.3502 26.386C73.0608 26.694 72.9162 27.086 72.9162 27.562V31.146C72.9162 31.3887 72.8368 31.594 72.6782 31.762C72.5195 31.9207 72.3188 32 72.0762 32C71.8335 32 71.6328 31.9207 71.4742 31.762C71.3155 31.594 71.2362 31.3887 71.2362 31.146V25.364C71.2362 25.1213 71.3155 24.9207 71.4742 24.762C71.6328 24.594 71.8335 24.51 72.0762 24.51C72.3188 24.51 72.5195 24.594 72.6782 24.762C72.8368 24.9207 72.9162 25.1213 72.9162 25.364V25.588C73.1682 25.252 73.4855 24.9673 73.8682 24.734C74.2602 24.4913 74.6942 24.37 75.1702 24.37C76.3462 24.37 77.0975 24.8833 77.4242 25.91C77.6388 25.518 77.9608 25.1633 78.3902 24.846C78.8288 24.5287 79.3235 24.37 79.8742 24.37ZM90.2044 24.37C90.4471 24.37 90.6478 24.4493 90.8064 24.608C90.9651 24.7667 91.0444 24.972 91.0444 25.224V31.146C91.0444 31.3887 90.9651 31.594 90.8064 31.762C90.6478 31.9207 90.4471 32 90.2044 32C89.9618 32 89.7611 31.9207 89.6024 31.762C89.4531 31.6033 89.3738 31.4027 89.3644 31.16C89.1311 31.4307 88.8138 31.664 88.4124 31.86C88.0204 32.0467 87.6051 32.14 87.1664 32.14C86.5224 32.14 85.9391 31.9767 85.4164 31.65C84.8938 31.314 84.4784 30.852 84.1704 30.264C83.8718 29.676 83.7224 29.0087 83.7224 28.262C83.7224 27.5153 83.8718 26.848 84.1704 26.26C84.4691 25.6627 84.8751 25.2007 85.3884 24.874C85.9111 24.538 86.4851 24.37 87.1104 24.37C87.5584 24.37 87.9784 24.454 88.3704 24.622C88.7624 24.7807 89.0938 24.986 89.3644 25.238V25.224C89.3644 24.9813 89.4438 24.7807 89.6024 24.622C89.7611 24.454 89.9618 24.37 90.2044 24.37ZM87.3764 30.6C87.9831 30.6 88.4778 30.3807 88.8604 29.942C89.2431 29.494 89.4344 28.934 89.4344 28.262C89.4344 27.59 89.2431 27.03 88.8604 26.582C88.4778 26.134 87.9831 25.91 87.3764 25.91C86.7791 25.91 86.2891 26.134 85.9064 26.582C85.5238 27.03 85.3324 27.59 85.3324 28.262C85.3324 28.934 85.5191 29.494 85.8924 29.942C86.2751 30.3807 86.7698 30.6 87.3764 30.6ZM96.4771 30.418C96.6077 30.418 96.7244 30.4833 96.8271 30.614C96.9391 30.7353 96.9951 30.8987 96.9951 31.104C96.9951 31.356 96.8551 31.5707 96.5751 31.748C96.3044 31.916 95.9964 32 95.6511 32C95.0724 32 94.5824 31.8787 94.1811 31.636C93.7891 31.384 93.5931 30.8567 93.5931 30.054V26.19H92.9491C92.7251 26.19 92.5384 26.1153 92.3891 25.966C92.2397 25.8167 92.1651 25.63 92.1651 25.406C92.1651 25.1913 92.2397 25.014 92.3891 24.874C92.5384 24.7247 92.7251 24.65 92.9491 24.65H93.5931V23.754C93.5931 23.5113 93.6724 23.3107 93.8311 23.152C93.9991 22.984 94.2044 22.9 94.4471 22.9C94.6804 22.9 94.8764 22.984 95.0351 23.152C95.1937 23.3107 95.2731 23.5113 95.2731 23.754V24.65H96.2671C96.4911 24.65 96.6777 24.7247 96.8271 24.874C96.9764 25.0233 97.0511 25.21 97.0511 25.434C97.0511 25.6487 96.9764 25.8307 96.8271 25.98C96.6777 26.12 96.4911 26.19 96.2671 26.19H95.2731V29.984C95.2731 30.18 95.3244 30.3247 95.4271 30.418C95.5297 30.502 95.6697 30.544 95.8471 30.544C95.9217 30.544 96.0244 30.5253 96.1551 30.488C96.2671 30.4413 96.3744 30.418 96.4771 30.418ZM98.433 30.838C98.349 30.726 98.307 30.586 98.307 30.418C98.307 30.1753 98.4284 29.97 98.671 29.802C98.8017 29.718 98.937 29.676 99.077 29.676C99.273 29.676 99.4597 29.7647 99.637 29.942C99.917 30.2313 100.206 30.446 100.505 30.586C100.813 30.726 101.182 30.796 101.611 30.796C102.339 30.768 102.703 30.4927 102.703 29.97C102.703 29.6993 102.577 29.494 102.325 29.354C102.082 29.214 101.7 29.074 101.177 28.934C100.636 28.7847 100.192 28.6353 99.847 28.486C99.511 28.3367 99.217 28.1127 98.965 27.814C98.7224 27.506 98.601 27.0953 98.601 26.582C98.601 26.134 98.727 25.7467 98.979 25.42C99.2404 25.084 99.5764 24.8273 99.987 24.65C100.407 24.4633 100.85 24.37 101.317 24.37C101.793 24.37 102.269 24.4587 102.745 24.636C103.221 24.8133 103.594 25.0747 103.865 25.42C103.986 25.5693 104.047 25.7373 104.047 25.924C104.047 26.1387 103.958 26.316 103.781 26.456C103.65 26.5587 103.501 26.61 103.333 26.61C103.128 26.61 102.96 26.5447 102.829 26.414C102.661 26.2087 102.442 26.0453 102.171 25.924C101.91 25.8027 101.611 25.742 101.275 25.742C100.566 25.742 100.211 25.9987 100.211 26.512C100.211 26.7173 100.276 26.8853 100.407 27.016C100.538 27.1373 100.701 27.2353 100.897 27.31C101.102 27.3753 101.387 27.4593 101.751 27.562C102.255 27.702 102.675 27.8467 103.011 27.996C103.347 28.1453 103.632 28.374 103.865 28.682C104.098 28.99 104.215 29.396 104.215 29.9C104.215 30.3573 104.08 30.7587 103.809 31.104C103.538 31.44 103.188 31.6967 102.759 31.874C102.339 32.0513 101.905 32.14 101.457 32.14C100.841 32.14 100.267 32.0373 99.735 31.832C99.203 31.6267 98.769 31.2953 98.433 30.838ZM112.723 34.548C112.583 34.548 112.457 34.5107 112.345 34.436C111.281 33.7267 110.464 32.8493 109.895 31.804C109.335 30.7493 109.055 29.606 109.055 28.374C109.055 27.142 109.335 26.0033 109.895 24.958C110.464 23.9033 111.281 23.0213 112.345 22.312C112.457 22.2373 112.583 22.2 112.723 22.2C112.928 22.2 113.096 22.2793 113.227 22.438C113.357 22.5967 113.423 22.76 113.423 22.928C113.423 23.1427 113.325 23.3293 113.129 23.488C112.335 24.104 111.738 24.832 111.337 25.672C110.945 26.512 110.749 27.4127 110.749 28.374C110.749 29.354 110.945 30.2733 111.337 31.132C111.729 31.9813 112.326 32.6907 113.129 33.26C113.325 33.4 113.423 33.5867 113.423 33.82C113.423 33.9973 113.353 34.1607 113.213 34.31C113.073 34.4687 112.909 34.548 112.723 34.548ZM115.291 31.986C115.02 31.986 114.81 31.916 114.661 31.776C114.521 31.6267 114.451 31.4167 114.451 31.146V30.908C114.451 30.6373 114.521 30.432 114.661 30.292C114.81 30.1427 115.02 30.068 115.291 30.068H115.473C115.743 30.068 115.949 30.1427 116.089 30.292C116.238 30.432 116.313 30.6373 116.313 30.908V31.146C116.313 31.4167 116.238 31.6267 116.089 31.776C115.949 31.916 115.743 31.986 115.473 31.986H115.291ZM121.647 30.418C121.778 30.418 121.894 30.4833 121.997 30.614C122.109 30.7353 122.165 30.8987 122.165 31.104C122.165 31.356 122.025 31.5707 121.745 31.748C121.474 31.916 121.166 32 120.821 32C120.242 32 119.752 31.8787 119.351 31.636C118.959 31.384 118.763 30.8567 118.763 30.054V26.19H118.119C117.895 26.19 117.708 26.1153 117.559 25.966C117.41 25.8167 117.335 25.63 117.335 25.406C117.335 25.1913 117.41 25.014 117.559 24.874C117.708 24.7247 117.895 24.65 118.119 24.65H118.763V23.754C118.763 23.5113 118.842 23.3107 119.001 23.152C119.169 22.984 119.374 22.9 119.617 22.9C119.85 22.9 120.046 22.984 120.205 23.152C120.364 23.3107 120.443 23.5113 120.443 23.754V24.65H121.437C121.661 24.65 121.848 24.7247 121.997 24.874C122.146 25.0233 122.221 25.21 122.221 25.434C122.221 25.6487 122.146 25.8307 121.997 25.98C121.848 26.12 121.661 26.19 121.437 26.19H120.443V29.984C120.443 30.18 120.494 30.3247 120.597 30.418C120.7 30.502 120.84 30.544 121.017 30.544C121.092 30.544 121.194 30.5253 121.325 30.488C121.437 30.4413 121.544 30.418 121.647 30.418ZM129.28 30.67C129.401 30.8193 129.462 30.9873 129.462 31.174C129.462 31.4073 129.373 31.608 129.196 31.776C129.018 31.944 128.822 32.028 128.608 32.028C128.337 32.028 128.108 31.9067 127.922 31.664L126.242 29.578L124.604 31.664C124.52 31.776 124.417 31.8647 124.296 31.93C124.184 31.986 124.062 32.014 123.932 32.014C123.736 32.014 123.549 31.9393 123.372 31.79C123.194 31.6407 123.106 31.468 123.106 31.272C123.106 31.0853 123.176 30.908 123.316 30.74L125.262 28.36L123.246 25.854C123.124 25.7047 123.064 25.5367 123.064 25.35C123.064 25.1167 123.148 24.9207 123.316 24.762C123.493 24.594 123.694 24.51 123.918 24.51C124.188 24.51 124.417 24.6267 124.604 24.86L126.326 27.002L127.922 24.888C128.099 24.636 128.323 24.51 128.594 24.51C128.818 24.51 129.004 24.5893 129.154 24.748C129.312 24.8973 129.392 25.07 129.392 25.266C129.392 25.4713 129.326 25.6533 129.196 25.812L127.264 28.164L129.28 30.67ZM134.895 30.418C135.026 30.418 135.142 30.4833 135.245 30.614C135.357 30.7353 135.413 30.8987 135.413 31.104C135.413 31.356 135.273 31.5707 134.993 31.748C134.722 31.916 134.414 32 134.069 32C133.49 32 133 31.8787 132.599 31.636C132.207 31.384 132.011 30.8567 132.011 30.054V26.19H131.367C131.143 26.19 130.956 26.1153 130.807 25.966C130.658 25.8167 130.583 25.63 130.583 25.406C130.583 25.1913 130.658 25.014 130.807 24.874C130.956 24.7247 131.143 24.65 131.367 24.65H132.011V23.754C132.011 23.5113 132.09 23.3107 132.249 23.152C132.417 22.984 132.622 22.9 132.865 22.9C133.098 22.9 133.294 22.984 133.453 23.152C133.612 23.3107 133.691 23.5113 133.691 23.754V24.65H134.685C134.909 24.65 135.096 24.7247 135.245 24.874C135.394 25.0233 135.469 25.21 135.469 25.434C135.469 25.6487 135.394 25.8307 135.245 25.98C135.096 26.12 134.909 26.19 134.685 26.19H133.691V29.984C133.691 30.18 133.742 30.3247 133.845 30.418C133.948 30.502 134.088 30.544 134.265 30.544C134.34 30.544 134.442 30.5253 134.573 30.488C134.685 30.4413 134.792 30.418 134.895 30.418ZM137.012 34.548C136.806 34.548 136.638 34.4687 136.508 34.31C136.377 34.1513 136.312 33.988 136.312 33.82C136.312 33.6053 136.41 33.4187 136.606 33.26C137.399 32.644 137.992 31.916 138.384 31.076C138.785 30.236 138.986 29.3353 138.986 28.374C138.986 27.394 138.79 26.4793 138.398 25.63C138.006 24.7713 137.408 24.0573 136.606 23.488C136.41 23.348 136.312 23.1613 136.312 22.928C136.312 22.7507 136.382 22.5873 136.522 22.438C136.662 22.2793 136.825 22.2 137.012 22.2C137.152 22.2 137.278 22.2373 137.39 22.312C138.454 23.0213 139.266 23.9033 139.826 24.958C140.395 26.0033 140.68 27.142 140.68 28.374C140.68 29.606 140.395 30.7493 139.826 31.804C139.266 32.8493 138.454 33.7267 137.39 34.436C137.278 34.5107 137.152 34.548 137.012 34.548Z" fill="#19191F"/>
<path d="M229.17 13C228.984 13.1874 228.879 13.4408 228.879 13.705C228.879 13.9692 228.984 14.2226 229.17 14.41L232.71 18L229.17 21.54C228.984 21.7274 228.879 21.9808 228.879 22.245C228.879 22.5092 228.984 22.7626 229.17 22.95C229.263 23.0437 229.374 23.1181 229.495 23.1689C229.617 23.2197 229.748 23.2458 229.88 23.2458C230.012 23.2458 230.143 23.2197 230.265 23.1689C230.386 23.1181 230.497 23.0437 230.59 22.95L234.83 18.71C234.924 18.617 234.998 18.5064 235.049 18.3846C235.1 18.2627 235.126 18.132 235.126 18C235.126 17.868 235.1 17.7373 235.049 17.6154C234.998 17.4936 234.924 17.383 234.83 17.29L230.59 13C230.497 12.9063 230.386 12.8319 230.265 12.7811C230.143 12.7303 230.012 12.7042 229.88 12.7042C229.748 12.7042 229.617 12.7303 229.495 12.7811C229.374 12.8319 229.263 12.9063 229.17 13Z" fill="#9591AF"/>
<path d="M13.5 15H15C15.3978 15 15.7794 14.842 16.0607 14.5607C16.342 14.2794 16.5 13.8978 16.5 13.5C16.5 13.1022 16.342 12.7206 16.0607 12.4393C15.7794 12.158 15.3978 12 15 12H13.5C13.1022 12 12.7206 12.158 12.4393 12.4393C12.158 12.7206 12 13.1022 12 13.5C12 13.8978 12.158 14.2794 12.4393 14.5607C12.7206 14.842 13.1022 15 13.5 15V15ZM13.5 18C13.1022 18 12.7206 18.158 12.4393 18.4393C12.158 18.7206 12 19.1022 12 19.5C12 19.8978 12.158 20.2794 12.4393 20.5607C12.7206 20.842 13.1022 21 13.5 21H22.5C22.8978 21 23.2794 20.842 23.5607 20.5607C23.842 20.2794 24 19.8978 24 19.5C24 19.1022 23.842 18.7206 23.5607 18.4393C23.2794 18.158 22.8978 18 22.5 18H13.5ZM30 13.41C29.9844 13.2722 29.9542 13.1364 29.91 13.005V12.87C29.8379 12.7158 29.7417 12.574 29.625 12.45V12.45L20.625 3.45C20.501 3.33332 20.3592 3.23712 20.205 3.165C20.1602 3.15864 20.1148 3.15864 20.07 3.165C19.9176 3.07761 19.7493 3.02152 19.575 3H10.5C9.30653 3 8.16193 3.47411 7.31802 4.31802C6.47411 5.16193 6 6.30653 6 7.5V28.5C6 29.6935 6.47411 30.8381 7.31802 31.682C8.16193 32.5259 9.30653 33 10.5 33H25.5C26.6935 33 27.8381 32.5259 28.682 31.682C29.5259 30.8381 30 29.6935 30 28.5V13.5C30 13.5 30 13.5 30 13.41ZM21 8.115L24.885 12H22.5C22.1022 12 21.7206 11.842 21.4393 11.5607C21.158 11.2794 21 10.8978 21 10.5V8.115ZM27 28.5C27 28.8978 26.842 29.2794 26.5607 29.5607C26.2794 29.842 25.8978 30 25.5 30H10.5C10.1022 30 9.72064 29.842 9.43934 29.5607C9.15804 29.2794 9 28.8978 9 28.5V7.5C9 7.10218 9.15804 6.72064 9.43934 6.43934C9.72064 6.15804 10.1022 6 10.5 6H18V10.5C18 11.6935 18.4741 12.8381 19.318 13.682C20.1619 14.5259 21.3065 15 22.5 15H27V28.5ZM22.5 24H13.5C13.1022 24 12.7206 24.158 12.4393 24.4393C12.158 24.7206 12 25.1022 12 25.5C12 25.8978 12.158 26.2794 12.4393 26.5607C12.7206 26.842 13.1022 27 13.5 27H22.5C22.8978 27 23.2794 26.842 23.5607 26.5607C23.842 26.2794 24 25.8978 24 25.5C24 25.1022 23.842 24.7206 23.5607 24.4393C23.2794 24.158 22.8978 24 22.5 24Z" fill="#19191F"/>
<rect x="6" y="17" width="24" height="11" fill="#5D5FEF"/>
<path d="M14.5539 20.0212C14.6806 20.0212 14.7838 20.0589 14.8636 20.1342C14.9433 20.2095 14.9832 20.3084 14.9832 20.4308C14.9832 20.5532 14.9433 20.6521 14.8636 20.7274C14.7838 20.798 14.6806 20.8333 14.5539 20.8333H13.449V24.5339C13.449 24.6563 13.4045 24.7599 13.3153 24.8446C13.2262 24.9247 13.1159 24.9647 12.9846 24.9647C12.8532 24.9647 12.7453 24.9247 12.6608 24.8446C12.5764 24.7599 12.5342 24.6563 12.5342 24.5339V20.8333H11.4293C11.3026 20.8333 11.1994 20.7957 11.1196 20.7203C11.0399 20.645 11 20.5461 11 20.4237C11 20.306 11.0399 20.2095 11.1196 20.1342C11.2041 20.0589 11.3073 20.0212 11.4293 20.0212H14.5539Z" fill="white"/>
<path d="M19.3956 24.315C19.4519 24.3903 19.48 24.4774 19.48 24.5763C19.48 24.6987 19.4354 24.7999 19.3463 24.8799C19.2572 24.96 19.161 25 19.0578 25C18.9217 25 18.8068 24.9388 18.7129 24.8164L17.4602 23.1427L16.2428 24.8023C16.1489 24.9341 16.0316 25 15.8909 25C15.7877 25 15.6985 24.9623 15.6235 24.887C15.5484 24.8117 15.5109 24.7246 15.5109 24.6257C15.5109 24.5221 15.5461 24.4256 15.6164 24.3362L16.9747 22.4929L15.6164 20.685C15.5554 20.6097 15.5249 20.525 15.5249 20.4308C15.5249 20.3131 15.5695 20.2119 15.6587 20.1271C15.7478 20.0424 15.8463 20 15.9542 20C16.0903 20 16.2052 20.0612 16.2991 20.1836L17.5377 21.8362L18.7481 20.2189C18.795 20.153 18.849 20.1036 18.91 20.0706C18.971 20.033 19.032 20.0141 19.0929 20.0141C19.1962 20.0141 19.2877 20.0565 19.3674 20.1412C19.4472 20.2213 19.487 20.3107 19.487 20.4096C19.487 20.4991 19.4565 20.5838 19.3956 20.6638L18.0232 22.4788L19.3956 24.315Z" fill="white"/>
<path d="M23.5707 20.0212C23.6974 20.0212 23.8006 20.0589 23.8804 20.1342C23.9601 20.2095 24 20.3084 24 20.4308C24 20.5532 23.9601 20.6521 23.8804 20.7274C23.8006 20.798 23.6974 20.8333 23.5707 20.8333H22.4658V24.5339C22.4658 24.6563 22.4213 24.7599 22.3321 24.8446C22.243 24.9247 22.1327 24.9647 22.0014 24.9647C21.87 24.9647 21.7621 24.9247 21.6776 24.8446C21.5932 24.7599 21.551 24.6563 21.551 24.5339V20.8333H20.4461C20.3194 20.8333 20.2162 20.7957 20.1364 20.7203C20.0567 20.645 20.0168 20.5461 20.0168 20.4237C20.0168 20.306 20.0567 20.2095 20.1364 20.1342C20.2209 20.0589 20.3241 20.0212 20.4461 20.0212H23.5707Z" fill="white"/>
</svg>
