<svg width="32" height="32" viewBox="0 0 32 32" fill="none" xmlns="http://www.w3.org/2000/svg">
<g clip-path="url(#clip0_289_1587)">
<path d="M13.0372 11.5555C13.1837 11.5555 13.3269 11.5121 13.4488 11.4307C13.5706 11.3493 13.6655 11.2336 13.7216 11.0982C13.7776 10.9629 13.7923 10.8139 13.7637 10.6703C13.7351 10.5266 13.6646 10.3946 13.561 10.291C13.4574 10.1874 13.3254 10.1168 13.1817 10.0883C13.038 10.0597 12.8891 10.0743 12.7537 10.1304C12.6184 10.1865 12.5027 10.2814 12.4213 10.4032C12.3399 10.5251 12.2965 10.6683 12.2965 10.8148C12.2965 11.0112 12.3745 11.1996 12.5134 11.3386C12.6524 11.4775 12.8408 11.5555 13.0372 11.5555ZM22.6668 21.1851H18.0891C17.9785 20.8745 17.8001 20.5923 17.5669 20.3591C17.3337 20.126 17.0516 19.9476 16.7409 19.837V18.2222H19.7039C20.2933 18.2222 20.8585 17.9881 21.2752 17.5713C21.692 17.1546 21.9261 16.5893 21.9261 16V14.5185C21.9228 13.9703 21.7171 13.4426 21.3483 13.037C21.7171 12.6313 21.9228 12.1037 21.9261 11.5555V10.074C21.9261 9.48466 21.692 8.91943 21.2752 8.50268C20.8585 8.08593 20.2933 7.85181 19.7039 7.85181H12.2965C11.7071 7.85181 11.1419 8.08593 10.7251 8.50268C10.3084 8.91943 10.0743 9.48466 10.0743 10.074V11.5555C10.0775 12.1037 10.2833 12.6313 10.652 13.037C10.2833 13.4426 10.0775 13.9703 10.0743 14.5185V16C10.0743 16.5893 10.3084 17.1546 10.7251 17.5713C11.1419 17.9881 11.7071 18.2222 12.2965 18.2222H15.2594V19.837C14.9488 19.9476 14.6666 20.126 14.4334 20.3591C14.2003 20.5923 14.0219 20.8745 13.9113 21.1851H9.33351C9.13706 21.1851 8.94865 21.2632 8.80973 21.4021C8.67082 21.541 8.59277 21.7294 8.59277 21.9259C8.59277 22.1223 8.67082 22.3108 8.80973 22.4497C8.94865 22.5886 9.13706 22.6666 9.33351 22.6666H13.9113C14.067 23.0956 14.351 23.4663 14.7247 23.7282C15.0985 23.9902 15.5438 24.1307 16.0002 24.1307C16.4566 24.1307 16.9019 23.9902 17.2756 23.7282C17.6493 23.4663 17.9334 23.0956 18.0891 22.6666H22.6668C22.8633 22.6666 23.0517 22.5886 23.1906 22.4497C23.3295 22.3108 23.4076 22.1223 23.4076 21.9259C23.4076 21.7294 23.3295 21.541 23.1906 21.4021C23.0517 21.2632 22.8633 21.1851 22.6668 21.1851ZM11.5557 10.074C11.5557 9.87757 11.6338 9.68916 11.7727 9.55025C11.9116 9.41133 12.1 9.33329 12.2965 9.33329H19.7039C19.9003 9.33329 20.0888 9.41133 20.2277 9.55025C20.3666 9.68916 20.4446 9.87757 20.4446 10.074V11.5555C20.4446 11.752 20.3666 11.9404 20.2277 12.0793C20.0888 12.2182 19.9003 12.2963 19.7039 12.2963H12.2965C12.1 12.2963 11.9116 12.2182 11.7727 12.0793C11.6338 11.9404 11.5557 11.752 11.5557 11.5555V10.074ZM12.2965 16.7407C12.1 16.7407 11.9116 16.6627 11.7727 16.5237C11.6338 16.3848 11.5557 16.1964 11.5557 16V14.5185C11.5557 14.322 11.6338 14.1336 11.7727 13.9947C11.9116 13.8558 12.1 13.7777 12.2965 13.7777H19.7039C19.9003 13.7777 20.0888 13.8558 20.2277 13.9947C20.3666 14.1336 20.4446 14.322 20.4446 14.5185V16C20.4446 16.1964 20.3666 16.3848 20.2277 16.5237C20.0888 16.6627 19.9003 16.7407 19.7039 16.7407H12.2965ZM16.0002 22.6666C15.8537 22.6666 15.7105 22.6232 15.5886 22.5418C15.4668 22.4604 15.3719 22.3447 15.3158 22.2094C15.2598 22.074 15.2451 21.9251 15.2737 21.7814C15.3023 21.6377 15.3728 21.5057 15.4764 21.4021C15.58 21.2985 15.712 21.228 15.8557 21.1994C15.9994 21.1708 16.1483 21.1855 16.2837 21.2415C16.419 21.2976 16.5347 21.3925 16.6161 21.5143C16.6975 21.6362 16.7409 21.7794 16.7409 21.9259C16.7409 22.1223 16.6629 22.3108 16.524 22.4497C16.385 22.5886 16.1966 22.6666 16.0002 22.6666ZM13.0372 14.5185C12.8907 14.5185 12.7475 14.5619 12.6257 14.6433C12.5039 14.7247 12.4089 14.8404 12.3529 14.9757C12.2968 15.1111 12.2821 15.26 12.3107 15.4037C12.3393 15.5474 12.4098 15.6794 12.5134 15.783C12.617 15.8866 12.749 15.9571 12.8927 15.9857C13.0364 16.0143 13.1853 15.9996 13.3207 15.9436C13.456 15.8875 13.5717 15.7926 13.6531 15.6707C13.7345 15.5489 13.778 15.4057 13.778 15.2592C13.778 15.0628 13.6999 14.8743 13.561 14.7354C13.4221 14.5965 13.2337 14.5185 13.0372 14.5185Z" fill="#7465F1"/>
</g>
<path d="M16 2C16 0.895431 16.8989 -0.012889 17.9949 0.124824C20.7537 0.471491 23.387 1.53308 25.6264 3.21983C28.4007 5.30949 30.4196 8.24514 31.3784 11.5834C32.3371 14.9217 32.1835 18.4813 30.9409 21.7246C29.6982 24.9679 27.4339 27.7187 24.49 29.5617C21.5461 31.4047 18.0824 32.2397 14.6221 31.9406C11.1618 31.6414 7.89276 30.2245 5.30876 27.9037C2.72476 25.5829 0.96611 22.4842 0.298426 19.0758C-0.24052 16.3246 -0.0450198 13.4921 0.848426 10.8589C1.20334 9.81295 2.4131 9.40119 3.40669 9.88375C4.40027 10.3663 4.7966 11.561 4.48557 12.6209C3.9463 14.4585 3.85195 16.4085 4.22382 18.3069C4.72458 20.8632 6.04357 23.1871 7.98157 24.9278C9.91957 26.6684 12.3713 27.7311 14.9666 27.9554C17.5618 28.1798 20.1596 27.5535 22.3675 26.1713C24.5754 24.7891 26.2736 22.7259 27.2056 20.2934C28.1376 17.8609 28.2528 15.1913 27.5338 12.6876C26.8147 10.1839 25.3005 7.98211 23.2198 6.41487C21.6746 5.25101 19.8794 4.484 17.9908 4.16628C16.9015 3.98302 16 3.10457 16 2Z" fill="url(#paint0_angular_289_1587)"/>
<defs>
<radialGradient id="paint0_angular_289_1587" cx="0" cy="0" r="1" gradientUnits="userSpaceOnUse" gradientTransform="translate(16 16) rotate(-90) scale(16)">
<stop stop-color="#E1E1FB"/>
<stop offset="1" stop-color="#9696D6"/>
</radialGradient>
<clipPath id="clip0_289_1587">
<rect width="17.7778" height="17.7778" fill="white" transform="translate(7.11133 7.11108)"/>
</clipPath>
</defs>
</svg>
