<svg width="24" height="24" viewBox="0 0 24 24" fill="none" xmlns="http://www.w3.org/2000/svg">
<circle cx="12" cy="12" r="12" fill="#E9E9F4"/>
<path d="M15.3337 9.99995H10.0003V8.66661C9.99935 8.27074 10.1159 7.88348 10.3352 7.55388C10.5544 7.22429 10.8666 6.96718 11.2321 6.81512C11.5976 6.66306 12 6.6229 12.3884 6.69971C12.7767 6.77652 13.1336 6.96686 13.4137 7.24661C13.6643 7.50266 13.8436 7.81983 13.9337 8.16661C13.9555 8.25153 13.9939 8.33131 14.0467 8.4014C14.0994 8.47148 14.1654 8.53049 14.2409 8.57506C14.3164 8.61963 14.4 8.64889 14.4868 8.66117C14.5737 8.67345 14.6621 8.6685 14.747 8.64661C14.8319 8.62473 14.9117 8.58633 14.9818 8.53361C15.0519 8.48089 15.1109 8.41488 15.1554 8.33936C15.2 8.26383 15.2293 8.18027 15.2415 8.09344C15.2538 8.0066 15.2489 7.9182 15.227 7.83328C15.0751 7.25648 14.7739 6.7299 14.3537 6.30661C13.8871 5.84152 13.2932 5.5251 12.647 5.39731C12.0007 5.26951 11.3311 5.33607 10.7226 5.58858C10.1142 5.84109 9.59419 6.26823 9.22833 6.81606C8.86247 7.36389 8.66713 8.00785 8.66699 8.66661V9.99995C8.13656 9.99995 7.62785 10.2107 7.25278 10.5857C6.87771 10.9608 6.66699 11.4695 6.66699 11.9999V16.6666C6.66699 17.197 6.87771 17.7058 7.25278 18.0808C7.62785 18.4559 8.13656 18.6666 8.66699 18.6666H15.3337C15.8641 18.6666 16.3728 18.4559 16.7479 18.0808C17.1229 17.7058 17.3337 17.197 17.3337 16.6666V11.9999C17.3337 11.4695 17.1229 10.9608 16.7479 10.5857C16.3728 10.2107 15.8641 9.99995 15.3337 9.99995ZM16.0003 16.6666C16.0003 16.8434 15.9301 17.013 15.8051 17.138C15.68 17.263 15.5105 17.3333 15.3337 17.3333H8.66699C8.49018 17.3333 8.32061 17.263 8.19559 17.138C8.07056 17.013 8.00033 16.8434 8.00033 16.6666V11.9999C8.00033 11.8231 8.07056 11.6536 8.19559 11.5285C8.32061 11.4035 8.49018 11.3333 8.66699 11.3333H15.3337C15.5105 11.3333 15.68 11.4035 15.8051 11.5285C15.9301 11.6536 16.0003 11.8231 16.0003 11.9999V16.6666Z" fill="#5B588F"/>
</svg>
