<svg width="34" height="34" viewBox="0 0 34 34" fill="none" xmlns="http://www.w3.org/2000/svg">
<g filter="url(#filter0_d_274_1332)">
<circle cx="17" cy="16" r="15" fill="#5B588F"/>
</g>
<path d="M14.17 11C13.9838 11.1874 13.8792 11.4408 13.8792 11.705C13.8792 11.9692 13.9838 12.2226 14.17 12.41L17.71 16L14.17 19.54C13.9838 19.7274 13.8792 19.9808 13.8792 20.245C13.8792 20.5092 13.9838 20.7626 14.17 20.95C14.263 21.0437 14.3736 21.1181 14.4954 21.1689C14.6173 21.2197 14.748 21.2458 14.88 21.2458C15.012 21.2458 15.1427 21.2197 15.2646 21.1689C15.3864 21.1181 15.497 21.0437 15.59 20.95L19.83 16.71C19.9237 16.617 19.9981 16.5064 20.0489 16.3846C20.0997 16.2627 20.1258 16.132 20.1258 16C20.1258 15.868 20.0997 15.7373 20.0489 15.6154C19.9981 15.4936 19.9237 15.383 19.83 15.29L15.59 11C15.497 10.9063 15.3864 10.8319 15.2646 10.7811C15.1427 10.7303 15.012 10.7042 14.88 10.7042C14.748 10.7042 14.6173 10.7303 14.4954 10.7811C14.3736 10.8319 14.263 10.9063 14.17 11Z" fill="white"/>
<defs>
<filter id="filter0_d_274_1332" x="0" y="0" width="34" height="34" filterUnits="userSpaceOnUse" color-interpolation-filters="sRGB">
<feFlood flood-opacity="0" result="BackgroundImageFix"/>
<feColorMatrix in="SourceAlpha" type="matrix" values="0 0 0 0 0 0 0 0 0 0 0 0 0 0 0 0 0 0 127 0" result="hardAlpha"/>
<feMorphology radius="2" operator="erode" in="SourceAlpha" result="effect1_dropShadow_274_1332"/>
<feOffset dy="1"/>
<feGaussianBlur stdDeviation="2"/>
<feComposite in2="hardAlpha" operator="out"/>
<feColorMatrix type="matrix" values="0 0 0 0 0.356863 0 0 0 0 0.345098 0 0 0 0 0.560784 0 0 0 1 0"/>
<feBlend mode="normal" in2="BackgroundImageFix" result="effect1_dropShadow_274_1332"/>
<feBlend mode="normal" in="SourceGraphic" in2="effect1_dropShadow_274_1332" result="shape"/>
</filter>
</defs>
</svg>
