<svg width="24" height="24" viewBox="0 0 24 24" fill="none" xmlns="http://www.w3.org/2000/svg">
<path d="M12 1.5C12 0.671573 12.6742 -0.00966673 13.4961 0.0936177C15.5653 0.353619 17.5403 1.14981 19.2198 2.41487C21.3005 3.98211 22.8147 6.18385 23.5338 8.68755C24.2528 11.1913 24.1376 13.8609 23.2056 16.2934C22.2736 18.7259 20.5754 20.7891 18.3675 22.1713C16.1596 23.5535 13.5618 24.1798 10.9666 23.9554C8.37133 23.7311 5.91957 22.6684 3.98157 20.9278C2.04357 19.1871 0.724582 16.8632 0.22382 14.3069C-0.18039 12.2434 -0.0337649 10.119 0.636319 8.14421C0.902507 7.35971 1.80983 7.05089 2.55502 7.41281C3.30021 7.77473 3.59745 8.67078 3.36418 9.46568C2.95973 10.8439 2.88896 12.3064 3.16786 13.7301C3.54344 15.6474 4.53268 17.3904 5.98618 18.6958C7.43968 20.0013 9.2785 20.7983 11.2249 20.9666C13.1713 21.1348 15.1197 20.6651 16.7756 19.6285C18.4316 18.5918 19.7052 17.0444 20.4042 15.2201C21.1032 13.3957 21.1896 11.3934 20.6503 9.51567C20.111 7.63789 18.9754 5.98659 17.4148 4.81115C16.256 3.93826 14.9095 3.363 13.4931 3.12471C12.6762 2.98727 12 2.32843 12 1.5Z" fill="url(#paint0_angular_289_1573)"/>
<path d="M18 9.95992C17.9931 9.89867 17.9796 9.83834 17.96 9.77992V9.71992C17.9279 9.65137 17.8852 9.58836 17.8333 9.53325L13.8333 5.53325C13.7782 5.4814 13.7152 5.43864 13.6467 5.40659C13.6268 5.40376 13.6066 5.40376 13.5867 5.40659C13.5189 5.36775 13.4441 5.34281 13.3667 5.33325H10.6667C10.1362 5.33325 9.62753 5.54397 9.25245 5.91904C8.87738 6.29411 8.66667 6.80282 8.66667 7.33325V7.99992H8C7.46957 7.99992 6.96086 8.21063 6.58579 8.58571C6.21071 8.96078 6 9.46949 6 9.99992V16.6666C6 17.197 6.21071 17.7057 6.58579 18.0808C6.96086 18.4559 7.46957 18.6666 8 18.6666H13.3333C13.8638 18.6666 14.3725 18.4559 14.7475 18.0808C15.1226 17.7057 15.3333 17.197 15.3333 16.6666V15.9999H16C16.5304 15.9999 17.0391 15.7892 17.4142 15.4141C17.7893 15.0391 18 14.5304 18 13.9999V9.99992C18 9.99992 18 9.99992 18 9.95992ZM14 7.60659L15.7267 9.33325H14.6667C14.4899 9.33325 14.3203 9.26301 14.1953 9.13799C14.0702 9.01297 14 8.8434 14 8.66659V7.60659ZM14 16.6666C14 16.8434 13.9298 17.013 13.8047 17.138C13.6797 17.263 13.5101 17.3333 13.3333 17.3333H8C7.82319 17.3333 7.65362 17.263 7.5286 17.138C7.40357 17.013 7.33333 16.8434 7.33333 16.6666V9.99992C7.33333 9.82311 7.40357 9.65354 7.5286 9.52851C7.65362 9.40349 7.82319 9.33325 8 9.33325H8.66667V13.9999C8.66667 14.5304 8.87738 15.0391 9.25245 15.4141C9.62753 15.7892 10.1362 15.9999 10.6667 15.9999H14V16.6666ZM16.6667 13.9999C16.6667 14.1767 16.5964 14.3463 16.4714 14.4713C16.3464 14.5963 16.1768 14.6666 16 14.6666H10.6667C10.4899 14.6666 10.3203 14.5963 10.1953 14.4713C10.0702 14.3463 10 14.1767 10 13.9999V7.33325C10 7.15644 10.0702 6.98687 10.1953 6.86185C10.3203 6.73682 10.4899 6.66659 10.6667 6.66659H12.6667V8.66659C12.6667 9.19702 12.8774 9.70573 13.2525 10.0808C13.6275 10.4559 14.1362 10.6666 14.6667 10.6666H16.6667V13.9999Z" fill="#19191F"/>
<defs>
<radialGradient id="paint0_angular_289_1573" cx="0" cy="0" r="1" gradientUnits="userSpaceOnUse" gradientTransform="translate(12 12) rotate(-90) scale(12)">
<stop stop-color="#E1E1FB"/>
<stop offset="1" stop-color="#9696D6"/>
</radialGradient>
</defs>
</svg>
