<svg width="24" height="24" viewBox="0 0 24 24" fill="none" xmlns="http://www.w3.org/2000/svg">
<circle opacity="0.5" cx="12" cy="12" r="12" fill="#ADF3CC"/>
<path d="M9.917 10.75H12.0003C12.2213 10.75 12.4333 10.6622 12.5896 10.5059C12.7459 10.3496 12.8337 10.1377 12.8337 9.91664C12.8337 9.69563 12.7459 9.48367 12.5896 9.32739C12.4333 9.17111 12.2213 9.08331 12.0003 9.08331H11.167V8.66664C11.167 8.44563 11.0792 8.23367 10.9229 8.07739C10.7666 7.92111 10.5547 7.83331 10.3337 7.83331C10.1127 7.83331 9.90069 7.92111 9.74441 8.07739C9.58813 8.23367 9.50033 8.44563 9.50033 8.66664V9.12498C8.99402 9.22779 8.54397 9.51506 8.23755 9.93103C7.93112 10.347 7.7902 10.862 7.84212 11.376C7.89404 11.89 8.13511 12.3664 8.51853 12.7127C8.90194 13.059 9.40035 13.2505 9.917 13.25H10.7503C10.8608 13.25 10.9668 13.2939 11.045 13.372C11.1231 13.4502 11.167 13.5561 11.167 13.6666C11.167 13.7771 11.1231 13.8831 11.045 13.9613C10.9668 14.0394 10.8608 14.0833 10.7503 14.0833H8.667C8.44598 14.0833 8.23402 14.1711 8.07774 14.3274C7.92146 14.4837 7.83367 14.6956 7.83367 14.9166C7.83367 15.1377 7.92146 15.3496 8.07774 15.5059C8.23402 15.6622 8.44598 15.75 8.667 15.75H9.50033V16.1666C9.50033 16.3877 9.58813 16.5996 9.74441 16.7559C9.90069 16.9122 10.1127 17 10.3337 17C10.5547 17 10.7666 16.9122 10.9229 16.7559C11.0792 16.5996 11.167 16.3877 11.167 16.1666V15.7083C11.6733 15.6055 12.1234 15.3182 12.4298 14.9023C12.7362 14.4863 12.8771 13.9713 12.8252 13.4573C12.7733 12.9432 12.5322 12.4668 12.1488 12.1205C11.7654 11.7743 11.267 11.5828 10.7503 11.5833H9.917C9.80649 11.5833 9.70051 11.5394 9.62237 11.4613C9.54423 11.3831 9.50033 11.2771 9.50033 11.1666C9.50033 11.0561 9.54423 10.9502 9.62237 10.872C9.70051 10.7939 9.80649 10.75 9.917 10.75ZM19.5003 12H17.0003V4.49998C17.0009 4.35313 16.9627 4.20875 16.8895 4.08143C16.8163 3.95412 16.7108 3.8484 16.5837 3.77498C16.457 3.70184 16.3133 3.66333 16.167 3.66333C16.0207 3.66333 15.877 3.70184 15.7503 3.77498L13.2503 5.20831L10.7503 3.77498C10.6236 3.70184 10.4799 3.66333 10.3337 3.66333C10.1874 3.66333 10.0437 3.70184 9.917 3.77498L7.417 5.20831L4.917 3.77498C4.79032 3.70184 4.64661 3.66333 4.50033 3.66333C4.35405 3.66333 4.21035 3.70184 4.08367 3.77498C3.9565 3.8484 3.85098 3.95412 3.77781 4.08143C3.70464 4.20875 3.66642 4.35313 3.667 4.49998V17.8333C3.667 18.4964 3.93039 19.1322 4.39923 19.6011C4.86807 20.0699 5.50396 20.3333 6.167 20.3333H17.8337C18.4967 20.3333 19.1326 20.0699 19.6014 19.6011C20.0703 19.1322 20.3337 18.4964 20.3337 17.8333V12.8333C20.3337 12.6123 20.2459 12.4003 20.0896 12.2441C19.9333 12.0878 19.7213 12 19.5003 12ZM6.167 18.6666C5.94598 18.6666 5.73402 18.5788 5.57774 18.4226C5.42146 18.2663 5.33367 18.0543 5.33367 17.8333V5.94164L7.00033 6.89164C7.12895 6.95882 7.2719 6.9939 7.417 6.9939C7.5621 6.9939 7.70505 6.95882 7.83367 6.89164L10.3337 5.45831L12.8337 6.89164C12.9623 6.95882 13.1052 6.9939 13.2503 6.9939C13.3954 6.9939 13.5384 6.95882 13.667 6.89164L15.3337 5.94164V17.8333C15.3359 18.1176 15.3866 18.3994 15.4837 18.6666H6.167ZM18.667 17.8333C18.667 18.0543 18.5792 18.2663 18.4229 18.4226C18.2666 18.5788 18.0547 18.6666 17.8337 18.6666C17.6126 18.6666 17.4007 18.5788 17.2444 18.4226C17.0881 18.2663 17.0003 18.0543 17.0003 17.8333V13.6666H18.667V17.8333Z" fill="#69CA94"/>
</svg>
