<svg width="24" height="24" viewBox="0 0 24 24" fill="none" xmlns="http://www.w3.org/2000/svg">
<circle opacity="0.5" cx="12" cy="12" r="12" fill="#F9A8D1"/>
<path d="M21.167 11.3334C20.8337 10.3334 19.8337 9.66675 18.8337 9.66675C17.417 9.66675 16.3337 10.7501 16.3337 12.1667C16.3337 13.2501 17.0003 14.1667 18.0003 14.5001V15.9167C18.0003 18.0001 16.3337 19.6667 14.2503 19.6667C12.167 19.6667 10.5003 18.0001 10.5003 15.9167V15.4167C12.917 15.0001 14.667 12.9167 14.667 10.5001V5.50008C14.667 5.00008 14.3337 4.66675 13.8337 4.66675H12.167C11.667 4.66675 11.3337 5.00008 11.3337 5.50008C11.3337 6.00008 11.667 6.33341 12.167 6.33341H13.0003V10.5001C13.0003 12.3334 11.5003 13.8334 9.66699 13.8334C7.83366 13.8334 6.33366 12.3334 6.33366 10.5001V6.33341H7.16699C7.66699 6.33341 8.00033 6.00008 8.00033 5.50008C8.00033 5.00008 7.66699 4.66675 7.16699 4.66675H5.50033C5.00033 4.66675 4.66699 5.00008 4.66699 5.50008V10.5001C4.66699 12.9167 6.41699 15.0001 8.83366 15.4167V15.9167C8.83366 18.9167 11.2503 21.3334 14.2503 21.3334C17.2503 21.3334 19.667 18.9167 19.667 15.9167V14.5001C21.0003 14.0834 21.667 12.6667 21.167 11.3334Z" fill="#EF5DA8"/>
</svg>
