<svg width="40" height="40" viewBox="0 0 40 40" fill="none" xmlns="http://www.w3.org/2000/svg">
<rect width="40" height="40" rx="20" fill="#E9E9F4"/>
<path d="M27 12H13C12.2044 12 11.4413 12.3161 10.8787 12.8787C10.3161 13.4413 10 14.2044 10 15V25C10 25.7956 10.3161 26.5587 10.8787 27.1213C11.4413 27.6839 12.2044 28 13 28H27C27.7956 28 28.5587 27.6839 29.1213 27.1213C29.6839 26.5587 30 25.7956 30 25V15C30 14.2044 29.6839 13.4413 29.1213 12.8787C28.5587 12.3161 27.7956 12 27 12ZM13 14H27C27.2652 14 27.5196 14.1054 27.7071 14.2929C27.8946 14.4804 28 14.7348 28 15L20 19.88L12 15C12 14.7348 12.1054 14.4804 12.2929 14.2929C12.4804 14.1054 12.7348 14 13 14ZM28 25C28 25.2652 27.8946 25.5196 27.7071 25.7071C27.5196 25.8946 27.2652 26 27 26H13C12.7348 26 12.4804 25.8946 12.2929 25.7071C12.1054 25.5196 12 25.2652 12 25V17.28L19.48 21.85C19.632 21.9378 19.8045 21.984 19.98 21.984C20.1555 21.984 20.328 21.9378 20.48 21.85L28 17.28V25Z" fill="#5B588F"/>
</svg>
