<svg width="40" height="40" viewBox="0 0 40 40" fill="none" xmlns="http://www.w3.org/2000/svg">
<rect width="40" height="40" rx="20" fill="#E9E9F4"/>
<path fill-rule="evenodd" clip-rule="evenodd" d="M10.1579 11.1765H13.6316V14.7059H10.1579L10.1579 11.1765ZM9 11.1765C9 10.5267 9.51841 10 10.1579 10H13.6316C14.2711 10 14.7895 10.5267 14.7895 11.1765V14.7059C14.7895 15.3556 14.2711 15.8824 13.6316 15.8824H10.1579C9.51841 15.8824 9 15.3556 9 14.7059V11.1765ZM17.1051 11.1765H29.8421V14.7059H17.1051V11.1765ZM15.9472 11.1765C15.9472 10.5267 16.4656 10 17.1051 10H29.8421C30.4816 10 31 10.5267 31 11.1765V14.7059C31 15.3556 30.4816 15.8824 29.8421 15.8824H17.1051C16.4656 15.8824 15.9472 15.3556 15.9472 14.7059V11.1765ZM17.1051 18.2354H29.8421V21.7648H17.1051V18.2354ZM15.9472 18.2354C15.9472 17.5857 16.4656 17.059 17.1051 17.059H29.8421C30.4816 17.059 31 17.5857 31 18.2354V21.7648C31 22.4146 30.4816 22.9413 29.8421 22.9413H17.1051C16.4656 22.9413 15.9472 22.4146 15.9472 21.7648V18.2354ZM29.8421 25.294H17.1051V28.8234H29.8421V25.294ZM17.1051 24.1176C16.4656 24.1176 15.9472 24.6443 15.9472 25.294V28.8234C15.9472 29.4732 16.4656 29.9999 17.1051 29.9999H29.8421C30.4816 29.9999 31 29.4732 31 28.8234V25.294C31 24.6443 30.4816 24.1176 29.8421 24.1176H17.1051ZM13.6316 18.2353H10.1579L10.1579 21.7647H13.6316V18.2353ZM10.1579 17.0588C9.51841 17.0588 9 17.5855 9 18.2353V21.7647C9 22.4144 9.51841 22.9412 10.1579 22.9412H13.6316C14.2711 22.9412 14.7895 22.4144 14.7895 21.7647V18.2353C14.7895 17.5855 14.2711 17.0588 13.6316 17.0588H10.1579ZM10.1579 25.2941H13.6316V28.8235H10.1579L10.1579 25.2941ZM9 25.2941C9 24.6443 9.51841 24.1176 10.1579 24.1176H13.6316C14.2711 24.1176 14.7895 24.6443 14.7895 25.2941V28.8235C14.7895 29.4732 14.2711 30 13.6316 30H10.1579C9.51841 30 9 29.4732 9 28.8235V25.2941Z" fill="#5B588F"/>
</svg>
