<svg width="24" height="24" viewBox="0 0 24 24" fill="none" xmlns="http://www.w3.org/2000/svg">
<circle opacity="0.5" cx="12" cy="12" r="12" fill="#F4BF6E"/>
<path d="M18.8168 10.4917C18.2174 10.3833 17.6092 10.3303 17.0001 10.3334C16.6501 10.3334 16.3084 10.3334 15.9668 10.4001C15.5414 9.83248 14.9985 9.36345 14.3751 9.02508C14.9106 8.44029 15.2078 7.67632 15.2084 6.88341C15.2084 6.0303 14.8695 5.21213 14.2663 4.60889C13.6631 4.00565 12.8449 3.66675 11.9918 3.66675C11.1387 3.66675 10.3205 4.00565 9.71725 4.60889C9.11401 5.21213 8.77511 6.0303 8.77511 6.88341C8.77572 7.67632 9.07299 8.44029 9.60844 9.02508C8.98877 9.36521 8.44671 9.83065 8.01678 10.3917C7.69178 10.3334 7.35011 10.3334 7.00011 10.3334C6.39046 10.3358 5.78233 10.3944 5.18344 10.5084C4.98931 10.5439 4.81408 10.6472 4.68894 10.7998C4.56381 10.9524 4.49689 11.1444 4.50011 11.3417V18.2167C4.49991 18.3392 4.52669 18.4601 4.57854 18.571C4.63039 18.6819 4.70604 18.7801 4.80011 18.8584C4.89359 18.9372 5.00326 18.9945 5.12136 19.0262C5.23945 19.0579 5.36307 19.0632 5.48344 19.0417C5.98212 18.9331 6.48992 18.8718 7.00011 18.8584C8.61436 18.8566 10.1936 19.329 11.5418 20.2167L11.6501 20.2584C11.7606 20.3064 11.8796 20.3319 12.0001 20.3334C12.0796 20.3324 12.1585 20.3183 12.2334 20.2917H12.2918L12.4001 20.2501C13.7611 19.3395 15.3626 18.855 17.0001 18.8584C17.5092 18.8608 18.017 18.911 18.5168 19.0084C18.6372 19.0299 18.7608 19.0246 18.8789 18.9929C18.997 18.9612 19.1066 18.9039 19.2001 18.8251C19.2942 18.7467 19.3698 18.6486 19.4217 18.5377C19.4735 18.4268 19.5003 18.3058 19.5001 18.1834V11.3084C19.4994 11.1139 19.4307 10.9258 19.3059 10.7767C19.1811 10.6276 19.0081 10.5268 18.8168 10.4917ZM12.0001 5.33341C12.3905 5.3621 12.7556 5.53741 13.022 5.82415C13.2884 6.11089 13.4365 6.48782 13.4365 6.87925C13.4365 7.27067 13.2884 7.6476 13.022 7.93435C12.7556 8.22109 12.3905 8.3964 12.0001 8.42508C11.6097 8.3964 11.2447 8.22109 10.9782 7.93435C10.7118 7.6476 10.5637 7.27067 10.5637 6.87925C10.5637 6.48782 10.7118 6.11089 10.9782 5.82415C11.2447 5.53741 11.6097 5.3621 12.0001 5.33341ZM11.1668 18.1084C9.86067 17.5047 8.439 17.1919 7.00011 17.1917C6.72511 17.1917 6.45011 17.1917 6.16678 17.2334V12.0001C6.86558 11.9219 7.57163 11.9359 8.26678 12.0417H8.35844C9.35144 12.2242 10.303 12.5857 11.1668 13.1084V18.1084ZM12.0001 11.6667C11.6295 11.453 11.2454 11.2637 10.8501 11.1001H10.8001C10.5251 10.9917 10.2501 10.8834 9.96678 10.8001C10.5454 10.3396 11.2607 10.0845 12.0001 10.0751C12.7376 10.0798 13.4527 10.3289 14.0334 10.7834C13.326 11.0043 12.6443 11.3004 12.0001 11.6667ZM17.8334 17.2334C16.1223 17.0615 14.3963 17.3492 12.8334 18.0667V13.0667C13.6988 12.5574 14.6509 12.2127 15.6418 12.0501H15.8084C16.4784 11.9458 17.1591 11.9289 17.8334 12.0001V17.2334Z" fill="#D68E22"/>
</svg>
