<svg width="24" height="24" viewBox="0 0 24 24" fill="none" xmlns="http://www.w3.org/2000/svg">
<path d="M22 12L22.6576 12.5261C22.9036 12.2185 22.9036 11.7815 22.6576 11.4739L22 12ZM13 11.1579C12.5349 11.1579 12.1579 11.5349 12.1579 12C12.1579 12.4651 12.5349 12.8421 13 12.8421L13 11.1579ZM18.6576 17.5261L22.6576 12.5261L21.3424 11.4739L17.3424 16.4739L18.6576 17.5261ZM22.6576 11.4739L18.6576 6.47393L17.3424 7.52607L21.3424 12.5261L22.6576 11.4739ZM22 11.1579L13 11.1579L13 12.8421L22 12.8421L22 11.1579Z" fill="white"/>
<path d="M14 15.8681L14 16.6115C14 18.2298 14 19.039 13.526 19.5985C13.0521 20.158 12.2539 20.291 10.6576 20.5571L8.98639 20.8356C5.74329 21.3761 4.12175 21.6464 3.06087 20.7477C2 19.849 2 18.2051 2 14.9172L2 9.08276C2 5.79493 2 4.15102 3.06087 3.25232C4.12175 2.35363 5.7433 2.62388 8.98639 3.1644L10.6576 3.44293C12.2539 3.70899 13.0521 3.84202 13.526 4.40151C14 4.961 14 5.77017 14 7.38851L14 7.93404" stroke="white" stroke-width="1.68424" stroke-linecap="round"/>
</svg>
