<svg width="24" height="24" viewBox="0 0 24 24" fill="none" xmlns="http://www.w3.org/2000/svg">
<path d="M21.9 7.59001L20.9 3.72001C20.7982 3.33568 20.6209 2.97544 20.3786 2.66022C20.1363 2.345 19.8338 2.08109 19.4886 1.88383C19.1434 1.68657 18.7624 1.55989 18.3678 1.51117C17.9732 1.46244 17.5728 1.49264 17.19 1.60001L15.26 2.12001C15.1323 2.15365 15.0126 2.21224 14.9077 2.29241C14.8028 2.37257 14.7148 2.47272 14.6488 2.58708C14.5827 2.70143 14.54 2.82772 14.5231 2.95867C14.5061 3.08961 14.5153 3.22262 14.55 3.35001L14.81 4.35001L4.19002 7.16001C3.93437 7.22808 3.7161 7.39469 3.58302 7.62335C3.44995 7.85201 3.41291 8.12409 3.48002 8.38001L3.74002 9.38001L2.74002 9.64001C2.47481 9.67316 2.23362 9.81031 2.06953 10.0213C1.90544 10.2323 1.83187 10.4998 1.86502 10.765C1.89818 11.0302 2.03533 11.2714 2.24631 11.4355C2.45728 11.5996 2.72481 11.6732 2.99002 11.64C3.07638 11.6504 3.16367 11.6504 3.25002 11.64L4.25002 11.37L4.51003 12.37C4.57893 12.6225 4.74408 12.8379 4.97002 12.97C5.12146 13.0599 5.29394 13.1082 5.47002 13.11C5.55603 13.1251 5.64402 13.1251 5.73002 13.11L9.00002 12.08V12.5C9.00072 12.944 9.10336 13.3819 9.30002 13.78L4.30002 18.78C4.11172 18.967 4.00541 19.2211 4.00447 19.4865C4.00353 19.7518 4.10805 20.0067 4.29502 20.195C4.482 20.3833 4.73613 20.4896 5.00149 20.4906C5.26685 20.4915 5.52172 20.387 5.71002 20.2L10.71 15.2L10.99 15.31V21.5C10.99 21.7652 11.0954 22.0196 11.2829 22.2071C11.4705 22.3947 11.7248 22.5 11.99 22.5C12.2552 22.5 12.5096 22.3947 12.6971 22.2071C12.8847 22.0196 12.99 21.7652 12.99 21.5V15.32C13.0891 15.2861 13.1859 15.246 13.28 15.2L18.28 20.2C18.4683 20.387 18.7232 20.4915 18.9886 20.4906C19.2539 20.4896 19.508 20.3833 19.695 20.195C19.882 20.0067 19.9865 19.7518 19.9856 19.4865C19.9846 19.2211 19.8783 18.967 19.69 18.78L14.69 13.78C14.8841 13.3806 14.9899 12.944 15 12.5V10.5L16.35 10.14L16.6 11.14C16.6586 11.3582 16.7894 11.5501 16.9709 11.6844C17.1525 11.8188 17.3743 11.8877 17.6 11.88H17.86L19.79 11.36C20.1801 11.2576 20.5455 11.0776 20.8645 10.8308C21.1834 10.584 21.4493 10.2754 21.6463 9.92347C21.8433 9.57154 21.9673 9.18351 22.0108 8.78258C22.0544 8.38165 22.0167 7.97604 21.9 7.59001ZM13 12.5C12.999 12.7575 12.8987 13.0046 12.72 13.19C12.5346 13.3687 12.2875 13.469 12.03 13.47C11.7677 13.4689 11.5163 13.3648 11.33 13.18C11.1453 12.9937 11.0411 12.7423 11.04 12.48V11.48L13 11V12.5ZM6.19002 10.76L5.67002 8.83001L15.33 6.24001L15.59 7.24001L15.85 8.24001L6.19002 10.76ZM19.87 8.86001C19.8045 8.97477 19.7168 9.07541 19.6121 9.15608C19.5074 9.23675 19.3877 9.29587 19.26 9.33001L18.26 9.59001L17.48 6.69001L17 4.76001L16.74 3.76001L17.74 3.50001C17.8674 3.46528 18.0004 3.45613 18.1314 3.47307C18.2623 3.49002 18.3886 3.53272 18.503 3.59873C18.6173 3.66474 18.7175 3.75274 18.7976 3.85766C18.8778 3.96258 18.9364 4.08233 18.97 4.21001L19.97 8.08001C20.0069 8.21003 20.0171 8.34619 19.9999 8.48025C19.9827 8.61431 19.9385 8.7435 19.87 8.86001Z" fill="#9591AF"/>
</svg>
