<svg width="24" height="24" viewBox="0 0 24 24" fill="none" xmlns="http://www.w3.org/2000/svg">
<path d="M16.2003 9.47675L16.807 8.87675C16.9325 8.75121 17.0031 8.58095 17.0031 8.40341C17.0031 8.22588 16.9325 8.05562 16.807 7.93008C16.6815 7.80455 16.5112 7.73402 16.3337 7.73402C16.1561 7.73402 15.9859 7.80455 15.8603 7.93008L15.2603 8.53675C14.326 7.81398 13.1782 7.42184 11.997 7.42184C10.8158 7.42184 9.66797 7.81398 8.73368 8.53675L8.12701 7.92341C8.00059 7.79788 7.82948 7.7277 7.65132 7.72833C7.47316 7.72896 7.30255 7.80033 7.17701 7.92675C7.05147 8.05317 6.9813 8.22428 6.98193 8.40244C6.98255 8.5806 7.05392 8.75121 7.18034 8.87675L7.79368 9.48341C7.06235 10.4151 6.66554 11.5656 6.66701 12.7501C6.66483 13.6004 6.86599 14.4388 7.25369 15.1956C7.6414 15.9523 8.20442 16.6054 8.8958 17.1004C9.58719 17.5953 10.3869 17.9178 11.2282 18.0409C12.0695 18.164 12.9281 18.0841 13.7323 17.808C14.5365 17.5319 15.263 17.0675 15.8513 16.4535C16.4395 15.8396 16.8725 15.0939 17.114 14.2786C17.3555 13.4633 17.3986 12.6021 17.2397 11.7668C17.0807 10.9315 16.7244 10.1463 16.2003 9.47675ZM12.0003 16.7501C11.2092 16.7501 10.4359 16.5155 9.77806 16.076C9.12027 15.6364 8.60758 15.0117 8.30483 14.2808C8.00207 13.5499 7.92286 12.7456 8.0772 11.9697C8.23154 11.1938 8.61251 10.4811 9.17192 9.92165C9.73133 9.36224 10.4441 8.98128 11.22 8.82694C11.9959 8.6726 12.8002 8.75181 13.5311 9.05456C14.262 9.35731 14.8867 9.87 15.3262 10.5278C15.7657 11.1856 16.0003 11.959 16.0003 12.7501C16.0003 13.8109 15.5789 14.8284 14.8288 15.5785C14.0786 16.3287 13.0612 16.7501 12.0003 16.7501ZM10.667 6.75008H13.3337C13.5105 6.75008 13.6801 6.67984 13.8051 6.55482C13.9301 6.42979 14.0003 6.26023 14.0003 6.08341C14.0003 5.9066 13.9301 5.73703 13.8051 5.61201C13.6801 5.48699 13.5105 5.41675 13.3337 5.41675H10.667C10.4902 5.41675 10.3206 5.48699 10.1956 5.61201C10.0706 5.73703 10.0003 5.9066 10.0003 6.08341C10.0003 6.26023 10.0706 6.42979 10.1956 6.55482C10.3206 6.67984 10.4902 6.75008 10.667 6.75008ZM12.667 10.7501C12.667 10.5733 12.5968 10.4037 12.4717 10.2787C12.3467 10.1537 12.1772 10.0834 12.0003 10.0834C11.8235 10.0834 11.654 10.1537 11.5289 10.2787C11.4039 10.4037 11.3337 10.5733 11.3337 10.7501V12.0101C11.1827 12.1451 11.0763 12.3228 11.0286 12.5196C10.9808 12.7164 10.9939 12.9231 11.0662 13.1123C11.1384 13.3015 11.2664 13.4642 11.4333 13.5791C11.6001 13.6939 11.7978 13.7554 12.0003 13.7554C12.2029 13.7554 12.4006 13.6939 12.5674 13.5791C12.7342 13.4642 12.8623 13.3015 12.9345 13.1123C13.0068 12.9231 13.0199 12.7164 12.9721 12.5196C12.9244 12.3228 12.818 12.1451 12.667 12.0101V10.7501Z" fill="#19191F"/>
<path d="M12 1.5C12 0.671573 12.6742 -0.00966673 13.4961 0.0936177C15.5653 0.353619 17.5403 1.14981 19.2198 2.41487C21.3005 3.98211 22.8147 6.18385 23.5338 8.68755C24.2528 11.1913 24.1376 13.8609 23.2056 16.2934C22.2736 18.7259 20.5754 20.7891 18.3675 22.1713C16.1596 23.5535 13.5618 24.1798 10.9666 23.9554C8.37133 23.7311 5.91957 22.6684 3.98157 20.9278C2.04357 19.1871 0.724582 16.8632 0.22382 14.3069C-0.18039 12.2434 -0.0337649 10.119 0.636319 8.14421C0.902507 7.35971 1.80983 7.05089 2.55502 7.41281C3.30021 7.77473 3.59745 8.67078 3.36418 9.46568C2.95973 10.8439 2.88896 12.3064 3.16786 13.7301C3.54344 15.6474 4.53268 17.3904 5.98618 18.6958C7.43968 20.0013 9.2785 20.7983 11.2249 20.9666C13.1713 21.1348 15.1197 20.6651 16.7756 19.6285C18.4316 18.5918 19.7052 17.0444 20.4042 15.2201C21.1032 13.3957 21.1896 11.3934 20.6503 9.51567C20.111 7.63789 18.9754 5.98659 17.4148 4.81115C16.256 3.93826 14.9095 3.363 13.4931 3.12471C12.6762 2.98727 12 2.32843 12 1.5Z" fill="url(#paint0_angular_289_1561)"/>
<defs>
<radialGradient id="paint0_angular_289_1561" cx="0" cy="0" r="1" gradientUnits="userSpaceOnUse" gradientTransform="translate(12 12) rotate(-90) scale(12)">
<stop stop-color="#E1E1FB"/>
<stop offset="1" stop-color="#9696D6"/>
</radialGradient>
</defs>
</svg>
