<svg width="24" height="24" viewBox="0 0 24 24" fill="none" xmlns="http://www.w3.org/2000/svg">
<path d="M11.9995 2.00004C10.4674 1.99727 8.95516 2.34658 7.57948 3.02101C6.20379 3.69544 5.00147 4.67696 4.06531 5.8898C3.12916 7.10264 2.4842 8.51438 2.18023 10.016C1.87626 11.5177 1.92141 13.0691 2.31218 14.5506C2.70295 16.032 3.4289 17.4038 4.43399 18.5602C5.43908 19.7166 6.69644 20.6265 8.10902 21.2198C9.52159 21.8131 11.0516 22.0739 12.581 21.982C14.1103 21.8902 15.5981 21.4481 16.9295 20.69H16.9995H17.0495C18.9748 19.5941 20.4816 17.8898 21.3335 15.8448C22.1854 13.7997 22.334 11.5297 21.7562 9.39107C21.1783 7.25241 19.9066 5.36618 18.1407 4.02845C16.3749 2.69073 14.2148 1.97727 11.9995 2.00004ZM12.9995 4.07004C14.7596 4.29323 16.3955 5.09514 17.65 6.34963C18.9044 7.60412 19.7063 9.24002 19.9295 11H12.9995V4.07004ZM11.9995 20C9.97404 19.9862 8.0292 19.2046 6.55748 17.8129C5.08576 16.4212 4.19674 14.523 4.06984 12.5014C3.94293 10.4799 4.58759 8.48543 5.87372 6.9206C7.15984 5.35577 8.99167 4.33705 10.9995 4.07004V12C11.0035 12.1198 11.0271 12.238 11.0695 12.35V12.43V12.5L15.0695 19.37C14.0993 19.7853 13.0549 19.9996 11.9995 20ZM16.8295 18.36L13.7295 13H19.9295C19.7949 14.0546 19.4514 15.0718 18.9191 15.9921C18.3869 16.9124 17.6765 17.7174 16.8295 18.36Z" fill="#7465F1"/>
</svg>
