<svg width="16" height="16" viewBox="0 0 16 16" fill="none" xmlns="http://www.w3.org/2000/svg">
<path d="M7.99967 4.66659C7.82286 4.66659 7.65329 4.73682 7.52827 4.86185C7.40325 4.98687 7.33301 5.15644 7.33301 5.33325V7.99992C7.33301 8.17673 7.40325 8.3463 7.52827 8.47132C7.65329 8.59635 7.82286 8.66659 7.99967 8.66659C8.17649 8.66659 8.34605 8.59635 8.47108 8.47132C8.5961 8.3463 8.66634 8.17673 8.66634 7.99992V5.33325C8.66634 5.15644 8.5961 4.98687 8.47108 4.86185C8.34605 4.73682 8.17649 4.66659 7.99967 4.66659ZM7.99967 9.99992C7.86782 9.99992 7.73893 10.039 7.62929 10.1123C7.51966 10.1855 7.43421 10.2896 7.38375 10.4115C7.3333 10.5333 7.32009 10.6673 7.34582 10.7966C7.37154 10.926 7.43504 11.0448 7.52827 11.138C7.62151 11.2312 7.74029 11.2947 7.86961 11.3204C7.99894 11.3462 8.13298 11.333 8.2548 11.2825C8.37661 11.232 8.48073 11.1466 8.55399 11.037C8.62724 10.9273 8.66634 10.7984 8.66634 10.6666C8.66634 10.4898 8.5961 10.3202 8.47108 10.1952C8.34605 10.0702 8.17649 9.99992 7.99967 9.99992ZM14.473 5.03992L10.9597 1.52659C10.8319 1.40476 10.6629 1.33571 10.4863 1.33325H5.51301C5.3365 1.33571 5.16743 1.40476 5.03967 1.52659L1.52634 5.03992C1.40452 5.16767 1.33546 5.33674 1.33301 5.51325V10.4866C1.33546 10.6631 1.40452 10.8322 1.52634 10.9599L5.03967 14.4733C5.16743 14.5951 5.3365 14.6641 5.51301 14.6666H10.4863C10.6629 14.6641 10.8319 14.5951 10.9597 14.4733L14.473 10.9599C14.5948 10.8322 14.6639 10.6631 14.6663 10.4866V5.51325C14.6639 5.33674 14.5948 5.16767 14.473 5.03992V5.03992ZM13.333 10.2066L10.2063 13.3333H5.79301L2.66634 10.2066V5.79325L5.79301 2.66659H10.2063L13.333 5.79325V10.2066Z" fill="#CF5250"/>
</svg>
